<?xml version="1.0" encoding="UTF-8" standalone="no"?><svg xmlns="http://www.w3.org/2000/svg" xmlns:xlink="http://www.w3.org/1999/xlink" contentStyleType="text/css" height="764px" preserveAspectRatio="none" style="width:550px;height:764px;background:#FFFFFF;" version="1.1" viewBox="0 0 550 764" width="550px" zoomAndPan="magnify"><defs/><g><!--MD5=[6caf0c7813338c137a9deddfd1244e67]
entity ClassRepository--><g id="elem_ClassRepository"><path d="M35.98,713 C35.98,703 97.48,703 97.48,703 C97.48,703 158.98,703 158.98,713 L158.98,737.6406 C158.98,747.6406 97.48,747.6406 97.48,747.6406 C97.48,747.6406 35.98,747.6406 35.98,737.6406 L35.98,713 " fill="#F1F1F1" style="stroke:#181818;stroke-width:0.5;"/><path d="M35.98,713 C35.98,723 97.48,723 97.48,723 C97.48,723 158.98,723 158.98,713 " fill="none" style="stroke:#181818;stroke-width:0.5;"/><text fill="#000000" font-family="sans-serif" font-size="14" lengthAdjust="spacing" textLength="103" x="45.98" y="739.6738">ClassRepository</text></g><!--MD5=[949c9be0e0132bf3fce0bbdfb54c5f8e]
class UpdateClassScheduleUi--><g id="elem_UpdateClassScheduleUi"><rect codeLine="3" fill="#F1F1F1" height="48" id="UpdateClassScheduleUi" rx="2.5" ry="2.5" style="stroke:#181818;stroke-width:0.5;" width="183" x="143.98" y="7"/><ellipse cx="158.98" cy="23" fill="#ADD1B2" rx="11" ry="11" style="stroke:#181818;stroke-width:1.0;"/><path d="M161.7456,18.875 Q161.9019,18.6563 162.0894,18.5469 Q162.2769,18.4375 162.4956,18.4375 Q162.8706,18.4375 163.105,18.7031 Q163.3394,18.9531 163.3394,19.5625 L163.3394,21.0156 Q163.3394,21.625 163.105,21.8906 Q162.8706,22.1563 162.4956,22.1563 Q162.1519,22.1563 161.9488,21.9531 Q161.7456,21.7656 161.6363,21.25 Q161.5894,20.8906 161.4019,20.7031 Q161.0738,20.3281 160.4644,20.1094 Q159.855,19.8906 159.23,19.8906 Q158.4644,19.8906 157.8238,20.2188 Q157.1988,20.5469 156.6988,21.2969 Q156.2144,22.0469 156.2144,23.0781 L156.2144,24.1719 Q156.2144,25.4063 157.105,26.2344 Q157.9956,27.0469 159.5894,27.0469 Q160.5269,27.0469 161.1831,26.7969 Q161.5738,26.6406 161.9956,26.2031 Q162.2613,25.9375 162.4019,25.8594 Q162.5581,25.7813 162.7613,25.7813 Q163.0894,25.7813 163.3394,26.0469 Q163.605,26.2969 163.605,26.6406 Q163.605,26.9844 163.2613,27.3906 Q162.7613,27.9688 161.9644,28.2969 Q160.8863,28.75 159.5894,28.75 Q158.0738,28.75 156.8706,28.125 Q155.8863,27.625 155.1988,26.5625 Q154.5113,25.4844 154.5113,24.2031 L154.5113,23.0469 Q154.5113,21.7188 155.1206,20.5781 Q155.7456,19.4219 156.8394,18.8125 Q157.9331,18.1875 159.1675,18.1875 Q159.9019,18.1875 160.5425,18.3594 Q161.1988,18.5156 161.7456,18.875 Z " fill="#000000"/><text fill="#000000" font-family="sans-serif" font-size="14" lengthAdjust="spacing" textLength="151" x="172.98" y="27.8535">UpdateClassScheduleUi</text><line style="stroke:#181818;stroke-width:0.5;" x1="144.98" x2="325.98" y1="39" y2="39"/><line style="stroke:#181818;stroke-width:0.5;" x1="144.98" x2="325.98" y1="47" y2="47"/></g><!--MD5=[9e710380ac26dbc17343245c19f861e5]
class ClassController--><g id="elem_ClassController"><rect codeLine="6" fill="#F1F1F1" height="79.2813" id="ClassController" rx="2.5" ry="2.5" style="stroke:#181818;stroke-width:0.5;" width="129" x="170.98" y="115"/><ellipse cx="185.98" cy="131" fill="#ADD1B2" rx="11" ry="11" style="stroke:#181818;stroke-width:1.0;"/><path d="M188.7456,126.875 Q188.9019,126.6563 189.0894,126.5469 Q189.2769,126.4375 189.4956,126.4375 Q189.8706,126.4375 190.105,126.7031 Q190.3394,126.9531 190.3394,127.5625 L190.3394,129.0156 Q190.3394,129.625 190.105,129.8906 Q189.8706,130.1563 189.4956,130.1563 Q189.1519,130.1563 188.9488,129.9531 Q188.7456,129.7656 188.6363,129.25 Q188.5894,128.8906 188.4019,128.7031 Q188.0738,128.3281 187.4644,128.1094 Q186.855,127.8906 186.23,127.8906 Q185.4644,127.8906 184.8238,128.2188 Q184.1988,128.5469 183.6988,129.2969 Q183.2144,130.0469 183.2144,131.0781 L183.2144,132.1719 Q183.2144,133.4063 184.105,134.2344 Q184.9956,135.0469 186.5894,135.0469 Q187.5269,135.0469 188.1831,134.7969 Q188.5738,134.6406 188.9956,134.2031 Q189.2613,133.9375 189.4019,133.8594 Q189.5581,133.7813 189.7613,133.7813 Q190.0894,133.7813 190.3394,134.0469 Q190.605,134.2969 190.605,134.6406 Q190.605,134.9844 190.2613,135.3906 Q189.7613,135.9688 188.9644,136.2969 Q187.8863,136.75 186.5894,136.75 Q185.0738,136.75 183.8706,136.125 Q182.8863,135.625 182.1988,134.5625 Q181.5113,133.4844 181.5113,132.2031 L181.5113,131.0469 Q181.5113,129.7188 182.1206,128.5781 Q182.7456,127.4219 183.8394,126.8125 Q184.9331,126.1875 186.1675,126.1875 Q186.9019,126.1875 187.5425,126.3594 Q188.1988,126.5156 188.7456,126.875 Z " fill="#000000"/><text fill="#000000" font-family="sans-serif" font-size="14" lengthAdjust="spacing" textLength="97" x="199.98" y="135.8535">ClassController</text><line style="stroke:#181818;stroke-width:0.5;" x1="171.98" x2="298.98" y1="147" y2="147"/><line style="stroke:#181818;stroke-width:0.5;" x1="171.98" x2="298.98" y1="155" y2="155"/><ellipse cx="181.98" cy="168.3203" fill="#84BE84" rx="3" ry="3" style="stroke:#038048;stroke-width:1.0;"/><text fill="#000000" font-family="sans-serif" font-size="14" lengthAdjust="spacing" textLength="101" x="190.98" y="171.6738">addClass(class)</text><ellipse cx="181.98" cy="183.9609" fill="#84BE84" rx="3" ry="3" style="stroke:#038048;stroke-width:1.0;"/><text fill="#000000" font-family="sans-serif" font-size="14" lengthAdjust="spacing" textLength="80" x="190.98" y="187.3145">getClasses()</text></g><!--MD5=[580d062a823ec63ec55e6ab7a616949e]
class ClassService--><g id="elem_ClassService"><rect codeLine="13" fill="#F1F1F1" height="79.2813" id="ClassService" rx="2.5" ry="2.5" style="stroke:#181818;stroke-width:0.5;" width="153" x="158.98" y="254"/><ellipse cx="191.53" cy="270" fill="#ADD1B2" rx="11" ry="11" style="stroke:#181818;stroke-width:1.0;"/><path d="M194.2956,265.875 Q194.4519,265.6563 194.6394,265.5469 Q194.8269,265.4375 195.0456,265.4375 Q195.4206,265.4375 195.655,265.7031 Q195.8894,265.9531 195.8894,266.5625 L195.8894,268.0156 Q195.8894,268.625 195.655,268.8906 Q195.4206,269.1563 195.0456,269.1563 Q194.7019,269.1563 194.4988,268.9531 Q194.2956,268.7656 194.1863,268.25 Q194.1394,267.8906 193.9519,267.7031 Q193.6238,267.3281 193.0144,267.1094 Q192.405,266.8906 191.78,266.8906 Q191.0144,266.8906 190.3738,267.2188 Q189.7488,267.5469 189.2488,268.2969 Q188.7644,269.0469 188.7644,270.0781 L188.7644,271.1719 Q188.7644,272.4063 189.655,273.2344 Q190.5456,274.0469 192.1394,274.0469 Q193.0769,274.0469 193.7331,273.7969 Q194.1238,273.6406 194.5456,273.2031 Q194.8113,272.9375 194.9519,272.8594 Q195.1081,272.7813 195.3113,272.7813 Q195.6394,272.7813 195.8894,273.0469 Q196.155,273.2969 196.155,273.6406 Q196.155,273.9844 195.8113,274.3906 Q195.3113,274.9688 194.5144,275.2969 Q193.4363,275.75 192.1394,275.75 Q190.6238,275.75 189.4206,275.125 Q188.4363,274.625 187.7488,273.5625 Q187.0613,272.4844 187.0613,271.2031 L187.0613,270.0469 Q187.0613,268.7188 187.6706,267.5781 Q188.2956,266.4219 189.3894,265.8125 Q190.4831,265.1875 191.7175,265.1875 Q192.4519,265.1875 193.0925,265.3594 Q193.7488,265.5156 194.2956,265.875 Z " fill="#000000"/><text fill="#000000" font-family="sans-serif" font-size="14" lengthAdjust="spacing" textLength="82" x="209.43" y="274.8535">ClassService</text><line style="stroke:#181818;stroke-width:0.5;" x1="159.98" x2="310.98" y1="286" y2="286"/><line style="stroke:#181818;stroke-width:0.5;" x1="159.98" x2="310.98" y1="294" y2="294"/><ellipse cx="169.98" cy="307.3203" fill="#84BE84" rx="3" ry="3" style="stroke:#038048;stroke-width:1.0;"/><text fill="#000000" font-family="sans-serif" font-size="14" lengthAdjust="spacing" textLength="127" x="178.98" y="310.6738">addNewClass(class)</text><ellipse cx="169.98" cy="322.9609" fill="#84BE84" rx="3" ry="3" style="stroke:#038048;stroke-width:1.0;"/><text fill="#000000" font-family="sans-serif" font-size="14" lengthAdjust="spacing" textLength="45" x="178.98" y="326.3145">getAll()</text></g><!--MD5=[e8c189551b7885b999ad7cefb30fc2a3]
class PersistenceContext--><g id="elem_PersistenceContext"><rect codeLine="19" fill="#F1F1F1" height="63.6406" id="PersistenceContext" rx="2.5" ry="2.5" style="stroke:#181818;stroke-width:0.5;" width="154" x="85.48" y="400.5"/><ellipse cx="100.48" cy="416.5" fill="#ADD1B2" rx="11" ry="11" style="stroke:#181818;stroke-width:1.0;"/><path d="M103.2456,412.375 Q103.4019,412.1563 103.5894,412.0469 Q103.7769,411.9375 103.9956,411.9375 Q104.3706,411.9375 104.605,412.2031 Q104.8394,412.4531 104.8394,413.0625 L104.8394,414.5156 Q104.8394,415.125 104.605,415.3906 Q104.3706,415.6563 103.9956,415.6563 Q103.6519,415.6563 103.4487,415.4531 Q103.2456,415.2656 103.1362,414.75 Q103.0894,414.3906 102.9019,414.2031 Q102.5737,413.8281 101.9644,413.6094 Q101.355,413.3906 100.73,413.3906 Q99.9644,413.3906 99.3237,413.7188 Q98.6987,414.0469 98.1987,414.7969 Q97.7144,415.5469 97.7144,416.5781 L97.7144,417.6719 Q97.7144,418.9063 98.605,419.7344 Q99.4956,420.5469 101.0894,420.5469 Q102.0269,420.5469 102.6831,420.2969 Q103.0737,420.1406 103.4956,419.7031 Q103.7612,419.4375 103.9019,419.3594 Q104.0581,419.2813 104.2612,419.2813 Q104.5894,419.2813 104.8394,419.5469 Q105.105,419.7969 105.105,420.1406 Q105.105,420.4844 104.7612,420.8906 Q104.2612,421.4688 103.4644,421.7969 Q102.3862,422.25 101.0894,422.25 Q99.5737,422.25 98.3706,421.625 Q97.3862,421.125 96.6987,420.0625 Q96.0112,418.9844 96.0112,417.7031 L96.0112,416.5469 Q96.0112,415.2188 96.6206,414.0781 Q97.2456,412.9219 98.3394,412.3125 Q99.4331,411.6875 100.6675,411.6875 Q101.4019,411.6875 102.0425,411.8594 Q102.6987,412.0156 103.2456,412.375 Z " fill="#000000"/><text fill="#000000" font-family="sans-serif" font-size="14" lengthAdjust="spacing" textLength="122" x="114.48" y="421.3535">PersistenceContext</text><line style="stroke:#181818;stroke-width:0.5;" x1="86.48" x2="238.48" y1="432.5" y2="432.5"/><line style="stroke:#181818;stroke-width:0.5;" x1="86.48" x2="238.48" y1="440.5" y2="440.5"/><ellipse cx="96.48" cy="453.8203" fill="#84BE84" rx="3" ry="3" style="stroke:#038048;stroke-width:1.0;"/><text fill="#000000" font-family="sans-serif" font-size="14" lengthAdjust="spacing" textLength="84" x="105.48" y="457.1738">repositories()</text></g><!--MD5=[48590afff58a68e2fcba47824d6f8a11]
class RepositoryFactory--><g id="elem_RepositoryFactory"><rect codeLine="23" fill="#F1F1F1" height="110.5625" id="RepositoryFactory" rx="2.5" ry="2.5" style="stroke:#181818;stroke-width:0.5;" width="231" x="66.98" y="532"/><ellipse cx="120.23" cy="548" fill="#ADD1B2" rx="11" ry="11" style="stroke:#181818;stroke-width:1.0;"/><path d="M122.9956,543.875 Q123.1519,543.6563 123.3394,543.5469 Q123.5269,543.4375 123.7456,543.4375 Q124.1206,543.4375 124.355,543.7031 Q124.5894,543.9531 124.5894,544.5625 L124.5894,546.0156 Q124.5894,546.625 124.355,546.8906 Q124.1206,547.1563 123.7456,547.1563 Q123.4019,547.1563 123.1987,546.9531 Q122.9956,546.7656 122.8862,546.25 Q122.8394,545.8906 122.6519,545.7031 Q122.3237,545.3281 121.7144,545.1094 Q121.105,544.8906 120.48,544.8906 Q119.7144,544.8906 119.0737,545.2188 Q118.4487,545.5469 117.9487,546.2969 Q117.4644,547.0469 117.4644,548.0781 L117.4644,549.1719 Q117.4644,550.4063 118.355,551.2344 Q119.2456,552.0469 120.8394,552.0469 Q121.7769,552.0469 122.4331,551.7969 Q122.8237,551.6406 123.2456,551.2031 Q123.5112,550.9375 123.6519,550.8594 Q123.8081,550.7813 124.0112,550.7813 Q124.3394,550.7813 124.5894,551.0469 Q124.855,551.2969 124.855,551.6406 Q124.855,551.9844 124.5112,552.3906 Q124.0112,552.9688 123.2144,553.2969 Q122.1362,553.75 120.8394,553.75 Q119.3237,553.75 118.1206,553.125 Q117.1362,552.625 116.4487,551.5625 Q115.7612,550.4844 115.7612,549.2031 L115.7612,548.0469 Q115.7612,546.7188 116.3706,545.5781 Q116.9956,544.4219 118.0894,543.8125 Q119.1831,543.1875 120.4175,543.1875 Q121.1519,543.1875 121.7925,543.3594 Q122.4487,543.5156 122.9956,543.875 Z " fill="#000000"/><text fill="#000000" font-family="sans-serif" font-size="14" lengthAdjust="spacing" textLength="116" x="140.73" y="552.8535">RepositoryFactory</text><line style="stroke:#181818;stroke-width:0.5;" x1="67.98" x2="296.98" y1="564" y2="564"/><line style="stroke:#181818;stroke-width:0.5;" x1="67.98" x2="296.98" y1="572" y2="572"/><ellipse cx="77.98" cy="585.3203" fill="#84BE84" rx="3" ry="3" style="stroke:#038048;stroke-width:1.0;"/><text fill="#000000" font-family="sans-serif" font-size="14" lengthAdjust="spacing" textLength="50" x="86.98" y="588.6738">create()</text><ellipse cx="77.98" cy="600.9609" fill="#84BE84" rx="3" ry="3" style="stroke:#038048;stroke-width:1.0;"/><text fill="#000000" font-family="sans-serif" font-size="14" lengthAdjust="spacing" textLength="169" x="86.98" y="604.3145">newTransactionalContext()</text><ellipse cx="77.98" cy="616.6016" fill="#84BE84" rx="3" ry="3" style="stroke:#038048;stroke-width:1.0;"/><text fill="#000000" font-family="sans-serif" font-size="14" lengthAdjust="spacing" textLength="57" x="86.98" y="619.9551">classes()</text><ellipse cx="77.98" cy="632.2422" fill="#84BE84" rx="3" ry="3" style="stroke:#038048;stroke-width:1.0;"/><text fill="#000000" font-family="sans-serif" font-size="14" lengthAdjust="spacing" textLength="205" x="86.98" y="635.5957">create(TransactionalContext ctx)</text></g><!--MD5=[41e1c6cf192918703501b24b2053926c]
class Class--><g id="elem_Class"><rect codeLine="34" fill="#F1F1F1" height="48" id="Class" rx="2.5" ry="2.5" style="stroke:#181818;stroke-width:0.5;" width="67" x="274.98" y="408.5"/><ellipse cx="289.98" cy="424.5" fill="#ADD1B2" rx="11" ry="11" style="stroke:#181818;stroke-width:1.0;"/><path d="M292.7456,420.375 Q292.9019,420.1563 293.0894,420.0469 Q293.2769,419.9375 293.4956,419.9375 Q293.8706,419.9375 294.105,420.2031 Q294.3394,420.4531 294.3394,421.0625 L294.3394,422.5156 Q294.3394,423.125 294.105,423.3906 Q293.8706,423.6563 293.4956,423.6563 Q293.1519,423.6563 292.9488,423.4531 Q292.7456,423.2656 292.6363,422.75 Q292.5894,422.3906 292.4019,422.2031 Q292.0738,421.8281 291.4644,421.6094 Q290.855,421.3906 290.23,421.3906 Q289.4644,421.3906 288.8238,421.7188 Q288.1988,422.0469 287.6988,422.7969 Q287.2144,423.5469 287.2144,424.5781 L287.2144,425.6719 Q287.2144,426.9063 288.105,427.7344 Q288.9956,428.5469 290.5894,428.5469 Q291.5269,428.5469 292.1831,428.2969 Q292.5738,428.1406 292.9956,427.7031 Q293.2613,427.4375 293.4019,427.3594 Q293.5581,427.2813 293.7613,427.2813 Q294.0894,427.2813 294.3394,427.5469 Q294.605,427.7969 294.605,428.1406 Q294.605,428.4844 294.2613,428.8906 Q293.7613,429.4688 292.9644,429.7969 Q291.8863,430.25 290.5894,430.25 Q289.0738,430.25 287.8706,429.625 Q286.8863,429.125 286.1988,428.0625 Q285.5113,426.9844 285.5113,425.7031 L285.5113,424.5469 Q285.5113,423.2188 286.1206,422.0781 Q286.7456,420.9219 287.8394,420.3125 Q288.9331,419.6875 290.1675,419.6875 Q290.9019,419.6875 291.5425,419.8594 Q292.1988,420.0156 292.7456,420.375 Z " fill="#000000"/><text fill="#000000" font-family="sans-serif" font-size="14" lengthAdjust="spacing" textLength="35" x="303.98" y="429.3535">Class</text><line style="stroke:#181818;stroke-width:0.5;" x1="275.98" x2="340.98" y1="440.5" y2="440.5"/><line style="stroke:#181818;stroke-width:0.5;" x1="275.98" x2="340.98" y1="448.5" y2="448.5"/></g><!--MD5=[288bffab58163169a8d16c57b889bc0c]
class TransactionalContext--><g id="elem_TransactionalContext"><rect codeLine="39" fill="#F1F1F1" height="79.2813" id="TransactionalContext" rx="2.5" ry="2.5" style="stroke:#181818;stroke-width:0.5;" width="166" x="377.48" y="393"/><ellipse cx="392.48" cy="409" fill="#ADD1B2" rx="11" ry="11" style="stroke:#181818;stroke-width:1.0;"/><path d="M395.2456,404.875 Q395.4019,404.6563 395.5894,404.5469 Q395.7769,404.4375 395.9956,404.4375 Q396.3706,404.4375 396.605,404.7031 Q396.8394,404.9531 396.8394,405.5625 L396.8394,407.0156 Q396.8394,407.625 396.605,407.8906 Q396.3706,408.1563 395.9956,408.1563 Q395.6519,408.1563 395.4488,407.9531 Q395.2456,407.7656 395.1363,407.25 Q395.0894,406.8906 394.9019,406.7031 Q394.5738,406.3281 393.9644,406.1094 Q393.355,405.8906 392.73,405.8906 Q391.9644,405.8906 391.3238,406.2188 Q390.6988,406.5469 390.1988,407.2969 Q389.7144,408.0469 389.7144,409.0781 L389.7144,410.1719 Q389.7144,411.4063 390.605,412.2344 Q391.4956,413.0469 393.0894,413.0469 Q394.0269,413.0469 394.6831,412.7969 Q395.0738,412.6406 395.4956,412.2031 Q395.7613,411.9375 395.9019,411.8594 Q396.0581,411.7813 396.2613,411.7813 Q396.5894,411.7813 396.8394,412.0469 Q397.105,412.2969 397.105,412.6406 Q397.105,412.9844 396.7613,413.3906 Q396.2613,413.9688 395.4644,414.2969 Q394.3863,414.75 393.0894,414.75 Q391.5738,414.75 390.3706,414.125 Q389.3863,413.625 388.6988,412.5625 Q388.0113,411.4844 388.0113,410.2031 L388.0113,409.0469 Q388.0113,407.7188 388.6206,406.5781 Q389.2456,405.4219 390.3394,404.8125 Q391.4331,404.1875 392.6675,404.1875 Q393.4019,404.1875 394.0425,404.3594 Q394.6988,404.5156 395.2456,404.875 Z " fill="#000000"/><text fill="#000000" font-family="sans-serif" font-size="14" lengthAdjust="spacing" textLength="134" x="406.48" y="413.8535">TransactionalContext</text><line style="stroke:#181818;stroke-width:0.5;" x1="378.48" x2="542.48" y1="425" y2="425"/><line style="stroke:#181818;stroke-width:0.5;" x1="378.48" x2="542.48" y1="433" y2="433"/><ellipse cx="388.48" cy="446.3203" fill="#84BE84" rx="3" ry="3" style="stroke:#038048;stroke-width:1.0;"/><text fill="#000000" font-family="sans-serif" font-size="14" lengthAdjust="spacing" textLength="120" x="397.48" y="449.6738">beginTransaction()</text><ellipse cx="388.48" cy="461.9609" fill="#84BE84" rx="3" ry="3" style="stroke:#038048;stroke-width:1.0;"/><text fill="#000000" font-family="sans-serif" font-size="14" lengthAdjust="spacing" textLength="54" x="397.48" y="465.3145">commit()</text></g><!--MD5=[34d28e8219beb4f69fa7bf6812ac0db4]
link UpdateClassScheduleUi to ClassController--><g id="link_UpdateClassScheduleUi_ClassController"><path codeLine="45" d="M235.48,55.14 C235.48,70.5 235.48,91.14 235.48,109.55 " fill="none" id="UpdateClassScheduleUi-to-ClassController" style="stroke:#181818;stroke-width:1.0;"/><polygon fill="#181818" points="235.48,114.67,239.48,105.67,235.48,109.67,231.48,105.67,235.48,114.67" style="stroke:#181818;stroke-width:1.0;"/></g><!--MD5=[39a3291925c491eca1d006d1ebd33eeb]
link ClassService to PersistenceContext--><g id="link_ClassService_PersistenceContext"><path codeLine="46" d="M203.36,333.03 C191.33,352.58 178.82,376.19 170.33,395.39 " fill="none" id="ClassService-to-PersistenceContext" style="stroke:#181818;stroke-width:1.0;"/><polygon fill="#181818" points="168.27,400.17,175.5094,393.4923,170.2516,395.5795,168.1645,390.3217,168.27,400.17" style="stroke:#181818;stroke-width:1.0;"/></g><!--MD5=[39a3291925c491eca1d006d1ebd33eeb]
link ClassService to PersistenceContext--><g id="link_ClassService_PersistenceContext"><path codeLine="48" d="M227.23,333.03 C218.44,352.75 205.64,376.59 193.47,395.88 " fill="none" id="ClassService-to-PersistenceContext-1" style="stroke:#181818;stroke-width:1.0;"/><polygon fill="#181818" points="190.72,400.17,198.9432,394.7497,193.4173,395.9599,192.2071,390.4341,190.72,400.17" style="stroke:#181818;stroke-width:1.0;"/></g><!--MD5=[fcc8bc1bcfcf54626d61fce70f8ea5f0]
link ClassService to TransactionalContext--><g id="link_ClassService_TransactionalContext"><path codeLine="47" d="M287.16,333.03 C314.93,350.83 349.62,372 380.73,390.13 " fill="none" id="ClassService-to-TransactionalContext" style="stroke:#181818;stroke-width:1.0;"/><polygon fill="#181818" points="385.29,392.79,379.5167,384.8107,380.9665,390.2786,375.4985,391.7284,385.29,392.79" style="stroke:#181818;stroke-width:1.0;"/></g><!--MD5=[fcc8bc1bcfcf54626d61fce70f8ea5f0]
link ClassService to TransactionalContext--><g id="link_ClassService_TransactionalContext"><path codeLine="49" d="M311.03,333.03 C341.69,350.76 376.37,371.82 404.71,389.91 " fill="none" id="ClassService-to-TransactionalContext-1" style="stroke:#181818;stroke-width:1.0;"/><polygon fill="#181818" points="409.2,392.79,403.7924,384.5585,404.9941,390.0862,399.4664,391.2879,409.2,392.79" style="stroke:#181818;stroke-width:1.0;"/></g><!--MD5=[e0e7d6bd37c5938c145f08ff3c3a47c4]
link ClassService to Class--><g id="link_ClassService_Class"><path codeLine="50" d="M256.01,333.03 C268.01,355.54 282.87,383.44 293.71,403.78 " fill="none" id="ClassService-to-Class" style="stroke:#181818;stroke-width:1.0;"/><polygon fill="#181818" points="296.1,408.27,295.3759,398.4478,293.7389,403.8626,288.3241,402.2256,296.1,408.27" style="stroke:#181818;stroke-width:1.0;"/></g><!--MD5=[832210e2fe141d0b103511cd82b854de]
link ClassController to ClassService--><g id="link_ClassController_ClassService"><path codeLine="51" d="M235.48,194.03 C235.48,210.95 235.48,230.92 235.48,248.44 " fill="none" id="ClassController-to-ClassService" style="stroke:#181818;stroke-width:1.0;"/><polygon fill="#181818" points="235.48,253.79,239.48,244.79,235.48,248.79,231.48,244.79,235.48,253.79" style="stroke:#181818;stroke-width:1.0;"/></g><!--MD5=[9e28b8a85c25f54ea35540b424030a03]
link ClassService to ClassRepository--><g id="link_ClassService_ClassRepository"><path codeLine="52" d="M158.69,321.51 C125.34,337.2 89.03,360.44 67.48,393 C6,485.9 20.18,535.52 49.48,643 C54.97,663.13 66.83,683.35 77.39,698.62 " fill="none" id="ClassService-to-ClassRepository" style="stroke:#181818;stroke-width:1.0;"/><polygon fill="#181818" points="80.33,702.79,78.4051,693.1311,77.4455,698.706,71.8706,697.7463,80.33,702.79" style="stroke:#181818;stroke-width:1.0;"/></g><!--MD5=[754b775031405e096442b27febffa290]
link PersistenceContext to RepositoryFactory--><g id="link_PersistenceContext_RepositoryFactory"><path codeLine="55" d="M166.58,464.83 C168.92,482.72 171.92,505.74 174.69,526.93 " fill="none" id="PersistenceContext-to-RepositoryFactory" style="stroke:#181818;stroke-width:1.0;"/><polygon fill="#181818" points="175.36,531.99,178.1693,522.5503,174.717,527.0315,170.2358,523.5792,175.36,531.99" style="stroke:#181818;stroke-width:1.0;"/></g><!--MD5=[b5f528b619654d8d7fa22425906f468d]
link RepositoryFactory to ClassRepository--><g id="link_RepositoryFactory_ClassRepository"><path codeLine="57" d="M148.4,643.03 C136.41,662.22 123.49,682.89 113.66,698.61 " fill="none" id="RepositoryFactory-to-ClassRepository" style="stroke:#181818;stroke-width:1.0;"/><polygon fill="#181818" points="110.98,702.91,119.147,697.4054,113.6338,698.6724,112.3668,693.1593,110.98,702.91" style="stroke:#181818;stroke-width:1.0;"/></g><!--MD5=[28b35c412b4f4ef8ccfab00d8a522da8]
@startuml
'https://plantuml.com/class-diagram

class UpdateClassScheduleUi{
}

class ClassController{
+addClass(class)
+getClasses()

}


class ClassService{
+addNewClass(class)
+getAll()
}


class PersistenceContext{
+repositories()
}

class RepositoryFactory{
+create()
+newTransactionalContext()
+classes()
+create(TransactionalContext ctx)
}

database ClassRepository{
}


class Class{
}



class TransactionalContext{
+beginTransaction()
+commit()
}


UpdateClassScheduleUi - -> ClassController
ClassService- ->PersistenceContext
ClassService- ->TransactionalContext
ClassService- ->PersistenceContext
ClassService- ->TransactionalContext
ClassService - -> Class
ClassController- ->ClassService
ClassService - -> ClassRepository


PersistenceContext- ->RepositoryFactory

RepositoryFactory- ->ClassRepository

@enduml

@startuml

class UpdateClassScheduleUi{
}

class ClassController{
+addClass(class)
+getClasses()

}


class ClassService{
+addNewClass(class)
+getAll()
}


class PersistenceContext{
+repositories()
}

class RepositoryFactory{
+create()
+newTransactionalContext()
+classes()
+create(TransactionalContext ctx)
}

database ClassRepository{
}


class Class{
}



class TransactionalContext{
+beginTransaction()
+commit()
}


UpdateClassScheduleUi - -> ClassController
ClassService- ->PersistenceContext
ClassService- ->TransactionalContext
ClassService- ->PersistenceContext
ClassService- ->TransactionalContext
ClassService - -> Class
ClassController- ->ClassService
ClassService - -> ClassRepository


PersistenceContext- ->RepositoryFactory

RepositoryFactory- ->ClassRepository

@enduml

PlantUML version 1.2022.12(Sun Oct 23 19:12:26 WEST 2022)
(GPL source distribution)
Java Runtime: OpenJDK Runtime Environment
JVM: OpenJDK 64-Bit Server VM
Default Encoding: Cp1252
Language: en
Country: GB
--></g></svg>