<?xml version="1.0" encoding="us-ascii" standalone="no"?><svg xmlns="http://www.w3.org/2000/svg" xmlns:xlink="http://www.w3.org/1999/xlink" contentStyleType="text/css" height="1161px" preserveAspectRatio="none" style="width:936px;height:1161px;background:#FFFFFF;" version="1.1" viewBox="0 0 936 1161" width="936px" zoomAndPan="magnify"><defs/><g><text fill="#000000" font-family="sans-serif" font-size="14" font-weight="bold" lengthAdjust="spacing" textLength="156" x="383" y="25.1074">Domain Driven Design</text><!--cluster <<aggregate>> SharedBoard--><g id="cluster_&lt;&lt;aggregate&gt;&gt; SharedBoard"><path d="M205.5,433.6348 L390.5,433.6348 A3.75,3.75 0 0 1 393,436.1348 L400,458.2559 L776.5,458.2559 A2.5,2.5 0 0 1 779,460.7559 L779,1152.1348 A2.5,2.5 0 0 1 776.5,1154.6348 L205.5,1154.6348 A2.5,2.5 0 0 1 203,1152.1348 L203,436.1348 A2.5,2.5 0 0 1 205.5,433.6348 " fill="#AABBCC" style="stroke:#000000;stroke-width:1.5;"/><line style="stroke:#000000;stroke-width:1.5;" x1="203" x2="400" y1="458.2559" y2="458.2559"/><text fill="#000000" font-family="sans-serif" font-size="14" font-weight="bold" lengthAdjust="spacing" textLength="184" x="207" y="450.7422">&#171;aggregate&#187; SharedBoard</text></g><!--cluster <<aggregate>> Profile--><g id="cluster_&lt;&lt;aggregate&gt;&gt; Profile"><path d="M8.5,45.6348 L147.5,45.6348 A3.75,3.75 0 0 1 150,48.1348 L157,70.2559 L926.5,70.2559 A2.5,2.5 0 0 1 929,72.7559 L929,407.1348 A2.5,2.5 0 0 1 926.5,409.6348 L8.5,409.6348 A2.5,2.5 0 0 1 6,407.1348 L6,48.1348 A2.5,2.5 0 0 1 8.5,45.6348 " fill="#99B3FF" style="stroke:#000000;stroke-width:1.5;"/><line style="stroke:#000000;stroke-width:1.5;" x1="6" x2="157" y1="70.2559" y2="70.2559"/><text fill="#000000" font-family="sans-serif" font-size="14" font-weight="bold" lengthAdjust="spacing" textLength="138" x="10" y="62.7422">&#171;aggregate&#187; Profile</text></g><!--class SharedBoard--><g id="elem_SharedBoard"><rect codeLine="13" fill="#F1F1F1" height="68.543" id="SharedBoard" rx="2.5" ry="2.5" style="stroke:#181818;stroke-width:0.5;" width="116" x="386" y="470.6348"/><ellipse cx="401" cy="500.9063" fill="#ADD1B2" rx="11" ry="11" style="stroke:#181818;stroke-width:1.0;"/><path d="M399.8594,501.7031 L399.8594,504.2031 L404.1875,504.2031 L404.1875,503.2813 Q404.1875,502.6719 404.4219,502.4063 Q404.6719,502.1406 405.0469,502.1406 Q405.4219,502.1406 405.6563,502.4063 Q405.8906,502.6719 405.8906,503.2813 L405.8906,505.9063 L397.8906,505.9063 Q397.2656,505.9063 397,505.6719 Q396.75,505.4375 396.75,505.0469 Q396.75,504.6719 397.0156,504.4375 Q397.2813,504.2031 397.8906,504.2031 L398.1563,504.2031 L398.1563,497.5469 L397.8906,497.5469 Q397.2656,497.5469 397,497.3125 Q396.75,497.0781 396.75,496.6875 Q396.75,496.3125 397,496.0781 Q397.2656,495.8438 397.8906,495.8438 L405.5156,495.8438 L405.5156,498.4375 Q405.5156,499.0469 405.2813,499.3125 Q405.0625,499.5625 404.6719,499.5625 Q404.2969,499.5625 404.0625,499.3125 Q403.8281,499.0469 403.8281,498.4375 L403.8281,497.5469 L399.8594,497.5469 L399.8594,500 L401.3438,500 Q401.3438,499.3438 401.4688,499.1563 Q401.7344,498.75 402.2031,498.75 Q402.5781,498.75 402.8125,499.0156 Q403.0469,499.2656 403.0469,499.875 L403.0469,501.8438 Q403.0469,502.3906 402.9219,502.5781 Q402.6563,502.9688 402.2031,502.9688 Q401.7344,502.9688 401.4688,502.5625 Q401.3438,502.375 401.3438,501.7031 L399.8594,501.7031 Z " fill="#000000"/><text fill="#000000" font-family="sans-serif" font-size="12" font-style="italic" lengthAdjust="spacing" textLength="35" x="439.5" y="488.584">&#171;root&#187;</text><text fill="#000000" font-family="sans-serif" font-size="12" font-style="italic" lengthAdjust="spacing" textLength="43" x="435.5" y="504.5449">&#171;entity&#187;</text><text fill="#000000" font-family="sans-serif" font-size="14" lengthAdjust="spacing" textLength="84" x="415" y="522.6641">SharedBoard</text><line style="stroke:#181818;stroke-width:0.5;" x1="387" x2="501" y1="531.1777" y2="531.1777"/></g><!--class BoardConfig--><g id="elem_BoardConfig"><rect codeLine="14" fill="#F1F1F1" height="52.582" id="BoardConfig" rx="2.5" ry="2.5" style="stroke:#181818;stroke-width:0.5;" width="111" x="342.5" y="608.6348"/><ellipse cx="357.5" cy="630.9258" fill="#ADD1B2" rx="11" ry="11" style="stroke:#181818;stroke-width:1.0;"/><path d="M356.3594,631.7227 L356.3594,634.2227 L360.6875,634.2227 L360.6875,633.3008 Q360.6875,632.6914 360.9219,632.4258 Q361.1719,632.1602 361.5469,632.1602 Q361.9219,632.1602 362.1563,632.4258 Q362.3906,632.6914 362.3906,633.3008 L362.3906,635.9258 L354.3906,635.9258 Q353.7656,635.9258 353.5,635.6914 Q353.25,635.457 353.25,635.0664 Q353.25,634.6914 353.5156,634.457 Q353.7813,634.2227 354.3906,634.2227 L354.6563,634.2227 L354.6563,627.5664 L354.3906,627.5664 Q353.7656,627.5664 353.5,627.332 Q353.25,627.0977 353.25,626.707 Q353.25,626.332 353.5,626.0977 Q353.7656,625.8633 354.3906,625.8633 L362.0156,625.8633 L362.0156,628.457 Q362.0156,629.0664 361.7813,629.332 Q361.5625,629.582 361.1719,629.582 Q360.7969,629.582 360.5625,629.332 Q360.3281,629.0664 360.3281,628.457 L360.3281,627.5664 L356.3594,627.5664 L356.3594,630.0195 L357.8438,630.0195 Q357.8438,629.3633 357.9688,629.1758 Q358.2344,628.7695 358.7031,628.7695 Q359.0781,628.7695 359.3125,629.0352 Q359.5469,629.2852 359.5469,629.8945 L359.5469,631.8633 Q359.5469,632.4102 359.4219,632.5977 Q359.1563,632.9883 358.7031,632.9883 Q358.2344,632.9883 357.9688,632.582 Q357.8438,632.3945 357.8438,631.7227 L356.3594,631.7227 Z " fill="#000000"/><text fill="#000000" font-family="sans-serif" font-size="12" font-style="italic" lengthAdjust="spacing" textLength="43" x="389.5" y="626.584">&#171;entity&#187;</text><text fill="#000000" font-family="sans-serif" font-size="14" lengthAdjust="spacing" textLength="79" x="371.5" y="644.7031">BoardConfig</text><line style="stroke:#181818;stroke-width:0.5;" x1="343.5" x2="452.5" y1="653.2168" y2="653.2168"/></g><!--class Owner--><g id="elem_Owner"><rect codeLine="16" fill="#F1F1F1" height="52.582" id="Owner" rx="2.5" ry="2.5" style="stroke:#181818;stroke-width:0.5;" width="73" x="358.5" y="851.6348"/><ellipse cx="373.5" cy="873.9258" fill="#ADD1B2" rx="11" ry="11" style="stroke:#181818;stroke-width:1.0;"/><path d="M372.3594,874.7227 L372.3594,877.2227 L376.6875,877.2227 L376.6875,876.3008 Q376.6875,875.6914 376.9219,875.4258 Q377.1719,875.1602 377.5469,875.1602 Q377.9219,875.1602 378.1563,875.4258 Q378.3906,875.6914 378.3906,876.3008 L378.3906,878.9258 L370.3906,878.9258 Q369.7656,878.9258 369.5,878.6914 Q369.25,878.457 369.25,878.0664 Q369.25,877.6914 369.5156,877.457 Q369.7813,877.2227 370.3906,877.2227 L370.6563,877.2227 L370.6563,870.5664 L370.3906,870.5664 Q369.7656,870.5664 369.5,870.332 Q369.25,870.0977 369.25,869.707 Q369.25,869.332 369.5,869.0977 Q369.7656,868.8633 370.3906,868.8633 L378.0156,868.8633 L378.0156,871.457 Q378.0156,872.0664 377.7813,872.332 Q377.5625,872.582 377.1719,872.582 Q376.7969,872.582 376.5625,872.332 Q376.3281,872.0664 376.3281,871.457 L376.3281,870.5664 L372.3594,870.5664 L372.3594,873.0195 L373.8438,873.0195 Q373.8438,872.3633 373.9688,872.1758 Q374.2344,871.7695 374.7031,871.7695 Q375.0781,871.7695 375.3125,872.0352 Q375.5469,872.2852 375.5469,872.8945 L375.5469,874.8633 Q375.5469,875.4102 375.4219,875.5977 Q375.1563,875.9883 374.7031,875.9883 Q374.2344,875.9883 373.9688,875.582 Q373.8438,875.3945 373.8438,874.7227 L372.3594,874.7227 Z " fill="#000000"/><text fill="#000000" font-family="sans-serif" font-size="12" font-style="italic" lengthAdjust="spacing" textLength="43" x="386.5" y="869.584">&#171;entity&#187;</text><text fill="#000000" font-family="sans-serif" font-size="14" lengthAdjust="spacing" textLength="41" x="387.5" y="887.7031">Owner</text><line style="stroke:#181818;stroke-width:0.5;" x1="359.5" x2="430.5" y1="896.2168" y2="896.2168"/></g><!--class Participant--><g id="elem_Participant"><rect codeLine="17" fill="#F1F1F1" height="52.582" id="Participant" rx="2.5" ry="2.5" style="stroke:#181818;stroke-width:0.5;" width="99" x="224.5" y="851.6348"/><ellipse cx="239.5" cy="873.9258" fill="#ADD1B2" rx="11" ry="11" style="stroke:#181818;stroke-width:1.0;"/><path d="M238.3594,874.7227 L238.3594,877.2227 L242.6875,877.2227 L242.6875,876.3008 Q242.6875,875.6914 242.9219,875.4258 Q243.1719,875.1602 243.5469,875.1602 Q243.9219,875.1602 244.1563,875.4258 Q244.3906,875.6914 244.3906,876.3008 L244.3906,878.9258 L236.3906,878.9258 Q235.7656,878.9258 235.5,878.6914 Q235.25,878.457 235.25,878.0664 Q235.25,877.6914 235.5156,877.457 Q235.7813,877.2227 236.3906,877.2227 L236.6563,877.2227 L236.6563,870.5664 L236.3906,870.5664 Q235.7656,870.5664 235.5,870.332 Q235.25,870.0977 235.25,869.707 Q235.25,869.332 235.5,869.0977 Q235.7656,868.8633 236.3906,868.8633 L244.0156,868.8633 L244.0156,871.457 Q244.0156,872.0664 243.7813,872.332 Q243.5625,872.582 243.1719,872.582 Q242.7969,872.582 242.5625,872.332 Q242.3281,872.0664 242.3281,871.457 L242.3281,870.5664 L238.3594,870.5664 L238.3594,873.0195 L239.8438,873.0195 Q239.8438,872.3633 239.9688,872.1758 Q240.2344,871.7695 240.7031,871.7695 Q241.0781,871.7695 241.3125,872.0352 Q241.5469,872.2852 241.5469,872.8945 L241.5469,874.8633 Q241.5469,875.4102 241.4219,875.5977 Q241.1563,875.9883 240.7031,875.9883 Q240.2344,875.9883 239.9688,875.582 Q239.8438,875.3945 239.8438,874.7227 L238.3594,874.7227 Z " fill="#000000"/><text fill="#000000" font-family="sans-serif" font-size="12" font-style="italic" lengthAdjust="spacing" textLength="43" x="265.5" y="869.584">&#171;entity&#187;</text><text fill="#000000" font-family="sans-serif" font-size="14" lengthAdjust="spacing" textLength="67" x="253.5" y="887.7031">Participant</text><line style="stroke:#181818;stroke-width:0.5;" x1="225.5" x2="322.5" y1="896.2168" y2="896.2168"/></g><!--class SharedBoardTitle--><g id="elem_SharedBoardTitle"><rect codeLine="18" fill="#F1F1F1" height="68.543" id="SharedBoardTitle" rx="2.5" ry="2.5" style="stroke:#181818;stroke-width:0.5;" width="109" x="572.5" y="843.6348"/><ellipse cx="587.5" cy="873.9063" fill="#B8255F" rx="11" ry="11" style="stroke:#181818;stroke-width:1.0;"/><path d="M588.0938,877.1719 L590.5625,871.2969 L590.1719,871.2969 Q589.5625,871.2969 589.2969,871.0625 Q589.0313,870.8281 589.0313,870.4375 Q589.0313,870.0625 589.2969,869.8281 Q589.5625,869.5938 590.1719,869.5938 L592.4531,869.5938 Q593.0625,869.5938 593.3281,869.8281 Q593.5938,870.0625 593.5938,870.4375 Q593.5938,870.9063 593.1875,871.1719 Q593,871.2969 592.4063,871.2969 L588.9219,879.6563 L587.2813,879.6563 L583.7969,871.2969 Q583.2031,871.2969 583.0156,871.1719 Q582.6094,870.9063 582.6094,870.4375 Q582.6094,870.0625 582.875,869.8281 Q583.1406,869.5938 583.75,869.5938 L586.0469,869.5938 Q586.6563,869.5938 586.9063,869.8281 Q587.1719,870.0625 587.1719,870.4375 Q587.1719,870.8281 586.9063,871.0625 Q586.6563,871.2969 586.0469,871.2969 L585.6406,871.2969 L588.0938,877.1719 Z " fill="#000000"/><text fill="#000000" font-family="sans-serif" font-size="12" font-style="italic" lengthAdjust="spacing" textLength="81" x="599.5" y="861.584">&#171;value object&#187;</text><text fill="#000000" font-family="sans-serif" font-size="12" font-style="italic" lengthAdjust="spacing" textLength="52" x="614" y="877.5449">&#171;unique&#187;</text><text fill="#000000" font-family="sans-serif" font-size="14" lengthAdjust="spacing" textLength="27" x="626.5" y="895.6641">Title</text><line style="stroke:#181818;stroke-width:0.5;" x1="573.5" x2="680.5" y1="904.1777" y2="904.1777"/></g><!--class Row--><g id="elem_Row"><rect codeLine="19" fill="#F1F1F1" height="52.582" id="Row" rx="2.5" ry="2.5" style="stroke:#181818;stroke-width:0.5;" width="71" x="427.5" y="730.6348"/><ellipse cx="442.5" cy="752.9258" fill="#ADD1B2" rx="11" ry="11" style="stroke:#181818;stroke-width:1.0;"/><path d="M445.2656,748.8008 Q445.4219,748.582 445.6094,748.4727 Q445.7969,748.3633 446.0156,748.3633 Q446.3906,748.3633 446.625,748.6289 Q446.8594,748.8789 446.8594,749.4883 L446.8594,750.9414 Q446.8594,751.5508 446.625,751.8164 Q446.3906,752.082 446.0156,752.082 Q445.6719,752.082 445.4688,751.8789 Q445.2656,751.6914 445.1563,751.1758 Q445.1094,750.8164 444.9219,750.6289 Q444.5938,750.2539 443.9844,750.0352 Q443.375,749.8164 442.75,749.8164 Q441.9844,749.8164 441.3438,750.1445 Q440.7188,750.4727 440.2188,751.2227 Q439.7344,751.9727 439.7344,753.0039 L439.7344,754.0977 Q439.7344,755.332 440.625,756.1602 Q441.5156,756.9727 443.1094,756.9727 Q444.0469,756.9727 444.7031,756.7227 Q445.0938,756.5664 445.5156,756.1289 Q445.7813,755.8633 445.9219,755.7852 Q446.0781,755.707 446.2813,755.707 Q446.6094,755.707 446.8594,755.9727 Q447.125,756.2227 447.125,756.5664 Q447.125,756.9102 446.7813,757.3164 Q446.2813,757.8945 445.4844,758.2227 Q444.4063,758.6758 443.1094,758.6758 Q441.5938,758.6758 440.3906,758.0508 Q439.4063,757.5508 438.7188,756.4883 Q438.0313,755.4102 438.0313,754.1289 L438.0313,752.9727 Q438.0313,751.6445 438.6406,750.5039 Q439.2656,749.3477 440.3594,748.7383 Q441.4531,748.1133 442.6875,748.1133 Q443.4219,748.1133 444.0625,748.2852 Q444.7188,748.4414 445.2656,748.8008 Z " fill="#000000"/><text fill="#000000" font-family="sans-serif" font-size="12" font-style="italic" lengthAdjust="spacing" textLength="43" x="454.5" y="748.584">&#171;entity&#187;</text><text fill="#000000" font-family="sans-serif" font-size="14" lengthAdjust="spacing" textLength="27" x="462.5" y="766.7031">Row</text><line style="stroke:#181818;stroke-width:0.5;" x1="428.5" x2="497.5" y1="775.2168" y2="775.2168"/></g><!--class Column--><g id="elem_Column"><rect codeLine="20" fill="#F1F1F1" height="52.582" id="Column" rx="2.5" ry="2.5" style="stroke:#181818;stroke-width:0.5;" width="80" x="534" y="730.6348"/><ellipse cx="549" cy="752.9258" fill="#ADD1B2" rx="11" ry="11" style="stroke:#181818;stroke-width:1.0;"/><path d="M551.7656,748.8008 Q551.9219,748.582 552.1094,748.4727 Q552.2969,748.3633 552.5156,748.3633 Q552.8906,748.3633 553.125,748.6289 Q553.3594,748.8789 553.3594,749.4883 L553.3594,750.9414 Q553.3594,751.5508 553.125,751.8164 Q552.8906,752.082 552.5156,752.082 Q552.1719,752.082 551.9688,751.8789 Q551.7656,751.6914 551.6563,751.1758 Q551.6094,750.8164 551.4219,750.6289 Q551.0938,750.2539 550.4844,750.0352 Q549.875,749.8164 549.25,749.8164 Q548.4844,749.8164 547.8438,750.1445 Q547.2188,750.4727 546.7188,751.2227 Q546.2344,751.9727 546.2344,753.0039 L546.2344,754.0977 Q546.2344,755.332 547.125,756.1602 Q548.0156,756.9727 549.6094,756.9727 Q550.5469,756.9727 551.2031,756.7227 Q551.5938,756.5664 552.0156,756.1289 Q552.2813,755.8633 552.4219,755.7852 Q552.5781,755.707 552.7813,755.707 Q553.1094,755.707 553.3594,755.9727 Q553.625,756.2227 553.625,756.5664 Q553.625,756.9102 553.2813,757.3164 Q552.7813,757.8945 551.9844,758.2227 Q550.9063,758.6758 549.6094,758.6758 Q548.0938,758.6758 546.8906,758.0508 Q545.9063,757.5508 545.2188,756.4883 Q544.5313,755.4102 544.5313,754.1289 L544.5313,752.9727 Q544.5313,751.6445 545.1406,750.5039 Q545.7656,749.3477 546.8594,748.7383 Q547.9531,748.1133 549.1875,748.1133 Q549.9219,748.1133 550.5625,748.2852 Q551.2188,748.4414 551.7656,748.8008 Z " fill="#000000"/><text fill="#000000" font-family="sans-serif" font-size="12" font-style="italic" lengthAdjust="spacing" textLength="43" x="565.5" y="748.584">&#171;entity&#187;</text><text fill="#000000" font-family="sans-serif" font-size="14" lengthAdjust="spacing" textLength="48" x="563" y="766.7031">Column</text><line style="stroke:#181818;stroke-width:0.5;" x1="535" x2="613" y1="775.2168" y2="775.2168"/></g><!--class Cell--><g id="elem_Cell"><rect codeLine="21" fill="#F1F1F1" height="52.582" id="Cell" rx="2.5" ry="2.5" style="stroke:#181818;stroke-width:0.5;" width="71" x="466.5" y="851.6348"/><ellipse cx="481.5" cy="873.9258" fill="#ADD1B2" rx="11" ry="11" style="stroke:#181818;stroke-width:1.0;"/><path d="M484.2656,869.8008 Q484.4219,869.582 484.6094,869.4727 Q484.7969,869.3633 485.0156,869.3633 Q485.3906,869.3633 485.625,869.6289 Q485.8594,869.8789 485.8594,870.4883 L485.8594,871.9414 Q485.8594,872.5508 485.625,872.8164 Q485.3906,873.082 485.0156,873.082 Q484.6719,873.082 484.4688,872.8789 Q484.2656,872.6914 484.1563,872.1758 Q484.1094,871.8164 483.9219,871.6289 Q483.5938,871.2539 482.9844,871.0352 Q482.375,870.8164 481.75,870.8164 Q480.9844,870.8164 480.3438,871.1445 Q479.7188,871.4727 479.2188,872.2227 Q478.7344,872.9727 478.7344,874.0039 L478.7344,875.0977 Q478.7344,876.332 479.625,877.1602 Q480.5156,877.9727 482.1094,877.9727 Q483.0469,877.9727 483.7031,877.7227 Q484.0938,877.5664 484.5156,877.1289 Q484.7813,876.8633 484.9219,876.7852 Q485.0781,876.707 485.2813,876.707 Q485.6094,876.707 485.8594,876.9727 Q486.125,877.2227 486.125,877.5664 Q486.125,877.9102 485.7813,878.3164 Q485.2813,878.8945 484.4844,879.2227 Q483.4063,879.6758 482.1094,879.6758 Q480.5938,879.6758 479.3906,879.0508 Q478.4063,878.5508 477.7188,877.4883 Q477.0313,876.4102 477.0313,875.1289 L477.0313,873.9727 Q477.0313,872.6445 477.6406,871.5039 Q478.2656,870.3477 479.3594,869.7383 Q480.4531,869.1133 481.6875,869.1133 Q482.4219,869.1133 483.0625,869.2852 Q483.7188,869.4414 484.2656,869.8008 Z " fill="#000000"/><text fill="#000000" font-family="sans-serif" font-size="12" font-style="italic" lengthAdjust="spacing" textLength="43" x="493.5" y="869.584">&#171;entity&#187;</text><text fill="#000000" font-family="sans-serif" font-size="14" lengthAdjust="spacing" textLength="24" x="503" y="887.7031">Cell</text><line style="stroke:#181818;stroke-width:0.5;" x1="467.5" x2="536.5" y1="896.2168" y2="896.2168"/></g><!--class Post--><g id="elem_Post"><rect codeLine="22" fill="#F1F1F1" height="52.582" id="Post" rx="2.5" ry="2.5" style="stroke:#181818;stroke-width:0.5;" width="71" x="363.5" y="972.6348"/><ellipse cx="378.5" cy="994.9258" fill="#ADD1B2" rx="11" ry="11" style="stroke:#181818;stroke-width:1.0;"/><path d="M377.3594,995.7227 L377.3594,998.2227 L381.6875,998.2227 L381.6875,997.3008 Q381.6875,996.6914 381.9219,996.4258 Q382.1719,996.1602 382.5469,996.1602 Q382.9219,996.1602 383.1563,996.4258 Q383.3906,996.6914 383.3906,997.3008 L383.3906,999.9258 L375.3906,999.9258 Q374.7656,999.9258 374.5,999.6914 Q374.25,999.457 374.25,999.0664 Q374.25,998.6914 374.5156,998.457 Q374.7813,998.2227 375.3906,998.2227 L375.6563,998.2227 L375.6563,991.5664 L375.3906,991.5664 Q374.7656,991.5664 374.5,991.332 Q374.25,991.0977 374.25,990.707 Q374.25,990.332 374.5,990.0977 Q374.7656,989.8633 375.3906,989.8633 L383.0156,989.8633 L383.0156,992.457 Q383.0156,993.0664 382.7813,993.332 Q382.5625,993.582 382.1719,993.582 Q381.7969,993.582 381.5625,993.332 Q381.3281,993.0664 381.3281,992.457 L381.3281,991.5664 L377.3594,991.5664 L377.3594,994.0195 L378.8438,994.0195 Q378.8438,993.3633 378.9688,993.1758 Q379.2344,992.7695 379.7031,992.7695 Q380.0781,992.7695 380.3125,993.0352 Q380.5469,993.2852 380.5469,993.8945 L380.5469,995.8633 Q380.5469,996.4102 380.4219,996.5977 Q380.1563,996.9883 379.7031,996.9883 Q379.2344,996.9883 378.9688,996.582 Q378.8438,996.3945 378.8438,995.7227 L377.3594,995.7227 Z " fill="#000000"/><text fill="#000000" font-family="sans-serif" font-size="12" font-style="italic" lengthAdjust="spacing" textLength="43" x="390.5" y="990.584">&#171;entity&#187;</text><text fill="#000000" font-family="sans-serif" font-size="14" lengthAdjust="spacing" textLength="28" x="398" y="1008.7031">Post</text><line style="stroke:#181818;stroke-width:0.5;" x1="364.5" x2="433.5" y1="1017.2168" y2="1017.2168"/></g><!--class PostDescription--><g id="elem_PostDescription"><rect codeLine="23" fill="#F1F1F1" height="52.582" id="PostDescription" rx="2.5" ry="2.5" style="stroke:#181818;stroke-width:0.5;" width="109" x="281.5" y="1085.6348"/><ellipse cx="296.5" cy="1107.9258" fill="#B8255F" rx="11" ry="11" style="stroke:#181818;stroke-width:1.0;"/><path d="M297.0938,1111.1914 L299.5625,1105.3164 L299.1719,1105.3164 Q298.5625,1105.3164 298.2969,1105.082 Q298.0313,1104.8477 298.0313,1104.457 Q298.0313,1104.082 298.2969,1103.8477 Q298.5625,1103.6133 299.1719,1103.6133 L301.4531,1103.6133 Q302.0625,1103.6133 302.3281,1103.8477 Q302.5938,1104.082 302.5938,1104.457 Q302.5938,1104.9258 302.1875,1105.1914 Q302,1105.3164 301.4063,1105.3164 L297.9219,1113.6758 L296.2813,1113.6758 L292.7969,1105.3164 Q292.2031,1105.3164 292.0156,1105.1914 Q291.6094,1104.9258 291.6094,1104.457 Q291.6094,1104.082 291.875,1103.8477 Q292.1406,1103.6133 292.75,1103.6133 L295.0469,1103.6133 Q295.6563,1103.6133 295.9063,1103.8477 Q296.1719,1104.082 296.1719,1104.457 Q296.1719,1104.8477 295.9063,1105.082 Q295.6563,1105.3164 295.0469,1105.3164 L294.6406,1105.3164 L297.0938,1111.1914 Z " fill="#000000"/><text fill="#000000" font-family="sans-serif" font-size="12" font-style="italic" lengthAdjust="spacing" textLength="81" x="308.5" y="1103.584">&#171;value object&#187;</text><text fill="#000000" font-family="sans-serif" font-size="14" lengthAdjust="spacing" textLength="71" x="313.5" y="1121.7031">Description</text><line style="stroke:#181818;stroke-width:0.5;" x1="282.5" x2="389.5" y1="1130.2168" y2="1130.2168"/></g><!--class Permission--><g id="elem_Permission"><rect codeLine="24" fill="#F1F1F1" height="52.582" id="Permission" rx="2.5" ry="2.5" style="stroke:#181818;stroke-width:0.5;" width="109" x="219.5" y="972.6348"/><ellipse cx="234.5" cy="994.9258" fill="#B8255F" rx="11" ry="11" style="stroke:#181818;stroke-width:1.0;"/><path d="M235.0938,998.1914 L237.5625,992.3164 L237.1719,992.3164 Q236.5625,992.3164 236.2969,992.082 Q236.0313,991.8477 236.0313,991.457 Q236.0313,991.082 236.2969,990.8477 Q236.5625,990.6133 237.1719,990.6133 L239.4531,990.6133 Q240.0625,990.6133 240.3281,990.8477 Q240.5938,991.082 240.5938,991.457 Q240.5938,991.9258 240.1875,992.1914 Q240,992.3164 239.4063,992.3164 L235.9219,1000.6758 L234.2813,1000.6758 L230.7969,992.3164 Q230.2031,992.3164 230.0156,992.1914 Q229.6094,991.9258 229.6094,991.457 Q229.6094,991.082 229.875,990.8477 Q230.1406,990.6133 230.75,990.6133 L233.0469,990.6133 Q233.6563,990.6133 233.9063,990.8477 Q234.1719,991.082 234.1719,991.457 Q234.1719,991.8477 233.9063,992.082 Q233.6563,992.3164 233.0469,992.3164 L232.6406,992.3164 L235.0938,998.1914 Z " fill="#000000"/><text fill="#000000" font-family="sans-serif" font-size="12" font-style="italic" lengthAdjust="spacing" textLength="81" x="246.5" y="990.584">&#171;value object&#187;</text><text fill="#000000" font-family="sans-serif" font-size="14" lengthAdjust="spacing" textLength="69" x="252.5" y="1008.7031">Permission</text><line style="stroke:#181818;stroke-width:0.5;" x1="220.5" x2="327.5" y1="1017.2168" y2="1017.2168"/></g><!--class TypeOfPost--><g id="elem_TypeOfPost"><rect codeLine="25" fill="#F1F1F1" height="52.582" id="TypeOfPost" rx="2.5" ry="2.5" style="stroke:#181818;stroke-width:0.5;" width="109" x="425.5" y="1085.6348"/><ellipse cx="440.5" cy="1107.9258" fill="#B8255F" rx="11" ry="11" style="stroke:#181818;stroke-width:1.0;"/><path d="M441.0938,1111.1914 L443.5625,1105.3164 L443.1719,1105.3164 Q442.5625,1105.3164 442.2969,1105.082 Q442.0313,1104.8477 442.0313,1104.457 Q442.0313,1104.082 442.2969,1103.8477 Q442.5625,1103.6133 443.1719,1103.6133 L445.4531,1103.6133 Q446.0625,1103.6133 446.3281,1103.8477 Q446.5938,1104.082 446.5938,1104.457 Q446.5938,1104.9258 446.1875,1105.1914 Q446,1105.3164 445.4063,1105.3164 L441.9219,1113.6758 L440.2813,1113.6758 L436.7969,1105.3164 Q436.2031,1105.3164 436.0156,1105.1914 Q435.6094,1104.9258 435.6094,1104.457 Q435.6094,1104.082 435.875,1103.8477 Q436.1406,1103.6133 436.75,1103.6133 L439.0469,1103.6133 Q439.6563,1103.6133 439.9063,1103.8477 Q440.1719,1104.082 440.1719,1104.457 Q440.1719,1104.8477 439.9063,1105.082 Q439.6563,1105.3164 439.0469,1105.3164 L438.6406,1105.3164 L441.0938,1111.1914 Z " fill="#000000"/><text fill="#000000" font-family="sans-serif" font-size="12" font-style="italic" lengthAdjust="spacing" textLength="81" x="452.5" y="1103.584">&#171;value object&#187;</text><text fill="#000000" font-family="sans-serif" font-size="14" lengthAdjust="spacing" textLength="75" x="455.5" y="1121.7031">TypeOfPost</text><line style="stroke:#181818;stroke-width:0.5;" x1="426.5" x2="533.5" y1="1130.2168" y2="1130.2168"/></g><!--class History--><g id="elem_History"><rect codeLine="26" fill="#F1F1F1" height="52.582" id="History" rx="2.5" ry="2.5" style="stroke:#181818;stroke-width:0.5;" width="75" x="526.5" y="608.6348"/><ellipse cx="541.5" cy="630.9258" fill="#ADD1B2" rx="11" ry="11" style="stroke:#181818;stroke-width:1.0;"/><path d="M540.3594,631.7227 L540.3594,634.2227 L544.6875,634.2227 L544.6875,633.3008 Q544.6875,632.6914 544.9219,632.4258 Q545.1719,632.1602 545.5469,632.1602 Q545.9219,632.1602 546.1563,632.4258 Q546.3906,632.6914 546.3906,633.3008 L546.3906,635.9258 L538.3906,635.9258 Q537.7656,635.9258 537.5,635.6914 Q537.25,635.457 537.25,635.0664 Q537.25,634.6914 537.5156,634.457 Q537.7813,634.2227 538.3906,634.2227 L538.6563,634.2227 L538.6563,627.5664 L538.3906,627.5664 Q537.7656,627.5664 537.5,627.332 Q537.25,627.0977 537.25,626.707 Q537.25,626.332 537.5,626.0977 Q537.7656,625.8633 538.3906,625.8633 L546.0156,625.8633 L546.0156,628.457 Q546.0156,629.0664 545.7813,629.332 Q545.5625,629.582 545.1719,629.582 Q544.7969,629.582 544.5625,629.332 Q544.3281,629.0664 544.3281,628.457 L544.3281,627.5664 L540.3594,627.5664 L540.3594,630.0195 L541.8438,630.0195 Q541.8438,629.3633 541.9688,629.1758 Q542.2344,628.7695 542.7031,628.7695 Q543.0781,628.7695 543.3125,629.0352 Q543.5469,629.2852 543.5469,629.8945 L543.5469,631.8633 Q543.5469,632.4102 543.4219,632.5977 Q543.1563,632.9883 542.7031,632.9883 Q542.2344,632.9883 541.9688,632.582 Q541.8438,632.3945 541.8438,631.7227 L540.3594,631.7227 Z " fill="#000000"/><text fill="#000000" font-family="sans-serif" font-size="12" font-style="italic" lengthAdjust="spacing" textLength="43" x="555.5" y="626.584">&#171;entity&#187;</text><text fill="#000000" font-family="sans-serif" font-size="14" lengthAdjust="spacing" textLength="43" x="555.5" y="644.7031">History</text><line style="stroke:#181818;stroke-width:0.5;" x1="527.5" x2="600.5" y1="653.2168" y2="653.2168"/></g><!--class View--><g id="elem_View"><rect codeLine="30" fill="#F1F1F1" height="71.2031" id="View" rx="2.5" ry="2.5" style="stroke:#181818;stroke-width:0.5;" width="71" x="654.5" y="599.6348"/><ellipse cx="669.5" cy="621.9258" fill="#ADD1B2" rx="11" ry="11" style="stroke:#181818;stroke-width:1.0;"/><path d="M672.2656,617.8008 Q672.4219,617.582 672.6094,617.4727 Q672.7969,617.3633 673.0156,617.3633 Q673.3906,617.3633 673.625,617.6289 Q673.8594,617.8789 673.8594,618.4883 L673.8594,619.9414 Q673.8594,620.5508 673.625,620.8164 Q673.3906,621.082 673.0156,621.082 Q672.6719,621.082 672.4688,620.8789 Q672.2656,620.6914 672.1563,620.1758 Q672.1094,619.8164 671.9219,619.6289 Q671.5938,619.2539 670.9844,619.0352 Q670.375,618.8164 669.75,618.8164 Q668.9844,618.8164 668.3438,619.1445 Q667.7188,619.4727 667.2188,620.2227 Q666.7344,620.9727 666.7344,622.0039 L666.7344,623.0977 Q666.7344,624.332 667.625,625.1602 Q668.5156,625.9727 670.1094,625.9727 Q671.0469,625.9727 671.7031,625.7227 Q672.0938,625.5664 672.5156,625.1289 Q672.7813,624.8633 672.9219,624.7852 Q673.0781,624.707 673.2813,624.707 Q673.6094,624.707 673.8594,624.9727 Q674.125,625.2227 674.125,625.5664 Q674.125,625.9102 673.7813,626.3164 Q673.2813,626.8945 672.4844,627.2227 Q671.4063,627.6758 670.1094,627.6758 Q668.5938,627.6758 667.3906,627.0508 Q666.4063,626.5508 665.7188,625.4883 Q665.0313,624.4102 665.0313,623.1289 L665.0313,621.9727 Q665.0313,620.6445 665.6406,619.5039 Q666.2656,618.3477 667.3594,617.7383 Q668.4531,617.1133 669.6875,617.1133 Q670.4219,617.1133 671.0625,617.2852 Q671.7188,617.4414 672.2656,617.8008 Z " fill="#000000"/><text fill="#000000" font-family="sans-serif" font-size="12" font-style="italic" lengthAdjust="spacing" textLength="43" x="681.5" y="617.584">&#171;entity&#187;</text><text fill="#000000" font-family="sans-serif" font-size="14" lengthAdjust="spacing" textLength="29" x="688.5" y="635.7031">View</text><line style="stroke:#181818;stroke-width:0.5;" x1="655.5" x2="724.5" y1="644.2168" y2="644.2168"/><text fill="#000000" font-family="sans-serif" font-size="14" lengthAdjust="spacing" textLength="45" x="660.5" y="663.3242">File file</text></g><!--class CellState--><g id="elem_CellState"><rect codeLine="28" fill="#F1F1F1" height="52.582" id="CellState" rx="2.5" ry="2.5" style="stroke:#181818;stroke-width:0.5;" width="109" x="469.5" y="972.6348"/><ellipse cx="484.5" cy="994.9258" fill="#B8255F" rx="11" ry="11" style="stroke:#181818;stroke-width:1.0;"/><path d="M485.0938,998.1914 L487.5625,992.3164 L487.1719,992.3164 Q486.5625,992.3164 486.2969,992.082 Q486.0313,991.8477 486.0313,991.457 Q486.0313,991.082 486.2969,990.8477 Q486.5625,990.6133 487.1719,990.6133 L489.4531,990.6133 Q490.0625,990.6133 490.3281,990.8477 Q490.5938,991.082 490.5938,991.457 Q490.5938,991.9258 490.1875,992.1914 Q490,992.3164 489.4063,992.3164 L485.9219,1000.6758 L484.2813,1000.6758 L480.7969,992.3164 Q480.2031,992.3164 480.0156,992.1914 Q479.6094,991.9258 479.6094,991.457 Q479.6094,991.082 479.875,990.8477 Q480.1406,990.6133 480.75,990.6133 L483.0469,990.6133 Q483.6563,990.6133 483.9063,990.8477 Q484.1719,991.082 484.1719,991.457 Q484.1719,991.8477 483.9063,992.082 Q483.6563,992.3164 483.0469,992.3164 L482.6406,992.3164 L485.0938,998.1914 Z " fill="#000000"/><text fill="#000000" font-family="sans-serif" font-size="12" font-style="italic" lengthAdjust="spacing" textLength="81" x="496.5" y="990.584">&#171;value object&#187;</text><text fill="#000000" font-family="sans-serif" font-size="14" lengthAdjust="spacing" textLength="57" x="508.5" y="1008.7031">CellState</text><line style="stroke:#181818;stroke-width:0.5;" x1="470.5" x2="577.5" y1="1017.2168" y2="1017.2168"/></g><!--class SharedBoardState--><g id="elem_SharedBoardState"><rect codeLine="29" fill="#F1F1F1" height="52.582" id="SharedBoardState" rx="2.5" ry="2.5" style="stroke:#181818;stroke-width:0.5;" width="149" x="613.5" y="972.6348"/><ellipse cx="628.5" cy="994.9258" fill="#B8255F" rx="11" ry="11" style="stroke:#181818;stroke-width:1.0;"/><path d="M629.0938,998.1914 L631.5625,992.3164 L631.1719,992.3164 Q630.5625,992.3164 630.2969,992.082 Q630.0313,991.8477 630.0313,991.457 Q630.0313,991.082 630.2969,990.8477 Q630.5625,990.6133 631.1719,990.6133 L633.4531,990.6133 Q634.0625,990.6133 634.3281,990.8477 Q634.5938,991.082 634.5938,991.457 Q634.5938,991.9258 634.1875,992.1914 Q634,992.3164 633.4063,992.3164 L629.9219,1000.6758 L628.2813,1000.6758 L624.7969,992.3164 Q624.2031,992.3164 624.0156,992.1914 Q623.6094,991.9258 623.6094,991.457 Q623.6094,991.082 623.875,990.8477 Q624.1406,990.6133 624.75,990.6133 L627.0469,990.6133 Q627.6563,990.6133 627.9063,990.8477 Q628.1719,991.082 628.1719,991.457 Q628.1719,991.8477 627.9063,992.082 Q627.6563,992.3164 627.0469,992.3164 L626.6406,992.3164 L629.0938,998.1914 Z " fill="#000000"/><text fill="#000000" font-family="sans-serif" font-size="12" font-style="italic" lengthAdjust="spacing" textLength="81" x="660.5" y="990.584">&#171;value object&#187;</text><text fill="#000000" font-family="sans-serif" font-size="14" lengthAdjust="spacing" textLength="117" x="642.5" y="1008.7031">SharedBoardState</text><line style="stroke:#181818;stroke-width:0.5;" x1="614.5" x2="761.5" y1="1017.2168" y2="1017.2168"/></g><!--class User--><g id="elem_User"><rect fill="#F1F1F1" height="40" id="User" rx="2.5" ry="2.5" style="stroke:#181818;stroke-width:0.5;" width="61" x="256.5" y="737.1348"/><ellipse cx="271.5" cy="753.1348" fill="#ADD1B2" rx="11" ry="11" style="stroke:#181818;stroke-width:1.0;"/><path d="M274.2656,749.0098 Q274.4219,748.791 274.6094,748.6816 Q274.7969,748.5723 275.0156,748.5723 Q275.3906,748.5723 275.625,748.8379 Q275.8594,749.0879 275.8594,749.6973 L275.8594,751.1504 Q275.8594,751.7598 275.625,752.0254 Q275.3906,752.291 275.0156,752.291 Q274.6719,752.291 274.4688,752.0879 Q274.2656,751.9004 274.1563,751.3848 Q274.1094,751.0254 273.9219,750.8379 Q273.5938,750.4629 272.9844,750.2441 Q272.375,750.0254 271.75,750.0254 Q270.9844,750.0254 270.3438,750.3535 Q269.7188,750.6816 269.2188,751.4316 Q268.7344,752.1816 268.7344,753.2129 L268.7344,754.3066 Q268.7344,755.541 269.625,756.3691 Q270.5156,757.1816 272.1094,757.1816 Q273.0469,757.1816 273.7031,756.9316 Q274.0938,756.7754 274.5156,756.3379 Q274.7813,756.0723 274.9219,755.9941 Q275.0781,755.916 275.2813,755.916 Q275.6094,755.916 275.8594,756.1816 Q276.125,756.4316 276.125,756.7754 Q276.125,757.1191 275.7813,757.5254 Q275.2813,758.1035 274.4844,758.4316 Q273.4063,758.8848 272.1094,758.8848 Q270.5938,758.8848 269.3906,758.2598 Q268.4063,757.7598 267.7188,756.6973 Q267.0313,755.6191 267.0313,754.3379 L267.0313,753.1816 Q267.0313,751.8535 267.6406,750.7129 Q268.2656,749.5566 269.3594,748.9473 Q270.4531,748.3223 271.6875,748.3223 Q272.4219,748.3223 273.0625,748.4941 Q273.7188,748.6504 274.2656,749.0098 Z " fill="#000000"/><text fill="#000000" font-family="sans-serif" font-size="14" lengthAdjust="spacing" textLength="29" x="285.5" y="758.9316">User</text><line style="stroke:#181818;stroke-width:0.5;" x1="257.5" x2="316.5" y1="769.1348" y2="769.1348"/></g><!--class Profile--><g id="elem_Profile"><rect codeLine="66" fill="#F1F1F1" height="68.543" id="Profile" rx="2.5" ry="2.5" style="stroke:#181818;stroke-width:0.5;" width="72" x="408" y="324.6348"/><ellipse cx="423" cy="354.9063" fill="#ADD1B2" rx="11" ry="11" style="stroke:#181818;stroke-width:1.0;"/><path d="M421.8594,355.7031 L421.8594,358.2031 L426.1875,358.2031 L426.1875,357.2813 Q426.1875,356.6719 426.4219,356.4063 Q426.6719,356.1406 427.0469,356.1406 Q427.4219,356.1406 427.6563,356.4063 Q427.8906,356.6719 427.8906,357.2813 L427.8906,359.9063 L419.8906,359.9063 Q419.2656,359.9063 419,359.6719 Q418.75,359.4375 418.75,359.0469 Q418.75,358.6719 419.0156,358.4375 Q419.2813,358.2031 419.8906,358.2031 L420.1563,358.2031 L420.1563,351.5469 L419.8906,351.5469 Q419.2656,351.5469 419,351.3125 Q418.75,351.0781 418.75,350.6875 Q418.75,350.3125 419,350.0781 Q419.2656,349.8438 419.8906,349.8438 L427.5156,349.8438 L427.5156,352.4375 Q427.5156,353.0469 427.2813,353.3125 Q427.0625,353.5625 426.6719,353.5625 Q426.2969,353.5625 426.0625,353.3125 Q425.8281,353.0469 425.8281,352.4375 L425.8281,351.5469 L421.8594,351.5469 L421.8594,354 L423.3438,354 Q423.3438,353.3438 423.4688,353.1563 Q423.7344,352.75 424.2031,352.75 Q424.5781,352.75 424.8125,353.0156 Q425.0469,353.2656 425.0469,353.875 L425.0469,355.8438 Q425.0469,356.3906 424.9219,356.5781 Q424.6563,356.9688 424.2031,356.9688 Q423.7344,356.9688 423.4688,356.5625 Q423.3438,356.375 423.3438,355.7031 L421.8594,355.7031 Z " fill="#000000"/><text fill="#000000" font-family="sans-serif" font-size="12" font-style="italic" lengthAdjust="spacing" textLength="35" x="439.5" y="342.584">&#171;root&#187;</text><text fill="#000000" font-family="sans-serif" font-size="12" font-style="italic" lengthAdjust="spacing" textLength="43" x="435.5" y="358.5449">&#171;entity&#187;</text><text fill="#000000" font-family="sans-serif" font-size="14" lengthAdjust="spacing" textLength="40" x="437" y="376.6641">Profile</text><line style="stroke:#181818;stroke-width:0.5;" x1="409" x2="479" y1="385.1777" y2="385.1777"/></g><!--class TeacherProfile--><g id="elem_TeacherProfile"><rect codeLine="68" fill="#F1F1F1" height="52.582" id="TeacherProfile" rx="2.5" ry="2.5" style="stroke:#181818;stroke-width:0.5;" width="125" x="148.5" y="203.6348"/><ellipse cx="163.5" cy="225.9258" fill="#ADD1B2" rx="11" ry="11" style="stroke:#181818;stroke-width:1.0;"/><path d="M166.2656,221.8008 Q166.4219,221.582 166.6094,221.4727 Q166.7969,221.3633 167.0156,221.3633 Q167.3906,221.3633 167.625,221.6289 Q167.8594,221.8789 167.8594,222.4883 L167.8594,223.9414 Q167.8594,224.5508 167.625,224.8164 Q167.3906,225.082 167.0156,225.082 Q166.6719,225.082 166.4688,224.8789 Q166.2656,224.6914 166.1563,224.1758 Q166.1094,223.8164 165.9219,223.6289 Q165.5938,223.2539 164.9844,223.0352 Q164.375,222.8164 163.75,222.8164 Q162.9844,222.8164 162.3438,223.1445 Q161.7188,223.4727 161.2188,224.2227 Q160.7344,224.9727 160.7344,226.0039 L160.7344,227.0977 Q160.7344,228.332 161.625,229.1602 Q162.5156,229.9727 164.1094,229.9727 Q165.0469,229.9727 165.7031,229.7227 Q166.0938,229.5664 166.5156,229.1289 Q166.7813,228.8633 166.9219,228.7852 Q167.0781,228.707 167.2813,228.707 Q167.6094,228.707 167.8594,228.9727 Q168.125,229.2227 168.125,229.5664 Q168.125,229.9102 167.7813,230.3164 Q167.2813,230.8945 166.4844,231.2227 Q165.4063,231.6758 164.1094,231.6758 Q162.5938,231.6758 161.3906,231.0508 Q160.4063,230.5508 159.7188,229.4883 Q159.0313,228.4102 159.0313,227.1289 L159.0313,225.9727 Q159.0313,224.6445 159.6406,223.5039 Q160.2656,222.3477 161.3594,221.7383 Q162.4531,221.1133 163.6875,221.1133 Q164.4219,221.1133 165.0625,221.2852 Q165.7188,221.4414 166.2656,221.8008 Z " fill="#000000"/><text fill="#000000" font-family="sans-serif" font-size="12" font-style="italic" lengthAdjust="spacing" textLength="43" x="202.5" y="221.584">&#171;entity&#187;</text><text fill="#000000" font-family="sans-serif" font-size="14" lengthAdjust="spacing" textLength="93" x="177.5" y="239.7031">TeacherProfile</text><line style="stroke:#181818;stroke-width:0.5;" x1="149.5" x2="272.5" y1="248.2168" y2="248.2168"/></g><!--class StudentProfile--><g id="elem_StudentProfile"><rect codeLine="69" fill="#F1F1F1" height="52.582" id="StudentProfile" rx="2.5" ry="2.5" style="stroke:#181818;stroke-width:0.5;" width="121" x="308.5" y="203.6348"/><ellipse cx="323.5" cy="225.9258" fill="#ADD1B2" rx="11" ry="11" style="stroke:#181818;stroke-width:1.0;"/><path d="M326.2656,221.8008 Q326.4219,221.582 326.6094,221.4727 Q326.7969,221.3633 327.0156,221.3633 Q327.3906,221.3633 327.625,221.6289 Q327.8594,221.8789 327.8594,222.4883 L327.8594,223.9414 Q327.8594,224.5508 327.625,224.8164 Q327.3906,225.082 327.0156,225.082 Q326.6719,225.082 326.4688,224.8789 Q326.2656,224.6914 326.1563,224.1758 Q326.1094,223.8164 325.9219,223.6289 Q325.5938,223.2539 324.9844,223.0352 Q324.375,222.8164 323.75,222.8164 Q322.9844,222.8164 322.3438,223.1445 Q321.7188,223.4727 321.2188,224.2227 Q320.7344,224.9727 320.7344,226.0039 L320.7344,227.0977 Q320.7344,228.332 321.625,229.1602 Q322.5156,229.9727 324.1094,229.9727 Q325.0469,229.9727 325.7031,229.7227 Q326.0938,229.5664 326.5156,229.1289 Q326.7813,228.8633 326.9219,228.7852 Q327.0781,228.707 327.2813,228.707 Q327.6094,228.707 327.8594,228.9727 Q328.125,229.2227 328.125,229.5664 Q328.125,229.9102 327.7813,230.3164 Q327.2813,230.8945 326.4844,231.2227 Q325.4063,231.6758 324.1094,231.6758 Q322.5938,231.6758 321.3906,231.0508 Q320.4063,230.5508 319.7188,229.4883 Q319.0313,228.4102 319.0313,227.1289 L319.0313,225.9727 Q319.0313,224.6445 319.6406,223.5039 Q320.2656,222.3477 321.3594,221.7383 Q322.4531,221.1133 323.6875,221.1133 Q324.4219,221.1133 325.0625,221.2852 Q325.7188,221.4414 326.2656,221.8008 Z " fill="#000000"/><text fill="#000000" font-family="sans-serif" font-size="12" font-style="italic" lengthAdjust="spacing" textLength="43" x="360.5" y="221.584">&#171;entity&#187;</text><text fill="#000000" font-family="sans-serif" font-size="14" lengthAdjust="spacing" textLength="89" x="337.5" y="239.7031">StudentProfile</text><line style="stroke:#181818;stroke-width:0.5;" x1="309.5" x2="428.5" y1="248.2168" y2="248.2168"/></g><!--class ManagerProfile--><g id="elem_ManagerProfile"><rect codeLine="70" fill="#F1F1F1" height="68.543" id="ManagerProfile" rx="2.5" ry="2.5" style="stroke:#181818;stroke-width:0.5;" width="128" x="785" y="195.6348"/><ellipse cx="800" cy="225.9063" fill="#ADD1B2" rx="11" ry="11" style="stroke:#181818;stroke-width:1.0;"/><path d="M802.7656,221.7813 Q802.9219,221.5625 803.1094,221.4531 Q803.2969,221.3438 803.5156,221.3438 Q803.8906,221.3438 804.125,221.6094 Q804.3594,221.8594 804.3594,222.4688 L804.3594,223.9219 Q804.3594,224.5313 804.125,224.7969 Q803.8906,225.0625 803.5156,225.0625 Q803.1719,225.0625 802.9688,224.8594 Q802.7656,224.6719 802.6563,224.1563 Q802.6094,223.7969 802.4219,223.6094 Q802.0938,223.2344 801.4844,223.0156 Q800.875,222.7969 800.25,222.7969 Q799.4844,222.7969 798.8438,223.125 Q798.2188,223.4531 797.7188,224.2031 Q797.2344,224.9531 797.2344,225.9844 L797.2344,227.0781 Q797.2344,228.3125 798.125,229.1406 Q799.0156,229.9531 800.6094,229.9531 Q801.5469,229.9531 802.2031,229.7031 Q802.5938,229.5469 803.0156,229.1094 Q803.2813,228.8438 803.4219,228.7656 Q803.5781,228.6875 803.7813,228.6875 Q804.1094,228.6875 804.3594,228.9531 Q804.625,229.2031 804.625,229.5469 Q804.625,229.8906 804.2813,230.2969 Q803.7813,230.875 802.9844,231.2031 Q801.9063,231.6563 800.6094,231.6563 Q799.0938,231.6563 797.8906,231.0313 Q796.9063,230.5313 796.2188,229.4688 Q795.5313,228.3906 795.5313,227.1094 L795.5313,225.9531 Q795.5313,224.625 796.1406,223.4844 Q796.7656,222.3281 797.8594,221.7188 Q798.9531,221.0938 800.1875,221.0938 Q800.9219,221.0938 801.5625,221.2656 Q802.2188,221.4219 802.7656,221.7813 Z " fill="#000000"/><text fill="#000000" font-family="sans-serif" font-size="12" font-style="italic" lengthAdjust="spacing" textLength="43" x="840.5" y="213.584">&#171;entity&#187;</text><text fill="#000000" font-family="sans-serif" font-size="12" font-style="italic" lengthAdjust="spacing" textLength="72" x="826" y="229.5449">&#171;NullObject&#187;</text><text fill="#000000" font-family="sans-serif" font-size="14" lengthAdjust="spacing" textLength="96" x="814" y="247.6641">ManagerProfile</text><line style="stroke:#181818;stroke-width:0.5;" x1="786" x2="912" y1="256.1777" y2="256.1777"/></g><!--class TaxPayerNumber--><g id="elem_TaxPayerNumber"><rect codeLine="71" fill="#F1F1F1" height="52.582" id="TaxPayerNumber" rx="2.5" ry="2.5" style="stroke:#181818;stroke-width:0.5;" width="141" x="608.5" y="203.6348"/><ellipse cx="623.5" cy="225.9258" fill="#B8255F" rx="11" ry="11" style="stroke:#181818;stroke-width:1.0;"/><path d="M624.0938,229.1914 L626.5625,223.3164 L626.1719,223.3164 Q625.5625,223.3164 625.2969,223.082 Q625.0313,222.8477 625.0313,222.457 Q625.0313,222.082 625.2969,221.8477 Q625.5625,221.6133 626.1719,221.6133 L628.4531,221.6133 Q629.0625,221.6133 629.3281,221.8477 Q629.5938,222.082 629.5938,222.457 Q629.5938,222.9258 629.1875,223.1914 Q629,223.3164 628.4063,223.3164 L624.9219,231.6758 L623.2813,231.6758 L619.7969,223.3164 Q619.2031,223.3164 619.0156,223.1914 Q618.6094,222.9258 618.6094,222.457 Q618.6094,222.082 618.875,221.8477 Q619.1406,221.6133 619.75,221.6133 L622.0469,221.6133 Q622.6563,221.6133 622.9063,221.8477 Q623.1719,222.082 623.1719,222.457 Q623.1719,222.8477 622.9063,223.082 Q622.6563,223.3164 622.0469,223.3164 L621.6406,223.3164 L624.0938,229.1914 Z " fill="#000000"/><text fill="#000000" font-family="sans-serif" font-size="12" font-style="italic" lengthAdjust="spacing" textLength="81" x="651.5" y="221.584">&#171;value object&#187;</text><text fill="#000000" font-family="sans-serif" font-size="14" lengthAdjust="spacing" textLength="109" x="637.5" y="239.7031">TaxPayerNumber</text><line style="stroke:#181818;stroke-width:0.5;" x1="609.5" x2="748.5" y1="248.2168" y2="248.2168"/></g><!--class DateOfBirth--><g id="elem_DateOfBirth"><rect codeLine="72" fill="#F1F1F1" height="52.582" id="DateOfBirth" rx="2.5" ry="2.5" style="stroke:#181818;stroke-width:0.5;" width="109" x="464.5" y="203.6348"/><ellipse cx="479.5" cy="225.9258" fill="#B8255F" rx="11" ry="11" style="stroke:#181818;stroke-width:1.0;"/><path d="M480.0938,229.1914 L482.5625,223.3164 L482.1719,223.3164 Q481.5625,223.3164 481.2969,223.082 Q481.0313,222.8477 481.0313,222.457 Q481.0313,222.082 481.2969,221.8477 Q481.5625,221.6133 482.1719,221.6133 L484.4531,221.6133 Q485.0625,221.6133 485.3281,221.8477 Q485.5938,222.082 485.5938,222.457 Q485.5938,222.9258 485.1875,223.1914 Q485,223.3164 484.4063,223.3164 L480.9219,231.6758 L479.2813,231.6758 L475.7969,223.3164 Q475.2031,223.3164 475.0156,223.1914 Q474.6094,222.9258 474.6094,222.457 Q474.6094,222.082 474.875,221.8477 Q475.1406,221.6133 475.75,221.6133 L478.0469,221.6133 Q478.6563,221.6133 478.9063,221.8477 Q479.1719,222.082 479.1719,222.457 Q479.1719,222.8477 478.9063,223.082 Q478.6563,223.3164 478.0469,223.3164 L477.6406,223.3164 L480.0938,229.1914 Z " fill="#000000"/><text fill="#000000" font-family="sans-serif" font-size="12" font-style="italic" lengthAdjust="spacing" textLength="81" x="491.5" y="221.584">&#171;value object&#187;</text><text fill="#000000" font-family="sans-serif" font-size="14" lengthAdjust="spacing" textLength="74" x="495" y="239.7031">DateOfBirth</text><line style="stroke:#181818;stroke-width:0.5;" x1="465.5" x2="572.5" y1="248.2168" y2="248.2168"/></g><!--class MechanographicNumber--><g id="elem_MechanographicNumber"><rect codeLine="73" fill="#F1F1F1" height="52.582" id="MechanographicNumber" rx="2.5" ry="2.5" style="stroke:#181818;stroke-width:0.5;" width="186" x="311" y="82.6348"/><ellipse cx="326" cy="104.9258" fill="#B8255F" rx="11" ry="11" style="stroke:#181818;stroke-width:1.0;"/><path d="M326.5938,108.1914 L329.0625,102.3164 L328.6719,102.3164 Q328.0625,102.3164 327.7969,102.082 Q327.5313,101.8477 327.5313,101.457 Q327.5313,101.082 327.7969,100.8477 Q328.0625,100.6133 328.6719,100.6133 L330.9531,100.6133 Q331.5625,100.6133 331.8281,100.8477 Q332.0938,101.082 332.0938,101.457 Q332.0938,101.9258 331.6875,102.1914 Q331.5,102.3164 330.9063,102.3164 L327.4219,110.6758 L325.7813,110.6758 L322.2969,102.3164 Q321.7031,102.3164 321.5156,102.1914 Q321.1094,101.9258 321.1094,101.457 Q321.1094,101.082 321.375,100.8477 Q321.6406,100.6133 322.25,100.6133 L324.5469,100.6133 Q325.1563,100.6133 325.4063,100.8477 Q325.6719,101.082 325.6719,101.457 Q325.6719,101.8477 325.4063,102.082 Q325.1563,102.3164 324.5469,102.3164 L324.1406,102.3164 L326.5938,108.1914 Z " fill="#000000"/><text fill="#000000" font-family="sans-serif" font-size="12" font-style="italic" lengthAdjust="spacing" textLength="81" x="376.5" y="100.584">&#171;value object&#187;</text><text fill="#000000" font-family="sans-serif" font-size="14" lengthAdjust="spacing" textLength="154" x="340" y="118.7031">MechanographicNumber</text><line style="stroke:#181818;stroke-width:0.5;" x1="312" x2="496" y1="127.2168" y2="127.2168"/></g><!--class Acronym--><g id="elem_Acronym"><rect codeLine="74" fill="#F1F1F1" height="52.582" id="Acronym" rx="2.5" ry="2.5" style="stroke:#181818;stroke-width:0.5;" width="109" x="166.5" y="82.6348"/><ellipse cx="181.5" cy="104.9258" fill="#B8255F" rx="11" ry="11" style="stroke:#181818;stroke-width:1.0;"/><path d="M182.0938,108.1914 L184.5625,102.3164 L184.1719,102.3164 Q183.5625,102.3164 183.2969,102.082 Q183.0313,101.8477 183.0313,101.457 Q183.0313,101.082 183.2969,100.8477 Q183.5625,100.6133 184.1719,100.6133 L186.4531,100.6133 Q187.0625,100.6133 187.3281,100.8477 Q187.5938,101.082 187.5938,101.457 Q187.5938,101.9258 187.1875,102.1914 Q187,102.3164 186.4063,102.3164 L182.9219,110.6758 L181.2813,110.6758 L177.7969,102.3164 Q177.2031,102.3164 177.0156,102.1914 Q176.6094,101.9258 176.6094,101.457 Q176.6094,101.082 176.875,100.8477 Q177.1406,100.6133 177.75,100.6133 L180.0469,100.6133 Q180.6563,100.6133 180.9063,100.8477 Q181.1719,101.082 181.1719,101.457 Q181.1719,101.8477 180.9063,102.082 Q180.6563,102.3164 180.0469,102.3164 L179.6406,102.3164 L182.0938,108.1914 Z " fill="#000000"/><text fill="#000000" font-family="sans-serif" font-size="12" font-style="italic" lengthAdjust="spacing" textLength="81" x="193.5" y="100.584">&#171;value object&#187;</text><text fill="#000000" font-family="sans-serif" font-size="14" lengthAdjust="spacing" textLength="55" x="206.5" y="118.7031">Acronym</text><line style="stroke:#181818;stroke-width:0.5;" x1="167.5" x2="274.5" y1="127.2168" y2="127.2168"/></g><!--class Schedule--><g id="elem_Schedule"><rect codeLine="75" fill="#F1F1F1" height="52.582" id="Schedule" rx="2.5" ry="2.5" style="stroke:#181818;stroke-width:0.5;" width="91" x="22.5" y="203.6348"/><ellipse cx="37.5" cy="225.9258" fill="#ADD1B2" rx="11" ry="11" style="stroke:#181818;stroke-width:1.0;"/><path d="M40.2656,221.8008 Q40.4219,221.582 40.6094,221.4727 Q40.7969,221.3633 41.0156,221.3633 Q41.3906,221.3633 41.625,221.6289 Q41.8594,221.8789 41.8594,222.4883 L41.8594,223.9414 Q41.8594,224.5508 41.625,224.8164 Q41.3906,225.082 41.0156,225.082 Q40.6719,225.082 40.4688,224.8789 Q40.2656,224.6914 40.1563,224.1758 Q40.1094,223.8164 39.9219,223.6289 Q39.5938,223.2539 38.9844,223.0352 Q38.375,222.8164 37.75,222.8164 Q36.9844,222.8164 36.3438,223.1445 Q35.7188,223.4727 35.2188,224.2227 Q34.7344,224.9727 34.7344,226.0039 L34.7344,227.0977 Q34.7344,228.332 35.625,229.1602 Q36.5156,229.9727 38.1094,229.9727 Q39.0469,229.9727 39.7031,229.7227 Q40.0938,229.5664 40.5156,229.1289 Q40.7813,228.8633 40.9219,228.7852 Q41.0781,228.707 41.2813,228.707 Q41.6094,228.707 41.8594,228.9727 Q42.125,229.2227 42.125,229.5664 Q42.125,229.9102 41.7813,230.3164 Q41.2813,230.8945 40.4844,231.2227 Q39.4063,231.6758 38.1094,231.6758 Q36.5938,231.6758 35.3906,231.0508 Q34.4063,230.5508 33.7188,229.4883 Q33.0313,228.4102 33.0313,227.1289 L33.0313,225.9727 Q33.0313,224.6445 33.6406,223.5039 Q34.2656,222.3477 35.3594,221.7383 Q36.4531,221.1133 37.6875,221.1133 Q38.4219,221.1133 39.0625,221.2852 Q39.7188,221.4414 40.2656,221.8008 Z " fill="#000000"/><text fill="#000000" font-family="sans-serif" font-size="12" font-style="italic" lengthAdjust="spacing" textLength="43" x="59.5" y="221.584">&#171;entity&#187;</text><text fill="#000000" font-family="sans-serif" font-size="14" lengthAdjust="spacing" textLength="59" x="51.5" y="239.7031">Schedule</text><line style="stroke:#181818;stroke-width:0.5;" x1="23.5" x2="112.5" y1="248.2168" y2="248.2168"/></g><!--class ProfileDay--><g id="elem_ProfileDay"><rect codeLine="76" fill="#F1F1F1" height="52.582" id="ProfileDay" rx="2.5" ry="2.5" style="stroke:#181818;stroke-width:0.5;" width="109" x="22.5" y="82.6348"/><ellipse cx="37.5" cy="104.9258" fill="#B8255F" rx="11" ry="11" style="stroke:#181818;stroke-width:1.0;"/><path d="M38.0938,108.1914 L40.5625,102.3164 L40.1719,102.3164 Q39.5625,102.3164 39.2969,102.082 Q39.0313,101.8477 39.0313,101.457 Q39.0313,101.082 39.2969,100.8477 Q39.5625,100.6133 40.1719,100.6133 L42.4531,100.6133 Q43.0625,100.6133 43.3281,100.8477 Q43.5938,101.082 43.5938,101.457 Q43.5938,101.9258 43.1875,102.1914 Q43,102.3164 42.4063,102.3164 L38.9219,110.6758 L37.2813,110.6758 L33.7969,102.3164 Q33.2031,102.3164 33.0156,102.1914 Q32.6094,101.9258 32.6094,101.457 Q32.6094,101.082 32.875,100.8477 Q33.1406,100.6133 33.75,100.6133 L36.0469,100.6133 Q36.6563,100.6133 36.9063,100.8477 Q37.1719,101.082 37.1719,101.457 Q37.1719,101.8477 36.9063,102.082 Q36.6563,102.3164 36.0469,102.3164 L35.6406,102.3164 L38.0938,108.1914 Z " fill="#000000"/><text fill="#000000" font-family="sans-serif" font-size="12" font-style="italic" lengthAdjust="spacing" textLength="81" x="49.5" y="100.584">&#171;value object&#187;</text><text fill="#000000" font-family="sans-serif" font-size="14" lengthAdjust="spacing" textLength="25" x="77.5" y="118.7031">Day</text><line style="stroke:#181818;stroke-width:0.5;" x1="23.5" x2="130.5" y1="127.2168" y2="127.2168"/></g><!--link User to Owner--><g id="link_User_Owner"><path codeLine="34" d="M317.68,757.6348 C345.27,757.6348 381.5,757.6348 381.5,757.6348 C381.5,757.6348 381.5,846.3948 381.5,846.3948 " fill="none" id="User-to-Owner" style="stroke:#181818;stroke-width:1.0;"/><polygon fill="#181818" points="381.5,851.3948,385.5,842.3948,381.5,846.3948,377.5,842.3948,381.5,851.3948" style="stroke:#181818;stroke-width:1.0;"/><text fill="#000000" font-family="sans-serif" font-size="13" lengthAdjust="spacing" textLength="21" x="359.5" y="766.1331">is a</text><text fill="#000000" font-family="sans-serif" font-size="13" lengthAdjust="spacing" textLength="7" x="325.5841" y="752.8467">1</text><text fill="#000000" font-family="sans-serif" font-size="13" lengthAdjust="spacing" textLength="7" x="370.5688" y="840.3558">1</text></g><!--link User to Participant--><g id="link_User_Participant"><path codeLine="35" d="M287,777.3848 C287,777.3848 287,846.4448 287,846.4448 " fill="none" id="User-to-Participant" style="stroke:#181818;stroke-width:1.0;"/><polygon fill="#181818" points="287,851.4448,291,842.4448,287,846.4448,283,842.4448,287,851.4448" style="stroke:#181818;stroke-width:1.0;"/><text fill="#000000" font-family="sans-serif" font-size="13" lengthAdjust="spacing" textLength="21" x="265" y="826.9431">is a</text><text fill="#000000" font-family="sans-serif" font-size="13" lengthAdjust="spacing" textLength="7" x="279.0594" y="799.1788">1</text><text fill="#000000" font-family="sans-serif" font-size="13" lengthAdjust="spacing" textLength="7" x="282.1969" y="840.4174">1</text></g><!--link Owner to SharedBoardState--><g id="link_Owner_SharedBoardState"><path codeLine="36" d="M414.5,904.7448 C414.5,922.5048 414.5,942.6348 414.5,942.6348 C414.5,942.6348 647.5,942.6348 647.5,942.6348 C647.5,942.6348 647.5,967.5348 647.5,967.5348 " fill="none" id="Owner-to-SharedBoardState" style="stroke:#181818;stroke-width:1.0;"/><polygon fill="#181818" points="647.5,972.5348,651.5,963.5348,647.5,967.5348,643.5,963.5348,647.5,972.5348" style="stroke:#181818;stroke-width:1.0;"/><text fill="#000000" font-family="sans-serif" font-size="13" lengthAdjust="spacing" textLength="49" x="474.51" y="957.6631">changes</text><text fill="#000000" font-family="sans-serif" font-size="13" lengthAdjust="spacing" textLength="7" x="410.8" y="926.0876">1</text><text fill="#000000" font-family="sans-serif" font-size="13" lengthAdjust="spacing" textLength="7" x="630.325" y="961.5282">1</text></g><!--link SharedBoard to Owner--><g id="link_SharedBoard_Owner"><path codeLine="37" d="M464.75,552.6348 C464.75,552.6348 464.75,700.6348 464.75,700.6348 C464.75,700.6348 404.5,700.6348 404.5,700.6348 C404.5,700.6348 404.5,838.5648 404.5,838.5648 " fill="none" id="SharedBoard-Owner" style="stroke:#181818;stroke-width:1.0;"/><polygon fill="#181818" points="464.75,539.6348,460.75,545.6348,464.75,551.6348,468.75,545.6348,464.75,539.6348" style="stroke:#181818;stroke-width:1.0;"/><polygon fill="#181818" points="404.5,851.5648,408.5,842.5648,404.5,846.5648,400.5,842.5648,404.5,851.5648" style="stroke:#181818;stroke-width:1.0;"/><line style="stroke:#181818;stroke-width:1.0;" x1="404.5" x2="404.5" y1="846.5648" y2="838.5648"/><text fill="#000000" font-family="sans-serif" font-size="13" lengthAdjust="spacing" textLength="21" x="417.66" y="696.6631">has</text><text fill="#000000" font-family="sans-serif" font-size="13" lengthAdjust="spacing" textLength="7" x="460.7148" y="561.118">1</text><text fill="#000000" font-family="sans-serif" font-size="13" lengthAdjust="spacing" textLength="7" x="398.8875" y="840.5651">1</text></g><!--link SharedBoard to Participant--><g id="link_SharedBoard_Participant"><path codeLine="38" d="M372.96,505.6348 C372.96,505.6348 240.5,505.6348 240.5,505.6348 C240.5,505.6348 240.5,838.3448 240.5,838.3448 " fill="none" id="SharedBoard-Participant" style="stroke:#181818;stroke-width:1.0;"/><polygon fill="#181818" points="385.96,505.6348,379.96,501.6348,373.96,505.6348,379.96,509.6348,385.96,505.6348" style="stroke:#181818;stroke-width:1.0;"/><polygon fill="#181818" points="240.5,851.3448,244.5,842.3448,240.5,846.3448,236.5,842.3448,240.5,851.3448" style="stroke:#181818;stroke-width:1.0;"/><line style="stroke:#181818;stroke-width:1.0;" x1="240.5" x2="240.5" y1="846.3448" y2="838.3448"/><text fill="#000000" font-family="sans-serif" font-size="13" lengthAdjust="spacing" textLength="21" x="218.5" y="601.7931">has</text><text fill="#000000" font-family="sans-serif" font-size="13" lengthAdjust="spacing" textLength="7" x="371.0752" y="501.686">1</text><text fill="#000000" font-family="sans-serif" font-size="13" lengthAdjust="spacing" textLength="7" x="224.9438" y="840.2942">1</text></g><!--link SharedBoard to BoardConfig--><g id="link_SharedBoard_BoardConfig"><path codeLine="39" d="M419.75,552.9748 C419.75,552.9748 419.75,595.4548 419.75,595.4548 " fill="none" id="SharedBoard-BoardConfig" style="stroke:#181818;stroke-width:1.0;"/><polygon fill="#181818" points="419.75,539.9748,415.75,545.9748,419.75,551.9748,423.75,545.9748,419.75,539.9748" style="stroke:#181818;stroke-width:1.0;"/><polygon fill="#181818" points="419.75,608.4548,423.75,599.4548,419.75,603.4548,415.75,599.4548,419.75,608.4548" style="stroke:#181818;stroke-width:1.0;"/><line style="stroke:#181818;stroke-width:1.0;" x1="419.75" x2="419.75" y1="603.4548" y2="595.4548"/><text fill="#000000" font-family="sans-serif" font-size="13" lengthAdjust="spacing" textLength="21" x="420.75" y="570.2431">has</text><text fill="#000000" font-family="sans-serif" font-size="13" lengthAdjust="spacing" textLength="7" x="416.9703" y="597.4297">1</text><text fill="#000000" font-family="sans-serif" font-size="13" lengthAdjust="spacing" textLength="7" x="408.1539" y="561.2432">1</text></g><!--link BoardConfig to Row--><g id="link_BoardConfig_Row"><path codeLine="40" d="M444.83,674.9048 C444.83,674.9048 444.83,717.4248 444.83,717.4248 " fill="none" id="BoardConfig-Row" style="stroke:#181818;stroke-width:1.0;"/><polygon fill="#181818" points="444.83,661.9048,440.83,667.9048,444.83,673.9048,448.83,667.9048,444.83,661.9048" style="stroke:#181818;stroke-width:1.0;"/><polygon fill="#181818" points="444.83,730.4248,448.83,721.4248,444.83,725.4248,440.83,721.4248,444.83,730.4248" style="stroke:#181818;stroke-width:1.0;"/><line style="stroke:#181818;stroke-width:1.0;" x1="444.83" x2="444.83" y1="725.4248" y2="717.4248"/><text fill="#000000" font-family="sans-serif" font-size="13" lengthAdjust="spacing" textLength="50" x="445.83" y="711.1931">has max</text><text fill="#000000" font-family="sans-serif" font-size="13" lengthAdjust="spacing" textLength="7" x="432.8188" y="719.3927">1</text><text fill="#000000" font-family="sans-serif" font-size="13" lengthAdjust="spacing" textLength="5" x="448.9731" y="683.2806">*</text></g><!--link BoardConfig to Column--><g id="link_BoardConfig_Column"><path codeLine="41" d="M436.17,667.0348 C436.17,667.0348 436.17,667.6348 436.17,667.6348 C436.17,667.6348 567.75,667.6348 567.75,667.6348 C567.75,667.6348 567.75,717.2848 567.75,717.2848 " fill="none" id="BoardConfig-Column" style="stroke:#181818;stroke-width:1.0;"/><polygon fill="#181818" points="436.17,661.6748,432.17,667.6748,436.17,673.6748,440.17,667.6748,436.17,661.6748" style="stroke:#181818;stroke-width:1.0;"/><polygon fill="#181818" points="567.75,730.2848,571.75,721.2848,567.75,725.2848,563.75,721.2848,567.75,730.2848" style="stroke:#181818;stroke-width:1.0;"/><line style="stroke:#181818;stroke-width:1.0;" x1="567.75" x2="567.75" y1="725.2848" y2="717.2848"/><text fill="#000000" font-family="sans-serif" font-size="13" lengthAdjust="spacing" textLength="50" x="527.48" y="682.6631">has max</text><text fill="#000000" font-family="sans-serif" font-size="13" lengthAdjust="spacing" textLength="7" x="436.7541" y="683.4456">1</text><text fill="#000000" font-family="sans-serif" font-size="13" lengthAdjust="spacing" textLength="5" x="560.7266" y="719.2204">*</text></g><!--link SharedBoard to Cell--><g id="link_SharedBoard_Cell"><path codeLine="42" d="M509.36,522.6348 C509.36,522.6348 510.17,522.6348 510.17,522.6348 C510.17,522.6348 510.17,838.4148 510.17,838.4148 " fill="none" id="SharedBoard-Cell" style="stroke:#181818;stroke-width:1.0;"/><polygon fill="#181818" points="502.05,522.6348,508.05,526.6348,514.05,522.6348,508.05,518.6348,502.05,522.6348" style="stroke:#181818;stroke-width:1.0;"/><polygon fill="#181818" points="510.17,851.4148,514.17,842.4148,510.17,846.4148,506.17,842.4148,510.17,851.4148" style="stroke:#181818;stroke-width:1.0;"/><line style="stroke:#181818;stroke-width:1.0;" x1="510.17" x2="510.17" y1="846.4148" y2="838.4148"/><text fill="#000000" font-family="sans-serif" font-size="13" lengthAdjust="spacing" textLength="21" x="488.17" y="676.1431">has</text><text fill="#000000" font-family="sans-serif" font-size="13" lengthAdjust="spacing" textLength="7" x="509.9361" y="520.8641">1</text><text fill="#000000" font-family="sans-serif" font-size="13" lengthAdjust="spacing" textLength="5" x="506.4812" y="840.3804">*</text></g><!--link Row to Cell--><g id="link_Row_Cell"><path codeLine="43" d="M477.17,796.6848 C477.17,796.6848 477.17,838.2248 477.17,838.2248 " fill="none" id="Row-Cell" style="stroke:#181818;stroke-width:1.0;"/><polygon fill="none" points="477.17,783.6848,473.17,789.6848,477.17,795.6848,481.17,789.6848,477.17,783.6848" style="stroke:#181818;stroke-width:1.0;"/><polygon fill="#181818" points="477.17,851.2248,481.17,842.2248,477.17,846.2248,473.17,842.2248,477.17,851.2248" style="stroke:#181818;stroke-width:1.0;"/><line style="stroke:#181818;stroke-width:1.0;" x1="477.17" x2="477.17" y1="846.2248" y2="838.2248"/><text fill="#000000" font-family="sans-serif" font-size="13" lengthAdjust="spacing" textLength="36" x="440.17" y="813.4831">part of</text><text fill="#000000" font-family="sans-serif" font-size="13" lengthAdjust="spacing" textLength="7" x="463.9728" y="840.5847">1</text><text fill="#000000" font-family="sans-serif" font-size="13" lengthAdjust="spacing" textLength="7" x="472.5041" y="805.4578">1</text></g><!--link Column to Cell--><g id="link_Column_Cell"><path codeLine="44" d="M529.48,757.6348 C529.48,757.6348 529,757.6348 529,757.6348 C529,757.6348 529,838.3948 529,838.3948 " fill="none" id="Column-Cell" style="stroke:#181818;stroke-width:1.0;"/><polygon fill="none" points="533.82,757.6348,527.82,753.6348,521.82,757.6348,527.82,761.6348,533.82,757.6348" style="stroke:#181818;stroke-width:1.0;"/><polygon fill="#181818" points="529,851.3948,533,842.3948,529,846.3948,525,842.3948,529,851.3948" style="stroke:#181818;stroke-width:1.0;"/><line style="stroke:#181818;stroke-width:1.0;" x1="529" x2="529" y1="846.3948" y2="838.3948"/><text fill="#000000" font-family="sans-serif" font-size="13" lengthAdjust="spacing" textLength="36" x="492" y="812.8031">part of</text><text fill="#000000" font-family="sans-serif" font-size="13" lengthAdjust="spacing" textLength="7" x="519.0395" y="753.3012">1</text><text fill="#000000" font-family="sans-serif" font-size="13" lengthAdjust="spacing" textLength="7" x="527.4344" y="840.3558">1</text></g><!--link Row to SharedBoardTitle--><g id="link_Row_SharedBoardTitle"><path codeLine="45" d="M487.83,796.7948 C487.83,796.7948 487.83,847.6348 487.83,847.6348 C487.83,847.6348 559.4,847.6348 559.4,847.6348 " fill="none" id="Row-SharedBoardTitle" style="stroke:#181818;stroke-width:1.0;"/><polygon fill="#181818" points="487.83,783.7948,483.83,789.7948,487.83,795.7948,491.83,789.7948,487.83,783.7948" style="stroke:#181818;stroke-width:1.0;"/><polygon fill="#181818" points="572.4,847.6348,563.4,843.6348,567.4,847.6348,563.4,851.6348,572.4,847.6348" style="stroke:#181818;stroke-width:1.0;"/><line style="stroke:#181818;stroke-width:1.0;" x1="567.4" x2="559.4" y1="847.6348" y2="847.6348"/><text fill="#000000" font-family="sans-serif" font-size="13" lengthAdjust="spacing" textLength="21" x="476.2" y="843.6631">has</text><text fill="#000000" font-family="sans-serif" font-size="13" lengthAdjust="spacing" textLength="7" x="485.2293" y="805.1479">1</text><text fill="#000000" font-family="sans-serif" font-size="13" lengthAdjust="spacing" textLength="7" x="557.5928" y="839.4727">1</text></g><!--link Column to SharedBoardTitle--><g id="link_Column_SharedBoardTitle"><path codeLine="46" d="M593.25,796.6848 C593.25,796.6848 593.25,830.3648 593.25,830.3648 " fill="none" id="Column-SharedBoardTitle" style="stroke:#181818;stroke-width:1.0;"/><polygon fill="#181818" points="593.25,783.6848,589.25,789.6848,593.25,795.6848,597.25,789.6848,593.25,783.6848" style="stroke:#181818;stroke-width:1.0;"/><polygon fill="#181818" points="593.25,843.3648,597.25,834.3648,593.25,838.3648,589.25,834.3648,593.25,843.3648" style="stroke:#181818;stroke-width:1.0;"/><line style="stroke:#181818;stroke-width:1.0;" x1="593.25" x2="593.25" y1="838.3648" y2="830.3648"/><text fill="#000000" font-family="sans-serif" font-size="13" lengthAdjust="spacing" textLength="21" x="594.25" y="809.5531">has</text><text fill="#000000" font-family="sans-serif" font-size="13" lengthAdjust="spacing" textLength="7" x="579.382" y="832.4841">1</text><text fill="#000000" font-family="sans-serif" font-size="13" lengthAdjust="spacing" textLength="7" x="589.6953" y="805.4578">1</text></g><!--link SharedBoard to SharedBoardState--><g id="link_SharedBoard_SharedBoardState"><path codeLine="47" d="M515.34,488.6348 C515.34,488.6348 737.5,488.6348 737.5,488.6348 C737.5,488.6348 737.5,959.4048 737.5,959.4048 " fill="none" id="SharedBoard-SharedBoardState" style="stroke:#181818;stroke-width:1.0;"/><polygon fill="#181818" points="502.34,488.6348,508.34,492.6348,514.34,488.6348,508.34,484.6348,502.34,488.6348" style="stroke:#181818;stroke-width:1.0;"/><polygon fill="#181818" points="737.5,972.4048,741.5,963.4048,737.5,967.4048,733.5,963.4048,737.5,972.4048" style="stroke:#181818;stroke-width:1.0;"/><line style="stroke:#181818;stroke-width:1.0;" x1="737.5" x2="737.5" y1="967.4048" y2="959.4048"/><text fill="#000000" font-family="sans-serif" font-size="13" lengthAdjust="spacing" textLength="21" x="738.5" y="608.9631">has</text><text fill="#000000" font-family="sans-serif" font-size="13" lengthAdjust="spacing" textLength="7" x="509.8768" y="482.6618">1</text><text fill="#000000" font-family="sans-serif" font-size="13" lengthAdjust="spacing" textLength="7" x="741.1375" y="961.3681">1</text></g><!--link SharedBoard to SharedBoardTitle--><g id="link_SharedBoard_SharedBoardTitle"><path codeLine="48" d="M515.06,505.6348 C515.06,505.6348 627.5,505.6348 627.5,505.6348 C627.5,505.6348 627.5,830.4248 627.5,830.4248 " fill="none" id="SharedBoard-SharedBoardTitle" style="stroke:#181818;stroke-width:1.0;"/><polygon fill="#181818" points="502.06,505.6348,508.06,509.6348,514.06,505.6348,508.06,501.6348,502.06,505.6348" style="stroke:#181818;stroke-width:1.0;"/><polygon fill="#181818" points="627.5,843.4248,631.5,834.4248,627.5,838.4248,623.5,834.4248,627.5,843.4248" style="stroke:#181818;stroke-width:1.0;"/><line style="stroke:#181818;stroke-width:1.0;" x1="627.5" x2="627.5" y1="838.4248" y2="830.4248"/><text fill="#000000" font-family="sans-serif" font-size="13" lengthAdjust="spacing" textLength="21" x="605.5" y="607.8431">has</text><text fill="#000000" font-family="sans-serif" font-size="13" lengthAdjust="spacing" textLength="7" x="509.9474" y="501.686">1</text><text fill="#000000" font-family="sans-serif" font-size="13" lengthAdjust="spacing" textLength="7" x="619.9281" y="832.2875">1</text></g><!--link Participant to Post--><g id="link_Participant_Post"><path codeLine="49" d="M336.42,865.6348 C336.42,865.6348 337.83,865.6348 337.83,865.6348 C337.83,865.6348 337.83,999.6348 337.83,999.6348 C337.83,999.6348 350.42,999.6348 350.42,999.6348 " fill="none" id="Participant-Post" style="stroke:#181818;stroke-width:1.0;"/><polygon fill="#181818" points="323.67,865.6348,329.67,869.6348,335.67,865.6348,329.67,861.6348,323.67,865.6348" style="stroke:#181818;stroke-width:1.0;"/><polygon fill="#181818" points="363.42,999.6348,354.42,995.6348,358.42,999.6348,354.42,1003.6348,363.42,999.6348" style="stroke:#181818;stroke-width:1.0;"/><line style="stroke:#181818;stroke-width:1.0;" x1="358.42" x2="350.42" y1="999.6348" y2="999.6348"/><text fill="#000000" font-family="sans-serif" font-size="13" lengthAdjust="spacing" textLength="39" x="297.83" y="953.2431">makes</text><text fill="#000000" font-family="sans-serif" font-size="13" lengthAdjust="spacing" textLength="7" x="331.4793" y="859.6308">1</text><text fill="#000000" font-family="sans-serif" font-size="13" lengthAdjust="spacing" textLength="5" x="350.566" y="995.0862">*</text></g><!--link Participant to Post--><g id="link_Participant_Post"><path codeLine="61" d="M323.66,878.6348 C329.35,878.6348 333.17,878.6348 333.17,878.6348 C333.17,878.6348 333.17,1012.6348 333.17,1012.6348 C333.17,1012.6348 358.39,1012.6348 358.39,1012.6348 " fill="none" id="Participant-to-Post" style="stroke:#181818;stroke-width:1.0;"/><polygon fill="#181818" points="363.39,1012.6348,354.39,1008.6348,358.39,1012.6348,354.39,1016.6348,363.39,1012.6348" style="stroke:#181818;stroke-width:1.0;"/><text fill="#000000" font-family="sans-serif" font-size="13" lengthAdjust="spacing" textLength="49" x="321.42" y="968.5231">changes</text><text fill="#000000" font-family="sans-serif" font-size="13" lengthAdjust="spacing" textLength="7" x="331.4679" y="894.037">1</text><text fill="#000000" font-family="sans-serif" font-size="13" lengthAdjust="spacing" textLength="7" x="348.3236" y="1031.2737">1</text></g><!--link Owner to Post--><g id="link_Owner_Post"><path codeLine="50" d="M397.5,917.6848 C397.5,917.6848 397.5,959.2248 397.5,959.2248 " fill="none" id="Owner-Post" style="stroke:#181818;stroke-width:1.0;"/><polygon fill="#181818" points="397.5,904.6848,393.5,910.6848,397.5,916.6848,401.5,910.6848,397.5,904.6848" style="stroke:#181818;stroke-width:1.0;"/><polygon fill="#181818" points="397.5,972.2248,401.5,963.2248,397.5,967.2248,393.5,963.2248,397.5,972.2248" style="stroke:#181818;stroke-width:1.0;"/><line style="stroke:#181818;stroke-width:1.0;" x1="397.5" x2="397.5" y1="967.2248" y2="959.2248"/><text fill="#000000" font-family="sans-serif" font-size="13" lengthAdjust="spacing" textLength="39" x="398.5" y="934.4831">makes</text><text fill="#000000" font-family="sans-serif" font-size="13" lengthAdjust="spacing" textLength="7" x="389.4063" y="961.5847">1</text><text fill="#000000" font-family="sans-serif" font-size="13" lengthAdjust="spacing" textLength="5" x="392.5" y="926.4578">*</text></g><!--link Owner to Post--><g id="link_Owner_Post"><path codeLine="60" d="M380.5,904.6848 C380.5,904.6848 380.5,967.2248 380.5,967.2248 " fill="none" id="Owner-to-Post" style="stroke:#181818;stroke-width:1.0;"/><polygon fill="#181818" points="380.5,972.2248,384.5,963.2248,380.5,967.2248,376.5,963.2248,380.5,972.2248" style="stroke:#181818;stroke-width:1.0;"/><text fill="#000000" font-family="sans-serif" font-size="13" lengthAdjust="spacing" textLength="49" x="330.5" y="950.9831">changes</text><text fill="#000000" font-family="sans-serif" font-size="13" lengthAdjust="spacing" textLength="7" x="369.5625" y="926.4578">1</text><text fill="#000000" font-family="sans-serif" font-size="13" lengthAdjust="spacing" textLength="7" x="368.6875" y="961.5847">1</text></g><!--link Post to PostDescription--><g id="link_Post_PostDescription"><path codeLine="51" d="M377,1038.9148 C377,1038.9148 377,1072.5448 377,1072.5448 " fill="none" id="Post-PostDescription" style="stroke:#181818;stroke-width:1.0;"/><polygon fill="#181818" points="377,1025.9148,373,1031.9148,377,1037.9148,381,1031.9148,377,1025.9148" style="stroke:#181818;stroke-width:1.0;"/><polygon fill="#181818" points="377,1085.5448,381,1076.5448,377,1080.5448,373,1076.5448,377,1085.5448" style="stroke:#181818;stroke-width:1.0;"/><line style="stroke:#181818;stroke-width:1.0;" x1="377" x2="377" y1="1080.5448" y2="1072.5448"/><text fill="#000000" font-family="sans-serif" font-size="13" lengthAdjust="spacing" textLength="21" x="378" y="1051.7631">has</text><text fill="#000000" font-family="sans-serif" font-size="13" lengthAdjust="spacing" textLength="7" x="378.6719" y="1074.5405">1</text><text fill="#000000" font-family="sans-serif" font-size="13" lengthAdjust="spacing" textLength="7" x="364.7406" y="1047.2927">1</text></g><!--link Post to TypeOfPost--><g id="link_Post_TypeOfPost"><path codeLine="52" d="M430,1038.9148 C430,1038.9148 430,1072.5448 430,1072.5448 " fill="none" id="Post-TypeOfPost" style="stroke:#181818;stroke-width:1.0;"/><polygon fill="#181818" points="430,1025.9148,426,1031.9148,430,1037.9148,434,1031.9148,430,1025.9148" style="stroke:#181818;stroke-width:1.0;"/><polygon fill="#181818" points="430,1085.5448,434,1076.5448,430,1080.5448,426,1076.5448,430,1085.5448" style="stroke:#181818;stroke-width:1.0;"/><line style="stroke:#181818;stroke-width:1.0;" x1="430" x2="430" y1="1080.5448" y2="1072.5448"/><text fill="#000000" font-family="sans-serif" font-size="13" lengthAdjust="spacing" textLength="21" x="431" y="1051.7631">has</text><text fill="#000000" font-family="sans-serif" font-size="13" lengthAdjust="spacing" textLength="7" x="410.6281" y="1074.5405">1</text><text fill="#000000" font-family="sans-serif" font-size="13" lengthAdjust="spacing" textLength="7" x="428.6719" y="1047.2927">1</text></g><!--link Cell to Post--><g id="link_Cell_Post"><path codeLine="53" d="M453.23,878.6348 C453.23,878.6348 450.5,878.6348 450.5,878.6348 C450.5,878.6348 450.5,999.6348 450.5,999.6348 C450.5,999.6348 447.77,999.6348 447.77,999.6348 " fill="none" id="Cell-Post" style="stroke:#181818;stroke-width:1.0;"/><polygon fill="#181818" points="466.23,878.6348,460.23,874.6348,454.23,878.6348,460.23,882.6348,466.23,878.6348" style="stroke:#181818;stroke-width:1.0;"/><polygon fill="#181818" points="434.77,999.6348,443.77,1003.6348,439.77,999.6348,443.77,995.6348,434.77,999.6348" style="stroke:#181818;stroke-width:1.0;"/><line style="stroke:#181818;stroke-width:1.0;" x1="439.77" x2="447.77" y1="999.6348" y2="999.6348"/><text fill="#000000" font-family="sans-serif" font-size="13" lengthAdjust="spacing" textLength="21" x="428.5" y="954.1631">has</text><text fill="#000000" font-family="sans-serif" font-size="13" lengthAdjust="spacing" textLength="7" x="451.4987" y="874.1579">1</text><text fill="#000000" font-family="sans-serif" font-size="13" lengthAdjust="spacing" textLength="7" x="442.5013" y="995.1579">1</text></g><!--link Cell to CellState--><g id="link_Cell_CellState"><path codeLine="54" d="M503.5,917.6848 C503.5,917.6848 503.5,959.2248 503.5,959.2248 " fill="none" id="Cell-CellState" style="stroke:#181818;stroke-width:1.0;"/><polygon fill="#181818" points="503.5,904.6848,499.5,910.6848,503.5,916.6848,507.5,910.6848,503.5,904.6848" style="stroke:#181818;stroke-width:1.0;"/><polygon fill="#181818" points="503.5,972.2248,507.5,963.2248,503.5,967.2248,499.5,963.2248,503.5,972.2248" style="stroke:#181818;stroke-width:1.0;"/><line style="stroke:#181818;stroke-width:1.0;" x1="503.5" x2="503.5" y1="967.2248" y2="959.2248"/><text fill="#000000" font-family="sans-serif" font-size="13" lengthAdjust="spacing" textLength="21" x="504.5" y="934.4831">has</text><text fill="#000000" font-family="sans-serif" font-size="13" lengthAdjust="spacing" textLength="7" x="491.25" y="961.5847">1</text><text fill="#000000" font-family="sans-serif" font-size="13" lengthAdjust="spacing" textLength="7" x="496.0625" y="926.4578">1</text></g><!--link Participant to Permission--><g id="link_Participant_Permission"><path codeLine="55" d="M274,917.6848 C274,917.6848 274,959.2248 274,959.2248 " fill="none" id="Participant-Permission" style="stroke:#181818;stroke-width:1.0;"/><polygon fill="#181818" points="274,904.6848,270,910.6848,274,916.6848,278,910.6848,274,904.6848" style="stroke:#181818;stroke-width:1.0;"/><polygon fill="#181818" points="274,972.2248,278,963.2248,274,967.2248,270,963.2248,274,972.2248" style="stroke:#181818;stroke-width:1.0;"/><line style="stroke:#181818;stroke-width:1.0;" x1="274" x2="274" y1="967.2248" y2="959.2248"/><text fill="#000000" font-family="sans-serif" font-size="13" lengthAdjust="spacing" textLength="21" x="275" y="934.4831">has</text><text fill="#000000" font-family="sans-serif" font-size="13" lengthAdjust="spacing" textLength="7" x="266.2344" y="961.5847">1</text><text fill="#000000" font-family="sans-serif" font-size="13" lengthAdjust="spacing" textLength="7" x="266.2344" y="926.4578">1</text></g><!--link Owner to Permission--><g id="link_Owner_Permission"><path codeLine="56" d="M351.28,891.6348 C351.28,891.6348 350.5,891.6348 350.5,891.6348 C350.5,891.6348 350.5,986.6348 350.5,986.6348 C350.5,986.6348 341.78,986.6348 341.78,986.6348 " fill="none" id="Owner-Permission" style="stroke:#181818;stroke-width:1.0;"/><polygon fill="#181818" points="358.25,891.6348,352.25,887.6348,346.25,891.6348,352.25,895.6348,358.25,891.6348" style="stroke:#181818;stroke-width:1.0;"/><polygon fill="#181818" points="328.78,986.6348,337.78,990.6348,333.78,986.6348,337.78,982.6348,328.78,986.6348" style="stroke:#181818;stroke-width:1.0;"/><line style="stroke:#181818;stroke-width:1.0;" x1="333.78" x2="341.78" y1="986.6348" y2="986.6348"/><text fill="#000000" font-family="sans-serif" font-size="13" lengthAdjust="spacing" textLength="21" x="328.5" y="939.1331">has</text><text fill="#000000" font-family="sans-serif" font-size="13" lengthAdjust="spacing" textLength="7" x="343.5773" y="889.6838">1</text><text fill="#000000" font-family="sans-serif" font-size="13" lengthAdjust="spacing" textLength="7" x="336.6114" y="980.8888">1</text></g><!--link SharedBoard to History--><g id="link_SharedBoard_History"><path codeLine="57" d="M476,552.7648 C476,552.7648 476,635.6348 476,635.6348 C476,635.6348 513.42,635.6348 513.42,635.6348 " fill="none" id="SharedBoard-History" style="stroke:#181818;stroke-width:1.0;"/><polygon fill="#181818" points="476,539.7648,472,545.7648,476,551.7648,480,545.7648,476,539.7648" style="stroke:#181818;stroke-width:1.0;"/><polygon fill="#181818" points="526.42,635.6348,517.42,631.6348,521.42,635.6348,517.42,639.6348,526.42,635.6348" style="stroke:#181818;stroke-width:1.0;"/><line style="stroke:#181818;stroke-width:1.0;" x1="521.42" x2="513.42" y1="635.6348" y2="635.6348"/><text fill="#000000" font-family="sans-serif" font-size="13" lengthAdjust="spacing" textLength="21" x="454" y="608.9431">has</text><text fill="#000000" font-family="sans-serif" font-size="13" lengthAdjust="spacing" textLength="7" x="473.8984" y="561.2703">1</text><text fill="#000000" font-family="sans-serif" font-size="13" lengthAdjust="spacing" textLength="7" x="511.5891" y="631.2057">1</text></g><!--link History to History--><g id="link_History_History"><path codeLine="58" d="M550,608.3548 C550,606.6748 550,605.6348 550,605.6348 C550,605.6348 518.33,605.6348 518.33,605.6348 C518.33,605.6348 518.33,664.6348 518.33,664.6348 C518.33,664.6348 531.5,664.6348 531.5,664.6348 C531.5,664.6348 531.5,664.3648 531.5,664.3648 " fill="none" id="History-to-History" style="stroke:#181818;stroke-width:1.0;"/><polygon fill="#181818" points="531.5,661.9148,527.5,670.9148,531.5,666.9148,535.5,670.9148,531.5,661.9148" style="stroke:#181818;stroke-width:1.0;"/><text fill="#000000" font-family="sans-serif" font-size="13" lengthAdjust="spacing" textLength="40" x="472.33" y="644.6831">restore</text><text fill="#000000" font-family="sans-serif" font-size="13" lengthAdjust="spacing" textLength="7" x="538.9531" y="597.3066">1</text><text fill="#000000" font-family="sans-serif" font-size="13" lengthAdjust="spacing" textLength="22" x="500.5281" y="683.2927">0..1</text></g><!--link SharedBoard to View--><g id="link_SharedBoard_View"><path codeLine="59" d="M487.25,552.7848 C487.25,552.7848 487.25,602.6348 487.25,602.6348 C487.25,602.6348 641.22,602.6348 641.22,602.6348 " fill="none" id="SharedBoard-View" style="stroke:#181818;stroke-width:1.0;"/><polygon fill="#181818" points="487.25,539.7848,483.25,545.7848,487.25,551.7848,491.25,545.7848,487.25,539.7848" style="stroke:#181818;stroke-width:1.0;"/><polygon fill="#181818" points="654.22,602.6348,645.22,598.6348,649.22,602.6348,645.22,606.6348,654.22,602.6348" style="stroke:#181818;stroke-width:1.0;"/><line style="stroke:#181818;stroke-width:1.0;" x1="649.22" x2="641.22" y1="602.6348" y2="602.6348"/><text fill="#000000" font-family="sans-serif" font-size="13" lengthAdjust="spacing" textLength="21" x="517.31" y="598.6631">has</text><text fill="#000000" font-family="sans-serif" font-size="13" lengthAdjust="spacing" textLength="7" x="487.082" y="561.2938">1</text><text fill="#000000" font-family="sans-serif" font-size="13" lengthAdjust="spacing" textLength="7" x="639.4868" y="591.5999">1</text></g><!--link TeacherProfile to Profile--><g id="link_TeacherProfile_Profile"><path codeLine="78" d="M265,256.7948 C265,291.4648 265,347.6348 265,347.6348 C265,347.6348 387.78,347.6348 387.78,347.6348 " fill="none" id="TeacherProfile-to-Profile" style="stroke:#181818;stroke-width:1.0;"/><polygon fill="none" points="387.78,340.6348,407.78,347.6348,387.78,354.6348,387.78,340.6348" style="stroke:#181818;stroke-width:1.0;"/></g><!--link StudentProfile to Profile--><g id="link_StudentProfile_Profile"><path codeLine="79" d="M418.75,256.8648 C418.75,256.8648 418.75,304.5848 418.75,304.5848 " fill="none" id="StudentProfile-to-Profile" style="stroke:#181818;stroke-width:1.0;"/><polygon fill="none" points="425.75,304.5848,418.75,324.5848,411.75,304.5848,425.75,304.5848" style="stroke:#181818;stroke-width:1.0;"/></g><!--link ManagerProfile to Profile--><g id="link_ManagerProfile_Profile"><path codeLine="80" d="M784.68,260.6348 C677.7,260.6348 474.83,260.6348 474.83,260.6348 C474.83,260.6348 474.83,304.4048 474.83,304.4048 " fill="none" id="ManagerProfile-to-Profile" style="stroke:#181818;stroke-width:1.0;"/><polygon fill="none" points="481.83,304.4048,474.83,324.4048,467.83,304.4048,481.83,304.4048" style="stroke:#181818;stroke-width:1.0;"/></g><!--link TaxPayerNumber to Profile--><g id="link_TaxPayerNumber_Profile"><path codeLine="81" d="M641,269.6548 C641,269.6548 641,359.6348 641,359.6348 C641,359.6348 493.13,359.6348 493.13,359.6348 " fill="none" id="TaxPayerNumber-Profile" style="stroke:#181818;stroke-width:1.0;"/><polygon fill="#181818" points="641,256.6548,637,265.6548,641,261.6548,645,265.6548,641,256.6548" style="stroke:#181818;stroke-width:1.0;"/><line style="stroke:#181818;stroke-width:1.0;" x1="641" x2="641" y1="261.6548" y2="269.6548"/><polygon fill="#181818" points="480.13,359.6348,486.13,363.6348,492.13,359.6348,486.13,355.6348,480.13,359.6348" style="stroke:#181818;stroke-width:1.0;"/><text fill="#000000" font-family="sans-serif" font-size="13" lengthAdjust="spacing" textLength="21" x="590.06" y="355.6631">has</text><text fill="#000000" font-family="sans-serif" font-size="13" lengthAdjust="spacing" textLength="7" x="624.9219" y="278.4213">1</text><text fill="#000000" font-family="sans-serif" font-size="13" lengthAdjust="spacing" textLength="7" x="487.9322" y="355.1617">1</text></g><!--link DateOfBirth to Profile--><g id="link_DateOfBirth_Profile"><path codeLine="82" d="M469.67,269.8648 C469.67,269.8648 469.67,311.5848 469.67,311.5848 " fill="none" id="DateOfBirth-Profile" style="stroke:#181818;stroke-width:1.0;"/><polygon fill="#181818" points="469.67,256.8648,465.67,265.8648,469.67,261.8648,473.67,265.8648,469.67,256.8648" style="stroke:#181818;stroke-width:1.0;"/><line style="stroke:#181818;stroke-width:1.0;" x1="469.67" x2="469.67" y1="261.8648" y2="269.8648"/><polygon fill="#181818" points="469.67,324.5848,473.67,318.5848,469.67,312.5848,465.67,318.5848,469.67,324.5848" style="stroke:#181818;stroke-width:1.0;"/><text fill="#000000" font-family="sans-serif" font-size="13" lengthAdjust="spacing" textLength="21" x="470.67" y="286.7531">has</text><text fill="#000000" font-family="sans-serif" font-size="13" lengthAdjust="spacing" textLength="7" x="466.8962" y="313.478">1</text><text fill="#000000" font-family="sans-serif" font-size="13" lengthAdjust="spacing" textLength="7" x="451.7738" y="278.2324">1</text></g><!--link MechanographicNumber to StudentProfile--><g id="link_MechanographicNumber_StudentProfile"><path codeLine="83" d="M370.25,148.6848 C370.25,148.6848 370.25,190.2248 370.25,190.2248 " fill="none" id="MechanographicNumber-StudentProfile" style="stroke:#181818;stroke-width:1.0;"/><polygon fill="#181818" points="370.25,135.6848,366.25,144.6848,370.25,140.6848,374.25,144.6848,370.25,135.6848" style="stroke:#181818;stroke-width:1.0;"/><line style="stroke:#181818;stroke-width:1.0;" x1="370.25" x2="370.25" y1="140.6848" y2="148.6848"/><polygon fill="#181818" points="370.25,203.2248,374.25,197.2248,370.25,191.2248,366.25,197.2248,370.25,203.2248" style="stroke:#181818;stroke-width:1.0;"/><text fill="#000000" font-family="sans-serif" font-size="13" lengthAdjust="spacing" textLength="21" x="371.25" y="165.4831">has</text><text fill="#000000" font-family="sans-serif" font-size="13" lengthAdjust="spacing" textLength="7" x="362.7578" y="192.5847">1</text><text fill="#000000" font-family="sans-serif" font-size="13" lengthAdjust="spacing" textLength="7" x="355.1016" y="157.4578">1</text></g><!--link Acronym to TeacherProfile--><g id="link_Acronym_TeacherProfile"><path codeLine="84" d="M220,148.6848 C220,148.6848 220,190.2248 220,190.2248 " fill="none" id="Acronym-TeacherProfile" style="stroke:#181818;stroke-width:1.0;"/><polygon fill="#181818" points="220,135.6848,216,144.6848,220,140.6848,224,144.6848,220,135.6848" style="stroke:#181818;stroke-width:1.0;"/><line style="stroke:#181818;stroke-width:1.0;" x1="220" x2="220" y1="140.6848" y2="148.6848"/><polygon fill="#181818" points="220,203.2248,224,197.2248,220,191.2248,216,197.2248,220,203.2248" style="stroke:#181818;stroke-width:1.0;"/><text fill="#000000" font-family="sans-serif" font-size="13" lengthAdjust="spacing" textLength="21" x="221" y="165.4831">has</text><text fill="#000000" font-family="sans-serif" font-size="13" lengthAdjust="spacing" textLength="7" x="214.2031" y="192.5847">1</text><text fill="#000000" font-family="sans-serif" font-size="13" lengthAdjust="spacing" textLength="7" x="212.0156" y="157.4578">1</text></g><!--link Schedule to Profile--><g id="link_Schedule_Profile"><path codeLine="85" d="M68,269.8948 C68,269.8948 68,370.6348 68,370.6348 C68,370.6348 394.95,370.6348 394.95,370.6348 " fill="none" id="Schedule-Profile" style="stroke:#181818;stroke-width:1.0;"/><polygon fill="#181818" points="68,256.8948,64,265.8948,68,261.8948,72,265.8948,68,256.8948" style="stroke:#181818;stroke-width:1.0;"/><line style="stroke:#181818;stroke-width:1.0;" x1="68" x2="68" y1="261.8948" y2="269.8948"/><polygon fill="#181818" points="407.95,370.6348,401.95,366.6348,395.95,370.6348,401.95,374.6348,407.95,370.6348" style="stroke:#181818;stroke-width:1.0;"/><text fill="#000000" font-family="sans-serif" font-size="13" lengthAdjust="spacing" textLength="21" x="159.1" y="366.6631">has</text><text fill="#000000" font-family="sans-serif" font-size="13" lengthAdjust="spacing" textLength="7" x="60.2781" y="278.2686">1</text><text fill="#000000" font-family="sans-serif" font-size="13" lengthAdjust="spacing" textLength="7" x="392.7928" y="368.359">1</text></g><!--link ProfileDay to Schedule--><g id="link_ProfileDay_Schedule"><path codeLine="86" d="M68,148.6848 C68,148.6848 68,190.2248 68,190.2248 " fill="none" id="ProfileDay-Schedule" style="stroke:#181818;stroke-width:1.0;"/><polygon fill="#181818" points="68,135.6848,64,144.6848,68,140.6848,72,144.6848,68,135.6848" style="stroke:#181818;stroke-width:1.0;"/><line style="stroke:#181818;stroke-width:1.0;" x1="68" x2="68" y1="140.6848" y2="148.6848"/><polygon fill="#181818" points="68,203.2248,72,197.2248,68,191.2248,64,197.2248,68,203.2248" style="stroke:#181818;stroke-width:1.0;"/><text fill="#000000" font-family="sans-serif" font-size="13" lengthAdjust="spacing" textLength="21" x="69" y="165.4831">has</text><text fill="#000000" font-family="sans-serif" font-size="13" lengthAdjust="spacing" textLength="20" x="45.8125" y="192.5847">1..*</text><text fill="#000000" font-family="sans-serif" font-size="13" lengthAdjust="spacing" textLength="7" x="58.2656" y="157.4578">1</text></g><!--link Profile to SharedBoard--><g id="link_Profile_SharedBoard"><path codeLine="89" d="M444,406.7348 C444,406.7348 444,457.5348 444,457.5348 " fill="none" id="Profile-SharedBoard" style="stroke:#181818;stroke-width:1.0;"/><polygon fill="#181818" points="444,393.7348,440,399.7348,444,405.7348,448,399.7348,444,393.7348" style="stroke:#181818;stroke-width:1.0;"/><polygon fill="#181818" points="444,470.5348,448,461.5348,444,465.5348,440,461.5348,444,470.5348" style="stroke:#181818;stroke-width:1.0;"/><line style="stroke:#181818;stroke-width:1.0;" x1="444" x2="444" y1="465.5348" y2="457.5348"/><text fill="#000000" font-family="sans-serif" font-size="13" lengthAdjust="spacing" textLength="21" x="422" y="428.1631">has</text><text fill="#000000" font-family="sans-serif" font-size="13" lengthAdjust="spacing" textLength="7" x="436.3328" y="459.4184">1</text><text fill="#000000" font-family="sans-serif" font-size="13" lengthAdjust="spacing" textLength="5" x="438.5703" y="415.2352">*</text></g><!--SRC=[bPRTRvim4C3V-Iii-h958retLLeZ56bjLEsbJRLqVNV0W5V0p3PjKTV_lMS3nUOZD7b8Wkztv_DzcOI616L49YmKZYCUQ5vWZZDKuE01nsGdgvGWJWA9ypWb1f3IdCYg88XnK7OSoGea6TepALc6GgfqACj1G2MOsB0CqnnjE7qay4C4ZK7cDDiWr_Tn77CIOqdMQxHBC2VX1SCyT97lNx4q91pMJp3UxuC0lJW88PA3wSfa0UMCIG1zlvQkro-l1gkfIvP7DBOHnRJGzYadV62XbTvYBcb02vpB8HEaM0ZatgaZkmWBqpcz22gVxh-SNFpuTdPszHazuhI42Ex_Gh2qrsLE_vKg0fR1t-p9sCkMNRAqpF9fCKdJ4M5x62OcJw5aaAU0qq8bKft6DPxTmqUnJH6UKI6KbOyhtK5nRQF6mtcbvaI_g92CLrE7kgVawM2iTX8gy0WlZGGVgwfzqPNSVgueL4W4NtgngSe_0ghHFNMHvwtrRrsVAqG5mkE4MQC6LokQuC3x5GeIw7GYj8BPMWfVz5r8y0neUpABc_tPuUPgXozStHSQGnb-FemsRMBJutueMdLDvu3QHybPwsSZXqae4OiqqsmmXxMc5YCfg2T4jwrXyYFuP5H7idoCJdyVCwTMr7IlhY2w3qtzT0KtpUW5ksPwWyVOUS0QGyA8cmhxmEH1e6lzkNCgQzquw-Z-MQUuoOYtawj3svNtZlswN5eW9-eVEMnNZvanFprkHyVi_FxPlN7KUPsymcyvKvFClhxFp_VVeyYwlXjkukesxmE2WuJmZXyVuZjPXY2Pmwvn3awFMVFzcp9Dj-Dt4dw-nHNXDsMsr-y87vtr6mZADhgWyAvqXDOrKO5cCST5GeEZD_qPS9PNsJ6t6KGuB0-4pTtWIh_OD863nrdpMhsNFS_x_ruYTVdQQHl8U_aQo7kPKRNgUzwYBjf6gMi2Cnqpw6WEB9sUwvrg6t-BxWN260njx6SSCYBldYwN2zEJraHDG-XRTMi6cwEY9jy0]--></g></svg>