<?xml version="1.0" encoding="UTF-8" standalone="no"?><svg xmlns="http://www.w3.org/2000/svg" xmlns:xlink="http://www.w3.org/1999/xlink" contentStyleType="text/css" height="294px" preserveAspectRatio="none" style="width:271px;height:294px;background:#FFFFFF;" version="1.1" viewBox="0 0 271 294" width="271px" zoomAndPan="magnify"><defs/><g><rect fill="#FFFFFF" height="106.0938" style="stroke:#181818;stroke-width:1.0;" width="10" x="31" y="90.6406"/><rect fill="#FFFFFF" height="28.5234" style="stroke:#181818;stroke-width:1.0;" width="10" x="237" y="111.1641"/><rect fill="#FFFFFF" height="28.5234" style="stroke:#181818;stroke-width:1.0;" width="10" x="237" y="168.2109"/><line style="stroke:#181818;stroke-width:0.5;stroke-dasharray:5.0,5.0;" x1="36" x2="36" y1="80.6406" y2="214.7344"/><line style="stroke:#181818;stroke-width:0.5;stroke-dasharray:5.0,5.0;" x1="242" x2="242" y1="80.6406" y2="214.7344"/><text fill="#000000" font-family="sans-serif" font-size="14" lengthAdjust="spacing" textLength="56" x="5" y="77.6738">Manager</text><ellipse cx="36" cy="13.5" fill="#E2E2F0" rx="8" ry="8" style="stroke:#181818;stroke-width:0.5;"/><path d="M36,21.5 L36,48.5 M23,29.5 L49,29.5 M36,48.5 L23,63.5 M36,48.5 L49,63.5 " fill="none" style="stroke:#181818;stroke-width:0.5;"/><text fill="#000000" font-family="sans-serif" font-size="14" lengthAdjust="spacing" textLength="56" x="5" y="226.4082">Manager</text><ellipse cx="36" cy="237.875" fill="#E2E2F0" rx="8" ry="8" style="stroke:#181818;stroke-width:0.5;"/><path d="M36,245.875 L36,272.875 M23,253.875 L49,253.875 M36,272.875 L23,287.875 M36,272.875 L49,287.875 " fill="none" style="stroke:#181818;stroke-width:0.5;"/><text fill="#000000" font-family="sans-serif" font-size="14" lengthAdjust="spacing" textLength="50" x="214" y="77.6738">:System</text><ellipse cx="242" cy="13.5" fill="#E2E2F0" rx="8" ry="8" style="stroke:#181818;stroke-width:0.5;"/><path d="M242,21.5 L242,48.5 M229,29.5 L255,29.5 M242,48.5 L229,63.5 M242,48.5 L255,63.5 " fill="none" style="stroke:#181818;stroke-width:0.5;"/><text fill="#000000" font-family="sans-serif" font-size="14" lengthAdjust="spacing" textLength="50" x="214" y="226.4082">:System</text><ellipse cx="242" cy="237.875" fill="#E2E2F0" rx="8" ry="8" style="stroke:#181818;stroke-width:0.5;"/><path d="M242,245.875 L242,272.875 M229,253.875 L255,253.875 M242,272.875 L229,287.875 M242,272.875 L255,287.875 " fill="none" style="stroke:#181818;stroke-width:0.5;"/><rect fill="#FFFFFF" height="106.0938" style="stroke:#181818;stroke-width:1.0;" width="10" x="31" y="90.6406"/><rect fill="#FFFFFF" height="28.5234" style="stroke:#181818;stroke-width:1.0;" width="10" x="237" y="111.1641"/><rect fill="#FFFFFF" height="28.5234" style="stroke:#181818;stroke-width:1.0;" width="10" x="237" y="168.2109"/><polygon fill="#181818" points="225,107.1641,235,111.1641,225,115.1641,229,111.1641" style="stroke:#181818;stroke-width:1.0;"/><line style="stroke:#181818;stroke-width:1.0;" x1="41" x2="231" y1="111.1641" y2="111.1641"/><text fill="#000000" font-family="sans-serif" font-size="13" font-weight="bold" lengthAdjust="spacing" textLength="7" x="48" y="106.4092">1</text><text fill="#000000" font-family="sans-serif" font-size="13" lengthAdjust="spacing" textLength="166" x="59" y="106.4092">Accept students enrollments</text><polygon fill="#181818" points="52,135.6875,42,139.6875,52,143.6875,48,139.6875" style="stroke:#181818;stroke-width:1.0;"/><line style="stroke:#181818;stroke-width:1.0;stroke-dasharray:2.0,2.0;" x1="46" x2="241" y1="139.6875" y2="139.6875"/><text fill="#000000" font-family="sans-serif" font-size="13" font-weight="bold" lengthAdjust="spacing" textLength="7" x="58" y="134.9326">2</text><text fill="#000000" font-family="sans-serif" font-size="13" lengthAdjust="spacing" textLength="125" x="69" y="134.9326">Request data (status)</text><polygon fill="#181818" points="225,164.2109,235,168.2109,225,172.2109,229,168.2109" style="stroke:#181818;stroke-width:1.0;"/><line style="stroke:#181818;stroke-width:1.0;" x1="41" x2="231" y1="168.2109" y2="168.2109"/><text fill="#000000" font-family="sans-serif" font-size="13" font-weight="bold" lengthAdjust="spacing" textLength="7" x="48" y="163.4561">3</text><text fill="#000000" font-family="sans-serif" font-size="13" lengthAdjust="spacing" textLength="64" x="59" y="163.4561">Inputs data</text><polygon fill="#181818" points="47,192.7344,37,196.7344,47,200.7344,43,196.7344" style="stroke:#181818;stroke-width:1.0;"/><line style="stroke:#181818;stroke-width:1.0;stroke-dasharray:2.0,2.0;" x1="41" x2="241" y1="196.7344" y2="196.7344"/><text fill="#000000" font-family="sans-serif" font-size="13" font-weight="bold" lengthAdjust="spacing" textLength="7" x="53" y="191.9795">4</text><text fill="#000000" font-family="sans-serif" font-size="13" lengthAdjust="spacing" textLength="104" x="64" y="191.9795">Confirm acception</text><!--MD5=[cd3e217b6193efd7defc37240b5a0aac]
@startuml

autonumber
actor "Manager" as MNG
actor ":System" as SYS

activate MNG
MNG -> SYS : Accept students enrollments
activate SYS
SYS - -> MNG : Request data (status)
deactivate SYS
MNG -> SYS : Inputs data
activate SYS
SYS - -> MNG : Confirm acception
deactivate SYS
deactivate MNG


@enduml

PlantUML version 1.2022.12(Sun Oct 23 19:12:26 WEST 2022)
(GPL source distribution)
Java Runtime: OpenJDK Runtime Environment
JVM: OpenJDK 64-Bit Server VM
Default Encoding: Cp1252
Language: pt
Country: PT
--></g></svg>