<?xml version="1.0" encoding="UTF-8" standalone="no"?><svg xmlns="http://www.w3.org/2000/svg" xmlns:xlink="http://www.w3.org/1999/xlink" contentStyleType="text/css" height="440.4px" preserveAspectRatio="none" style="width:912px;height:440px;background:#FFFFFF;" version="1.1" viewBox="0 0 912 440" width="912.4px" zoomAndPan="magnify"><defs/><g><rect fill="#FFFFFF" height="362.6438" style="stroke:#181818;stroke-width:0.4000000000000001;" width="4" x="17.8" y="36.9125"/><rect fill="#FFFFFF" height="22.8188" style="stroke:#181818;stroke-width:0.4000000000000001;" width="4" x="105.4" y="45.1219"/><rect fill="#FFFFFF" height="11.4094" style="stroke:#181818;stroke-width:0.4000000000000001;" width="4" x="165.8" y="56.5313"/><rect fill="#FFFFFF" height="331.6156" style="stroke:#181818;stroke-width:0.4000000000000001;" width="4" x="235.6" y="67.9406"/><rect fill="#FFFFFF" height="170.9125" style="stroke:#181818;stroke-width:0.4000000000000001;" width="4" x="235.6" y="67.9406"/><rect fill="#FFFFFF" height="148.8938" style="stroke:#181818;stroke-width:0.4000000000000001;" width="4" x="235.6" y="250.2625"/><rect fill="#FFFFFF" height="69.6375" style="stroke:#181818;stroke-width:0.4000000000000001;" width="4" x="380.4" y="261.6719"/><rect fill="#FFFFFF" height="83.4469" style="stroke:#181818;stroke-width:0.4000000000000001;" width="4" x="449" y="79.35"/><rect fill="#FFFFFF" height="58.2281" style="stroke:#181818;stroke-width:0.4000000000000001;" width="4" x="514.6" y="273.0813"/><rect fill="#FFFFFF" height="72.0375" style="stroke:#181818;stroke-width:0.4000000000000001;" width="4" x="577.2" y="90.7594"/><rect fill="#FFFFFF" height="37.2188" style="stroke:#181818;stroke-width:0.4000000000000001;" width="4" x="681.6" y="102.1688"/><rect fill="#FFFFFF" height="23.4094" style="stroke:#181818;stroke-width:0.4000000000000001;" width="4" x="681.6" y="284.4906"/><rect fill="#FFFFFF" height="12" style="stroke:#181818;stroke-width:0.4000000000000001;" width="4" x="748.4" y="127.3875"/><rect fill="#FFFFFF" height="12" style="stroke:#181818;stroke-width:0.4000000000000001;" width="4" x="748.4" y="295.9"/><rect fill="#FFFFFF" height="12" style="stroke:#181818;stroke-width:0.4000000000000001;" width="4" x="800.8" y="319.3094"/><rect fill="#FFFFFF" height="12" style="stroke:#181818;stroke-width:0.4000000000000001;" width="4" x="868.6" y="150.7969"/><rect fill="none" height="35.4281" style="stroke:#000000;stroke-width:0.6000000000000001;" width="191.6" x="198.4" y="168.7969"/><rect fill="none" height="23.2188" style="stroke:#000000;stroke-width:0.6000000000000001;" width="183.6" x="202.4" y="178.2063"/><rect fill="none" height="18.0188" style="stroke:#000000;stroke-width:0.6000000000000001;" width="264.8" x="4" y="209.825"/><rect fill="none" height="35.4281" style="stroke:#000000;stroke-width:0.6000000000000001;" width="138.4" x="198.4" y="337.3094"/><rect fill="none" height="23.2188" style="stroke:#000000;stroke-width:0.6000000000000001;" width="130.4" x="202.4" y="346.7188"/><rect fill="none" height="18.0188" style="stroke:#000000;stroke-width:0.6000000000000001;" width="264.8" x="4" y="378.3375"/><line style="stroke:#181818;stroke-width:0.20000000000000004;stroke-dasharray:5.0,5.0;" x1="19.6" x2="19.6" y1="32.9125" y2="403.1563"/><line style="stroke:#181818;stroke-width:0.20000000000000004;stroke-dasharray:5.0,5.0;" x1="107.2" x2="107.2" y1="32.9125" y2="403.1563"/><line style="stroke:#181818;stroke-width:0.20000000000000004;stroke-dasharray:5.0,5.0;" x1="167.6" x2="167.6" y1="32.9125" y2="403.1563"/><line style="stroke:#181818;stroke-width:0.20000000000000004;stroke-dasharray:5.0,5.0;" x1="235.6" x2="235.6" y1="32.9125" y2="403.1563"/><line style="stroke:#181818;stroke-width:0.20000000000000004;stroke-dasharray:5.0,5.0;" x1="382.4" x2="382.4" y1="32.9125" y2="403.1563"/><line style="stroke:#181818;stroke-width:0.20000000000000004;stroke-dasharray:5.0,5.0;" x1="450.8" x2="450.8" y1="32.9125" y2="403.1563"/><line style="stroke:#181818;stroke-width:0.20000000000000004;stroke-dasharray:5.0,5.0;" x1="516.4" x2="516.4" y1="32.9125" y2="403.1563"/><line style="stroke:#181818;stroke-width:0.20000000000000004;stroke-dasharray:5.0,5.0;" x1="579.2" x2="579.2" y1="32.9125" y2="403.1563"/><line style="stroke:#181818;stroke-width:0.20000000000000004;stroke-dasharray:5.0,5.0;" x1="637.2" x2="637.2" y1="32.9125" y2="403.1563"/><line style="stroke:#181818;stroke-width:0.20000000000000004;stroke-dasharray:5.0,5.0;" x1="683.6" x2="683.6" y1="32.9125" y2="403.1563"/><line style="stroke:#181818;stroke-width:0.20000000000000004;stroke-dasharray:5.0,5.0;" x1="750.4" x2="750.4" y1="32.9125" y2="403.1563"/><line style="stroke:#181818;stroke-width:0.20000000000000004;stroke-dasharray:5.0,5.0;" x1="802.8" x2="802.8" y1="32.9125" y2="403.1563"/><line style="stroke:#181818;stroke-width:0.20000000000000004;stroke-dasharray:5.0,5.0;" x1="870.4" x2="870.4" y1="32.9125" y2="403.1563"/><text fill="#000000" font-family="sans-serif" font-size="5.6" lengthAdjust="spacing" textLength="21.2" x="8" y="31.7258">Teacher</text><ellipse cx="19.8" cy="6.0563" fill="#E2E2F0" rx="3.2" ry="3.2" style="stroke:#181818;stroke-width:0.20000000000000004;"/><path d="M19.8,9.2563 L19.8,20.0563 M14.6,12.4563 L25,12.4563 M19.8,20.0563 L14.6,26.0563 M19.8,20.0563 L25,26.0563 " fill="none" style="stroke:#181818;stroke-width:0.20000000000000004;"/><text fill="#000000" font-family="sans-serif" font-size="5.6" lengthAdjust="spacing" textLength="21.2" x="8" y="407.8258">Teacher</text><ellipse cx="19.8" cy="412.4125" fill="#E2E2F0" rx="3.2" ry="3.2" style="stroke:#181818;stroke-width:0.20000000000000004;"/><path d="M19.8,415.6125 L19.8,426.4125 M14.6,418.8125 L25,418.8125 M19.8,426.4125 L14.6,432.4125 M19.8,426.4125 L25,432.4125 " fill="none" style="stroke:#181818;stroke-width:0.20000000000000004;"/><rect fill="#E2E2F0" height="18.1125" rx="1" ry="1" style="stroke:#181818;stroke-width:0.20000000000000004;" width="43.6" x="85.6" y="14.4"/><text fill="#000000" font-family="sans-serif" font-size="5.6" font-style="italic" lengthAdjust="spacing" textLength="38" x="88.4" y="22.2695">«presentation»</text><text fill="#000000" font-family="sans-serif" font-size="5.6" lengthAdjust="spacing" textLength="27.6" x="93.6" y="28.5258">:CoursesUi</text><rect fill="#E2E2F0" height="18.1125" rx="1" ry="1" style="stroke:#181818;stroke-width:0.20000000000000004;" width="43.6" x="85.6" y="402.7563"/><text fill="#000000" font-family="sans-serif" font-size="5.6" font-style="italic" lengthAdjust="spacing" textLength="38" x="88.4" y="410.6258">«presentation»</text><text fill="#000000" font-family="sans-serif" font-size="5.6" lengthAdjust="spacing" textLength="27.6" x="93.6" y="416.882">:CoursesUi</text><rect fill="#E2E2F0" height="18.1125" rx="1" ry="1" style="stroke:#181818;stroke-width:0.20000000000000004;" width="69.2" x="133.2" y="14.4"/><text fill="#000000" font-family="sans-serif" font-size="5.6" font-style="italic" lengthAdjust="spacing" textLength="33.6" x="151" y="22.2695">«application»</text><text fill="#000000" font-family="sans-serif" font-size="5.6" lengthAdjust="spacing" textLength="63.6" x="136" y="28.5258">:ViewCoursesExamAction</text><rect fill="#E2E2F0" height="18.1125" rx="1" ry="1" style="stroke:#181818;stroke-width:0.20000000000000004;" width="69.2" x="133.2" y="402.7563"/><text fill="#000000" font-family="sans-serif" font-size="5.6" font-style="italic" lengthAdjust="spacing" textLength="33.6" x="151" y="410.6258">«application»</text><text fill="#000000" font-family="sans-serif" font-size="5.6" lengthAdjust="spacing" textLength="63.6" x="136" y="416.882">:ViewCoursesExamAction</text><rect fill="#E2E2F0" height="18.1125" rx="1" ry="1" style="stroke:#181818;stroke-width:0.20000000000000004;" width="58.4" x="206.4" y="14.4"/><text fill="#000000" font-family="sans-serif" font-size="5.6" font-style="italic" lengthAdjust="spacing" textLength="38" x="216.6" y="22.2695">«presentation»</text><text fill="#000000" font-family="sans-serif" font-size="5.6" lengthAdjust="spacing" textLength="52.8" x="209.2" y="28.5258">:ViewCoursesExamUi</text><rect fill="#E2E2F0" height="18.1125" rx="1" ry="1" style="stroke:#181818;stroke-width:0.20000000000000004;" width="58.4" x="206.4" y="402.7563"/><text fill="#000000" font-family="sans-serif" font-size="5.6" font-style="italic" lengthAdjust="spacing" textLength="38" x="216.6" y="410.6258">«presentation»</text><text fill="#000000" font-family="sans-serif" font-size="5.6" lengthAdjust="spacing" textLength="52.8" x="209.2" y="416.882">:ViewCoursesExamUi</text><rect fill="#E2E2F0" height="18.1125" rx="1" ry="1" style="stroke:#181818;stroke-width:0.20000000000000004;" width="45.6" x="359.6" y="14.4"/><text fill="#000000" font-family="sans-serif" font-size="5.6" font-style="italic" lengthAdjust="spacing" textLength="33.6" x="365.6" y="22.2695">«application»</text><text fill="#000000" font-family="sans-serif" font-size="5.6" lengthAdjust="spacing" textLength="40" x="362.4" y="28.5258">:ExamController</text><rect fill="#E2E2F0" height="18.1125" rx="1" ry="1" style="stroke:#181818;stroke-width:0.20000000000000004;" width="45.6" x="359.6" y="402.7563"/><text fill="#000000" font-family="sans-serif" font-size="5.6" font-style="italic" lengthAdjust="spacing" textLength="33.6" x="365.6" y="410.6258">«application»</text><text fill="#000000" font-family="sans-serif" font-size="5.6" lengthAdjust="spacing" textLength="40" x="362.4" y="416.882">:ExamController</text><rect fill="#E2E2F0" height="18.1125" rx="1" ry="1" style="stroke:#181818;stroke-width:0.20000000000000004;" width="83.6" x="409.2" y="14.4"/><text fill="#000000" font-family="sans-serif" font-size="5.6" font-style="italic" lengthAdjust="spacing" textLength="33.6" x="434.2" y="22.2695">«application»</text><text fill="#000000" font-family="sans-serif" font-size="5.6" lengthAdjust="spacing" textLength="78" x="412" y="28.5258">:TeacherRegistrationController</text><rect fill="#E2E2F0" height="18.1125" rx="1" ry="1" style="stroke:#181818;stroke-width:0.20000000000000004;" width="83.6" x="409.2" y="402.7563"/><text fill="#000000" font-family="sans-serif" font-size="5.6" font-style="italic" lengthAdjust="spacing" textLength="33.6" x="434.2" y="410.6258">«application»</text><text fill="#000000" font-family="sans-serif" font-size="5.6" lengthAdjust="spacing" textLength="78" x="412" y="416.882">:TeacherRegistrationController</text><rect fill="#E2E2F0" height="18.1125" rx="1" ry="1" style="stroke:#181818;stroke-width:0.20000000000000004;" width="39.6" x="496.8" y="14.4"/><text fill="#000000" font-family="sans-serif" font-size="5.6" font-style="italic" lengthAdjust="spacing" textLength="33.6" x="499.8" y="22.2695">«application»</text><text fill="#000000" font-family="sans-serif" font-size="5.6" lengthAdjust="spacing" textLength="34" x="499.6" y="28.5258">:ExamService</text><rect fill="#E2E2F0" height="18.1125" rx="1" ry="1" style="stroke:#181818;stroke-width:0.20000000000000004;" width="39.6" x="496.8" y="402.7563"/><text fill="#000000" font-family="sans-serif" font-size="5.6" font-style="italic" lengthAdjust="spacing" textLength="33.6" x="499.8" y="410.6258">«application»</text><text fill="#000000" font-family="sans-serif" font-size="5.6" lengthAdjust="spacing" textLength="34" x="499.6" y="416.882">:ExamService</text><rect fill="#E2E2F0" height="18.1125" rx="1" ry="1" style="stroke:#181818;stroke-width:0.20000000000000004;" width="77.6" x="540.4" y="14.4"/><text fill="#000000" font-family="sans-serif" font-size="5.6" font-style="italic" lengthAdjust="spacing" textLength="33.6" x="562.4" y="22.2695">«application»</text><text fill="#000000" font-family="sans-serif" font-size="5.6" lengthAdjust="spacing" textLength="72" x="543.2" y="28.5258">:TeacherRegistrationService</text><rect fill="#E2E2F0" height="18.1125" rx="1" ry="1" style="stroke:#181818;stroke-width:0.20000000000000004;" width="77.6" x="540.4" y="402.7563"/><text fill="#000000" font-family="sans-serif" font-size="5.6" font-style="italic" lengthAdjust="spacing" textLength="33.6" x="562.4" y="410.6258">«application»</text><text fill="#000000" font-family="sans-serif" font-size="5.6" lengthAdjust="spacing" textLength="72" x="543.2" y="416.882">:TeacherRegistrationService</text><rect fill="#E2E2F0" height="18.1125" rx="1" ry="1" style="stroke:#181818;stroke-width:0.20000000000000004;" width="30.4" x="622" y="14.4"/><text fill="#000000" font-family="sans-serif" font-size="5.6" font-style="italic" lengthAdjust="spacing" textLength="24.8" x="624.8" y="22.2695">«domain»</text><text fill="#000000" font-family="sans-serif" font-size="5.6" lengthAdjust="spacing" textLength="13.6" x="630.4" y="28.5258">Exam</text><rect fill="#E2E2F0" height="18.1125" rx="1" ry="1" style="stroke:#181818;stroke-width:0.20000000000000004;" width="30.4" x="622" y="402.7563"/><text fill="#000000" font-family="sans-serif" font-size="5.6" font-style="italic" lengthAdjust="spacing" textLength="24.8" x="624.8" y="410.6258">«domain»</text><text fill="#000000" font-family="sans-serif" font-size="5.6" lengthAdjust="spacing" textLength="13.6" x="630.4" y="416.882">Exam</text><rect fill="#E2E2F0" height="11.8563" rx="1" ry="1" style="stroke:#181818;stroke-width:0.20000000000000004;" width="54.4" x="656.4" y="20.6563"/><text fill="#000000" font-family="sans-serif" font-size="5.6" lengthAdjust="spacing" textLength="48.8" x="659.2" y="28.5258">PersistenceContext</text><rect fill="#E2E2F0" height="11.8563" rx="1" ry="1" style="stroke:#181818;stroke-width:0.20000000000000004;" width="54.4" x="656.4" y="402.7563"/><text fill="#000000" font-family="sans-serif" font-size="5.6" lengthAdjust="spacing" textLength="48.8" x="659.2" y="410.6258">PersistenceContext</text><rect fill="#E2E2F0" height="11.8563" rx="1" ry="1" style="stroke:#181818;stroke-width:0.20000000000000004;" width="52" x="724.4" y="20.6563"/><text fill="#000000" font-family="sans-serif" font-size="5.6" lengthAdjust="spacing" textLength="46.4" x="727.2" y="28.5258">RepositoryFactory</text><rect fill="#E2E2F0" height="11.8563" rx="1" ry="1" style="stroke:#181818;stroke-width:0.20000000000000004;" width="52" x="724.4" y="402.7563"/><text fill="#000000" font-family="sans-serif" font-size="5.6" lengthAdjust="spacing" textLength="46.4" x="727.2" y="410.6258">RepositoryFactory</text><text fill="#000000" font-family="sans-serif" font-size="5.6" font-style="italic" lengthAdjust="spacing" textLength="31.6" x="785.8" y="25.4695">«repository»</text><text fill="#000000" font-family="sans-serif" font-size="5.6" lengthAdjust="spacing" textLength="42.4" x="780.4" y="31.7258">:ExamRepository</text><path d="M795.6,6 C795.6,2 802.8,2 802.8,2 C802.8,2 810,2 810,6 L810,16.4 C810,20.4 802.8,20.4 802.8,20.4 C802.8,20.4 795.6,20.4 795.6,16.4 L795.6,6 " fill="#E2E2F0" style="stroke:#181818;stroke-width:0.6000000000000001;"/><path d="M795.6,6 C795.6,10 802.8,10 802.8,10 C802.8,10 810,10 810,6 " fill="none" style="stroke:#181818;stroke-width:0.6000000000000001;"/><text fill="#000000" font-family="sans-serif" font-size="5.6" font-style="italic" lengthAdjust="spacing" textLength="31.6" x="785.8" y="407.8258">«repository»</text><text fill="#000000" font-family="sans-serif" font-size="5.6" lengthAdjust="spacing" textLength="42.4" x="780.4" y="414.082">:ExamRepository</text><path d="M795.6,419.2688 C795.6,415.2688 802.8,415.2688 802.8,415.2688 C802.8,415.2688 810,415.2688 810,419.2688 L810,429.6688 C810,433.6688 802.8,433.6688 802.8,433.6688 C802.8,433.6688 795.6,433.6688 795.6,429.6688 L795.6,419.2688 " fill="#E2E2F0" style="stroke:#181818;stroke-width:0.6000000000000001;"/><path d="M795.6,419.2688 C795.6,423.2688 802.8,423.2688 802.8,423.2688 C802.8,423.2688 810,423.2688 810,419.2688 " fill="none" style="stroke:#181818;stroke-width:0.6000000000000001;"/><text fill="#000000" font-family="sans-serif" font-size="5.6" font-style="italic" lengthAdjust="spacing" textLength="31.6" x="853.6" y="25.4695">«repository»</text><text fill="#000000" font-family="sans-serif" font-size="5.6" lengthAdjust="spacing" textLength="80.4" x="829.2" y="31.7258">:TeacherRegistrationRepository</text><path d="M863.4,6 C863.4,2 870.6,2 870.6,2 C870.6,2 877.8,2 877.8,6 L877.8,16.4 C877.8,20.4 870.6,20.4 870.6,20.4 C870.6,20.4 863.4,20.4 863.4,16.4 L863.4,6 " fill="#E2E2F0" style="stroke:#181818;stroke-width:0.6000000000000001;"/><path d="M863.4,6 C863.4,10 870.6,10 870.6,10 C870.6,10 877.8,10 877.8,6 " fill="none" style="stroke:#181818;stroke-width:0.6000000000000001;"/><text fill="#000000" font-family="sans-serif" font-size="5.6" font-style="italic" lengthAdjust="spacing" textLength="31.6" x="853.6" y="407.8258">«repository»</text><text fill="#000000" font-family="sans-serif" font-size="5.6" lengthAdjust="spacing" textLength="80.4" x="829.2" y="414.082">:TeacherRegistrationRepository</text><path d="M863.4,419.2688 C863.4,415.2688 870.6,415.2688 870.6,415.2688 C870.6,415.2688 877.8,415.2688 877.8,419.2688 L877.8,429.6688 C877.8,433.6688 870.6,433.6688 870.6,433.6688 C870.6,433.6688 863.4,433.6688 863.4,429.6688 L863.4,419.2688 " fill="#E2E2F0" style="stroke:#181818;stroke-width:0.6000000000000001;"/><path d="M863.4,419.2688 C863.4,423.2688 870.6,423.2688 870.6,423.2688 C870.6,423.2688 877.8,423.2688 877.8,419.2688 " fill="none" style="stroke:#181818;stroke-width:0.6000000000000001;"/><rect fill="#FFFFFF" height="362.6438" style="stroke:#181818;stroke-width:0.4000000000000001;" width="4" x="17.8" y="36.9125"/><rect fill="#FFFFFF" height="22.8188" style="stroke:#181818;stroke-width:0.4000000000000001;" width="4" x="105.4" y="45.1219"/><rect fill="#FFFFFF" height="11.4094" style="stroke:#181818;stroke-width:0.4000000000000001;" width="4" x="165.8" y="56.5313"/><rect fill="#FFFFFF" height="331.6156" style="stroke:#181818;stroke-width:0.4000000000000001;" width="4" x="235.6" y="67.9406"/><rect fill="#FFFFFF" height="170.9125" style="stroke:#181818;stroke-width:0.4000000000000001;" width="4" x="235.6" y="67.9406"/><rect fill="#FFFFFF" height="148.8938" style="stroke:#181818;stroke-width:0.4000000000000001;" width="4" x="235.6" y="250.2625"/><rect fill="#FFFFFF" height="69.6375" style="stroke:#181818;stroke-width:0.4000000000000001;" width="4" x="380.4" y="261.6719"/><rect fill="#FFFFFF" height="83.4469" style="stroke:#181818;stroke-width:0.4000000000000001;" width="4" x="449" y="79.35"/><rect fill="#FFFFFF" height="58.2281" style="stroke:#181818;stroke-width:0.4000000000000001;" width="4" x="514.6" y="273.0813"/><rect fill="#FFFFFF" height="72.0375" style="stroke:#181818;stroke-width:0.4000000000000001;" width="4" x="577.2" y="90.7594"/><rect fill="#FFFFFF" height="37.2188" style="stroke:#181818;stroke-width:0.4000000000000001;" width="4" x="681.6" y="102.1688"/><rect fill="#FFFFFF" height="23.4094" style="stroke:#181818;stroke-width:0.4000000000000001;" width="4" x="681.6" y="284.4906"/><rect fill="#FFFFFF" height="12" style="stroke:#181818;stroke-width:0.4000000000000001;" width="4" x="748.4" y="127.3875"/><rect fill="#FFFFFF" height="12" style="stroke:#181818;stroke-width:0.4000000000000001;" width="4" x="748.4" y="295.9"/><rect fill="#FFFFFF" height="12" style="stroke:#181818;stroke-width:0.4000000000000001;" width="4" x="800.8" y="319.3094"/><rect fill="#FFFFFF" height="12" style="stroke:#181818;stroke-width:0.4000000000000001;" width="4" x="868.6" y="150.7969"/><polygon fill="#181818" points="100.6,43.5219,104.6,45.1219,100.6,46.7219,102.2,45.1219" style="stroke:#181818;stroke-width:0.4000000000000001;"/><line style="stroke:#181818;stroke-width:0.4000000000000001;" x1="21.8" x2="103" y1="45.1219" y2="45.1219"/><text fill="#000000" font-family="sans-serif" font-size="5.2" font-weight="bold" lengthAdjust="spacing" textLength="2.8" x="24.6" y="43.2199">1</text><text fill="#000000" font-family="sans-serif" font-size="5.2" lengthAdjust="spacing" textLength="71.6" x="29" y="43.2199">requests to view course exams</text><polygon fill="#181818" points="161,54.9313,165,56.5313,161,58.1313,162.6,56.5313" style="stroke:#181818;stroke-width:0.4000000000000001;"/><line style="stroke:#181818;stroke-width:0.4000000000000001;" x1="109.4" x2="163.4" y1="56.5313" y2="56.5313"/><text fill="#000000" font-family="sans-serif" font-size="5.2" font-weight="bold" lengthAdjust="spacing" textLength="2.8" x="112.2" y="54.6293">2</text><text fill="#000000" font-family="sans-serif" font-size="5.2" lengthAdjust="spacing" textLength="21.6" x="116.6" y="54.6293">execute()</text><polygon fill="#181818" points="230.8,66.3406,234.8,67.9406,230.8,69.5406,232.4,67.9406" style="stroke:#181818;stroke-width:0.4000000000000001;"/><line style="stroke:#181818;stroke-width:0.4000000000000001;" x1="167.8" x2="233.2" y1="67.9406" y2="67.9406"/><text fill="#000000" font-family="sans-serif" font-size="5.2" font-weight="bold" lengthAdjust="spacing" textLength="2.8" x="170.6" y="66.0387">3</text><text fill="#000000" font-family="sans-serif" font-size="5.2" lengthAdjust="spacing" textLength="21.6" x="175" y="66.0387">doShow()</text><polygon fill="#181818" points="444.2,77.75,448.2,79.35,444.2,80.95,445.8,79.35" style="stroke:#181818;stroke-width:0.4000000000000001;"/><line style="stroke:#181818;stroke-width:0.4000000000000001;" x1="239.6" x2="446.6" y1="79.35" y2="79.35"/><text fill="#000000" font-family="sans-serif" font-size="5.2" font-weight="bold" lengthAdjust="spacing" textLength="2.8" x="242.4" y="77.448">4</text><text fill="#000000" font-family="sans-serif" font-size="5.2" lengthAdjust="spacing" textLength="118.8" x="246.8" y="77.448">teacherRegistrationList = getTeacherRegistrations()</text><polygon fill="#181818" points="572.4,89.1594,576.4,90.7594,572.4,92.3594,574,90.7594" style="stroke:#181818;stroke-width:0.4000000000000001;"/><line style="stroke:#181818;stroke-width:0.4000000000000001;" x1="453" x2="574.8" y1="90.7594" y2="90.7594"/><text fill="#000000" font-family="sans-serif" font-size="5.2" font-weight="bold" lengthAdjust="spacing" textLength="2.8" x="455.8" y="88.8574">5</text><text fill="#000000" font-family="sans-serif" font-size="5.2" lengthAdjust="spacing" textLength="16.4" x="460.2" y="88.8574">getAll()</text><polygon fill="#181818" points="676.8,100.5688,680.8,102.1688,676.8,103.7688,678.4,102.1688" style="stroke:#181818;stroke-width:0.4000000000000001;"/><line style="stroke:#181818;stroke-width:0.4000000000000001;" x1="581.2" x2="679.2" y1="102.1688" y2="102.1688"/><text fill="#000000" font-family="sans-serif" font-size="5.2" font-weight="bold" lengthAdjust="spacing" textLength="2.8" x="584" y="100.2668">6</text><text fill="#000000" font-family="sans-serif" font-size="5.2" lengthAdjust="spacing" textLength="30" x="588.4" y="100.2668">repositories()</text><path d="M687.6,107.3688 L687.6,116.9688 L793.6,116.9688 L793.6,111.3688 L789.6,107.3688 L687.6,107.3688 " fill="#FEFFDD" style="stroke:#181818;stroke-width:0.20000000000000004;"/><path d="M789.6,107.3688 L789.6,111.3688 L793.6,111.3688 L789.6,107.3688 " fill="#FEFFDD" style="stroke:#181818;stroke-width:0.20000000000000004;"/><text fill="#000000" font-family="sans-serif" font-size="5.2" lengthAdjust="spacing" textLength="97.6" x="690" y="114.0762">repository can be either in memory or JPA</text><polygon fill="#181818" points="743.6,125.7875,747.6,127.3875,743.6,128.9875,745.2,127.3875" style="stroke:#181818;stroke-width:0.4000000000000001;"/><line style="stroke:#181818;stroke-width:0.4000000000000001;" x1="685.6" x2="746" y1="127.3875" y2="127.3875"/><text fill="#000000" font-family="sans-serif" font-size="5.2" font-weight="bold" lengthAdjust="spacing" textLength="2.8" x="688.4" y="125.4855">7</text><text fill="#000000" font-family="sans-serif" font-size="5.2" lengthAdjust="spacing" textLength="50.8" x="692.8" y="125.4855">teacherRegistrations()</text><polygon fill="#181818" points="863.8,149.1969,867.8,150.7969,863.8,152.3969,865.4,150.7969" style="stroke:#181818;stroke-width:0.4000000000000001;"/><line style="stroke:#181818;stroke-width:0.4000000000000001;" x1="581.2" x2="866.2" y1="150.7969" y2="150.7969"/><text fill="#000000" font-family="sans-serif" font-size="5.2" font-weight="bold" lengthAdjust="spacing" textLength="2.8" x="584" y="148.8949">8</text><text fill="#000000" font-family="sans-serif" font-size="5.2" lengthAdjust="spacing" textLength="16.4" x="588.4" y="148.8949">getAll()</text><path d="M198.4,168.7969 L227.6,168.7969 L227.6,171.4063 L223.6,175.4063 L198.4,175.4063 L198.4,168.7969 " fill="#EEEEEE" style="stroke:#000000;stroke-width:0.6000000000000001;"/><rect fill="none" height="35.4281" style="stroke:#000000;stroke-width:0.6000000000000001;" width="191.6" x="198.4" y="168.7969"/><text fill="#000000" font-family="sans-serif" font-size="5.2" font-weight="bold" lengthAdjust="spacing" textLength="11.2" x="204.4" y="173.9043">loop</text><text fill="#000000" font-family="sans-serif" font-size="4.4" font-weight="bold" lengthAdjust="spacing" textLength="124.8" x="233.6" y="173.5801">[for each studentRegistration in teacherRegistrationList]</text><path d="M202.4,178.2063 L226.8,178.2063 L226.8,180.8156 L222.8,184.8156 L202.4,184.8156 L202.4,178.2063 " fill="#EEEEEE" style="stroke:#000000;stroke-width:0.6000000000000001;"/><rect fill="none" height="23.2188" style="stroke:#000000;stroke-width:0.6000000000000001;" width="183.6" x="202.4" y="178.2063"/><text fill="#000000" font-family="sans-serif" font-size="5.2" font-weight="bold" lengthAdjust="spacing" textLength="6.4" x="208.4" y="183.3137">alt</text><text fill="#000000" font-family="sans-serif" font-size="4.4" font-weight="bold" lengthAdjust="spacing" textLength="151.2" x="232.8" y="182.9895">[teacherRegistration.getTeacherProfile().equals(currentUserProfile)]</text><line style="stroke:#181818;stroke-width:0.4000000000000001;" x1="239.6" x2="256.4" y1="193.025" y2="193.025"/><line style="stroke:#181818;stroke-width:0.4000000000000001;" x1="256.4" x2="256.4" y1="193.025" y2="198.225"/><line style="stroke:#181818;stroke-width:0.4000000000000001;" x1="240" x2="256.4" y1="198.225" y2="198.225"/><polygon fill="#181818" points="244,196.625,240,198.225,244,199.825,242.4,198.225" style="stroke:#181818;stroke-width:0.4000000000000001;"/><text fill="#000000" font-family="sans-serif" font-size="5.2" font-weight="bold" lengthAdjust="spacing" textLength="2.8" x="242.4" y="191.123">9</text><text fill="#000000" font-family="sans-serif" font-size="5.2" lengthAdjust="spacing" textLength="130.8" x="246.8" y="191.123">availableCourseList.add(teacherRegistration.getCourse())</text><path d="M4,209.825 L33.2,209.825 L33.2,212.4344 L29.2,216.4344 L4,216.4344 L4,209.825 " fill="#EEEEEE" style="stroke:#000000;stroke-width:0.6000000000000001;"/><rect fill="none" height="18.0188" style="stroke:#000000;stroke-width:0.6000000000000001;" width="264.8" x="4" y="209.825"/><text fill="#000000" font-family="sans-serif" font-size="5.2" font-weight="bold" lengthAdjust="spacing" textLength="11.2" x="10" y="214.9324">loop</text><text fill="#000000" font-family="sans-serif" font-size="4.4" font-weight="bold" lengthAdjust="spacing" textLength="88" x="39.2" y="214.6082">[for each course in availableCourseList]</text><polygon fill="#181818" points="26.2,223.0438,22.2,224.6438,26.2,226.2438,24.6,224.6438" style="stroke:#181818;stroke-width:0.4000000000000001;"/><line style="stroke:#181818;stroke-width:0.4000000000000001;stroke-dasharray:2.0,2.0;" x1="23.8" x2="235.2" y1="224.6438" y2="224.6438"/><text fill="#000000" font-family="sans-serif" font-size="5.2" font-weight="bold" lengthAdjust="spacing" textLength="5.6" x="28.6" y="222.7418">10</text><text fill="#000000" font-family="sans-serif" font-size="5.2" lengthAdjust="spacing" textLength="54" x="35.8" y="222.7418">print course information</text><polygon fill="#181818" points="26.2,237.2531,22.2,238.8531,26.2,240.4531,24.6,238.8531" style="stroke:#181818;stroke-width:0.4000000000000001;"/><line style="stroke:#181818;stroke-width:0.4000000000000001;stroke-dasharray:2.0,2.0;" x1="23.8" x2="233.2" y1="238.8531" y2="238.8531"/><text fill="#000000" font-family="sans-serif" font-size="5.2" font-weight="bold" lengthAdjust="spacing" textLength="5.6" x="28.6" y="236.9512">11</text><text fill="#000000" font-family="sans-serif" font-size="5.2" lengthAdjust="spacing" textLength="100.4" x="35.8" y="236.9512">requests to choose a course to view exams</text><polygon fill="#181818" points="230.8,248.6625,234.8,250.2625,230.8,251.8625,232.4,250.2625" style="stroke:#181818;stroke-width:0.4000000000000001;"/><line style="stroke:#181818;stroke-width:0.4000000000000001;" x1="21.8" x2="233.2" y1="250.2625" y2="250.2625"/><text fill="#000000" font-family="sans-serif" font-size="5.2" font-weight="bold" lengthAdjust="spacing" textLength="5.6" x="24.6" y="248.3605">12</text><text fill="#000000" font-family="sans-serif" font-size="5.2" lengthAdjust="spacing" textLength="50" x="31.8" y="248.3605">inputs course number</text><polygon fill="#181818" points="375.6,260.0719,379.6,261.6719,375.6,263.2719,377.2,261.6719" style="stroke:#181818;stroke-width:0.4000000000000001;"/><line style="stroke:#181818;stroke-width:0.4000000000000001;" x1="239.6" x2="378" y1="261.6719" y2="261.6719"/><text fill="#000000" font-family="sans-serif" font-size="5.2" font-weight="bold" lengthAdjust="spacing" textLength="5.6" x="242.4" y="259.7699">13</text><text fill="#000000" font-family="sans-serif" font-size="5.2" lengthAdjust="spacing" textLength="44" x="249.6" y="259.7699">examList = getAll()</text><polygon fill="#181818" points="509.8,271.4813,513.8,273.0813,509.8,274.6813,511.4,273.0813" style="stroke:#181818;stroke-width:0.4000000000000001;"/><line style="stroke:#181818;stroke-width:0.4000000000000001;" x1="384.4" x2="512.2" y1="273.0813" y2="273.0813"/><text fill="#000000" font-family="sans-serif" font-size="5.2" font-weight="bold" lengthAdjust="spacing" textLength="5.6" x="387.2" y="271.1793">14</text><text fill="#000000" font-family="sans-serif" font-size="5.2" lengthAdjust="spacing" textLength="16.4" x="394.4" y="271.1793">getAll()</text><polygon fill="#181818" points="676.8,282.8906,680.8,284.4906,676.8,286.0906,678.4,284.4906" style="stroke:#181818;stroke-width:0.4000000000000001;"/><line style="stroke:#181818;stroke-width:0.4000000000000001;" x1="518.6" x2="679.2" y1="284.4906" y2="284.4906"/><text fill="#000000" font-family="sans-serif" font-size="5.2" font-weight="bold" lengthAdjust="spacing" textLength="5.6" x="521.4" y="282.5887">15</text><text fill="#000000" font-family="sans-serif" font-size="5.2" lengthAdjust="spacing" textLength="30" x="528.6" y="282.5887">repositories()</text><polygon fill="#181818" points="743.6,294.3,747.6,295.9,743.6,297.5,745.2,295.9" style="stroke:#181818;stroke-width:0.4000000000000001;"/><line style="stroke:#181818;stroke-width:0.4000000000000001;" x1="685.6" x2="746" y1="295.9" y2="295.9"/><text fill="#000000" font-family="sans-serif" font-size="5.2" font-weight="bold" lengthAdjust="spacing" textLength="5.6" x="688.4" y="293.998">16</text><text fill="#000000" font-family="sans-serif" font-size="5.2" lengthAdjust="spacing" textLength="18.8" x="695.6" y="293.998">exams()</text><polygon fill="#181818" points="796,317.7094,800,319.3094,796,320.9094,797.6,319.3094" style="stroke:#181818;stroke-width:0.4000000000000001;"/><line style="stroke:#181818;stroke-width:0.4000000000000001;" x1="518.6" x2="798.4" y1="319.3094" y2="319.3094"/><text fill="#000000" font-family="sans-serif" font-size="5.2" font-weight="bold" lengthAdjust="spacing" textLength="5.6" x="521.4" y="317.4074">17</text><text fill="#000000" font-family="sans-serif" font-size="5.2" lengthAdjust="spacing" textLength="16.4" x="528.6" y="317.4074">getAll()</text><path d="M198.4,337.3094 L227.6,337.3094 L227.6,339.9188 L223.6,343.9188 L198.4,343.9188 L198.4,337.3094 " fill="#EEEEEE" style="stroke:#000000;stroke-width:0.6000000000000001;"/><rect fill="none" height="35.4281" style="stroke:#000000;stroke-width:0.6000000000000001;" width="138.4" x="198.4" y="337.3094"/><text fill="#000000" font-family="sans-serif" font-size="5.2" font-weight="bold" lengthAdjust="spacing" textLength="11.2" x="204.4" y="342.4168">loop</text><text fill="#000000" font-family="sans-serif" font-size="4.4" font-weight="bold" lengthAdjust="spacing" textLength="61.2" x="233.6" y="342.0926">[for each exam in examList]</text><path d="M202.4,346.7188 L226.8,346.7188 L226.8,349.3281 L222.8,353.3281 L202.4,353.3281 L202.4,346.7188 " fill="#EEEEEE" style="stroke:#000000;stroke-width:0.6000000000000001;"/><rect fill="none" height="23.2188" style="stroke:#000000;stroke-width:0.6000000000000001;" width="130.4" x="202.4" y="346.7188"/><text fill="#000000" font-family="sans-serif" font-size="5.2" font-weight="bold" lengthAdjust="spacing" textLength="6.4" x="208.4" y="351.8262">alt</text><text fill="#000000" font-family="sans-serif" font-size="4.4" font-weight="bold" lengthAdjust="spacing" textLength="98" x="232.8" y="351.502">[exam.getCourse().equals(choosenCourse)]</text><line style="stroke:#181818;stroke-width:0.4000000000000001;" x1="239.6" x2="256.4" y1="361.5375" y2="361.5375"/><line style="stroke:#181818;stroke-width:0.4000000000000001;" x1="256.4" x2="256.4" y1="361.5375" y2="366.7375"/><line style="stroke:#181818;stroke-width:0.4000000000000001;" x1="240" x2="256.4" y1="366.7375" y2="366.7375"/><polygon fill="#181818" points="244,365.1375,240,366.7375,244,368.3375,242.4,366.7375" style="stroke:#181818;stroke-width:0.4000000000000001;"/><text fill="#000000" font-family="sans-serif" font-size="5.2" font-weight="bold" lengthAdjust="spacing" textLength="5.6" x="242.4" y="359.6355">18</text><text fill="#000000" font-family="sans-serif" font-size="5.2" lengthAdjust="spacing" textLength="78.4" x="249.6" y="359.6355">choosenCourseExams.add(exam)</text><path d="M4,378.3375 L33.2,378.3375 L33.2,380.9469 L29.2,384.9469 L4,384.9469 L4,378.3375 " fill="#EEEEEE" style="stroke:#000000;stroke-width:0.6000000000000001;"/><rect fill="none" height="18.0188" style="stroke:#000000;stroke-width:0.6000000000000001;" width="264.8" x="4" y="378.3375"/><text fill="#000000" font-family="sans-serif" font-size="5.2" font-weight="bold" lengthAdjust="spacing" textLength="11.2" x="10" y="383.4449">loop</text><text fill="#000000" font-family="sans-serif" font-size="4.4" font-weight="bold" lengthAdjust="spacing" textLength="90.8" x="39.2" y="383.1207">[for each exam in choosenCourseExams]</text><polygon fill="#181818" points="26.2,391.5563,22.2,393.1563,26.2,394.7563,24.6,393.1563" style="stroke:#181818;stroke-width:0.4000000000000001;"/><line style="stroke:#181818;stroke-width:0.4000000000000001;stroke-dasharray:2.0,2.0;" x1="23.8" x2="235.2" y1="393.1563" y2="393.1563"/><text fill="#000000" font-family="sans-serif" font-size="5.2" font-weight="bold" lengthAdjust="spacing" textLength="5.6" x="28.6" y="391.2543">19</text><text fill="#000000" font-family="sans-serif" font-size="5.2" lengthAdjust="spacing" textLength="51.2" x="35.8" y="391.2543">print exam information</text><!--MD5=[b2aad9cc7c42bd902c7b608c48589934]
@startuml
'https://plantuml.com/sequence-diagram

autonumber

actor manager as "Teacher"

participant ":CoursesUi" as ui <<presentation>>
participant ":ViewCoursesExamAction" as action <<application>>
participant ":ViewCoursesExamUi" as viewUi <<presentation>>
participant ":ExamController" as controller <<application>>
participant ":TeacherRegistrationController" as registController <<application>>
participant ":ExamService" as service <<application>>
participant ":TeacherRegistrationService" as registService <<application>>
participant "Exam" as exam <<domain>>
participant PersistenceContext as persistence
participant RepositoryFactory as factory
database ":ExamRepository" as repository <<repository>>
database ":TeacherRegistrationRepository" as userRepository <<repository>>



activate manager

manager -> ui : requests to view course exams
activate ui
ui -> action : execute()
activate action
action -> viewUi : doShow()
deactivate action
activate viewUi
deactivate ui
activate viewUi

viewUi -> registController : teacherRegistrationList = getTeacherRegistrations()
activate registController
registController -> registService : getAll()
activate registService
registService -> persistence : repositories()
activate persistence
note right of persistence: repository can be either in memory or JPA
persistence -> factory : teacherRegistrations()
activate factory
deactivate factory
deactivate persistence
registService -> userRepository : getAll()
activate userRepository
deactivate userRepository
deactivate registService
deactivate registController
loop for each studentRegistration in teacherRegistrationList
alt teacherRegistration.getTeacherProfile().equals(currentUserProfile)
viewUi -> viewUi : availableCourseList.add(teacherRegistration.getCourse())
end
end
loop for each course in availableCourseList
viewUi - -> manager : print course information
end
viewUi - -> manager : requests to choose a course to view exams
deactivate viewUi
manager -> viewUi : inputs course number
activate viewUi
viewUi -> controller : examList = getAll()
activate controller
controller -> service : getAll()
activate service
service -> persistence : repositories()
activate persistence
persistence -> factory : exams()
activate factory
deactivate factory
deactivate persistence
service -> repository : getAll()
activate repository
deactivate repository
deactivate service
deactivate controller
loop for each exam in examList
alt exam.getCourse().equals(choosenCourse)
viewUi -> viewUi : choosenCourseExams.add(exam)
end
end
loop for each exam in choosenCourseExams
viewUi - -> manager : print exam information
end
deactivate viewUi





@enduml

@startuml

autonumber

actor manager as "Teacher"

participant ":CoursesUi" as ui <<presentation>>
participant ":ViewCoursesExamAction" as action <<application>>
participant ":ViewCoursesExamUi" as viewUi <<presentation>>
participant ":ExamController" as controller <<application>>
participant ":TeacherRegistrationController" as registController <<application>>
participant ":ExamService" as service <<application>>
participant ":TeacherRegistrationService" as registService <<application>>
participant "Exam" as exam <<domain>>
participant PersistenceContext as persistence
participant RepositoryFactory as factory
database ":ExamRepository" as repository <<repository>>
database ":TeacherRegistrationRepository" as userRepository <<repository>>



activate manager

manager -> ui : requests to view course exams
activate ui
ui -> action : execute()
activate action
action -> viewUi : doShow()
deactivate action
activate viewUi
deactivate ui
activate viewUi

viewUi -> registController : teacherRegistrationList = getTeacherRegistrations()
activate registController
registController -> registService : getAll()
activate registService
registService -> persistence : repositories()
activate persistence
note right of persistence: repository can be either in memory or JPA
persistence -> factory : teacherRegistrations()
activate factory
deactivate factory
deactivate persistence
registService -> userRepository : getAll()
activate userRepository
deactivate userRepository
deactivate registService
deactivate registController
loop for each studentRegistration in teacherRegistrationList
alt teacherRegistration.getTeacherProfile().equals(currentUserProfile)
viewUi -> viewUi : availableCourseList.add(teacherRegistration.getCourse())
end
end
loop for each course in availableCourseList
viewUi - -> manager : print course information
end
viewUi - -> manager : requests to choose a course to view exams
deactivate viewUi
manager -> viewUi : inputs course number
activate viewUi
viewUi -> controller : examList = getAll()
activate controller
controller -> service : getAll()
activate service
service -> persistence : repositories()
activate persistence
persistence -> factory : exams()
activate factory
deactivate factory
deactivate persistence
service -> repository : getAll()
activate repository
deactivate repository
deactivate service
deactivate controller
loop for each exam in examList
alt exam.getCourse().equals(choosenCourse)
viewUi -> viewUi : choosenCourseExams.add(exam)
end
end
loop for each exam in choosenCourseExams
viewUi - -> manager : print exam information
end
deactivate viewUi





@enduml

PlantUML version 1.2022.12(Sun Oct 23 19:12:26 WEST 2022)
(GPL source distribution)
Java Runtime: OpenJDK Runtime Environment
JVM: OpenJDK 64-Bit Server VM
Default Encoding: Cp1252
Language: en
Country: GB
--></g></svg>