<?xml version="1.0" encoding="UTF-8" standalone="no"?><svg xmlns="http://www.w3.org/2000/svg" xmlns:xlink="http://www.w3.org/1999/xlink" contentStyleType="text/css" height="814.4px" preserveAspectRatio="none" style="width:1267px;height:814px;background:#FFFFFF;" version="1.1" viewBox="0 0 1267 814" width="1267.2px" zoomAndPan="magnify"><defs/><g><rect fill="#FFFFFF" height="652.0313" style="stroke:#181818;stroke-width:0.8000000000000002;" width="8" x="50" y="73.825"/><rect fill="#FFFFFF" height="45.6375" style="stroke:#181818;stroke-width:0.8000000000000002;" width="8" x="236.4" y="90.2438"/><rect fill="#FFFFFF" height="22.8188" style="stroke:#181818;stroke-width:0.8000000000000002;" width="8" x="369.2" y="113.0625"/><rect fill="#FFFFFF" height="429.4813" style="stroke:#181818;stroke-width:0.8000000000000002;" width="8" x="528.8" y="135.8813"/><rect fill="#FFFFFF" height="137.675" style="stroke:#181818;stroke-width:0.8000000000000002;" width="8" x="528.8" y="588.1813"/><rect fill="#FFFFFF" height="69.6375" style="stroke:#181818;stroke-width:0.8000000000000002;" width="8" x="823.2" y="158.7"/><rect fill="#FFFFFF" height="69.6375" style="stroke:#181818;stroke-width:0.8000000000000002;" width="8" x="823.2" y="317.5938"/><rect fill="#FFFFFF" height="69.6375" style="stroke:#181818;stroke-width:0.8000000000000002;" width="8" x="823.2" y="611"/><rect fill="#FFFFFF" height="46.8188" style="stroke:#181818;stroke-width:0.8000000000000002;" width="8" x="997.6" y="181.5188"/><rect fill="#FFFFFF" height="46.8188" style="stroke:#181818;stroke-width:0.8000000000000002;" width="8" x="997.6" y="340.4125"/><rect fill="#FFFFFF" height="46.8188" style="stroke:#181818;stroke-width:0.8000000000000002;" width="8" x="997.6" y="633.8188"/><rect fill="#FFFFFF" height="24" style="stroke:#181818;stroke-width:0.8000000000000002;" width="8" x="1082" y="499.725"/><rect fill="#FFFFFF" height="24" style="stroke:#181818;stroke-width:0.8000000000000002;" width="8" x="1175.2" y="204.3375"/><rect fill="#FFFFFF" height="24" style="stroke:#181818;stroke-width:0.8000000000000002;" width="8" x="1175.2" y="363.2313"/><rect fill="#FFFFFF" height="24" style="stroke:#181818;stroke-width:0.8000000000000002;" width="8" x="1175.2" y="656.6375"/><rect fill="none" height="304.6063" style="stroke:#000000;stroke-width:1.2000000000000002;" width="1254.4" x="8" y="399.2313"/><rect fill="none" height="280.1875" style="stroke:#000000;stroke-width:1.2000000000000002;" width="1238.4" x="16" y="418.05"/><rect fill="none" height="222.55" style="stroke:#000000;stroke-width:1.2000000000000002;" width="1222.4" x="24" y="470.0875"/><rect fill="none" height="151.3125" style="stroke:#000000;stroke-width:1.2000000000000002;" width="1206.4" x="32" y="535.725"/><line style="stroke:#181818;stroke-width:0.4000000000000001;stroke-dasharray:5.0,5.0;" x1="53.6" x2="53.6" y1="65.825" y2="740.2563"/><line style="stroke:#181818;stroke-width:0.4000000000000001;stroke-dasharray:5.0,5.0;" x1="240" x2="240" y1="65.825" y2="740.2563"/><line style="stroke:#181818;stroke-width:0.4000000000000001;stroke-dasharray:5.0,5.0;" x1="372.8" x2="372.8" y1="65.825" y2="740.2563"/><line style="stroke:#181818;stroke-width:0.4000000000000001;stroke-dasharray:5.0,5.0;" x1="532.8" x2="532.8" y1="65.825" y2="740.2563"/><line style="stroke:#181818;stroke-width:0.4000000000000001;stroke-dasharray:5.0,5.0;" x1="827.2" x2="827.2" y1="65.825" y2="740.2563"/><line style="stroke:#181818;stroke-width:0.4000000000000001;stroke-dasharray:5.0,5.0;" x1="1001.2" x2="1001.2" y1="65.825" y2="740.2563"/><line style="stroke:#181818;stroke-width:0.4000000000000001;stroke-dasharray:5.0,5.0;" x1="1086" x2="1086" y1="65.825" y2="740.2563"/><line style="stroke:#181818;stroke-width:0.4000000000000001;stroke-dasharray:5.0,5.0;" x1="1179.2" x2="1179.2" y1="65.825" y2="740.2563"/><text fill="#000000" font-family="sans-serif" font-size="11.2" lengthAdjust="spacing" textLength="23.2" x="40" y="63.4516">User</text><ellipse cx="54" cy="12.1125" fill="#E2E2F0" rx="6.4" ry="6.4" style="stroke:#181818;stroke-width:0.4000000000000001;"/><path d="M54,18.5125 L54,40.1125 M43.6,24.9125 L64.4,24.9125 M54,40.1125 L43.6,52.1125 M54,40.1125 L64.4,52.1125 " fill="none" style="stroke:#181818;stroke-width:0.4000000000000001;"/><text fill="#000000" font-family="sans-serif" font-size="11.2" lengthAdjust="spacing" textLength="23.2" x="40" y="749.5953">User</text><ellipse cx="54" cy="758.7688" fill="#E2E2F0" rx="6.4" ry="6.4" style="stroke:#181818;stroke-width:0.4000000000000001;"/><path d="M54,765.1688 L54,786.7688 M43.6,771.5688 L64.4,771.5688 M54,786.7688 L43.6,798.7688 M54,786.7688 L64.4,798.7688 " fill="none" style="stroke:#181818;stroke-width:0.4000000000000001;"/><rect fill="#E2E2F0" height="36.225" rx="2" ry="2" style="stroke:#181818;stroke-width:0.4000000000000001;" width="87.2" x="196.8" y="28.8"/><text fill="#000000" font-family="sans-serif" font-size="11.2" font-style="italic" lengthAdjust="spacing" textLength="76" x="202.4" y="44.5391">«presentation»</text><text fill="#000000" font-family="sans-serif" font-size="11.2" lengthAdjust="spacing" textLength="41.6" x="219.6" y="57.0516">:UsersUI</text><rect fill="#E2E2F0" height="36.225" rx="2" ry="2" style="stroke:#181818;stroke-width:0.4000000000000001;" width="87.2" x="196.8" y="739.4563"/><text fill="#000000" font-family="sans-serif" font-size="11.2" font-style="italic" lengthAdjust="spacing" textLength="76" x="202.4" y="755.1953">«presentation»</text><text fill="#000000" font-family="sans-serif" font-size="11.2" lengthAdjust="spacing" textLength="41.6" x="219.6" y="767.7078">:UsersUI</text><rect fill="#E2E2F0" height="36.225" rx="2" ry="2" style="stroke:#181818;stroke-width:0.4000000000000001;" width="162.4" x="292" y="28.8"/><text fill="#000000" font-family="sans-serif" font-size="11.2" font-style="italic" lengthAdjust="spacing" textLength="67.2" x="339.6" y="44.5391">«application»</text><text fill="#000000" font-family="sans-serif" font-size="11.2" lengthAdjust="spacing" textLength="151.2" x="297.6" y="57.0516">:AcceptMeetingRequestAction</text><rect fill="#E2E2F0" height="36.225" rx="2" ry="2" style="stroke:#181818;stroke-width:0.4000000000000001;" width="162.4" x="292" y="739.4563"/><text fill="#000000" font-family="sans-serif" font-size="11.2" font-style="italic" lengthAdjust="spacing" textLength="67.2" x="339.6" y="755.1953">«application»</text><text fill="#000000" font-family="sans-serif" font-size="11.2" lengthAdjust="spacing" textLength="151.2" x="297.6" y="767.7078">:AcceptMeetingRequestAction</text><rect fill="#E2E2F0" height="36.225" rx="2" ry="2" style="stroke:#181818;stroke-width:0.4000000000000001;" width="140.8" x="462.4" y="28.8"/><text fill="#000000" font-family="sans-serif" font-size="11.2" font-style="italic" lengthAdjust="spacing" textLength="76" x="494.8" y="44.5391">«presentation»</text><text fill="#000000" font-family="sans-serif" font-size="11.2" lengthAdjust="spacing" textLength="129.6" x="468" y="57.0516">:AcceptMeetingRequestUI</text><rect fill="#E2E2F0" height="36.225" rx="2" ry="2" style="stroke:#181818;stroke-width:0.4000000000000001;" width="140.8" x="462.4" y="739.4563"/><text fill="#000000" font-family="sans-serif" font-size="11.2" font-style="italic" lengthAdjust="spacing" textLength="76" x="494.8" y="755.1953">«presentation»</text><text fill="#000000" font-family="sans-serif" font-size="11.2" lengthAdjust="spacing" textLength="129.6" x="468" y="767.7078">:AcceptMeetingRequestUI</text><rect fill="#E2E2F0" height="36.225" rx="2" ry="2" style="stroke:#181818;stroke-width:0.4000000000000001;" width="104" x="775.2" y="28.8"/><text fill="#000000" font-family="sans-serif" font-size="11.2" font-style="italic" lengthAdjust="spacing" textLength="67.2" x="793.6" y="44.5391">«application»</text><text fill="#000000" font-family="sans-serif" font-size="11.2" lengthAdjust="spacing" textLength="92.8" x="780.8" y="57.0516">:MeetingController</text><rect fill="#E2E2F0" height="36.225" rx="2" ry="2" style="stroke:#181818;stroke-width:0.4000000000000001;" width="104" x="775.2" y="739.4563"/><text fill="#000000" font-family="sans-serif" font-size="11.2" font-style="italic" lengthAdjust="spacing" textLength="67.2" x="793.6" y="755.1953">«application»</text><text fill="#000000" font-family="sans-serif" font-size="11.2" lengthAdjust="spacing" textLength="92.8" x="780.8" y="767.7078">:MeetingController</text><rect fill="#E2E2F0" height="36.225" rx="2" ry="2" style="stroke:#181818;stroke-width:0.4000000000000001;" width="92" x="955.6" y="28.8"/><text fill="#000000" font-family="sans-serif" font-size="11.2" font-style="italic" lengthAdjust="spacing" textLength="67.2" x="968" y="44.5391">«application»</text><text fill="#000000" font-family="sans-serif" font-size="11.2" lengthAdjust="spacing" textLength="80.8" x="961.2" y="57.0516">:MeetingService</text><rect fill="#E2E2F0" height="36.225" rx="2" ry="2" style="stroke:#181818;stroke-width:0.4000000000000001;" width="92" x="955.6" y="739.4563"/><text fill="#000000" font-family="sans-serif" font-size="11.2" font-style="italic" lengthAdjust="spacing" textLength="67.2" x="968" y="755.1953">«application»</text><text fill="#000000" font-family="sans-serif" font-size="11.2" lengthAdjust="spacing" textLength="80.8" x="961.2" y="767.7078">:MeetingService</text><rect fill="#E2E2F0" height="36.225" rx="2" ry="2" style="stroke:#181818;stroke-width:0.4000000000000001;" width="60.8" x="1055.6" y="28.8"/><text fill="#000000" font-family="sans-serif" font-size="11.2" font-style="italic" lengthAdjust="spacing" textLength="49.6" x="1061.2" y="44.5391">«domain»</text><text fill="#000000" font-family="sans-serif" font-size="11.2" lengthAdjust="spacing" textLength="32" x="1070" y="57.0516">Profile</text><rect fill="#E2E2F0" height="36.225" rx="2" ry="2" style="stroke:#181818;stroke-width:0.4000000000000001;" width="60.8" x="1055.6" y="739.4563"/><text fill="#000000" font-family="sans-serif" font-size="11.2" font-style="italic" lengthAdjust="spacing" textLength="49.6" x="1061.2" y="755.1953">«domain»</text><text fill="#000000" font-family="sans-serif" font-size="11.2" lengthAdjust="spacing" textLength="32" x="1070" y="767.7078">Profile</text><text fill="#000000" font-family="sans-serif" font-size="11.2" font-style="italic" lengthAdjust="spacing" textLength="63.2" x="1145.2" y="50.9391">«repository»</text><text fill="#000000" font-family="sans-serif" font-size="11.2" lengthAdjust="spacing" textLength="97.6" x="1128" y="63.4516">:MeetingRepository</text><path d="M1164.8,12 C1164.8,4 1179.2,4 1179.2,4 C1179.2,4 1193.6,4 1193.6,12 L1193.6,32.8 C1193.6,40.8 1179.2,40.8 1179.2,40.8 C1179.2,40.8 1164.8,40.8 1164.8,32.8 L1164.8,12 " fill="#E2E2F0" style="stroke:#181818;stroke-width:1.2000000000000002;"/><path d="M1164.8,12 C1164.8,20 1179.2,20 1179.2,20 C1179.2,20 1193.6,20 1193.6,12 " fill="none" style="stroke:#181818;stroke-width:1.2000000000000002;"/><text fill="#000000" font-family="sans-serif" font-size="11.2" font-style="italic" lengthAdjust="spacing" textLength="63.2" x="1145.2" y="749.5953">«repository»</text><text fill="#000000" font-family="sans-serif" font-size="11.2" lengthAdjust="spacing" textLength="97.6" x="1128" y="762.1078">:MeetingRepository</text><path d="M1164.8,772.4813 C1164.8,764.4813 1179.2,764.4813 1179.2,764.4813 C1179.2,764.4813 1193.6,764.4813 1193.6,772.4813 L1193.6,793.2813 C1193.6,801.2813 1179.2,801.2813 1179.2,801.2813 C1179.2,801.2813 1164.8,801.2813 1164.8,793.2813 L1164.8,772.4813 " fill="#E2E2F0" style="stroke:#181818;stroke-width:1.2000000000000002;"/><path d="M1164.8,772.4813 C1164.8,780.4813 1179.2,780.4813 1179.2,780.4813 C1179.2,780.4813 1193.6,780.4813 1193.6,772.4813 " fill="none" style="stroke:#181818;stroke-width:1.2000000000000002;"/><rect fill="#FFFFFF" height="652.0313" style="stroke:#181818;stroke-width:0.8000000000000002;" width="8" x="50" y="73.825"/><rect fill="#FFFFFF" height="45.6375" style="stroke:#181818;stroke-width:0.8000000000000002;" width="8" x="236.4" y="90.2438"/><rect fill="#FFFFFF" height="22.8188" style="stroke:#181818;stroke-width:0.8000000000000002;" width="8" x="369.2" y="113.0625"/><rect fill="#FFFFFF" height="429.4813" style="stroke:#181818;stroke-width:0.8000000000000002;" width="8" x="528.8" y="135.8813"/><rect fill="#FFFFFF" height="137.675" style="stroke:#181818;stroke-width:0.8000000000000002;" width="8" x="528.8" y="588.1813"/><rect fill="#FFFFFF" height="69.6375" style="stroke:#181818;stroke-width:0.8000000000000002;" width="8" x="823.2" y="158.7"/><rect fill="#FFFFFF" height="69.6375" style="stroke:#181818;stroke-width:0.8000000000000002;" width="8" x="823.2" y="317.5938"/><rect fill="#FFFFFF" height="69.6375" style="stroke:#181818;stroke-width:0.8000000000000002;" width="8" x="823.2" y="611"/><rect fill="#FFFFFF" height="46.8188" style="stroke:#181818;stroke-width:0.8000000000000002;" width="8" x="997.6" y="181.5188"/><rect fill="#FFFFFF" height="46.8188" style="stroke:#181818;stroke-width:0.8000000000000002;" width="8" x="997.6" y="340.4125"/><rect fill="#FFFFFF" height="46.8188" style="stroke:#181818;stroke-width:0.8000000000000002;" width="8" x="997.6" y="633.8188"/><rect fill="#FFFFFF" height="24" style="stroke:#181818;stroke-width:0.8000000000000002;" width="8" x="1082" y="499.725"/><rect fill="#FFFFFF" height="24" style="stroke:#181818;stroke-width:0.8000000000000002;" width="8" x="1175.2" y="204.3375"/><rect fill="#FFFFFF" height="24" style="stroke:#181818;stroke-width:0.8000000000000002;" width="8" x="1175.2" y="363.2313"/><rect fill="#FFFFFF" height="24" style="stroke:#181818;stroke-width:0.8000000000000002;" width="8" x="1175.2" y="656.6375"/><polygon fill="#181818" points="226.8,87.0438,234.8,90.2438,226.8,93.4438,230,90.2438" style="stroke:#181818;stroke-width:0.8000000000000002;"/><line style="stroke:#181818;stroke-width:0.8000000000000002;" x1="58" x2="231.6" y1="90.2438" y2="90.2438"/><text fill="#000000" font-family="sans-serif" font-size="10.4" font-weight="bold" lengthAdjust="spacing" textLength="5.6" x="63.6" y="86.4398">1</text><text fill="#000000" font-family="sans-serif" font-size="10.4" lengthAdjust="spacing" textLength="154.4" x="72.4" y="86.4398">Ask to accept or reject a meeting</text><polygon fill="#181818" points="359.6,109.8625,367.6,113.0625,359.6,116.2625,362.8,113.0625" style="stroke:#181818;stroke-width:0.8000000000000002;"/><line style="stroke:#181818;stroke-width:0.8000000000000002;" x1="244.4" x2="364.4" y1="113.0625" y2="113.0625"/><text fill="#000000" font-family="sans-serif" font-size="10.4" font-weight="bold" lengthAdjust="spacing" textLength="5.6" x="250" y="109.2586">2</text><text fill="#000000" font-family="sans-serif" font-size="10.4" lengthAdjust="spacing" textLength="43.2" x="258.8" y="109.2586">execute()</text><polygon fill="#181818" points="519.2,132.6813,527.2,135.8813,519.2,139.0813,522.4,135.8813" style="stroke:#181818;stroke-width:0.8000000000000002;"/><line style="stroke:#181818;stroke-width:0.8000000000000002;" x1="373.2" x2="524" y1="135.8813" y2="135.8813"/><text fill="#000000" font-family="sans-serif" font-size="10.4" font-weight="bold" lengthAdjust="spacing" textLength="5.6" x="378.8" y="132.0773">3</text><text fill="#000000" font-family="sans-serif" font-size="10.4" lengthAdjust="spacing" textLength="43.2" x="387.6" y="132.0773">doShow()</text><polygon fill="#181818" points="813.6,155.5,821.6,158.7,813.6,161.9,816.8,158.7" style="stroke:#181818;stroke-width:0.8000000000000002;"/><line style="stroke:#181818;stroke-width:0.8000000000000002;" x1="536.8" x2="818.4" y1="158.7" y2="158.7"/><text fill="#000000" font-family="sans-serif" font-size="10.4" font-weight="bold" lengthAdjust="spacing" textLength="5.6" x="542.4" y="154.8961">4</text><text fill="#000000" font-family="sans-serif" font-size="10.4" lengthAdjust="spacing" textLength="112" x="551.2" y="154.8961">meetings=getMeetings()</text><polygon fill="#181818" points="988,178.3188,996,181.5188,988,184.7188,991.2,181.5188" style="stroke:#181818;stroke-width:0.8000000000000002;"/><line style="stroke:#181818;stroke-width:0.8000000000000002;" x1="831.2" x2="992.8" y1="181.5188" y2="181.5188"/><text fill="#000000" font-family="sans-serif" font-size="10.4" font-weight="bold" lengthAdjust="spacing" textLength="5.6" x="836.8" y="177.7148">5</text><text fill="#000000" font-family="sans-serif" font-size="10.4" lengthAdjust="spacing" textLength="134.4" x="845.6" y="177.7148">allMeetings=getAllMeetings()</text><polygon fill="#181818" points="1165.6,201.1375,1173.6,204.3375,1165.6,207.5375,1168.8,204.3375" style="stroke:#181818;stroke-width:0.8000000000000002;"/><line style="stroke:#181818;stroke-width:0.8000000000000002;" x1="1005.6" x2="1170.4" y1="204.3375" y2="204.3375"/><text fill="#000000" font-family="sans-serif" font-size="10.4" font-weight="bold" lengthAdjust="spacing" textLength="5.6" x="1011.2" y="200.5336">6</text><text fill="#000000" font-family="sans-serif" font-size="10.4" lengthAdjust="spacing" textLength="75.2" x="1020" y="200.5336">getAllMeetings()</text><line style="stroke:#181818;stroke-width:0.8000000000000002;" x1="536.8" x2="570.4" y1="251.1563" y2="251.1563"/><line style="stroke:#181818;stroke-width:0.8000000000000002;" x1="570.4" x2="570.4" y1="251.1563" y2="261.5563"/><line style="stroke:#181818;stroke-width:0.8000000000000002;" x1="537.6" x2="570.4" y1="261.5563" y2="261.5563"/><polygon fill="#181818" points="545.6,258.3563,537.6,261.5563,545.6,264.7563,542.4,261.5563" style="stroke:#181818;stroke-width:0.8000000000000002;"/><text fill="#000000" font-family="sans-serif" font-size="10.4" font-weight="bold" lengthAdjust="spacing" textLength="5.6" x="542.4" y="247.3523">7</text><text fill="#000000" font-family="sans-serif" font-size="10.4" lengthAdjust="spacing" textLength="75.2" x="551.2" y="247.3523">getUserBoards()</text><line style="stroke:#181818;stroke-width:0.8000000000000002;" x1="536.8" x2="570.4" y1="284.375" y2="284.375"/><line style="stroke:#181818;stroke-width:0.8000000000000002;" x1="570.4" x2="570.4" y1="284.375" y2="294.775"/><line style="stroke:#181818;stroke-width:0.8000000000000002;" x1="537.6" x2="570.4" y1="294.775" y2="294.775"/><polygon fill="#181818" points="545.6,291.575,537.6,294.775,545.6,297.975,542.4,294.775" style="stroke:#181818;stroke-width:0.8000000000000002;"/><text fill="#000000" font-family="sans-serif" font-size="10.4" font-weight="bold" lengthAdjust="spacing" textLength="5.6" x="542.4" y="280.5711">8</text><text fill="#000000" font-family="sans-serif" font-size="10.4" lengthAdjust="spacing" textLength="212" x="551.2" y="280.5711">name = currentUserProfile.getUser().toString()</text><polygon fill="#181818" points="813.6,314.3938,821.6,317.5938,813.6,320.7938,816.8,317.5938" style="stroke:#181818;stroke-width:0.8000000000000002;"/><line style="stroke:#181818;stroke-width:0.8000000000000002;" x1="536.8" x2="818.4" y1="317.5938" y2="317.5938"/><text fill="#000000" font-family="sans-serif" font-size="10.4" font-weight="bold" lengthAdjust="spacing" textLength="5.6" x="542.4" y="313.7898">9</text><text fill="#000000" font-family="sans-serif" font-size="10.4" lengthAdjust="spacing" textLength="80" x="551.2" y="313.7898">boards = getAll();</text><polygon fill="#181818" points="988,337.2125,996,340.4125,988,343.6125,991.2,340.4125" style="stroke:#181818;stroke-width:0.8000000000000002;"/><line style="stroke:#181818;stroke-width:0.8000000000000002;" x1="831.2" x2="992.8" y1="340.4125" y2="340.4125"/><text fill="#000000" font-family="sans-serif" font-size="10.4" font-weight="bold" lengthAdjust="spacing" textLength="11.2" x="836.8" y="336.6086">10</text><text fill="#000000" font-family="sans-serif" font-size="10.4" lengthAdjust="spacing" textLength="136.8" x="851.2" y="336.6086">boards = getAllSharedBoard()</text><polygon fill="#181818" points="1165.6,360.0313,1173.6,363.2313,1165.6,366.4313,1168.8,363.2313" style="stroke:#181818;stroke-width:0.8000000000000002;"/><line style="stroke:#181818;stroke-width:0.8000000000000002;" x1="1005.6" x2="1170.4" y1="363.2313" y2="363.2313"/><text fill="#000000" font-family="sans-serif" font-size="10.4" font-weight="bold" lengthAdjust="spacing" textLength="11.2" x="1011.2" y="359.4273">11</text><text fill="#000000" font-family="sans-serif" font-size="10.4" lengthAdjust="spacing" textLength="140" x="1025.6" y="359.4273">boards = getAllSharedBoard();</text><path d="M8,399.2313 L66.4,399.2313 L66.4,404.45 L58.4,412.45 L8,412.45 L8,399.2313 " fill="#EEEEEE" style="stroke:#000000;stroke-width:1.2000000000000002;"/><rect fill="none" height="304.6063" style="stroke:#000000;stroke-width:1.2000000000000002;" width="1254.4" x="8" y="399.2313"/><text fill="#000000" font-family="sans-serif" font-size="10.4" font-weight="bold" lengthAdjust="spacing" textLength="22.4" x="20" y="409.4461">loop</text><text fill="#000000" font-family="sans-serif" font-size="8.8" font-weight="bold" lengthAdjust="spacing" textLength="152.8" x="78.4" y="408.7977">[(for Meeting meeting : meetings)]</text><path d="M16,418.05 L64.8,418.05 L64.8,423.2688 L56.8,431.2688 L16,431.2688 L16,418.05 " fill="#EEEEEE" style="stroke:#000000;stroke-width:1.2000000000000002;"/><rect fill="none" height="280.1875" style="stroke:#000000;stroke-width:1.2000000000000002;" width="1238.4" x="16" y="418.05"/><text fill="#000000" font-family="sans-serif" font-size="10.4" font-weight="bold" lengthAdjust="spacing" textLength="12.8" x="28" y="428.2648">alt</text><text fill="#000000" font-family="sans-serif" font-size="8.8" font-weight="bold" lengthAdjust="spacing" textLength="252" x="76.8" y="427.6164">[(meeting.getMeetingState() == MeetingState.ACCEPTED)]</text><line style="stroke:#181818;stroke-width:0.8000000000000002;" x1="536.8" x2="570.4" y1="447.6875" y2="447.6875"/><line style="stroke:#181818;stroke-width:0.8000000000000002;" x1="570.4" x2="570.4" y1="447.6875" y2="458.0875"/><line style="stroke:#181818;stroke-width:0.8000000000000002;" x1="537.6" x2="570.4" y1="458.0875" y2="458.0875"/><polygon fill="#181818" points="545.6,454.8875,537.6,458.0875,545.6,461.2875,542.4,458.0875" style="stroke:#181818;stroke-width:0.8000000000000002;"/><text fill="#000000" font-family="sans-serif" font-size="10.4" font-weight="bold" lengthAdjust="spacing" textLength="11.2" x="542.4" y="443.8836">12</text><text fill="#000000" font-family="sans-serif" font-size="10.4" lengthAdjust="spacing" textLength="260.8" x="556.8" y="443.8836">meetingParticipants = meeting.getMeetingParticipants();</text><path d="M24,470.0875 L82.4,470.0875 L82.4,475.3063 L74.4,483.3063 L24,483.3063 L24,470.0875 " fill="#EEEEEE" style="stroke:#000000;stroke-width:1.2000000000000002;"/><rect fill="none" height="222.55" style="stroke:#000000;stroke-width:1.2000000000000002;" width="1222.4" x="24" y="470.0875"/><text fill="#000000" font-family="sans-serif" font-size="10.4" font-weight="bold" lengthAdjust="spacing" textLength="22.4" x="36" y="480.3023">loop</text><text fill="#000000" font-family="sans-serif" font-size="8.8" font-weight="bold" lengthAdjust="spacing" textLength="276.8" x="94.4" y="479.6539">[(MeetingParticipant meetingParticipant : meetingParticipants)]</text><polygon fill="#181818" points="1072.4,496.525,1080.4,499.725,1072.4,502.925,1075.6,499.725" style="stroke:#181818;stroke-width:0.8000000000000002;"/><line style="stroke:#181818;stroke-width:0.8000000000000002;" x1="536.8" x2="1077.2" y1="499.725" y2="499.725"/><text fill="#000000" font-family="sans-serif" font-size="10.4" font-weight="bold" lengthAdjust="spacing" textLength="11.2" x="542.4" y="495.9211">13</text><text fill="#000000" font-family="sans-serif" font-size="10.4" lengthAdjust="spacing" textLength="131.2" x="556.8" y="495.9211">user1=getParticipantProfile()</text><path d="M32,535.725 L80.8,535.725 L80.8,540.9438 L72.8,548.9438 L32,548.9438 L32,535.725 " fill="#EEEEEE" style="stroke:#000000;stroke-width:1.2000000000000002;"/><rect fill="none" height="151.3125" style="stroke:#000000;stroke-width:1.2000000000000002;" width="1206.4" x="32" y="535.725"/><text fill="#000000" font-family="sans-serif" font-size="10.4" font-weight="bold" lengthAdjust="spacing" textLength="12.8" x="44" y="545.9398">alt</text><text fill="#000000" font-family="sans-serif" font-size="8.8" font-weight="bold" lengthAdjust="spacing" textLength="481.6" x="92.8" y="545.2914">[(user1.equals(user)&amp;&amp; meetingParticipant.getMeetingParticipantState() == MeetingParticipantState.PENDING)]</text><polygon fill="#181818" points="66.8,562.1625,58.8,565.3625,66.8,568.5625,63.6,565.3625" style="stroke:#181818;stroke-width:0.8000000000000002;"/><line style="stroke:#181818;stroke-width:0.8000000000000002;stroke-dasharray:2.0,2.0;" x1="62" x2="532" y1="565.3625" y2="565.3625"/><text fill="#000000" font-family="sans-serif" font-size="10.4" font-weight="bold" lengthAdjust="spacing" textLength="11.2" x="71.6" y="561.5586">14</text><text fill="#000000" font-family="sans-serif" font-size="10.4" lengthAdjust="spacing" textLength="284" x="86" y="561.5586">Shows the meeting and ask for data(meetingParticipantState)</text><polygon fill="#181818" points="519.2,584.9813,527.2,588.1813,519.2,591.3813,522.4,588.1813" style="stroke:#181818;stroke-width:0.8000000000000002;"/><line style="stroke:#181818;stroke-width:0.8000000000000002;" x1="58" x2="524" y1="588.1813" y2="588.1813"/><text fill="#000000" font-family="sans-serif" font-size="10.4" font-weight="bold" lengthAdjust="spacing" textLength="11.2" x="63.6" y="584.3773">15</text><text fill="#000000" font-family="sans-serif" font-size="10.4" lengthAdjust="spacing" textLength="45.6" x="78" y="584.3773">Input data</text><polygon fill="#181818" points="813.6,607.8,821.6,611,813.6,614.2,816.8,611" style="stroke:#181818;stroke-width:0.8000000000000002;"/><line style="stroke:#181818;stroke-width:0.8000000000000002;" x1="536.8" x2="818.4" y1="611" y2="611"/><text fill="#000000" font-family="sans-serif" font-size="10.4" font-weight="bold" lengthAdjust="spacing" textLength="11.2" x="542.4" y="607.1961">16</text><text fill="#000000" font-family="sans-serif" font-size="10.4" lengthAdjust="spacing" textLength="100.8" x="556.8" y="607.1961">saveMeeting(meeting)</text><polygon fill="#181818" points="988,630.6188,996,633.8188,988,637.0188,991.2,633.8188" style="stroke:#181818;stroke-width:0.8000000000000002;"/><line style="stroke:#181818;stroke-width:0.8000000000000002;" x1="831.2" x2="992.8" y1="633.8188" y2="633.8188"/><text fill="#000000" font-family="sans-serif" font-size="10.4" font-weight="bold" lengthAdjust="spacing" textLength="11.2" x="836.8" y="630.0148">17</text><text fill="#000000" font-family="sans-serif" font-size="10.4" lengthAdjust="spacing" textLength="116.8" x="851.2" y="630.0148">addNewMeeting(meeting)</text><polygon fill="#181818" points="1165.6,653.4375,1173.6,656.6375,1165.6,659.8375,1168.8,656.6375" style="stroke:#181818;stroke-width:0.8000000000000002;"/><line style="stroke:#181818;stroke-width:0.8000000000000002;" x1="1005.6" x2="1170.4" y1="656.6375" y2="656.6375"/><text fill="#000000" font-family="sans-serif" font-size="10.4" font-weight="bold" lengthAdjust="spacing" textLength="11.2" x="1011.2" y="652.8336">18</text><text fill="#000000" font-family="sans-serif" font-size="10.4" lengthAdjust="spacing" textLength="64" x="1025.6" y="652.8336">save(meeting)</text><polygon fill="#181818" points="62.8,722.6563,54.8,725.8563,62.8,729.0563,59.6,725.8563" style="stroke:#181818;stroke-width:0.8000000000000002;"/><line style="stroke:#181818;stroke-width:0.8000000000000002;stroke-dasharray:2.0,2.0;" x1="58" x2="532" y1="725.8563" y2="725.8563"/><text fill="#000000" font-family="sans-serif" font-size="10.4" font-weight="bold" lengthAdjust="spacing" textLength="11.2" x="67.6" y="722.0523">19</text><text fill="#000000" font-family="sans-serif" font-size="10.4" lengthAdjust="spacing" textLength="168" x="82" y="722.0523">informs the success of the operation</text><!--MD5=[808b968c63dea9d16073344ba9be9748]
@startuml
'https://plantuml.com/sequence-diagram

autonumber

actor user as "User"

participant ":UsersUI" as ui <<presentation>>
participant ":AcceptMeetingRequestAction" as action <<application>>
participant ":AcceptMeetingRequestUI" as meetUI <<presentation>>
participant ":MeetingController" as controller <<application>>
participant ":MeetingService" as service <<application>>
participant Profile as prof <<domain>>
database ":MeetingRepository" as repository <<repository>>

activate user

user -> ui : Ask to accept or reject a meeting
activate ui
ui -> action : execute()
activate action
action -> meetUI : doShow()
deactivate action
deactivate ui
activate meetUI
meetUI -> controller:meetings=getMeetings()
activate controller
controller -> service :allMeetings=getAllMeetings()
activate service
service -> repository : getAllMeetings()
activate repository
deactivate repository
deactivate service
deactivate controller
meetUI -> meetUI : getUserBoards()
meetUI -> meetUI : name = currentUserProfile.getUser().toString()
meetUI -> controller : boards = getAll();
activate controller
controller -> service : boards = getAllSharedBoard()
activate service
service -> repository : boards = getAllSharedBoard();
activate repository
deactivate repository
deactivate service
deactivate controller
loop (for Meeting meeting : meetings)
    alt (meeting.getMeetingState() == MeetingState.ACCEPTED)
            meetUI -> meetUI : meetingParticipants = meeting.getMeetingParticipants();

        loop (MeetingParticipant meetingParticipant : meetingParticipants)
            meetUI->prof: user1=getParticipantProfile()
            activate prof
            deactivate prof
            alt (user1.equals(user)&& meetingParticipant.getMeetingParticipantState() == MeetingParticipantState.PENDING)
                meetUI - -> user:Shows the meeting and ask for data(meetingParticipantState)
                deactivate meetUI
                user ->meetUI:Input data
                activate meetUI
                meetUI ->controller: saveMeeting(meeting)
                activate controller
                controller -> service:addNewMeeting(meeting)
                activate service
                service -> repository:save(meeting)
                activate repository
                deactivate repository
                deactivate service
                deactivate controller
            end alt
        end loop
    end alt
end loop
meetUI - -> user : informs the success of the operation
deactivate meetUI
deactivate user


@enduml

@startuml

autonumber

actor user as "User"

participant ":UsersUI" as ui <<presentation>>
participant ":AcceptMeetingRequestAction" as action <<application>>
participant ":AcceptMeetingRequestUI" as meetUI <<presentation>>
participant ":MeetingController" as controller <<application>>
participant ":MeetingService" as service <<application>>
participant Profile as prof <<domain>>
database ":MeetingRepository" as repository <<repository>>

activate user

user -> ui : Ask to accept or reject a meeting
activate ui
ui -> action : execute()
activate action
action -> meetUI : doShow()
deactivate action
deactivate ui
activate meetUI
meetUI -> controller:meetings=getMeetings()
activate controller
controller -> service :allMeetings=getAllMeetings()
activate service
service -> repository : getAllMeetings()
activate repository
deactivate repository
deactivate service
deactivate controller
meetUI -> meetUI : getUserBoards()
meetUI -> meetUI : name = currentUserProfile.getUser().toString()
meetUI -> controller : boards = getAll();
activate controller
controller -> service : boards = getAllSharedBoard()
activate service
service -> repository : boards = getAllSharedBoard();
activate repository
deactivate repository
deactivate service
deactivate controller
loop (for Meeting meeting : meetings)
    alt (meeting.getMeetingState() == MeetingState.ACCEPTED)
            meetUI -> meetUI : meetingParticipants = meeting.getMeetingParticipants();

        loop (MeetingParticipant meetingParticipant : meetingParticipants)
            meetUI->prof: user1=getParticipantProfile()
            activate prof
            deactivate prof
            alt (user1.equals(user)&& meetingParticipant.getMeetingParticipantState() == MeetingParticipantState.PENDING)
                meetUI - -> user:Shows the meeting and ask for data(meetingParticipantState)
                deactivate meetUI
                user ->meetUI:Input data
                activate meetUI
                meetUI ->controller: saveMeeting(meeting)
                activate controller
                controller -> service:addNewMeeting(meeting)
                activate service
                service -> repository:save(meeting)
                activate repository
                deactivate repository
                deactivate service
                deactivate controller
            end alt
        end loop
    end alt
end loop
meetUI - -> user : informs the success of the operation
deactivate meetUI
deactivate user


@enduml

PlantUML version 1.2022.12(Sun Oct 23 19:12:26 WEST 2022)
(GPL source distribution)
Java Runtime: OpenJDK Runtime Environment
JVM: OpenJDK 64-Bit Server VM
Default Encoding: Cp1252
Language: pt
Country: PT
--></g></svg>