<?xml version="1.0" encoding="UTF-8" standalone="no"?><svg xmlns="http://www.w3.org/2000/svg" xmlns:xlink="http://www.w3.org/1999/xlink" contentStyleType="text/css" height="596px" preserveAspectRatio="none" style="width:593px;height:596px;background:#FFFFFF;" version="1.1" viewBox="0 0 593 596" width="593px" zoomAndPan="magnify"><defs/><g><rect fill="#FFFFFF" height="407.3828" style="stroke:#181818;stroke-width:1.0;" width="10" x="46" y="90.6406"/><rect fill="#FFFFFF" height="28.5234" style="stroke:#181818;stroke-width:1.0;" width="10" x="539" y="111.1641"/><rect fill="#FFFFFF" height="52.0469" style="stroke:#181818;stroke-width:1.0;" width="10" x="539" y="168.2109"/><rect fill="#FFFFFF" height="243.2422" style="stroke:#181818;stroke-width:1.0;" width="10" x="539" y="248.7813"/><rect fill="none" height="301.8125" style="stroke:#000000;stroke-width:1.5;" width="576" x="10" y="183.2109"/><line style="stroke:#181818;stroke-width:0.5;stroke-dasharray:5.0,5.0;" x1="51" x2="51" y1="80.6406" y2="516.0234"/><line style="stroke:#181818;stroke-width:0.5;stroke-dasharray:5.0,5.0;" x1="544" x2="544" y1="80.6406" y2="516.0234"/><text fill="#000000" font-family="sans-serif" font-size="14" lengthAdjust="spacing" textLength="56" x="20" y="77.6738">Manager</text><ellipse cx="51" cy="13.5" fill="#E2E2F0" rx="8" ry="8" style="stroke:#181818;stroke-width:0.5;"/><path d="M51,21.5 L51,48.5 M38,29.5 L64,29.5 M51,48.5 L38,63.5 M51,48.5 L64,63.5 " fill="none" style="stroke:#181818;stroke-width:0.5;"/><text fill="#000000" font-family="sans-serif" font-size="14" lengthAdjust="spacing" textLength="56" x="20" y="527.6973">Manager</text><ellipse cx="51" cy="539.1641" fill="#E2E2F0" rx="8" ry="8" style="stroke:#181818;stroke-width:0.5;"/><path d="M51,547.1641 L51,574.1641 M38,555.1641 L64,555.1641 M51,574.1641 L38,589.1641 M51,574.1641 L64,589.1641 " fill="none" style="stroke:#181818;stroke-width:0.5;"/><rect fill="#E2E2F0" height="29.6406" rx="2.5" ry="2.5" style="stroke:#181818;stroke-width:0.5;" width="64" x="512" y="50"/><text fill="#000000" font-family="sans-serif" font-size="14" lengthAdjust="spacing" textLength="50" x="519" y="69.6738">:System</text><rect fill="#E2E2F0" height="29.6406" rx="2.5" ry="2.5" style="stroke:#181818;stroke-width:0.5;" width="64" x="512" y="515.0234"/><text fill="#000000" font-family="sans-serif" font-size="14" lengthAdjust="spacing" textLength="50" x="519" y="534.6973">:System</text><rect fill="#FFFFFF" height="407.3828" style="stroke:#181818;stroke-width:1.0;" width="10" x="46" y="90.6406"/><rect fill="#FFFFFF" height="28.5234" style="stroke:#181818;stroke-width:1.0;" width="10" x="539" y="111.1641"/><rect fill="#FFFFFF" height="52.0469" style="stroke:#181818;stroke-width:1.0;" width="10" x="539" y="168.2109"/><rect fill="#FFFFFF" height="243.2422" style="stroke:#181818;stroke-width:1.0;" width="10" x="539" y="248.7813"/><polygon fill="#181818" points="527,107.1641,537,111.1641,527,115.1641,531,111.1641" style="stroke:#181818;stroke-width:1.0;"/><line style="stroke:#181818;stroke-width:1.0;" x1="56" x2="533" y1="111.1641" y2="111.1641"/><text fill="#000000" font-family="sans-serif" font-size="13" font-weight="bold" lengthAdjust="spacing" textLength="7" x="63" y="106.4092">1</text><text fill="#000000" font-family="sans-serif" font-size="13" lengthAdjust="spacing" textLength="139" x="74" y="106.4092">Starts add user process</text><polygon fill="#181818" points="67,135.6875,57,139.6875,67,143.6875,63,139.6875" style="stroke:#181818;stroke-width:1.0;"/><line style="stroke:#181818;stroke-width:1.0;stroke-dasharray:2.0,2.0;" x1="61" x2="543" y1="139.6875" y2="139.6875"/><text fill="#000000" font-family="sans-serif" font-size="13" font-weight="bold" lengthAdjust="spacing" textLength="7" x="73" y="134.9326">2</text><text fill="#000000" font-family="sans-serif" font-size="13" lengthAdjust="spacing" textLength="410" x="84" y="134.9326">Requests data (username, password, firstName, lastName, email, role)</text><polygon fill="#181818" points="527,164.2109,537,168.2109,527,172.2109,531,168.2109" style="stroke:#181818;stroke-width:1.0;"/><line style="stroke:#181818;stroke-width:1.0;" x1="56" x2="533" y1="168.2109" y2="168.2109"/><text fill="#000000" font-family="sans-serif" font-size="13" font-weight="bold" lengthAdjust="spacing" textLength="7" x="63" y="163.4561">3</text><text fill="#000000" font-family="sans-serif" font-size="13" lengthAdjust="spacing" textLength="64" x="74" y="163.4561">inputs data</text><path d="M10,183.2109 L71,183.2109 L71,189.7344 L61,199.7344 L10,199.7344 L10,183.2109 " fill="#EEEEEE" style="stroke:#000000;stroke-width:1.5;"/><rect fill="none" height="301.8125" style="stroke:#000000;stroke-width:1.5;" width="576" x="10" y="183.2109"/><text fill="#000000" font-family="sans-serif" font-size="13" font-weight="bold" lengthAdjust="spacing" textLength="16" x="25" y="195.9795">alt</text><text fill="#000000" font-family="sans-serif" font-size="11" font-weight="bold" lengthAdjust="spacing" textLength="51" x="86" y="195.1689">[Student]</text><polygon fill="#181818" points="67,216.2578,57,220.2578,67,224.2578,63,220.2578" style="stroke:#181818;stroke-width:1.0;"/><line style="stroke:#181818;stroke-width:1.0;stroke-dasharray:2.0,2.0;" x1="61" x2="543" y1="220.2578" y2="220.2578"/><text fill="#000000" font-family="sans-serif" font-size="13" font-weight="bold" lengthAdjust="spacing" textLength="7" x="73" y="215.5029">4</text><text fill="#000000" font-family="sans-serif" font-size="13" lengthAdjust="spacing" textLength="448" x="84" y="215.5029">Requests studentData(mecanographicNumber, taxPayerNumber, dateOfBirth)</text><polygon fill="#181818" points="527,244.7813,537,248.7813,527,252.7813,531,248.7813" style="stroke:#181818;stroke-width:1.0;"/><line style="stroke:#181818;stroke-width:1.0;" x1="56" x2="533" y1="248.7813" y2="248.7813"/><text fill="#000000" font-family="sans-serif" font-size="13" font-weight="bold" lengthAdjust="spacing" textLength="7" x="63" y="244.0264">5</text><text fill="#000000" font-family="sans-serif" font-size="13" lengthAdjust="spacing" textLength="64" x="74" y="244.0264">inputs data</text><polygon fill="#181818" points="67,273.3047,57,277.3047,67,281.3047,63,277.3047" style="stroke:#181818;stroke-width:1.0;"/><line style="stroke:#181818;stroke-width:1.0;stroke-dasharray:2.0,2.0;" x1="61" x2="538" y1="277.3047" y2="277.3047"/><text fill="#000000" font-family="sans-serif" font-size="13" font-weight="bold" lengthAdjust="spacing" textLength="7" x="73" y="272.5498">6</text><text fill="#000000" font-family="sans-serif" font-size="13" lengthAdjust="spacing" textLength="119" x="84" y="272.5498">Confirms registration</text><line style="stroke:#000000;stroke-width:1.0;stroke-dasharray:2.0,2.0;" x1="10" x2="586" y1="286.3047" y2="286.3047"/><text fill="#000000" font-family="sans-serif" font-size="11" font-weight="bold" lengthAdjust="spacing" textLength="53" x="15" y="296.2627">[Teacher]</text><polygon fill="#181818" points="67,316.1172,57,320.1172,67,324.1172,63,320.1172" style="stroke:#181818;stroke-width:1.0;"/><line style="stroke:#181818;stroke-width:1.0;stroke-dasharray:2.0,2.0;" x1="61" x2="538" y1="320.1172" y2="320.1172"/><text fill="#000000" font-family="sans-serif" font-size="13" font-weight="bold" lengthAdjust="spacing" textLength="7" x="73" y="315.3623">4</text><text fill="#000000" font-family="sans-serif" font-size="13" lengthAdjust="spacing" textLength="365" x="84" y="315.3623">Requests studentData(acronym, taxPayerNumber, dateOfBirth)</text><polygon fill="#181818" points="527,344.6406,537,348.6406,527,352.6406,531,348.6406" style="stroke:#181818;stroke-width:1.0;"/><line style="stroke:#181818;stroke-width:1.0;" x1="56" x2="533" y1="348.6406" y2="348.6406"/><text fill="#000000" font-family="sans-serif" font-size="13" font-weight="bold" lengthAdjust="spacing" textLength="7" x="63" y="343.8857">5</text><text fill="#000000" font-family="sans-serif" font-size="13" lengthAdjust="spacing" textLength="64" x="74" y="343.8857">inputs data</text><polygon fill="#181818" points="67,373.1641,57,377.1641,67,381.1641,63,377.1641" style="stroke:#181818;stroke-width:1.0;"/><line style="stroke:#181818;stroke-width:1.0;stroke-dasharray:2.0,2.0;" x1="61" x2="538" y1="377.1641" y2="377.1641"/><text fill="#000000" font-family="sans-serif" font-size="13" font-weight="bold" lengthAdjust="spacing" textLength="7" x="73" y="372.4092">6</text><text fill="#000000" font-family="sans-serif" font-size="13" lengthAdjust="spacing" textLength="119" x="84" y="372.4092">Confirms registration</text><line style="stroke:#000000;stroke-width:1.0;stroke-dasharray:2.0,2.0;" x1="10" x2="586" y1="386.1641" y2="386.1641"/><text fill="#000000" font-family="sans-serif" font-size="11" font-weight="bold" lengthAdjust="spacing" textLength="56" x="15" y="396.1221">[Manager]</text><polygon fill="#181818" points="67,415.9766,57,419.9766,67,423.9766,63,419.9766" style="stroke:#181818;stroke-width:1.0;"/><line style="stroke:#181818;stroke-width:1.0;stroke-dasharray:2.0,2.0;" x1="61" x2="538" y1="419.9766" y2="419.9766"/><text fill="#000000" font-family="sans-serif" font-size="13" font-weight="bold" lengthAdjust="spacing" textLength="7" x="73" y="415.2217">4</text><text fill="#000000" font-family="sans-serif" font-size="13" lengthAdjust="spacing" textLength="307" x="84" y="415.2217">Requests studentData(taxPayerNumber, dateOfBirth)</text><polygon fill="#181818" points="527,444.5,537,448.5,527,452.5,531,448.5" style="stroke:#181818;stroke-width:1.0;"/><line style="stroke:#181818;stroke-width:1.0;" x1="56" x2="533" y1="448.5" y2="448.5"/><text fill="#000000" font-family="sans-serif" font-size="13" font-weight="bold" lengthAdjust="spacing" textLength="7" x="63" y="443.7451">5</text><text fill="#000000" font-family="sans-serif" font-size="13" lengthAdjust="spacing" textLength="64" x="74" y="443.7451">inputs data</text><polygon fill="#181818" points="67,473.0234,57,477.0234,67,481.0234,63,477.0234" style="stroke:#181818;stroke-width:1.0;"/><line style="stroke:#181818;stroke-width:1.0;stroke-dasharray:2.0,2.0;" x1="61" x2="538" y1="477.0234" y2="477.0234"/><text fill="#000000" font-family="sans-serif" font-size="13" font-weight="bold" lengthAdjust="spacing" textLength="7" x="73" y="472.2686">6</text><text fill="#000000" font-family="sans-serif" font-size="13" lengthAdjust="spacing" textLength="119" x="84" y="472.2686">Confirms registration</text><polygon fill="#181818" points="62,494.0234,52,498.0234,62,502.0234,58,498.0234" style="stroke:#181818;stroke-width:1.0;"/><line style="stroke:#181818;stroke-width:1.0;stroke-dasharray:2.0,2.0;" x1="56" x2="543" y1="498.0234" y2="498.0234"/><!--MD5=[4a3f74ac9d59e579720f498f5f889aa0]
@startuml

autonumber
actor "Manager" as Manager

activate Manager
Manager -> ":System" : Starts add user process
activate ":System"
":System" - -> Manager : Requests data (username, password, firstName, lastName, email, role)
deactivate ":System"
Manager -> ":System" : inputs data

activate ":System"
alt Student
    ":System" - -> Manager : Requests studentData(mecanographicNumber, taxPayerNumber, dateOfBirth)
    deactivate ":System"
    Manager -> ":System" : inputs data
    activate ":System"
    ":System" - -> Manager: Confirms registration

autonumber stop
else Teacher

    ":System" - -> Manager : **4** Requests studentData(acronym, taxPayerNumber, dateOfBirth)
        Manager -> ":System" : **5** inputs data
        ":System" - -> Manager: **6** Confirms registration
else Manager
        ":System" - -> Manager : **4** Requests studentData(taxPayerNumber, dateOfBirth)
        Manager -> ":System" : **5** inputs data
        ":System" - -> Manager: **6** Confirms registration
end
deactivate ":System"
activate ":System"
":System" - -> Manager :
deactivate Manager
deactivate ":System"


@enduml

PlantUML version 1.2022.12(Sun Oct 23 19:12:26 WEST 2022)
(GPL source distribution)
Java Runtime: OpenJDK Runtime Environment
JVM: OpenJDK 64-Bit Server VM
Default Encoding: Cp1252
Language: en
Country: GB
--></g></svg>