<?xml version="1.0" encoding="us-ascii" standalone="no"?><svg xmlns="http://www.w3.org/2000/svg" xmlns:xlink="http://www.w3.org/1999/xlink" contentStyleType="text/css" height="1184px" preserveAspectRatio="none" style="width:1394px;height:1184px;background:#FFFFFF;" version="1.1" viewBox="0 0 1394 1184" width="1394px" zoomAndPan="magnify"><defs/><g><!--entity ProfileRepository--><g id="elem_ProfileRepository"><path d="M1204.5,1130 C1204.5,1120 1268.5,1120 1268.5,1120 C1268.5,1120 1332.5,1120 1332.5,1130 L1332.5,1157.6211 C1332.5,1167.6211 1268.5,1167.6211 1268.5,1167.6211 C1268.5,1167.6211 1204.5,1167.6211 1204.5,1157.6211 L1204.5,1130 " fill="#F1F1F1" style="stroke:#181818;stroke-width:0.5;"/><path d="M1204.5,1130 C1204.5,1140 1268.5,1140 1268.5,1140 C1268.5,1140 1332.5,1140 1332.5,1130 " fill="none" style="stroke:#181818;stroke-width:0.5;"/><text fill="#000000" font-family="sans-serif" font-size="14" lengthAdjust="spacing" textLength="108" x="1214.5" y="1159.1074">ProfileRepository</text></g><!--entity UserRepository--><g id="elem_UserRepository"><path d="M285,812 C285,802 343.5,802 343.5,802 C343.5,802 402,802 402,812 L402,839.6211 C402,849.6211 343.5,849.6211 343.5,849.6211 C343.5,849.6211 285,849.6211 285,839.6211 L285,812 " fill="#F1F1F1" style="stroke:#181818;stroke-width:0.5;"/><path d="M285,812 C285,822 343.5,822 343.5,822 C343.5,822 402,822 402,812 " fill="none" style="stroke:#181818;stroke-width:0.5;"/><text fill="#000000" font-family="sans-serif" font-size="14" lengthAdjust="spacing" textLength="97" x="295" y="841.1074">UserRepository</text></g><!--entity StudentRegistrationRepository--><g id="elem_StudentRegistrationRepository"><path d="M616,1003.5 C616,993.5 722.5,993.5 722.5,993.5 C722.5,993.5 829,993.5 829,1003.5 L829,1031.1211 C829,1041.1211 722.5,1041.1211 722.5,1041.1211 C722.5,1041.1211 616,1041.1211 616,1031.1211 L616,1003.5 " fill="#F1F1F1" style="stroke:#181818;stroke-width:0.5;"/><path d="M616,1003.5 C616,1013.5 722.5,1013.5 722.5,1013.5 C722.5,1013.5 829,1013.5 829,1003.5 " fill="none" style="stroke:#181818;stroke-width:0.5;"/><text fill="#000000" font-family="sans-serif" font-size="14" lengthAdjust="spacing" textLength="193" x="626" y="1032.6074">StudentRegistrationRepository</text></g><!--class ImportStudentsUI--><g id="elem_ImportStudentsUI"><rect codeLine="54" fill="#F1F1F1" height="48" id="ImportStudentsUI" rx="2.5" ry="2.5" style="stroke:#181818;stroke-width:0.5;" width="139" x="836" y="7"/><ellipse cx="851" cy="23" fill="#ADD1B2" rx="11" ry="11" style="stroke:#181818;stroke-width:1.0;"/><path d="M853.7656,18.875 Q853.9219,18.6563 854.1094,18.5469 Q854.2969,18.4375 854.5156,18.4375 Q854.8906,18.4375 855.125,18.7031 Q855.3594,18.9531 855.3594,19.5625 L855.3594,21.0156 Q855.3594,21.625 855.125,21.8906 Q854.8906,22.1563 854.5156,22.1563 Q854.1719,22.1563 853.9688,21.9531 Q853.7656,21.7656 853.6563,21.25 Q853.6094,20.8906 853.4219,20.7031 Q853.0938,20.3281 852.4844,20.1094 Q851.875,19.8906 851.25,19.8906 Q850.4844,19.8906 849.8438,20.2188 Q849.2188,20.5469 848.7188,21.2969 Q848.2344,22.0469 848.2344,23.0781 L848.2344,24.1719 Q848.2344,25.4063 849.125,26.2344 Q850.0156,27.0469 851.6094,27.0469 Q852.5469,27.0469 853.2031,26.7969 Q853.5938,26.6406 854.0156,26.2031 Q854.2813,25.9375 854.4219,25.8594 Q854.5781,25.7813 854.7813,25.7813 Q855.1094,25.7813 855.3594,26.0469 Q855.625,26.2969 855.625,26.6406 Q855.625,26.9844 855.2813,27.3906 Q854.7813,27.9688 853.9844,28.2969 Q852.9063,28.75 851.6094,28.75 Q850.0938,28.75 848.8906,28.125 Q847.9063,27.625 847.2188,26.5625 Q846.5313,25.4844 846.5313,24.2031 L846.5313,23.0469 Q846.5313,21.7188 847.1406,20.5781 Q847.7656,19.4219 848.8594,18.8125 Q849.9531,18.1875 851.1875,18.1875 Q851.9219,18.1875 852.5625,18.3594 Q853.2188,18.5156 853.7656,18.875 Z " fill="#000000"/><text fill="#000000" font-family="sans-serif" font-size="14" lengthAdjust="spacing" textLength="107" x="865" y="28.7969">ImportStudentsUI</text><line style="stroke:#181818;stroke-width:0.5;" x1="837" x2="974" y1="39" y2="39"/><line style="stroke:#181818;stroke-width:0.5;" x1="837" x2="974" y1="47" y2="47"/></g><!--class AddUserController--><g id="elem_AddUserController"><rect codeLine="6" fill="#F1F1F1" height="66.6211" id="AddUserController" rx="2.5" ry="2.5" style="stroke:#181818;stroke-width:0.5;" width="515" x="32" y="161.5"/><ellipse cx="227.25" cy="177.5" fill="#ADD1B2" rx="11" ry="11" style="stroke:#181818;stroke-width:1.0;"/><path d="M230.0156,173.375 Q230.1719,173.1563 230.3594,173.0469 Q230.5469,172.9375 230.7656,172.9375 Q231.1406,172.9375 231.375,173.2031 Q231.6094,173.4531 231.6094,174.0625 L231.6094,175.5156 Q231.6094,176.125 231.375,176.3906 Q231.1406,176.6563 230.7656,176.6563 Q230.4219,176.6563 230.2188,176.4531 Q230.0156,176.2656 229.9063,175.75 Q229.8594,175.3906 229.6719,175.2031 Q229.3438,174.8281 228.7344,174.6094 Q228.125,174.3906 227.5,174.3906 Q226.7344,174.3906 226.0938,174.7188 Q225.4688,175.0469 224.9688,175.7969 Q224.4844,176.5469 224.4844,177.5781 L224.4844,178.6719 Q224.4844,179.9063 225.375,180.7344 Q226.2656,181.5469 227.8594,181.5469 Q228.7969,181.5469 229.4531,181.2969 Q229.8438,181.1406 230.2656,180.7031 Q230.5313,180.4375 230.6719,180.3594 Q230.8281,180.2813 231.0313,180.2813 Q231.3594,180.2813 231.6094,180.5469 Q231.875,180.7969 231.875,181.1406 Q231.875,181.4844 231.5313,181.8906 Q231.0313,182.4688 230.2344,182.7969 Q229.1563,183.25 227.8594,183.25 Q226.3438,183.25 225.1406,182.625 Q224.1563,182.125 223.4688,181.0625 Q222.7813,179.9844 222.7813,178.7031 L222.7813,177.5469 Q222.7813,176.2188 223.3906,175.0781 Q224.0156,173.9219 225.1094,173.3125 Q226.2031,172.6875 227.4375,172.6875 Q228.1719,172.6875 228.8125,172.8594 Q229.4688,173.0156 230.0156,173.375 Z " fill="#000000"/><text fill="#000000" font-family="sans-serif" font-size="14" lengthAdjust="spacing" textLength="116" x="247.75" y="183.2969">AddUserController</text><line style="stroke:#181818;stroke-width:0.5;" x1="33" x2="546" y1="193.5" y2="193.5"/><line style="stroke:#181818;stroke-width:0.5;" x1="33" x2="546" y1="201.5" y2="201.5"/><ellipse cx="43" cy="216.3105" fill="#84BE84" rx="3" ry="3" style="stroke:#038048;stroke-width:1.0;"/><text fill="#000000" font-family="sans-serif" font-size="14" lengthAdjust="spacing" textLength="489" x="52" y="220.6074">addUser(username, password, firstName, lastName, email, role, creationDate)</text></g><!--class ProfileController--><g id="elem_ProfileController"><rect codeLine="10" fill="#F1F1F1" height="178.3477" id="ProfileController" rx="2.5" ry="2.5" style="stroke:#181818;stroke-width:0.5;" width="172" x="1092.5" y="737"/><ellipse cx="1124.6" cy="753" fill="#ADD1B2" rx="11" ry="11" style="stroke:#181818;stroke-width:1.0;"/><path d="M1127.3656,748.875 Q1127.5219,748.6563 1127.7094,748.5469 Q1127.8969,748.4375 1128.1156,748.4375 Q1128.4906,748.4375 1128.725,748.7031 Q1128.9594,748.9531 1128.9594,749.5625 L1128.9594,751.0156 Q1128.9594,751.625 1128.725,751.8906 Q1128.4906,752.1563 1128.1156,752.1563 Q1127.7719,752.1563 1127.5688,751.9531 Q1127.3656,751.7656 1127.2563,751.25 Q1127.2094,750.8906 1127.0219,750.7031 Q1126.6938,750.3281 1126.0844,750.1094 Q1125.475,749.8906 1124.85,749.8906 Q1124.0844,749.8906 1123.4438,750.2188 Q1122.8188,750.5469 1122.3188,751.2969 Q1121.8344,752.0469 1121.8344,753.0781 L1121.8344,754.1719 Q1121.8344,755.4063 1122.725,756.2344 Q1123.6156,757.0469 1125.2094,757.0469 Q1126.1469,757.0469 1126.8031,756.7969 Q1127.1938,756.6406 1127.6156,756.2031 Q1127.8813,755.9375 1128.0219,755.8594 Q1128.1781,755.7813 1128.3813,755.7813 Q1128.7094,755.7813 1128.9594,756.0469 Q1129.225,756.2969 1129.225,756.6406 Q1129.225,756.9844 1128.8813,757.3906 Q1128.3813,757.9688 1127.5844,758.2969 Q1126.5063,758.75 1125.2094,758.75 Q1123.6938,758.75 1122.4906,758.125 Q1121.5063,757.625 1120.8188,756.5625 Q1120.1313,755.4844 1120.1313,754.2031 L1120.1313,753.0469 Q1120.1313,751.7188 1120.7406,750.5781 Q1121.3656,749.4219 1122.4594,748.8125 Q1123.5531,748.1875 1124.7875,748.1875 Q1125.5219,748.1875 1126.1625,748.3594 Q1126.8188,748.5156 1127.3656,748.875 Z " fill="#000000"/><text fill="#000000" font-family="sans-serif" font-size="14" lengthAdjust="spacing" textLength="102" x="1142.4" y="758.7969">ProfileController</text><line style="stroke:#181818;stroke-width:0.5;" x1="1093.5" x2="1263.5" y1="769" y2="769"/><line style="stroke:#181818;stroke-width:0.5;" x1="1093.5" x2="1263.5" y1="777" y2="777"/><ellipse cx="1103.5" cy="791.8105" fill="#84BE84" rx="3" ry="3" style="stroke:#038048;stroke-width:1.0;"/><text fill="#000000" font-family="sans-serif" font-size="14" lengthAdjust="spacing" textLength="143" x="1112.5" y="796.1074">createTeacherProfile()</text><ellipse cx="1103.5" cy="810.4316" fill="#84BE84" rx="3" ry="3" style="stroke:#038048;stroke-width:1.0;"/><text fill="#000000" font-family="sans-serif" font-size="14" lengthAdjust="spacing" textLength="139" x="1112.5" y="814.7285">createStudentProfile()</text><ellipse cx="1103.5" cy="829.0527" fill="#84BE84" rx="3" ry="3" style="stroke:#038048;stroke-width:1.0;"/><text fill="#000000" font-family="sans-serif" font-size="14" lengthAdjust="spacing" textLength="146" x="1112.5" y="833.3496">createManagerProfile()</text><ellipse cx="1103.5" cy="847.6738" fill="#84BE84" rx="3" ry="3" style="stroke:#038048;stroke-width:1.0;"/><text fill="#000000" font-family="sans-serif" font-size="14" lengthAdjust="spacing" textLength="127" x="1112.5" y="851.9707">getUserProfile(user)</text><ellipse cx="1103.5" cy="866.2949" fill="#84BE84" rx="3" ry="3" style="stroke:#038048;stroke-width:1.0;"/><text fill="#000000" font-family="sans-serif" font-size="14" lengthAdjust="spacing" textLength="130" x="1112.5" y="870.5918">getTeacherProfiles()</text><ellipse cx="1103.5" cy="884.916" fill="#84BE84" rx="3" ry="3" style="stroke:#038048;stroke-width:1.0;"/><text fill="#000000" font-family="sans-serif" font-size="14" lengthAdjust="spacing" textLength="126" x="1112.5" y="889.2129">getStudentProfiles()</text><ellipse cx="1103.5" cy="903.5371" fill="#84BE84" rx="3" ry="3" style="stroke:#038048;stroke-width:1.0;"/><text fill="#000000" font-family="sans-serif" font-size="14" lengthAdjust="spacing" textLength="133" x="1112.5" y="907.834">getManagerProfiles()</text></g><!--class ProfileService--><g id="elem_ProfileService"><rect codeLine="20" fill="#F1F1F1" height="85.2422" id="ProfileService" rx="2.5" ry="2.5" style="stroke:#181818;stroke-width:0.5;" width="218" x="1159.5" y="975"/><ellipse cx="1220.75" cy="991" fill="#ADD1B2" rx="11" ry="11" style="stroke:#181818;stroke-width:1.0;"/><path d="M1223.5156,986.875 Q1223.6719,986.6563 1223.8594,986.5469 Q1224.0469,986.4375 1224.2656,986.4375 Q1224.6406,986.4375 1224.875,986.7031 Q1225.1094,986.9531 1225.1094,987.5625 L1225.1094,989.0156 Q1225.1094,989.625 1224.875,989.8906 Q1224.6406,990.1563 1224.2656,990.1563 Q1223.9219,990.1563 1223.7188,989.9531 Q1223.5156,989.7656 1223.4063,989.25 Q1223.3594,988.8906 1223.1719,988.7031 Q1222.8438,988.3281 1222.2344,988.1094 Q1221.625,987.8906 1221,987.8906 Q1220.2344,987.8906 1219.5938,988.2188 Q1218.9688,988.5469 1218.4688,989.2969 Q1217.9844,990.0469 1217.9844,991.0781 L1217.9844,992.1719 Q1217.9844,993.4063 1218.875,994.2344 Q1219.7656,995.0469 1221.3594,995.0469 Q1222.2969,995.0469 1222.9531,994.7969 Q1223.3438,994.6406 1223.7656,994.2031 Q1224.0313,993.9375 1224.1719,993.8594 Q1224.3281,993.7813 1224.5313,993.7813 Q1224.8594,993.7813 1225.1094,994.0469 Q1225.375,994.2969 1225.375,994.6406 Q1225.375,994.9844 1225.0313,995.3906 Q1224.5313,995.9688 1223.7344,996.2969 Q1222.6563,996.75 1221.3594,996.75 Q1219.8438,996.75 1218.6406,996.125 Q1217.6563,995.625 1216.9688,994.5625 Q1216.2813,993.4844 1216.2813,992.2031 L1216.2813,991.0469 Q1216.2813,989.7188 1216.8906,988.5781 Q1217.5156,987.4219 1218.6094,986.8125 Q1219.7031,986.1875 1220.9375,986.1875 Q1221.6719,986.1875 1222.3125,986.3594 Q1222.9688,986.5156 1223.5156,986.875 Z " fill="#000000"/><text fill="#000000" font-family="sans-serif" font-size="14" lengthAdjust="spacing" textLength="87" x="1241.25" y="996.7969">ProfileService</text><line style="stroke:#181818;stroke-width:0.5;" x1="1160.5" x2="1376.5" y1="1007" y2="1007"/><line style="stroke:#181818;stroke-width:0.5;" x1="1160.5" x2="1376.5" y1="1015" y2="1015"/><ellipse cx="1170.5" cy="1029.8105" fill="#84BE84" rx="3" ry="3" style="stroke:#038048;stroke-width:1.0;"/><text fill="#000000" font-family="sans-serif" font-size="14" lengthAdjust="spacing" textLength="139" x="1179.5" y="1034.1074">addNewProfile(profile)</text><ellipse cx="1170.5" cy="1048.4316" fill="#84BE84" rx="3" ry="3" style="stroke:#038048;stroke-width:1.0;"/><text fill="#000000" font-family="sans-serif" font-size="14" lengthAdjust="spacing" textLength="192" x="1179.5" y="1052.7285">getProfileFromDatabase(user)</text></g><!--class UserManagementService--><g id="elem_UserManagementService"><rect codeLine="25" fill="#F1F1F1" height="66.6211" id="UserManagementService" rx="2.5" ry="2.5" style="stroke:#181818;stroke-width:0.5;" width="565" x="7" y="563.5"/><ellipse cx="206.25" cy="579.5" fill="#ADD1B2" rx="11" ry="11" style="stroke:#181818;stroke-width:1.0;"/><path d="M209.0156,575.375 Q209.1719,575.1563 209.3594,575.0469 Q209.5469,574.9375 209.7656,574.9375 Q210.1406,574.9375 210.375,575.2031 Q210.6094,575.4531 210.6094,576.0625 L210.6094,577.5156 Q210.6094,578.125 210.375,578.3906 Q210.1406,578.6563 209.7656,578.6563 Q209.4219,578.6563 209.2188,578.4531 Q209.0156,578.2656 208.9063,577.75 Q208.8594,577.3906 208.6719,577.2031 Q208.3438,576.8281 207.7344,576.6094 Q207.125,576.3906 206.5,576.3906 Q205.7344,576.3906 205.0938,576.7188 Q204.4688,577.0469 203.9688,577.7969 Q203.4844,578.5469 203.4844,579.5781 L203.4844,580.6719 Q203.4844,581.9063 204.375,582.7344 Q205.2656,583.5469 206.8594,583.5469 Q207.7969,583.5469 208.4531,583.2969 Q208.8438,583.1406 209.2656,582.7031 Q209.5313,582.4375 209.6719,582.3594 Q209.8281,582.2813 210.0313,582.2813 Q210.3594,582.2813 210.6094,582.5469 Q210.875,582.7969 210.875,583.1406 Q210.875,583.4844 210.5313,583.8906 Q210.0313,584.4688 209.2344,584.7969 Q208.1563,585.25 206.8594,585.25 Q205.3438,585.25 204.1406,584.625 Q203.1563,584.125 202.4688,583.0625 Q201.7813,581.9844 201.7813,580.7031 L201.7813,579.5469 Q201.7813,578.2188 202.3906,577.0781 Q203.0156,575.9219 204.1094,575.3125 Q205.2031,574.6875 206.4375,574.6875 Q207.1719,574.6875 207.8125,574.8594 Q208.4688,575.0156 209.0156,575.375 Z " fill="#000000"/><text fill="#000000" font-family="sans-serif" font-size="14" lengthAdjust="spacing" textLength="158" x="226.75" y="585.2969">UserManagementService</text><line style="stroke:#181818;stroke-width:0.5;" x1="8" x2="571" y1="595.5" y2="595.5"/><line style="stroke:#181818;stroke-width:0.5;" x1="8" x2="571" y1="603.5" y2="603.5"/><ellipse cx="18" cy="618.3105" fill="#84BE84" rx="3" ry="3" style="stroke:#038048;stroke-width:1.0;"/><text fill="#000000" font-family="sans-serif" font-size="14" lengthAdjust="spacing" textLength="539" x="27" y="622.6074">registerNewUser(username, password, firstName, lastName, email, role, creationDate)</text></g><!--class PersistenceContext--><g id="elem_PersistenceContext"><rect codeLine="73" fill="#F1F1F1" height="85.2422" id="PersistenceContext" rx="2.5" ry="2.5" style="stroke:#181818;stroke-width:0.5;" width="154" x="645.5" y="353.5"/><ellipse cx="660.5" cy="369.5" fill="#ADD1B2" rx="11" ry="11" style="stroke:#181818;stroke-width:1.0;"/><path d="M663.2656,365.375 Q663.4219,365.1563 663.6094,365.0469 Q663.7969,364.9375 664.0156,364.9375 Q664.3906,364.9375 664.625,365.2031 Q664.8594,365.4531 664.8594,366.0625 L664.8594,367.5156 Q664.8594,368.125 664.625,368.3906 Q664.3906,368.6563 664.0156,368.6563 Q663.6719,368.6563 663.4688,368.4531 Q663.2656,368.2656 663.1563,367.75 Q663.1094,367.3906 662.9219,367.2031 Q662.5938,366.8281 661.9844,366.6094 Q661.375,366.3906 660.75,366.3906 Q659.9844,366.3906 659.3438,366.7188 Q658.7188,367.0469 658.2188,367.7969 Q657.7344,368.5469 657.7344,369.5781 L657.7344,370.6719 Q657.7344,371.9063 658.625,372.7344 Q659.5156,373.5469 661.1094,373.5469 Q662.0469,373.5469 662.7031,373.2969 Q663.0938,373.1406 663.5156,372.7031 Q663.7813,372.4375 663.9219,372.3594 Q664.0781,372.2813 664.2813,372.2813 Q664.6094,372.2813 664.8594,372.5469 Q665.125,372.7969 665.125,373.1406 Q665.125,373.4844 664.7813,373.8906 Q664.2813,374.4688 663.4844,374.7969 Q662.4063,375.25 661.1094,375.25 Q659.5938,375.25 658.3906,374.625 Q657.4063,374.125 656.7188,373.0625 Q656.0313,371.9844 656.0313,370.7031 L656.0313,369.5469 Q656.0313,368.2188 656.6406,367.0781 Q657.2656,365.9219 658.3594,365.3125 Q659.4531,364.6875 660.6875,364.6875 Q661.4219,364.6875 662.0625,364.8594 Q662.7188,365.0156 663.2656,365.375 Z " fill="#000000"/><text fill="#000000" font-family="sans-serif" font-size="14" lengthAdjust="spacing" textLength="122" x="674.5" y="375.2969">PersistenceContext</text><line style="stroke:#181818;stroke-width:0.5;" x1="646.5" x2="798.5" y1="385.5" y2="385.5"/><line style="stroke:#181818;stroke-width:0.5;" x1="646.5" x2="798.5" y1="393.5" y2="393.5"/><ellipse cx="656.5" cy="408.3105" fill="#84BE84" rx="3" ry="3" style="stroke:#038048;stroke-width:1.0;"/><text fill="#000000" font-family="sans-serif" font-size="14" lengthAdjust="spacing" textLength="84" x="665.5" y="412.6074">repositories()</text><ellipse cx="656.5" cy="426.9316" fill="#84BE84" rx="3" ry="3" style="stroke:#038048;stroke-width:1.0;"/><text fill="#000000" font-family="sans-serif" font-size="14" lengthAdjust="spacing" textLength="84" x="665.5" y="431.2285">repositories()</text></g><!--class RepositoryFactory--><g id="elem_RepositoryFactory"><rect codeLine="77" fill="#F1F1F1" height="159.7266" id="RepositoryFactory" rx="2.5" ry="2.5" style="stroke:#181818;stroke-width:0.5;" width="231" x="607" y="517"/><ellipse cx="660.25" cy="533" fill="#ADD1B2" rx="11" ry="11" style="stroke:#181818;stroke-width:1.0;"/><path d="M663.0156,528.875 Q663.1719,528.6563 663.3594,528.5469 Q663.5469,528.4375 663.7656,528.4375 Q664.1406,528.4375 664.375,528.7031 Q664.6094,528.9531 664.6094,529.5625 L664.6094,531.0156 Q664.6094,531.625 664.375,531.8906 Q664.1406,532.1563 663.7656,532.1563 Q663.4219,532.1563 663.2188,531.9531 Q663.0156,531.7656 662.9063,531.25 Q662.8594,530.8906 662.6719,530.7031 Q662.3438,530.3281 661.7344,530.1094 Q661.125,529.8906 660.5,529.8906 Q659.7344,529.8906 659.0938,530.2188 Q658.4688,530.5469 657.9688,531.2969 Q657.4844,532.0469 657.4844,533.0781 L657.4844,534.1719 Q657.4844,535.4063 658.375,536.2344 Q659.2656,537.0469 660.8594,537.0469 Q661.7969,537.0469 662.4531,536.7969 Q662.8438,536.6406 663.2656,536.2031 Q663.5313,535.9375 663.6719,535.8594 Q663.8281,535.7813 664.0313,535.7813 Q664.3594,535.7813 664.6094,536.0469 Q664.875,536.2969 664.875,536.6406 Q664.875,536.9844 664.5313,537.3906 Q664.0313,537.9688 663.2344,538.2969 Q662.1563,538.75 660.8594,538.75 Q659.3438,538.75 658.1406,538.125 Q657.1563,537.625 656.4688,536.5625 Q655.7813,535.4844 655.7813,534.2031 L655.7813,533.0469 Q655.7813,531.7188 656.3906,530.5781 Q657.0156,529.4219 658.1094,528.8125 Q659.2031,528.1875 660.4375,528.1875 Q661.1719,528.1875 661.8125,528.3594 Q662.4688,528.5156 663.0156,528.875 Z " fill="#000000"/><text fill="#000000" font-family="sans-serif" font-size="14" lengthAdjust="spacing" textLength="116" x="680.75" y="538.7969">RepositoryFactory</text><line style="stroke:#181818;stroke-width:0.5;" x1="608" x2="837" y1="549" y2="549"/><line style="stroke:#181818;stroke-width:0.5;" x1="608" x2="837" y1="557" y2="557"/><ellipse cx="618" cy="571.8105" fill="#84BE84" rx="3" ry="3" style="stroke:#038048;stroke-width:1.0;"/><text fill="#000000" font-family="sans-serif" font-size="14" lengthAdjust="spacing" textLength="50" x="627" y="576.1074">create()</text><ellipse cx="618" cy="590.4316" fill="#84BE84" rx="3" ry="3" style="stroke:#038048;stroke-width:1.0;"/><text fill="#000000" font-family="sans-serif" font-size="14" lengthAdjust="spacing" textLength="169" x="627" y="594.7285">newTransactionalContext()</text><ellipse cx="618" cy="609.0527" fill="#84BE84" rx="3" ry="3" style="stroke:#038048;stroke-width:1.0;"/><text fill="#000000" font-family="sans-serif" font-size="14" lengthAdjust="spacing" textLength="205" x="627" y="613.3496">create(TransactionalContext ctx)</text><ellipse cx="618" cy="627.6738" fill="#84BE84" rx="3" ry="3" style="stroke:#038048;stroke-width:1.0;"/><text fill="#000000" font-family="sans-serif" font-size="14" lengthAdjust="spacing" textLength="50" x="627" y="631.9707">create()</text><ellipse cx="618" cy="646.2949" fill="#84BE84" rx="3" ry="3" style="stroke:#038048;stroke-width:1.0;"/><text fill="#000000" font-family="sans-serif" font-size="14" lengthAdjust="spacing" textLength="169" x="627" y="650.5918">newTransactionalContext()</text><ellipse cx="618" cy="664.916" fill="#84BE84" rx="3" ry="3" style="stroke:#038048;stroke-width:1.0;"/><text fill="#000000" font-family="sans-serif" font-size="14" lengthAdjust="spacing" textLength="205" x="627" y="669.2129">create(TransactionalContext ctx)</text></g><!--class Profile--><g id="elem_Profile"><rect codeLine="45" fill="#F1F1F1" height="48" id="Profile" rx="2.5" ry="2.5" style="stroke:#181818;stroke-width:0.5;" width="72" x="1052.5" y="993.5"/><ellipse cx="1067.5" cy="1009.5" fill="#ADD1B2" rx="11" ry="11" style="stroke:#181818;stroke-width:1.0;"/><path d="M1070.2656,1005.375 Q1070.4219,1005.1563 1070.6094,1005.0469 Q1070.7969,1004.9375 1071.0156,1004.9375 Q1071.3906,1004.9375 1071.625,1005.2031 Q1071.8594,1005.4531 1071.8594,1006.0625 L1071.8594,1007.5156 Q1071.8594,1008.125 1071.625,1008.3906 Q1071.3906,1008.6563 1071.0156,1008.6563 Q1070.6719,1008.6563 1070.4688,1008.4531 Q1070.2656,1008.2656 1070.1563,1007.75 Q1070.1094,1007.3906 1069.9219,1007.2031 Q1069.5938,1006.8281 1068.9844,1006.6094 Q1068.375,1006.3906 1067.75,1006.3906 Q1066.9844,1006.3906 1066.3438,1006.7188 Q1065.7188,1007.0469 1065.2188,1007.7969 Q1064.7344,1008.5469 1064.7344,1009.5781 L1064.7344,1010.6719 Q1064.7344,1011.9063 1065.625,1012.7344 Q1066.5156,1013.5469 1068.1094,1013.5469 Q1069.0469,1013.5469 1069.7031,1013.2969 Q1070.0938,1013.1406 1070.5156,1012.7031 Q1070.7813,1012.4375 1070.9219,1012.3594 Q1071.0781,1012.2813 1071.2813,1012.2813 Q1071.6094,1012.2813 1071.8594,1012.5469 Q1072.125,1012.7969 1072.125,1013.1406 Q1072.125,1013.4844 1071.7813,1013.8906 Q1071.2813,1014.4688 1070.4844,1014.7969 Q1069.4063,1015.25 1068.1094,1015.25 Q1066.5938,1015.25 1065.3906,1014.625 Q1064.4063,1014.125 1063.7188,1013.0625 Q1063.0313,1011.9844 1063.0313,1010.7031 L1063.0313,1009.5469 Q1063.0313,1008.2188 1063.6406,1007.0781 Q1064.2656,1005.9219 1065.3594,1005.3125 Q1066.4531,1004.6875 1067.6875,1004.6875 Q1068.4219,1004.6875 1069.0625,1004.8594 Q1069.7188,1005.0156 1070.2656,1005.375 Z " fill="#000000"/><text fill="#000000" font-family="sans-serif" font-size="14" lengthAdjust="spacing" textLength="40" x="1081.5" y="1015.2969">Profile</text><line style="stroke:#181818;stroke-width:0.5;" x1="1053.5" x2="1123.5" y1="1025.5" y2="1025.5"/><line style="stroke:#181818;stroke-width:0.5;" x1="1053.5" x2="1123.5" y1="1033.5" y2="1033.5"/></g><!--class TransactionalContext--><g id="elem_TransactionalContext"><rect codeLine="86" fill="#F1F1F1" height="122.4844" id="TransactionalContext" rx="2.5" ry="2.5" style="stroke:#181818;stroke-width:0.5;" width="166" x="393.5" y="335"/><ellipse cx="408.5" cy="351" fill="#ADD1B2" rx="11" ry="11" style="stroke:#181818;stroke-width:1.0;"/><path d="M411.2656,346.875 Q411.4219,346.6563 411.6094,346.5469 Q411.7969,346.4375 412.0156,346.4375 Q412.3906,346.4375 412.625,346.7031 Q412.8594,346.9531 412.8594,347.5625 L412.8594,349.0156 Q412.8594,349.625 412.625,349.8906 Q412.3906,350.1563 412.0156,350.1563 Q411.6719,350.1563 411.4688,349.9531 Q411.2656,349.7656 411.1563,349.25 Q411.1094,348.8906 410.9219,348.7031 Q410.5938,348.3281 409.9844,348.1094 Q409.375,347.8906 408.75,347.8906 Q407.9844,347.8906 407.3438,348.2188 Q406.7188,348.5469 406.2188,349.2969 Q405.7344,350.0469 405.7344,351.0781 L405.7344,352.1719 Q405.7344,353.4063 406.625,354.2344 Q407.5156,355.0469 409.1094,355.0469 Q410.0469,355.0469 410.7031,354.7969 Q411.0938,354.6406 411.5156,354.2031 Q411.7813,353.9375 411.9219,353.8594 Q412.0781,353.7813 412.2813,353.7813 Q412.6094,353.7813 412.8594,354.0469 Q413.125,354.2969 413.125,354.6406 Q413.125,354.9844 412.7813,355.3906 Q412.2813,355.9688 411.4844,356.2969 Q410.4063,356.75 409.1094,356.75 Q407.5938,356.75 406.3906,356.125 Q405.4063,355.625 404.7188,354.5625 Q404.0313,353.4844 404.0313,352.2031 L404.0313,351.0469 Q404.0313,349.7188 404.6406,348.5781 Q405.2656,347.4219 406.3594,346.8125 Q407.4531,346.1875 408.6875,346.1875 Q409.4219,346.1875 410.0625,346.3594 Q410.7188,346.5156 411.2656,346.875 Z " fill="#000000"/><text fill="#000000" font-family="sans-serif" font-size="14" lengthAdjust="spacing" textLength="134" x="422.5" y="356.7969">TransactionalContext</text><line style="stroke:#181818;stroke-width:0.5;" x1="394.5" x2="558.5" y1="367" y2="367"/><line style="stroke:#181818;stroke-width:0.5;" x1="394.5" x2="558.5" y1="375" y2="375"/><ellipse cx="404.5" cy="389.8105" fill="#84BE84" rx="3" ry="3" style="stroke:#038048;stroke-width:1.0;"/><text fill="#000000" font-family="sans-serif" font-size="14" lengthAdjust="spacing" textLength="120" x="413.5" y="394.1074">beginTransaction()</text><ellipse cx="404.5" cy="408.4316" fill="#84BE84" rx="3" ry="3" style="stroke:#038048;stroke-width:1.0;"/><text fill="#000000" font-family="sans-serif" font-size="14" lengthAdjust="spacing" textLength="54" x="413.5" y="412.7285">commit()</text><ellipse cx="404.5" cy="427.0527" fill="#84BE84" rx="3" ry="3" style="stroke:#038048;stroke-width:1.0;"/><text fill="#000000" font-family="sans-serif" font-size="14" lengthAdjust="spacing" textLength="120" x="413.5" y="431.3496">beginTransaction()</text><ellipse cx="404.5" cy="445.6738" fill="#84BE84" rx="3" ry="3" style="stroke:#038048;stroke-width:1.0;"/><text fill="#000000" font-family="sans-serif" font-size="14" lengthAdjust="spacing" textLength="54" x="413.5" y="449.9707">commit()</text></g><!--class StudentRegistrationController--><g id="elem_StudentRegistrationController"><rect codeLine="57" fill="#F1F1F1" height="159.7266" id="StudentRegistrationController" rx="2.5" ry="2.5" style="stroke:#181818;stroke-width:0.5;" width="646" x="582.5" y="115"/><ellipse cx="807.75" cy="131" fill="#ADD1B2" rx="11" ry="11" style="stroke:#181818;stroke-width:1.0;"/><path d="M810.5156,126.875 Q810.6719,126.6563 810.8594,126.5469 Q811.0469,126.4375 811.2656,126.4375 Q811.6406,126.4375 811.875,126.7031 Q812.1094,126.9531 812.1094,127.5625 L812.1094,129.0156 Q812.1094,129.625 811.875,129.8906 Q811.6406,130.1563 811.2656,130.1563 Q810.9219,130.1563 810.7188,129.9531 Q810.5156,129.7656 810.4063,129.25 Q810.3594,128.8906 810.1719,128.7031 Q809.8438,128.3281 809.2344,128.1094 Q808.625,127.8906 808,127.8906 Q807.2344,127.8906 806.5938,128.2188 Q805.9688,128.5469 805.4688,129.2969 Q804.9844,130.0469 804.9844,131.0781 L804.9844,132.1719 Q804.9844,133.4063 805.875,134.2344 Q806.7656,135.0469 808.3594,135.0469 Q809.2969,135.0469 809.9531,134.7969 Q810.3438,134.6406 810.7656,134.2031 Q811.0313,133.9375 811.1719,133.8594 Q811.3281,133.7813 811.5313,133.7813 Q811.8594,133.7813 812.1094,134.0469 Q812.375,134.2969 812.375,134.6406 Q812.375,134.9844 812.0313,135.3906 Q811.5313,135.9688 810.7344,136.2969 Q809.6563,136.75 808.3594,136.75 Q806.8438,136.75 805.6406,136.125 Q804.6563,135.625 803.9688,134.5625 Q803.2813,133.4844 803.2813,132.2031 L803.2813,131.0469 Q803.2813,129.7188 803.8906,128.5781 Q804.5156,127.4219 805.6094,126.8125 Q806.7031,126.1875 807.9375,126.1875 Q808.6719,126.1875 809.3125,126.3594 Q809.9688,126.5156 810.5156,126.875 Z " fill="#000000"/><text fill="#000000" font-family="sans-serif" font-size="14" lengthAdjust="spacing" textLength="187" x="828.25" y="136.7969">StudentRegistrationController</text><line style="stroke:#181818;stroke-width:0.5;" x1="583.5" x2="1227.5" y1="147" y2="147"/><line style="stroke:#181818;stroke-width:0.5;" x1="583.5" x2="1227.5" y1="155" y2="155"/><ellipse cx="593.5" cy="169.8105" fill="#84BE84" rx="3" ry="3" style="stroke:#038048;stroke-width:1.0;"/><text fill="#000000" font-family="sans-serif" font-size="14" lengthAdjust="spacing" textLength="83" x="602.5" y="174.1074">getCourses()</text><ellipse cx="593.5" cy="188.4316" fill="#84BE84" rx="3" ry="3" style="stroke:#038048;stroke-width:1.0;"/><text fill="#000000" font-family="sans-serif" font-size="14" lengthAdjust="spacing" textLength="620" x="602.5" y="192.7285">addStudentRegistration(final StudentProfile studentProfile, final Status status, final Course course)</text><ellipse cx="593.5" cy="207.0527" fill="#84BE84" rx="3" ry="3" style="stroke:#038048;stroke-width:1.0;"/><text fill="#000000" font-family="sans-serif" font-size="14" lengthAdjust="spacing" textLength="417" x="602.5" y="211.3496">saveStudentRegistration(StudentRegistration studentRegistration)</text><ellipse cx="593.5" cy="225.6738" fill="#84BE84" rx="3" ry="3" style="stroke:#038048;stroke-width:1.0;"/><text fill="#000000" font-family="sans-serif" font-size="14" lengthAdjust="spacing" textLength="317" x="602.5" y="229.9707">getStudentRegistrationsByCourse(Course course)</text><ellipse cx="593.5" cy="244.2949" fill="#84BE84" rx="3" ry="3" style="stroke:#038048;stroke-width:1.0;"/><text fill="#000000" font-family="sans-serif" font-size="14" lengthAdjust="spacing" textLength="162" x="602.5" y="248.5918">getStudentRegistrations()</text><ellipse cx="593.5" cy="262.916" fill="#84BE84" rx="3" ry="3" style="stroke:#038048;stroke-width:1.0;"/><text fill="#000000" font-family="sans-serif" font-size="14" lengthAdjust="spacing" textLength="77" x="602.5" y="267.2129">getService()</text></g><!--class StudentRegistrationService--><g id="elem_StudentRegistrationService"><rect codeLine="66" fill="#F1F1F1" height="103.8633" id="StudentRegistrationService" rx="2.5" ry="2.5" style="stroke:#181818;stroke-width:0.5;" width="463" x="491" y="774"/><ellipse cx="632.25" cy="790" fill="#ADD1B2" rx="11" ry="11" style="stroke:#181818;stroke-width:1.0;"/><path d="M635.0156,785.875 Q635.1719,785.6563 635.3594,785.5469 Q635.5469,785.4375 635.7656,785.4375 Q636.1406,785.4375 636.375,785.7031 Q636.6094,785.9531 636.6094,786.5625 L636.6094,788.0156 Q636.6094,788.625 636.375,788.8906 Q636.1406,789.1563 635.7656,789.1563 Q635.4219,789.1563 635.2188,788.9531 Q635.0156,788.7656 634.9063,788.25 Q634.8594,787.8906 634.6719,787.7031 Q634.3438,787.3281 633.7344,787.1094 Q633.125,786.8906 632.5,786.8906 Q631.7344,786.8906 631.0938,787.2188 Q630.4688,787.5469 629.9688,788.2969 Q629.4844,789.0469 629.4844,790.0781 L629.4844,791.1719 Q629.4844,792.4063 630.375,793.2344 Q631.2656,794.0469 632.8594,794.0469 Q633.7969,794.0469 634.4531,793.7969 Q634.8438,793.6406 635.2656,793.2031 Q635.5313,792.9375 635.6719,792.8594 Q635.8281,792.7813 636.0313,792.7813 Q636.3594,792.7813 636.6094,793.0469 Q636.875,793.2969 636.875,793.6406 Q636.875,793.9844 636.5313,794.3906 Q636.0313,794.9688 635.2344,795.2969 Q634.1563,795.75 632.8594,795.75 Q631.3438,795.75 630.1406,795.125 Q629.1563,794.625 628.4688,793.5625 Q627.7813,792.4844 627.7813,791.2031 L627.7813,790.0469 Q627.7813,788.7188 628.3906,787.5781 Q629.0156,786.4219 630.1094,785.8125 Q631.2031,785.1875 632.4375,785.1875 Q633.1719,785.1875 633.8125,785.3594 Q634.4688,785.5156 635.0156,785.875 Z " fill="#000000"/><text fill="#000000" font-family="sans-serif" font-size="14" lengthAdjust="spacing" textLength="172" x="652.75" y="795.7969">StudentRegistrationService</text><line style="stroke:#181818;stroke-width:0.5;" x1="492" x2="953" y1="806" y2="806"/><line style="stroke:#181818;stroke-width:0.5;" x1="492" x2="953" y1="814" y2="814"/><ellipse cx="502" cy="828.8105" fill="#84BE84" rx="3" ry="3" style="stroke:#038048;stroke-width:1.0;"/><text fill="#000000" font-family="sans-serif" font-size="14" lengthAdjust="spacing" textLength="437" x="511" y="833.1074">addNewStudentRegistration(StudentRegistration studentRegistration)</text><ellipse cx="502" cy="847.4316" fill="#84BE84" rx="3" ry="3" style="stroke:#038048;stroke-width:1.0;"/><text fill="#000000" font-family="sans-serif" font-size="14" lengthAdjust="spacing" textLength="45" x="511" y="851.7285">getAll()</text><ellipse cx="502" cy="866.0527" fill="#84BE84" rx="3" ry="3" style="stroke:#038048;stroke-width:1.0;"/><text fill="#000000" font-family="sans-serif" font-size="14" lengthAdjust="spacing" textLength="98" x="511" y="870.3496">getRepository()</text></g><!--class StudentRegistration--><g id="elem_StudentRegistration"><rect codeLine="91" fill="#F1F1F1" height="66.6211" id="StudentRegistration" rx="2.5" ry="2.5" style="stroke:#181818;stroke-width:0.5;" width="177" x="835" y="362.5"/><ellipse cx="859" cy="378.5" fill="#ADD1B2" rx="11" ry="11" style="stroke:#181818;stroke-width:1.0;"/><path d="M861.7656,374.375 Q861.9219,374.1563 862.1094,374.0469 Q862.2969,373.9375 862.5156,373.9375 Q862.8906,373.9375 863.125,374.2031 Q863.3594,374.4531 863.3594,375.0625 L863.3594,376.5156 Q863.3594,377.125 863.125,377.3906 Q862.8906,377.6563 862.5156,377.6563 Q862.1719,377.6563 861.9688,377.4531 Q861.7656,377.2656 861.6563,376.75 Q861.6094,376.3906 861.4219,376.2031 Q861.0938,375.8281 860.4844,375.6094 Q859.875,375.3906 859.25,375.3906 Q858.4844,375.3906 857.8438,375.7188 Q857.2188,376.0469 856.7188,376.7969 Q856.2344,377.5469 856.2344,378.5781 L856.2344,379.6719 Q856.2344,380.9063 857.125,381.7344 Q858.0156,382.5469 859.6094,382.5469 Q860.5469,382.5469 861.2031,382.2969 Q861.5938,382.1406 862.0156,381.7031 Q862.2813,381.4375 862.4219,381.3594 Q862.5781,381.2813 862.7813,381.2813 Q863.1094,381.2813 863.3594,381.5469 Q863.625,381.7969 863.625,382.1406 Q863.625,382.4844 863.2813,382.8906 Q862.7813,383.4688 861.9844,383.7969 Q860.9063,384.25 859.6094,384.25 Q858.0938,384.25 856.8906,383.625 Q855.9063,383.125 855.2188,382.0625 Q854.5313,380.9844 854.5313,379.7031 L854.5313,378.5469 Q854.5313,377.2188 855.1406,376.0781 Q855.7656,374.9219 856.8594,374.3125 Q857.9531,373.6875 859.1875,373.6875 Q859.9219,373.6875 860.5625,373.8594 Q861.2188,374.0156 861.7656,374.375 Z " fill="#000000"/><text fill="#000000" font-family="sans-serif" font-size="14" lengthAdjust="spacing" textLength="125" x="875" y="384.2969">StudentRegistration</text><line style="stroke:#181818;stroke-width:0.5;" x1="836" x2="1011" y1="394.5" y2="394.5"/><line style="stroke:#181818;stroke-width:0.5;" x1="836" x2="1011" y1="402.5" y2="402.5"/><ellipse cx="846" cy="417.3105" fill="#84BE84" rx="3" ry="3" style="stroke:#038048;stroke-width:1.0;"/><text fill="#000000" font-family="sans-serif" font-size="14" lengthAdjust="spacing" textLength="151" x="855" y="421.6074">setStatus(Status status)</text></g><!--link ImportStudentsUI to StudentRegistrationController--><g id="link_ImportStudentsUI_StudentRegistrationController"><path codeLine="95" d="M905.5,55.21 C905.5,69.81 905.5,89.63 905.5,109.73 " fill="none" id="ImportStudentsUI-to-StudentRegistrationController" style="stroke:#181818;stroke-width:1.0;"/><polygon fill="#181818" points="905.5,114.84,909.5,105.84,905.5,109.84,901.5,105.84,905.5,114.84" style="stroke:#181818;stroke-width:1.0;"/></g><!--link StudentRegistrationController to PersistenceContext--><g id="link_StudentRegistrationController_PersistenceContext"><path codeLine="96" d="M832.65,275.22 C809.37,300.53 784.42,327.67 764.16,349.7 " fill="none" id="StudentRegistrationController-to-PersistenceContext" style="stroke:#181818;stroke-width:1.0;"/><polygon fill="#181818" points="760.69,353.47,769.7318,349.5655,764.0796,349.7943,763.8508,344.1421,760.69,353.47" style="stroke:#181818;stroke-width:1.0;"/></g><!--link StudentRegistrationController to TransactionalContext--><g id="link_StudentRegistrationController_TransactionalContext"><path codeLine="97" d="M735.02,275.08 C676.59,302.18 613.6,331.4 564.43,354.21 " fill="none" id="StudentRegistrationController-to-TransactionalContext" style="stroke:#181818;stroke-width:1.0;"/><polygon fill="#181818" points="559.71,356.4,569.5576,356.2426,564.246,354.2965,566.1921,348.985,559.71,356.4" style="stroke:#181818;stroke-width:1.0;"/></g><!--link StudentRegistrationService to StudentRegistrationRepository--><g id="link_StudentRegistrationService_StudentRegistrationRepository"><path codeLine="99" d="M722.5,878.28 C722.5,913.57 722.5,959.13 722.5,988.1 " fill="none" id="StudentRegistrationService-to-StudentRegistrationRepository" style="stroke:#181818;stroke-width:1.0;"/><polygon fill="#181818" points="722.5,993.3,726.5,984.3,722.5,988.3,718.5,984.3,722.5,993.3" style="stroke:#181818;stroke-width:1.0;"/></g><!--link StudentRegistrationController to StudentRegistration--><g id="link_StudentRegistrationController_StudentRegistration"><path codeLine="100" d="M912.67,275.22 C915.23,303.54 918,334.14 920.09,357.33 " fill="none" id="StudentRegistrationController-to-StudentRegistration" style="stroke:#181818;stroke-width:1.0;"/><polygon fill="#181818" points="920.56,362.46,923.748,353.1414,920.1176,357.4796,915.7794,353.8492,920.56,362.46" style="stroke:#181818;stroke-width:1.0;"/></g><!--link PersistenceContext to RepositoryFactory--><g id="link_PersistenceContext_RepositoryFactory"><path codeLine="102" d="M711.89,438.72 C710.1,459.98 709.43,486.63 709.89,511.92 " fill="none" id="PersistenceContext-to-RepositoryFactory" style="stroke:#181818;stroke-width:1.0;"/><polygon fill="#181818" points="709.99,516.96,713.8092,507.8818,709.89,511.961,705.8108,508.0418,709.99,516.96" style="stroke:#181818;stroke-width:1.0;"/></g><!--link PersistenceContext to RepositoryFactory--><g id="link_PersistenceContext_RepositoryFactory"><path codeLine="118" d="M733.73,438.72 C735.63,459.98 736.33,486.63 735.85,511.92 " fill="none" id="PersistenceContext-to-RepositoryFactory-1" style="stroke:#181818;stroke-width:1.0;"/><polygon fill="#181818" points="735.74,516.96,739.9446,508.0538,735.8543,511.9613,731.9467,507.8709,735.74,516.96" style="stroke:#181818;stroke-width:1.0;"/></g><!--link RepositoryFactory to StudentRegistrationService--><g id="link_RepositoryFactory_StudentRegistrationService"><path codeLine="104" d="M722.5,677.07 C722.5,707.31 722.5,741.14 722.5,768.82 " fill="none" id="RepositoryFactory-to-StudentRegistrationService" style="stroke:#181818;stroke-width:1.0;"/><polygon fill="#181818" points="722.5,773.91,726.5,764.91,722.5,768.91,718.5,764.91,722.5,773.91" style="stroke:#181818;stroke-width:1.0;"/></g><!--link ImportStudentsUI to AddUserController--><g id="link_ImportStudentsUI_AddUserController"><path codeLine="107" d="M835.95,48.13 C767.08,64.31 658.74,90.29 565.5,115 C512.4,129.07 453.87,145.67 404.42,160.01 " fill="none" id="ImportStudentsUI-to-AddUserController" style="stroke:#181818;stroke-width:1.0;"/><polygon fill="#181818" points="399.36,161.48,409.12,162.8,404.16,160.08,406.88,155.12,399.36,161.48" style="stroke:#181818;stroke-width:1.0;"/></g><!--link ImportStudentsUI to ProfileController--><g id="link_ImportStudentsUI_ProfileController"><path codeLine="108" d="M975.27,38.94 C1065.04,49.49 1213.42,72.9 1246.5,115 C1387.75,294.75 1289.9,584.5 1224.36,732.11 " fill="none" id="ImportStudentsUI-to-ProfileController" style="stroke:#181818;stroke-width:1.0;"/><polygon fill="#181818" points="1222.23,736.87,1229.5539,730.2851,1224.27,732.3051,1222.25,727.0212,1222.23,736.87" style="stroke:#181818;stroke-width:1.0;"/></g><!--link AddUserController to PersistenceContext--><g id="link_AddUserController_PersistenceContext"><path codeLine="109" d="M360.52,228.64 C437.32,263.94 559.59,320.13 640.45,357.29 " fill="none" id="AddUserController-to-PersistenceContext" style="stroke:#181818;stroke-width:1.0;"/><polygon fill="#181818" points="645.23,359.49,638.7198,352.0996,640.686,357.4038,635.3819,359.37,645.23,359.49" style="stroke:#181818;stroke-width:1.0;"/></g><!--link AddUserController to TransactionalContext--><g id="link_AddUserController_TransactionalContext"><path codeLine="110" d="M320.38,228.86 C346.4,256.55 384.4,296.99 416.4,331.04 " fill="none" id="AddUserController-to-TransactionalContext" style="stroke:#181818;stroke-width:1.0;"/><polygon fill="#181818" points="419.87,334.74,416.6145,325.4447,416.4432,331.099,410.7889,330.9277,419.87,334.74" style="stroke:#181818;stroke-width:1.0;"/></g><!--link ProfileController to Profile--><g id="link_ProfileController_Profile"><path codeLine="111" d="M1136.66,915.09 C1124.05,941.65 1111.11,968.9 1101.82,988.46 " fill="none" id="ProfileController-to-Profile" style="stroke:#181818;stroke-width:1.0;"/><polygon fill="#181818" points="1099.54,993.26,1107.013,986.8448,1101.6841,988.7431,1099.7859,983.4142,1099.54,993.26" style="stroke:#181818;stroke-width:1.0;"/></g><!--link ProfileController to ProfileService--><g id="link_ProfileController_ProfileService"><path codeLine="112" d="M1220.34,915.09 C1229.4,934.18 1238.64,953.62 1246.56,970.31 " fill="none" id="ProfileController-to-ProfileService" style="stroke:#181818;stroke-width:1.0;"/><polygon fill="#181818" points="1248.76,974.94,1248.5141,965.0942,1246.6159,970.4231,1241.287,968.5248,1248.76,974.94" style="stroke:#181818;stroke-width:1.0;"/></g><!--link ProfileService to ProfileRepository--><g id="link_ProfileService_ProfileRepository"><path codeLine="113" d="M1268.5,1060.3 C1268.5,1078.2 1268.5,1098.64 1268.5,1114.71 " fill="none" id="ProfileService-to-ProfileRepository" style="stroke:#181818;stroke-width:1.0;"/><polygon fill="#181818" points="1268.5,1119.99,1272.5,1110.99,1268.5,1114.99,1264.5,1110.99,1268.5,1119.99" style="stroke:#181818;stroke-width:1.0;"/></g><!--link AddUserController to UserManagementService--><g id="link_AddUserController_UserManagementService"><path codeLine="114" d="M289.5,228.73 C289.5,302.17 289.5,479.7 289.5,557.92 " fill="none" id="AddUserController-to-UserManagementService" style="stroke:#181818;stroke-width:1.0;"/><polygon fill="#181818" points="289.5,563.38,293.5257,554.3915,289.5143,558.38,285.5257,554.3686,289.5,563.38" style="stroke:#181818;stroke-width:1.0;"/></g><!--link UserManagementService to UserRepository--><g id="link_UserManagementService_UserRepository"><path codeLine="115" d="M297.24,630.52 C307.86,675.17 326.78,754.7 336.82,796.9 " fill="none" id="UserManagementService-to-UserRepository" style="stroke:#181818;stroke-width:1.0;"/><polygon fill="#181818" points="337.99,801.85,339.8018,792.1692,336.8345,796.9854,332.0183,794.0181,337.99,801.85" style="stroke:#181818;stroke-width:1.0;"/></g><!--link RepositoryFactory to ProfileController--><g id="link_RepositoryFactory_ProfileController"><path codeLine="120" d="M838.16,655.58 C915.61,694.13 1016.13,744.17 1087.8,779.85 " fill="none" id="RepositoryFactory-to-ProfileController" style="stroke:#181818;stroke-width:1.0;"/><polygon fill="#181818" points="1092.48,782.18,1086.2093,774.5854,1088.005,779.9497,1082.6407,781.7454,1092.48,782.18" style="stroke:#181818;stroke-width:1.0;"/></g><!--link RepositoryFactory to UserRepository--><g id="link_RepositoryFactory_UserRepository"><path codeLine="121" d="M606.67,667.34 C600.88,670.64 595.14,673.87 589.5,677 C538.75,705.17 523.4,707.35 473.5,737 C440.94,756.35 405.43,780.62 379.76,798.77 " fill="none" id="RepositoryFactory-to-UserRepository" style="stroke:#181818;stroke-width:1.0;"/><polygon fill="#181818" points="375.4,801.86,385.0557,799.9191,379.4793,798.9687,380.4297,793.3923,375.4,801.86" style="stroke:#181818;stroke-width:1.0;"/></g><!--SRC=[pLN9Rjim4BtpAtIhWjhrlOS2QOe0EJGeidm08uqT0bm4aeeJ6Ftt3ZTBD2dtu1vw4SKtonk-6OAVNgqTpDVDPk1Ksb7mBvqIcuvJOzOzepjD1I5-szo9GMdxQCSUf3NFTmVoEvck-_xPWBvHqch5EUW3-Km3rexuaLJ0gXdGTQzqlsgsJ1jxxq6CZtyWAEEh1XFWfjD0BLFo1xLmHP0f4FtIQiiuP4JU5Pw0Tg-WeqDxbV1ORu7_f9BkClyTM5TmGbpT0SrJc-YR9qvedjQXHv4YzWZwZNKG5Bg7VU8RmXhIHF1MAu4Aq1TgKa77TAxMm2QmZ2chXXqp5ZIc_cVwJsS0RLnssVaUmBlrZ8Cop2hDyWC_9FpZbdPkEJRBYILX_wIfD6X27ifZlgb3RStSTFRTK_HHbYJhH7R8p4w34rlM3ez4g4Q8DR-Wed9cyoKg8PYTd_RCzOZWW- -Czhfc4umDlr6ZDc6AS2mg0UsMOL5DFdMDoRQkiS69sj6WqIq930nDvnUaCVGDQZmLBD7CiUmIp0tc-qUWQayP5_pJVGeJF9UqudrwUou-mJNdiO1fIa8D_-_8LmvO7V6Bvhb2Wh76zT2DLPiDcOyxlG7DUltj_EoJirOCByN_QqZjq8GiZz9IbPEYvocNuWafYqVNOa88AI1qMwwNB0XTlC5rj-859KLWNVUQMrNhWc7EMreTM_OoadmxZvxrf5PEzKaaLTHdpTy6Sbd7Ic5hNYUKVm00]--></g></svg>