<?xml version="1.0" encoding="us-ascii" standalone="no"?><svg xmlns="http://www.w3.org/2000/svg" xmlns:xlink="http://www.w3.org/1999/xlink" contentStyleType="text/css" height="995px" preserveAspectRatio="none" style="width:1616px;height:995px;background:#FFFFFF;" version="1.1" viewBox="0 0 1616 995" width="1616px" zoomAndPan="magnify"><defs/><g><rect fill="#FFFFFF" height="788.5293" style="stroke:#181818;stroke-width:1.0;" width="10" x="31" y="98.2422"/><rect fill="#FFFFFF" height="62.582" style="stroke:#181818;stroke-width:1.0;" width="10" x="354" y="121.5332"/><rect fill="#FFFFFF" height="31.291" style="stroke:#181818;stroke-width:1.0;" width="10" x="542.5" y="152.8242"/><rect fill="#FFFFFF" height="155.1641" style="stroke:#181818;stroke-width:1.0;" width="10" x="787" y="184.1152"/><rect fill="#FFFFFF" height="516.2012" style="stroke:#181818;stroke-width:1.0;" width="10" x="787" y="370.5703"/><rect fill="#FFFFFF" height="28" style="stroke:#181818;stroke-width:1.0;" width="10" x="792" y="409.8613"/><rect fill="#FFFFFF" height="92.582" style="stroke:#181818;stroke-width:1.0;" width="10" x="1154" y="215.4063"/><rect fill="#FFFFFF" height="153.873" style="stroke:#181818;stroke-width:1.0;" width="10" x="1154" y="692.6074"/><rect fill="#FFFFFF" height="61.291" style="stroke:#181818;stroke-width:1.0;" width="10" x="1335" y="246.6973"/><rect fill="#FFFFFF" height="61.291" style="stroke:#181818;stroke-width:1.0;" width="10" x="1335" y="785.1895"/><rect fill="#FFFFFF" height="30" style="stroke:#181818;stroke-width:1.0;" width="10" x="1438.5" y="476.1523"/><rect fill="#FFFFFF" height="30" style="stroke:#181818;stroke-width:1.0;" width="10" x="1438.5" y="723.8984"/><rect fill="#FFFFFF" height="30" style="stroke:#181818;stroke-width:1.0;" width="10" x="1548.5" y="277.9883"/><rect fill="#FFFFFF" height="30" style="stroke:#181818;stroke-width:1.0;" width="10" x="1548.5" y="816.4805"/><rect fill="none" height="63.582" style="stroke:#000000;stroke-width:1.5;" width="422.5" x="671.5" y="521.1523"/><rect fill="none" height="63.582" style="stroke:#000000;stroke-width:1.5;" width="415.5" x="671.5" y="598.7344"/><line style="stroke:#181818;stroke-width:0.5;stroke-dasharray:5.0,5.0;" x1="36" x2="36" y1="88.2422" y2="895.7715"/><line style="stroke:#181818;stroke-width:0.5;stroke-dasharray:5.0,5.0;" x1="358.5" x2="358.5" y1="88.2422" y2="895.7715"/><line style="stroke:#181818;stroke-width:0.5;stroke-dasharray:5.0,5.0;" x1="547.5" x2="547.5" y1="88.2422" y2="895.7715"/><line style="stroke:#181818;stroke-width:0.5;stroke-dasharray:5.0,5.0;" x1="791.5" x2="791.5" y1="88.2422" y2="895.7715"/><line style="stroke:#181818;stroke-width:0.5;stroke-dasharray:5.0,5.0;" x1="1158.5" x2="1158.5" y1="88.2422" y2="895.7715"/><line style="stroke:#181818;stroke-width:0.5;stroke-dasharray:5.0,5.0;" x1="1339.5" x2="1339.5" y1="88.2422" y2="895.7715"/><line style="stroke:#181818;stroke-width:0.5;stroke-dasharray:5.0,5.0;" x1="1443.5" x2="1443.5" y1="88.2422" y2="895.7715"/><line style="stroke:#181818;stroke-width:0.5;stroke-dasharray:5.0,5.0;" x1="1553.5" x2="1553.5" y1="88.2422" y2="895.7715"/><text fill="#000000" font-family="sans-serif" font-size="14" lengthAdjust="spacing" textLength="56" x="5" y="84.7285">Manager</text><ellipse cx="36" cy="18.1211" fill="#E2E2F0" rx="8" ry="8" style="stroke:#181818;stroke-width:0.5;"/><path d="M36,26.1211 L36,53.1211 M23,34.1211 L49,34.1211 M36,53.1211 L23,68.1211 M36,53.1211 L49,68.1211 " fill="none" style="stroke:#181818;stroke-width:0.5;"/><text fill="#000000" font-family="sans-serif" font-size="14" lengthAdjust="spacing" textLength="56" x="5" y="909.8789">Manager</text><ellipse cx="36" cy="921.8926" fill="#E2E2F0" rx="8" ry="8" style="stroke:#181818;stroke-width:0.5;"/><path d="M36,929.8926 L36,956.8926 M23,937.8926 L49,937.8926 M36,956.8926 L23,971.8926 M36,956.8926 L49,971.8926 " fill="none" style="stroke:#181818;stroke-width:0.5;"/><rect fill="#E2E2F0" height="51.2422" rx="2.5" ry="2.5" style="stroke:#181818;stroke-width:0.5;" width="109" x="304.5" y="36"/><text fill="#000000" font-family="sans-serif" font-size="14" font-style="italic" lengthAdjust="spacing" textLength="95" x="311.5" y="58.1074">&#171;presentation&#187;</text><text fill="#000000" font-family="sans-serif" font-size="14" lengthAdjust="spacing" textLength="52" x="333" y="76.7285">:UsersUI</text><rect fill="#E2E2F0" height="51.2422" rx="2.5" ry="2.5" style="stroke:#181818;stroke-width:0.5;" width="109" x="304.5" y="894.7715"/><text fill="#000000" font-family="sans-serif" font-size="14" font-style="italic" lengthAdjust="spacing" textLength="95" x="311.5" y="916.8789">&#171;presentation&#187;</text><text fill="#000000" font-family="sans-serif" font-size="14" lengthAdjust="spacing" textLength="52" x="333" y="935.5">:UsersUI</text><rect fill="#E2E2F0" height="51.2422" rx="2.5" ry="2.5" style="stroke:#181818;stroke-width:0.5;" width="248" x="423.5" y="36"/><text fill="#000000" font-family="sans-serif" font-size="14" font-style="italic" lengthAdjust="spacing" textLength="84" x="505.5" y="58.1074">&#171;application&#187;</text><text fill="#000000" font-family="sans-serif" font-size="14" lengthAdjust="spacing" textLength="234" x="430.5" y="76.7285">:OpenCloseCourseEnrollmentsAction</text><rect fill="#E2E2F0" height="51.2422" rx="2.5" ry="2.5" style="stroke:#181818;stroke-width:0.5;" width="248" x="423.5" y="894.7715"/><text fill="#000000" font-family="sans-serif" font-size="14" font-style="italic" lengthAdjust="spacing" textLength="84" x="505.5" y="916.8789">&#171;application&#187;</text><text fill="#000000" font-family="sans-serif" font-size="14" lengthAdjust="spacing" textLength="234" x="430.5" y="935.5">:OpenCloseCourseEnrollmentsAction</text><rect fill="#E2E2F0" height="51.2422" rx="2.5" ry="2.5" style="stroke:#181818;stroke-width:0.5;" width="221" x="681.5" y="36"/><text fill="#000000" font-family="sans-serif" font-size="14" font-style="italic" lengthAdjust="spacing" textLength="95" x="744.5" y="58.1074">&#171;presentation&#187;</text><text fill="#000000" font-family="sans-serif" font-size="14" lengthAdjust="spacing" textLength="207" x="688.5" y="76.7285">:OpenCloseCourseEnrollmentsUI</text><rect fill="#E2E2F0" height="51.2422" rx="2.5" ry="2.5" style="stroke:#181818;stroke-width:0.5;" width="221" x="681.5" y="894.7715"/><text fill="#000000" font-family="sans-serif" font-size="14" font-style="italic" lengthAdjust="spacing" textLength="95" x="744.5" y="916.8789">&#171;presentation&#187;</text><text fill="#000000" font-family="sans-serif" font-size="14" lengthAdjust="spacing" textLength="207" x="688.5" y="935.5">:OpenCloseCourseEnrollmentsUI</text><rect fill="#E2E2F0" height="51.2422" rx="2.5" ry="2.5" style="stroke:#181818;stroke-width:0.5;" width="197" x="1060.5" y="36"/><text fill="#000000" font-family="sans-serif" font-size="14" font-style="italic" lengthAdjust="spacing" textLength="84" x="1117" y="58.1074">&#171;application&#187;</text><text fill="#000000" font-family="sans-serif" font-size="14" lengthAdjust="spacing" textLength="183" x="1067.5" y="76.7285">:OpenCloseCourseController</text><rect fill="#E2E2F0" height="51.2422" rx="2.5" ry="2.5" style="stroke:#181818;stroke-width:0.5;" width="197" x="1060.5" y="894.7715"/><text fill="#000000" font-family="sans-serif" font-size="14" font-style="italic" lengthAdjust="spacing" textLength="84" x="1117" y="916.8789">&#171;application&#187;</text><text fill="#000000" font-family="sans-serif" font-size="14" lengthAdjust="spacing" textLength="183" x="1067.5" y="935.5">:OpenCloseCourseController</text><rect fill="#E2E2F0" height="51.2422" rx="2.5" ry="2.5" style="stroke:#181818;stroke-width:0.5;" width="111" x="1284.5" y="36"/><text fill="#000000" font-family="sans-serif" font-size="14" font-style="italic" lengthAdjust="spacing" textLength="84" x="1298" y="58.1074">&#171;application&#187;</text><text fill="#000000" font-family="sans-serif" font-size="14" lengthAdjust="spacing" textLength="97" x="1291.5" y="76.7285">:CourseService</text><rect fill="#E2E2F0" height="51.2422" rx="2.5" ry="2.5" style="stroke:#181818;stroke-width:0.5;" width="111" x="1284.5" y="894.7715"/><text fill="#000000" font-family="sans-serif" font-size="14" font-style="italic" lengthAdjust="spacing" textLength="84" x="1298" y="916.8789">&#171;application&#187;</text><text fill="#000000" font-family="sans-serif" font-size="14" lengthAdjust="spacing" textLength="97" x="1291.5" y="935.5">:CourseService</text><rect fill="#E2E2F0" height="51.2422" rx="2.5" ry="2.5" style="stroke:#181818;stroke-width:0.5;" width="76" x="1405.5" y="36"/><text fill="#000000" font-family="sans-serif" font-size="14" font-style="italic" lengthAdjust="spacing" textLength="62" x="1412.5" y="58.1074">&#171;domain&#187;</text><text fill="#000000" font-family="sans-serif" font-size="14" lengthAdjust="spacing" textLength="46" x="1420.5" y="76.7285">Course</text><rect fill="#E2E2F0" height="51.2422" rx="2.5" ry="2.5" style="stroke:#181818;stroke-width:0.5;" width="76" x="1405.5" y="894.7715"/><text fill="#000000" font-family="sans-serif" font-size="14" font-style="italic" lengthAdjust="spacing" textLength="62" x="1412.5" y="916.8789">&#171;domain&#187;</text><text fill="#000000" font-family="sans-serif" font-size="14" lengthAdjust="spacing" textLength="46" x="1420.5" y="935.5">Course</text><text fill="#000000" font-family="sans-serif" font-size="14" font-style="italic" lengthAdjust="spacing" textLength="79" x="1511" y="66.1074">&#171;repository&#187;</text><text fill="#000000" font-family="sans-serif" font-size="14" lengthAdjust="spacing" textLength="118" x="1491.5" y="84.7285">:CourseRepository</text><path d="M1535.5,15 C1535.5,5 1553.5,5 1553.5,5 C1553.5,5 1571.5,5 1571.5,15 L1571.5,41 C1571.5,51 1553.5,51 1553.5,51 C1553.5,51 1535.5,51 1535.5,41 L1535.5,15 " fill="#E2E2F0" style="stroke:#181818;stroke-width:1.5;"/><path d="M1535.5,15 C1535.5,25 1553.5,25 1553.5,25 C1553.5,25 1571.5,25 1571.5,15 " fill="none" style="stroke:#181818;stroke-width:1.5;"/><text fill="#000000" font-family="sans-serif" font-size="14" font-style="italic" lengthAdjust="spacing" textLength="79" x="1511" y="909.8789">&#171;repository&#187;</text><text fill="#000000" font-family="sans-serif" font-size="14" lengthAdjust="spacing" textLength="118" x="1491.5" y="928.5">:CourseRepository</text><path d="M1535.5,942.0137 C1535.5,932.0137 1553.5,932.0137 1553.5,932.0137 C1553.5,932.0137 1571.5,932.0137 1571.5,942.0137 L1571.5,968.0137 C1571.5,978.0137 1553.5,978.0137 1553.5,978.0137 C1553.5,978.0137 1535.5,978.0137 1535.5,968.0137 L1535.5,942.0137 " fill="#E2E2F0" style="stroke:#181818;stroke-width:1.5;"/><path d="M1535.5,942.0137 C1535.5,952.0137 1553.5,952.0137 1553.5,952.0137 C1553.5,952.0137 1571.5,952.0137 1571.5,942.0137 " fill="none" style="stroke:#181818;stroke-width:1.5;"/><rect fill="#FFFFFF" height="788.5293" style="stroke:#181818;stroke-width:1.0;" width="10" x="31" y="98.2422"/><rect fill="#FFFFFF" height="62.582" style="stroke:#181818;stroke-width:1.0;" width="10" x="354" y="121.5332"/><rect fill="#FFFFFF" height="31.291" style="stroke:#181818;stroke-width:1.0;" width="10" x="542.5" y="152.8242"/><rect fill="#FFFFFF" height="155.1641" style="stroke:#181818;stroke-width:1.0;" width="10" x="787" y="184.1152"/><rect fill="#FFFFFF" height="516.2012" style="stroke:#181818;stroke-width:1.0;" width="10" x="787" y="370.5703"/><rect fill="#FFFFFF" height="28" style="stroke:#181818;stroke-width:1.0;" width="10" x="792" y="409.8613"/><rect fill="#FFFFFF" height="92.582" style="stroke:#181818;stroke-width:1.0;" width="10" x="1154" y="215.4063"/><rect fill="#FFFFFF" height="153.873" style="stroke:#181818;stroke-width:1.0;" width="10" x="1154" y="692.6074"/><rect fill="#FFFFFF" height="61.291" style="stroke:#181818;stroke-width:1.0;" width="10" x="1335" y="246.6973"/><rect fill="#FFFFFF" height="61.291" style="stroke:#181818;stroke-width:1.0;" width="10" x="1335" y="785.1895"/><rect fill="#FFFFFF" height="30" style="stroke:#181818;stroke-width:1.0;" width="10" x="1438.5" y="476.1523"/><rect fill="#FFFFFF" height="30" style="stroke:#181818;stroke-width:1.0;" width="10" x="1438.5" y="723.8984"/><rect fill="#FFFFFF" height="30" style="stroke:#181818;stroke-width:1.0;" width="10" x="1548.5" y="277.9883"/><rect fill="#FFFFFF" height="30" style="stroke:#181818;stroke-width:1.0;" width="10" x="1548.5" y="816.4805"/><polygon fill="#181818" points="342,117.5332,352,121.5332,342,125.5332,346,121.5332" style="stroke:#181818;stroke-width:1.0;"/><line style="stroke:#181818;stroke-width:1.0;" x1="41" x2="348" y1="121.5332" y2="121.5332"/><text fill="#000000" font-family="sans-serif" font-size="13" font-weight="bold" lengthAdjust="spacing" textLength="7" x="48" y="116.2705">1</text><text fill="#000000" font-family="sans-serif" font-size="13" lengthAdjust="spacing" textLength="283" x="59" y="116.2705">requests to add modification course enrollments state</text><polygon fill="#181818" points="530.5,148.8242,540.5,152.8242,530.5,156.8242,534.5,152.8242" style="stroke:#181818;stroke-width:1.0;"/><line style="stroke:#181818;stroke-width:1.0;" x1="364" x2="536.5" y1="152.8242" y2="152.8242"/><text fill="#000000" font-family="sans-serif" font-size="13" font-weight="bold" lengthAdjust="spacing" textLength="7" x="371" y="147.5615">2</text><text fill="#000000" font-family="sans-serif" font-size="13" lengthAdjust="spacing" textLength="54" x="382" y="147.5615">execute()</text><polygon fill="#181818" points="775,180.1152,785,184.1152,775,188.1152,779,184.1152" style="stroke:#181818;stroke-width:1.0;"/><line style="stroke:#181818;stroke-width:1.0;" x1="547.5" x2="781" y1="184.1152" y2="184.1152"/><text fill="#000000" font-family="sans-serif" font-size="13" font-weight="bold" lengthAdjust="spacing" textLength="7" x="554.5" y="178.8525">3</text><text fill="#000000" font-family="sans-serif" font-size="13" lengthAdjust="spacing" textLength="54" x="565.5" y="178.8525">doShow()</text><polygon fill="#181818" points="1142,211.4063,1152,215.4063,1142,219.4063,1146,215.4063" style="stroke:#181818;stroke-width:1.0;"/><line style="stroke:#181818;stroke-width:1.0;" x1="797" x2="1148" y1="215.4063" y2="215.4063"/><text fill="#000000" font-family="sans-serif" font-size="13" font-weight="bold" lengthAdjust="spacing" textLength="7" x="804" y="210.1436">4</text><text fill="#000000" font-family="sans-serif" font-size="13" lengthAdjust="spacing" textLength="89" x="815" y="210.1436">getAllCourses()</text><polygon fill="#181818" points="1323,242.6973,1333,246.6973,1323,250.6973,1327,246.6973" style="stroke:#181818;stroke-width:1.0;"/><line style="stroke:#181818;stroke-width:1.0;" x1="1164" x2="1329" y1="246.6973" y2="246.6973"/><text fill="#000000" font-family="sans-serif" font-size="13" font-weight="bold" lengthAdjust="spacing" textLength="7" x="1171" y="241.4346">5</text><text fill="#000000" font-family="sans-serif" font-size="13" lengthAdjust="spacing" textLength="89" x="1182" y="241.4346">getAllCourses()</text><polygon fill="#181818" points="1536.5,273.9883,1546.5,277.9883,1536.5,281.9883,1540.5,277.9883" style="stroke:#181818;stroke-width:1.0;"/><line style="stroke:#181818;stroke-width:1.0;" x1="1345" x2="1542.5" y1="277.9883" y2="277.9883"/><text fill="#000000" font-family="sans-serif" font-size="13" font-weight="bold" lengthAdjust="spacing" textLength="7" x="1352" y="272.7256">6</text><text fill="#000000" font-family="sans-serif" font-size="13" lengthAdjust="spacing" textLength="89" x="1363" y="272.7256">getAllCourses()</text><polygon fill="#181818" points="52,335.2793,42,339.2793,52,343.2793,48,339.2793" style="stroke:#181818;stroke-width:1.0;"/><line style="stroke:#181818;stroke-width:1.0;" x1="46" x2="791" y1="339.2793" y2="339.2793"/><text fill="#000000" font-family="sans-serif" font-size="13" font-weight="bold" lengthAdjust="spacing" textLength="7" x="58" y="334.0166">7</text><text fill="#000000" font-family="sans-serif" font-size="13" lengthAdjust="spacing" textLength="269" x="69" y="334.0166">shows all courses and requests to choose one</text><polygon fill="#181818" points="775,366.5703,785,370.5703,775,374.5703,779,370.5703" style="stroke:#181818;stroke-width:1.0;"/><line style="stroke:#181818;stroke-width:1.0;" x1="41" x2="781" y1="370.5703" y2="370.5703"/><text fill="#000000" font-family="sans-serif" font-size="13" font-weight="bold" lengthAdjust="spacing" textLength="7" x="48" y="365.3076">8</text><text fill="#000000" font-family="sans-serif" font-size="13" lengthAdjust="spacing" textLength="67" x="59" y="365.3076">choose one</text><line style="stroke:#181818;stroke-width:1.0;" x1="802" x2="844" y1="401.8613" y2="401.8613"/><line style="stroke:#181818;stroke-width:1.0;" x1="844" x2="844" y1="401.8613" y2="414.8613"/><line style="stroke:#181818;stroke-width:1.0;" x1="803" x2="844" y1="414.8613" y2="414.8613"/><polygon fill="#181818" points="813,410.8613,803,414.8613,813,418.8613,809,414.8613" style="stroke:#181818;stroke-width:1.0;"/><text fill="#000000" font-family="sans-serif" font-size="13" font-weight="bold" lengthAdjust="spacing" textLength="7" x="809" y="396.5986">9</text><text fill="#000000" font-family="sans-serif" font-size="13" lengthAdjust="spacing" textLength="120" x="820" y="396.5986">course = get(course)</text><polygon fill="#181818" points="1426.5,472.1523,1436.5,476.1523,1426.5,480.1523,1430.5,476.1523" style="stroke:#181818;stroke-width:1.0;"/><line style="stroke:#181818;stroke-width:1.0;" x1="797" x2="1432.5" y1="476.1523" y2="476.1523"/><text fill="#000000" font-family="sans-serif" font-size="13" font-weight="bold" lengthAdjust="spacing" textLength="14" x="804" y="470.8896">10</text><text fill="#000000" font-family="sans-serif" font-size="13" lengthAdjust="spacing" textLength="247" x="822" y="470.8896">enrollmentsState = getEnrollementsState()</text><path d="M671.5,521.1523 L732.5,521.1523 L732.5,530.4434 L722.5,540.4434 L671.5,540.4434 L671.5,521.1523 " fill="#EEEEEE" style="stroke:#000000;stroke-width:1.5;"/><rect fill="none" height="63.582" style="stroke:#000000;stroke-width:1.5;" width="422.5" x="671.5" y="521.1523"/><text fill="#000000" font-family="sans-serif" font-size="13" font-weight="bold" lengthAdjust="spacing" textLength="16" x="686.5" y="536.1807">alt</text><text fill="#000000" font-family="sans-serif" font-size="11" font-weight="bold" lengthAdjust="spacing" textLength="243" x="747.5" y="535.0225">[enrollmentsState = enrollmentsState.OPEN]</text><line style="stroke:#181818;stroke-width:1.0;" x1="797" x2="839" y1="563.7344" y2="563.7344"/><line style="stroke:#181818;stroke-width:1.0;" x1="839" x2="839" y1="563.7344" y2="576.7344"/><line style="stroke:#181818;stroke-width:1.0;" x1="798" x2="839" y1="576.7344" y2="576.7344"/><polygon fill="#181818" points="808,572.7344,798,576.7344,808,580.7344,804,576.7344" style="stroke:#181818;stroke-width:1.0;"/><text fill="#000000" font-family="sans-serif" font-size="13" font-weight="bold" lengthAdjust="spacing" textLength="14" x="804" y="558.4717">11</text><text fill="#000000" font-family="sans-serif" font-size="13" lengthAdjust="spacing" textLength="260" x="822" y="558.4717">enrollmentsState = enrollmentsState.CLOSE</text><path d="M671.5,598.7344 L732.5,598.7344 L732.5,608.0254 L722.5,618.0254 L671.5,618.0254 L671.5,598.7344 " fill="#EEEEEE" style="stroke:#000000;stroke-width:1.5;"/><rect fill="none" height="63.582" style="stroke:#000000;stroke-width:1.5;" width="415.5" x="671.5" y="598.7344"/><text fill="#000000" font-family="sans-serif" font-size="13" font-weight="bold" lengthAdjust="spacing" textLength="16" x="686.5" y="613.7627">alt</text><text fill="#000000" font-family="sans-serif" font-size="11" font-weight="bold" lengthAdjust="spacing" textLength="251" x="747.5" y="612.6045">[enrollmentsState = enrollmentsState.CLOSE]</text><line style="stroke:#181818;stroke-width:1.0;" x1="797" x2="839" y1="641.3164" y2="641.3164"/><line style="stroke:#181818;stroke-width:1.0;" x1="839" x2="839" y1="641.3164" y2="654.3164"/><line style="stroke:#181818;stroke-width:1.0;" x1="798" x2="839" y1="654.3164" y2="654.3164"/><polygon fill="#181818" points="808,650.3164,798,654.3164,808,658.3164,804,654.3164" style="stroke:#181818;stroke-width:1.0;"/><text fill="#000000" font-family="sans-serif" font-size="13" font-weight="bold" lengthAdjust="spacing" textLength="14" x="804" y="636.0537">12</text><text fill="#000000" font-family="sans-serif" font-size="13" lengthAdjust="spacing" textLength="253" x="822" y="636.0537">enrollmentsState = enrollmentsState.OPEN</text><polygon fill="#181818" points="1142,688.6074,1152,692.6074,1142,696.6074,1146,692.6074" style="stroke:#181818;stroke-width:1.0;"/><line style="stroke:#181818;stroke-width:1.0;" x1="797" x2="1148" y1="692.6074" y2="692.6074"/><text fill="#000000" font-family="sans-serif" font-size="13" font-weight="bold" lengthAdjust="spacing" textLength="14" x="804" y="687.3447">13</text><text fill="#000000" font-family="sans-serif" font-size="13" lengthAdjust="spacing" textLength="320" x="822" y="687.3447">openCloseCourseEnrollments(course,enrollmentsState)</text><polygon fill="#181818" points="1426.5,719.8984,1436.5,723.8984,1426.5,727.8984,1430.5,723.8984" style="stroke:#181818;stroke-width:1.0;"/><line style="stroke:#181818;stroke-width:1.0;" x1="1164" x2="1432.5" y1="723.8984" y2="723.8984"/><text fill="#000000" font-family="sans-serif" font-size="13" font-weight="bold" lengthAdjust="spacing" textLength="14" x="1171" y="718.6357">14</text><text fill="#000000" font-family="sans-serif" font-size="13" lengthAdjust="spacing" textLength="224" x="1189" y="718.6357">setEnrollmentsState(enrollmentsState)</text><polygon fill="#181818" points="1323,781.1895,1333,785.1895,1323,789.1895,1327,785.1895" style="stroke:#181818;stroke-width:1.0;"/><line style="stroke:#181818;stroke-width:1.0;" x1="1164" x2="1329" y1="785.1895" y2="785.1895"/><text fill="#000000" font-family="sans-serif" font-size="13" font-weight="bold" lengthAdjust="spacing" textLength="14" x="1171" y="779.9268">15</text><text fill="#000000" font-family="sans-serif" font-size="13" lengthAdjust="spacing" textLength="134" x="1189" y="779.9268">addNewCourse(course)</text><polygon fill="#181818" points="1536.5,812.4805,1546.5,816.4805,1536.5,820.4805,1540.5,816.4805" style="stroke:#181818;stroke-width:1.0;"/><line style="stroke:#181818;stroke-width:1.0;" x1="1345" x2="1542.5" y1="816.4805" y2="816.4805"/><text fill="#000000" font-family="sans-serif" font-size="13" font-weight="bold" lengthAdjust="spacing" textLength="14" x="1352" y="811.2178">16</text><text fill="#000000" font-family="sans-serif" font-size="13" lengthAdjust="spacing" textLength="73" x="1370" y="811.2178">save(course)</text><polygon fill="#181818" points="52,873.7715,42,877.7715,52,881.7715,48,877.7715" style="stroke:#181818;stroke-width:1.0;"/><line style="stroke:#181818;stroke-width:1.0;stroke-dasharray:2.0,2.0;" x1="46" x2="786" y1="877.7715" y2="877.7715"/><text fill="#000000" font-family="sans-serif" font-size="13" font-weight="bold" lengthAdjust="spacing" textLength="14" x="58" y="872.5088">17</text><text fill="#000000" font-family="sans-serif" font-size="13" lengthAdjust="spacing" textLength="152" x="76" y="872.5088">informs operation success</text><!--SRC=[jLHDRzim3BthLmYvD0NMvcvq0OeWXm5RCop83r1bDX4WIwuefzk_7sLPjlBX9CMmcqI_zqZnaRxRULzZCPlLMXZVLFfHscg6yDw0aV1GAh5rec9CDDwQfde5HsVfhUELC68BZWlaan_nF66i5iuhgMeIuvDYW-1mysqIG8tYJq-r0mJZXLVMpET7w5KDPg4jmi8s3c5fdDMw8ZW-oq1ePKHx92bHrrh9pofrnSWsllbiIGjhV92YfqQLTBrIJsIlmUsLX9QAyNoP5sbPmGGlRILKG9R2YrT1iIJ_2sgBYgpvqp9SVoNMS25cC53jXOVa8MF9p8TvyAaWCWq0UkJUSb6MNEw4sKAg0eP-SgJEmQ3OA4O29DFvL73u3RBnCBqVGF4Rwo04xkqeU6dNE_j1w1AEyLc4qlJdH6QzIglOMrFmBVXdhMENC2zaGB6CGFHapmLk1s49IgoivHU80of_qVbeIfA53ceU7fmSB3XI_sXFjEuwGsTJ7ZWgTvP6cbjp9DprCHk6p9YCTAtr0oVEozVGZ6cyt9zXdolYL37CqZ1uwp1tKJckDmpXwKcIqnHCQ7zExpZqkFgvV1bxtotynVVLUid0b3TdZ8n_IDcM73AEReGT_K5sDdqv5hrbQtgVC9cIUN9HSCIZiQMaNz8BVCJQJ-VgscQYs9zX_O-rFDXBPTwigp3qthM_UuwDb838s5y0]--></g></svg>