<?xml version="1.0" encoding="us-ascii" standalone="no"?><svg xmlns="http://www.w3.org/2000/svg" xmlns:xlink="http://www.w3.org/1999/xlink" contentStyleType="text/css" height="1045px" preserveAspectRatio="none" style="width:2435px;height:1045px;background:#FFFFFF;" version="1.1" viewBox="0 0 2435 1045" width="2435px" zoomAndPan="magnify"><defs/><g><rect fill="#FFFFFF" height="829.8203" style="stroke:#181818;stroke-width:1.0;" width="10" x="27.5" y="98.2422"/><rect fill="#FFFFFF" height="62.582" style="stroke:#181818;stroke-width:1.0;" width="10" x="280.5" y="121.5332"/><rect fill="#FFFFFF" height="31.291" style="stroke:#181818;stroke-width:1.0;" width="10" x="448.5" y="152.8242"/><rect fill="#FFFFFF" height="155.1641" style="stroke:#181818;stroke-width:1.0;" width="10" x="652" y="184.1152"/><rect fill="#FFFFFF" height="557.4922" style="stroke:#181818;stroke-width:1.0;" width="10" x="652" y="370.5703"/><rect fill="#FFFFFF" height="28" style="stroke:#181818;stroke-width:1.0;" width="10" x="657" y="409.8613"/><rect fill="#FFFFFF" height="28" style="stroke:#181818;stroke-width:1.0;" width="10" x="657" y="484.1523"/><rect fill="#FFFFFF" height="92.582" style="stroke:#181818;stroke-width:1.0;" width="10" x="1346" y="215.4063"/><rect fill="#FFFFFF" height="30" style="stroke:#181818;stroke-width:1.0;" width="10" x="1346" y="550.4434"/><rect fill="#FFFFFF" height="61.291" style="stroke:#181818;stroke-width:1.0;" width="10" x="1346" y="690.6074"/><rect fill="#FFFFFF" height="92.582" style="stroke:#181818;stroke-width:1.0;" width="10" x="1346" y="783.1895"/><rect fill="#FFFFFF" height="61.291" style="stroke:#181818;stroke-width:1.0;" width="10" x="1717" y="814.4805"/><rect fill="#FFFFFF" height="61.291" style="stroke:#181818;stroke-width:1.0;" width="10" x="1877.5" y="246.6973"/><rect fill="#FFFFFF" height="30" style="stroke:#181818;stroke-width:1.0;" width="10" x="2012.5" y="721.8984"/><rect fill="#FFFFFF" height="30" style="stroke:#181818;stroke-width:1.0;" width="10" x="2193.5" y="845.7715"/><rect fill="#FFFFFF" height="30" style="stroke:#181818;stroke-width:1.0;" width="10" x="2367" y="277.9883"/><rect fill="none" height="302.3281" style="stroke:#000000;stroke-width:1.5;" width="1793" x="537" y="595.4434"/><rect fill="none" height="269.0371" style="stroke:#000000;stroke-width:1.5;" width="1773" x="547" y="621.7344"/><rect fill="none" height="235.7461" style="stroke:#000000;stroke-width:1.5;" width="1753" x="557" y="648.0254"/><line style="stroke:#181818;stroke-width:0.5;stroke-dasharray:5.0,5.0;" x1="32" x2="32" y1="88.2422" y2="946.0625"/><line style="stroke:#181818;stroke-width:0.5;stroke-dasharray:5.0,5.0;" x1="285" x2="285" y1="88.2422" y2="946.0625"/><line style="stroke:#181818;stroke-width:0.5;stroke-dasharray:5.0,5.0;" x1="453" x2="453" y1="88.2422" y2="946.0625"/><line style="stroke:#181818;stroke-width:0.5;stroke-dasharray:5.0,5.0;" x1="657" x2="657" y1="88.2422" y2="946.0625"/><line style="stroke:#181818;stroke-width:0.5;stroke-dasharray:5.0,5.0;" x1="1350.5" x2="1350.5" y1="88.2422" y2="946.0625"/><line style="stroke:#181818;stroke-width:0.5;stroke-dasharray:5.0,5.0;" x1="1722" x2="1722" y1="88.2422" y2="946.0625"/><line style="stroke:#181818;stroke-width:0.5;stroke-dasharray:5.0,5.0;" x1="1882" x2="1882" y1="88.2422" y2="946.0625"/><line style="stroke:#181818;stroke-width:0.5;stroke-dasharray:5.0,5.0;" x1="2017" x2="2017" y1="88.2422" y2="946.0625"/><line style="stroke:#181818;stroke-width:0.5;stroke-dasharray:5.0,5.0;" x1="2198" x2="2198" y1="88.2422" y2="946.0625"/><line style="stroke:#181818;stroke-width:0.5;stroke-dasharray:5.0,5.0;" x1="2372" x2="2372" y1="88.2422" y2="946.0625"/><text fill="#000000" font-family="sans-serif" font-size="14" lengthAdjust="spacing" textLength="49" x="5" y="84.7285">Student</text><ellipse cx="32.5" cy="18.1211" fill="#E2E2F0" rx="8" ry="8" style="stroke:#181818;stroke-width:0.5;"/><path d="M32.5,26.1211 L32.5,53.1211 M19.5,34.1211 L45.5,34.1211 M32.5,53.1211 L19.5,68.1211 M32.5,53.1211 L45.5,68.1211 " fill="none" style="stroke:#181818;stroke-width:0.5;"/><text fill="#000000" font-family="sans-serif" font-size="14" lengthAdjust="spacing" textLength="49" x="5" y="960.1699">Student</text><ellipse cx="32.5" cy="972.1836" fill="#E2E2F0" rx="8" ry="8" style="stroke:#181818;stroke-width:0.5;"/><path d="M32.5,980.1836 L32.5,1007.1836 M19.5,988.1836 L45.5,988.1836 M32.5,1007.1836 L19.5,1022.1836 M32.5,1007.1836 L45.5,1022.1836 " fill="none" style="stroke:#181818;stroke-width:0.5;"/><rect fill="#E2E2F0" height="51.2422" rx="2.5" ry="2.5" style="stroke:#181818;stroke-width:0.5;" width="109" x="231" y="36"/><text fill="#000000" font-family="sans-serif" font-size="14" font-style="italic" lengthAdjust="spacing" textLength="95" x="238" y="58.1074">&#171;presentation&#187;</text><text fill="#000000" font-family="sans-serif" font-size="14" lengthAdjust="spacing" textLength="52" x="259.5" y="76.7285">:UsersUI</text><rect fill="#E2E2F0" height="51.2422" rx="2.5" ry="2.5" style="stroke:#181818;stroke-width:0.5;" width="109" x="231" y="945.0625"/><text fill="#000000" font-family="sans-serif" font-size="14" font-style="italic" lengthAdjust="spacing" textLength="95" x="238" y="967.1699">&#171;presentation&#187;</text><text fill="#000000" font-family="sans-serif" font-size="14" lengthAdjust="spacing" textLength="52" x="259.5" y="985.791">:UsersUI</text><rect fill="#E2E2F0" height="51.2422" rx="2.5" ry="2.5" style="stroke:#181818;stroke-width:0.5;" width="207" x="350" y="36"/><text fill="#000000" font-family="sans-serif" font-size="14" font-style="italic" lengthAdjust="spacing" textLength="84" x="411.5" y="58.1074">&#171;application&#187;</text><text fill="#000000" font-family="sans-serif" font-size="14" lengthAdjust="spacing" textLength="193" x="357" y="76.7285">:AddStudentRegistrationAction</text><rect fill="#E2E2F0" height="51.2422" rx="2.5" ry="2.5" style="stroke:#181818;stroke-width:0.5;" width="207" x="350" y="945.0625"/><text fill="#000000" font-family="sans-serif" font-size="14" font-style="italic" lengthAdjust="spacing" textLength="84" x="411.5" y="967.1699">&#171;application&#187;</text><text fill="#000000" font-family="sans-serif" font-size="14" lengthAdjust="spacing" textLength="193" x="357" y="985.791">:AddStudentRegistrationAction</text><rect fill="#E2E2F0" height="51.2422" rx="2.5" ry="2.5" style="stroke:#181818;stroke-width:0.5;" width="180" x="567" y="36"/><text fill="#000000" font-family="sans-serif" font-size="14" font-style="italic" lengthAdjust="spacing" textLength="95" x="609.5" y="58.1074">&#171;presentation&#187;</text><text fill="#000000" font-family="sans-serif" font-size="14" lengthAdjust="spacing" textLength="166" x="574" y="76.7285">:AddStudentRegistrationUI</text><rect fill="#E2E2F0" height="51.2422" rx="2.5" ry="2.5" style="stroke:#181818;stroke-width:0.5;" width="180" x="567" y="945.0625"/><text fill="#000000" font-family="sans-serif" font-size="14" font-style="italic" lengthAdjust="spacing" textLength="95" x="609.5" y="967.1699">&#171;presentation&#187;</text><text fill="#000000" font-family="sans-serif" font-size="14" lengthAdjust="spacing" textLength="166" x="574" y="985.791">:AddStudentRegistrationUI</text><rect fill="#E2E2F0" height="51.2422" rx="2.5" ry="2.5" style="stroke:#181818;stroke-width:0.5;" width="205" x="1248.5" y="36"/><text fill="#000000" font-family="sans-serif" font-size="14" font-style="italic" lengthAdjust="spacing" textLength="84" x="1309" y="58.1074">&#171;application&#187;</text><text fill="#000000" font-family="sans-serif" font-size="14" lengthAdjust="spacing" textLength="191" x="1255.5" y="76.7285">:StudentRegistrationController</text><rect fill="#E2E2F0" height="51.2422" rx="2.5" ry="2.5" style="stroke:#181818;stroke-width:0.5;" width="205" x="1248.5" y="945.0625"/><text fill="#000000" font-family="sans-serif" font-size="14" font-style="italic" lengthAdjust="spacing" textLength="84" x="1309" y="967.1699">&#171;application&#187;</text><text fill="#000000" font-family="sans-serif" font-size="14" lengthAdjust="spacing" textLength="191" x="1255.5" y="985.791">:StudentRegistrationController</text><rect fill="#E2E2F0" height="51.2422" rx="2.5" ry="2.5" style="stroke:#181818;stroke-width:0.5;" width="190" x="1627" y="36"/><text fill="#000000" font-family="sans-serif" font-size="14" font-style="italic" lengthAdjust="spacing" textLength="84" x="1680" y="58.1074">&#171;application&#187;</text><text fill="#000000" font-family="sans-serif" font-size="14" lengthAdjust="spacing" textLength="176" x="1634" y="76.7285">:StudentRegistrationService</text><rect fill="#E2E2F0" height="51.2422" rx="2.5" ry="2.5" style="stroke:#181818;stroke-width:0.5;" width="190" x="1627" y="945.0625"/><text fill="#000000" font-family="sans-serif" font-size="14" font-style="italic" lengthAdjust="spacing" textLength="84" x="1680" y="967.1699">&#171;application&#187;</text><text fill="#000000" font-family="sans-serif" font-size="14" lengthAdjust="spacing" textLength="176" x="1634" y="985.791">:StudentRegistrationService</text><rect fill="#E2E2F0" height="51.2422" rx="2.5" ry="2.5" style="stroke:#181818;stroke-width:0.5;" width="111" x="1827" y="36"/><text fill="#000000" font-family="sans-serif" font-size="14" font-style="italic" lengthAdjust="spacing" textLength="84" x="1840.5" y="58.1074">&#171;application&#187;</text><text fill="#000000" font-family="sans-serif" font-size="14" lengthAdjust="spacing" textLength="97" x="1834" y="76.7285">:CourseService</text><rect fill="#E2E2F0" height="51.2422" rx="2.5" ry="2.5" style="stroke:#181818;stroke-width:0.5;" width="111" x="1827" y="945.0625"/><text fill="#000000" font-family="sans-serif" font-size="14" font-style="italic" lengthAdjust="spacing" textLength="84" x="1840.5" y="967.1699">&#171;application&#187;</text><text fill="#000000" font-family="sans-serif" font-size="14" lengthAdjust="spacing" textLength="97" x="1834" y="985.791">:CourseService</text><rect fill="#E2E2F0" height="51.2422" rx="2.5" ry="2.5" style="stroke:#181818;stroke-width:0.5;" width="139" x="1948" y="36"/><text fill="#000000" font-family="sans-serif" font-size="14" font-style="italic" lengthAdjust="spacing" textLength="62" x="1986.5" y="58.1074">&#171;domain&#187;</text><text fill="#000000" font-family="sans-serif" font-size="14" lengthAdjust="spacing" textLength="125" x="1955" y="76.7285">StudentRegistration</text><rect fill="#E2E2F0" height="51.2422" rx="2.5" ry="2.5" style="stroke:#181818;stroke-width:0.5;" width="139" x="1948" y="945.0625"/><text fill="#000000" font-family="sans-serif" font-size="14" font-style="italic" lengthAdjust="spacing" textLength="62" x="1986.5" y="967.1699">&#171;domain&#187;</text><text fill="#000000" font-family="sans-serif" font-size="14" lengthAdjust="spacing" textLength="125" x="1955" y="985.791">StudentRegistration</text><text fill="#000000" font-family="sans-serif" font-size="14" font-style="italic" lengthAdjust="spacing" textLength="79" x="2156" y="66.1074">&#171;repository&#187;</text><text fill="#000000" font-family="sans-serif" font-size="14" lengthAdjust="spacing" textLength="197" x="2097" y="84.7285">:StudentRegistrationRepository</text><path d="M2180.5,15 C2180.5,5 2198.5,5 2198.5,5 C2198.5,5 2216.5,5 2216.5,15 L2216.5,41 C2216.5,51 2198.5,51 2198.5,51 C2198.5,51 2180.5,51 2180.5,41 L2180.5,15 " fill="#E2E2F0" style="stroke:#181818;stroke-width:1.5;"/><path d="M2180.5,15 C2180.5,25 2198.5,25 2198.5,25 C2198.5,25 2216.5,25 2216.5,15 " fill="none" style="stroke:#181818;stroke-width:1.5;"/><text fill="#000000" font-family="sans-serif" font-size="14" font-style="italic" lengthAdjust="spacing" textLength="79" x="2156" y="960.1699">&#171;repository&#187;</text><text fill="#000000" font-family="sans-serif" font-size="14" lengthAdjust="spacing" textLength="197" x="2097" y="978.791">:StudentRegistrationRepository</text><path d="M2180.5,992.3047 C2180.5,982.3047 2198.5,982.3047 2198.5,982.3047 C2198.5,982.3047 2216.5,982.3047 2216.5,992.3047 L2216.5,1018.3047 C2216.5,1028.3047 2198.5,1028.3047 2198.5,1028.3047 C2198.5,1028.3047 2180.5,1028.3047 2180.5,1018.3047 L2180.5,992.3047 " fill="#E2E2F0" style="stroke:#181818;stroke-width:1.5;"/><path d="M2180.5,992.3047 C2180.5,1002.3047 2198.5,1002.3047 2198.5,1002.3047 C2198.5,1002.3047 2216.5,1002.3047 2216.5,992.3047 " fill="none" style="stroke:#181818;stroke-width:1.5;"/><text fill="#000000" font-family="sans-serif" font-size="14" font-style="italic" lengthAdjust="spacing" textLength="79" x="2329.5" y="66.1074">&#171;repository&#187;</text><text fill="#000000" font-family="sans-serif" font-size="14" lengthAdjust="spacing" textLength="118" x="2310" y="84.7285">:CourseRepository</text><path d="M2354,15 C2354,5 2372,5 2372,5 C2372,5 2390,5 2390,15 L2390,41 C2390,51 2372,51 2372,51 C2372,51 2354,51 2354,41 L2354,15 " fill="#E2E2F0" style="stroke:#181818;stroke-width:1.5;"/><path d="M2354,15 C2354,25 2372,25 2372,25 C2372,25 2390,25 2390,15 " fill="none" style="stroke:#181818;stroke-width:1.5;"/><text fill="#000000" font-family="sans-serif" font-size="14" font-style="italic" lengthAdjust="spacing" textLength="79" x="2329.5" y="960.1699">&#171;repository&#187;</text><text fill="#000000" font-family="sans-serif" font-size="14" lengthAdjust="spacing" textLength="118" x="2310" y="978.791">:CourseRepository</text><path d="M2354,992.3047 C2354,982.3047 2372,982.3047 2372,982.3047 C2372,982.3047 2390,982.3047 2390,992.3047 L2390,1018.3047 C2390,1028.3047 2372,1028.3047 2372,1028.3047 C2372,1028.3047 2354,1028.3047 2354,1018.3047 L2354,992.3047 " fill="#E2E2F0" style="stroke:#181818;stroke-width:1.5;"/><path d="M2354,992.3047 C2354,1002.3047 2372,1002.3047 2372,1002.3047 C2372,1002.3047 2390,1002.3047 2390,992.3047 " fill="none" style="stroke:#181818;stroke-width:1.5;"/><rect fill="#FFFFFF" height="829.8203" style="stroke:#181818;stroke-width:1.0;" width="10" x="27.5" y="98.2422"/><rect fill="#FFFFFF" height="62.582" style="stroke:#181818;stroke-width:1.0;" width="10" x="280.5" y="121.5332"/><rect fill="#FFFFFF" height="31.291" style="stroke:#181818;stroke-width:1.0;" width="10" x="448.5" y="152.8242"/><rect fill="#FFFFFF" height="155.1641" style="stroke:#181818;stroke-width:1.0;" width="10" x="652" y="184.1152"/><rect fill="#FFFFFF" height="557.4922" style="stroke:#181818;stroke-width:1.0;" width="10" x="652" y="370.5703"/><rect fill="#FFFFFF" height="28" style="stroke:#181818;stroke-width:1.0;" width="10" x="657" y="409.8613"/><rect fill="#FFFFFF" height="28" style="stroke:#181818;stroke-width:1.0;" width="10" x="657" y="484.1523"/><rect fill="#FFFFFF" height="92.582" style="stroke:#181818;stroke-width:1.0;" width="10" x="1346" y="215.4063"/><rect fill="#FFFFFF" height="30" style="stroke:#181818;stroke-width:1.0;" width="10" x="1346" y="550.4434"/><rect fill="#FFFFFF" height="61.291" style="stroke:#181818;stroke-width:1.0;" width="10" x="1346" y="690.6074"/><rect fill="#FFFFFF" height="92.582" style="stroke:#181818;stroke-width:1.0;" width="10" x="1346" y="783.1895"/><rect fill="#FFFFFF" height="61.291" style="stroke:#181818;stroke-width:1.0;" width="10" x="1717" y="814.4805"/><rect fill="#FFFFFF" height="61.291" style="stroke:#181818;stroke-width:1.0;" width="10" x="1877.5" y="246.6973"/><rect fill="#FFFFFF" height="30" style="stroke:#181818;stroke-width:1.0;" width="10" x="2012.5" y="721.8984"/><rect fill="#FFFFFF" height="30" style="stroke:#181818;stroke-width:1.0;" width="10" x="2193.5" y="845.7715"/><rect fill="#FFFFFF" height="30" style="stroke:#181818;stroke-width:1.0;" width="10" x="2367" y="277.9883"/><polygon fill="#181818" points="268.5,117.5332,278.5,121.5332,268.5,125.5332,272.5,121.5332" style="stroke:#181818;stroke-width:1.0;"/><line style="stroke:#181818;stroke-width:1.0;" x1="37.5" x2="274.5" y1="121.5332" y2="121.5332"/><text fill="#000000" font-family="sans-serif" font-size="13" font-weight="bold" lengthAdjust="spacing" textLength="7" x="44.5" y="116.2705">1</text><text fill="#000000" font-family="sans-serif" font-size="13" lengthAdjust="spacing" textLength="213" x="55.5" y="116.2705">Asks to request enrollment in course</text><polygon fill="#181818" points="436.5,148.8242,446.5,152.8242,436.5,156.8242,440.5,152.8242" style="stroke:#181818;stroke-width:1.0;"/><line style="stroke:#181818;stroke-width:1.0;" x1="290.5" x2="442.5" y1="152.8242" y2="152.8242"/><text fill="#000000" font-family="sans-serif" font-size="13" font-weight="bold" lengthAdjust="spacing" textLength="7" x="297.5" y="147.5615">2</text><text fill="#000000" font-family="sans-serif" font-size="13" lengthAdjust="spacing" textLength="54" x="308.5" y="147.5615">execute()</text><polygon fill="#181818" points="640,180.1152,650,184.1152,640,188.1152,644,184.1152" style="stroke:#181818;stroke-width:1.0;"/><line style="stroke:#181818;stroke-width:1.0;" x1="453.5" x2="646" y1="184.1152" y2="184.1152"/><text fill="#000000" font-family="sans-serif" font-size="13" font-weight="bold" lengthAdjust="spacing" textLength="7" x="460.5" y="178.8525">3</text><text fill="#000000" font-family="sans-serif" font-size="13" lengthAdjust="spacing" textLength="54" x="471.5" y="178.8525">doShow()</text><polygon fill="#181818" points="1334,211.4063,1344,215.4063,1334,219.4063,1338,215.4063" style="stroke:#181818;stroke-width:1.0;"/><line style="stroke:#181818;stroke-width:1.0;" x1="662" x2="1340" y1="215.4063" y2="215.4063"/><text fill="#000000" font-family="sans-serif" font-size="13" font-weight="bold" lengthAdjust="spacing" textLength="7" x="669" y="210.1436">4</text><text fill="#000000" font-family="sans-serif" font-size="13" lengthAdjust="spacing" textLength="74" x="680" y="210.1436">getCourses()</text><polygon fill="#181818" points="1865.5,242.6973,1875.5,246.6973,1865.5,250.6973,1869.5,246.6973" style="stroke:#181818;stroke-width:1.0;"/><line style="stroke:#181818;stroke-width:1.0;" x1="1356" x2="1871.5" y1="246.6973" y2="246.6973"/><text fill="#000000" font-family="sans-serif" font-size="13" font-weight="bold" lengthAdjust="spacing" textLength="7" x="1363" y="241.4346">5</text><text fill="#000000" font-family="sans-serif" font-size="13" lengthAdjust="spacing" textLength="74" x="1374" y="241.4346">getCourses()</text><polygon fill="#181818" points="2355,273.9883,2365,277.9883,2355,281.9883,2359,277.9883" style="stroke:#181818;stroke-width:1.0;"/><line style="stroke:#181818;stroke-width:1.0;" x1="1887.5" x2="2361" y1="277.9883" y2="277.9883"/><text fill="#000000" font-family="sans-serif" font-size="13" font-weight="bold" lengthAdjust="spacing" textLength="7" x="1894.5" y="272.7256">6</text><text fill="#000000" font-family="sans-serif" font-size="13" lengthAdjust="spacing" textLength="89" x="1905.5" y="272.7256">getAllCourses()</text><polygon fill="#181818" points="48.5,335.2793,38.5,339.2793,48.5,343.2793,44.5,339.2793" style="stroke:#181818;stroke-width:1.0;"/><line style="stroke:#181818;stroke-width:1.0;" x1="42.5" x2="656" y1="339.2793" y2="339.2793"/><text fill="#000000" font-family="sans-serif" font-size="13" font-weight="bold" lengthAdjust="spacing" textLength="7" x="54.5" y="334.0166">7</text><text fill="#000000" font-family="sans-serif" font-size="13" lengthAdjust="spacing" textLength="264" x="65.5" y="334.0166">Shows all courses and request to choose one</text><polygon fill="#181818" points="640,366.5703,650,370.5703,640,374.5703,644,370.5703" style="stroke:#181818;stroke-width:1.0;"/><line style="stroke:#181818;stroke-width:1.0;" x1="37.5" x2="646" y1="370.5703" y2="370.5703"/><text fill="#000000" font-family="sans-serif" font-size="13" font-weight="bold" lengthAdjust="spacing" textLength="7" x="44.5" y="365.3076">8</text><text fill="#000000" font-family="sans-serif" font-size="13" lengthAdjust="spacing" textLength="94" x="55.5" y="365.3076">Chooses course</text><line style="stroke:#181818;stroke-width:1.0;" x1="667" x2="709" y1="401.8613" y2="401.8613"/><line style="stroke:#181818;stroke-width:1.0;" x1="709" x2="709" y1="401.8613" y2="414.8613"/><line style="stroke:#181818;stroke-width:1.0;" x1="668" x2="709" y1="414.8613" y2="414.8613"/><polygon fill="#181818" points="678,410.8613,668,414.8613,678,418.8613,674,414.8613" style="stroke:#181818;stroke-width:1.0;"/><text fill="#000000" font-family="sans-serif" font-size="13" font-weight="bold" lengthAdjust="spacing" textLength="7" x="674" y="396.5986">9</text><text fill="#000000" font-family="sans-serif" font-size="13" lengthAdjust="spacing" textLength="120" x="685" y="396.5986">course = get(course)</text><line style="stroke:#181818;stroke-width:1.0;" x1="667" x2="709" y1="476.1523" y2="476.1523"/><line style="stroke:#181818;stroke-width:1.0;" x1="709" x2="709" y1="476.1523" y2="489.1523"/><line style="stroke:#181818;stroke-width:1.0;" x1="668" x2="709" y1="489.1523" y2="489.1523"/><polygon fill="#181818" points="678,485.1523,668,489.1523,678,493.1523,674,489.1523" style="stroke:#181818;stroke-width:1.0;"/><text fill="#000000" font-family="sans-serif" font-size="13" font-weight="bold" lengthAdjust="spacing" textLength="14" x="674" y="470.8896">10</text><text fill="#000000" font-family="sans-serif" font-size="13" lengthAdjust="spacing" textLength="152" x="692" y="470.8896">status = Status.PENDING</text><polygon fill="#181818" points="1334,546.4434,1344,550.4434,1334,554.4434,1338,550.4434" style="stroke:#181818;stroke-width:1.0;"/><line style="stroke:#181818;stroke-width:1.0;" x1="662" x2="1340" y1="550.4434" y2="550.4434"/><text fill="#000000" font-family="sans-serif" font-size="13" font-weight="bold" lengthAdjust="spacing" textLength="14" x="669" y="545.1807">11</text><text fill="#000000" font-family="sans-serif" font-size="13" lengthAdjust="spacing" textLength="647" x="687" y="545.1807">List&lt;StudentRegistration&gt; studentRegistrationsByCourse = controller.getStudentRegistrationsByCourse(course)</text><path d="M537,595.4434 L598,595.4434 L598,604.7344 L588,614.7344 L537,614.7344 L537,595.4434 " fill="#EEEEEE" style="stroke:#000000;stroke-width:1.5;"/><rect fill="none" height="302.3281" style="stroke:#000000;stroke-width:1.5;" width="1793" x="537" y="595.4434"/><text fill="#000000" font-family="sans-serif" font-size="13" font-weight="bold" lengthAdjust="spacing" textLength="16" x="552" y="610.4717">alt</text><text fill="#000000" font-family="sans-serif" font-size="11" font-weight="bold" lengthAdjust="spacing" textLength="211" x="613" y="609.3135">[course.getState().equals(State.OPEN)]</text><path d="M547,621.7344 L608,621.7344 L608,631.0254 L598,641.0254 L547,641.0254 L547,621.7344 " fill="#EEEEEE" style="stroke:#000000;stroke-width:1.5;"/><rect fill="none" height="269.0371" style="stroke:#000000;stroke-width:1.5;" width="1773" x="547" y="621.7344"/><text fill="#000000" font-family="sans-serif" font-size="13" font-weight="bold" lengthAdjust="spacing" textLength="16" x="562" y="636.7627">alt</text><text fill="#000000" font-family="sans-serif" font-size="11" font-weight="bold" lengthAdjust="spacing" textLength="353" x="623" y="635.6045">[(course.getEnrollmentsState().equals(EnrollmentsState.OPEN))]</text><path d="M557,648.0254 L618,648.0254 L618,657.3164 L608,667.3164 L557,667.3164 L557,648.0254 " fill="#EEEEEE" style="stroke:#000000;stroke-width:1.5;"/><rect fill="none" height="235.7461" style="stroke:#000000;stroke-width:1.5;" width="1753" x="557" y="648.0254"/><text fill="#000000" font-family="sans-serif" font-size="13" font-weight="bold" lengthAdjust="spacing" textLength="16" x="572" y="663.0537">alt</text><text fill="#000000" font-family="sans-serif" font-size="11" font-weight="bold" lengthAdjust="spacing" textLength="447" x="633" y="661.8955">[(course.getCapacity().getMaxCapacity() != studentRegistrationsByCourse.size())]</text><polygon fill="#181818" points="1334,686.6074,1344,690.6074,1334,694.6074,1338,690.6074" style="stroke:#181818;stroke-width:1.0;"/><line style="stroke:#181818;stroke-width:1.0;" x1="662" x2="1340" y1="690.6074" y2="690.6074"/><text fill="#000000" font-family="sans-serif" font-size="13" font-weight="bold" lengthAdjust="spacing" textLength="14" x="669" y="685.3447">12</text><text fill="#000000" font-family="sans-serif" font-size="13" lengthAdjust="spacing" textLength="547" x="687" y="685.3447">newStudentRegistration = controller.addStudentRegistration(currentUserProfile, status, course)</text><polygon fill="#181818" points="2000.5,717.8984,2010.5,721.8984,2000.5,725.8984,2004.5,721.8984" style="stroke:#181818;stroke-width:1.0;"/><line style="stroke:#181818;stroke-width:1.0;" x1="1356" x2="2006.5" y1="721.8984" y2="721.8984"/><text fill="#000000" font-family="sans-serif" font-size="13" font-weight="bold" lengthAdjust="spacing" textLength="14" x="1363" y="716.6357">13</text><text fill="#000000" font-family="sans-serif" font-size="13" lengthAdjust="spacing" textLength="341" x="1381" y="716.6357">StudentRegistration.from(null,studentProfile,status, course)</text><polygon fill="#181818" points="1334,779.1895,1344,783.1895,1334,787.1895,1338,783.1895" style="stroke:#181818;stroke-width:1.0;"/><line style="stroke:#181818;stroke-width:1.0;" x1="662" x2="1340" y1="783.1895" y2="783.1895"/><text fill="#000000" font-family="sans-serif" font-size="13" font-weight="bold" lengthAdjust="spacing" textLength="14" x="669" y="777.9268">14</text><text fill="#000000" font-family="sans-serif" font-size="13" lengthAdjust="spacing" textLength="342" x="687" y="777.9268">controller.saveStudentRegistration(newStudentRegistration)</text><polygon fill="#181818" points="1705,810.4805,1715,814.4805,1705,818.4805,1709,814.4805" style="stroke:#181818;stroke-width:1.0;"/><line style="stroke:#181818;stroke-width:1.0;" x1="1356" x2="1711" y1="814.4805" y2="814.4805"/><text fill="#000000" font-family="sans-serif" font-size="13" font-weight="bold" lengthAdjust="spacing" textLength="14" x="1363" y="809.2178">15</text><text fill="#000000" font-family="sans-serif" font-size="13" lengthAdjust="spacing" textLength="324" x="1381" y="809.2178">service.addNewStudentRegistration(studentRegistration)</text><polygon fill="#181818" points="2181.5,841.7715,2191.5,845.7715,2181.5,849.7715,2185.5,845.7715" style="stroke:#181818;stroke-width:1.0;"/><line style="stroke:#181818;stroke-width:1.0;" x1="1727" x2="2187.5" y1="845.7715" y2="845.7715"/><text fill="#000000" font-family="sans-serif" font-size="13" font-weight="bold" lengthAdjust="spacing" textLength="14" x="1734" y="840.5088">16</text><text fill="#000000" font-family="sans-serif" font-size="13" lengthAdjust="spacing" textLength="207" x="1752" y="840.5088">repository.save(studentRegistration)</text><polygon fill="#181818" points="43.5,924.0625,33.5,928.0625,43.5,932.0625,39.5,928.0625" style="stroke:#181818;stroke-width:1.0;"/><line style="stroke:#181818;stroke-width:1.0;stroke-dasharray:2.0,2.0;" x1="37.5" x2="656" y1="928.0625" y2="928.0625"/><text fill="#000000" font-family="sans-serif" font-size="13" font-weight="bold" lengthAdjust="spacing" textLength="14" x="49.5" y="922.7998">17</text><text fill="#000000" font-family="sans-serif" font-size="13" lengthAdjust="spacing" textLength="152" x="67.5" y="922.7998">informs operation success</text><!--SRC=[hLRPRjim47pdLx1-gGCaohkG673Te0ZGfa6CV013CGbHYbIvL8v-VPSwB5AYBGUj0TiyPcUNisFAdv-Tgo0_FwyKqwukLSPDUGxYToqq5sU5P4-MbOImsXbTbm_2ufWxOocukX3QKGPqiMt72q8gPftaia8okiZlGLYulrvuK2tfnKLb1I2GEMdqQZL2hukY8xeJJnASRM1hxZyR2jOCaOPLbPBy8onT4JPQcYiemRCnsbcZbB0D7zzDPwfAK6s5VP5SD3pGZcT8DgQs819nxSRXw4G5BSLq7OaAKpBfEGhcs0D3ykGPxaHbGA8TtZjv-obI39EOfYrsR-JkB56yDvryOKxqzHBI6_1ivRsLqpNy0keCKg5vmL6XVMTA3v4QE-Lf1vfQ4ep2sCvKEHLlWjTEB4y6KBj7EWY2H_x9QM6sp-OLOmenZWfMCDbk75EG4IFc23oLqoVXMa4Wh6k0a02DiR4VzeL7A1B7D8SSzQBXMIkLe1fZmrCVsejB23Q2eqsbwLkUKwywNWXATOt5iIvshKSNy6TZi7IZHoL5uWSMcdHsqn30n3Yp_PimjGpqqgkuR2SdU_ds5tj49i2Bh0RCj6q6sUtLpTVhcs__9Lbao- -uUP6u3rQfwmI-z4Qw35WoL6Dx03nLAh16sZ1CkKxibfpvNtE6dc0Abiqq-ucId12ABmzU3kYhtMq1ey3nJilHaYI8DgnYNBft9C3P3_OsBD1FbmVroK3-mSG3jN_DT4ABruIAiT8i-KXSyjfQNFCFwLjh7gKIfvs3JcalVbX9Il9mVtGL9Qh2t-rqDNkqfbpgMgdJBgQlvgXY4daYO7Zf70_TSyIPPWIQ0tiHAT7J_VedeRl_3da_yls-IQPPmj6fEwveiyyKFICmxp1fZls1B4FalaRC8rALfZkvWmXTaFxRloVNNVIiaVhHs1AegKJdOwWv5m07xi-fwmZv2m00]--></g></svg>