<?xml version="1.0" encoding="us-ascii" standalone="no"?><svg xmlns="http://www.w3.org/2000/svg" xmlns:xlink="http://www.w3.org/1999/xlink" contentStyleType="text/css" height="778px" preserveAspectRatio="none" style="width:709px;height:778px;background:#FFFFFF;" version="1.1" viewBox="0 0 709 778" width="709px" zoomAndPan="magnify"><defs/><g><!--entity MeetingRepository--><g id="elem_MeetingRepository"><path d="M355,724 C355,714 424,714 424,714 C424,714 493,714 493,724 L493,751.6211 C493,761.6211 424,761.6211 424,761.6211 C424,761.6211 355,761.6211 355,751.6211 L355,724 " fill="#F1F1F1" style="stroke:#181818;stroke-width:0.5;"/><path d="M355,724 C355,734 424,734 424,734 C424,734 493,734 493,724 " fill="none" style="stroke:#181818;stroke-width:0.5;"/><text fill="#000000" font-family="sans-serif" font-size="14" lengthAdjust="spacing" textLength="118" x="365" y="753.1074">MeetingRepository</text></g><!--class CancelMeetingUI--><g id="elem_CancelMeetingUI"><rect codeLine="3" fill="#F1F1F1" height="48" id="CancelMeetingUI" rx="2.5" ry="2.5" style="stroke:#181818;stroke-width:0.5;" width="138" x="206" y="7"/><ellipse cx="221" cy="23" fill="#ADD1B2" rx="11" ry="11" style="stroke:#181818;stroke-width:1.0;"/><path d="M223.7656,18.875 Q223.9219,18.6563 224.1094,18.5469 Q224.2969,18.4375 224.5156,18.4375 Q224.8906,18.4375 225.125,18.7031 Q225.3594,18.9531 225.3594,19.5625 L225.3594,21.0156 Q225.3594,21.625 225.125,21.8906 Q224.8906,22.1563 224.5156,22.1563 Q224.1719,22.1563 223.9688,21.9531 Q223.7656,21.7656 223.6563,21.25 Q223.6094,20.8906 223.4219,20.7031 Q223.0938,20.3281 222.4844,20.1094 Q221.875,19.8906 221.25,19.8906 Q220.4844,19.8906 219.8438,20.2188 Q219.2188,20.5469 218.7188,21.2969 Q218.2344,22.0469 218.2344,23.0781 L218.2344,24.1719 Q218.2344,25.4063 219.125,26.2344 Q220.0156,27.0469 221.6094,27.0469 Q222.5469,27.0469 223.2031,26.7969 Q223.5938,26.6406 224.0156,26.2031 Q224.2813,25.9375 224.4219,25.8594 Q224.5781,25.7813 224.7813,25.7813 Q225.1094,25.7813 225.3594,26.0469 Q225.625,26.2969 225.625,26.6406 Q225.625,26.9844 225.2813,27.3906 Q224.7813,27.9688 223.9844,28.2969 Q222.9063,28.75 221.6094,28.75 Q220.0938,28.75 218.8906,28.125 Q217.9063,27.625 217.2188,26.5625 Q216.5313,25.4844 216.5313,24.2031 L216.5313,23.0469 Q216.5313,21.7188 217.1406,20.5781 Q217.7656,19.4219 218.8594,18.8125 Q219.9531,18.1875 221.1875,18.1875 Q221.9219,18.1875 222.5625,18.3594 Q223.2188,18.5156 223.7656,18.875 Z " fill="#000000"/><text fill="#000000" font-family="sans-serif" font-size="14" lengthAdjust="spacing" textLength="106" x="235" y="28.7969">CancelMeetingUI</text><line style="stroke:#181818;stroke-width:0.5;" x1="207" x2="343" y1="39" y2="39"/><line style="stroke:#181818;stroke-width:0.5;" x1="207" x2="343" y1="47" y2="47"/></g><!--class ProfileController--><g id="elem_ProfileController"><rect codeLine="6" fill="#F1F1F1" height="66.6211" id="ProfileController" rx="2.5" ry="2.5" style="stroke:#181818;stroke-width:0.5;" width="240" x="7" y="124"/><ellipse cx="71.75" cy="140" fill="#ADD1B2" rx="11" ry="11" style="stroke:#181818;stroke-width:1.0;"/><path d="M74.5156,135.875 Q74.6719,135.6563 74.8594,135.5469 Q75.0469,135.4375 75.2656,135.4375 Q75.6406,135.4375 75.875,135.7031 Q76.1094,135.9531 76.1094,136.5625 L76.1094,138.0156 Q76.1094,138.625 75.875,138.8906 Q75.6406,139.1563 75.2656,139.1563 Q74.9219,139.1563 74.7188,138.9531 Q74.5156,138.7656 74.4063,138.25 Q74.3594,137.8906 74.1719,137.7031 Q73.8438,137.3281 73.2344,137.1094 Q72.625,136.8906 72,136.8906 Q71.2344,136.8906 70.5938,137.2188 Q69.9688,137.5469 69.4688,138.2969 Q68.9844,139.0469 68.9844,140.0781 L68.9844,141.1719 Q68.9844,142.4063 69.875,143.2344 Q70.7656,144.0469 72.3594,144.0469 Q73.2969,144.0469 73.9531,143.7969 Q74.3438,143.6406 74.7656,143.2031 Q75.0313,142.9375 75.1719,142.8594 Q75.3281,142.7813 75.5313,142.7813 Q75.8594,142.7813 76.1094,143.0469 Q76.375,143.2969 76.375,143.6406 Q76.375,143.9844 76.0313,144.3906 Q75.5313,144.9688 74.7344,145.2969 Q73.6563,145.75 72.3594,145.75 Q70.8438,145.75 69.6406,145.125 Q68.6563,144.625 67.9688,143.5625 Q67.2813,142.4844 67.2813,141.2031 L67.2813,140.0469 Q67.2813,138.7188 67.8906,137.5781 Q68.5156,136.4219 69.6094,135.8125 Q70.7031,135.1875 71.9375,135.1875 Q72.6719,135.1875 73.3125,135.3594 Q73.9688,135.5156 74.5156,135.875 Z " fill="#000000"/><text fill="#000000" font-family="sans-serif" font-size="14" lengthAdjust="spacing" textLength="102" x="92.25" y="145.7969">ProfileController</text><line style="stroke:#181818;stroke-width:0.5;" x1="8" x2="246" y1="156" y2="156"/><line style="stroke:#181818;stroke-width:0.5;" x1="8" x2="246" y1="164" y2="164"/><ellipse cx="18" cy="178.8105" fill="#84BE84" rx="3" ry="3" style="stroke:#038048;stroke-width:1.0;"/><text fill="#000000" font-family="sans-serif" font-size="14" lengthAdjust="spacing" textLength="214" x="27" y="183.1074">getUserProfile(authenticatedUser)</text></g><!--class MeetingController--><g id="elem_MeetingController"><rect codeLine="10" fill="#F1F1F1" height="85.2422" id="MeetingController" rx="2.5" ry="2.5" style="stroke:#181818;stroke-width:0.5;" width="283" x="282.5" y="115"/><ellipse cx="363.75" cy="131" fill="#ADD1B2" rx="11" ry="11" style="stroke:#181818;stroke-width:1.0;"/><path d="M366.5156,126.875 Q366.6719,126.6563 366.8594,126.5469 Q367.0469,126.4375 367.2656,126.4375 Q367.6406,126.4375 367.875,126.7031 Q368.1094,126.9531 368.1094,127.5625 L368.1094,129.0156 Q368.1094,129.625 367.875,129.8906 Q367.6406,130.1563 367.2656,130.1563 Q366.9219,130.1563 366.7188,129.9531 Q366.5156,129.7656 366.4063,129.25 Q366.3594,128.8906 366.1719,128.7031 Q365.8438,128.3281 365.2344,128.1094 Q364.625,127.8906 364,127.8906 Q363.2344,127.8906 362.5938,128.2188 Q361.9688,128.5469 361.4688,129.2969 Q360.9844,130.0469 360.9844,131.0781 L360.9844,132.1719 Q360.9844,133.4063 361.875,134.2344 Q362.7656,135.0469 364.3594,135.0469 Q365.2969,135.0469 365.9531,134.7969 Q366.3438,134.6406 366.7656,134.2031 Q367.0313,133.9375 367.1719,133.8594 Q367.3281,133.7813 367.5313,133.7813 Q367.8594,133.7813 368.1094,134.0469 Q368.375,134.2969 368.375,134.6406 Q368.375,134.9844 368.0313,135.3906 Q367.5313,135.9688 366.7344,136.2969 Q365.6563,136.75 364.3594,136.75 Q362.8438,136.75 361.6406,136.125 Q360.6563,135.625 359.9688,134.5625 Q359.2813,133.4844 359.2813,132.2031 L359.2813,131.0469 Q359.2813,129.7188 359.8906,128.5781 Q360.5156,127.4219 361.6094,126.8125 Q362.7031,126.1875 363.9375,126.1875 Q364.6719,126.1875 365.3125,126.3594 Q365.9688,126.5156 366.5156,126.875 Z " fill="#000000"/><text fill="#000000" font-family="sans-serif" font-size="14" lengthAdjust="spacing" textLength="112" x="384.25" y="136.7969">MeetingController</text><line style="stroke:#181818;stroke-width:0.5;" x1="283.5" x2="564.5" y1="147" y2="147"/><line style="stroke:#181818;stroke-width:0.5;" x1="283.5" x2="564.5" y1="155" y2="155"/><ellipse cx="293.5" cy="169.8105" fill="#84BE84" rx="3" ry="3" style="stroke:#038048;stroke-width:1.0;"/><text fill="#000000" font-family="sans-serif" font-size="14" lengthAdjust="spacing" textLength="257" x="302.5" y="174.1074">getMeetingsByProfile(currentUserProfile)</text><ellipse cx="293.5" cy="188.4316" fill="#84BE84" rx="3" ry="3" style="stroke:#038048;stroke-width:1.0;"/><text fill="#000000" font-family="sans-serif" font-size="14" lengthAdjust="spacing" textLength="151" x="302.5" y="192.7285">cancelMeeting(meeting)</text></g><!--class MeetingService--><g id="elem_MeetingService"><rect codeLine="15" fill="#F1F1F1" height="85.2422" id="MeetingService" rx="2.5" ry="2.5" style="stroke:#181818;stroke-width:0.5;" width="283" x="282.5" y="569"/><ellipse cx="371.25" cy="585" fill="#ADD1B2" rx="11" ry="11" style="stroke:#181818;stroke-width:1.0;"/><path d="M374.0156,580.875 Q374.1719,580.6563 374.3594,580.5469 Q374.5469,580.4375 374.7656,580.4375 Q375.1406,580.4375 375.375,580.7031 Q375.6094,580.9531 375.6094,581.5625 L375.6094,583.0156 Q375.6094,583.625 375.375,583.8906 Q375.1406,584.1563 374.7656,584.1563 Q374.4219,584.1563 374.2188,583.9531 Q374.0156,583.7656 373.9063,583.25 Q373.8594,582.8906 373.6719,582.7031 Q373.3438,582.3281 372.7344,582.1094 Q372.125,581.8906 371.5,581.8906 Q370.7344,581.8906 370.0938,582.2188 Q369.4688,582.5469 368.9688,583.2969 Q368.4844,584.0469 368.4844,585.0781 L368.4844,586.1719 Q368.4844,587.4063 369.375,588.2344 Q370.2656,589.0469 371.8594,589.0469 Q372.7969,589.0469 373.4531,588.7969 Q373.8438,588.6406 374.2656,588.2031 Q374.5313,587.9375 374.6719,587.8594 Q374.8281,587.7813 375.0313,587.7813 Q375.3594,587.7813 375.6094,588.0469 Q375.875,588.2969 375.875,588.6406 Q375.875,588.9844 375.5313,589.3906 Q375.0313,589.9688 374.2344,590.2969 Q373.1563,590.75 371.8594,590.75 Q370.3438,590.75 369.1406,590.125 Q368.1563,589.625 367.4688,588.5625 Q366.7813,587.4844 366.7813,586.2031 L366.7813,585.0469 Q366.7813,583.7188 367.3906,582.5781 Q368.0156,581.4219 369.1094,580.8125 Q370.2031,580.1875 371.4375,580.1875 Q372.1719,580.1875 372.8125,580.3594 Q373.4688,580.5156 374.0156,580.875 Z " fill="#000000"/><text fill="#000000" font-family="sans-serif" font-size="14" lengthAdjust="spacing" textLength="97" x="391.75" y="590.7969">MeetingService</text><line style="stroke:#181818;stroke-width:0.5;" x1="283.5" x2="564.5" y1="601" y2="601"/><line style="stroke:#181818;stroke-width:0.5;" x1="283.5" x2="564.5" y1="609" y2="609"/><ellipse cx="293.5" cy="623.8105" fill="#84BE84" rx="3" ry="3" style="stroke:#038048;stroke-width:1.0;"/><text fill="#000000" font-family="sans-serif" font-size="14" lengthAdjust="spacing" textLength="257" x="302.5" y="628.1074">getMeetingsByProfile(currentUserProfile)</text><ellipse cx="293.5" cy="642.4316" fill="#84BE84" rx="3" ry="3" style="stroke:#038048;stroke-width:1.0;"/><text fill="#000000" font-family="sans-serif" font-size="14" lengthAdjust="spacing" textLength="151" x="302.5" y="646.7285">cancelMeeting(meeting)</text></g><!--class Meeting--><g id="elem_Meeting"><rect codeLine="23" fill="#F1F1F1" height="48" id="Meeting" rx="2.5" ry="2.5" style="stroke:#181818;stroke-width:0.5;" width="82" x="230" y="278.5"/><ellipse cx="245" cy="294.5" fill="#ADD1B2" rx="11" ry="11" style="stroke:#181818;stroke-width:1.0;"/><path d="M247.7656,290.375 Q247.9219,290.1563 248.1094,290.0469 Q248.2969,289.9375 248.5156,289.9375 Q248.8906,289.9375 249.125,290.2031 Q249.3594,290.4531 249.3594,291.0625 L249.3594,292.5156 Q249.3594,293.125 249.125,293.3906 Q248.8906,293.6563 248.5156,293.6563 Q248.1719,293.6563 247.9688,293.4531 Q247.7656,293.2656 247.6563,292.75 Q247.6094,292.3906 247.4219,292.2031 Q247.0938,291.8281 246.4844,291.6094 Q245.875,291.3906 245.25,291.3906 Q244.4844,291.3906 243.8438,291.7188 Q243.2188,292.0469 242.7188,292.7969 Q242.2344,293.5469 242.2344,294.5781 L242.2344,295.6719 Q242.2344,296.9063 243.125,297.7344 Q244.0156,298.5469 245.6094,298.5469 Q246.5469,298.5469 247.2031,298.2969 Q247.5938,298.1406 248.0156,297.7031 Q248.2813,297.4375 248.4219,297.3594 Q248.5781,297.2813 248.7813,297.2813 Q249.1094,297.2813 249.3594,297.5469 Q249.625,297.7969 249.625,298.1406 Q249.625,298.4844 249.2813,298.8906 Q248.7813,299.4688 247.9844,299.7969 Q246.9063,300.25 245.6094,300.25 Q244.0938,300.25 242.8906,299.625 Q241.9063,299.125 241.2188,298.0625 Q240.5313,296.9844 240.5313,295.7031 L240.5313,294.5469 Q240.5313,293.2188 241.1406,292.0781 Q241.7656,290.9219 242.8594,290.3125 Q243.9531,289.6875 245.1875,289.6875 Q245.9219,289.6875 246.5625,289.8594 Q247.2188,290.0156 247.7656,290.375 Z " fill="#000000"/><text fill="#000000" font-family="sans-serif" font-size="14" lengthAdjust="spacing" textLength="50" x="259" y="300.2969">Meeting</text><line style="stroke:#181818;stroke-width:0.5;" x1="231" x2="311" y1="310.5" y2="310.5"/><line style="stroke:#181818;stroke-width:0.5;" x1="231" x2="311" y1="318.5" y2="318.5"/></g><!--class PersistenceContext--><g id="elem_PersistenceContext"><rect codeLine="26" fill="#F1F1F1" height="66.6211" id="PersistenceContext" rx="2.5" ry="2.5" style="stroke:#181818;stroke-width:0.5;" width="154" x="347" y="269"/><ellipse cx="362" cy="285" fill="#ADD1B2" rx="11" ry="11" style="stroke:#181818;stroke-width:1.0;"/><path d="M364.7656,280.875 Q364.9219,280.6563 365.1094,280.5469 Q365.2969,280.4375 365.5156,280.4375 Q365.8906,280.4375 366.125,280.7031 Q366.3594,280.9531 366.3594,281.5625 L366.3594,283.0156 Q366.3594,283.625 366.125,283.8906 Q365.8906,284.1563 365.5156,284.1563 Q365.1719,284.1563 364.9688,283.9531 Q364.7656,283.7656 364.6563,283.25 Q364.6094,282.8906 364.4219,282.7031 Q364.0938,282.3281 363.4844,282.1094 Q362.875,281.8906 362.25,281.8906 Q361.4844,281.8906 360.8438,282.2188 Q360.2188,282.5469 359.7188,283.2969 Q359.2344,284.0469 359.2344,285.0781 L359.2344,286.1719 Q359.2344,287.4063 360.125,288.2344 Q361.0156,289.0469 362.6094,289.0469 Q363.5469,289.0469 364.2031,288.7969 Q364.5938,288.6406 365.0156,288.2031 Q365.2813,287.9375 365.4219,287.8594 Q365.5781,287.7813 365.7813,287.7813 Q366.1094,287.7813 366.3594,288.0469 Q366.625,288.2969 366.625,288.6406 Q366.625,288.9844 366.2813,289.3906 Q365.7813,289.9688 364.9844,290.2969 Q363.9063,290.75 362.6094,290.75 Q361.0938,290.75 359.8906,290.125 Q358.9063,289.625 358.2188,288.5625 Q357.5313,287.4844 357.5313,286.2031 L357.5313,285.0469 Q357.5313,283.7188 358.1406,282.5781 Q358.7656,281.4219 359.8594,280.8125 Q360.9531,280.1875 362.1875,280.1875 Q362.9219,280.1875 363.5625,280.3594 Q364.2188,280.5156 364.7656,280.875 Z " fill="#000000"/><text fill="#000000" font-family="sans-serif" font-size="14" lengthAdjust="spacing" textLength="122" x="376" y="290.7969">PersistenceContext</text><line style="stroke:#181818;stroke-width:0.5;" x1="348" x2="500" y1="301" y2="301"/><line style="stroke:#181818;stroke-width:0.5;" x1="348" x2="500" y1="309" y2="309"/><ellipse cx="358" cy="323.8105" fill="#84BE84" rx="3" ry="3" style="stroke:#038048;stroke-width:1.0;"/><text fill="#000000" font-family="sans-serif" font-size="14" lengthAdjust="spacing" textLength="84" x="367" y="328.1074">repositories()</text></g><!--class TransactionalContext--><g id="elem_TransactionalContext"><rect codeLine="30" fill="#F1F1F1" height="85.2422" id="TransactionalContext" rx="2.5" ry="2.5" style="stroke:#181818;stroke-width:0.5;" width="166" x="536" y="260"/><ellipse cx="551" cy="276" fill="#ADD1B2" rx="11" ry="11" style="stroke:#181818;stroke-width:1.0;"/><path d="M553.7656,271.875 Q553.9219,271.6563 554.1094,271.5469 Q554.2969,271.4375 554.5156,271.4375 Q554.8906,271.4375 555.125,271.7031 Q555.3594,271.9531 555.3594,272.5625 L555.3594,274.0156 Q555.3594,274.625 555.125,274.8906 Q554.8906,275.1563 554.5156,275.1563 Q554.1719,275.1563 553.9688,274.9531 Q553.7656,274.7656 553.6563,274.25 Q553.6094,273.8906 553.4219,273.7031 Q553.0938,273.3281 552.4844,273.1094 Q551.875,272.8906 551.25,272.8906 Q550.4844,272.8906 549.8438,273.2188 Q549.2188,273.5469 548.7188,274.2969 Q548.2344,275.0469 548.2344,276.0781 L548.2344,277.1719 Q548.2344,278.4063 549.125,279.2344 Q550.0156,280.0469 551.6094,280.0469 Q552.5469,280.0469 553.2031,279.7969 Q553.5938,279.6406 554.0156,279.2031 Q554.2813,278.9375 554.4219,278.8594 Q554.5781,278.7813 554.7813,278.7813 Q555.1094,278.7813 555.3594,279.0469 Q555.625,279.2969 555.625,279.6406 Q555.625,279.9844 555.2813,280.3906 Q554.7813,280.9688 553.9844,281.2969 Q552.9063,281.75 551.6094,281.75 Q550.0938,281.75 548.8906,281.125 Q547.9063,280.625 547.2188,279.5625 Q546.5313,278.4844 546.5313,277.2031 L546.5313,276.0469 Q546.5313,274.7188 547.1406,273.5781 Q547.7656,272.4219 548.8594,271.8125 Q549.9531,271.1875 551.1875,271.1875 Q551.9219,271.1875 552.5625,271.3594 Q553.2188,271.5156 553.7656,271.875 Z " fill="#000000"/><text fill="#000000" font-family="sans-serif" font-size="14" lengthAdjust="spacing" textLength="134" x="565" y="281.7969">TransactionalContext</text><line style="stroke:#181818;stroke-width:0.5;" x1="537" x2="701" y1="292" y2="292"/><line style="stroke:#181818;stroke-width:0.5;" x1="537" x2="701" y1="300" y2="300"/><ellipse cx="547" cy="314.8105" fill="#84BE84" rx="3" ry="3" style="stroke:#038048;stroke-width:1.0;"/><text fill="#000000" font-family="sans-serif" font-size="14" lengthAdjust="spacing" textLength="120" x="556" y="319.1074">beginTransaction()</text><ellipse cx="547" cy="333.4316" fill="#84BE84" rx="3" ry="3" style="stroke:#038048;stroke-width:1.0;"/><text fill="#000000" font-family="sans-serif" font-size="14" lengthAdjust="spacing" textLength="54" x="556" y="337.7285">commit()</text></g><!--class RepositoryFactory--><g id="elem_RepositoryFactory"><rect codeLine="34" fill="#F1F1F1" height="103.8633" id="RepositoryFactory" rx="2.5" ry="2.5" style="stroke:#181818;stroke-width:0.5;" width="231" x="308.5" y="405"/><ellipse cx="361.75" cy="421" fill="#ADD1B2" rx="11" ry="11" style="stroke:#181818;stroke-width:1.0;"/><path d="M364.5156,416.875 Q364.6719,416.6563 364.8594,416.5469 Q365.0469,416.4375 365.2656,416.4375 Q365.6406,416.4375 365.875,416.7031 Q366.1094,416.9531 366.1094,417.5625 L366.1094,419.0156 Q366.1094,419.625 365.875,419.8906 Q365.6406,420.1563 365.2656,420.1563 Q364.9219,420.1563 364.7188,419.9531 Q364.5156,419.7656 364.4063,419.25 Q364.3594,418.8906 364.1719,418.7031 Q363.8438,418.3281 363.2344,418.1094 Q362.625,417.8906 362,417.8906 Q361.2344,417.8906 360.5938,418.2188 Q359.9688,418.5469 359.4688,419.2969 Q358.9844,420.0469 358.9844,421.0781 L358.9844,422.1719 Q358.9844,423.4063 359.875,424.2344 Q360.7656,425.0469 362.3594,425.0469 Q363.2969,425.0469 363.9531,424.7969 Q364.3438,424.6406 364.7656,424.2031 Q365.0313,423.9375 365.1719,423.8594 Q365.3281,423.7813 365.5313,423.7813 Q365.8594,423.7813 366.1094,424.0469 Q366.375,424.2969 366.375,424.6406 Q366.375,424.9844 366.0313,425.3906 Q365.5313,425.9688 364.7344,426.2969 Q363.6563,426.75 362.3594,426.75 Q360.8438,426.75 359.6406,426.125 Q358.6563,425.625 357.9688,424.5625 Q357.2813,423.4844 357.2813,422.2031 L357.2813,421.0469 Q357.2813,419.7188 357.8906,418.5781 Q358.5156,417.4219 359.6094,416.8125 Q360.7031,416.1875 361.9375,416.1875 Q362.6719,416.1875 363.3125,416.3594 Q363.9688,416.5156 364.5156,416.875 Z " fill="#000000"/><text fill="#000000" font-family="sans-serif" font-size="14" lengthAdjust="spacing" textLength="116" x="382.25" y="426.7969">RepositoryFactory</text><line style="stroke:#181818;stroke-width:0.5;" x1="309.5" x2="538.5" y1="437" y2="437"/><line style="stroke:#181818;stroke-width:0.5;" x1="309.5" x2="538.5" y1="445" y2="445"/><ellipse cx="319.5" cy="459.8105" fill="#84BE84" rx="3" ry="3" style="stroke:#038048;stroke-width:1.0;"/><text fill="#000000" font-family="sans-serif" font-size="14" lengthAdjust="spacing" textLength="50" x="328.5" y="464.1074">create()</text><ellipse cx="319.5" cy="478.4316" fill="#84BE84" rx="3" ry="3" style="stroke:#038048;stroke-width:1.0;"/><text fill="#000000" font-family="sans-serif" font-size="14" lengthAdjust="spacing" textLength="169" x="328.5" y="482.7285">newTransactionalContext()</text><ellipse cx="319.5" cy="497.0527" fill="#84BE84" rx="3" ry="3" style="stroke:#038048;stroke-width:1.0;"/><text fill="#000000" font-family="sans-serif" font-size="14" lengthAdjust="spacing" textLength="205" x="328.5" y="501.3496">create(TransactionalContext ctx)</text></g><!--link CancelMeetingUI to ProfileController--><g id="link_CancelMeetingUI_ProfileController"><path codeLine="41" d="M247.51,55.13 C225.69,73.48 194.79,99.47 169.75,120.54 " fill="none" id="CancelMeetingUI-to-ProfileController" style="stroke:#181818;stroke-width:1.0;"/><polygon fill="#181818" points="165.78,123.88,175.2448,121.1566,169.6094,120.665,170.1009,115.0296,165.78,123.88" style="stroke:#181818;stroke-width:1.0;"/></g><!--link MeetingController to PersistenceContext--><g id="link_MeetingController_PersistenceContext"><path codeLine="42" d="M424,200.25 C424,220.14 424,243.77 424,263.2 " fill="none" id="MeetingController-to-PersistenceContext" style="stroke:#181818;stroke-width:1.0;"/><polygon fill="#181818" points="424,268.56,428,259.56,424,263.56,420,259.56,424,268.56" style="stroke:#181818;stroke-width:1.0;"/></g><!--link MeetingController to TransactionalContext--><g id="link_MeetingController_TransactionalContext"><path codeLine="43" d="M480.66,200.05 C504.9,217.83 533.25,238.61 557.95,256.73 " fill="none" id="MeetingController-to-TransactionalContext" style="stroke:#181818;stroke-width:1.0;"/><polygon fill="#181818" points="562.19,259.84,557.2873,251.2981,558.1544,256.8881,552.5643,257.7552,562.19,259.84" style="stroke:#181818;stroke-width:1.0;"/></g><!--link CancelMeetingUI to MeetingController--><g id="link_CancelMeetingUI_MeetingController"><path codeLine="45" d="M302.68,55.13 C321.61,70.95 347.33,92.44 370.22,111.56 " fill="none" id="CancelMeetingUI-to-MeetingController" style="stroke:#181818;stroke-width:1.0;"/><polygon fill="#181818" points="374.16,114.86,369.8391,106.0096,370.3306,111.645,364.6952,112.1366,374.16,114.86" style="stroke:#181818;stroke-width:1.0;"/></g><!--link PersistenceContext to RepositoryFactory--><g id="link_PersistenceContext_RepositoryFactory"><path codeLine="46" d="M424,336.22 C424,354.69 424,378.29 424,399.65 " fill="none" id="PersistenceContext-to-RepositoryFactory" style="stroke:#181818;stroke-width:1.0;"/><polygon fill="#181818" points="424,404.74,428,395.74,424,399.74,420,395.74,424,404.74" style="stroke:#181818;stroke-width:1.0;"/></g><!--link RepositoryFactory to MeetingService--><g id="link_RepositoryFactory_MeetingService"><path codeLine="47" d="M424,509.2 C424,526.77 424,546.33 424,563.54 " fill="none" id="RepositoryFactory-to-MeetingService" style="stroke:#181818;stroke-width:1.0;"/><polygon fill="#181818" points="424,568.8,428,559.8,424,563.8,420,559.8,424,568.8" style="stroke:#181818;stroke-width:1.0;"/></g><!--link MeetingService to MeetingRepository--><g id="link_MeetingService_MeetingRepository"><path codeLine="49" d="M424,654.3 C424,672.2 424,692.64 424,708.71 " fill="none" id="MeetingService-to-MeetingRepository" style="stroke:#181818;stroke-width:1.0;"/><polygon fill="#181818" points="424,713.99,428,704.99,424,708.99,420,704.99,424,713.99" style="stroke:#181818;stroke-width:1.0;"/></g><!--link MeetingController to Meeting--><g id="link_MeetingController_Meeting"><path codeLine="50" d="M379.33,200.25 C353.65,224.25 322.15,253.7 299.75,274.63 " fill="none" id="MeetingController-to-Meeting" style="stroke:#181818;stroke-width:1.0;"/><polygon fill="#181818" points="295.95,278.18,305.252,274.9439,299.5981,274.7608,299.7813,269.1069,295.95,278.18" style="stroke:#181818;stroke-width:1.0;"/></g><!--SRC=[hLBBJiCm4BpxAt8ZLLHovy21IaWSa13G3zWwIsh9ZsYzWLOL_uwJEaqQfpTyiUoPdHclzsxFtFY7icmqM6wDlfVEb5A3z-jAGKrWXEYFsGQiHFsAoChMsvVi97u7w8tSbzAuSPR9QOqKm2oi8gkHjnuf4d9eUO-MbGJ6gWDMeqXKNXQ9e7yw3bAo9GfI4_LLfCjfqDoSzzJe0-bRIVn_bmeOTk1nC7h7ndd5ZexJdaNmger8Ndd68Dnr0Gzy2KU3XaAVJzxoIM0zI5REWfuNxR1MTiB8BzcTCOfxdRFC6F4vKCDs4eKa3ByKI8N5doMV3eganHYI3trICP-SzVen7HcH_d_FItfoWxWKOTawgHUfIU0bFH79JM1T3vCGi-6Q-8tLDruGRyKV]--></g></svg>