<?xml version="1.0" encoding="UTF-8" standalone="no"?><svg xmlns="http://www.w3.org/2000/svg" xmlns:xlink="http://www.w3.org/1999/xlink" contentStyleType="text/css" height="453.6px" preserveAspectRatio="none" style="width:312px;height:453px;background:#FFFFFF;" version="1.1" viewBox="0 0 312 453" width="312.8px" zoomAndPan="magnify"><defs/><g><rect fill="#FFFFFF" height="303.275" style="stroke:#181818;stroke-width:0.8000000000000002;" width="8" x="26" y="72.5125"/><rect fill="#FFFFFF" height="22.8188" style="stroke:#181818;stroke-width:0.8000000000000002;" width="8" x="273.2" y="88.9313"/><rect fill="#FFFFFF" height="22.8188" style="stroke:#181818;stroke-width:0.8000000000000002;" width="8" x="273.2" y="134.5688"/><rect fill="#FFFFFF" height="22.8188" style="stroke:#181818;stroke-width:0.8000000000000002;" width="8" x="273.2" y="180.2063"/><rect fill="#FFFFFF" height="41.6375" style="stroke:#181818;stroke-width:0.8000000000000002;" width="8" x="273.2" y="225.8438"/><rect fill="none" height="115.925" style="stroke:#000000;stroke-width:1.2000000000000002;" width="299.6" x="8" y="237.8438"/><line style="stroke:#181818;stroke-width:0.4000000000000001;stroke-dasharray:5.0,5.0;" x1="29.6" x2="29.6" y1="64.5125" y2="390.1875"/><line style="stroke:#181818;stroke-width:0.4000000000000001;stroke-dasharray:5.0,5.0;" x1="277.2" x2="277.2" y1="64.5125" y2="390.1875"/><text fill="#000000" font-family="sans-serif" font-size="11.2" lengthAdjust="spacing" textLength="23.2" x="16" y="62.1391">User</text><ellipse cx="30" cy="10.8" fill="#E2E2F0" rx="6.4" ry="6.4" style="stroke:#181818;stroke-width:0.4000000000000001;"/><path d="M30,17.2 L30,38.8 M19.6,23.6 L40.4,23.6 M30,38.8 L19.6,50.8 M30,38.8 L40.4,50.8 " fill="none" style="stroke:#181818;stroke-width:0.4000000000000001;"/><text fill="#000000" font-family="sans-serif" font-size="11.2" lengthAdjust="spacing" textLength="23.2" x="16" y="399.5266">User</text><ellipse cx="30" cy="408.7" fill="#E2E2F0" rx="6.4" ry="6.4" style="stroke:#181818;stroke-width:0.4000000000000001;"/><path d="M30,415.1 L30,436.7 M19.6,421.5 L40.4,421.5 M30,436.7 L19.6,448.7 M30,436.7 L40.4,448.7 " fill="none" style="stroke:#181818;stroke-width:0.4000000000000001;"/><text fill="#000000" font-family="sans-serif" font-size="11.2" lengthAdjust="spacing" textLength="40" x="254.8" y="62.1391">:System</text><ellipse cx="277.2" cy="10.8" fill="#E2E2F0" rx="6.4" ry="6.4" style="stroke:#181818;stroke-width:0.4000000000000001;"/><path d="M277.2,17.2 L277.2,38.8 M266.8,23.6 L287.6,23.6 M277.2,38.8 L266.8,50.8 M277.2,38.8 L287.6,50.8 " fill="none" style="stroke:#181818;stroke-width:0.4000000000000001;"/><text fill="#000000" font-family="sans-serif" font-size="11.2" lengthAdjust="spacing" textLength="40" x="254.8" y="399.5266">:System</text><ellipse cx="277.2" cy="408.7" fill="#E2E2F0" rx="6.4" ry="6.4" style="stroke:#181818;stroke-width:0.4000000000000001;"/><path d="M277.2,415.1 L277.2,436.7 M266.8,421.5 L287.6,421.5 M277.2,436.7 L266.8,448.7 M277.2,436.7 L287.6,448.7 " fill="none" style="stroke:#181818;stroke-width:0.4000000000000001;"/><rect fill="#FFFFFF" height="303.275" style="stroke:#181818;stroke-width:0.8000000000000002;" width="8" x="26" y="72.5125"/><rect fill="#FFFFFF" height="22.8188" style="stroke:#181818;stroke-width:0.8000000000000002;" width="8" x="273.2" y="88.9313"/><rect fill="#FFFFFF" height="22.8188" style="stroke:#181818;stroke-width:0.8000000000000002;" width="8" x="273.2" y="134.5688"/><rect fill="#FFFFFF" height="22.8188" style="stroke:#181818;stroke-width:0.8000000000000002;" width="8" x="273.2" y="180.2063"/><rect fill="#FFFFFF" height="41.6375" style="stroke:#181818;stroke-width:0.8000000000000002;" width="8" x="273.2" y="225.8438"/><polygon fill="#181818" points="263.6,85.7313,271.6,88.9313,263.6,92.1313,266.8,88.9313" style="stroke:#181818;stroke-width:0.8000000000000002;"/><line style="stroke:#181818;stroke-width:0.8000000000000002;" x1="34" x2="268.4" y1="88.9313" y2="88.9313"/><text fill="#000000" font-family="sans-serif" font-size="10.4" font-weight="bold" lengthAdjust="spacing" textLength="5.6" x="39.6" y="85.1273">1</text><text fill="#000000" font-family="sans-serif" font-size="10.4" lengthAdjust="spacing" textLength="188" x="48.4" y="85.1273">Asks to change a post in a shared board</text><polygon fill="#181818" points="42.8,108.55,34.8,111.75,42.8,114.95,39.6,111.75" style="stroke:#181818;stroke-width:0.8000000000000002;"/><line style="stroke:#181818;stroke-width:0.8000000000000002;stroke-dasharray:2.0,2.0;" x1="38" x2="276.4" y1="111.75" y2="111.75"/><text fill="#000000" font-family="sans-serif" font-size="10.4" font-weight="bold" lengthAdjust="spacing" textLength="5.6" x="47.6" y="107.9461">2</text><text fill="#000000" font-family="sans-serif" font-size="10.4" lengthAdjust="spacing" textLength="211.2" x="56.4" y="107.9461">Shows all shared boards available for the user</text><polygon fill="#181818" points="263.6,131.3688,271.6,134.5688,263.6,137.7688,266.8,134.5688" style="stroke:#181818;stroke-width:0.8000000000000002;"/><line style="stroke:#181818;stroke-width:0.8000000000000002;" x1="34" x2="268.4" y1="134.5688" y2="134.5688"/><text fill="#000000" font-family="sans-serif" font-size="10.4" font-weight="bold" lengthAdjust="spacing" textLength="5.6" x="39.6" y="130.7648">3</text><text fill="#000000" font-family="sans-serif" font-size="10.4" lengthAdjust="spacing" textLength="55.2" x="48.4" y="130.7648">Choose one</text><polygon fill="#181818" points="42.8,154.1875,34.8,157.3875,42.8,160.5875,39.6,157.3875" style="stroke:#181818;stroke-width:0.8000000000000002;"/><line style="stroke:#181818;stroke-width:0.8000000000000002;stroke-dasharray:2.0,2.0;" x1="38" x2="276.4" y1="157.3875" y2="157.3875"/><text fill="#000000" font-family="sans-serif" font-size="10.4" font-weight="bold" lengthAdjust="spacing" textLength="5.6" x="47.6" y="153.5836">4</text><text fill="#000000" font-family="sans-serif" font-size="10.4" lengthAdjust="spacing" textLength="168" x="56.4" y="153.5836">Shows all cells occupied with a post</text><polygon fill="#181818" points="263.6,177.0063,271.6,180.2063,263.6,183.4063,266.8,180.2063" style="stroke:#181818;stroke-width:0.8000000000000002;"/><line style="stroke:#181818;stroke-width:0.8000000000000002;" x1="34" x2="268.4" y1="180.2063" y2="180.2063"/><text fill="#000000" font-family="sans-serif" font-size="10.4" font-weight="bold" lengthAdjust="spacing" textLength="5.6" x="39.6" y="176.4023">5</text><text fill="#000000" font-family="sans-serif" font-size="10.4" lengthAdjust="spacing" textLength="55.2" x="48.4" y="176.4023">Choose one</text><polygon fill="#181818" points="42.8,199.825,34.8,203.025,42.8,206.225,39.6,203.025" style="stroke:#181818;stroke-width:0.8000000000000002;"/><line style="stroke:#181818;stroke-width:0.8000000000000002;stroke-dasharray:2.0,2.0;" x1="38" x2="276.4" y1="203.025" y2="203.025"/><text fill="#000000" font-family="sans-serif" font-size="10.4" font-weight="bold" lengthAdjust="spacing" textLength="5.6" x="47.6" y="199.2211">6</text><text fill="#000000" font-family="sans-serif" font-size="10.4" lengthAdjust="spacing" textLength="93.6" x="56.4" y="199.2211">Ask the type of post</text><polygon fill="#181818" points="263.6,222.6438,271.6,225.8438,263.6,229.0438,266.8,225.8438" style="stroke:#181818;stroke-width:0.8000000000000002;"/><line style="stroke:#181818;stroke-width:0.8000000000000002;" x1="34" x2="268.4" y1="225.8438" y2="225.8438"/><text fill="#000000" font-family="sans-serif" font-size="10.4" font-weight="bold" lengthAdjust="spacing" textLength="5.6" x="39.6" y="222.0398">7</text><text fill="#000000" font-family="sans-serif" font-size="10.4" lengthAdjust="spacing" textLength="55.2" x="48.4" y="222.0398">Choose one</text><path d="M8,237.8438 L56.8,237.8438 L56.8,243.0625 L48.8,251.0625 L8,251.0625 L8,237.8438 " fill="#EEEEEE" style="stroke:#000000;stroke-width:1.2000000000000002;"/><rect fill="none" height="115.925" style="stroke:#000000;stroke-width:1.2000000000000002;" width="299.6" x="8" y="237.8438"/><text fill="#000000" font-family="sans-serif" font-size="10.4" font-weight="bold" lengthAdjust="spacing" textLength="12.8" x="20" y="248.0586">alt</text><text fill="#000000" font-family="sans-serif" font-size="8.8" font-weight="bold" lengthAdjust="spacing" textLength="94.4" x="68.8" y="247.4102">[(TypeOfPost.IMAGE)]</text><polygon fill="#181818" points="42.8,264.2813,34.8,267.4813,42.8,270.6813,39.6,267.4813" style="stroke:#181818;stroke-width:0.8000000000000002;"/><line style="stroke:#181818;stroke-width:0.8000000000000002;stroke-dasharray:2.0,2.0;" x1="38" x2="276.4" y1="267.4813" y2="267.4813"/><text fill="#000000" font-family="sans-serif" font-size="10.4" font-weight="bold" lengthAdjust="spacing" textLength="5.6" x="47.6" y="263.6773">8</text><text fill="#000000" font-family="sans-serif" font-size="10.4" lengthAdjust="spacing" textLength="59.2" x="56.4" y="263.6773">Ask the path</text><polygon fill="#181818" points="267.6,287.1,275.6,290.3,267.6,293.5,270.8,290.3" style="stroke:#181818;stroke-width:0.8000000000000002;"/><line style="stroke:#181818;stroke-width:0.8000000000000002;" x1="34" x2="272.4" y1="290.3" y2="290.3"/><text fill="#000000" font-family="sans-serif" font-size="10.4" font-weight="bold" lengthAdjust="spacing" textLength="5.6" x="39.6" y="286.4961">9</text><text fill="#000000" font-family="sans-serif" font-size="10.4" lengthAdjust="spacing" textLength="45.6" x="48.4" y="286.4961">Input path</text><line style="stroke:#000000;stroke-width:0.8000000000000002;stroke-dasharray:2.0,2.0;" x1="8" x2="307.6" y1="297.5" y2="297.5"/><text fill="#000000" font-family="sans-serif" font-size="8.8" font-weight="bold" lengthAdjust="spacing" textLength="85.6" x="12" y="305.4664">[(TypeOfPost.Text)]</text><polygon fill="#181818" points="42.8,321.35,34.8,324.55,42.8,327.75,39.6,324.55" style="stroke:#181818;stroke-width:0.8000000000000002;"/><line style="stroke:#181818;stroke-width:0.8000000000000002;stroke-dasharray:2.0,2.0;" x1="38" x2="276.4" y1="324.55" y2="324.55"/><text fill="#000000" font-family="sans-serif" font-size="10.4" font-weight="bold" lengthAdjust="spacing" textLength="11.2" x="47.6" y="320.7461">10</text><text fill="#000000" font-family="sans-serif" font-size="10.4" lengthAdjust="spacing" textLength="73.6" x="62" y="320.7461">Ask the content</text><polygon fill="#181818" points="267.6,344.1688,275.6,347.3688,267.6,350.5688,270.8,347.3688" style="stroke:#181818;stroke-width:0.8000000000000002;"/><line style="stroke:#181818;stroke-width:0.8000000000000002;" x1="34" x2="272.4" y1="347.3688" y2="347.3688"/><text fill="#000000" font-family="sans-serif" font-size="10.4" font-weight="bold" lengthAdjust="spacing" textLength="11.2" x="39.6" y="343.5648">11</text><text fill="#000000" font-family="sans-serif" font-size="10.4" lengthAdjust="spacing" textLength="60" x="54" y="343.5648">Input content</text><polygon fill="#181818" points="38.8,372.5875,30.8,375.7875,38.8,378.9875,35.6,375.7875" style="stroke:#181818;stroke-width:0.8000000000000002;"/><line style="stroke:#181818;stroke-width:0.8000000000000002;stroke-dasharray:2.0,2.0;" x1="34" x2="276.4" y1="375.7875" y2="375.7875"/><text fill="#000000" font-family="sans-serif" font-size="10.4" font-weight="bold" lengthAdjust="spacing" textLength="11.2" x="43.6" y="371.9836">12</text><text fill="#000000" font-family="sans-serif" font-size="10.4" lengthAdjust="spacing" textLength="127.2" x="58" y="371.9836">Inform success of operation</text><!--MD5=[3fcf6014437f1f7006b37d26536e2b3d]
@startuml

autonumber
actor "User" as MNG
actor ":System" as SYS

activate MNG
MNG -> SYS : Asks to change a post in a shared board
activate SYS
SYS - -> MNG : Shows all shared boards available for the user
deactivate SYS
MNG -> SYS : Choose one
activate SYS
SYS - -> MNG : Shows all cells occupied with a post
deactivate SYS
MNG -> SYS : Choose one
activate SYS
SYS - -> MNG : Ask the type of post
deactivate SYS
MNG -> SYS : Choose one
alt (TypeOfPost.IMAGE)
activate SYS
SYS - -> MNG : Ask the path
deactivate SYS
MNG -> SYS : Input path
else (TypeOfPost.Text)
SYS - -> MNG : Ask the content
deactivate SYS
MNG -> SYS : Input content
end alt
activate SYS
SYS - -> MNG : Inform success of operation
deactivate SYS
deactivate MNG

@enduml

PlantUML version 1.2022.12(Sun Oct 23 19:12:26 WEST 2022)
(GPL source distribution)
Java Runtime: OpenJDK Runtime Environment
JVM: OpenJDK 64-Bit Server VM
Default Encoding: Cp1252
Language: pt
Country: PT
--></g></svg>