<?xml version="1.0" encoding="us-ascii" standalone="no"?><svg xmlns="http://www.w3.org/2000/svg" xmlns:xlink="http://www.w3.org/1999/xlink" contentStyleType="text/css" height="760px" preserveAspectRatio="none" style="width:562px;height:760px;background:#FFFFFF;" version="1.1" viewBox="0 0 562 760" width="562px" zoomAndPan="magnify"><defs/><g><!--entity CourseRepository--><g id="elem_CourseRepository"><path d="M55.5,706 C55.5,696 122.5,696 122.5,696 C122.5,696 189.5,696 189.5,706 L189.5,733.6211 C189.5,743.6211 122.5,743.6211 122.5,743.6211 C122.5,743.6211 55.5,743.6211 55.5,733.6211 L55.5,706 " fill="#F1F1F1" style="stroke:#181818;stroke-width:0.5;"/><path d="M55.5,706 C55.5,716 122.5,716 122.5,716 C122.5,716 189.5,716 189.5,706 " fill="none" style="stroke:#181818;stroke-width:0.5;"/><text fill="#000000" font-family="sans-serif" font-size="14" lengthAdjust="spacing" textLength="114" x="65.5" y="735.1074">CourseRepository</text></g><!--class OpenCloseCourseUI--><g id="elem_OpenCloseCourseUI"><rect codeLine="3" fill="#F1F1F1" height="48" id="OpenCloseCourseUI" rx="2.5" ry="2.5" style="stroke:#181818;stroke-width:0.5;" width="161" x="237" y="7"/><ellipse cx="252" cy="23" fill="#ADD1B2" rx="11" ry="11" style="stroke:#181818;stroke-width:1.0;"/><path d="M254.7656,18.875 Q254.9219,18.6563 255.1094,18.5469 Q255.2969,18.4375 255.5156,18.4375 Q255.8906,18.4375 256.125,18.7031 Q256.3594,18.9531 256.3594,19.5625 L256.3594,21.0156 Q256.3594,21.625 256.125,21.8906 Q255.8906,22.1563 255.5156,22.1563 Q255.1719,22.1563 254.9688,21.9531 Q254.7656,21.7656 254.6563,21.25 Q254.6094,20.8906 254.4219,20.7031 Q254.0938,20.3281 253.4844,20.1094 Q252.875,19.8906 252.25,19.8906 Q251.4844,19.8906 250.8438,20.2188 Q250.2188,20.5469 249.7188,21.2969 Q249.2344,22.0469 249.2344,23.0781 L249.2344,24.1719 Q249.2344,25.4063 250.125,26.2344 Q251.0156,27.0469 252.6094,27.0469 Q253.5469,27.0469 254.2031,26.7969 Q254.5938,26.6406 255.0156,26.2031 Q255.2813,25.9375 255.4219,25.8594 Q255.5781,25.7813 255.7813,25.7813 Q256.1094,25.7813 256.3594,26.0469 Q256.625,26.2969 256.625,26.6406 Q256.625,26.9844 256.2813,27.3906 Q255.7813,27.9688 254.9844,28.2969 Q253.9063,28.75 252.6094,28.75 Q251.0938,28.75 249.8906,28.125 Q248.9063,27.625 248.2188,26.5625 Q247.5313,25.4844 247.5313,24.2031 L247.5313,23.0469 Q247.5313,21.7188 248.1406,20.5781 Q248.7656,19.4219 249.8594,18.8125 Q250.9531,18.1875 252.1875,18.1875 Q252.9219,18.1875 253.5625,18.3594 Q254.2188,18.5156 254.7656,18.875 Z " fill="#000000"/><text fill="#000000" font-family="sans-serif" font-size="14" lengthAdjust="spacing" textLength="129" x="266" y="28.7969">OpenCloseCourseUI</text><line style="stroke:#181818;stroke-width:0.5;" x1="238" x2="397" y1="39" y2="39"/><line style="stroke:#181818;stroke-width:0.5;" x1="238" x2="397" y1="47" y2="47"/></g><!--class OpenCloseCourseController--><g id="elem_OpenCloseCourseController"><rect codeLine="6" fill="#F1F1F1" height="85.2422" id="OpenCloseCourseController" rx="2.5" ry="2.5" style="stroke:#181818;stroke-width:0.5;" width="235" x="200" y="115"/><ellipse cx="225.8" cy="131" fill="#ADD1B2" rx="11" ry="11" style="stroke:#181818;stroke-width:1.0;"/><path d="M228.5656,126.875 Q228.7219,126.6563 228.9094,126.5469 Q229.0969,126.4375 229.3156,126.4375 Q229.6906,126.4375 229.925,126.7031 Q230.1594,126.9531 230.1594,127.5625 L230.1594,129.0156 Q230.1594,129.625 229.925,129.8906 Q229.6906,130.1563 229.3156,130.1563 Q228.9719,130.1563 228.7688,129.9531 Q228.5656,129.7656 228.4563,129.25 Q228.4094,128.8906 228.2219,128.7031 Q227.8938,128.3281 227.2844,128.1094 Q226.675,127.8906 226.05,127.8906 Q225.2844,127.8906 224.6438,128.2188 Q224.0188,128.5469 223.5188,129.2969 Q223.0344,130.0469 223.0344,131.0781 L223.0344,132.1719 Q223.0344,133.4063 223.925,134.2344 Q224.8156,135.0469 226.4094,135.0469 Q227.3469,135.0469 228.0031,134.7969 Q228.3938,134.6406 228.8156,134.2031 Q229.0813,133.9375 229.2219,133.8594 Q229.3781,133.7813 229.5813,133.7813 Q229.9094,133.7813 230.1594,134.0469 Q230.425,134.2969 230.425,134.6406 Q230.425,134.9844 230.0813,135.3906 Q229.5813,135.9688 228.7844,136.2969 Q227.7063,136.75 226.4094,136.75 Q224.8938,136.75 223.6906,136.125 Q222.7063,135.625 222.0188,134.5625 Q221.3313,133.4844 221.3313,132.2031 L221.3313,131.0469 Q221.3313,129.7188 221.9406,128.5781 Q222.5656,127.4219 223.6594,126.8125 Q224.7531,126.1875 225.9875,126.1875 Q226.7219,126.1875 227.3625,126.3594 Q228.0188,126.5156 228.5656,126.875 Z " fill="#000000"/><text fill="#000000" font-family="sans-serif" font-size="14" lengthAdjust="spacing" textLength="179" x="242.2" y="136.7969">OpenCloseCourseController</text><line style="stroke:#181818;stroke-width:0.5;" x1="201" x2="434" y1="147" y2="147"/><line style="stroke:#181818;stroke-width:0.5;" x1="201" x2="434" y1="155" y2="155"/><ellipse cx="211" cy="169.8105" fill="#84BE84" rx="3" ry="3" style="stroke:#038048;stroke-width:1.0;"/><text fill="#000000" font-family="sans-serif" font-size="14" lengthAdjust="spacing" textLength="209" x="220" y="174.1074">OpenCloseCourse(course, state)</text><ellipse cx="211" cy="188.4316" fill="#84BE84" rx="3" ry="3" style="stroke:#038048;stroke-width:1.0;"/><text fill="#000000" font-family="sans-serif" font-size="14" lengthAdjust="spacing" textLength="98" x="220" y="192.7285">getAllCourses()</text></g><!--class CourseService--><g id="elem_CourseService"><rect codeLine="11" fill="#F1F1F1" height="66.6211" id="CourseService" rx="2.5" ry="2.5" style="stroke:#181818;stroke-width:0.5;" width="125" x="60" y="569"/><ellipse cx="75" cy="585" fill="#ADD1B2" rx="11" ry="11" style="stroke:#181818;stroke-width:1.0;"/><path d="M77.7656,580.875 Q77.9219,580.6563 78.1094,580.5469 Q78.2969,580.4375 78.5156,580.4375 Q78.8906,580.4375 79.125,580.7031 Q79.3594,580.9531 79.3594,581.5625 L79.3594,583.0156 Q79.3594,583.625 79.125,583.8906 Q78.8906,584.1563 78.5156,584.1563 Q78.1719,584.1563 77.9688,583.9531 Q77.7656,583.7656 77.6563,583.25 Q77.6094,582.8906 77.4219,582.7031 Q77.0938,582.3281 76.4844,582.1094 Q75.875,581.8906 75.25,581.8906 Q74.4844,581.8906 73.8438,582.2188 Q73.2188,582.5469 72.7188,583.2969 Q72.2344,584.0469 72.2344,585.0781 L72.2344,586.1719 Q72.2344,587.4063 73.125,588.2344 Q74.0156,589.0469 75.6094,589.0469 Q76.5469,589.0469 77.2031,588.7969 Q77.5938,588.6406 78.0156,588.2031 Q78.2813,587.9375 78.4219,587.8594 Q78.5781,587.7813 78.7813,587.7813 Q79.1094,587.7813 79.3594,588.0469 Q79.625,588.2969 79.625,588.6406 Q79.625,588.9844 79.2813,589.3906 Q78.7813,589.9688 77.9844,590.2969 Q76.9063,590.75 75.6094,590.75 Q74.0938,590.75 72.8906,590.125 Q71.9063,589.625 71.2188,588.5625 Q70.5313,587.4844 70.5313,586.2031 L70.5313,585.0469 Q70.5313,583.7188 71.1406,582.5781 Q71.7656,581.4219 72.8594,580.8125 Q73.9531,580.1875 75.1875,580.1875 Q75.9219,580.1875 76.5625,580.3594 Q77.2188,580.5156 77.7656,580.875 Z " fill="#000000"/><text fill="#000000" font-family="sans-serif" font-size="14" lengthAdjust="spacing" textLength="93" x="89" y="590.7969">CourseService</text><line style="stroke:#181818;stroke-width:0.5;" x1="61" x2="184" y1="601" y2="601"/><line style="stroke:#181818;stroke-width:0.5;" x1="61" x2="184" y1="609" y2="609"/><ellipse cx="71" cy="623.8105" fill="#84BE84" rx="3" ry="3" style="stroke:#038048;stroke-width:1.0;"/><text fill="#000000" font-family="sans-serif" font-size="14" lengthAdjust="spacing" textLength="98" x="80" y="628.1074">getAllCourses()</text></g><!--class PersistenceContext--><g id="elem_PersistenceContext"><rect codeLine="16" fill="#F1F1F1" height="66.6211" id="PersistenceContext" rx="2.5" ry="2.5" style="stroke:#181818;stroke-width:0.5;" width="154" x="45.5" y="269"/><ellipse cx="60.5" cy="285" fill="#ADD1B2" rx="11" ry="11" style="stroke:#181818;stroke-width:1.0;"/><path d="M63.2656,280.875 Q63.4219,280.6563 63.6094,280.5469 Q63.7969,280.4375 64.0156,280.4375 Q64.3906,280.4375 64.625,280.7031 Q64.8594,280.9531 64.8594,281.5625 L64.8594,283.0156 Q64.8594,283.625 64.625,283.8906 Q64.3906,284.1563 64.0156,284.1563 Q63.6719,284.1563 63.4688,283.9531 Q63.2656,283.7656 63.1563,283.25 Q63.1094,282.8906 62.9219,282.7031 Q62.5938,282.3281 61.9844,282.1094 Q61.375,281.8906 60.75,281.8906 Q59.9844,281.8906 59.3438,282.2188 Q58.7188,282.5469 58.2188,283.2969 Q57.7344,284.0469 57.7344,285.0781 L57.7344,286.1719 Q57.7344,287.4063 58.625,288.2344 Q59.5156,289.0469 61.1094,289.0469 Q62.0469,289.0469 62.7031,288.7969 Q63.0938,288.6406 63.5156,288.2031 Q63.7813,287.9375 63.9219,287.8594 Q64.0781,287.7813 64.2813,287.7813 Q64.6094,287.7813 64.8594,288.0469 Q65.125,288.2969 65.125,288.6406 Q65.125,288.9844 64.7813,289.3906 Q64.2813,289.9688 63.4844,290.2969 Q62.4063,290.75 61.1094,290.75 Q59.5938,290.75 58.3906,290.125 Q57.4063,289.625 56.7188,288.5625 Q56.0313,287.4844 56.0313,286.2031 L56.0313,285.0469 Q56.0313,283.7188 56.6406,282.5781 Q57.2656,281.4219 58.3594,280.8125 Q59.4531,280.1875 60.6875,280.1875 Q61.4219,280.1875 62.0625,280.3594 Q62.7188,280.5156 63.2656,280.875 Z " fill="#000000"/><text fill="#000000" font-family="sans-serif" font-size="14" lengthAdjust="spacing" textLength="122" x="74.5" y="290.7969">PersistenceContext</text><line style="stroke:#181818;stroke-width:0.5;" x1="46.5" x2="198.5" y1="301" y2="301"/><line style="stroke:#181818;stroke-width:0.5;" x1="46.5" x2="198.5" y1="309" y2="309"/><ellipse cx="56.5" cy="323.8105" fill="#84BE84" rx="3" ry="3" style="stroke:#038048;stroke-width:1.0;"/><text fill="#000000" font-family="sans-serif" font-size="14" lengthAdjust="spacing" textLength="84" x="65.5" y="328.1074">repositories()</text></g><!--class RepositoryFactory--><g id="elem_RepositoryFactory"><rect codeLine="20" fill="#F1F1F1" height="103.8633" id="RepositoryFactory" rx="2.5" ry="2.5" style="stroke:#181818;stroke-width:0.5;" width="231" x="7" y="405"/><ellipse cx="60.25" cy="421" fill="#ADD1B2" rx="11" ry="11" style="stroke:#181818;stroke-width:1.0;"/><path d="M63.0156,416.875 Q63.1719,416.6563 63.3594,416.5469 Q63.5469,416.4375 63.7656,416.4375 Q64.1406,416.4375 64.375,416.7031 Q64.6094,416.9531 64.6094,417.5625 L64.6094,419.0156 Q64.6094,419.625 64.375,419.8906 Q64.1406,420.1563 63.7656,420.1563 Q63.4219,420.1563 63.2188,419.9531 Q63.0156,419.7656 62.9063,419.25 Q62.8594,418.8906 62.6719,418.7031 Q62.3438,418.3281 61.7344,418.1094 Q61.125,417.8906 60.5,417.8906 Q59.7344,417.8906 59.0938,418.2188 Q58.4688,418.5469 57.9688,419.2969 Q57.4844,420.0469 57.4844,421.0781 L57.4844,422.1719 Q57.4844,423.4063 58.375,424.2344 Q59.2656,425.0469 60.8594,425.0469 Q61.7969,425.0469 62.4531,424.7969 Q62.8438,424.6406 63.2656,424.2031 Q63.5313,423.9375 63.6719,423.8594 Q63.8281,423.7813 64.0313,423.7813 Q64.3594,423.7813 64.6094,424.0469 Q64.875,424.2969 64.875,424.6406 Q64.875,424.9844 64.5313,425.3906 Q64.0313,425.9688 63.2344,426.2969 Q62.1563,426.75 60.8594,426.75 Q59.3438,426.75 58.1406,426.125 Q57.1563,425.625 56.4688,424.5625 Q55.7813,423.4844 55.7813,422.2031 L55.7813,421.0469 Q55.7813,419.7188 56.3906,418.5781 Q57.0156,417.4219 58.1094,416.8125 Q59.2031,416.1875 60.4375,416.1875 Q61.1719,416.1875 61.8125,416.3594 Q62.4688,416.5156 63.0156,416.875 Z " fill="#000000"/><text fill="#000000" font-family="sans-serif" font-size="14" lengthAdjust="spacing" textLength="116" x="80.75" y="426.7969">RepositoryFactory</text><line style="stroke:#181818;stroke-width:0.5;" x1="8" x2="237" y1="437" y2="437"/><line style="stroke:#181818;stroke-width:0.5;" x1="8" x2="237" y1="445" y2="445"/><ellipse cx="18" cy="459.8105" fill="#84BE84" rx="3" ry="3" style="stroke:#038048;stroke-width:1.0;"/><text fill="#000000" font-family="sans-serif" font-size="14" lengthAdjust="spacing" textLength="50" x="27" y="464.1074">create()</text><ellipse cx="18" cy="478.4316" fill="#84BE84" rx="3" ry="3" style="stroke:#038048;stroke-width:1.0;"/><text fill="#000000" font-family="sans-serif" font-size="14" lengthAdjust="spacing" textLength="169" x="27" y="482.7285">newTransactionalContext()</text><ellipse cx="18" cy="497.0527" fill="#84BE84" rx="3" ry="3" style="stroke:#038048;stroke-width:1.0;"/><text fill="#000000" font-family="sans-serif" font-size="14" lengthAdjust="spacing" textLength="205" x="27" y="501.3496">create(TransactionalContext ctx)</text></g><!--class TransactionalContext--><g id="elem_TransactionalContext"><rect codeLine="29" fill="#F1F1F1" height="85.2422" id="TransactionalContext" rx="2.5" ry="2.5" style="stroke:#181818;stroke-width:0.5;" width="166" x="234.5" y="260"/><ellipse cx="249.5" cy="276" fill="#ADD1B2" rx="11" ry="11" style="stroke:#181818;stroke-width:1.0;"/><path d="M252.2656,271.875 Q252.4219,271.6563 252.6094,271.5469 Q252.7969,271.4375 253.0156,271.4375 Q253.3906,271.4375 253.625,271.7031 Q253.8594,271.9531 253.8594,272.5625 L253.8594,274.0156 Q253.8594,274.625 253.625,274.8906 Q253.3906,275.1563 253.0156,275.1563 Q252.6719,275.1563 252.4688,274.9531 Q252.2656,274.7656 252.1563,274.25 Q252.1094,273.8906 251.9219,273.7031 Q251.5938,273.3281 250.9844,273.1094 Q250.375,272.8906 249.75,272.8906 Q248.9844,272.8906 248.3438,273.2188 Q247.7188,273.5469 247.2188,274.2969 Q246.7344,275.0469 246.7344,276.0781 L246.7344,277.1719 Q246.7344,278.4063 247.625,279.2344 Q248.5156,280.0469 250.1094,280.0469 Q251.0469,280.0469 251.7031,279.7969 Q252.0938,279.6406 252.5156,279.2031 Q252.7813,278.9375 252.9219,278.8594 Q253.0781,278.7813 253.2813,278.7813 Q253.6094,278.7813 253.8594,279.0469 Q254.125,279.2969 254.125,279.6406 Q254.125,279.9844 253.7813,280.3906 Q253.2813,280.9688 252.4844,281.2969 Q251.4063,281.75 250.1094,281.75 Q248.5938,281.75 247.3906,281.125 Q246.4063,280.625 245.7188,279.5625 Q245.0313,278.4844 245.0313,277.2031 L245.0313,276.0469 Q245.0313,274.7188 245.6406,273.5781 Q246.2656,272.4219 247.3594,271.8125 Q248.4531,271.1875 249.6875,271.1875 Q250.4219,271.1875 251.0625,271.3594 Q251.7188,271.5156 252.2656,271.875 Z " fill="#000000"/><text fill="#000000" font-family="sans-serif" font-size="14" lengthAdjust="spacing" textLength="134" x="263.5" y="281.7969">TransactionalContext</text><line style="stroke:#181818;stroke-width:0.5;" x1="235.5" x2="399.5" y1="292" y2="292"/><line style="stroke:#181818;stroke-width:0.5;" x1="235.5" x2="399.5" y1="300" y2="300"/><ellipse cx="245.5" cy="314.8105" fill="#84BE84" rx="3" ry="3" style="stroke:#038048;stroke-width:1.0;"/><text fill="#000000" font-family="sans-serif" font-size="14" lengthAdjust="spacing" textLength="120" x="254.5" y="319.1074">beginTransaction()</text><ellipse cx="245.5" cy="333.4316" fill="#84BE84" rx="3" ry="3" style="stroke:#038048;stroke-width:1.0;"/><text fill="#000000" font-family="sans-serif" font-size="14" lengthAdjust="spacing" textLength="54" x="254.5" y="337.7285">commit()</text></g><!--class Course--><g id="elem_Course"><rect codeLine="34" fill="#F1F1F1" height="66.6211" id="Course" rx="2.5" ry="2.5" style="stroke:#181818;stroke-width:0.5;" width="119" x="436" y="269"/><ellipse cx="469.45" cy="285" fill="#ADD1B2" rx="11" ry="11" style="stroke:#181818;stroke-width:1.0;"/><path d="M472.2156,280.875 Q472.3719,280.6563 472.5594,280.5469 Q472.7469,280.4375 472.9656,280.4375 Q473.3406,280.4375 473.575,280.7031 Q473.8094,280.9531 473.8094,281.5625 L473.8094,283.0156 Q473.8094,283.625 473.575,283.8906 Q473.3406,284.1563 472.9656,284.1563 Q472.6219,284.1563 472.4188,283.9531 Q472.2156,283.7656 472.1063,283.25 Q472.0594,282.8906 471.8719,282.7031 Q471.5438,282.3281 470.9344,282.1094 Q470.325,281.8906 469.7,281.8906 Q468.9344,281.8906 468.2938,282.2188 Q467.6688,282.5469 467.1688,283.2969 Q466.6844,284.0469 466.6844,285.0781 L466.6844,286.1719 Q466.6844,287.4063 467.575,288.2344 Q468.4656,289.0469 470.0594,289.0469 Q470.9969,289.0469 471.6531,288.7969 Q472.0438,288.6406 472.4656,288.2031 Q472.7313,287.9375 472.8719,287.8594 Q473.0281,287.7813 473.2313,287.7813 Q473.5594,287.7813 473.8094,288.0469 Q474.075,288.2969 474.075,288.6406 Q474.075,288.9844 473.7313,289.3906 Q473.2313,289.9688 472.4344,290.2969 Q471.3563,290.75 470.0594,290.75 Q468.5438,290.75 467.3406,290.125 Q466.3563,289.625 465.6688,288.5625 Q464.9813,287.4844 464.9813,286.2031 L464.9813,285.0469 Q464.9813,283.7188 465.5906,282.5781 Q466.2156,281.4219 467.3094,280.8125 Q468.4031,280.1875 469.6375,280.1875 Q470.3719,280.1875 471.0125,280.3594 Q471.6688,280.5156 472.2156,280.875 Z " fill="#000000"/><text fill="#000000" font-family="sans-serif" font-size="14" lengthAdjust="spacing" textLength="46" x="487.55" y="290.7969">Course</text><line style="stroke:#181818;stroke-width:0.5;" x1="437" x2="554" y1="301" y2="301"/><line style="stroke:#181818;stroke-width:0.5;" x1="437" x2="554" y1="309" y2="309"/><ellipse cx="447" cy="323.8105" fill="#84BE84" rx="3" ry="3" style="stroke:#038048;stroke-width:1.0;"/><text fill="#000000" font-family="sans-serif" font-size="14" lengthAdjust="spacing" textLength="93" x="456" y="328.1074">setState(state)</text></g><!--link OpenCloseCourseUI to OpenCloseCourseController--><g id="link_OpenCloseCourseUI_OpenCloseCourseController"><path codeLine="38" d="M317.5,55.13 C317.5,70.42 317.5,91.02 317.5,109.66 " fill="none" id="OpenCloseCourseUI-to-OpenCloseCourseController" style="stroke:#181818;stroke-width:1.0;"/><polygon fill="#181818" points="317.5,114.86,321.5,105.86,317.5,109.86,313.5,105.86,317.5,114.86" style="stroke:#181818;stroke-width:1.0;"/></g><!--link OpenCloseCourseController to PersistenceContext--><g id="link_OpenCloseCourseController_PersistenceContext"><path codeLine="39" d="M260.84,200.05 C232.44,220.87 198.41,245.83 171.21,265.78 " fill="none" id="OpenCloseCourseController-to-PersistenceContext" style="stroke:#181818;stroke-width:1.0;"/><polygon fill="#181818" points="166.9,268.94,176.5221,266.8389,170.9307,265.9813,171.7882,260.3899,166.9,268.94" style="stroke:#181818;stroke-width:1.0;"/></g><!--link OpenCloseCourseController to TransactionalContext--><g id="link_OpenCloseCourseController_TransactionalContext"><path codeLine="40" d="M317.5,200.25 C317.5,217.28 317.5,237.06 317.5,254.59 " fill="none" id="OpenCloseCourseController-to-TransactionalContext" style="stroke:#181818;stroke-width:1.0;"/><polygon fill="#181818" points="317.5,259.95,321.5,250.95,317.5,254.95,313.5,250.95,317.5,259.95" style="stroke:#181818;stroke-width:1.0;"/></g><!--link CourseService to CourseRepository--><g id="link_CourseService_CourseRepository"><path codeLine="42" d="M122.5,636.29 C122.5,653.31 122.5,673.9 122.5,690.29 " fill="none" id="CourseService-to-CourseRepository" style="stroke:#181818;stroke-width:1.0;"/><polygon fill="#181818" points="122.5,695.67,126.5,686.67,122.5,690.67,118.5,686.67,122.5,695.67" style="stroke:#181818;stroke-width:1.0;"/></g><!--link OpenCloseCourseController to Course--><g id="link_OpenCloseCourseController_Course"><path codeLine="43" d="M369.46,200.25 C395.28,220.98 426.15,245.78 450.88,265.65 " fill="none" id="OpenCloseCourseController-to-Course" style="stroke:#181818;stroke-width:1.0;"/><polygon fill="#181818" points="454.79,268.79,450.2727,260.0382,450.8898,265.6613,445.2668,266.2785,454.79,268.79" style="stroke:#181818;stroke-width:1.0;"/></g><!--link PersistenceContext to RepositoryFactory--><g id="link_PersistenceContext_RepositoryFactory"><path codeLine="45" d="M122.5,336.22 C122.5,354.69 122.5,378.29 122.5,399.65 " fill="none" id="PersistenceContext-to-RepositoryFactory" style="stroke:#181818;stroke-width:1.0;"/><polygon fill="#181818" points="122.5,404.74,126.5,395.74,122.5,399.74,118.5,395.74,122.5,404.74" style="stroke:#181818;stroke-width:1.0;"/></g><!--link RepositoryFactory to CourseService--><g id="link_RepositoryFactory_CourseService"><path codeLine="47" d="M122.5,509.4 C122.5,527.33 122.5,547.11 122.5,563.72 " fill="none" id="RepositoryFactory-to-CourseService" style="stroke:#181818;stroke-width:1.0;"/><polygon fill="#181818" points="122.5,568.77,126.5,559.77,122.5,563.77,118.5,559.77,122.5,568.77" style="stroke:#181818;stroke-width:1.0;"/></g><!--SRC=[VP71JiCm38RlVehUw5HAxnoGK2MadK0C7i3Bh18fJQhOWw6AToVDYjOkBQSe_h_OVtxVV8XqV5zLdK4hnzRSATTMoY1pUT3OU6m1uZLxxiZMnZ7LxkYPthSz_AnejRFYdJ7aUoYkj5p5upPZGQ4D50t9ep5daVFDfUcvj2F_gHNrY-18lf1dpK9MnT5qae1xwXnhSLxFsxx-rR-VK0r7O9MdO2PGXQMlDu-MWwITHJFs6wGHMf8p9QSuue22UsGQpLzcJS9QQX0yxAdHTgB5aQvjjQIX19n9TaE2-PXZ898DPMNviBuRM5N2ipJIV_6bFm7CDXZDNCUotdI20wHkWfei4Y0f1MncuXS0]--></g></svg>