<?xml version="1.0" encoding="us-ascii" standalone="no"?><svg xmlns="http://www.w3.org/2000/svg" xmlns:xlink="http://www.w3.org/1999/xlink" contentStyleType="text/css" height="1669px" preserveAspectRatio="none" style="width:2917px;height:1669px;background:#FFFFFF;" version="1.1" viewBox="0 0 2917 1669" width="2917px" zoomAndPan="magnify"><defs/><g><rect fill="#FFFFFF" height="1453.6035" style="stroke:#181818;stroke-width:1.0;" width="10" x="31" y="98.2422"/><rect fill="#FFFFFF" height="62.582" style="stroke:#181818;stroke-width:1.0;" width="10" x="294" y="121.5332"/><rect fill="#FFFFFF" height="31.291" style="stroke:#181818;stroke-width:1.0;" width="10" x="434.5" y="152.8242"/><rect fill="#FFFFFF" height="31.291" style="stroke:#181818;stroke-width:1.0;" width="10" x="583" y="184.1152"/><rect fill="#FFFFFF" height="273.7461" style="stroke:#181818;stroke-width:1.0;" width="10" x="583" y="246.6973"/><rect fill="#FFFFFF" height="203.1641" style="stroke:#181818;stroke-width:1.0;" width="10" x="588" y="285.9883"/><rect fill="#FFFFFF" height="28" style="stroke:#181818;stroke-width:1.0;" width="10" x="593" y="330.2793"/><rect fill="#FFFFFF" height="1000.1113" style="stroke:#181818;stroke-width:1.0;" width="10" x="583" y="551.7344"/><rect fill="#FFFFFF" height="901.5293" style="stroke:#181818;stroke-width:1.0;" width="10" x="588" y="591.0254"/><rect fill="#FFFFFF" height="28" style="stroke:#181818;stroke-width:1.0;" width="10" x="593" y="801.7715"/><rect fill="#FFFFFF" height="28" style="stroke:#181818;stroke-width:1.0;" width="10" x="593" y="876.0625"/><rect fill="#FFFFFF" height="28" style="stroke:#181818;stroke-width:1.0;" width="10" x="593" y="950.3535"/><rect fill="#FFFFFF" height="127.582" style="stroke:#181818;stroke-width:1.0;" width="10" x="593" y="1024.6445"/><rect fill="#FFFFFF" height="92.582" style="stroke:#181818;stroke-width:1.0;" width="10" x="1282" y="396.5703"/><rect fill="#FFFFFF" height="30" style="stroke:#181818;stroke-width:1.0;" width="10" x="1282" y="627.3164"/><rect fill="#FFFFFF" height="61.291" style="stroke:#181818;stroke-width:1.0;" width="10" x="1282" y="1307.3906"/><rect fill="#FFFFFF" height="92.582" style="stroke:#181818;stroke-width:1.0;" width="10" x="1282" y="1399.9727"/><rect fill="#FFFFFF" height="30" style="stroke:#181818;stroke-width:1.0;" width="10" x="1461.5" y="1060.9355"/><rect fill="#FFFFFF" height="30" style="stroke:#181818;stroke-width:1.0;" width="10" x="1607.5" y="1122.2266"/><rect fill="#FFFFFF" height="92.582" style="stroke:#181818;stroke-width:1.0;" width="10" x="1746.5" y="1183.5176"/><rect fill="#FFFFFF" height="61.291" style="stroke:#181818;stroke-width:1.0;" width="10" x="1911.5" y="1431.2637"/><rect fill="#FFFFFF" height="61.291" style="stroke:#181818;stroke-width:1.0;" width="10" x="2072" y="427.8613"/><rect fill="#FFFFFF" height="61.291" style="stroke:#181818;stroke-width:1.0;" width="10" x="2190" y="1214.8086"/><rect fill="#FFFFFF" height="30" style="stroke:#181818;stroke-width:1.0;" width="10" x="2322" y="1338.6816"/><rect fill="#FFFFFF" height="30" style="stroke:#181818;stroke-width:1.0;" width="10" x="2503" y="1462.5547"/><rect fill="#FFFFFF" height="30" style="stroke:#181818;stroke-width:1.0;" width="10" x="2676.5" y="459.1523"/><rect fill="#FFFFFF" height="30" style="stroke:#181818;stroke-width:1.0;" width="10" x="2807.5" y="1246.0996"/><rect fill="none" height="849.2383" style="stroke:#000000;stroke-width:1.5;" width="2426" x="485.5" y="672.3164"/><rect fill="none" height="815.9473" style="stroke:#000000;stroke-width:1.5;" width="2406" x="495.5" y="698.6074"/><rect fill="none" height="782.6563" style="stroke:#000000;stroke-width:1.5;" width="2386" x="505.5" y="724.8984"/><rect fill="none" height="749.3652" style="stroke:#000000;stroke-width:1.5;" width="2366" x="515.5" y="751.1895"/><line style="stroke:#181818;stroke-width:0.5;stroke-dasharray:5.0,5.0;" x1="36" x2="36" y1="88.2422" y2="1569.8457"/><line style="stroke:#181818;stroke-width:0.5;stroke-dasharray:5.0,5.0;" x1="298.5" x2="298.5" y1="88.2422" y2="1569.8457"/><line style="stroke:#181818;stroke-width:0.5;stroke-dasharray:5.0,5.0;" x1="439.5" x2="439.5" y1="88.2422" y2="1569.8457"/><line style="stroke:#181818;stroke-width:0.5;stroke-dasharray:5.0,5.0;" x1="587.5" x2="587.5" y1="88.2422" y2="1569.8457"/><line style="stroke:#181818;stroke-width:0.5;stroke-dasharray:5.0,5.0;" x1="1286.5" x2="1286.5" y1="88.2422" y2="1569.8457"/><line style="stroke:#181818;stroke-width:0.5;stroke-dasharray:5.0,5.0;" x1="1466.5" x2="1466.5" y1="88.2422" y2="1569.8457"/><line style="stroke:#181818;stroke-width:0.5;stroke-dasharray:5.0,5.0;" x1="1612.5" x2="1612.5" y1="88.2422" y2="1569.8457"/><line style="stroke:#181818;stroke-width:0.5;stroke-dasharray:5.0,5.0;" x1="1751.5" x2="1751.5" y1="88.2422" y2="1569.8457"/><line style="stroke:#181818;stroke-width:0.5;stroke-dasharray:5.0,5.0;" x1="1916.5" x2="1916.5" y1="88.2422" y2="1569.8457"/><line style="stroke:#181818;stroke-width:0.5;stroke-dasharray:5.0,5.0;" x1="2076.5" x2="2076.5" y1="88.2422" y2="1569.8457"/><line style="stroke:#181818;stroke-width:0.5;stroke-dasharray:5.0,5.0;" x1="2194.5" x2="2194.5" y1="88.2422" y2="1569.8457"/><line style="stroke:#181818;stroke-width:0.5;stroke-dasharray:5.0,5.0;" x1="2326.5" x2="2326.5" y1="88.2422" y2="1569.8457"/><line style="stroke:#181818;stroke-width:0.5;stroke-dasharray:5.0,5.0;" x1="2507.5" x2="2507.5" y1="88.2422" y2="1569.8457"/><line style="stroke:#181818;stroke-width:0.5;stroke-dasharray:5.0,5.0;" x1="2681.5" x2="2681.5" y1="88.2422" y2="1569.8457"/><line style="stroke:#181818;stroke-width:0.5;stroke-dasharray:5.0,5.0;" x1="2812.5" x2="2812.5" y1="88.2422" y2="1569.8457"/><text fill="#000000" font-family="sans-serif" font-size="14" lengthAdjust="spacing" textLength="56" x="5" y="84.7285">Manager</text><ellipse cx="36" cy="18.1211" fill="#E2E2F0" rx="8" ry="8" style="stroke:#181818;stroke-width:0.5;"/><path d="M36,26.1211 L36,53.1211 M23,34.1211 L49,34.1211 M36,53.1211 L23,68.1211 M36,53.1211 L49,68.1211 " fill="none" style="stroke:#181818;stroke-width:0.5;"/><text fill="#000000" font-family="sans-serif" font-size="14" lengthAdjust="spacing" textLength="56" x="5" y="1583.9531">Manager</text><ellipse cx="36" cy="1595.9668" fill="#E2E2F0" rx="8" ry="8" style="stroke:#181818;stroke-width:0.5;"/><path d="M36,1603.9668 L36,1630.9668 M23,1611.9668 L49,1611.9668 M36,1630.9668 L23,1645.9668 M36,1630.9668 L49,1645.9668 " fill="none" style="stroke:#181818;stroke-width:0.5;"/><rect fill="#E2E2F0" height="51.2422" rx="2.5" ry="2.5" style="stroke:#181818;stroke-width:0.5;" width="109" x="244.5" y="36"/><text fill="#000000" font-family="sans-serif" font-size="14" font-style="italic" lengthAdjust="spacing" textLength="95" x="251.5" y="58.1074">&#171;presentation&#187;</text><text fill="#000000" font-family="sans-serif" font-size="14" lengthAdjust="spacing" textLength="52" x="273" y="76.7285">:UsersUI</text><rect fill="#E2E2F0" height="51.2422" rx="2.5" ry="2.5" style="stroke:#181818;stroke-width:0.5;" width="109" x="244.5" y="1568.8457"/><text fill="#000000" font-family="sans-serif" font-size="14" font-style="italic" lengthAdjust="spacing" textLength="95" x="251.5" y="1590.9531">&#171;presentation&#187;</text><text fill="#000000" font-family="sans-serif" font-size="14" lengthAdjust="spacing" textLength="52" x="273" y="1609.5742">:UsersUI</text><rect fill="#E2E2F0" height="51.2422" rx="2.5" ry="2.5" style="stroke:#181818;stroke-width:0.5;" width="152" x="363.5" y="36"/><text fill="#000000" font-family="sans-serif" font-size="14" font-style="italic" lengthAdjust="spacing" textLength="84" x="397.5" y="58.1074">&#171;application&#187;</text><text fill="#000000" font-family="sans-serif" font-size="14" lengthAdjust="spacing" textLength="138" x="370.5" y="76.7285">:ImportStudentsAction</text><rect fill="#E2E2F0" height="51.2422" rx="2.5" ry="2.5" style="stroke:#181818;stroke-width:0.5;" width="152" x="363.5" y="1568.8457"/><text fill="#000000" font-family="sans-serif" font-size="14" font-style="italic" lengthAdjust="spacing" textLength="84" x="397.5" y="1590.9531">&#171;application&#187;</text><text fill="#000000" font-family="sans-serif" font-size="14" lengthAdjust="spacing" textLength="138" x="370.5" y="1609.5742">:ImportStudentsAction</text><rect fill="#E2E2F0" height="51.2422" rx="2.5" ry="2.5" style="stroke:#181818;stroke-width:0.5;" width="125" x="525.5" y="36"/><text fill="#000000" font-family="sans-serif" font-size="14" font-style="italic" lengthAdjust="spacing" textLength="95" x="540.5" y="58.1074">&#171;presentation&#187;</text><text fill="#000000" font-family="sans-serif" font-size="14" lengthAdjust="spacing" textLength="111" x="532.5" y="76.7285">:ImportStudentsUI</text><rect fill="#E2E2F0" height="51.2422" rx="2.5" ry="2.5" style="stroke:#181818;stroke-width:0.5;" width="125" x="525.5" y="1568.8457"/><text fill="#000000" font-family="sans-serif" font-size="14" font-style="italic" lengthAdjust="spacing" textLength="95" x="540.5" y="1590.9531">&#171;presentation&#187;</text><text fill="#000000" font-family="sans-serif" font-size="14" lengthAdjust="spacing" textLength="111" x="532.5" y="1609.5742">:ImportStudentsUI</text><rect fill="#E2E2F0" height="51.2422" rx="2.5" ry="2.5" style="stroke:#181818;stroke-width:0.5;" width="205" x="1184.5" y="36"/><text fill="#000000" font-family="sans-serif" font-size="14" font-style="italic" lengthAdjust="spacing" textLength="84" x="1245" y="58.1074">&#171;application&#187;</text><text fill="#000000" font-family="sans-serif" font-size="14" lengthAdjust="spacing" textLength="191" x="1191.5" y="76.7285">:StudentRegistrationController</text><rect fill="#E2E2F0" height="51.2422" rx="2.5" ry="2.5" style="stroke:#181818;stroke-width:0.5;" width="205" x="1184.5" y="1568.8457"/><text fill="#000000" font-family="sans-serif" font-size="14" font-style="italic" lengthAdjust="spacing" textLength="84" x="1245" y="1590.9531">&#171;application&#187;</text><text fill="#000000" font-family="sans-serif" font-size="14" lengthAdjust="spacing" textLength="191" x="1191.5" y="1609.5742">:StudentRegistrationController</text><rect fill="#E2E2F0" height="51.2422" rx="2.5" ry="2.5" style="stroke:#181818;stroke-width:0.5;" width="134" x="1399.5" y="36"/><text fill="#000000" font-family="sans-serif" font-size="14" font-style="italic" lengthAdjust="spacing" textLength="84" x="1424.5" y="58.1074">&#171;application&#187;</text><text fill="#000000" font-family="sans-serif" font-size="14" lengthAdjust="spacing" textLength="120" x="1406.5" y="76.7285">:AddUserController</text><rect fill="#E2E2F0" height="51.2422" rx="2.5" ry="2.5" style="stroke:#181818;stroke-width:0.5;" width="134" x="1399.5" y="1568.8457"/><text fill="#000000" font-family="sans-serif" font-size="14" font-style="italic" lengthAdjust="spacing" textLength="84" x="1424.5" y="1590.9531">&#171;application&#187;</text><text fill="#000000" font-family="sans-serif" font-size="14" lengthAdjust="spacing" textLength="120" x="1406.5" y="1609.5742">:AddUserController</text><rect fill="#E2E2F0" height="51.2422" rx="2.5" ry="2.5" style="stroke:#181818;stroke-width:0.5;" width="138" x="1543.5" y="36"/><text fill="#000000" font-family="sans-serif" font-size="14" font-style="italic" lengthAdjust="spacing" textLength="84" x="1570.5" y="58.1074">&#171;application&#187;</text><text fill="#000000" font-family="sans-serif" font-size="14" lengthAdjust="spacing" textLength="124" x="1550.5" y="76.7285">:ListUsersController</text><rect fill="#E2E2F0" height="51.2422" rx="2.5" ry="2.5" style="stroke:#181818;stroke-width:0.5;" width="138" x="1543.5" y="1568.8457"/><text fill="#000000" font-family="sans-serif" font-size="14" font-style="italic" lengthAdjust="spacing" textLength="84" x="1570.5" y="1590.9531">&#171;application&#187;</text><text fill="#000000" font-family="sans-serif" font-size="14" lengthAdjust="spacing" textLength="124" x="1550.5" y="1609.5742">:ListUsersController</text><rect fill="#E2E2F0" height="51.2422" rx="2.5" ry="2.5" style="stroke:#181818;stroke-width:0.5;" width="120" x="1691.5" y="36"/><text fill="#000000" font-family="sans-serif" font-size="14" font-style="italic" lengthAdjust="spacing" textLength="84" x="1709.5" y="58.1074">&#171;application&#187;</text><text fill="#000000" font-family="sans-serif" font-size="14" lengthAdjust="spacing" textLength="106" x="1698.5" y="76.7285">:ProfileController</text><rect fill="#E2E2F0" height="51.2422" rx="2.5" ry="2.5" style="stroke:#181818;stroke-width:0.5;" width="120" x="1691.5" y="1568.8457"/><text fill="#000000" font-family="sans-serif" font-size="14" font-style="italic" lengthAdjust="spacing" textLength="84" x="1709.5" y="1590.9531">&#171;application&#187;</text><text fill="#000000" font-family="sans-serif" font-size="14" lengthAdjust="spacing" textLength="106" x="1698.5" y="1609.5742">:ProfileController</text><rect fill="#E2E2F0" height="51.2422" rx="2.5" ry="2.5" style="stroke:#181818;stroke-width:0.5;" width="190" x="1821.5" y="36"/><text fill="#000000" font-family="sans-serif" font-size="14" font-style="italic" lengthAdjust="spacing" textLength="84" x="1874.5" y="58.1074">&#171;application&#187;</text><text fill="#000000" font-family="sans-serif" font-size="14" lengthAdjust="spacing" textLength="176" x="1828.5" y="76.7285">:StudentRegistrationService</text><rect fill="#E2E2F0" height="51.2422" rx="2.5" ry="2.5" style="stroke:#181818;stroke-width:0.5;" width="190" x="1821.5" y="1568.8457"/><text fill="#000000" font-family="sans-serif" font-size="14" font-style="italic" lengthAdjust="spacing" textLength="84" x="1874.5" y="1590.9531">&#171;application&#187;</text><text fill="#000000" font-family="sans-serif" font-size="14" lengthAdjust="spacing" textLength="176" x="1828.5" y="1609.5742">:StudentRegistrationService</text><rect fill="#E2E2F0" height="51.2422" rx="2.5" ry="2.5" style="stroke:#181818;stroke-width:0.5;" width="111" x="2021.5" y="36"/><text fill="#000000" font-family="sans-serif" font-size="14" font-style="italic" lengthAdjust="spacing" textLength="84" x="2035" y="58.1074">&#171;application&#187;</text><text fill="#000000" font-family="sans-serif" font-size="14" lengthAdjust="spacing" textLength="97" x="2028.5" y="76.7285">:CourseService</text><rect fill="#E2E2F0" height="51.2422" rx="2.5" ry="2.5" style="stroke:#181818;stroke-width:0.5;" width="111" x="2021.5" y="1568.8457"/><text fill="#000000" font-family="sans-serif" font-size="14" font-style="italic" lengthAdjust="spacing" textLength="84" x="2035" y="1590.9531">&#171;application&#187;</text><text fill="#000000" font-family="sans-serif" font-size="14" lengthAdjust="spacing" textLength="97" x="2028.5" y="1609.5742">:CourseService</text><rect fill="#E2E2F0" height="51.2422" rx="2.5" ry="2.5" style="stroke:#181818;stroke-width:0.5;" width="105" x="2142.5" y="36"/><text fill="#000000" font-family="sans-serif" font-size="14" font-style="italic" lengthAdjust="spacing" textLength="84" x="2153" y="58.1074">&#171;application&#187;</text><text fill="#000000" font-family="sans-serif" font-size="14" lengthAdjust="spacing" textLength="91" x="2149.5" y="76.7285">:ProfileService</text><rect fill="#E2E2F0" height="51.2422" rx="2.5" ry="2.5" style="stroke:#181818;stroke-width:0.5;" width="105" x="2142.5" y="1568.8457"/><text fill="#000000" font-family="sans-serif" font-size="14" font-style="italic" lengthAdjust="spacing" textLength="84" x="2153" y="1590.9531">&#171;application&#187;</text><text fill="#000000" font-family="sans-serif" font-size="14" lengthAdjust="spacing" textLength="91" x="2149.5" y="1609.5742">:ProfileService</text><rect fill="#E2E2F0" height="51.2422" rx="2.5" ry="2.5" style="stroke:#181818;stroke-width:0.5;" width="139" x="2257.5" y="36"/><text fill="#000000" font-family="sans-serif" font-size="14" font-style="italic" lengthAdjust="spacing" textLength="62" x="2296" y="58.1074">&#171;domain&#187;</text><text fill="#000000" font-family="sans-serif" font-size="14" lengthAdjust="spacing" textLength="125" x="2264.5" y="76.7285">StudentRegistration</text><rect fill="#E2E2F0" height="51.2422" rx="2.5" ry="2.5" style="stroke:#181818;stroke-width:0.5;" width="139" x="2257.5" y="1568.8457"/><text fill="#000000" font-family="sans-serif" font-size="14" font-style="italic" lengthAdjust="spacing" textLength="62" x="2296" y="1590.9531">&#171;domain&#187;</text><text fill="#000000" font-family="sans-serif" font-size="14" lengthAdjust="spacing" textLength="125" x="2264.5" y="1609.5742">StudentRegistration</text><text fill="#000000" font-family="sans-serif" font-size="14" font-style="italic" lengthAdjust="spacing" textLength="79" x="2465.5" y="66.1074">&#171;repository&#187;</text><text fill="#000000" font-family="sans-serif" font-size="14" lengthAdjust="spacing" textLength="197" x="2406.5" y="84.7285">:StudentRegistrationRepository</text><path d="M2490,15 C2490,5 2508,5 2508,5 C2508,5 2526,5 2526,15 L2526,41 C2526,51 2508,51 2508,51 C2508,51 2490,51 2490,41 L2490,15 " fill="#E2E2F0" style="stroke:#181818;stroke-width:1.5;"/><path d="M2490,15 C2490,25 2508,25 2508,25 C2508,25 2526,25 2526,15 " fill="none" style="stroke:#181818;stroke-width:1.5;"/><text fill="#000000" font-family="sans-serif" font-size="14" font-style="italic" lengthAdjust="spacing" textLength="79" x="2465.5" y="1583.9531">&#171;repository&#187;</text><text fill="#000000" font-family="sans-serif" font-size="14" lengthAdjust="spacing" textLength="197" x="2406.5" y="1602.5742">:StudentRegistrationRepository</text><path d="M2490,1616.0879 C2490,1606.0879 2508,1606.0879 2508,1606.0879 C2508,1606.0879 2526,1606.0879 2526,1616.0879 L2526,1642.0879 C2526,1652.0879 2508,1652.0879 2508,1652.0879 C2508,1652.0879 2490,1652.0879 2490,1642.0879 L2490,1616.0879 " fill="#E2E2F0" style="stroke:#181818;stroke-width:1.5;"/><path d="M2490,1616.0879 C2490,1626.0879 2508,1626.0879 2508,1626.0879 C2508,1626.0879 2526,1626.0879 2526,1616.0879 " fill="none" style="stroke:#181818;stroke-width:1.5;"/><text fill="#000000" font-family="sans-serif" font-size="14" font-style="italic" lengthAdjust="spacing" textLength="79" x="2639" y="66.1074">&#171;repository&#187;</text><text fill="#000000" font-family="sans-serif" font-size="14" lengthAdjust="spacing" textLength="118" x="2619.5" y="84.7285">:CourseRepository</text><path d="M2663.5,15 C2663.5,5 2681.5,5 2681.5,5 C2681.5,5 2699.5,5 2699.5,15 L2699.5,41 C2699.5,51 2681.5,51 2681.5,51 C2681.5,51 2663.5,51 2663.5,41 L2663.5,15 " fill="#E2E2F0" style="stroke:#181818;stroke-width:1.5;"/><path d="M2663.5,15 C2663.5,25 2681.5,25 2681.5,25 C2681.5,25 2699.5,25 2699.5,15 " fill="none" style="stroke:#181818;stroke-width:1.5;"/><text fill="#000000" font-family="sans-serif" font-size="14" font-style="italic" lengthAdjust="spacing" textLength="79" x="2639" y="1583.9531">&#171;repository&#187;</text><text fill="#000000" font-family="sans-serif" font-size="14" lengthAdjust="spacing" textLength="118" x="2619.5" y="1602.5742">:CourseRepository</text><path d="M2663.5,1616.0879 C2663.5,1606.0879 2681.5,1606.0879 2681.5,1606.0879 C2681.5,1606.0879 2699.5,1606.0879 2699.5,1616.0879 L2699.5,1642.0879 C2699.5,1652.0879 2681.5,1652.0879 2681.5,1652.0879 C2681.5,1652.0879 2663.5,1652.0879 2663.5,1642.0879 L2663.5,1616.0879 " fill="#E2E2F0" style="stroke:#181818;stroke-width:1.5;"/><path d="M2663.5,1616.0879 C2663.5,1626.0879 2681.5,1626.0879 2681.5,1626.0879 C2681.5,1626.0879 2699.5,1626.0879 2699.5,1616.0879 " fill="none" style="stroke:#181818;stroke-width:1.5;"/><text fill="#000000" font-family="sans-serif" font-size="14" font-style="italic" lengthAdjust="spacing" textLength="79" x="2770" y="66.1074">&#171;repository&#187;</text><text fill="#000000" font-family="sans-serif" font-size="14" lengthAdjust="spacing" textLength="112" x="2753.5" y="84.7285">:ProfileRepository</text><path d="M2794.5,15 C2794.5,5 2812.5,5 2812.5,5 C2812.5,5 2830.5,5 2830.5,15 L2830.5,41 C2830.5,51 2812.5,51 2812.5,51 C2812.5,51 2794.5,51 2794.5,41 L2794.5,15 " fill="#E2E2F0" style="stroke:#181818;stroke-width:1.5;"/><path d="M2794.5,15 C2794.5,25 2812.5,25 2812.5,25 C2812.5,25 2830.5,25 2830.5,15 " fill="none" style="stroke:#181818;stroke-width:1.5;"/><text fill="#000000" font-family="sans-serif" font-size="14" font-style="italic" lengthAdjust="spacing" textLength="79" x="2770" y="1583.9531">&#171;repository&#187;</text><text fill="#000000" font-family="sans-serif" font-size="14" lengthAdjust="spacing" textLength="112" x="2753.5" y="1602.5742">:ProfileRepository</text><path d="M2794.5,1616.0879 C2794.5,1606.0879 2812.5,1606.0879 2812.5,1606.0879 C2812.5,1606.0879 2830.5,1606.0879 2830.5,1616.0879 L2830.5,1642.0879 C2830.5,1652.0879 2812.5,1652.0879 2812.5,1652.0879 C2812.5,1652.0879 2794.5,1652.0879 2794.5,1642.0879 L2794.5,1616.0879 " fill="#E2E2F0" style="stroke:#181818;stroke-width:1.5;"/><path d="M2794.5,1616.0879 C2794.5,1626.0879 2812.5,1626.0879 2812.5,1626.0879 C2812.5,1626.0879 2830.5,1626.0879 2830.5,1616.0879 " fill="none" style="stroke:#181818;stroke-width:1.5;"/><rect fill="#FFFFFF" height="1453.6035" style="stroke:#181818;stroke-width:1.0;" width="10" x="31" y="98.2422"/><rect fill="#FFFFFF" height="62.582" style="stroke:#181818;stroke-width:1.0;" width="10" x="294" y="121.5332"/><rect fill="#FFFFFF" height="31.291" style="stroke:#181818;stroke-width:1.0;" width="10" x="434.5" y="152.8242"/><rect fill="#FFFFFF" height="31.291" style="stroke:#181818;stroke-width:1.0;" width="10" x="583" y="184.1152"/><rect fill="#FFFFFF" height="273.7461" style="stroke:#181818;stroke-width:1.0;" width="10" x="583" y="246.6973"/><rect fill="#FFFFFF" height="203.1641" style="stroke:#181818;stroke-width:1.0;" width="10" x="588" y="285.9883"/><rect fill="#FFFFFF" height="28" style="stroke:#181818;stroke-width:1.0;" width="10" x="593" y="330.2793"/><rect fill="#FFFFFF" height="1000.1113" style="stroke:#181818;stroke-width:1.0;" width="10" x="583" y="551.7344"/><rect fill="#FFFFFF" height="901.5293" style="stroke:#181818;stroke-width:1.0;" width="10" x="588" y="591.0254"/><rect fill="#FFFFFF" height="28" style="stroke:#181818;stroke-width:1.0;" width="10" x="593" y="801.7715"/><rect fill="#FFFFFF" height="28" style="stroke:#181818;stroke-width:1.0;" width="10" x="593" y="876.0625"/><rect fill="#FFFFFF" height="28" style="stroke:#181818;stroke-width:1.0;" width="10" x="593" y="950.3535"/><rect fill="#FFFFFF" height="127.582" style="stroke:#181818;stroke-width:1.0;" width="10" x="593" y="1024.6445"/><rect fill="#FFFFFF" height="92.582" style="stroke:#181818;stroke-width:1.0;" width="10" x="1282" y="396.5703"/><rect fill="#FFFFFF" height="30" style="stroke:#181818;stroke-width:1.0;" width="10" x="1282" y="627.3164"/><rect fill="#FFFFFF" height="61.291" style="stroke:#181818;stroke-width:1.0;" width="10" x="1282" y="1307.3906"/><rect fill="#FFFFFF" height="92.582" style="stroke:#181818;stroke-width:1.0;" width="10" x="1282" y="1399.9727"/><rect fill="#FFFFFF" height="30" style="stroke:#181818;stroke-width:1.0;" width="10" x="1461.5" y="1060.9355"/><rect fill="#FFFFFF" height="30" style="stroke:#181818;stroke-width:1.0;" width="10" x="1607.5" y="1122.2266"/><rect fill="#FFFFFF" height="92.582" style="stroke:#181818;stroke-width:1.0;" width="10" x="1746.5" y="1183.5176"/><rect fill="#FFFFFF" height="61.291" style="stroke:#181818;stroke-width:1.0;" width="10" x="1911.5" y="1431.2637"/><rect fill="#FFFFFF" height="61.291" style="stroke:#181818;stroke-width:1.0;" width="10" x="2072" y="427.8613"/><rect fill="#FFFFFF" height="61.291" style="stroke:#181818;stroke-width:1.0;" width="10" x="2190" y="1214.8086"/><rect fill="#FFFFFF" height="30" style="stroke:#181818;stroke-width:1.0;" width="10" x="2322" y="1338.6816"/><rect fill="#FFFFFF" height="30" style="stroke:#181818;stroke-width:1.0;" width="10" x="2503" y="1462.5547"/><rect fill="#FFFFFF" height="30" style="stroke:#181818;stroke-width:1.0;" width="10" x="2676.5" y="459.1523"/><rect fill="#FFFFFF" height="30" style="stroke:#181818;stroke-width:1.0;" width="10" x="2807.5" y="1246.0996"/><polygon fill="#181818" points="282,117.5332,292,121.5332,282,125.5332,286,121.5332" style="stroke:#181818;stroke-width:1.0;"/><line style="stroke:#181818;stroke-width:1.0;" x1="41" x2="288" y1="121.5332" y2="121.5332"/><text fill="#000000" font-family="sans-serif" font-size="13" font-weight="bold" lengthAdjust="spacing" textLength="7" x="48" y="116.2705">1</text><text fill="#000000" font-family="sans-serif" font-size="13" lengthAdjust="spacing" textLength="223" x="59" y="116.2705">Asks to enroll students using a csv file</text><polygon fill="#181818" points="422.5,148.8242,432.5,152.8242,422.5,156.8242,426.5,152.8242" style="stroke:#181818;stroke-width:1.0;"/><line style="stroke:#181818;stroke-width:1.0;" x1="304" x2="428.5" y1="152.8242" y2="152.8242"/><text fill="#000000" font-family="sans-serif" font-size="13" font-weight="bold" lengthAdjust="spacing" textLength="7" x="311" y="147.5615">2</text><text fill="#000000" font-family="sans-serif" font-size="13" lengthAdjust="spacing" textLength="54" x="322" y="147.5615">execute()</text><polygon fill="#181818" points="571,180.1152,581,184.1152,571,188.1152,575,184.1152" style="stroke:#181818;stroke-width:1.0;"/><line style="stroke:#181818;stroke-width:1.0;" x1="439.5" x2="577" y1="184.1152" y2="184.1152"/><text fill="#000000" font-family="sans-serif" font-size="13" font-weight="bold" lengthAdjust="spacing" textLength="7" x="446.5" y="178.8525">3</text><text fill="#000000" font-family="sans-serif" font-size="13" lengthAdjust="spacing" textLength="54" x="457.5" y="178.8525">doShow()</text><polygon fill="#181818" points="52,211.4063,42,215.4063,52,219.4063,48,215.4063" style="stroke:#181818;stroke-width:1.0;"/><line style="stroke:#181818;stroke-width:1.0;stroke-dasharray:2.0,2.0;" x1="46" x2="587" y1="215.4063" y2="215.4063"/><text fill="#000000" font-family="sans-serif" font-size="13" font-weight="bold" lengthAdjust="spacing" textLength="7" x="58" y="210.1436">4</text><text fill="#000000" font-family="sans-serif" font-size="13" lengthAdjust="spacing" textLength="287" x="69" y="210.1436">Asks for the path of the file with the students data</text><polygon fill="#181818" points="571,242.6973,581,246.6973,571,250.6973,575,246.6973" style="stroke:#181818;stroke-width:1.0;"/><line style="stroke:#181818;stroke-width:1.0;" x1="41" x2="577" y1="246.6973" y2="246.6973"/><text fill="#000000" font-family="sans-serif" font-size="13" font-weight="bold" lengthAdjust="spacing" textLength="7" x="48" y="241.4346">5</text><text fill="#000000" font-family="sans-serif" font-size="13" lengthAdjust="spacing" textLength="87" x="59" y="241.4346">Writes path file</text><line style="stroke:#181818;stroke-width:1.0;" x1="593" x2="640" y1="272.9883" y2="272.9883"/><line style="stroke:#181818;stroke-width:1.0;" x1="640" x2="640" y1="272.9883" y2="285.9883"/><line style="stroke:#181818;stroke-width:1.0;" x1="599" x2="640" y1="285.9883" y2="285.9883"/><polygon fill="#181818" points="609,281.9883,599,285.9883,609,289.9883,605,285.9883" style="stroke:#181818;stroke-width:1.0;"/><text fill="#000000" font-family="sans-serif" font-size="13" font-weight="bold" lengthAdjust="spacing" textLength="7" x="605" y="267.7256">6</text><text fill="#000000" font-family="sans-serif" font-size="13" lengthAdjust="spacing" textLength="108" x="616" y="267.7256">importFile(filePath)</text><line style="stroke:#181818;stroke-width:1.0;" x1="603" x2="645" y1="322.2793" y2="322.2793"/><line style="stroke:#181818;stroke-width:1.0;" x1="645" x2="645" y1="322.2793" y2="335.2793"/><line style="stroke:#181818;stroke-width:1.0;" x1="604" x2="645" y1="335.2793" y2="335.2793"/><polygon fill="#181818" points="614,331.2793,604,335.2793,614,339.2793,610,335.2793" style="stroke:#181818;stroke-width:1.0;"/><text fill="#000000" font-family="sans-serif" font-size="13" font-weight="bold" lengthAdjust="spacing" textLength="7" x="610" y="317.0166">7</text><text fill="#000000" font-family="sans-serif" font-size="13" lengthAdjust="spacing" textLength="152" x="621" y="317.0166">status = Status.PENDING</text><polygon fill="#181818" points="1270,392.5703,1280,396.5703,1270,400.5703,1274,396.5703" style="stroke:#181818;stroke-width:1.0;"/><line style="stroke:#181818;stroke-width:1.0;" x1="598" x2="1276" y1="396.5703" y2="396.5703"/><text fill="#000000" font-family="sans-serif" font-size="13" font-weight="bold" lengthAdjust="spacing" textLength="7" x="605" y="391.3076">8</text><text fill="#000000" font-family="sans-serif" font-size="13" lengthAdjust="spacing" textLength="74" x="616" y="391.3076">getCourses()</text><polygon fill="#181818" points="2060,423.8613,2070,427.8613,2060,431.8613,2064,427.8613" style="stroke:#181818;stroke-width:1.0;"/><line style="stroke:#181818;stroke-width:1.0;" x1="1292" x2="2066" y1="427.8613" y2="427.8613"/><text fill="#000000" font-family="sans-serif" font-size="13" font-weight="bold" lengthAdjust="spacing" textLength="7" x="1299" y="422.5986">9</text><text fill="#000000" font-family="sans-serif" font-size="13" lengthAdjust="spacing" textLength="74" x="1310" y="422.5986">getCourses()</text><polygon fill="#181818" points="2664.5,455.1523,2674.5,459.1523,2664.5,463.1523,2668.5,459.1523" style="stroke:#181818;stroke-width:1.0;"/><line style="stroke:#181818;stroke-width:1.0;" x1="2082" x2="2670.5" y1="459.1523" y2="459.1523"/><text fill="#000000" font-family="sans-serif" font-size="13" font-weight="bold" lengthAdjust="spacing" textLength="14" x="2089" y="453.8896">10</text><text fill="#000000" font-family="sans-serif" font-size="13" lengthAdjust="spacing" textLength="89" x="2107" y="453.8896">getAllCourses()</text><polygon fill="#181818" points="52,516.4434,42,520.4434,52,524.4434,48,520.4434" style="stroke:#181818;stroke-width:1.0;"/><line style="stroke:#181818;stroke-width:1.0;" x1="46" x2="587" y1="520.4434" y2="520.4434"/><text fill="#000000" font-family="sans-serif" font-size="13" font-weight="bold" lengthAdjust="spacing" textLength="14" x="58" y="515.1807">11</text><text fill="#000000" font-family="sans-serif" font-size="13" lengthAdjust="spacing" textLength="264" x="76" y="515.1807">Shows all courses and request to choose one</text><polygon fill="#181818" points="571,547.7344,581,551.7344,571,555.7344,575,551.7344" style="stroke:#181818;stroke-width:1.0;"/><line style="stroke:#181818;stroke-width:1.0;" x1="41" x2="577" y1="551.7344" y2="551.7344"/><text fill="#000000" font-family="sans-serif" font-size="13" font-weight="bold" lengthAdjust="spacing" textLength="14" x="48" y="546.4717">12</text><text fill="#000000" font-family="sans-serif" font-size="13" lengthAdjust="spacing" textLength="94" x="66" y="546.4717">Chooses course</text><line style="stroke:#181818;stroke-width:1.0;" x1="593" x2="640" y1="578.0254" y2="578.0254"/><line style="stroke:#181818;stroke-width:1.0;" x1="640" x2="640" y1="578.0254" y2="591.0254"/><line style="stroke:#181818;stroke-width:1.0;" x1="599" x2="640" y1="591.0254" y2="591.0254"/><polygon fill="#181818" points="609,587.0254,599,591.0254,609,595.0254,605,591.0254" style="stroke:#181818;stroke-width:1.0;"/><text fill="#000000" font-family="sans-serif" font-size="13" font-weight="bold" lengthAdjust="spacing" textLength="14" x="605" y="572.7627">13</text><text fill="#000000" font-family="sans-serif" font-size="13" lengthAdjust="spacing" textLength="120" x="623" y="572.7627">course = get(course)</text><polygon fill="#181818" points="1270,623.3164,1280,627.3164,1270,631.3164,1274,627.3164" style="stroke:#181818;stroke-width:1.0;"/><line style="stroke:#181818;stroke-width:1.0;" x1="598" x2="1276" y1="627.3164" y2="627.3164"/><text fill="#000000" font-family="sans-serif" font-size="13" font-weight="bold" lengthAdjust="spacing" textLength="14" x="605" y="622.0537">14</text><text fill="#000000" font-family="sans-serif" font-size="13" lengthAdjust="spacing" textLength="647" x="623" y="622.0537">List&lt;StudentRegistration&gt; studentRegistrationsByCourse = controller.getStudentRegistrationsByCourse(course)</text><path d="M485.5,672.3164 L546.5,672.3164 L546.5,681.6074 L536.5,691.6074 L485.5,691.6074 L485.5,672.3164 " fill="#EEEEEE" style="stroke:#000000;stroke-width:1.5;"/><rect fill="none" height="849.2383" style="stroke:#000000;stroke-width:1.5;" width="2426" x="485.5" y="672.3164"/><text fill="#000000" font-family="sans-serif" font-size="13" font-weight="bold" lengthAdjust="spacing" textLength="16" x="500.5" y="687.3447">alt</text><text fill="#000000" font-family="sans-serif" font-size="11" font-weight="bold" lengthAdjust="spacing" textLength="211" x="561.5" y="686.1865">[course.getState().equals(State.OPEN)]</text><path d="M495.5,698.6074 L556.5,698.6074 L556.5,707.8984 L546.5,717.8984 L495.5,717.8984 L495.5,698.6074 " fill="#EEEEEE" style="stroke:#000000;stroke-width:1.5;"/><rect fill="none" height="815.9473" style="stroke:#000000;stroke-width:1.5;" width="2406" x="495.5" y="698.6074"/><text fill="#000000" font-family="sans-serif" font-size="13" font-weight="bold" lengthAdjust="spacing" textLength="16" x="510.5" y="713.6357">alt</text><text fill="#000000" font-family="sans-serif" font-size="11" font-weight="bold" lengthAdjust="spacing" textLength="353" x="571.5" y="712.4775">[(course.getEnrollmentsState().equals(EnrollmentsState.OPEN))]</text><path d="M505.5,724.8984 L566.5,724.8984 L566.5,734.1895 L556.5,744.1895 L505.5,744.1895 L505.5,724.8984 " fill="#EEEEEE" style="stroke:#000000;stroke-width:1.5;"/><rect fill="none" height="782.6563" style="stroke:#000000;stroke-width:1.5;" width="2386" x="505.5" y="724.8984"/><text fill="#000000" font-family="sans-serif" font-size="13" font-weight="bold" lengthAdjust="spacing" textLength="16" x="520.5" y="739.9268">alt</text><text fill="#000000" font-family="sans-serif" font-size="11" font-weight="bold" lengthAdjust="spacing" textLength="393" x="581.5" y="738.7686">[(!controller.hasRegentInCourse(course) &amp;&amp; role.equals(Role.REGENT))]</text><path d="M515.5,751.1895 L588.5,751.1895 L588.5,760.4805 L578.5,770.4805 L515.5,770.4805 L515.5,751.1895 " fill="#EEEEEE" style="stroke:#000000;stroke-width:1.5;"/><rect fill="none" height="749.3652" style="stroke:#000000;stroke-width:1.5;" width="2366" x="515.5" y="751.1895"/><text fill="#000000" font-family="sans-serif" font-size="13" font-weight="bold" lengthAdjust="spacing" textLength="28" x="530.5" y="766.2178">loop</text><text fill="#000000" font-family="sans-serif" font-size="11" font-weight="bold" lengthAdjust="spacing" textLength="190" x="603.5" y="765.0596">[while (fileScanner.hasNextLine())]</text><line style="stroke:#181818;stroke-width:1.0;" x1="603" x2="645" y1="793.7715" y2="793.7715"/><line style="stroke:#181818;stroke-width:1.0;" x1="645" x2="645" y1="793.7715" y2="806.7715"/><line style="stroke:#181818;stroke-width:1.0;" x1="604" x2="645" y1="806.7715" y2="806.7715"/><polygon fill="#181818" points="614,802.7715,604,806.7715,614,810.7715,610,806.7715" style="stroke:#181818;stroke-width:1.0;"/><text fill="#000000" font-family="sans-serif" font-size="13" font-weight="bold" lengthAdjust="spacing" textLength="14" x="610" y="788.5088">15</text><text fill="#000000" font-family="sans-serif" font-size="13" lengthAdjust="spacing" textLength="86" x="628" y="788.5088">Read File Data</text><line style="stroke:#181818;stroke-width:1.0;" x1="603" x2="645" y1="868.0625" y2="868.0625"/><line style="stroke:#181818;stroke-width:1.0;" x1="645" x2="645" y1="868.0625" y2="881.0625"/><line style="stroke:#181818;stroke-width:1.0;" x1="604" x2="645" y1="881.0625" y2="881.0625"/><polygon fill="#181818" points="614,877.0625,604,881.0625,614,885.0625,610,881.0625" style="stroke:#181818;stroke-width:1.0;"/><text fill="#000000" font-family="sans-serif" font-size="13" font-weight="bold" lengthAdjust="spacing" textLength="14" x="610" y="862.7998">16</text><text fill="#000000" font-family="sans-serif" font-size="13" lengthAdjust="spacing" textLength="238" x="628" y="862.7998">final Set&lt;Role&gt; roles = new HashSet&lt;&gt;()</text><line style="stroke:#181818;stroke-width:1.0;" x1="603" x2="645" y1="942.3535" y2="942.3535"/><line style="stroke:#181818;stroke-width:1.0;" x1="645" x2="645" y1="942.3535" y2="955.3535"/><line style="stroke:#181818;stroke-width:1.0;" x1="604" x2="645" y1="955.3535" y2="955.3535"/><polygon fill="#181818" points="614,951.3535,604,955.3535,614,959.3535,610,955.3535" style="stroke:#181818;stroke-width:1.0;"/><text fill="#000000" font-family="sans-serif" font-size="13" font-weight="bold" lengthAdjust="spacing" textLength="14" x="610" y="937.0908">17</text><text fill="#000000" font-family="sans-serif" font-size="13" lengthAdjust="spacing" textLength="187" x="628" y="937.0908">roles.add(BaseRoles.STUDENT)</text><line style="stroke:#181818;stroke-width:1.0;" x1="598" x2="645" y1="1011.6445" y2="1011.6445"/><line style="stroke:#181818;stroke-width:1.0;" x1="645" x2="645" y1="1011.6445" y2="1024.6445"/><line style="stroke:#181818;stroke-width:1.0;" x1="604" x2="645" y1="1024.6445" y2="1024.6445"/><polygon fill="#181818" points="614,1020.6445,604,1024.6445,614,1028.6445,610,1024.6445" style="stroke:#181818;stroke-width:1.0;"/><text fill="#000000" font-family="sans-serif" font-size="13" font-weight="bold" lengthAdjust="spacing" textLength="14" x="610" y="1006.3818">18</text><text fill="#000000" font-family="sans-serif" font-size="13" lengthAdjust="spacing" textLength="516" x="628" y="1006.3818">SystemUser user = registerUser(username, password, firstName, lastName, email, roles)</text><polygon fill="#181818" points="1449.5,1056.9355,1459.5,1060.9355,1449.5,1064.9355,1453.5,1060.9355" style="stroke:#181818;stroke-width:1.0;"/><line style="stroke:#181818;stroke-width:1.0;" x1="603" x2="1455.5" y1="1060.9355" y2="1060.9355"/><text fill="#000000" font-family="sans-serif" font-size="13" font-weight="bold" lengthAdjust="spacing" textLength="14" x="610" y="1055.6729">19</text><text fill="#000000" font-family="sans-serif" font-size="13" lengthAdjust="spacing" textLength="477" x="628" y="1055.6729">u = theController.addUser(username, password, firstName, lastName, email, roles)</text><polygon fill="#181818" points="1595.5,1118.2266,1605.5,1122.2266,1595.5,1126.2266,1599.5,1122.2266" style="stroke:#181818;stroke-width:1.0;"/><line style="stroke:#181818;stroke-width:1.0;" x1="603" x2="1601.5" y1="1122.2266" y2="1122.2266"/><text fill="#000000" font-family="sans-serif" font-size="13" font-weight="bold" lengthAdjust="spacing" textLength="14" x="610" y="1116.9639">20</text><text fill="#000000" font-family="sans-serif" font-size="13" lengthAdjust="spacing" textLength="442" x="628" y="1116.9639">u = listUserController.find(Username.valueOf(username)).orElseThrow(() -&gt; e)</text><polygon fill="#181818" points="1734.5,1179.5176,1744.5,1183.5176,1734.5,1187.5176,1738.5,1183.5176" style="stroke:#181818;stroke-width:1.0;"/><line style="stroke:#181818;stroke-width:1.0;" x1="598" x2="1740.5" y1="1183.5176" y2="1183.5176"/><text fill="#000000" font-family="sans-serif" font-size="13" font-weight="bold" lengthAdjust="spacing" textLength="14" x="605" y="1178.2549">21</text><text fill="#000000" font-family="sans-serif" font-size="13" lengthAdjust="spacing" textLength="814" x="623" y="1178.2549">StudentProfile profile = (StudentProfile) profileController.createStudentProfile(user,null, taxPayerNumber, dateOfBirth, mecanographicNumber)</text><polygon fill="#181818" points="2178,1210.8086,2188,1214.8086,2178,1218.8086,2182,1214.8086" style="stroke:#181818;stroke-width:1.0;"/><line style="stroke:#181818;stroke-width:1.0;" x1="1756.5" x2="2184" y1="1214.8086" y2="1214.8086"/><text fill="#000000" font-family="sans-serif" font-size="13" font-weight="bold" lengthAdjust="spacing" textLength="14" x="1763.5" y="1209.5459">22</text><text fill="#000000" font-family="sans-serif" font-size="13" lengthAdjust="spacing" textLength="204" x="1781.5" y="1209.5459">profileService.addNewProfile(profile)</text><polygon fill="#181818" points="2795.5,1242.0996,2805.5,1246.0996,2795.5,1250.0996,2799.5,1246.0996" style="stroke:#181818;stroke-width:1.0;"/><line style="stroke:#181818;stroke-width:1.0;" x1="2200" x2="2801.5" y1="1246.0996" y2="1246.0996"/><text fill="#000000" font-family="sans-serif" font-size="13" font-weight="bold" lengthAdjust="spacing" textLength="14" x="2207" y="1240.8369">23</text><text fill="#000000" font-family="sans-serif" font-size="13" lengthAdjust="spacing" textLength="129" x="2225" y="1240.8369">repository.save(profile)</text><polygon fill="#181818" points="1270,1303.3906,1280,1307.3906,1270,1311.3906,1274,1307.3906" style="stroke:#181818;stroke-width:1.0;"/><line style="stroke:#181818;stroke-width:1.0;" x1="598" x2="1276" y1="1307.3906" y2="1307.3906"/><text fill="#000000" font-family="sans-serif" font-size="13" font-weight="bold" lengthAdjust="spacing" textLength="14" x="605" y="1302.1279">24</text><text fill="#000000" font-family="sans-serif" font-size="13" lengthAdjust="spacing" textLength="478" x="623" y="1302.1279">newStudentRegistration = controller.addStudentRegistration(profile, status, course)</text><polygon fill="#181818" points="2310,1334.6816,2320,1338.6816,2310,1342.6816,2314,1338.6816" style="stroke:#181818;stroke-width:1.0;"/><line style="stroke:#181818;stroke-width:1.0;" x1="1292" x2="2316" y1="1338.6816" y2="1338.6816"/><text fill="#000000" font-family="sans-serif" font-size="13" font-weight="bold" lengthAdjust="spacing" textLength="14" x="1299" y="1333.4189">25</text><text fill="#000000" font-family="sans-serif" font-size="13" lengthAdjust="spacing" textLength="341" x="1317" y="1333.4189">StudentRegistration.from(null,studentProfile,status, course)</text><polygon fill="#181818" points="1270,1395.9727,1280,1399.9727,1270,1403.9727,1274,1399.9727" style="stroke:#181818;stroke-width:1.0;"/><line style="stroke:#181818;stroke-width:1.0;" x1="598" x2="1276" y1="1399.9727" y2="1399.9727"/><text fill="#000000" font-family="sans-serif" font-size="13" font-weight="bold" lengthAdjust="spacing" textLength="14" x="605" y="1394.71">26</text><text fill="#000000" font-family="sans-serif" font-size="13" lengthAdjust="spacing" textLength="342" x="623" y="1394.71">controller.saveStudentRegistration(newStudentRegistration)</text><polygon fill="#181818" points="1899.5,1427.2637,1909.5,1431.2637,1899.5,1435.2637,1903.5,1431.2637" style="stroke:#181818;stroke-width:1.0;"/><line style="stroke:#181818;stroke-width:1.0;" x1="1292" x2="1905.5" y1="1431.2637" y2="1431.2637"/><text fill="#000000" font-family="sans-serif" font-size="13" font-weight="bold" lengthAdjust="spacing" textLength="14" x="1299" y="1426.001">27</text><text fill="#000000" font-family="sans-serif" font-size="13" lengthAdjust="spacing" textLength="324" x="1317" y="1426.001">service.addNewStudentRegistration(studentRegistration)</text><polygon fill="#181818" points="2491,1458.5547,2501,1462.5547,2491,1466.5547,2495,1462.5547" style="stroke:#181818;stroke-width:1.0;"/><line style="stroke:#181818;stroke-width:1.0;" x1="1921.5" x2="2497" y1="1462.5547" y2="1462.5547"/><text fill="#000000" font-family="sans-serif" font-size="13" font-weight="bold" lengthAdjust="spacing" textLength="14" x="1928.5" y="1457.292">28</text><text fill="#000000" font-family="sans-serif" font-size="13" lengthAdjust="spacing" textLength="207" x="1946.5" y="1457.292">repository.save(studentRegistration)</text><polygon fill="#181818" points="47,1547.8457,37,1551.8457,47,1555.8457,43,1551.8457" style="stroke:#181818;stroke-width:1.0;"/><line style="stroke:#181818;stroke-width:1.0;stroke-dasharray:2.0,2.0;" x1="41" x2="587" y1="1551.8457" y2="1551.8457"/><text fill="#000000" font-family="sans-serif" font-size="13" font-weight="bold" lengthAdjust="spacing" textLength="14" x="53" y="1546.583">29</text><text fill="#000000" font-family="sans-serif" font-size="13" lengthAdjust="spacing" textLength="152" x="71" y="1546.583">informs operation success</text><!--SRC=[pLZRRkCs47tNLx1vsCg0exmBYO5StAs1hJUmO-mpLnfRH2LH9Qau-ViEASgwM3SdBR064bFapE6SkP7oxv5IcVHlRhAOfYfFOY_WoOs4Vt980xWE6Jq8cZWEpHLFy-Gd21m7YWkIq9GUG10goTLVnVZASJ8g50jOXc3aojz947Atkj92EIEtjva02QcYYl5qiMX9hvAC2xLLUOWYyZxGGaQLcY6gqooBMJ15ssuguC2a4aPZjnepm2flQagFF5M2np6IqtZ1wN74climrEHxrUtw2CetjCFui1T7Iuo0F0k-Pp7qGjZr4PGEtsn1lB8039minYCWZpmN4ZhqYeLfH3hK9r7eO51WdCyZKCWJoZH6I1NzIT6uJXzi8EEIOJsystmh7n6YUcZ256HxDK- -wDEtR7i1Acyq47JTibUge2nTnobh-7gXozCdz_9lIHGdaEhKA3s3jIjPUY2K1FALQEWAAcSEQgA-hL6Vm1i4kG9tLWaLQuuLGU5MMVeavDk87r4dXBPMRGOtEusR44uByHetASbPMdliMIe2ab4L4RutO-Ec8yC9_NIYgtrTtxUrLyrhPqH-2AP05fiqFJLYS0SMCntj3qHnDTGpOiu-WIUnw-MIt96j6NZFo_NJQlsr5x7V0UTxrVgYJmwWYXoMzIIeH9oQDEesMq2VUaFAQUeOigtoCJZtSTm1rPPjCkrVQvfGMwXHkyHfLOBgvCTZ3aikACmbD0qH04zXREzOa474EPBYANmmBnyDWBJudydA0W7J2Fth5W-NP6KZK_JfTTlHLHTTJLa-bB6zgw5uQCPsGFZSnEverMPfh2pB0fpgRkPXC6WiNVFeVSVYcJa4FrhOhQINfdCckesq5Dih1KO1SWBwhKOieX8PeVmgRL8XNxuGb84IUQF7c-NNvVgbXgS_CUSPEKQwovaMiWrecXRGQtXJtrYA1ZPLz6T25co0XaIt9lAacsKReIyVsdBzoVm1c_OifJ7PWhhL7baO7-b-byAH_4bbf5SMxkpNCDOOvz4mT1_mLD-Of-tBxaa7yTUmSFik5IJcbfhhVtTM18IUS_LSIXEOus4dvP6BS8uH45AjpMHCon7WHIgU5uG_JcseavINQP_aQ2KUvTLTLtluVp7tRFUXO8mB3z4pT_o2MsnV26e4CUj3TsVPUQyqpk7x_aHtDlEuMCOINYA15ontfg5X4Y-zxJHIOvAV26rvb_K9iLs-dCdiznrncokpSgdcf4006jAKCpwQftcCqLRqxPc-WrYRLzovlW6Y5n-OKD6S981ja-DxS1Qne92Ov42xpvdeERlg5bJnpHflEpgFrt0iJRUB0sOqySxaMjirRb2L3TMS9-dhb6tFK8RpuWBX4KATYTadF78jqIT6nvsYUU_0W7J8b2wQa-AwFIVb_MD2mWnaYacH3fDyqc64jnSySKrcoqRApoSRrR7NO70k4n-WF1AQMW1qHdP5e3ju_qa0x8ySVZcoLTbbXRp818lNLwRD-kmepCjsgxIdLUU4ilnWjAST4e0lG_egwzGcdF9R_ms__hCKt_qJINW6jcfa7WGWvS2xL6tbz6l9lm00]--></g></svg>