<?xml version="1.0" encoding="us-ascii" standalone="no"?><svg xmlns="http://www.w3.org/2000/svg" xmlns:xlink="http://www.w3.org/1999/xlink" contentStyleType="text/css" height="646px" preserveAspectRatio="none" style="width:1627px;height:646px;background:#FFFFFF;" version="1.1" viewBox="0 0 1627 646" width="1627px" zoomAndPan="magnify"><defs/><g><rect fill="#FFFFFF" height="439.4922" style="stroke:#181818;stroke-width:1.0;" width="10" x="42.5" y="98.2422"/><rect fill="#FFFFFF" height="62.582" style="stroke:#181818;stroke-width:1.0;" width="10" x="213.5" y="121.5332"/><rect fill="#FFFFFF" height="31.291" style="stroke:#181818;stroke-width:1.0;" width="10" x="341" y="152.8242"/><rect fill="#FFFFFF" height="353.6191" style="stroke:#181818;stroke-width:1.0;" width="10" x="468.5" y="184.1152"/><rect fill="#FFFFFF" height="92.582" style="stroke:#181818;stroke-width:1.0;" width="10" x="604.5" y="339.2793"/><rect fill="#FFFFFF" height="92.582" style="stroke:#181818;stroke-width:1.0;" width="10" x="1075.5" y="215.4063"/><rect fill="#FFFFFF" height="61.291" style="stroke:#181818;stroke-width:1.0;" width="10" x="1198" y="370.5703"/><rect fill="#FFFFFF" height="61.291" style="stroke:#181818;stroke-width:1.0;" width="10" x="1313" y="246.6973"/><rect fill="#FFFFFF" height="30" style="stroke:#181818;stroke-width:1.0;" width="10" x="1434.5" y="401.8613"/><rect fill="#FFFFFF" height="30" style="stroke:#181818;stroke-width:1.0;" width="10" x="1562.5" y="277.9883"/><rect fill="none" height="83.873" style="stroke:#000000;stroke-width:1.5;" width="538" x="10" y="446.8613"/><rect fill="none" height="50.582" style="stroke:#000000;stroke-width:1.5;" width="518" x="20" y="473.1523"/><line style="stroke:#181818;stroke-width:0.5;stroke-dasharray:5.0,5.0;" x1="47" x2="47" y1="88.2422" y2="547.7344"/><line style="stroke:#181818;stroke-width:0.5;stroke-dasharray:5.0,5.0;" x1="218" x2="218" y1="88.2422" y2="547.7344"/><line style="stroke:#181818;stroke-width:0.5;stroke-dasharray:5.0,5.0;" x1="346" x2="346" y1="88.2422" y2="547.7344"/><line style="stroke:#181818;stroke-width:0.5;stroke-dasharray:5.0,5.0;" x1="473" x2="473" y1="88.2422" y2="547.7344"/><line style="stroke:#181818;stroke-width:0.5;stroke-dasharray:5.0,5.0;" x1="609" x2="609" y1="88.2422" y2="547.7344"/><line style="stroke:#181818;stroke-width:0.5;stroke-dasharray:5.0,5.0;" x1="1080.5" x2="1080.5" y1="88.2422" y2="547.7344"/><line style="stroke:#181818;stroke-width:0.5;stroke-dasharray:5.0,5.0;" x1="1202.5" x2="1202.5" y1="88.2422" y2="547.7344"/><line style="stroke:#181818;stroke-width:0.5;stroke-dasharray:5.0,5.0;" x1="1317.5" x2="1317.5" y1="88.2422" y2="547.7344"/><line style="stroke:#181818;stroke-width:0.5;stroke-dasharray:5.0,5.0;" x1="1439.5" x2="1439.5" y1="88.2422" y2="547.7344"/><line style="stroke:#181818;stroke-width:0.5;stroke-dasharray:5.0,5.0;" x1="1567.5" x2="1567.5" y1="88.2422" y2="547.7344"/><text fill="#000000" font-family="sans-serif" font-size="14" lengthAdjust="spacing" textLength="29" x="30" y="84.7285">User</text><ellipse cx="47.5" cy="18.1211" fill="#E2E2F0" rx="8" ry="8" style="stroke:#181818;stroke-width:0.5;"/><path d="M47.5,26.1211 L47.5,53.1211 M34.5,34.1211 L60.5,34.1211 M47.5,53.1211 L34.5,68.1211 M47.5,53.1211 L60.5,68.1211 " fill="none" style="stroke:#181818;stroke-width:0.5;"/><text fill="#000000" font-family="sans-serif" font-size="14" lengthAdjust="spacing" textLength="29" x="30" y="561.8418">User</text><ellipse cx="47.5" cy="573.8555" fill="#E2E2F0" rx="8" ry="8" style="stroke:#181818;stroke-width:0.5;"/><path d="M47.5,581.8555 L47.5,608.8555 M34.5,589.8555 L60.5,589.8555 M47.5,608.8555 L34.5,623.8555 M47.5,608.8555 L60.5,623.8555 " fill="none" style="stroke:#181818;stroke-width:0.5;"/><rect fill="#E2E2F0" height="51.2422" rx="2.5" ry="2.5" style="stroke:#181818;stroke-width:0.5;" width="109" x="164" y="36"/><text fill="#000000" font-family="sans-serif" font-size="14" font-style="italic" lengthAdjust="spacing" textLength="95" x="171" y="58.1074">&#171;presentation&#187;</text><text fill="#000000" font-family="sans-serif" font-size="14" lengthAdjust="spacing" textLength="52" x="192.5" y="76.7285">:UsersUI</text><rect fill="#E2E2F0" height="51.2422" rx="2.5" ry="2.5" style="stroke:#181818;stroke-width:0.5;" width="109" x="164" y="546.7344"/><text fill="#000000" font-family="sans-serif" font-size="14" font-style="italic" lengthAdjust="spacing" textLength="95" x="171" y="568.8418">&#171;presentation&#187;</text><text fill="#000000" font-family="sans-serif" font-size="14" lengthAdjust="spacing" textLength="52" x="192.5" y="587.4629">:UsersUI</text><rect fill="#E2E2F0" height="51.2422" rx="2.5" ry="2.5" style="stroke:#181818;stroke-width:0.5;" width="126" x="283" y="36"/><text fill="#000000" font-family="sans-serif" font-size="14" font-style="italic" lengthAdjust="spacing" textLength="84" x="304" y="58.1074">&#171;application&#187;</text><text fill="#000000" font-family="sans-serif" font-size="14" lengthAdjust="spacing" textLength="112" x="290" y="76.7285">:ListGradesAction</text><rect fill="#E2E2F0" height="51.2422" rx="2.5" ry="2.5" style="stroke:#181818;stroke-width:0.5;" width="126" x="283" y="546.7344"/><text fill="#000000" font-family="sans-serif" font-size="14" font-style="italic" lengthAdjust="spacing" textLength="84" x="304" y="568.8418">&#171;application&#187;</text><text fill="#000000" font-family="sans-serif" font-size="14" lengthAdjust="spacing" textLength="112" x="290" y="587.4629">:ListGradesAction</text><rect fill="#E2E2F0" height="51.2422" rx="2.5" ry="2.5" style="stroke:#181818;stroke-width:0.5;" width="109" x="419" y="36"/><text fill="#000000" font-family="sans-serif" font-size="14" font-style="italic" lengthAdjust="spacing" textLength="95" x="426" y="58.1074">&#171;presentation&#187;</text><text fill="#000000" font-family="sans-serif" font-size="14" lengthAdjust="spacing" textLength="85" x="431" y="76.7285">:ListGradesUI</text><rect fill="#E2E2F0" height="51.2422" rx="2.5" ry="2.5" style="stroke:#181818;stroke-width:0.5;" width="109" x="419" y="546.7344"/><text fill="#000000" font-family="sans-serif" font-size="14" font-style="italic" lengthAdjust="spacing" textLength="95" x="426" y="568.8418">&#171;presentation&#187;</text><text fill="#000000" font-family="sans-serif" font-size="14" lengthAdjust="spacing" textLength="85" x="431" y="587.4629">:ListGradesUI</text><rect fill="#E2E2F0" height="51.2422" rx="2.5" ry="2.5" style="stroke:#181818;stroke-width:0.5;" width="127" x="546" y="36"/><text fill="#000000" font-family="sans-serif" font-size="14" font-style="italic" lengthAdjust="spacing" textLength="84" x="567.5" y="58.1074">&#171;application&#187;</text><text fill="#000000" font-family="sans-serif" font-size="14" lengthAdjust="spacing" textLength="113" x="553" y="76.7285">:GradesController</text><rect fill="#E2E2F0" height="51.2422" rx="2.5" ry="2.5" style="stroke:#181818;stroke-width:0.5;" width="127" x="546" y="546.7344"/><text fill="#000000" font-family="sans-serif" font-size="14" font-style="italic" lengthAdjust="spacing" textLength="84" x="567.5" y="568.8418">&#171;application&#187;</text><text fill="#000000" font-family="sans-serif" font-size="14" lengthAdjust="spacing" textLength="113" x="553" y="587.4629">:GradesController</text><rect fill="#E2E2F0" height="51.2422" rx="2.5" ry="2.5" style="stroke:#181818;stroke-width:0.5;" width="120" x="1020.5" y="36"/><text fill="#000000" font-family="sans-serif" font-size="14" font-style="italic" lengthAdjust="spacing" textLength="84" x="1038.5" y="58.1074">&#171;application&#187;</text><text fill="#000000" font-family="sans-serif" font-size="14" lengthAdjust="spacing" textLength="106" x="1027.5" y="76.7285">:ProfileController</text><rect fill="#E2E2F0" height="51.2422" rx="2.5" ry="2.5" style="stroke:#181818;stroke-width:0.5;" width="120" x="1020.5" y="546.7344"/><text fill="#000000" font-family="sans-serif" font-size="14" font-style="italic" lengthAdjust="spacing" textLength="84" x="1038.5" y="568.8418">&#171;application&#187;</text><text fill="#000000" font-family="sans-serif" font-size="14" lengthAdjust="spacing" textLength="106" x="1027.5" y="587.4629">:ProfileController</text><rect fill="#E2E2F0" height="51.2422" rx="2.5" ry="2.5" style="stroke:#181818;stroke-width:0.5;" width="105" x="1150.5" y="36"/><text fill="#000000" font-family="sans-serif" font-size="14" font-style="italic" lengthAdjust="spacing" textLength="84" x="1161" y="58.1074">&#171;application&#187;</text><text fill="#000000" font-family="sans-serif" font-size="14" lengthAdjust="spacing" textLength="91" x="1157.5" y="76.7285">:GradeService</text><rect fill="#E2E2F0" height="51.2422" rx="2.5" ry="2.5" style="stroke:#181818;stroke-width:0.5;" width="105" x="1150.5" y="546.7344"/><text fill="#000000" font-family="sans-serif" font-size="14" font-style="italic" lengthAdjust="spacing" textLength="84" x="1161" y="568.8418">&#171;application&#187;</text><text fill="#000000" font-family="sans-serif" font-size="14" lengthAdjust="spacing" textLength="91" x="1157.5" y="587.4629">:GradeService</text><rect fill="#E2E2F0" height="51.2422" rx="2.5" ry="2.5" style="stroke:#181818;stroke-width:0.5;" width="105" x="1265.5" y="36"/><text fill="#000000" font-family="sans-serif" font-size="14" font-style="italic" lengthAdjust="spacing" textLength="84" x="1276" y="58.1074">&#171;application&#187;</text><text fill="#000000" font-family="sans-serif" font-size="14" lengthAdjust="spacing" textLength="91" x="1272.5" y="76.7285">:ProfileService</text><rect fill="#E2E2F0" height="51.2422" rx="2.5" ry="2.5" style="stroke:#181818;stroke-width:0.5;" width="105" x="1265.5" y="546.7344"/><text fill="#000000" font-family="sans-serif" font-size="14" font-style="italic" lengthAdjust="spacing" textLength="84" x="1276" y="568.8418">&#171;application&#187;</text><text fill="#000000" font-family="sans-serif" font-size="14" lengthAdjust="spacing" textLength="91" x="1272.5" y="587.4629">:ProfileService</text><text fill="#000000" font-family="sans-serif" font-size="14" font-style="italic" lengthAdjust="spacing" textLength="79" x="1397" y="66.1074">&#171;repository&#187;</text><text fill="#000000" font-family="sans-serif" font-size="14" lengthAdjust="spacing" textLength="112" x="1380.5" y="84.7285">:GradeRepository</text><path d="M1421.5,15 C1421.5,5 1439.5,5 1439.5,5 C1439.5,5 1457.5,5 1457.5,15 L1457.5,41 C1457.5,51 1439.5,51 1439.5,51 C1439.5,51 1421.5,51 1421.5,41 L1421.5,15 " fill="#E2E2F0" style="stroke:#181818;stroke-width:1.5;"/><path d="M1421.5,15 C1421.5,25 1439.5,25 1439.5,25 C1439.5,25 1457.5,25 1457.5,15 " fill="none" style="stroke:#181818;stroke-width:1.5;"/><text fill="#000000" font-family="sans-serif" font-size="14" font-style="italic" lengthAdjust="spacing" textLength="79" x="1397" y="561.8418">&#171;repository&#187;</text><text fill="#000000" font-family="sans-serif" font-size="14" lengthAdjust="spacing" textLength="112" x="1380.5" y="580.4629">:GradeRepository</text><path d="M1421.5,593.9766 C1421.5,583.9766 1439.5,583.9766 1439.5,583.9766 C1439.5,583.9766 1457.5,583.9766 1457.5,593.9766 L1457.5,619.9766 C1457.5,629.9766 1439.5,629.9766 1439.5,629.9766 C1439.5,629.9766 1421.5,629.9766 1421.5,619.9766 L1421.5,593.9766 " fill="#E2E2F0" style="stroke:#181818;stroke-width:1.5;"/><path d="M1421.5,593.9766 C1421.5,603.9766 1439.5,603.9766 1439.5,603.9766 C1439.5,603.9766 1457.5,603.9766 1457.5,593.9766 " fill="none" style="stroke:#181818;stroke-width:1.5;"/><text fill="#000000" font-family="sans-serif" font-size="14" font-style="italic" lengthAdjust="spacing" textLength="79" x="1525" y="66.1074">&#171;repository&#187;</text><text fill="#000000" font-family="sans-serif" font-size="14" lengthAdjust="spacing" textLength="112" x="1508.5" y="84.7285">:ProfileRepository</text><path d="M1549.5,15 C1549.5,5 1567.5,5 1567.5,5 C1567.5,5 1585.5,5 1585.5,15 L1585.5,41 C1585.5,51 1567.5,51 1567.5,51 C1567.5,51 1549.5,51 1549.5,41 L1549.5,15 " fill="#E2E2F0" style="stroke:#181818;stroke-width:1.5;"/><path d="M1549.5,15 C1549.5,25 1567.5,25 1567.5,25 C1567.5,25 1585.5,25 1585.5,15 " fill="none" style="stroke:#181818;stroke-width:1.5;"/><text fill="#000000" font-family="sans-serif" font-size="14" font-style="italic" lengthAdjust="spacing" textLength="79" x="1525" y="561.8418">&#171;repository&#187;</text><text fill="#000000" font-family="sans-serif" font-size="14" lengthAdjust="spacing" textLength="112" x="1508.5" y="580.4629">:ProfileRepository</text><path d="M1549.5,593.9766 C1549.5,583.9766 1567.5,583.9766 1567.5,583.9766 C1567.5,583.9766 1585.5,583.9766 1585.5,593.9766 L1585.5,619.9766 C1585.5,629.9766 1567.5,629.9766 1567.5,629.9766 C1567.5,629.9766 1549.5,629.9766 1549.5,619.9766 L1549.5,593.9766 " fill="#E2E2F0" style="stroke:#181818;stroke-width:1.5;"/><path d="M1549.5,593.9766 C1549.5,603.9766 1567.5,603.9766 1567.5,603.9766 C1567.5,603.9766 1585.5,603.9766 1585.5,593.9766 " fill="none" style="stroke:#181818;stroke-width:1.5;"/><rect fill="#FFFFFF" height="439.4922" style="stroke:#181818;stroke-width:1.0;" width="10" x="42.5" y="98.2422"/><rect fill="#FFFFFF" height="62.582" style="stroke:#181818;stroke-width:1.0;" width="10" x="213.5" y="121.5332"/><rect fill="#FFFFFF" height="31.291" style="stroke:#181818;stroke-width:1.0;" width="10" x="341" y="152.8242"/><rect fill="#FFFFFF" height="353.6191" style="stroke:#181818;stroke-width:1.0;" width="10" x="468.5" y="184.1152"/><rect fill="#FFFFFF" height="92.582" style="stroke:#181818;stroke-width:1.0;" width="10" x="604.5" y="339.2793"/><rect fill="#FFFFFF" height="92.582" style="stroke:#181818;stroke-width:1.0;" width="10" x="1075.5" y="215.4063"/><rect fill="#FFFFFF" height="61.291" style="stroke:#181818;stroke-width:1.0;" width="10" x="1198" y="370.5703"/><rect fill="#FFFFFF" height="61.291" style="stroke:#181818;stroke-width:1.0;" width="10" x="1313" y="246.6973"/><rect fill="#FFFFFF" height="30" style="stroke:#181818;stroke-width:1.0;" width="10" x="1434.5" y="401.8613"/><rect fill="#FFFFFF" height="30" style="stroke:#181818;stroke-width:1.0;" width="10" x="1562.5" y="277.9883"/><polygon fill="#181818" points="201.5,117.5332,211.5,121.5332,201.5,125.5332,205.5,121.5332" style="stroke:#181818;stroke-width:1.0;"/><line style="stroke:#181818;stroke-width:1.0;" x1="52.5" x2="207.5" y1="121.5332" y2="121.5332"/><text fill="#000000" font-family="sans-serif" font-size="13" font-weight="bold" lengthAdjust="spacing" textLength="7" x="59.5" y="116.2705">1</text><text fill="#000000" font-family="sans-serif" font-size="13" lengthAdjust="spacing" textLength="131" x="70.5" y="116.2705">Asks to list the grades</text><polygon fill="#181818" points="329,148.8242,339,152.8242,329,156.8242,333,152.8242" style="stroke:#181818;stroke-width:1.0;"/><line style="stroke:#181818;stroke-width:1.0;" x1="223.5" x2="335" y1="152.8242" y2="152.8242"/><text fill="#000000" font-family="sans-serif" font-size="13" font-weight="bold" lengthAdjust="spacing" textLength="7" x="230.5" y="147.5615">2</text><text fill="#000000" font-family="sans-serif" font-size="13" lengthAdjust="spacing" textLength="54" x="241.5" y="147.5615">execute()</text><polygon fill="#181818" points="456.5,180.1152,466.5,184.1152,456.5,188.1152,460.5,184.1152" style="stroke:#181818;stroke-width:1.0;"/><line style="stroke:#181818;stroke-width:1.0;" x1="346" x2="462.5" y1="184.1152" y2="184.1152"/><text fill="#000000" font-family="sans-serif" font-size="13" font-weight="bold" lengthAdjust="spacing" textLength="7" x="353" y="178.8525">3</text><text fill="#000000" font-family="sans-serif" font-size="13" lengthAdjust="spacing" textLength="54" x="364" y="178.8525">doShow()</text><polygon fill="#181818" points="1063.5,211.4063,1073.5,215.4063,1063.5,219.4063,1067.5,215.4063" style="stroke:#181818;stroke-width:1.0;"/><line style="stroke:#181818;stroke-width:1.0;" x1="478.5" x2="1069.5" y1="215.4063" y2="215.4063"/><text fill="#000000" font-family="sans-serif" font-size="13" font-weight="bold" lengthAdjust="spacing" textLength="7" x="485.5" y="210.1436">4</text><text fill="#000000" font-family="sans-serif" font-size="13" lengthAdjust="spacing" textLength="567" x="496.5" y="210.1436">currentUserProfile = (StudentProfile) getUserProfile(authz.session().get().authenticatedUser()).get()</text><polygon fill="#181818" points="1301,242.6973,1311,246.6973,1301,250.6973,1305,246.6973" style="stroke:#181818;stroke-width:1.0;"/><line style="stroke:#181818;stroke-width:1.0;" x1="1085.5" x2="1307" y1="246.6973" y2="246.6973"/><text fill="#000000" font-family="sans-serif" font-size="13" font-weight="bold" lengthAdjust="spacing" textLength="7" x="1092.5" y="241.4346">5</text><text fill="#000000" font-family="sans-serif" font-size="13" lengthAdjust="spacing" textLength="172" x="1103.5" y="241.4346">getProfileFromDatabase(user)</text><polygon fill="#181818" points="1550.5,273.9883,1560.5,277.9883,1550.5,281.9883,1554.5,277.9883" style="stroke:#181818;stroke-width:1.0;"/><line style="stroke:#181818;stroke-width:1.0;" x1="1323" x2="1556.5" y1="277.9883" y2="277.9883"/><text fill="#000000" font-family="sans-serif" font-size="13" font-weight="bold" lengthAdjust="spacing" textLength="7" x="1330" y="272.7256">6</text><text fill="#000000" font-family="sans-serif" font-size="13" lengthAdjust="spacing" textLength="132" x="1341" y="272.7256">findProfileByUser(user)</text><polygon fill="#181818" points="592.5,335.2793,602.5,339.2793,592.5,343.2793,596.5,339.2793" style="stroke:#181818;stroke-width:1.0;"/><line style="stroke:#181818;stroke-width:1.0;" x1="478.5" x2="598.5" y1="339.2793" y2="339.2793"/><text fill="#000000" font-family="sans-serif" font-size="13" font-weight="bold" lengthAdjust="spacing" textLength="7" x="485.5" y="334.0166">7</text><text fill="#000000" font-family="sans-serif" font-size="13" lengthAdjust="spacing" textLength="96" x="496.5" y="334.0166">grades = getAll()</text><polygon fill="#181818" points="1186,366.5703,1196,370.5703,1186,374.5703,1190,370.5703" style="stroke:#181818;stroke-width:1.0;"/><line style="stroke:#181818;stroke-width:1.0;" x1="614.5" x2="1192" y1="370.5703" y2="370.5703"/><text fill="#000000" font-family="sans-serif" font-size="13" font-weight="bold" lengthAdjust="spacing" textLength="7" x="621.5" y="365.3076">8</text><text fill="#000000" font-family="sans-serif" font-size="13" lengthAdjust="spacing" textLength="96" x="632.5" y="365.3076">grades = getAll()</text><polygon fill="#181818" points="1422.5,397.8613,1432.5,401.8613,1422.5,405.8613,1426.5,401.8613" style="stroke:#181818;stroke-width:1.0;"/><line style="stroke:#181818;stroke-width:1.0;" x1="1208" x2="1428.5" y1="401.8613" y2="401.8613"/><text fill="#000000" font-family="sans-serif" font-size="13" font-weight="bold" lengthAdjust="spacing" textLength="7" x="1215" y="396.5986">9</text><text fill="#000000" font-family="sans-serif" font-size="13" lengthAdjust="spacing" textLength="96" x="1226" y="396.5986">grades = getAll()</text><path d="M10,446.8613 L83,446.8613 L83,456.1523 L73,466.1523 L10,466.1523 L10,446.8613 " fill="#EEEEEE" style="stroke:#000000;stroke-width:1.5;"/><rect fill="none" height="83.873" style="stroke:#000000;stroke-width:1.5;" width="538" x="10" y="446.8613"/><text fill="#000000" font-family="sans-serif" font-size="13" font-weight="bold" lengthAdjust="spacing" textLength="28" x="25" y="461.8896">loop</text><text fill="#000000" font-family="sans-serif" font-size="11" font-weight="bold" lengthAdjust="spacing" textLength="151" x="98" y="460.7314">[for (Grade grade : grades)]</text><path d="M20,473.1523 L81,473.1523 L81,482.4434 L71,492.4434 L20,492.4434 L20,473.1523 " fill="#EEEEEE" style="stroke:#000000;stroke-width:1.5;"/><rect fill="none" height="50.582" style="stroke:#000000;stroke-width:1.5;" width="518" x="20" y="473.1523"/><text fill="#000000" font-family="sans-serif" font-size="13" font-weight="bold" lengthAdjust="spacing" textLength="16" x="35" y="488.1807">alt</text><text fill="#000000" font-family="sans-serif" font-size="11" font-weight="bold" lengthAdjust="spacing" textLength="241" x="96" y="487.0225">[(grade.getStudent() == currentUserProfile)]</text><polygon fill="#181818" points="63.5,511.7344,53.5,515.7344,63.5,519.7344,59.5,515.7344" style="stroke:#181818;stroke-width:1.0;"/><line style="stroke:#181818;stroke-width:1.0;stroke-dasharray:2.0,2.0;" x1="57.5" x2="467.5" y1="515.7344" y2="515.7344"/><text fill="#000000" font-family="sans-serif" font-size="13" font-weight="bold" lengthAdjust="spacing" textLength="14" x="69.5" y="510.4717">10</text><text fill="#000000" font-family="sans-serif" font-size="13" lengthAdjust="spacing" textLength="66" x="87.5" y="510.4717">show grade</text><!--SRC=[ZLJ9ZXen4BtxAomkqtqOkBS6939HHf5oY0RD1tZS1LXnjpjUPllwLBaDlGBX0AxoU_NAjN1tzBvnnMhLQ57xKEcbDDNAmTy0jOJxKec35HLZ8dXJX-eLB9wbDvO71vOBnnSlU5WmrWZhbLGDXk6BWfpkvUU2424e_l3GM71GU-6LgJUR4VoNSlx9YXBSLX8WyaGy8bKqZLRo5lEaTbEiXJ-QsbkZDIPFD7asRmZ-jcQlD5oaf_iRKM8EEx1lIa8CuDhp_udF42_9biABL-7WfFaCZN4A6_WPsVPi8hCpXiGK-oArqnv4e45HRy93d1N6uiJSR-8y57ph_ZZk3TVOGEwFm0-nBJrIK8oWo4YJK73u01ayP7a7Q-zOWb1uYbwQtT6y8ww4CRBd8OdEGBceDkrbmMMm5WUAnlhaNFDivqE9tkJ9-G7wY0oNvlYrTE0SwcRv4g_ncxn8eXP1IV0iJrTTBfCKs3Gfp7JK-u8IICOFQwhlgOKPLRuNVKXZeoWOTzhQWkzLNIRhssTCUnHrGkfN-khbA9_UpRGEunRHe-FWO3_mzLkjv-lOAs2lSjVP2NGgqB0orwaTRhuACy-VVpVJnZHyZt-uMTpVLlGidZEE7w4zpwA31YbDPPRpzNfcS5iAVQYMj30kbj7XmhHH8m3gak8o-gKS1dkZ1bRSxdy0]--></g></svg>