<?xml version="1.0" encoding="us-ascii" standalone="no"?><svg xmlns="http://www.w3.org/2000/svg" xmlns:xlink="http://www.w3.org/1999/xlink" contentStyleType="text/css" height="1010px" preserveAspectRatio="none" style="width:2120px;height:1010px;background:#FFFFFF;" version="1.1" viewBox="0 0 2120 1010" width="2120px" zoomAndPan="magnify"><defs/><g><rect fill="#FFFFFF" height="794.5293" style="stroke:#181818;stroke-width:1.0;" width="10" x="17.5" y="98.2422"/><rect fill="#FFFFFF" height="62.582" style="stroke:#181818;stroke-width:1.0;" width="10" x="367.5" y="121.5332"/><rect fill="#FFFFFF" height="31.291" style="stroke:#181818;stroke-width:1.0;" width="10" x="538.5" y="152.8242"/><rect fill="#FFFFFF" height="464.2012" style="stroke:#181818;stroke-width:1.0;" width="10" x="748" y="184.1152"/><rect fill="#FFFFFF" height="213.1641" style="stroke:#181818;stroke-width:1.0;" width="10" x="748" y="679.6074"/><rect fill="#FFFFFF" height="28" style="stroke:#181818;stroke-width:1.0;" width="10" x="753" y="718.8984"/><rect fill="#FFFFFF" height="28" style="stroke:#181818;stroke-width:1.0;" width="10" x="753" y="819.4805"/><rect fill="#FFFFFF" height="285.7461" style="stroke:#181818;stroke-width:1.0;" width="10" x="1209" y="339.2793"/><rect fill="#FFFFFF" height="97.582" style="stroke:#181818;stroke-width:1.0;" width="10" x="1214" y="378.5703"/><rect fill="#FFFFFF" height="28" style="stroke:#181818;stroke-width:1.0;" width="10" x="1214" y="568.0254"/><rect fill="#FFFFFF" height="92.582" style="stroke:#181818;stroke-width:1.0;" width="10" x="1480" y="215.4063"/><rect fill="#FFFFFF" height="61.291" style="stroke:#181818;stroke-width:1.0;" width="10" x="1624.5" y="414.8613"/><rect fill="#FFFFFF" height="61.291" style="stroke:#181818;stroke-width:1.0;" width="10" x="1761.5" y="246.6973"/><rect fill="#FFFFFF" height="30" style="stroke:#181818;stroke-width:1.0;" width="10" x="1905" y="446.1523"/><rect fill="#FFFFFF" height="30" style="stroke:#181818;stroke-width:1.0;" width="10" x="2055" y="277.9883"/><rect fill="none" height="126.873" style="stroke:#000000;stroke-width:1.5;" width="690" x="1112" y="491.1523"/><rect fill="none" height="93.582" style="stroke:#000000;stroke-width:1.5;" width="670" x="1122" y="517.4434"/><rect fill="none" height="93.582" style="stroke:#000000;stroke-width:1.5;" width="511" x="650" y="768.8984"/><line style="stroke:#181818;stroke-width:0.5;stroke-dasharray:5.0,5.0;" x1="22" x2="22" y1="88.2422" y2="910.7715"/><line style="stroke:#181818;stroke-width:0.5;stroke-dasharray:5.0,5.0;" x1="372" x2="372" y1="88.2422" y2="910.7715"/><line style="stroke:#181818;stroke-width:0.5;stroke-dasharray:5.0,5.0;" x1="543" x2="543" y1="88.2422" y2="910.7715"/><line style="stroke:#181818;stroke-width:0.5;stroke-dasharray:5.0,5.0;" x1="753" x2="753" y1="88.2422" y2="910.7715"/><line style="stroke:#181818;stroke-width:0.5;stroke-dasharray:5.0,5.0;" x1="1214" x2="1214" y1="88.2422" y2="910.7715"/><line style="stroke:#181818;stroke-width:0.5;stroke-dasharray:5.0,5.0;" x1="1485" x2="1485" y1="88.2422" y2="910.7715"/><line style="stroke:#181818;stroke-width:0.5;stroke-dasharray:5.0,5.0;" x1="1629" x2="1629" y1="88.2422" y2="910.7715"/><line style="stroke:#181818;stroke-width:0.5;stroke-dasharray:5.0,5.0;" x1="1766" x2="1766" y1="88.2422" y2="910.7715"/><line style="stroke:#181818;stroke-width:0.5;stroke-dasharray:5.0,5.0;" x1="1910" x2="1910" y1="88.2422" y2="910.7715"/><line style="stroke:#181818;stroke-width:0.5;stroke-dasharray:5.0,5.0;" x1="2060" x2="2060" y1="88.2422" y2="910.7715"/><text fill="#000000" font-family="sans-serif" font-size="14" lengthAdjust="spacing" textLength="29" x="5" y="84.7285">User</text><ellipse cx="22.5" cy="18.1211" fill="#E2E2F0" rx="8" ry="8" style="stroke:#181818;stroke-width:0.5;"/><path d="M22.5,26.1211 L22.5,53.1211 M9.5,34.1211 L35.5,34.1211 M22.5,53.1211 L9.5,68.1211 M22.5,53.1211 L35.5,68.1211 " fill="none" style="stroke:#181818;stroke-width:0.5;"/><text fill="#000000" font-family="sans-serif" font-size="14" lengthAdjust="spacing" textLength="29" x="5" y="924.8789">User</text><ellipse cx="22.5" cy="936.8926" fill="#E2E2F0" rx="8" ry="8" style="stroke:#181818;stroke-width:0.5;"/><path d="M22.5,944.8926 L22.5,971.8926 M9.5,952.8926 L35.5,952.8926 M22.5,971.8926 L9.5,986.8926 M22.5,971.8926 L35.5,986.8926 " fill="none" style="stroke:#181818;stroke-width:0.5;"/><rect fill="#E2E2F0" height="51.2422" rx="2.5" ry="2.5" style="stroke:#181818;stroke-width:0.5;" width="109" x="318" y="36"/><text fill="#000000" font-family="sans-serif" font-size="14" font-style="italic" lengthAdjust="spacing" textLength="95" x="325" y="58.1074">&#171;presentation&#187;</text><text fill="#000000" font-family="sans-serif" font-size="14" lengthAdjust="spacing" textLength="52" x="346.5" y="76.7285">:UsersUI</text><rect fill="#E2E2F0" height="51.2422" rx="2.5" ry="2.5" style="stroke:#181818;stroke-width:0.5;" width="109" x="318" y="909.7715"/><text fill="#000000" font-family="sans-serif" font-size="14" font-style="italic" lengthAdjust="spacing" textLength="95" x="325" y="931.8789">&#171;presentation&#187;</text><text fill="#000000" font-family="sans-serif" font-size="14" lengthAdjust="spacing" textLength="52" x="346.5" y="950.5">:UsersUI</text><rect fill="#E2E2F0" height="51.2422" rx="2.5" ry="2.5" style="stroke:#181818;stroke-width:0.5;" width="213" x="437" y="36"/><text fill="#000000" font-family="sans-serif" font-size="14" font-style="italic" lengthAdjust="spacing" textLength="84" x="501.5" y="58.1074">&#171;application&#187;</text><text fill="#000000" font-family="sans-serif" font-size="14" lengthAdjust="spacing" textLength="199" x="444" y="76.7285">:ViewHistorySharedBoardAction</text><rect fill="#E2E2F0" height="51.2422" rx="2.5" ry="2.5" style="stroke:#181818;stroke-width:0.5;" width="213" x="437" y="909.7715"/><text fill="#000000" font-family="sans-serif" font-size="14" font-style="italic" lengthAdjust="spacing" textLength="84" x="501.5" y="931.8789">&#171;application&#187;</text><text fill="#000000" font-family="sans-serif" font-size="14" lengthAdjust="spacing" textLength="199" x="444" y="950.5">:ViewHistorySharedBoardAction</text><rect fill="#E2E2F0" height="51.2422" rx="2.5" ry="2.5" style="stroke:#181818;stroke-width:0.5;" width="186" x="660" y="36"/><text fill="#000000" font-family="sans-serif" font-size="14" font-style="italic" lengthAdjust="spacing" textLength="95" x="705.5" y="58.1074">&#171;presentation&#187;</text><text fill="#000000" font-family="sans-serif" font-size="14" lengthAdjust="spacing" textLength="172" x="667" y="76.7285">:ViewHistorySharedBoardUI</text><rect fill="#E2E2F0" height="51.2422" rx="2.5" ry="2.5" style="stroke:#181818;stroke-width:0.5;" width="186" x="660" y="909.7715"/><text fill="#000000" font-family="sans-serif" font-size="14" font-style="italic" lengthAdjust="spacing" textLength="95" x="705.5" y="931.8789">&#171;presentation&#187;</text><text fill="#000000" font-family="sans-serif" font-size="14" lengthAdjust="spacing" textLength="172" x="667" y="950.5">:ViewHistorySharedBoardUI</text><rect fill="#E2E2F0" height="51.2422" rx="2.5" ry="2.5" style="stroke:#181818;stroke-width:0.5;" width="164" x="1132" y="36"/><text fill="#000000" font-family="sans-serif" font-size="14" font-style="italic" lengthAdjust="spacing" textLength="84" x="1172" y="58.1074">&#171;application&#187;</text><text fill="#000000" font-family="sans-serif" font-size="14" lengthAdjust="spacing" textLength="150" x="1139" y="76.7285">:SharedBoardController</text><rect fill="#E2E2F0" height="51.2422" rx="2.5" ry="2.5" style="stroke:#181818;stroke-width:0.5;" width="164" x="1132" y="909.7715"/><text fill="#000000" font-family="sans-serif" font-size="14" font-style="italic" lengthAdjust="spacing" textLength="84" x="1172" y="931.8789">&#171;application&#187;</text><text fill="#000000" font-family="sans-serif" font-size="14" lengthAdjust="spacing" textLength="150" x="1139" y="950.5">:SharedBoardController</text><rect fill="#E2E2F0" height="51.2422" rx="2.5" ry="2.5" style="stroke:#181818;stroke-width:0.5;" width="120" x="1425" y="36"/><text fill="#000000" font-family="sans-serif" font-size="14" font-style="italic" lengthAdjust="spacing" textLength="84" x="1443" y="58.1074">&#171;application&#187;</text><text fill="#000000" font-family="sans-serif" font-size="14" lengthAdjust="spacing" textLength="106" x="1432" y="76.7285">:ProfileController</text><rect fill="#E2E2F0" height="51.2422" rx="2.5" ry="2.5" style="stroke:#181818;stroke-width:0.5;" width="120" x="1425" y="909.7715"/><text fill="#000000" font-family="sans-serif" font-size="14" font-style="italic" lengthAdjust="spacing" textLength="84" x="1443" y="931.8789">&#171;application&#187;</text><text fill="#000000" font-family="sans-serif" font-size="14" lengthAdjust="spacing" textLength="106" x="1432" y="950.5">:ProfileController</text><rect fill="#E2E2F0" height="51.2422" rx="2.5" ry="2.5" style="stroke:#181818;stroke-width:0.5;" width="149" x="1555" y="36"/><text fill="#000000" font-family="sans-serif" font-size="14" font-style="italic" lengthAdjust="spacing" textLength="84" x="1587.5" y="58.1074">&#171;application&#187;</text><text fill="#000000" font-family="sans-serif" font-size="14" lengthAdjust="spacing" textLength="135" x="1562" y="76.7285">:SharedBoardService</text><rect fill="#E2E2F0" height="51.2422" rx="2.5" ry="2.5" style="stroke:#181818;stroke-width:0.5;" width="149" x="1555" y="909.7715"/><text fill="#000000" font-family="sans-serif" font-size="14" font-style="italic" lengthAdjust="spacing" textLength="84" x="1587.5" y="931.8789">&#171;application&#187;</text><text fill="#000000" font-family="sans-serif" font-size="14" lengthAdjust="spacing" textLength="135" x="1562" y="950.5">:SharedBoardService</text><rect fill="#E2E2F0" height="51.2422" rx="2.5" ry="2.5" style="stroke:#181818;stroke-width:0.5;" width="105" x="1714" y="36"/><text fill="#000000" font-family="sans-serif" font-size="14" font-style="italic" lengthAdjust="spacing" textLength="84" x="1724.5" y="58.1074">&#171;application&#187;</text><text fill="#000000" font-family="sans-serif" font-size="14" lengthAdjust="spacing" textLength="91" x="1721" y="76.7285">:ProfileService</text><rect fill="#E2E2F0" height="51.2422" rx="2.5" ry="2.5" style="stroke:#181818;stroke-width:0.5;" width="105" x="1714" y="909.7715"/><text fill="#000000" font-family="sans-serif" font-size="14" font-style="italic" lengthAdjust="spacing" textLength="84" x="1724.5" y="931.8789">&#171;application&#187;</text><text fill="#000000" font-family="sans-serif" font-size="14" lengthAdjust="spacing" textLength="91" x="1721" y="950.5">:ProfileService</text><text fill="#000000" font-family="sans-serif" font-size="14" font-style="italic" lengthAdjust="spacing" textLength="79" x="1867.5" y="66.1074">&#171;repository&#187;</text><text fill="#000000" font-family="sans-serif" font-size="14" lengthAdjust="spacing" textLength="156" x="1829" y="84.7285">:SharedBoardRepository</text><path d="M1892,15 C1892,5 1910,5 1910,5 C1910,5 1928,5 1928,15 L1928,41 C1928,51 1910,51 1910,51 C1910,51 1892,51 1892,41 L1892,15 " fill="#E2E2F0" style="stroke:#181818;stroke-width:1.5;"/><path d="M1892,15 C1892,25 1910,25 1910,25 C1910,25 1928,25 1928,15 " fill="none" style="stroke:#181818;stroke-width:1.5;"/><text fill="#000000" font-family="sans-serif" font-size="14" font-style="italic" lengthAdjust="spacing" textLength="79" x="1867.5" y="924.8789">&#171;repository&#187;</text><text fill="#000000" font-family="sans-serif" font-size="14" lengthAdjust="spacing" textLength="156" x="1829" y="943.5">:SharedBoardRepository</text><path d="M1892,957.0137 C1892,947.0137 1910,947.0137 1910,947.0137 C1910,947.0137 1928,947.0137 1928,957.0137 L1928,983.0137 C1928,993.0137 1910,993.0137 1910,993.0137 C1910,993.0137 1892,993.0137 1892,983.0137 L1892,957.0137 " fill="#E2E2F0" style="stroke:#181818;stroke-width:1.5;"/><path d="M1892,957.0137 C1892,967.0137 1910,967.0137 1910,967.0137 C1910,967.0137 1928,967.0137 1928,957.0137 " fill="none" style="stroke:#181818;stroke-width:1.5;"/><text fill="#000000" font-family="sans-serif" font-size="14" font-style="italic" lengthAdjust="spacing" textLength="79" x="2017.5" y="66.1074">&#171;repository&#187;</text><text fill="#000000" font-family="sans-serif" font-size="14" lengthAdjust="spacing" textLength="112" x="2001" y="84.7285">:ProfileRepository</text><path d="M2042,15 C2042,5 2060,5 2060,5 C2060,5 2078,5 2078,15 L2078,41 C2078,51 2060,51 2060,51 C2060,51 2042,51 2042,41 L2042,15 " fill="#E2E2F0" style="stroke:#181818;stroke-width:1.5;"/><path d="M2042,15 C2042,25 2060,25 2060,25 C2060,25 2078,25 2078,15 " fill="none" style="stroke:#181818;stroke-width:1.5;"/><text fill="#000000" font-family="sans-serif" font-size="14" font-style="italic" lengthAdjust="spacing" textLength="79" x="2017.5" y="924.8789">&#171;repository&#187;</text><text fill="#000000" font-family="sans-serif" font-size="14" lengthAdjust="spacing" textLength="112" x="2001" y="943.5">:ProfileRepository</text><path d="M2042,957.0137 C2042,947.0137 2060,947.0137 2060,947.0137 C2060,947.0137 2078,947.0137 2078,957.0137 L2078,983.0137 C2078,993.0137 2060,993.0137 2060,993.0137 C2060,993.0137 2042,993.0137 2042,983.0137 L2042,957.0137 " fill="#E2E2F0" style="stroke:#181818;stroke-width:1.5;"/><path d="M2042,957.0137 C2042,967.0137 2060,967.0137 2060,967.0137 C2060,967.0137 2078,967.0137 2078,957.0137 " fill="none" style="stroke:#181818;stroke-width:1.5;"/><rect fill="#FFFFFF" height="794.5293" style="stroke:#181818;stroke-width:1.0;" width="10" x="17.5" y="98.2422"/><rect fill="#FFFFFF" height="62.582" style="stroke:#181818;stroke-width:1.0;" width="10" x="367.5" y="121.5332"/><rect fill="#FFFFFF" height="31.291" style="stroke:#181818;stroke-width:1.0;" width="10" x="538.5" y="152.8242"/><rect fill="#FFFFFF" height="464.2012" style="stroke:#181818;stroke-width:1.0;" width="10" x="748" y="184.1152"/><rect fill="#FFFFFF" height="213.1641" style="stroke:#181818;stroke-width:1.0;" width="10" x="748" y="679.6074"/><rect fill="#FFFFFF" height="28" style="stroke:#181818;stroke-width:1.0;" width="10" x="753" y="718.8984"/><rect fill="#FFFFFF" height="28" style="stroke:#181818;stroke-width:1.0;" width="10" x="753" y="819.4805"/><rect fill="#FFFFFF" height="285.7461" style="stroke:#181818;stroke-width:1.0;" width="10" x="1209" y="339.2793"/><rect fill="#FFFFFF" height="97.582" style="stroke:#181818;stroke-width:1.0;" width="10" x="1214" y="378.5703"/><rect fill="#FFFFFF" height="28" style="stroke:#181818;stroke-width:1.0;" width="10" x="1214" y="568.0254"/><rect fill="#FFFFFF" height="92.582" style="stroke:#181818;stroke-width:1.0;" width="10" x="1480" y="215.4063"/><rect fill="#FFFFFF" height="61.291" style="stroke:#181818;stroke-width:1.0;" width="10" x="1624.5" y="414.8613"/><rect fill="#FFFFFF" height="61.291" style="stroke:#181818;stroke-width:1.0;" width="10" x="1761.5" y="246.6973"/><rect fill="#FFFFFF" height="30" style="stroke:#181818;stroke-width:1.0;" width="10" x="1905" y="446.1523"/><rect fill="#FFFFFF" height="30" style="stroke:#181818;stroke-width:1.0;" width="10" x="2055" y="277.9883"/><polygon fill="#181818" points="355.5,117.5332,365.5,121.5332,355.5,125.5332,359.5,121.5332" style="stroke:#181818;stroke-width:1.0;"/><line style="stroke:#181818;stroke-width:1.0;" x1="27.5" x2="361.5" y1="121.5332" y2="121.5332"/><text fill="#000000" font-family="sans-serif" font-size="13" font-weight="bold" lengthAdjust="spacing" textLength="7" x="34.5" y="116.2705">1</text><text fill="#000000" font-family="sans-serif" font-size="13" lengthAdjust="spacing" textLength="310" x="45.5" y="116.2705">Asks to view the history of updates on a SharedBoard</text><polygon fill="#181818" points="526.5,148.8242,536.5,152.8242,526.5,156.8242,530.5,152.8242" style="stroke:#181818;stroke-width:1.0;"/><line style="stroke:#181818;stroke-width:1.0;" x1="377.5" x2="532.5" y1="152.8242" y2="152.8242"/><text fill="#000000" font-family="sans-serif" font-size="13" font-weight="bold" lengthAdjust="spacing" textLength="7" x="384.5" y="147.5615">2</text><text fill="#000000" font-family="sans-serif" font-size="13" lengthAdjust="spacing" textLength="54" x="395.5" y="147.5615">execute()</text><polygon fill="#181818" points="736,180.1152,746,184.1152,736,188.1152,740,184.1152" style="stroke:#181818;stroke-width:1.0;"/><line style="stroke:#181818;stroke-width:1.0;" x1="543.5" x2="742" y1="184.1152" y2="184.1152"/><text fill="#000000" font-family="sans-serif" font-size="13" font-weight="bold" lengthAdjust="spacing" textLength="7" x="550.5" y="178.8525">3</text><text fill="#000000" font-family="sans-serif" font-size="13" lengthAdjust="spacing" textLength="54" x="561.5" y="178.8525">doShow()</text><polygon fill="#181818" points="1468,211.4063,1478,215.4063,1468,219.4063,1472,215.4063" style="stroke:#181818;stroke-width:1.0;"/><line style="stroke:#181818;stroke-width:1.0;" x1="758" x2="1474" y1="215.4063" y2="215.4063"/><text fill="#000000" font-family="sans-serif" font-size="13" font-weight="bold" lengthAdjust="spacing" textLength="7" x="765" y="210.1436">4</text><text fill="#000000" font-family="sans-serif" font-size="13" lengthAdjust="spacing" textLength="474" x="776" y="210.1436">currentUserProfile = getUserProfile(authz.session().get().authenticatedUser()).get()</text><polygon fill="#181818" points="1749.5,242.6973,1759.5,246.6973,1749.5,250.6973,1753.5,246.6973" style="stroke:#181818;stroke-width:1.0;"/><line style="stroke:#181818;stroke-width:1.0;" x1="1490" x2="1755.5" y1="246.6973" y2="246.6973"/><text fill="#000000" font-family="sans-serif" font-size="13" font-weight="bold" lengthAdjust="spacing" textLength="7" x="1497" y="241.4346">5</text><text fill="#000000" font-family="sans-serif" font-size="13" lengthAdjust="spacing" textLength="172" x="1508" y="241.4346">getProfileFromDatabase(user)</text><polygon fill="#181818" points="2043,273.9883,2053,277.9883,2043,281.9883,2047,277.9883" style="stroke:#181818;stroke-width:1.0;"/><line style="stroke:#181818;stroke-width:1.0;" x1="1771.5" x2="2049" y1="277.9883" y2="277.9883"/><text fill="#000000" font-family="sans-serif" font-size="13" font-weight="bold" lengthAdjust="spacing" textLength="7" x="1778.5" y="272.7256">6</text><text fill="#000000" font-family="sans-serif" font-size="13" lengthAdjust="spacing" textLength="132" x="1789.5" y="272.7256">findProfileByUser(user)</text><polygon fill="#181818" points="1197,335.2793,1207,339.2793,1197,343.2793,1201,339.2793" style="stroke:#181818;stroke-width:1.0;"/><line style="stroke:#181818;stroke-width:1.0;" x1="758" x2="1203" y1="339.2793" y2="339.2793"/><text fill="#000000" font-family="sans-serif" font-size="13" font-weight="bold" lengthAdjust="spacing" textLength="7" x="765" y="334.0166">7</text><text fill="#000000" font-family="sans-serif" font-size="13" lengthAdjust="spacing" textLength="421" x="776" y="334.0166">sharedBoardList = controller.getSharedBoardsByUser(currentUserProfile)</text><line style="stroke:#181818;stroke-width:1.0;" x1="1219" x2="1266" y1="365.5703" y2="365.5703"/><line style="stroke:#181818;stroke-width:1.0;" x1="1266" x2="1266" y1="365.5703" y2="378.5703"/><line style="stroke:#181818;stroke-width:1.0;" x1="1225" x2="1266" y1="378.5703" y2="378.5703"/><polygon fill="#181818" points="1235,374.5703,1225,378.5703,1235,382.5703,1231,378.5703" style="stroke:#181818;stroke-width:1.0;"/><text fill="#000000" font-family="sans-serif" font-size="13" font-weight="bold" lengthAdjust="spacing" textLength="7" x="1231" y="360.3076">8</text><text fill="#000000" font-family="sans-serif" font-size="13" lengthAdjust="spacing" textLength="137" x="1242" y="360.3076">sharedBoards = getAll()</text><polygon fill="#181818" points="1612.5,410.8613,1622.5,414.8613,1612.5,418.8613,1616.5,414.8613" style="stroke:#181818;stroke-width:1.0;"/><line style="stroke:#181818;stroke-width:1.0;" x1="1224" x2="1618.5" y1="414.8613" y2="414.8613"/><text fill="#000000" font-family="sans-serif" font-size="13" font-weight="bold" lengthAdjust="spacing" textLength="7" x="1231" y="409.5986">9</text><text fill="#000000" font-family="sans-serif" font-size="13" lengthAdjust="spacing" textLength="160" x="1242" y="409.5986">service.getAllSharedBoard()</text><polygon fill="#181818" points="1893,442.1523,1903,446.1523,1893,450.1523,1897,446.1523" style="stroke:#181818;stroke-width:1.0;"/><line style="stroke:#181818;stroke-width:1.0;" x1="1634.5" x2="1899" y1="446.1523" y2="446.1523"/><text fill="#000000" font-family="sans-serif" font-size="13" font-weight="bold" lengthAdjust="spacing" textLength="14" x="1641.5" y="440.8896">10</text><text fill="#000000" font-family="sans-serif" font-size="13" lengthAdjust="spacing" textLength="177" x="1659.5" y="440.8896">repository.getAllSharedBoard()</text><path d="M1112,491.1523 L1185,491.1523 L1185,500.4434 L1175,510.4434 L1112,510.4434 L1112,491.1523 " fill="#EEEEEE" style="stroke:#000000;stroke-width:1.5;"/><rect fill="none" height="126.873" style="stroke:#000000;stroke-width:1.5;" width="690" x="1112" y="491.1523"/><text fill="#000000" font-family="sans-serif" font-size="13" font-weight="bold" lengthAdjust="spacing" textLength="28" x="1127" y="506.1807">loop</text><text fill="#000000" font-family="sans-serif" font-size="11" font-weight="bold" lengthAdjust="spacing" textLength="267" x="1200" y="505.0225">[for (SharedBoard sharedBoard : sharedBoards)]</text><path d="M1122,517.4434 L1183,517.4434 L1183,526.7344 L1173,536.7344 L1122,536.7344 L1122,517.4434 " fill="#EEEEEE" style="stroke:#000000;stroke-width:1.5;"/><rect fill="none" height="93.582" style="stroke:#000000;stroke-width:1.5;" width="670" x="1122" y="517.4434"/><text fill="#000000" font-family="sans-serif" font-size="13" font-weight="bold" lengthAdjust="spacing" textLength="16" x="1137" y="532.4717">alt</text><text fill="#000000" font-family="sans-serif" font-size="11" font-weight="bold" lengthAdjust="spacing" textLength="589" x="1198" y="531.3135">[(sharedBoard.getOwner().getOwnerProfile().equals(userProfile) || isParticipant(userProfile,sharedBoard))]</text><line style="stroke:#181818;stroke-width:1.0;" x1="1224" x2="1266" y1="560.0254" y2="560.0254"/><line style="stroke:#181818;stroke-width:1.0;" x1="1266" x2="1266" y1="560.0254" y2="573.0254"/><line style="stroke:#181818;stroke-width:1.0;" x1="1225" x2="1266" y1="573.0254" y2="573.0254"/><polygon fill="#181818" points="1235,569.0254,1225,573.0254,1235,577.0254,1231,573.0254" style="stroke:#181818;stroke-width:1.0;"/><text fill="#000000" font-family="sans-serif" font-size="13" font-weight="bold" lengthAdjust="spacing" textLength="14" x="1231" y="554.7627">11</text><text fill="#000000" font-family="sans-serif" font-size="13" lengthAdjust="spacing" textLength="229" x="1249" y="554.7627">sharedBoardsByUser.add(sharedBoard)</text><polygon fill="#181818" points="38.5,644.3164,28.5,648.3164,38.5,652.3164,34.5,648.3164" style="stroke:#181818;stroke-width:1.0;"/><line style="stroke:#181818;stroke-width:1.0;stroke-dasharray:2.0,2.0;" x1="32.5" x2="752" y1="648.3164" y2="648.3164"/><text fill="#000000" font-family="sans-serif" font-size="13" font-weight="bold" lengthAdjust="spacing" textLength="14" x="44.5" y="643.0537">12</text><text fill="#000000" font-family="sans-serif" font-size="13" lengthAdjust="spacing" textLength="264" x="62.5" y="643.0537">Shows all SharedBoards available for the user</text><polygon fill="#181818" points="736,675.6074,746,679.6074,736,683.6074,740,679.6074" style="stroke:#181818;stroke-width:1.0;"/><line style="stroke:#181818;stroke-width:1.0;" x1="27.5" x2="742" y1="679.6074" y2="679.6074"/><text fill="#000000" font-family="sans-serif" font-size="13" font-weight="bold" lengthAdjust="spacing" textLength="14" x="34.5" y="674.3447">13</text><text fill="#000000" font-family="sans-serif" font-size="13" lengthAdjust="spacing" textLength="130" x="52.5" y="674.3447">Chooses SharedBoard</text><line style="stroke:#181818;stroke-width:1.0;" x1="763" x2="805" y1="710.8984" y2="710.8984"/><line style="stroke:#181818;stroke-width:1.0;" x1="805" x2="805" y1="710.8984" y2="723.8984"/><line style="stroke:#181818;stroke-width:1.0;" x1="764" x2="805" y1="723.8984" y2="723.8984"/><polygon fill="#181818" points="774,719.8984,764,723.8984,774,727.8984,770,723.8984" style="stroke:#181818;stroke-width:1.0;"/><text fill="#000000" font-family="sans-serif" font-size="13" font-weight="bold" lengthAdjust="spacing" textLength="14" x="770" y="705.6357">14</text><text fill="#000000" font-family="sans-serif" font-size="13" lengthAdjust="spacing" textLength="346" x="788" y="705.6357">SharedBoard sharedBoard = sharedBoardList.get(option - 1)</text><path d="M650,768.8984 L723,768.8984 L723,778.1895 L713,788.1895 L650,788.1895 L650,768.8984 " fill="#EEEEEE" style="stroke:#000000;stroke-width:1.5;"/><rect fill="none" height="93.582" style="stroke:#000000;stroke-width:1.5;" width="511" x="650" y="768.8984"/><text fill="#000000" font-family="sans-serif" font-size="13" font-weight="bold" lengthAdjust="spacing" textLength="28" x="665" y="783.9268">loop</text><text fill="#000000" font-family="sans-serif" font-size="11" font-weight="bold" lengthAdjust="spacing" textLength="418" x="738" y="782.7686">[for (Modification modification : sharedBoard.getAuditLog().getAuditLogs())]</text><line style="stroke:#181818;stroke-width:1.0;" x1="763" x2="805" y1="811.4805" y2="811.4805"/><line style="stroke:#181818;stroke-width:1.0;" x1="805" x2="805" y1="811.4805" y2="824.4805"/><line style="stroke:#181818;stroke-width:1.0;" x1="764" x2="805" y1="824.4805" y2="824.4805"/><polygon fill="#181818" points="774,820.4805,764,824.4805,774,828.4805,770,824.4805" style="stroke:#181818;stroke-width:1.0;"/><text fill="#000000" font-family="sans-serif" font-size="13" font-weight="bold" lengthAdjust="spacing" textLength="14" x="770" y="806.2178">15</text><text fill="#000000" font-family="sans-serif" font-size="13" lengthAdjust="spacing" textLength="183" x="788" y="806.2178">System.out.println(modification)</text><polygon fill="#181818" points="33.5,888.7715,23.5,892.7715,33.5,896.7715,29.5,892.7715" style="stroke:#181818;stroke-width:1.0;"/><line style="stroke:#181818;stroke-width:1.0;stroke-dasharray:2.0,2.0;" x1="27.5" x2="752" y1="892.7715" y2="892.7715"/><text fill="#000000" font-family="sans-serif" font-size="13" font-weight="bold" lengthAdjust="spacing" textLength="14" x="39.5" y="887.5088">16</text><text fill="#000000" font-family="sans-serif" font-size="13" lengthAdjust="spacing" textLength="146" x="57.5" y="887.5088">Shows history of updates</text><!--SRC=[bLLDJzmm4BtxLrXxQIALe5uZG0AggaXKHKNqRc8liUh4gUqifUB7T-muwzbyB7GFO7jctapcFOy_rCvrjZmzxHHhNT-eejBDgHM_Uz5MueHBzcHOGmZhdMxxvb4OM5TE6zfROIYpTFC0YmqX7JDELh836Bef_Q5zkDbuZrxIixFE22jQnvpKxSN5nFkd5CzVfGNOb_kQ6S6lD3FyilBE0OA59S2mhbEo-X-KM4Gz61vktge5XLxhrXcj57oVXwZsspSAkJDwAvLO3O_sDr1G8VV2x6Gb0emTrkyhOI5mBJbdZZqoAmup_n2Tjj9tBc2O_HRYq-OmF6PO3KqL721uNSaTSo98Yv0Wi9CBBv-INjfVbZfDTy0nTRKO-QHwI_iEaWjBGI2CejeHe2I00bXHHoKLVqJLEv7boMcmaUW2paao9UNwljRFuCx5D02TG9xzUXzD4Ww0pbLGqget1lJexynuU4wV13x8u0BMVmihh8MSMLw06VxwKuZqB0hktRCycb8XiunaNWCKDf57wGk8coz6DvyZlvcd1Q4VXf492k3EUI_fLhOyxgvUGjaJr5aGxl9HuwGUP9dtOOKOAD0c5Ts24z2HpBw_I6KsVi6Sn4KEKFEFPRM30YwLoju3Cmw5SbmLGp2gCvkJDh9rI1E0fCrndEItpCy2CSkC4ALrHxVmh6Ge5Mx8f3qveV1Zoj4C7Vjglp-t_Xhib-C5oWjur9YoGMeZG_JrbKfxbqOdjdv4oFcGqF_UIU0WYu9nZYjCC4jT66tBFV8MqNB_rSJ_zprRQITIjf-WDbJd9nWyfKhX8Ga7EoOLUuIBwVllPskOlmWuZR9n9kFHU5rh3NDfUVAkJ44SlqRu-VGMXi6cks4yqq_vKfR5gfEulcakj_7DemtU790NLDzpwMxrqo2bSMUpg8JrptcnJZI5xbtH6TawrMOuKHJklCW9xycmf_e8gVFNSBaJ-AqAZ-m_]--></g></svg>