<?xml version="1.0" encoding="us-ascii" standalone="no"?><svg xmlns="http://www.w3.org/2000/svg" xmlns:xlink="http://www.w3.org/1999/xlink" contentStyleType="text/css" height="834px" preserveAspectRatio="none" style="width:681px;height:834px;background:#FFFFFF;" version="1.1" viewBox="0 0 681 834" width="681px" zoomAndPan="magnify"><defs/><g><!--entity SharedBoardRepository--><g id="elem_SharedBoardRepository"><path d="M90.5,780 C90.5,770 176.5,770 176.5,770 C176.5,770 262.5,770 262.5,780 L262.5,807.6211 C262.5,817.6211 176.5,817.6211 176.5,817.6211 C176.5,817.6211 90.5,817.6211 90.5,807.6211 L90.5,780 " fill="#F1F1F1" style="stroke:#181818;stroke-width:0.5;"/><path d="M90.5,780 C90.5,790 176.5,790 176.5,790 C176.5,790 262.5,790 262.5,780 " fill="none" style="stroke:#181818;stroke-width:0.5;"/><text fill="#000000" font-family="sans-serif" font-size="14" lengthAdjust="spacing" textLength="152" x="100.5" y="809.1074">SharedBoardRepository</text></g><!--class ViewHistorySharedBoardUI--><g id="elem_ViewHistorySharedBoardUI"><rect codeLine="3" fill="#F1F1F1" height="48" id="ViewHistorySharedBoardUI" rx="2.5" ry="2.5" style="stroke:#181818;stroke-width:0.5;" width="200" x="271.5" y="7"/><ellipse cx="286.5" cy="23" fill="#ADD1B2" rx="11" ry="11" style="stroke:#181818;stroke-width:1.0;"/><path d="M289.2656,18.875 Q289.4219,18.6563 289.6094,18.5469 Q289.7969,18.4375 290.0156,18.4375 Q290.3906,18.4375 290.625,18.7031 Q290.8594,18.9531 290.8594,19.5625 L290.8594,21.0156 Q290.8594,21.625 290.625,21.8906 Q290.3906,22.1563 290.0156,22.1563 Q289.6719,22.1563 289.4688,21.9531 Q289.2656,21.7656 289.1563,21.25 Q289.1094,20.8906 288.9219,20.7031 Q288.5938,20.3281 287.9844,20.1094 Q287.375,19.8906 286.75,19.8906 Q285.9844,19.8906 285.3438,20.2188 Q284.7188,20.5469 284.2188,21.2969 Q283.7344,22.0469 283.7344,23.0781 L283.7344,24.1719 Q283.7344,25.4063 284.625,26.2344 Q285.5156,27.0469 287.1094,27.0469 Q288.0469,27.0469 288.7031,26.7969 Q289.0938,26.6406 289.5156,26.2031 Q289.7813,25.9375 289.9219,25.8594 Q290.0781,25.7813 290.2813,25.7813 Q290.6094,25.7813 290.8594,26.0469 Q291.125,26.2969 291.125,26.6406 Q291.125,26.9844 290.7813,27.3906 Q290.2813,27.9688 289.4844,28.2969 Q288.4063,28.75 287.1094,28.75 Q285.5938,28.75 284.3906,28.125 Q283.4063,27.625 282.7188,26.5625 Q282.0313,25.4844 282.0313,24.2031 L282.0313,23.0469 Q282.0313,21.7188 282.6406,20.5781 Q283.2656,19.4219 284.3594,18.8125 Q285.4531,18.1875 286.6875,18.1875 Q287.4219,18.1875 288.0625,18.3594 Q288.7188,18.5156 289.2656,18.875 Z " fill="#000000"/><text fill="#000000" font-family="sans-serif" font-size="14" lengthAdjust="spacing" textLength="168" x="300.5" y="28.7969">ViewHistorySharedBoardUI</text><line style="stroke:#181818;stroke-width:0.5;" x1="272.5" x2="470.5" y1="39" y2="39"/><line style="stroke:#181818;stroke-width:0.5;" x1="272.5" x2="470.5" y1="47" y2="47"/></g><!--class SharedBoardController--><g id="elem_SharedBoardController"><rect codeLine="6" fill="#F1F1F1" height="141.1055" id="SharedBoardController" rx="2.5" ry="2.5" style="stroke:#181818;stroke-width:0.5;" width="605" x="69" y="115"/><ellipse cx="294.25" cy="131" fill="#ADD1B2" rx="11" ry="11" style="stroke:#181818;stroke-width:1.0;"/><path d="M297.0156,126.875 Q297.1719,126.6563 297.3594,126.5469 Q297.5469,126.4375 297.7656,126.4375 Q298.1406,126.4375 298.375,126.7031 Q298.6094,126.9531 298.6094,127.5625 L298.6094,129.0156 Q298.6094,129.625 298.375,129.8906 Q298.1406,130.1563 297.7656,130.1563 Q297.4219,130.1563 297.2188,129.9531 Q297.0156,129.7656 296.9063,129.25 Q296.8594,128.8906 296.6719,128.7031 Q296.3438,128.3281 295.7344,128.1094 Q295.125,127.8906 294.5,127.8906 Q293.7344,127.8906 293.0938,128.2188 Q292.4688,128.5469 291.9688,129.2969 Q291.4844,130.0469 291.4844,131.0781 L291.4844,132.1719 Q291.4844,133.4063 292.375,134.2344 Q293.2656,135.0469 294.8594,135.0469 Q295.7969,135.0469 296.4531,134.7969 Q296.8438,134.6406 297.2656,134.2031 Q297.5313,133.9375 297.6719,133.8594 Q297.8281,133.7813 298.0313,133.7813 Q298.3594,133.7813 298.6094,134.0469 Q298.875,134.2969 298.875,134.6406 Q298.875,134.9844 298.5313,135.3906 Q298.0313,135.9688 297.2344,136.2969 Q296.1563,136.75 294.8594,136.75 Q293.3438,136.75 292.1406,136.125 Q291.1563,135.625 290.4688,134.5625 Q289.7813,133.4844 289.7813,132.2031 L289.7813,131.0469 Q289.7813,129.7188 290.3906,128.5781 Q291.0156,127.4219 292.1094,126.8125 Q293.2031,126.1875 294.4375,126.1875 Q295.1719,126.1875 295.8125,126.3594 Q296.4688,126.5156 297.0156,126.875 Z " fill="#000000"/><text fill="#000000" font-family="sans-serif" font-size="14" lengthAdjust="spacing" textLength="146" x="314.75" y="136.7969">SharedBoardController</text><line style="stroke:#181818;stroke-width:0.5;" x1="70" x2="673" y1="147" y2="147"/><line style="stroke:#181818;stroke-width:0.5;" x1="70" x2="673" y1="155" y2="155"/><ellipse cx="80" cy="169.8105" fill="#84BE84" rx="3" ry="3" style="stroke:#038048;stroke-width:1.0;"/><text fill="#000000" font-family="sans-serif" font-size="14" lengthAdjust="spacing" textLength="294" x="89" y="174.1074">saveSharedBoard(SharedBoard sharedBoard)</text><ellipse cx="80" cy="188.4316" fill="#84BE84" rx="3" ry="3" style="stroke:#038048;stroke-width:1.0;"/><text fill="#000000" font-family="sans-serif" font-size="14" lengthAdjust="spacing" textLength="45" x="89" y="192.7285">getAll()</text><ellipse cx="80" cy="207.0527" fill="#84BE84" rx="3" ry="3" style="stroke:#038048;stroke-width:1.0;"/><text fill="#000000" font-family="sans-serif" font-size="14" lengthAdjust="spacing" textLength="579" x="89" y="211.3496">addUpdateToHistory(Date date, Profile profile, Change change, SharedBoard sharedBoard)</text><ellipse cx="80" cy="225.6738" fill="#84BE84" rx="3" ry="3" style="stroke:#038048;stroke-width:1.0;"/><text fill="#000000" font-family="sans-serif" font-size="14" lengthAdjust="spacing" textLength="278" x="89" y="229.9707">getSharedBoardsByUser(Profile userProfile)</text><ellipse cx="80" cy="244.2949" fill="#84BE84" rx="3" ry="3" style="stroke:#038048;stroke-width:1.0;"/><text fill="#000000" font-family="sans-serif" font-size="14" lengthAdjust="spacing" textLength="377" x="89" y="248.5918">isParticipant(Profile userProfile, SharedBoard sharedBoard)</text></g><!--class SharedBoardService--><g id="elem_SharedBoardService"><rect codeLine="14" fill="#F1F1F1" height="85.2422" id="SharedBoardService" rx="2.5" ry="2.5" style="stroke:#181818;stroke-width:0.5;" width="339" x="7" y="625"/><ellipse cx="106.75" cy="641" fill="#ADD1B2" rx="11" ry="11" style="stroke:#181818;stroke-width:1.0;"/><path d="M109.5156,636.875 Q109.6719,636.6563 109.8594,636.5469 Q110.0469,636.4375 110.2656,636.4375 Q110.6406,636.4375 110.875,636.7031 Q111.1094,636.9531 111.1094,637.5625 L111.1094,639.0156 Q111.1094,639.625 110.875,639.8906 Q110.6406,640.1563 110.2656,640.1563 Q109.9219,640.1563 109.7188,639.9531 Q109.5156,639.7656 109.4063,639.25 Q109.3594,638.8906 109.1719,638.7031 Q108.8438,638.3281 108.2344,638.1094 Q107.625,637.8906 107,637.8906 Q106.2344,637.8906 105.5938,638.2188 Q104.9688,638.5469 104.4688,639.2969 Q103.9844,640.0469 103.9844,641.0781 L103.9844,642.1719 Q103.9844,643.4063 104.875,644.2344 Q105.7656,645.0469 107.3594,645.0469 Q108.2969,645.0469 108.9531,644.7969 Q109.3438,644.6406 109.7656,644.2031 Q110.0313,643.9375 110.1719,643.8594 Q110.3281,643.7813 110.5313,643.7813 Q110.8594,643.7813 111.1094,644.0469 Q111.375,644.2969 111.375,644.6406 Q111.375,644.9844 111.0313,645.3906 Q110.5313,645.9688 109.7344,646.2969 Q108.6563,646.75 107.3594,646.75 Q105.8438,646.75 104.6406,646.125 Q103.6563,645.625 102.9688,644.5625 Q102.2813,643.4844 102.2813,642.2031 L102.2813,641.0469 Q102.2813,639.7188 102.8906,638.5781 Q103.5156,637.4219 104.6094,636.8125 Q105.7031,636.1875 106.9375,636.1875 Q107.6719,636.1875 108.3125,636.3594 Q108.9688,636.5156 109.5156,636.875 Z " fill="#000000"/><text fill="#000000" font-family="sans-serif" font-size="14" lengthAdjust="spacing" textLength="131" x="127.25" y="646.7969">SharedBoardService</text><line style="stroke:#181818;stroke-width:0.5;" x1="8" x2="345" y1="657" y2="657"/><line style="stroke:#181818;stroke-width:0.5;" x1="8" x2="345" y1="665" y2="665"/><ellipse cx="18" cy="679.8105" fill="#84BE84" rx="3" ry="3" style="stroke:#038048;stroke-width:1.0;"/><text fill="#000000" font-family="sans-serif" font-size="14" lengthAdjust="spacing" textLength="313" x="27" y="684.1074">addNewSharedBoard(SharedBoard sharedboard)</text><ellipse cx="18" cy="698.4316" fill="#84BE84" rx="3" ry="3" style="stroke:#038048;stroke-width:1.0;"/><text fill="#000000" font-family="sans-serif" font-size="14" lengthAdjust="spacing" textLength="129" x="27" y="702.7285">getAllSharedBoard()</text></g><!--class PersistenceContext--><g id="elem_PersistenceContext"><rect codeLine="19" fill="#F1F1F1" height="66.6211" id="PersistenceContext" rx="2.5" ry="2.5" style="stroke:#181818;stroke-width:0.5;" width="154" x="99.5" y="325"/><ellipse cx="114.5" cy="341" fill="#ADD1B2" rx="11" ry="11" style="stroke:#181818;stroke-width:1.0;"/><path d="M117.2656,336.875 Q117.4219,336.6563 117.6094,336.5469 Q117.7969,336.4375 118.0156,336.4375 Q118.3906,336.4375 118.625,336.7031 Q118.8594,336.9531 118.8594,337.5625 L118.8594,339.0156 Q118.8594,339.625 118.625,339.8906 Q118.3906,340.1563 118.0156,340.1563 Q117.6719,340.1563 117.4688,339.9531 Q117.2656,339.7656 117.1563,339.25 Q117.1094,338.8906 116.9219,338.7031 Q116.5938,338.3281 115.9844,338.1094 Q115.375,337.8906 114.75,337.8906 Q113.9844,337.8906 113.3438,338.2188 Q112.7188,338.5469 112.2188,339.2969 Q111.7344,340.0469 111.7344,341.0781 L111.7344,342.1719 Q111.7344,343.4063 112.625,344.2344 Q113.5156,345.0469 115.1094,345.0469 Q116.0469,345.0469 116.7031,344.7969 Q117.0938,344.6406 117.5156,344.2031 Q117.7813,343.9375 117.9219,343.8594 Q118.0781,343.7813 118.2813,343.7813 Q118.6094,343.7813 118.8594,344.0469 Q119.125,344.2969 119.125,344.6406 Q119.125,344.9844 118.7813,345.3906 Q118.2813,345.9688 117.4844,346.2969 Q116.4063,346.75 115.1094,346.75 Q113.5938,346.75 112.3906,346.125 Q111.4063,345.625 110.7188,344.5625 Q110.0313,343.4844 110.0313,342.2031 L110.0313,341.0469 Q110.0313,339.7188 110.6406,338.5781 Q111.2656,337.4219 112.3594,336.8125 Q113.4531,336.1875 114.6875,336.1875 Q115.4219,336.1875 116.0625,336.3594 Q116.7188,336.5156 117.2656,336.875 Z " fill="#000000"/><text fill="#000000" font-family="sans-serif" font-size="14" lengthAdjust="spacing" textLength="122" x="128.5" y="346.7969">PersistenceContext</text><line style="stroke:#181818;stroke-width:0.5;" x1="100.5" x2="252.5" y1="357" y2="357"/><line style="stroke:#181818;stroke-width:0.5;" x1="100.5" x2="252.5" y1="365" y2="365"/><ellipse cx="110.5" cy="379.8105" fill="#84BE84" rx="3" ry="3" style="stroke:#038048;stroke-width:1.0;"/><text fill="#000000" font-family="sans-serif" font-size="14" lengthAdjust="spacing" textLength="84" x="119.5" y="384.1074">repositories()</text></g><!--class RepositoryFactory--><g id="elem_RepositoryFactory"><rect codeLine="23" fill="#F1F1F1" height="103.8633" id="RepositoryFactory" rx="2.5" ry="2.5" style="stroke:#181818;stroke-width:0.5;" width="231" x="61" y="461"/><ellipse cx="114.25" cy="477" fill="#ADD1B2" rx="11" ry="11" style="stroke:#181818;stroke-width:1.0;"/><path d="M117.0156,472.875 Q117.1719,472.6563 117.3594,472.5469 Q117.5469,472.4375 117.7656,472.4375 Q118.1406,472.4375 118.375,472.7031 Q118.6094,472.9531 118.6094,473.5625 L118.6094,475.0156 Q118.6094,475.625 118.375,475.8906 Q118.1406,476.1563 117.7656,476.1563 Q117.4219,476.1563 117.2188,475.9531 Q117.0156,475.7656 116.9063,475.25 Q116.8594,474.8906 116.6719,474.7031 Q116.3438,474.3281 115.7344,474.1094 Q115.125,473.8906 114.5,473.8906 Q113.7344,473.8906 113.0938,474.2188 Q112.4688,474.5469 111.9688,475.2969 Q111.4844,476.0469 111.4844,477.0781 L111.4844,478.1719 Q111.4844,479.4063 112.375,480.2344 Q113.2656,481.0469 114.8594,481.0469 Q115.7969,481.0469 116.4531,480.7969 Q116.8438,480.6406 117.2656,480.2031 Q117.5313,479.9375 117.6719,479.8594 Q117.8281,479.7813 118.0313,479.7813 Q118.3594,479.7813 118.6094,480.0469 Q118.875,480.2969 118.875,480.6406 Q118.875,480.9844 118.5313,481.3906 Q118.0313,481.9688 117.2344,482.2969 Q116.1563,482.75 114.8594,482.75 Q113.3438,482.75 112.1406,482.125 Q111.1563,481.625 110.4688,480.5625 Q109.7813,479.4844 109.7813,478.2031 L109.7813,477.0469 Q109.7813,475.7188 110.3906,474.5781 Q111.0156,473.4219 112.1094,472.8125 Q113.2031,472.1875 114.4375,472.1875 Q115.1719,472.1875 115.8125,472.3594 Q116.4688,472.5156 117.0156,472.875 Z " fill="#000000"/><text fill="#000000" font-family="sans-serif" font-size="14" lengthAdjust="spacing" textLength="116" x="134.75" y="482.7969">RepositoryFactory</text><line style="stroke:#181818;stroke-width:0.5;" x1="62" x2="291" y1="493" y2="493"/><line style="stroke:#181818;stroke-width:0.5;" x1="62" x2="291" y1="501" y2="501"/><ellipse cx="72" cy="515.8105" fill="#84BE84" rx="3" ry="3" style="stroke:#038048;stroke-width:1.0;"/><text fill="#000000" font-family="sans-serif" font-size="14" lengthAdjust="spacing" textLength="50" x="81" y="520.1074">create()</text><ellipse cx="72" cy="534.4316" fill="#84BE84" rx="3" ry="3" style="stroke:#038048;stroke-width:1.0;"/><text fill="#000000" font-family="sans-serif" font-size="14" lengthAdjust="spacing" textLength="169" x="81" y="538.7285">newTransactionalContext()</text><ellipse cx="72" cy="553.0527" fill="#84BE84" rx="3" ry="3" style="stroke:#038048;stroke-width:1.0;"/><text fill="#000000" font-family="sans-serif" font-size="14" lengthAdjust="spacing" textLength="205" x="81" y="557.3496">create(TransactionalContext ctx)</text></g><!--class TransactionalContext--><g id="elem_TransactionalContext"><rect codeLine="32" fill="#F1F1F1" height="85.2422" id="TransactionalContext" rx="2.5" ry="2.5" style="stroke:#181818;stroke-width:0.5;" width="166" x="288.5" y="316"/><ellipse cx="303.5" cy="332" fill="#ADD1B2" rx="11" ry="11" style="stroke:#181818;stroke-width:1.0;"/><path d="M306.2656,327.875 Q306.4219,327.6563 306.6094,327.5469 Q306.7969,327.4375 307.0156,327.4375 Q307.3906,327.4375 307.625,327.7031 Q307.8594,327.9531 307.8594,328.5625 L307.8594,330.0156 Q307.8594,330.625 307.625,330.8906 Q307.3906,331.1563 307.0156,331.1563 Q306.6719,331.1563 306.4688,330.9531 Q306.2656,330.7656 306.1563,330.25 Q306.1094,329.8906 305.9219,329.7031 Q305.5938,329.3281 304.9844,329.1094 Q304.375,328.8906 303.75,328.8906 Q302.9844,328.8906 302.3438,329.2188 Q301.7188,329.5469 301.2188,330.2969 Q300.7344,331.0469 300.7344,332.0781 L300.7344,333.1719 Q300.7344,334.4063 301.625,335.2344 Q302.5156,336.0469 304.1094,336.0469 Q305.0469,336.0469 305.7031,335.7969 Q306.0938,335.6406 306.5156,335.2031 Q306.7813,334.9375 306.9219,334.8594 Q307.0781,334.7813 307.2813,334.7813 Q307.6094,334.7813 307.8594,335.0469 Q308.125,335.2969 308.125,335.6406 Q308.125,335.9844 307.7813,336.3906 Q307.2813,336.9688 306.4844,337.2969 Q305.4063,337.75 304.1094,337.75 Q302.5938,337.75 301.3906,337.125 Q300.4063,336.625 299.7188,335.5625 Q299.0313,334.4844 299.0313,333.2031 L299.0313,332.0469 Q299.0313,330.7188 299.6406,329.5781 Q300.2656,328.4219 301.3594,327.8125 Q302.4531,327.1875 303.6875,327.1875 Q304.4219,327.1875 305.0625,327.3594 Q305.7188,327.5156 306.2656,327.875 Z " fill="#000000"/><text fill="#000000" font-family="sans-serif" font-size="14" lengthAdjust="spacing" textLength="134" x="317.5" y="337.7969">TransactionalContext</text><line style="stroke:#181818;stroke-width:0.5;" x1="289.5" x2="453.5" y1="348" y2="348"/><line style="stroke:#181818;stroke-width:0.5;" x1="289.5" x2="453.5" y1="356" y2="356"/><ellipse cx="299.5" cy="370.8105" fill="#84BE84" rx="3" ry="3" style="stroke:#038048;stroke-width:1.0;"/><text fill="#000000" font-family="sans-serif" font-size="14" lengthAdjust="spacing" textLength="120" x="308.5" y="375.1074">beginTransaction()</text><ellipse cx="299.5" cy="389.4316" fill="#84BE84" rx="3" ry="3" style="stroke:#038048;stroke-width:1.0;"/><text fill="#000000" font-family="sans-serif" font-size="14" lengthAdjust="spacing" textLength="54" x="308.5" y="393.7285">commit()</text></g><!--class SharedBoard--><g id="elem_SharedBoard"><rect codeLine="37" fill="#F1F1F1" height="48" id="SharedBoard" rx="2.5" ry="2.5" style="stroke:#181818;stroke-width:0.5;" width="116" x="489.5" y="334.5"/><ellipse cx="504.5" cy="350.5" fill="#ADD1B2" rx="11" ry="11" style="stroke:#181818;stroke-width:1.0;"/><path d="M507.2656,346.375 Q507.4219,346.1563 507.6094,346.0469 Q507.7969,345.9375 508.0156,345.9375 Q508.3906,345.9375 508.625,346.2031 Q508.8594,346.4531 508.8594,347.0625 L508.8594,348.5156 Q508.8594,349.125 508.625,349.3906 Q508.3906,349.6563 508.0156,349.6563 Q507.6719,349.6563 507.4688,349.4531 Q507.2656,349.2656 507.1563,348.75 Q507.1094,348.3906 506.9219,348.2031 Q506.5938,347.8281 505.9844,347.6094 Q505.375,347.3906 504.75,347.3906 Q503.9844,347.3906 503.3438,347.7188 Q502.7188,348.0469 502.2188,348.7969 Q501.7344,349.5469 501.7344,350.5781 L501.7344,351.6719 Q501.7344,352.9063 502.625,353.7344 Q503.5156,354.5469 505.1094,354.5469 Q506.0469,354.5469 506.7031,354.2969 Q507.0938,354.1406 507.5156,353.7031 Q507.7813,353.4375 507.9219,353.3594 Q508.0781,353.2813 508.2813,353.2813 Q508.6094,353.2813 508.8594,353.5469 Q509.125,353.7969 509.125,354.1406 Q509.125,354.4844 508.7813,354.8906 Q508.2813,355.4688 507.4844,355.7969 Q506.4063,356.25 505.1094,356.25 Q503.5938,356.25 502.3906,355.625 Q501.4063,355.125 500.7188,354.0625 Q500.0313,352.9844 500.0313,351.7031 L500.0313,350.5469 Q500.0313,349.2188 500.6406,348.0781 Q501.2656,346.9219 502.3594,346.3125 Q503.4531,345.6875 504.6875,345.6875 Q505.4219,345.6875 506.0625,345.8594 Q506.7188,346.0156 507.2656,346.375 Z " fill="#000000"/><text fill="#000000" font-family="sans-serif" font-size="14" lengthAdjust="spacing" textLength="84" x="518.5" y="356.2969">SharedBoard</text><line style="stroke:#181818;stroke-width:0.5;" x1="490.5" x2="604.5" y1="366.5" y2="366.5"/><line style="stroke:#181818;stroke-width:0.5;" x1="490.5" x2="604.5" y1="374.5" y2="374.5"/></g><!--class AuditLog--><g id="elem_AuditLog"><rect codeLine="40" fill="#F1F1F1" height="48" id="AuditLog" rx="2.5" ry="2.5" style="stroke:#181818;stroke-width:0.5;" width="88" x="503.5" y="489"/><ellipse cx="518.5" cy="505" fill="#ADD1B2" rx="11" ry="11" style="stroke:#181818;stroke-width:1.0;"/><path d="M521.2656,500.875 Q521.4219,500.6563 521.6094,500.5469 Q521.7969,500.4375 522.0156,500.4375 Q522.3906,500.4375 522.625,500.7031 Q522.8594,500.9531 522.8594,501.5625 L522.8594,503.0156 Q522.8594,503.625 522.625,503.8906 Q522.3906,504.1563 522.0156,504.1563 Q521.6719,504.1563 521.4688,503.9531 Q521.2656,503.7656 521.1563,503.25 Q521.1094,502.8906 520.9219,502.7031 Q520.5938,502.3281 519.9844,502.1094 Q519.375,501.8906 518.75,501.8906 Q517.9844,501.8906 517.3438,502.2188 Q516.7188,502.5469 516.2188,503.2969 Q515.7344,504.0469 515.7344,505.0781 L515.7344,506.1719 Q515.7344,507.4063 516.625,508.2344 Q517.5156,509.0469 519.1094,509.0469 Q520.0469,509.0469 520.7031,508.7969 Q521.0938,508.6406 521.5156,508.2031 Q521.7813,507.9375 521.9219,507.8594 Q522.0781,507.7813 522.2813,507.7813 Q522.6094,507.7813 522.8594,508.0469 Q523.125,508.2969 523.125,508.6406 Q523.125,508.9844 522.7813,509.3906 Q522.2813,509.9688 521.4844,510.2969 Q520.4063,510.75 519.1094,510.75 Q517.5938,510.75 516.3906,510.125 Q515.4063,509.625 514.7188,508.5625 Q514.0313,507.4844 514.0313,506.2031 L514.0313,505.0469 Q514.0313,503.7188 514.6406,502.5781 Q515.2656,501.4219 516.3594,500.8125 Q517.4531,500.1875 518.6875,500.1875 Q519.4219,500.1875 520.0625,500.3594 Q520.7188,500.5156 521.2656,500.875 Z " fill="#000000"/><text fill="#000000" font-family="sans-serif" font-size="14" lengthAdjust="spacing" textLength="56" x="532.5" y="510.7969">AuditLog</text><line style="stroke:#181818;stroke-width:0.5;" x1="504.5" x2="590.5" y1="521" y2="521"/><line style="stroke:#181818;stroke-width:0.5;" x1="504.5" x2="590.5" y1="529" y2="529"/></g><!--class Change--><g id="elem_Change"><rect codeLine="43" fill="#F1F1F1" height="48" id="Change" rx="2.5" ry="2.5" style="stroke:#181818;stroke-width:0.5;" width="82" x="506.5" y="643.5"/><ellipse cx="521.5" cy="659.5" fill="#ADD1B2" rx="11" ry="11" style="stroke:#181818;stroke-width:1.0;"/><path d="M524.2656,655.375 Q524.4219,655.1563 524.6094,655.0469 Q524.7969,654.9375 525.0156,654.9375 Q525.3906,654.9375 525.625,655.2031 Q525.8594,655.4531 525.8594,656.0625 L525.8594,657.5156 Q525.8594,658.125 525.625,658.3906 Q525.3906,658.6563 525.0156,658.6563 Q524.6719,658.6563 524.4688,658.4531 Q524.2656,658.2656 524.1563,657.75 Q524.1094,657.3906 523.9219,657.2031 Q523.5938,656.8281 522.9844,656.6094 Q522.375,656.3906 521.75,656.3906 Q520.9844,656.3906 520.3438,656.7188 Q519.7188,657.0469 519.2188,657.7969 Q518.7344,658.5469 518.7344,659.5781 L518.7344,660.6719 Q518.7344,661.9063 519.625,662.7344 Q520.5156,663.5469 522.1094,663.5469 Q523.0469,663.5469 523.7031,663.2969 Q524.0938,663.1406 524.5156,662.7031 Q524.7813,662.4375 524.9219,662.3594 Q525.0781,662.2813 525.2813,662.2813 Q525.6094,662.2813 525.8594,662.5469 Q526.125,662.7969 526.125,663.1406 Q526.125,663.4844 525.7813,663.8906 Q525.2813,664.4688 524.4844,664.7969 Q523.4063,665.25 522.1094,665.25 Q520.5938,665.25 519.3906,664.625 Q518.4063,664.125 517.7188,663.0625 Q517.0313,661.9844 517.0313,660.7031 L517.0313,659.5469 Q517.0313,658.2188 517.6406,657.0781 Q518.2656,655.9219 519.3594,655.3125 Q520.4531,654.6875 521.6875,654.6875 Q522.4219,654.6875 523.0625,654.8594 Q523.7188,655.0156 524.2656,655.375 Z " fill="#000000"/><text fill="#000000" font-family="sans-serif" font-size="14" lengthAdjust="spacing" textLength="50" x="535.5" y="665.2969">Change</text><line style="stroke:#181818;stroke-width:0.5;" x1="507.5" x2="587.5" y1="675.5" y2="675.5"/><line style="stroke:#181818;stroke-width:0.5;" x1="507.5" x2="587.5" y1="683.5" y2="683.5"/></g><!--link ViewHistorySharedBoardUI to SharedBoardController--><g id="link_ViewHistorySharedBoardUI_SharedBoardController"><path codeLine="46" d="M371.5,55.16 C371.5,69.91 371.5,89.92 371.5,109.79 " fill="none" id="ViewHistorySharedBoardUI-to-SharedBoardController" style="stroke:#181818;stroke-width:1.0;"/><polygon fill="#181818" points="371.5,114.83,375.5,105.83,371.5,109.83,367.5,105.83,371.5,114.83" style="stroke:#181818;stroke-width:1.0;"/></g><!--link SharedBoardController to PersistenceContext--><g id="link_SharedBoardController_PersistenceContext"><path codeLine="47" d="M292.19,256.05 C266.58,278.51 239.23,302.49 217.56,321.49 " fill="none" id="SharedBoardController-to-PersistenceContext" style="stroke:#181818;stroke-width:1.0;"/><polygon fill="#181818" points="213.58,324.98,222.988,322.0663,217.3438,321.6885,217.7216,316.0443,213.58,324.98" style="stroke:#181818;stroke-width:1.0;"/></g><!--link SharedBoardController to TransactionalContext--><g id="link_SharedBoardController_TransactionalContext"><path codeLine="48" d="M371.5,256.05 C371.5,274.49 371.5,293.95 371.5,310.84 " fill="none" id="SharedBoardController-to-TransactionalContext" style="stroke:#181818;stroke-width:1.0;"/><polygon fill="#181818" points="371.5,316,375.5,307,371.5,311,367.5,307,371.5,316" style="stroke:#181818;stroke-width:1.0;"/></g><!--link SharedBoardService to SharedBoardRepository--><g id="link_SharedBoardService_SharedBoardRepository"><path codeLine="50" d="M176.5,710.3 C176.5,728.2 176.5,748.64 176.5,764.71 " fill="none" id="SharedBoardService-to-SharedBoardRepository" style="stroke:#181818;stroke-width:1.0;"/><polygon fill="#181818" points="176.5,769.99,180.5,760.99,176.5,764.99,172.5,760.99,176.5,769.99" style="stroke:#181818;stroke-width:1.0;"/></g><!--link SharedBoardController to SharedBoard--><g id="link_SharedBoardController_SharedBoard"><path codeLine="51" d="M443.09,256.05 C470.14,282.34 499.35,310.71 519.97,330.75 " fill="none" id="SharedBoardController-to-SharedBoard" style="stroke:#181818;stroke-width:1.0;"/><polygon fill="#181818" points="523.72,334.39,520.0548,325.2485,520.1348,330.9048,514.4785,330.9848,523.72,334.39" style="stroke:#181818;stroke-width:1.0;"/></g><!--link SharedBoard to AuditLog--><g id="link_SharedBoard_AuditLog"><path codeLine="52" d="M547.5,382.66 C547.5,409.65 547.5,454.24 547.5,483.37 " fill="none" id="SharedBoard-to-AuditLog" style="stroke:#181818;stroke-width:1.0;"/><polygon fill="#181818" points="547.5,488.62,551.5,479.62,547.5,483.62,543.5,479.62,547.5,488.62" style="stroke:#181818;stroke-width:1.0;"/></g><!--link AuditLog to Change--><g id="link_AuditLog_Change"><path codeLine="53" d="M547.5,537.16 C547.5,564.15 547.5,608.74 547.5,637.87 " fill="none" id="AuditLog-to-Change" style="stroke:#181818;stroke-width:1.0;"/><polygon fill="#181818" points="547.5,643.12,551.5,634.12,547.5,638.12,543.5,634.12,547.5,643.12" style="stroke:#181818;stroke-width:1.0;"/></g><!--link PersistenceContext to RepositoryFactory--><g id="link_PersistenceContext_RepositoryFactory"><path codeLine="55" d="M176.5,392.22 C176.5,410.69 176.5,434.29 176.5,455.65 " fill="none" id="PersistenceContext-to-RepositoryFactory" style="stroke:#181818;stroke-width:1.0;"/><polygon fill="#181818" points="176.5,460.74,180.5,451.74,176.5,455.74,172.5,451.74,176.5,460.74" style="stroke:#181818;stroke-width:1.0;"/></g><!--link RepositoryFactory to SharedBoardService--><g id="link_RepositoryFactory_SharedBoardService"><path codeLine="57" d="M176.5,565.2 C176.5,582.77 176.5,602.33 176.5,619.54 " fill="none" id="RepositoryFactory-to-SharedBoardService" style="stroke:#181818;stroke-width:1.0;"/><polygon fill="#181818" points="176.5,624.8,180.5,615.8,176.5,619.8,172.5,615.8,176.5,624.8" style="stroke:#181818;stroke-width:1.0;"/></g><!--SRC=[VL9DJm8n4BttL_Jc6a3k7am0OpGnXWXu7zfnQT9jDstv2l6_ErjsGtKBfqxVUtdJUPsxJGYrVnoFQmqcR2lz86mr5Xgy7qa5fOEAiNZbNmhthye7wuwB3JYKKmjEhjvExAUJ9FZCck2irkXERE1XXmbN93Ntb_gU3KeC4wqBga3ALIqXuDAsNOjdkl466lAvizzA8w_Fvv3FDc1Av28UGtwpGqBwwN7bqHMTtvOkRKrQvUVWWXAgfd1ocXkDSg4iqEsKm5ESxWFtjpDP_yaarIRkStIUua4Zi8aS3u7S7TRMAyfCeK_5dnr-V07H7AGL3YdH9d63-wK3uubIre1k_Hgg5ULeBi8Xjg2FWJLuJ0U-D4os9ET23rbZgKp2nRwsgbGeycacbfEjLE7TbWbqNeW8NDjSFXezvNUMPL6Iz-E-AisDoLX_6_w_uf9Ptlg_FbL5hWk3TKL4ptamrf-0sDvYCDQ3IDP__2y0]--></g></svg>