<?xml version="1.0" encoding="UTF-8" standalone="no"?><svg xmlns="http://www.w3.org/2000/svg" xmlns:xlink="http://www.w3.org/1999/xlink" contentStyleType="text/css" height="540px" preserveAspectRatio="none" style="width:1568px;height:540px;background:#FFFFFF;" version="1.1" viewBox="0 0 1568 540" width="1568px" zoomAndPan="magnify"><defs/><g><rect fill="#FFFFFF" height="337.2344" style="stroke:#181818;stroke-width:1.0;" width="10" x="29.5" y="92.2813"/><rect fill="#FFFFFF" height="57.0469" style="stroke:#181818;stroke-width:1.0;" width="10" x="253.5" y="112.8047"/><rect fill="#FFFFFF" height="28.5234" style="stroke:#181818;stroke-width:1.0;" width="10" x="418" y="141.3281"/><rect fill="#FFFFFF" height="28.5234" style="stroke:#181818;stroke-width:1.0;" width="10" x="614.5" y="169.8516"/><rect fill="#FFFFFF" height="211.6172" style="stroke:#181818;stroke-width:1.0;" width="10" x="614.5" y="226.8984"/><rect fill="#FFFFFF" height="145.5703" style="stroke:#181818;stroke-width:1.0;" width="10" x="988.5" y="255.4219"/><rect fill="#FFFFFF" height="58.5234" style="stroke:#181818;stroke-width:1.0;" width="10" x="1160.5" y="342.4688"/><rect fill="#FFFFFF" height="30" style="stroke:#181818;stroke-width:1.0;" width="10" x="1393.5" y="283.9453"/><rect fill="#FFFFFF" height="30" style="stroke:#181818;stroke-width:1.0;" width="10" x="1502" y="370.9922"/><line style="stroke:#181818;stroke-width:0.5;stroke-dasharray:5.0,5.0;" x1="34" x2="34" y1="82.2813" y2="447.5156"/><line style="stroke:#181818;stroke-width:0.5;stroke-dasharray:5.0,5.0;" x1="258" x2="258" y1="82.2813" y2="447.5156"/><line style="stroke:#181818;stroke-width:0.5;stroke-dasharray:5.0,5.0;" x1="423" x2="423" y1="82.2813" y2="447.5156"/><line style="stroke:#181818;stroke-width:0.5;stroke-dasharray:5.0,5.0;" x1="619" x2="619" y1="82.2813" y2="447.5156"/><line style="stroke:#181818;stroke-width:0.5;stroke-dasharray:5.0,5.0;" x1="993" x2="993" y1="82.2813" y2="447.5156"/><line style="stroke:#181818;stroke-width:0.5;stroke-dasharray:5.0,5.0;" x1="1165.5" x2="1165.5" y1="82.2813" y2="447.5156"/><line style="stroke:#181818;stroke-width:0.5;stroke-dasharray:5.0,5.0;" x1="1398.5" x2="1398.5" y1="82.2813" y2="447.5156"/><line style="stroke:#181818;stroke-width:0.5;stroke-dasharray:5.0,5.0;" x1="1506.5" x2="1506.5" y1="82.2813" y2="447.5156"/><text fill="#000000" font-family="sans-serif" font-size="14" lengthAdjust="spacing" textLength="53" x="5" y="79.3145">Teacher</text><ellipse cx="34.5" cy="15.1406" fill="#E2E2F0" rx="8" ry="8" style="stroke:#181818;stroke-width:0.5;"/><path d="M34.5,23.1406 L34.5,50.1406 M21.5,31.1406 L47.5,31.1406 M34.5,50.1406 L21.5,65.1406 M34.5,50.1406 L47.5,65.1406 " fill="none" style="stroke:#181818;stroke-width:0.5;"/><text fill="#000000" font-family="sans-serif" font-size="14" lengthAdjust="spacing" textLength="53" x="5" y="459.1895">Teacher</text><ellipse cx="34.5" cy="470.6563" fill="#E2E2F0" rx="8" ry="8" style="stroke:#181818;stroke-width:0.5;"/><path d="M34.5,478.6563 L34.5,505.6563 M21.5,486.6563 L47.5,486.6563 M34.5,505.6563 L21.5,520.6563 M34.5,505.6563 L47.5,520.6563 " fill="none" style="stroke:#181818;stroke-width:0.5;"/><rect fill="#E2E2F0" height="45.2813" rx="2.5" ry="2.5" style="stroke:#181818;stroke-width:0.5;" width="109" x="204" y="36"/><text fill="#000000" font-family="sans-serif" font-size="14" font-style="italic" lengthAdjust="spacing" textLength="95" x="211" y="55.6738">«presentation»</text><text fill="#000000" font-family="sans-serif" font-size="14" lengthAdjust="spacing" textLength="45" x="236" y="71.3145">:UserUI</text><rect fill="#E2E2F0" height="45.2813" rx="2.5" ry="2.5" style="stroke:#181818;stroke-width:0.5;" width="109" x="204" y="446.5156"/><text fill="#000000" font-family="sans-serif" font-size="14" font-style="italic" lengthAdjust="spacing" textLength="95" x="211" y="466.1895">«presentation»</text><text fill="#000000" font-family="sans-serif" font-size="14" lengthAdjust="spacing" textLength="45" x="236" y="481.8301">:UserUI</text><rect fill="#E2E2F0" height="45.2813" rx="2.5" ry="2.5" style="stroke:#181818;stroke-width:0.5;" width="200" x="323" y="36"/><text fill="#000000" font-family="sans-serif" font-size="14" font-style="italic" lengthAdjust="spacing" textLength="95" x="375.5" y="55.6738">«presentation»</text><text fill="#000000" font-family="sans-serif" font-size="14" lengthAdjust="spacing" textLength="186" x="330" y="71.3145">:ScheduleExtraordinaryAction</text><rect fill="#E2E2F0" height="45.2813" rx="2.5" ry="2.5" style="stroke:#181818;stroke-width:0.5;" width="200" x="323" y="446.5156"/><text fill="#000000" font-family="sans-serif" font-size="14" font-style="italic" lengthAdjust="spacing" textLength="95" x="375.5" y="466.1895">«presentation»</text><text fill="#000000" font-family="sans-serif" font-size="14" lengthAdjust="spacing" textLength="186" x="330" y="481.8301">:ScheduleExtraordinaryAction</text><rect fill="#E2E2F0" height="45.2813" rx="2.5" ry="2.5" style="stroke:#181818;stroke-width:0.5;" width="173" x="533" y="36"/><text fill="#000000" font-family="sans-serif" font-size="14" font-style="italic" lengthAdjust="spacing" textLength="95" x="572" y="55.6738">«presentation»</text><text fill="#000000" font-family="sans-serif" font-size="14" lengthAdjust="spacing" textLength="159" x="540" y="71.3145">:ScheduleExtraordinaryUI</text><rect fill="#E2E2F0" height="45.2813" rx="2.5" ry="2.5" style="stroke:#181818;stroke-width:0.5;" width="173" x="533" y="446.5156"/><text fill="#000000" font-family="sans-serif" font-size="14" font-style="italic" lengthAdjust="spacing" textLength="95" x="572" y="466.1895">«presentation»</text><text fill="#000000" font-family="sans-serif" font-size="14" lengthAdjust="spacing" textLength="159" x="540" y="481.8301">:ScheduleExtraordinaryUI</text><rect fill="#E2E2F0" height="45.2813" rx="2.5" ry="2.5" style="stroke:#181818;stroke-width:0.5;" width="123" x="932" y="36"/><text fill="#000000" font-family="sans-serif" font-size="14" font-style="italic" lengthAdjust="spacing" textLength="84" x="951.5" y="55.6738">«application»</text><text fill="#000000" font-family="sans-serif" font-size="14" lengthAdjust="spacing" textLength="109" x="939" y="71.3145">:ClasseController</text><rect fill="#E2E2F0" height="45.2813" rx="2.5" ry="2.5" style="stroke:#181818;stroke-width:0.5;" width="123" x="932" y="446.5156"/><text fill="#000000" font-family="sans-serif" font-size="14" font-style="italic" lengthAdjust="spacing" textLength="84" x="951.5" y="466.1895">«application»</text><text fill="#000000" font-family="sans-serif" font-size="14" lengthAdjust="spacing" textLength="109" x="939" y="481.8301">:ClasseController</text><rect fill="#E2E2F0" height="45.2813" rx="2.5" ry="2.5" style="stroke:#181818;stroke-width:0.5;" width="108" x="1111.5" y="36"/><text fill="#000000" font-family="sans-serif" font-size="14" font-style="italic" lengthAdjust="spacing" textLength="84" x="1123.5" y="55.6738">«application»</text><text fill="#000000" font-family="sans-serif" font-size="14" lengthAdjust="spacing" textLength="94" x="1118.5" y="71.3145">:ClasseService</text><rect fill="#E2E2F0" height="45.2813" rx="2.5" ry="2.5" style="stroke:#181818;stroke-width:0.5;" width="108" x="1111.5" y="446.5156"/><text fill="#000000" font-family="sans-serif" font-size="14" font-style="italic" lengthAdjust="spacing" textLength="84" x="1123.5" y="466.1895">«application»</text><text fill="#000000" font-family="sans-serif" font-size="14" lengthAdjust="spacing" textLength="94" x="1118.5" y="481.8301">:ClasseService</text><rect fill="#E2E2F0" height="45.2813" rx="2.5" ry="2.5" style="stroke:#181818;stroke-width:0.5;" width="76" x="1360.5" y="36"/><text fill="#000000" font-family="sans-serif" font-size="14" font-style="italic" lengthAdjust="spacing" textLength="62" x="1367.5" y="55.6738">«domain»</text><text fill="#000000" font-family="sans-serif" font-size="14" lengthAdjust="spacing" textLength="43" x="1377" y="71.3145">Classe</text><rect fill="#E2E2F0" height="45.2813" rx="2.5" ry="2.5" style="stroke:#181818;stroke-width:0.5;" width="76" x="1360.5" y="446.5156"/><text fill="#000000" font-family="sans-serif" font-size="14" font-style="italic" lengthAdjust="spacing" textLength="62" x="1367.5" y="466.1895">«domain»</text><text fill="#000000" font-family="sans-serif" font-size="14" lengthAdjust="spacing" textLength="43" x="1377" y="481.8301">Classe</text><text fill="#000000" font-family="sans-serif" font-size="14" font-style="italic" lengthAdjust="spacing" textLength="79" x="1464.5" y="63.6738">«repository»</text><text fill="#000000" font-family="sans-serif" font-size="14" lengthAdjust="spacing" textLength="115" x="1446.5" y="79.3145">:ClasseRepository</text><path d="M1489,15 C1489,5 1507,5 1507,5 C1507,5 1525,5 1525,15 L1525,41 C1525,51 1507,51 1507,51 C1507,51 1489,51 1489,41 L1489,15 " fill="#E2E2F0" style="stroke:#181818;stroke-width:1.5;"/><path d="M1489,15 C1489,25 1507,25 1507,25 C1507,25 1525,25 1525,15 " fill="none" style="stroke:#181818;stroke-width:1.5;"/><text fill="#000000" font-family="sans-serif" font-size="14" font-style="italic" lengthAdjust="spacing" textLength="79" x="1464.5" y="459.1895">«repository»</text><text fill="#000000" font-family="sans-serif" font-size="14" lengthAdjust="spacing" textLength="115" x="1446.5" y="474.8301">:ClasseRepository</text><path d="M1489,487.7969 C1489,477.7969 1507,477.7969 1507,477.7969 C1507,477.7969 1525,477.7969 1525,487.7969 L1525,513.7969 C1525,523.7969 1507,523.7969 1507,523.7969 C1507,523.7969 1489,523.7969 1489,513.7969 L1489,487.7969 " fill="#E2E2F0" style="stroke:#181818;stroke-width:1.5;"/><path d="M1489,487.7969 C1489,497.7969 1507,497.7969 1507,497.7969 C1507,497.7969 1525,497.7969 1525,487.7969 " fill="none" style="stroke:#181818;stroke-width:1.5;"/><rect fill="#FFFFFF" height="337.2344" style="stroke:#181818;stroke-width:1.0;" width="10" x="29.5" y="92.2813"/><rect fill="#FFFFFF" height="57.0469" style="stroke:#181818;stroke-width:1.0;" width="10" x="253.5" y="112.8047"/><rect fill="#FFFFFF" height="28.5234" style="stroke:#181818;stroke-width:1.0;" width="10" x="418" y="141.3281"/><rect fill="#FFFFFF" height="28.5234" style="stroke:#181818;stroke-width:1.0;" width="10" x="614.5" y="169.8516"/><rect fill="#FFFFFF" height="211.6172" style="stroke:#181818;stroke-width:1.0;" width="10" x="614.5" y="226.8984"/><rect fill="#FFFFFF" height="145.5703" style="stroke:#181818;stroke-width:1.0;" width="10" x="988.5" y="255.4219"/><rect fill="#FFFFFF" height="58.5234" style="stroke:#181818;stroke-width:1.0;" width="10" x="1160.5" y="342.4688"/><rect fill="#FFFFFF" height="30" style="stroke:#181818;stroke-width:1.0;" width="10" x="1393.5" y="283.9453"/><rect fill="#FFFFFF" height="30" style="stroke:#181818;stroke-width:1.0;" width="10" x="1502" y="370.9922"/><polygon fill="#181818" points="241.5,108.8047,251.5,112.8047,241.5,116.8047,245.5,112.8047" style="stroke:#181818;stroke-width:1.0;"/><line style="stroke:#181818;stroke-width:1.0;" x1="39.5" x2="247.5" y1="112.8047" y2="112.8047"/><text fill="#000000" font-family="sans-serif" font-size="13" font-weight="bold" lengthAdjust="spacing" textLength="7" x="46.5" y="108.0498">1</text><text fill="#000000" font-family="sans-serif" font-size="13" lengthAdjust="spacing" textLength="184" x="57.5" y="108.0498">schedule an extraordinary class</text><polygon fill="#181818" points="406,137.3281,416,141.3281,406,145.3281,410,141.3281" style="stroke:#181818;stroke-width:1.0;"/><line style="stroke:#181818;stroke-width:1.0;" x1="263.5" x2="412" y1="141.3281" y2="141.3281"/><text fill="#000000" font-family="sans-serif" font-size="13" font-weight="bold" lengthAdjust="spacing" textLength="7" x="270.5" y="136.5732">2</text><text fill="#000000" font-family="sans-serif" font-size="13" lengthAdjust="spacing" textLength="54" x="281.5" y="136.5732">execute()</text><polygon fill="#181818" points="602.5,165.8516,612.5,169.8516,602.5,173.8516,606.5,169.8516" style="stroke:#181818;stroke-width:1.0;"/><line style="stroke:#181818;stroke-width:1.0;" x1="423" x2="608.5" y1="169.8516" y2="169.8516"/><text fill="#000000" font-family="sans-serif" font-size="13" font-weight="bold" lengthAdjust="spacing" textLength="7" x="430" y="165.0967">3</text><text fill="#000000" font-family="sans-serif" font-size="13" lengthAdjust="spacing" textLength="54" x="441" y="165.0967">doShow()</text><polygon fill="#181818" points="50.5,194.375,40.5,198.375,50.5,202.375,46.5,198.375" style="stroke:#181818;stroke-width:1.0;"/><line style="stroke:#181818;stroke-width:1.0;stroke-dasharray:2.0,2.0;" x1="44.5" x2="618.5" y1="198.375" y2="198.375"/><text fill="#000000" font-family="sans-serif" font-size="13" font-weight="bold" lengthAdjust="spacing" textLength="7" x="56.5" y="193.6201">4</text><text fill="#000000" font-family="sans-serif" font-size="13" lengthAdjust="spacing" textLength="199" x="67.5" y="193.6201">requests data (title, duration, hour)</text><polygon fill="#181818" points="602.5,222.8984,612.5,226.8984,602.5,230.8984,606.5,226.8984" style="stroke:#181818;stroke-width:1.0;"/><line style="stroke:#181818;stroke-width:1.0;" x1="39.5" x2="608.5" y1="226.8984" y2="226.8984"/><text fill="#000000" font-family="sans-serif" font-size="13" font-weight="bold" lengthAdjust="spacing" textLength="7" x="46.5" y="222.1436">5</text><text fill="#000000" font-family="sans-serif" font-size="13" lengthAdjust="spacing" textLength="125" x="57.5" y="222.1436">inputs requested data</text><polygon fill="#181818" points="976.5,251.4219,986.5,255.4219,976.5,259.4219,980.5,255.4219" style="stroke:#181818;stroke-width:1.0;"/><line style="stroke:#181818;stroke-width:1.0;" x1="624.5" x2="982.5" y1="255.4219" y2="255.4219"/><text fill="#000000" font-family="sans-serif" font-size="13" font-weight="bold" lengthAdjust="spacing" textLength="7" x="631.5" y="250.667">6</text><text fill="#000000" font-family="sans-serif" font-size="13" lengthAdjust="spacing" textLength="334" x="642.5" y="250.667">addClass(duration,time_hour,time_min,title,teacherProfile)</text><polygon fill="#181818" points="1381.5,279.9453,1391.5,283.9453,1381.5,287.9453,1385.5,283.9453" style="stroke:#181818;stroke-width:1.0;"/><line style="stroke:#181818;stroke-width:1.0;" x1="998.5" x2="1387.5" y1="283.9453" y2="283.9453"/><text fill="#000000" font-family="sans-serif" font-size="13" font-weight="bold" lengthAdjust="spacing" textLength="7" x="1005.5" y="279.1904">7</text><text fill="#000000" font-family="sans-serif" font-size="13" lengthAdjust="spacing" textLength="365" x="1016.5" y="279.1904">classe = new Classe(duration, classeTime, title, teacherProfile)</text><polygon fill="#181818" points="1148.5,338.4688,1158.5,342.4688,1148.5,346.4688,1152.5,342.4688" style="stroke:#181818;stroke-width:1.0;"/><line style="stroke:#181818;stroke-width:1.0;" x1="998.5" x2="1154.5" y1="342.4688" y2="342.4688"/><text fill="#000000" font-family="sans-serif" font-size="13" font-weight="bold" lengthAdjust="spacing" textLength="7" x="1005.5" y="337.7139">8</text><text fill="#000000" font-family="sans-serif" font-size="13" lengthAdjust="spacing" textLength="132" x="1016.5" y="337.7139">addNewClasse(classe)</text><polygon fill="#181818" points="1490,366.9922,1500,370.9922,1490,374.9922,1494,370.9922" style="stroke:#181818;stroke-width:1.0;"/><line style="stroke:#181818;stroke-width:1.0;" x1="1170.5" x2="1496" y1="370.9922" y2="370.9922"/><text fill="#000000" font-family="sans-serif" font-size="13" font-weight="bold" lengthAdjust="spacing" textLength="7" x="1177.5" y="366.2373">9</text><text fill="#000000" font-family="sans-serif" font-size="13" lengthAdjust="spacing" textLength="72" x="1188.5" y="366.2373">save(classe)</text><polygon fill="#181818" points="45.5,425.5156,35.5,429.5156,45.5,433.5156,41.5,429.5156" style="stroke:#181818;stroke-width:1.0;"/><line style="stroke:#181818;stroke-width:1.0;stroke-dasharray:2.0,2.0;" x1="39.5" x2="613.5" y1="429.5156" y2="429.5156"/><text fill="#000000" font-family="sans-serif" font-size="13" font-weight="bold" lengthAdjust="spacing" textLength="14" x="51.5" y="424.7607">10</text><text fill="#000000" font-family="sans-serif" font-size="13" lengthAdjust="spacing" textLength="152" x="69.5" y="424.7607">informs operation success</text><!--MD5=[2e4dc2c67d181133b524fb337d79ba3e]
@startuml
'https://plantuml.com/sequence-diagram

autonumber

actor teacher as "Teacher"

participant ":UserUI" as ui <<presentation>>
participant ":ScheduleExtraordinaryAction" as action <<presentation>>
participant ":ScheduleExtraordinaryUI" as addUi <<presentation>>
participant ":ClasseController" as controller <<application>>
participant ":ClasseService" as service <<application>>
participant "Classe" as classe <<domain>>
database ":ClasseRepository" as repository <<repository>>

activate teacher

teacher -> ui : schedule an extraordinary class
activate ui
ui -> action : execute()
activate action
action -> addUi : doShow()
deactivate action
deactivate ui

activate addUi
addUi - -> teacher : requests data (title, duration, hour)
deactivate addUi
teacher -> addUi : inputs requested data
activate addUi
addUi -> controller :addClass(duration,time_hour,time_min,title,teacherProfile)
activate controller
controller -> classe :classe = new Classe(duration, classeTime, title, teacherProfile)
activate classe
deactivate classe
controller -> service : addNewClasse(classe)
activate service
service -> repository : save(classe)
activate repository
deactivate repository
deactivate service
deactivate controller
addUi - -> teacher : informs operation success
deactivate teacher


@enduml

@startuml

autonumber

actor teacher as "Teacher"

participant ":UserUI" as ui <<presentation>>
participant ":ScheduleExtraordinaryAction" as action <<presentation>>
participant ":ScheduleExtraordinaryUI" as addUi <<presentation>>
participant ":ClasseController" as controller <<application>>
participant ":ClasseService" as service <<application>>
participant "Classe" as classe <<domain>>
database ":ClasseRepository" as repository <<repository>>

activate teacher

teacher -> ui : schedule an extraordinary class
activate ui
ui -> action : execute()
activate action
action -> addUi : doShow()
deactivate action
deactivate ui

activate addUi
addUi - -> teacher : requests data (title, duration, hour)
deactivate addUi
teacher -> addUi : inputs requested data
activate addUi
addUi -> controller :addClass(duration,time_hour,time_min,title,teacherProfile)
activate controller
controller -> classe :classe = new Classe(duration, classeTime, title, teacherProfile)
activate classe
deactivate classe
controller -> service : addNewClasse(classe)
activate service
service -> repository : save(classe)
activate repository
deactivate repository
deactivate service
deactivate controller
addUi - -> teacher : informs operation success
deactivate teacher


@enduml

PlantUML version 1.2022.12(Sun Oct 23 19:12:26 WEST 2022)
(GPL source distribution)
Java Runtime: OpenJDK Runtime Environment
JVM: OpenJDK 64-Bit Server VM
Default Encoding: Cp1252
Language: pt
Country: PT
--></g></svg>