<?xml version="1.0" encoding="us-ascii" standalone="no"?><svg xmlns="http://www.w3.org/2000/svg" xmlns:xlink="http://www.w3.org/1999/xlink" contentStyleType="text/css" height="465.5px" preserveAspectRatio="none" style="width:1066px;height:465px;background:#FFFFFF;" version="1.1" viewBox="0 0 1066 465" width="1066px" zoomAndPan="magnify"><defs/><g><!--entity ExamRepository--><g id="elem_ExamRepository"><path d="M22.75,438.5 C22.75,433.5 53.25,433.5 53.25,433.5 C53.25,433.5 83.75,433.5 83.75,438.5 L83.75,452.3105 C83.75,457.3105 53.25,457.3105 53.25,457.3105 C53.25,457.3105 22.75,457.3105 22.75,452.3105 L22.75,438.5 " fill="#F1F1F1" style="stroke:#181818;stroke-width:0.25;"/><path d="M22.75,438.5 C22.75,443.5 53.25,443.5 53.25,443.5 C53.25,443.5 83.75,443.5 83.75,438.5 " fill="none" style="stroke:#181818;stroke-width:0.25;"/><text fill="#000000" font-family="sans-serif" font-size="7" lengthAdjust="spacing" textLength="51" x="27.75" y="453.0537">ExamRepository</text></g><!--entity QuestionRepository--><g id="elem_QuestionRepository"><path d="M140,438.5 C140,433.5 176.25,433.5 176.25,433.5 C176.25,433.5 212.5,433.5 212.5,438.5 L212.5,452.3105 C212.5,457.3105 176.25,457.3105 176.25,457.3105 C176.25,457.3105 140,457.3105 140,452.3105 L140,438.5 " fill="#F1F1F1" style="stroke:#181818;stroke-width:0.25;"/><path d="M140,438.5 C140,443.5 176.25,443.5 176.25,443.5 C176.25,443.5 212.5,443.5 212.5,438.5 " fill="none" style="stroke:#181818;stroke-width:0.25;"/><text fill="#000000" font-family="sans-serif" font-size="7" lengthAdjust="spacing" textLength="62.5" x="145" y="453.0537">QuestionRepository</text></g><!--entity ShortAnswerRepository--><g id="elem_ShortAnswerRepository"><path d="M268.75,438.5 C268.75,433.5 310.75,433.5 310.75,433.5 C310.75,433.5 352.75,433.5 352.75,438.5 L352.75,452.3105 C352.75,457.3105 310.75,457.3105 310.75,457.3105 C310.75,457.3105 268.75,457.3105 268.75,452.3105 L268.75,438.5 " fill="#F1F1F1" style="stroke:#181818;stroke-width:0.25;"/><path d="M268.75,438.5 C268.75,443.5 310.75,443.5 310.75,443.5 C310.75,443.5 352.75,443.5 352.75,438.5 " fill="none" style="stroke:#181818;stroke-width:0.25;"/><text fill="#000000" font-family="sans-serif" font-size="7" lengthAdjust="spacing" textLength="74" x="273.75" y="453.0537">ShortAnswerRepository</text></g><!--entity MatchingRepository--><g id="elem_MatchingRepository"><path d="M409,438.5 C409,433.5 445.25,433.5 445.25,433.5 C445.25,433.5 481.5,433.5 481.5,438.5 L481.5,452.3105 C481.5,457.3105 445.25,457.3105 445.25,457.3105 C445.25,457.3105 409,457.3105 409,452.3105 L409,438.5 " fill="#F1F1F1" style="stroke:#181818;stroke-width:0.25;"/><path d="M409,438.5 C409,443.5 445.25,443.5 445.25,443.5 C445.25,443.5 481.5,443.5 481.5,438.5 " fill="none" style="stroke:#181818;stroke-width:0.25;"/><text fill="#000000" font-family="sans-serif" font-size="7" lengthAdjust="spacing" textLength="62.5" x="414" y="453.0537">MatchingRepository</text></g><!--entity TrueOrFalseRepository--><g id="elem_TrueOrFalseRepository"><path d="M537.5,438.5 C537.5,433.5 579.75,433.5 579.75,433.5 C579.75,433.5 622,433.5 622,438.5 L622,452.3105 C622,457.3105 579.75,457.3105 579.75,457.3105 C579.75,457.3105 537.5,457.3105 537.5,452.3105 L537.5,438.5 " fill="#F1F1F1" style="stroke:#181818;stroke-width:0.25;"/><path d="M537.5,438.5 C537.5,443.5 579.75,443.5 579.75,443.5 C579.75,443.5 622,443.5 622,438.5 " fill="none" style="stroke:#181818;stroke-width:0.25;"/><text fill="#000000" font-family="sans-serif" font-size="7" lengthAdjust="spacing" textLength="74.5" x="542.5" y="453.0537">TrueOrFalseRepository</text></g><!--entity MultipleChoiceRepository--><g id="elem_MultipleChoiceRepository"><path d="M678.25,438.5 C678.25,433.5 723.25,433.5 723.25,433.5 C723.25,433.5 768.25,433.5 768.25,438.5 L768.25,452.3105 C768.25,457.3105 723.25,457.3105 723.25,457.3105 C723.25,457.3105 678.25,457.3105 678.25,452.3105 L678.25,438.5 " fill="#F1F1F1" style="stroke:#181818;stroke-width:0.25;"/><path d="M678.25,438.5 C678.25,443.5 723.25,443.5 723.25,443.5 C723.25,443.5 768.25,443.5 768.25,438.5 " fill="none" style="stroke:#181818;stroke-width:0.25;"/><text fill="#000000" font-family="sans-serif" font-size="7" lengthAdjust="spacing" textLength="80" x="683.25" y="453.0537">MultipleChoiceRepository</text></g><!--entity MissingWordsRepository--><g id="elem_MissingWordsRepository"><path d="M824.25,438.5 C824.25,433.5 868.25,433.5 868.25,433.5 C868.25,433.5 912.25,433.5 912.25,438.5 L912.25,452.3105 C912.25,457.3105 868.25,457.3105 868.25,457.3105 C868.25,457.3105 824.25,457.3105 824.25,452.3105 L824.25,438.5 " fill="#F1F1F1" style="stroke:#181818;stroke-width:0.25;"/><path d="M824.25,438.5 C824.25,443.5 868.25,443.5 868.25,443.5 C868.25,443.5 912.25,443.5 912.25,438.5 " fill="none" style="stroke:#181818;stroke-width:0.25;"/><text fill="#000000" font-family="sans-serif" font-size="7" lengthAdjust="spacing" textLength="78" x="829.25" y="453.0537">MissingWordsRepository</text></g><!--entity NumericalRepository--><g id="elem_NumericalRepository"><path d="M968.25,438.5 C968.25,433.5 1005.75,433.5 1005.75,433.5 C1005.75,433.5 1043.25,433.5 1043.25,438.5 L1043.25,452.3105 C1043.25,457.3105 1005.75,457.3105 1005.75,457.3105 C1005.75,457.3105 968.25,457.3105 968.25,452.3105 L968.25,438.5 " fill="#F1F1F1" style="stroke:#181818;stroke-width:0.25;"/><path d="M968.25,438.5 C968.25,443.5 1005.75,443.5 1005.75,443.5 C1005.75,443.5 1043.25,443.5 1043.25,438.5 " fill="none" style="stroke:#181818;stroke-width:0.25;"/><text fill="#000000" font-family="sans-serif" font-size="7" lengthAdjust="spacing" textLength="65" x="973.25" y="453.0537">NumericalRepository</text></g><!--class TakeAutomaticFormativeExamUI--><g id="elem_TakeAutomaticFormativeExamUI"><rect codeLine="3" fill="#F1F1F1" height="24" id="TakeAutomaticFormativeExamUI" rx="1.25" ry="1.25" style="stroke:#181818;stroke-width:0.25;" width="117.5" x="546.5" y="3.5"/><ellipse cx="554" cy="11.5" fill="#ADD1B2" rx="5.5" ry="5.5" style="stroke:#181818;stroke-width:0.5;"/><path d="M555.3828,9.4375 Q555.4609,9.3281 555.5547,9.2734 Q555.6484,9.2188 555.7578,9.2188 Q555.9453,9.2188 556.0625,9.3516 Q556.1797,9.4766 556.1797,9.7813 L556.1797,10.5078 Q556.1797,10.8125 556.0625,10.9453 Q555.9453,11.0781 555.7578,11.0781 Q555.5859,11.0781 555.4844,10.9766 Q555.3828,10.8828 555.3281,10.625 Q555.3047,10.4453 555.2109,10.3516 Q555.0469,10.1641 554.7422,10.0547 Q554.4375,9.9453 554.125,9.9453 Q553.7422,9.9453 553.4219,10.1094 Q553.1094,10.2734 552.8594,10.6484 Q552.6172,11.0234 552.6172,11.5391 L552.6172,12.0859 Q552.6172,12.7031 553.0625,13.1172 Q553.5078,13.5234 554.3047,13.5234 Q554.7734,13.5234 555.1016,13.3984 Q555.2969,13.3203 555.5078,13.1016 Q555.6406,12.9688 555.7109,12.9297 Q555.7891,12.8906 555.8906,12.8906 Q556.0547,12.8906 556.1797,13.0234 Q556.3125,13.1484 556.3125,13.3203 Q556.3125,13.4922 556.1406,13.6953 Q555.8906,13.9844 555.4922,14.1484 Q554.9531,14.375 554.3047,14.375 Q553.5469,14.375 552.9453,14.0625 Q552.4531,13.8125 552.1094,13.2813 Q551.7656,12.7422 551.7656,12.1016 L551.7656,11.5234 Q551.7656,10.8594 552.0703,10.2891 Q552.3828,9.7109 552.9297,9.4063 Q553.4766,9.0938 554.0938,9.0938 Q554.4609,9.0938 554.7813,9.1797 Q555.1094,9.2578 555.3828,9.4375 Z " fill="#000000"/><text fill="#000000" font-family="sans-serif" font-size="7" lengthAdjust="spacing" textLength="101.5" x="561" y="14.3984">TakeAutomaticFormativeExamUI</text><line style="stroke:#181818;stroke-width:0.25;" x1="547" x2="663.5" y1="19.5" y2="19.5"/><line style="stroke:#181818;stroke-width:0.25;" x1="547" x2="663.5" y1="23.5" y2="23.5"/></g><!--class ExamController--><g id="elem_ExamController"><rect codeLine="6" fill="#F1F1F1" height="191.5898" id="ExamController" rx="1.25" ry="1.25" style="stroke:#181818;stroke-width:0.25;" width="156" x="527.25" y="57.5"/><ellipse cx="579.125" cy="65.5" fill="#ADD1B2" rx="5.5" ry="5.5" style="stroke:#181818;stroke-width:0.5;"/><path d="M580.5078,63.4375 Q580.5859,63.3281 580.6797,63.2734 Q580.7734,63.2188 580.8828,63.2188 Q581.0703,63.2188 581.1875,63.3516 Q581.3047,63.4766 581.3047,63.7813 L581.3047,64.5078 Q581.3047,64.8125 581.1875,64.9453 Q581.0703,65.0781 580.8828,65.0781 Q580.7109,65.0781 580.6094,64.9766 Q580.5078,64.8828 580.4531,64.625 Q580.4297,64.4453 580.3359,64.3516 Q580.1719,64.1641 579.8672,64.0547 Q579.5625,63.9453 579.25,63.9453 Q578.8672,63.9453 578.5469,64.1094 Q578.2344,64.2734 577.9844,64.6484 Q577.7422,65.0234 577.7422,65.5391 L577.7422,66.0859 Q577.7422,66.7031 578.1875,67.1172 Q578.6328,67.5234 579.4297,67.5234 Q579.8984,67.5234 580.2266,67.3984 Q580.4219,67.3203 580.6328,67.1016 Q580.7656,66.9688 580.8359,66.9297 Q580.9141,66.8906 581.0156,66.8906 Q581.1797,66.8906 581.3047,67.0234 Q581.4375,67.1484 581.4375,67.3203 Q581.4375,67.4922 581.2656,67.6953 Q581.0156,67.9844 580.6172,68.1484 Q580.0781,68.375 579.4297,68.375 Q578.6719,68.375 578.0703,68.0625 Q577.5781,67.8125 577.2344,67.2813 Q576.8906,66.7422 576.8906,66.1016 L576.8906,65.5234 Q576.8906,64.8594 577.1953,64.2891 Q577.5078,63.7109 578.0547,63.4063 Q578.6016,63.0938 579.2188,63.0938 Q579.5859,63.0938 579.9063,63.1797 Q580.2344,63.2578 580.5078,63.4375 Z " fill="#000000"/><text fill="#000000" font-family="sans-serif" font-size="7" lengthAdjust="spacing" textLength="48" x="589.375" y="68.3984">ExamController</text><line style="stroke:#181818;stroke-width:0.25;" x1="527.75" x2="682.75" y1="73.5" y2="73.5"/><rect fill="none" height="3" style="stroke:#C82930;stroke-width:0.5;" width="3" x="531.25" y="79.4053"/><text fill="#000000" font-family="sans-serif" font-size="7" lengthAdjust="spacing" textLength="67" x="537.25" y="83.0537">service: ExamService</text><rect fill="none" height="3" style="stroke:#C82930;stroke-width:0.5;" width="3" x="531.25" y="88.7158"/><text fill="#000000" font-family="sans-serif" font-size="7" lengthAdjust="spacing" textLength="106.5" x="537.25" y="92.3643">questionService: QuestionService</text><rect fill="none" height="3" style="stroke:#C82930;stroke-width:0.5;" width="3" x="531.25" y="98.0264"/><text fill="#000000" font-family="sans-serif" font-size="7" lengthAdjust="spacing" textLength="130" x="537.25" y="101.6748">shortAnswerService: ShortAnswerService</text><rect fill="none" height="3" style="stroke:#C82930;stroke-width:0.5;" width="3" x="531.25" y="107.3369"/><text fill="#000000" font-family="sans-serif" font-size="7" lengthAdjust="spacing" textLength="108" x="537.25" y="110.9854">matchingService: MatchingService</text><rect fill="none" height="3" style="stroke:#C82930;stroke-width:0.5;" width="3" x="531.25" y="116.6475"/><text fill="#000000" font-family="sans-serif" font-size="7" lengthAdjust="spacing" textLength="129.5" x="537.25" y="120.2959">trueOrFalseService: TrueOrFalseService</text><rect fill="none" height="3" style="stroke:#C82930;stroke-width:0.5;" width="3" x="531.25" y="125.958"/><text fill="#000000" font-family="sans-serif" font-size="7" lengthAdjust="spacing" textLength="143" x="537.25" y="129.6064">multipleChoiceService: MultipleChoiceService</text><rect fill="none" height="3" style="stroke:#C82930;stroke-width:0.5;" width="3" x="531.25" y="135.2686"/><text fill="#000000" font-family="sans-serif" font-size="7" lengthAdjust="spacing" textLength="139" x="537.25" y="138.917">missingWordsService: MissingWordsService</text><rect fill="none" height="3" style="stroke:#C82930;stroke-width:0.5;" width="3" x="531.25" y="144.5791"/><text fill="#000000" font-family="sans-serif" font-size="7" lengthAdjust="spacing" textLength="112.5" x="537.25" y="148.2275">numericalService: NumericalService</text><line style="stroke:#181818;stroke-width:0.25;" x1="527.75" x2="682.75" y1="151.9844" y2="151.9844"/><ellipse cx="532.75" cy="159.3896" fill="#84BE84" rx="1.5" ry="1.5" style="stroke:#038048;stroke-width:0.5;"/><text fill="#000000" font-family="sans-serif" font-size="7" lengthAdjust="spacing" textLength="88" x="537.25" y="161.5381">getExamsByCourse(course)</text><ellipse cx="532.75" cy="168.7002" fill="#84BE84" rx="1.5" ry="1.5" style="stroke:#038048;stroke-width:0.5;"/><text fill="#000000" font-family="sans-serif" font-size="7" lengthAdjust="spacing" textLength="53.5" x="537.25" y="170.8486">saveExam(exam)</text><ellipse cx="532.75" cy="178.0107" fill="#84BE84" rx="1.5" ry="1.5" style="stroke:#038048;stroke-width:0.5;"/><text fill="#000000" font-family="sans-serif" font-size="7" lengthAdjust="spacing" textLength="22.5" x="537.25" y="180.1592">getAll()</text><ellipse cx="532.75" cy="187.3213" fill="#84BE84" rx="1.5" ry="1.5" style="stroke:#038048;stroke-width:0.5;"/><text fill="#000000" font-family="sans-serif" font-size="7" lengthAdjust="spacing" textLength="54.5" x="537.25" y="189.4697">getAllQuestions()</text><ellipse cx="532.75" cy="196.6318" fill="#84BE84" rx="1.5" ry="1.5" style="stroke:#038048;stroke-width:0.5;"/><text fill="#000000" font-family="sans-serif" font-size="7" lengthAdjust="spacing" textLength="87" x="537.25" y="198.7803">getShortAnswerQuestions()</text><ellipse cx="532.75" cy="205.9424" fill="#84BE84" rx="1.5" ry="1.5" style="stroke:#038048;stroke-width:0.5;"/><text fill="#000000" font-family="sans-serif" font-size="7" lengthAdjust="spacing" textLength="75.5" x="537.25" y="208.0908">getMatchingQuestions()</text><ellipse cx="532.75" cy="215.2529" fill="#84BE84" rx="1.5" ry="1.5" style="stroke:#038048;stroke-width:0.5;"/><text fill="#000000" font-family="sans-serif" font-size="7" lengthAdjust="spacing" textLength="87.5" x="537.25" y="217.4014">getTrueOrFalseQuestions()</text><ellipse cx="532.75" cy="224.5635" fill="#84BE84" rx="1.5" ry="1.5" style="stroke:#038048;stroke-width:0.5;"/><text fill="#000000" font-family="sans-serif" font-size="7" lengthAdjust="spacing" textLength="93" x="537.25" y="226.7119">getMultipleChoiceQuestions()</text><ellipse cx="532.75" cy="233.874" fill="#84BE84" rx="1.5" ry="1.5" style="stroke:#038048;stroke-width:0.5;"/><text fill="#000000" font-family="sans-serif" font-size="7" lengthAdjust="spacing" textLength="91" x="537.25" y="236.0225">getMissingWordsQuestions()</text><ellipse cx="532.75" cy="243.1846" fill="#84BE84" rx="1.5" ry="1.5" style="stroke:#038048;stroke-width:0.5;"/><text fill="#000000" font-family="sans-serif" font-size="7" lengthAdjust="spacing" textLength="78" x="537.25" y="245.333">getNumericalQuestions()</text></g><!--class ExamService--><g id="elem_ExamService"><rect codeLine="27" fill="#F1F1F1" height="51.9316" id="ExamService" rx="1.25" ry="1.25" style="stroke:#181818;stroke-width:0.25;" width="99.5" x="3.5" y="351.5"/><ellipse cx="30.875" cy="359.5" fill="#ADD1B2" rx="5.5" ry="5.5" style="stroke:#181818;stroke-width:0.5;"/><path d="M32.2578,357.4375 Q32.3359,357.3281 32.4297,357.2734 Q32.5234,357.2188 32.6328,357.2188 Q32.8203,357.2188 32.9375,357.3516 Q33.0547,357.4766 33.0547,357.7813 L33.0547,358.5078 Q33.0547,358.8125 32.9375,358.9453 Q32.8203,359.0781 32.6328,359.0781 Q32.4609,359.0781 32.3594,358.9766 Q32.2578,358.8828 32.2031,358.625 Q32.1797,358.4453 32.0859,358.3516 Q31.9219,358.1641 31.6172,358.0547 Q31.3125,357.9453 31,357.9453 Q30.6172,357.9453 30.2969,358.1094 Q29.9844,358.2734 29.7344,358.6484 Q29.4922,359.0234 29.4922,359.5391 L29.4922,360.0859 Q29.4922,360.7031 29.9375,361.1172 Q30.3828,361.5234 31.1797,361.5234 Q31.6484,361.5234 31.9766,361.3984 Q32.1719,361.3203 32.3828,361.1016 Q32.5156,360.9688 32.5859,360.9297 Q32.6641,360.8906 32.7656,360.8906 Q32.9297,360.8906 33.0547,361.0234 Q33.1875,361.1484 33.1875,361.3203 Q33.1875,361.4922 33.0156,361.6953 Q32.7656,361.9844 32.3672,362.1484 Q31.8281,362.375 31.1797,362.375 Q30.4219,362.375 29.8203,362.0625 Q29.3281,361.8125 28.9844,361.2813 Q28.6406,360.7422 28.6406,360.1016 L28.6406,359.5234 Q28.6406,358.8594 28.9453,358.2891 Q29.2578,357.7109 29.8047,357.4063 Q30.3516,357.0938 30.9688,357.0938 Q31.3359,357.0938 31.6563,357.1797 Q31.9844,357.2578 32.2578,357.4375 Z " fill="#000000"/><text fill="#000000" font-family="sans-serif" font-size="7" lengthAdjust="spacing" textLength="40.5" x="41.125" y="362.3984">ExamService</text><line style="stroke:#181818;stroke-width:0.25;" x1="4" x2="102.5" y1="367.5" y2="367.5"/><rect fill="none" height="3" style="stroke:#C82930;stroke-width:0.5;" width="3" x="7.5" y="373.4053"/><text fill="#000000" font-family="sans-serif" font-size="7" lengthAdjust="spacing" textLength="86.5" x="13.5" y="377.0537">repository: ExamRepository</text><line style="stroke:#181818;stroke-width:0.25;" x1="4" x2="102.5" y1="380.8105" y2="380.8105"/><ellipse cx="9" cy="388.2158" fill="#84BE84" rx="1.5" ry="1.5" style="stroke:#038048;stroke-width:0.5;"/><text fill="#000000" font-family="sans-serif" font-size="7" lengthAdjust="spacing" textLength="63.5" x="13.5" y="390.3643">addNewExam(exam)</text><ellipse cx="9" cy="397.5264" fill="#84BE84" rx="1.5" ry="1.5" style="stroke:#038048;stroke-width:0.5;"/><text fill="#000000" font-family="sans-serif" font-size="7" lengthAdjust="spacing" textLength="22.5" x="13.5" y="399.6748">getAll()</text></g><!--class QuestionService--><g id="elem_QuestionService"><rect codeLine="36" fill="#F1F1F1" height="51.9316" id="QuestionService" rx="1.25" ry="1.25" style="stroke:#181818;stroke-width:0.25;" width="111" x="120.75" y="351.5"/><ellipse cx="148.125" cy="359.5" fill="#ADD1B2" rx="5.5" ry="5.5" style="stroke:#181818;stroke-width:0.5;"/><path d="M149.5078,357.4375 Q149.5859,357.3281 149.6797,357.2734 Q149.7734,357.2188 149.8828,357.2188 Q150.0703,357.2188 150.1875,357.3516 Q150.3047,357.4766 150.3047,357.7813 L150.3047,358.5078 Q150.3047,358.8125 150.1875,358.9453 Q150.0703,359.0781 149.8828,359.0781 Q149.7109,359.0781 149.6094,358.9766 Q149.5078,358.8828 149.4531,358.625 Q149.4297,358.4453 149.3359,358.3516 Q149.1719,358.1641 148.8672,358.0547 Q148.5625,357.9453 148.25,357.9453 Q147.8672,357.9453 147.5469,358.1094 Q147.2344,358.2734 146.9844,358.6484 Q146.7422,359.0234 146.7422,359.5391 L146.7422,360.0859 Q146.7422,360.7031 147.1875,361.1172 Q147.6328,361.5234 148.4297,361.5234 Q148.8984,361.5234 149.2266,361.3984 Q149.4219,361.3203 149.6328,361.1016 Q149.7656,360.9688 149.8359,360.9297 Q149.9141,360.8906 150.0156,360.8906 Q150.1797,360.8906 150.3047,361.0234 Q150.4375,361.1484 150.4375,361.3203 Q150.4375,361.4922 150.2656,361.6953 Q150.0156,361.9844 149.6172,362.1484 Q149.0781,362.375 148.4297,362.375 Q147.6719,362.375 147.0703,362.0625 Q146.5781,361.8125 146.2344,361.2813 Q145.8906,360.7422 145.8906,360.1016 L145.8906,359.5234 Q145.8906,358.8594 146.1953,358.2891 Q146.5078,357.7109 147.0547,357.4063 Q147.6016,357.0938 148.2188,357.0938 Q148.5859,357.0938 148.9063,357.1797 Q149.2344,357.2578 149.5078,357.4375 Z " fill="#000000"/><text fill="#000000" font-family="sans-serif" font-size="7" lengthAdjust="spacing" textLength="52" x="158.375" y="362.3984">QuestionService</text><line style="stroke:#181818;stroke-width:0.25;" x1="121.25" x2="231.25" y1="367.5" y2="367.5"/><rect fill="none" height="3" style="stroke:#C82930;stroke-width:0.5;" width="3" x="124.75" y="373.4053"/><text fill="#000000" font-family="sans-serif" font-size="7" lengthAdjust="spacing" textLength="98" x="130.75" y="377.0537">repository: QuestionRepository</text><line style="stroke:#181818;stroke-width:0.25;" x1="121.25" x2="231.25" y1="380.8105" y2="380.8105"/><ellipse cx="126.25" cy="388.2158" fill="#84BE84" rx="1.5" ry="1.5" style="stroke:#038048;stroke-width:0.5;"/><text fill="#000000" font-family="sans-serif" font-size="7" lengthAdjust="spacing" textLength="85.5" x="130.75" y="390.3643">addNewQuestion(question)</text><ellipse cx="126.25" cy="397.5264" fill="#84BE84" rx="1.5" ry="1.5" style="stroke:#038048;stroke-width:0.5;"/><text fill="#000000" font-family="sans-serif" font-size="7" lengthAdjust="spacing" textLength="22.5" x="130.75" y="399.6748">getAll()</text></g><!--class ShortAnswerService--><g id="elem_ShortAnswerService"><rect codeLine="45" fill="#F1F1F1" height="42.6211" id="ShortAnswerService" rx="1.25" ry="1.25" style="stroke:#181818;stroke-width:0.25;" width="122.5" x="249.5" y="356.25"/><ellipse cx="276.875" cy="364.25" fill="#ADD1B2" rx="5.5" ry="5.5" style="stroke:#181818;stroke-width:0.5;"/><path d="M278.2578,362.1875 Q278.3359,362.0781 278.4297,362.0234 Q278.5234,361.9688 278.6328,361.9688 Q278.8203,361.9688 278.9375,362.1016 Q279.0547,362.2266 279.0547,362.5313 L279.0547,363.2578 Q279.0547,363.5625 278.9375,363.6953 Q278.8203,363.8281 278.6328,363.8281 Q278.4609,363.8281 278.3594,363.7266 Q278.2578,363.6328 278.2031,363.375 Q278.1797,363.1953 278.0859,363.1016 Q277.9219,362.9141 277.6172,362.8047 Q277.3125,362.6953 277,362.6953 Q276.6172,362.6953 276.2969,362.8594 Q275.9844,363.0234 275.7344,363.3984 Q275.4922,363.7734 275.4922,364.2891 L275.4922,364.8359 Q275.4922,365.4531 275.9375,365.8672 Q276.3828,366.2734 277.1797,366.2734 Q277.6484,366.2734 277.9766,366.1484 Q278.1719,366.0703 278.3828,365.8516 Q278.5156,365.7188 278.5859,365.6797 Q278.6641,365.6406 278.7656,365.6406 Q278.9297,365.6406 279.0547,365.7734 Q279.1875,365.8984 279.1875,366.0703 Q279.1875,366.2422 279.0156,366.4453 Q278.7656,366.7344 278.3672,366.8984 Q277.8281,367.125 277.1797,367.125 Q276.4219,367.125 275.8203,366.8125 Q275.3281,366.5625 274.9844,366.0313 Q274.6406,365.4922 274.6406,364.8516 L274.6406,364.2734 Q274.6406,363.6094 274.9453,363.0391 Q275.2578,362.4609 275.8047,362.1563 Q276.3516,361.8438 276.9688,361.8438 Q277.3359,361.8438 277.6563,361.9297 Q277.9844,362.0078 278.2578,362.1875 Z " fill="#000000"/><text fill="#000000" font-family="sans-serif" font-size="7" lengthAdjust="spacing" textLength="63.5" x="287.125" y="367.1484">ShortAnswerService</text><line style="stroke:#181818;stroke-width:0.25;" x1="250" x2="371.5" y1="372.25" y2="372.25"/><rect fill="none" height="3" style="stroke:#C82930;stroke-width:0.5;" width="3" x="253.5" y="378.1553"/><text fill="#000000" font-family="sans-serif" font-size="7" lengthAdjust="spacing" textLength="109.5" x="259.5" y="381.8037">repository: ShortAnswerRepository</text><line style="stroke:#181818;stroke-width:0.25;" x1="250" x2="371.5" y1="385.5605" y2="385.5605"/><ellipse cx="255" cy="392.9658" fill="#84BE84" rx="1.5" ry="1.5" style="stroke:#038048;stroke-width:0.5;"/><text fill="#000000" font-family="sans-serif" font-size="7" lengthAdjust="spacing" textLength="22.5" x="259.5" y="395.1143">getAll()</text></g><!--class MatchingService--><g id="elem_MatchingService"><rect codeLine="53" fill="#F1F1F1" height="42.6211" id="MatchingService" rx="1.25" ry="1.25" style="stroke:#181818;stroke-width:0.25;" width="111" x="389.75" y="356.25"/><ellipse cx="417.125" cy="364.25" fill="#ADD1B2" rx="5.5" ry="5.5" style="stroke:#181818;stroke-width:0.5;"/><path d="M418.5078,362.1875 Q418.5859,362.0781 418.6797,362.0234 Q418.7734,361.9688 418.8828,361.9688 Q419.0703,361.9688 419.1875,362.1016 Q419.3047,362.2266 419.3047,362.5313 L419.3047,363.2578 Q419.3047,363.5625 419.1875,363.6953 Q419.0703,363.8281 418.8828,363.8281 Q418.7109,363.8281 418.6094,363.7266 Q418.5078,363.6328 418.4531,363.375 Q418.4297,363.1953 418.3359,363.1016 Q418.1719,362.9141 417.8672,362.8047 Q417.5625,362.6953 417.25,362.6953 Q416.8672,362.6953 416.5469,362.8594 Q416.2344,363.0234 415.9844,363.3984 Q415.7422,363.7734 415.7422,364.2891 L415.7422,364.8359 Q415.7422,365.4531 416.1875,365.8672 Q416.6328,366.2734 417.4297,366.2734 Q417.8984,366.2734 418.2266,366.1484 Q418.4219,366.0703 418.6328,365.8516 Q418.7656,365.7188 418.8359,365.6797 Q418.9141,365.6406 419.0156,365.6406 Q419.1797,365.6406 419.3047,365.7734 Q419.4375,365.8984 419.4375,366.0703 Q419.4375,366.2422 419.2656,366.4453 Q419.0156,366.7344 418.6172,366.8984 Q418.0781,367.125 417.4297,367.125 Q416.6719,367.125 416.0703,366.8125 Q415.5781,366.5625 415.2344,366.0313 Q414.8906,365.4922 414.8906,364.8516 L414.8906,364.2734 Q414.8906,363.6094 415.1953,363.0391 Q415.5078,362.4609 416.0547,362.1563 Q416.6016,361.8438 417.2188,361.8438 Q417.5859,361.8438 417.9063,361.9297 Q418.2344,362.0078 418.5078,362.1875 Z " fill="#000000"/><text fill="#000000" font-family="sans-serif" font-size="7" lengthAdjust="spacing" textLength="52" x="427.375" y="367.1484">MatchingService</text><line style="stroke:#181818;stroke-width:0.25;" x1="390.25" x2="500.25" y1="372.25" y2="372.25"/><rect fill="none" height="3" style="stroke:#C82930;stroke-width:0.5;" width="3" x="393.75" y="378.1553"/><text fill="#000000" font-family="sans-serif" font-size="7" lengthAdjust="spacing" textLength="98" x="399.75" y="381.8037">repository: MatchingRepository</text><line style="stroke:#181818;stroke-width:0.25;" x1="390.25" x2="500.25" y1="385.5605" y2="385.5605"/><ellipse cx="395.25" cy="392.9658" fill="#84BE84" rx="1.5" ry="1.5" style="stroke:#038048;stroke-width:0.5;"/><text fill="#000000" font-family="sans-serif" font-size="7" lengthAdjust="spacing" textLength="22.5" x="399.75" y="395.1143">getAll()</text></g><!--class TrueOrFalseService--><g id="elem_TrueOrFalseService"><rect codeLine="61" fill="#F1F1F1" height="42.6211" id="TrueOrFalseService" rx="1.25" ry="1.25" style="stroke:#181818;stroke-width:0.25;" width="123" x="518.25" y="356.25"/><ellipse cx="545.625" cy="364.25" fill="#ADD1B2" rx="5.5" ry="5.5" style="stroke:#181818;stroke-width:0.5;"/><path d="M547.0078,362.1875 Q547.0859,362.0781 547.1797,362.0234 Q547.2734,361.9688 547.3828,361.9688 Q547.5703,361.9688 547.6875,362.1016 Q547.8047,362.2266 547.8047,362.5313 L547.8047,363.2578 Q547.8047,363.5625 547.6875,363.6953 Q547.5703,363.8281 547.3828,363.8281 Q547.2109,363.8281 547.1094,363.7266 Q547.0078,363.6328 546.9531,363.375 Q546.9297,363.1953 546.8359,363.1016 Q546.6719,362.9141 546.3672,362.8047 Q546.0625,362.6953 545.75,362.6953 Q545.3672,362.6953 545.0469,362.8594 Q544.7344,363.0234 544.4844,363.3984 Q544.2422,363.7734 544.2422,364.2891 L544.2422,364.8359 Q544.2422,365.4531 544.6875,365.8672 Q545.1328,366.2734 545.9297,366.2734 Q546.3984,366.2734 546.7266,366.1484 Q546.9219,366.0703 547.1328,365.8516 Q547.2656,365.7188 547.3359,365.6797 Q547.4141,365.6406 547.5156,365.6406 Q547.6797,365.6406 547.8047,365.7734 Q547.9375,365.8984 547.9375,366.0703 Q547.9375,366.2422 547.7656,366.4453 Q547.5156,366.7344 547.1172,366.8984 Q546.5781,367.125 545.9297,367.125 Q545.1719,367.125 544.5703,366.8125 Q544.0781,366.5625 543.7344,366.0313 Q543.3906,365.4922 543.3906,364.8516 L543.3906,364.2734 Q543.3906,363.6094 543.6953,363.0391 Q544.0078,362.4609 544.5547,362.1563 Q545.1016,361.8438 545.7188,361.8438 Q546.0859,361.8438 546.4063,361.9297 Q546.7344,362.0078 547.0078,362.1875 Z " fill="#000000"/><text fill="#000000" font-family="sans-serif" font-size="7" lengthAdjust="spacing" textLength="64" x="555.875" y="367.1484">TrueOrFalseService</text><line style="stroke:#181818;stroke-width:0.25;" x1="518.75" x2="640.75" y1="372.25" y2="372.25"/><rect fill="none" height="3" style="stroke:#C82930;stroke-width:0.5;" width="3" x="522.25" y="378.1553"/><text fill="#000000" font-family="sans-serif" font-size="7" lengthAdjust="spacing" textLength="110" x="528.25" y="381.8037">repository: TrueOrFalseRepository</text><line style="stroke:#181818;stroke-width:0.25;" x1="518.75" x2="640.75" y1="385.5605" y2="385.5605"/><ellipse cx="523.75" cy="392.9658" fill="#84BE84" rx="1.5" ry="1.5" style="stroke:#038048;stroke-width:0.5;"/><text fill="#000000" font-family="sans-serif" font-size="7" lengthAdjust="spacing" textLength="22.5" x="528.25" y="395.1143">getAll()</text></g><!--class MultipleChoiceService--><g id="elem_MultipleChoiceService"><rect codeLine="69" fill="#F1F1F1" height="42.6211" id="MultipleChoiceService" rx="1.25" ry="1.25" style="stroke:#181818;stroke-width:0.25;" width="128.5" x="659" y="356.25"/><ellipse cx="686.375" cy="364.25" fill="#ADD1B2" rx="5.5" ry="5.5" style="stroke:#181818;stroke-width:0.5;"/><path d="M687.7578,362.1875 Q687.8359,362.0781 687.9297,362.0234 Q688.0234,361.9688 688.1328,361.9688 Q688.3203,361.9688 688.4375,362.1016 Q688.5547,362.2266 688.5547,362.5313 L688.5547,363.2578 Q688.5547,363.5625 688.4375,363.6953 Q688.3203,363.8281 688.1328,363.8281 Q687.9609,363.8281 687.8594,363.7266 Q687.7578,363.6328 687.7031,363.375 Q687.6797,363.1953 687.5859,363.1016 Q687.4219,362.9141 687.1172,362.8047 Q686.8125,362.6953 686.5,362.6953 Q686.1172,362.6953 685.7969,362.8594 Q685.4844,363.0234 685.2344,363.3984 Q684.9922,363.7734 684.9922,364.2891 L684.9922,364.8359 Q684.9922,365.4531 685.4375,365.8672 Q685.8828,366.2734 686.6797,366.2734 Q687.1484,366.2734 687.4766,366.1484 Q687.6719,366.0703 687.8828,365.8516 Q688.0156,365.7188 688.0859,365.6797 Q688.1641,365.6406 688.2656,365.6406 Q688.4297,365.6406 688.5547,365.7734 Q688.6875,365.8984 688.6875,366.0703 Q688.6875,366.2422 688.5156,366.4453 Q688.2656,366.7344 687.8672,366.8984 Q687.3281,367.125 686.6797,367.125 Q685.9219,367.125 685.3203,366.8125 Q684.8281,366.5625 684.4844,366.0313 Q684.1406,365.4922 684.1406,364.8516 L684.1406,364.2734 Q684.1406,363.6094 684.4453,363.0391 Q684.7578,362.4609 685.3047,362.1563 Q685.8516,361.8438 686.4688,361.8438 Q686.8359,361.8438 687.1563,361.9297 Q687.4844,362.0078 687.7578,362.1875 Z " fill="#000000"/><text fill="#000000" font-family="sans-serif" font-size="7" lengthAdjust="spacing" textLength="69.5" x="696.625" y="367.1484">MultipleChoiceService</text><line style="stroke:#181818;stroke-width:0.25;" x1="659.5" x2="787" y1="372.25" y2="372.25"/><rect fill="none" height="3" style="stroke:#C82930;stroke-width:0.5;" width="3" x="663" y="378.1553"/><text fill="#000000" font-family="sans-serif" font-size="7" lengthAdjust="spacing" textLength="115.5" x="669" y="381.8037">repository: MultipleChoiceRepository</text><line style="stroke:#181818;stroke-width:0.25;" x1="659.5" x2="787" y1="385.5605" y2="385.5605"/><ellipse cx="664.5" cy="392.9658" fill="#84BE84" rx="1.5" ry="1.5" style="stroke:#038048;stroke-width:0.5;"/><text fill="#000000" font-family="sans-serif" font-size="7" lengthAdjust="spacing" textLength="22.5" x="669" y="395.1143">getAll()</text></g><!--class MissingWordsService--><g id="elem_MissingWordsService"><rect codeLine="77" fill="#F1F1F1" height="42.6211" id="MissingWordsService" rx="1.25" ry="1.25" style="stroke:#181818;stroke-width:0.25;" width="126.5" x="805" y="356.25"/><ellipse cx="832.375" cy="364.25" fill="#ADD1B2" rx="5.5" ry="5.5" style="stroke:#181818;stroke-width:0.5;"/><path d="M833.7578,362.1875 Q833.8359,362.0781 833.9297,362.0234 Q834.0234,361.9688 834.1328,361.9688 Q834.3203,361.9688 834.4375,362.1016 Q834.5547,362.2266 834.5547,362.5313 L834.5547,363.2578 Q834.5547,363.5625 834.4375,363.6953 Q834.3203,363.8281 834.1328,363.8281 Q833.9609,363.8281 833.8594,363.7266 Q833.7578,363.6328 833.7031,363.375 Q833.6797,363.1953 833.5859,363.1016 Q833.4219,362.9141 833.1172,362.8047 Q832.8125,362.6953 832.5,362.6953 Q832.1172,362.6953 831.7969,362.8594 Q831.4844,363.0234 831.2344,363.3984 Q830.9922,363.7734 830.9922,364.2891 L830.9922,364.8359 Q830.9922,365.4531 831.4375,365.8672 Q831.8828,366.2734 832.6797,366.2734 Q833.1484,366.2734 833.4766,366.1484 Q833.6719,366.0703 833.8828,365.8516 Q834.0156,365.7188 834.0859,365.6797 Q834.1641,365.6406 834.2656,365.6406 Q834.4297,365.6406 834.5547,365.7734 Q834.6875,365.8984 834.6875,366.0703 Q834.6875,366.2422 834.5156,366.4453 Q834.2656,366.7344 833.8672,366.8984 Q833.3281,367.125 832.6797,367.125 Q831.9219,367.125 831.3203,366.8125 Q830.8281,366.5625 830.4844,366.0313 Q830.1406,365.4922 830.1406,364.8516 L830.1406,364.2734 Q830.1406,363.6094 830.4453,363.0391 Q830.7578,362.4609 831.3047,362.1563 Q831.8516,361.8438 832.4688,361.8438 Q832.8359,361.8438 833.1563,361.9297 Q833.4844,362.0078 833.7578,362.1875 Z " fill="#000000"/><text fill="#000000" font-family="sans-serif" font-size="7" lengthAdjust="spacing" textLength="67.5" x="842.625" y="367.1484">MissingWordsService</text><line style="stroke:#181818;stroke-width:0.25;" x1="805.5" x2="931" y1="372.25" y2="372.25"/><rect fill="none" height="3" style="stroke:#C82930;stroke-width:0.5;" width="3" x="809" y="378.1553"/><text fill="#000000" font-family="sans-serif" font-size="7" lengthAdjust="spacing" textLength="113.5" x="815" y="381.8037">repository: MissingWordsRepository</text><line style="stroke:#181818;stroke-width:0.25;" x1="805.5" x2="931" y1="385.5605" y2="385.5605"/><ellipse cx="810.5" cy="392.9658" fill="#84BE84" rx="1.5" ry="1.5" style="stroke:#038048;stroke-width:0.5;"/><text fill="#000000" font-family="sans-serif" font-size="7" lengthAdjust="spacing" textLength="22.5" x="815" y="395.1143">getAll()</text></g><!--class NumericalService--><g id="elem_NumericalService"><rect codeLine="85" fill="#F1F1F1" height="42.6211" id="NumericalService" rx="1.25" ry="1.25" style="stroke:#181818;stroke-width:0.25;" width="113.5" x="949" y="356.25"/><ellipse cx="976.375" cy="364.25" fill="#ADD1B2" rx="5.5" ry="5.5" style="stroke:#181818;stroke-width:0.5;"/><path d="M977.7578,362.1875 Q977.8359,362.0781 977.9297,362.0234 Q978.0234,361.9688 978.1328,361.9688 Q978.3203,361.9688 978.4375,362.1016 Q978.5547,362.2266 978.5547,362.5313 L978.5547,363.2578 Q978.5547,363.5625 978.4375,363.6953 Q978.3203,363.8281 978.1328,363.8281 Q977.9609,363.8281 977.8594,363.7266 Q977.7578,363.6328 977.7031,363.375 Q977.6797,363.1953 977.5859,363.1016 Q977.4219,362.9141 977.1172,362.8047 Q976.8125,362.6953 976.5,362.6953 Q976.1172,362.6953 975.7969,362.8594 Q975.4844,363.0234 975.2344,363.3984 Q974.9922,363.7734 974.9922,364.2891 L974.9922,364.8359 Q974.9922,365.4531 975.4375,365.8672 Q975.8828,366.2734 976.6797,366.2734 Q977.1484,366.2734 977.4766,366.1484 Q977.6719,366.0703 977.8828,365.8516 Q978.0156,365.7188 978.0859,365.6797 Q978.1641,365.6406 978.2656,365.6406 Q978.4297,365.6406 978.5547,365.7734 Q978.6875,365.8984 978.6875,366.0703 Q978.6875,366.2422 978.5156,366.4453 Q978.2656,366.7344 977.8672,366.8984 Q977.3281,367.125 976.6797,367.125 Q975.9219,367.125 975.3203,366.8125 Q974.8281,366.5625 974.4844,366.0313 Q974.1406,365.4922 974.1406,364.8516 L974.1406,364.2734 Q974.1406,363.6094 974.4453,363.0391 Q974.7578,362.4609 975.3047,362.1563 Q975.8516,361.8438 976.4688,361.8438 Q976.8359,361.8438 977.1563,361.9297 Q977.4844,362.0078 977.7578,362.1875 Z " fill="#000000"/><text fill="#000000" font-family="sans-serif" font-size="7" lengthAdjust="spacing" textLength="54.5" x="986.625" y="367.1484">NumericalService</text><line style="stroke:#181818;stroke-width:0.25;" x1="949.5" x2="1062" y1="372.25" y2="372.25"/><rect fill="none" height="3" style="stroke:#C82930;stroke-width:0.5;" width="3" x="953" y="378.1553"/><text fill="#000000" font-family="sans-serif" font-size="7" lengthAdjust="spacing" textLength="100.5" x="959" y="381.8037">repository: NumericalRepository</text><line style="stroke:#181818;stroke-width:0.25;" x1="949.5" x2="1062" y1="385.5605" y2="385.5605"/><ellipse cx="954.5" cy="392.9658" fill="#84BE84" rx="1.5" ry="1.5" style="stroke:#038048;stroke-width:0.5;"/><text fill="#000000" font-family="sans-serif" font-size="7" lengthAdjust="spacing" textLength="22.5" x="959" y="395.1143">getAll()</text></g><!--class RepositoryFactory--><g id="elem_RepositoryFactory"><rect codeLine="93" fill="#F1F1F1" height="33.3105" id="RepositoryFactory" rx="1.25" ry="1.25" style="stroke:#181818;stroke-width:0.25;" width="74" x="475.25" y="283.5"/><ellipse cx="482.75" cy="291.5" fill="#ADD1B2" rx="5.5" ry="5.5" style="stroke:#181818;stroke-width:0.5;"/><path d="M484.1328,289.4375 Q484.2109,289.3281 484.3047,289.2734 Q484.3984,289.2188 484.5078,289.2188 Q484.6953,289.2188 484.8125,289.3516 Q484.9297,289.4766 484.9297,289.7813 L484.9297,290.5078 Q484.9297,290.8125 484.8125,290.9453 Q484.6953,291.0781 484.5078,291.0781 Q484.3359,291.0781 484.2344,290.9766 Q484.1328,290.8828 484.0781,290.625 Q484.0547,290.4453 483.9609,290.3516 Q483.7969,290.1641 483.4922,290.0547 Q483.1875,289.9453 482.875,289.9453 Q482.4922,289.9453 482.1719,290.1094 Q481.8594,290.2734 481.6094,290.6484 Q481.3672,291.0234 481.3672,291.5391 L481.3672,292.0859 Q481.3672,292.7031 481.8125,293.1172 Q482.2578,293.5234 483.0547,293.5234 Q483.5234,293.5234 483.8516,293.3984 Q484.0469,293.3203 484.2578,293.1016 Q484.3906,292.9688 484.4609,292.9297 Q484.5391,292.8906 484.6406,292.8906 Q484.8047,292.8906 484.9297,293.0234 Q485.0625,293.1484 485.0625,293.3203 Q485.0625,293.4922 484.8906,293.6953 Q484.6406,293.9844 484.2422,294.1484 Q483.7031,294.375 483.0547,294.375 Q482.2969,294.375 481.6953,294.0625 Q481.2031,293.8125 480.8594,293.2813 Q480.5156,292.7422 480.5156,292.1016 L480.5156,291.5234 Q480.5156,290.8594 480.8203,290.2891 Q481.1328,289.7109 481.6797,289.4063 Q482.2266,289.0938 482.8438,289.0938 Q483.2109,289.0938 483.5313,289.1797 Q483.8594,289.2578 484.1328,289.4375 Z " fill="#000000"/><text fill="#000000" font-family="sans-serif" font-size="7" lengthAdjust="spacing" textLength="58" x="489.75" y="294.3984">RepositoryFactory</text><line style="stroke:#181818;stroke-width:0.25;" x1="475.75" x2="548.75" y1="299.5" y2="299.5"/><line style="stroke:#181818;stroke-width:0.25;" x1="475.75" x2="548.75" y1="303.5" y2="303.5"/><ellipse cx="480.75" cy="310.9053" fill="#84BE84" rx="1.5" ry="1.5" style="stroke:#038048;stroke-width:0.5;"/><text fill="#000000" font-family="sans-serif" font-size="7" lengthAdjust="spacing" textLength="25" x="485.25" y="313.0537">create()</text></g><!--class PersistenceContext--><g id="elem_PersistenceContext"><rect codeLine="97" fill="#F1F1F1" height="33.3105" id="PersistenceContext" rx="1.25" ry="1.25" style="stroke:#181818;stroke-width:0.25;" width="77" x="566.75" y="283.5"/><ellipse cx="574.25" cy="291.5" fill="#ADD1B2" rx="5.5" ry="5.5" style="stroke:#181818;stroke-width:0.5;"/><path d="M575.6328,289.4375 Q575.7109,289.3281 575.8047,289.2734 Q575.8984,289.2188 576.0078,289.2188 Q576.1953,289.2188 576.3125,289.3516 Q576.4297,289.4766 576.4297,289.7813 L576.4297,290.5078 Q576.4297,290.8125 576.3125,290.9453 Q576.1953,291.0781 576.0078,291.0781 Q575.8359,291.0781 575.7344,290.9766 Q575.6328,290.8828 575.5781,290.625 Q575.5547,290.4453 575.4609,290.3516 Q575.2969,290.1641 574.9922,290.0547 Q574.6875,289.9453 574.375,289.9453 Q573.9922,289.9453 573.6719,290.1094 Q573.3594,290.2734 573.1094,290.6484 Q572.8672,291.0234 572.8672,291.5391 L572.8672,292.0859 Q572.8672,292.7031 573.3125,293.1172 Q573.7578,293.5234 574.5547,293.5234 Q575.0234,293.5234 575.3516,293.3984 Q575.5469,293.3203 575.7578,293.1016 Q575.8906,292.9688 575.9609,292.9297 Q576.0391,292.8906 576.1406,292.8906 Q576.3047,292.8906 576.4297,293.0234 Q576.5625,293.1484 576.5625,293.3203 Q576.5625,293.4922 576.3906,293.6953 Q576.1406,293.9844 575.7422,294.1484 Q575.2031,294.375 574.5547,294.375 Q573.7969,294.375 573.1953,294.0625 Q572.7031,293.8125 572.3594,293.2813 Q572.0156,292.7422 572.0156,292.1016 L572.0156,291.5234 Q572.0156,290.8594 572.3203,290.2891 Q572.6328,289.7109 573.1797,289.4063 Q573.7266,289.0938 574.3438,289.0938 Q574.7109,289.0938 575.0313,289.1797 Q575.3594,289.2578 575.6328,289.4375 Z " fill="#000000"/><text fill="#000000" font-family="sans-serif" font-size="7" lengthAdjust="spacing" textLength="61" x="581.25" y="294.3984">PersistenceContext</text><line style="stroke:#181818;stroke-width:0.25;" x1="567.25" x2="643.25" y1="299.5" y2="299.5"/><line style="stroke:#181818;stroke-width:0.25;" x1="567.25" x2="643.25" y1="303.5" y2="303.5"/><ellipse cx="572.25" cy="310.9053" fill="#84BE84" rx="1.5" ry="1.5" style="stroke:#038048;stroke-width:0.5;"/><text fill="#000000" font-family="sans-serif" font-size="7" lengthAdjust="spacing" textLength="42" x="576.75" y="313.0537">repositories()</text></g><!--class TransactionalContext--><g id="elem_TransactionalContext"><rect codeLine="101" fill="#F1F1F1" height="42.6211" id="TransactionalContext" rx="1.25" ry="1.25" style="stroke:#181818;stroke-width:0.25;" width="83" x="661.25" y="279"/><ellipse cx="668.75" cy="287" fill="#ADD1B2" rx="5.5" ry="5.5" style="stroke:#181818;stroke-width:0.5;"/><path d="M670.1328,284.9375 Q670.2109,284.8281 670.3047,284.7734 Q670.3984,284.7188 670.5078,284.7188 Q670.6953,284.7188 670.8125,284.8516 Q670.9297,284.9766 670.9297,285.2813 L670.9297,286.0078 Q670.9297,286.3125 670.8125,286.4453 Q670.6953,286.5781 670.5078,286.5781 Q670.3359,286.5781 670.2344,286.4766 Q670.1328,286.3828 670.0781,286.125 Q670.0547,285.9453 669.9609,285.8516 Q669.7969,285.6641 669.4922,285.5547 Q669.1875,285.4453 668.875,285.4453 Q668.4922,285.4453 668.1719,285.6094 Q667.8594,285.7734 667.6094,286.1484 Q667.3672,286.5234 667.3672,287.0391 L667.3672,287.5859 Q667.3672,288.2031 667.8125,288.6172 Q668.2578,289.0234 669.0547,289.0234 Q669.5234,289.0234 669.8516,288.8984 Q670.0469,288.8203 670.2578,288.6016 Q670.3906,288.4688 670.4609,288.4297 Q670.5391,288.3906 670.6406,288.3906 Q670.8047,288.3906 670.9297,288.5234 Q671.0625,288.6484 671.0625,288.8203 Q671.0625,288.9922 670.8906,289.1953 Q670.6406,289.4844 670.2422,289.6484 Q669.7031,289.875 669.0547,289.875 Q668.2969,289.875 667.6953,289.5625 Q667.2031,289.3125 666.8594,288.7813 Q666.5156,288.2422 666.5156,287.6016 L666.5156,287.0234 Q666.5156,286.3594 666.8203,285.7891 Q667.1328,285.2109 667.6797,284.9063 Q668.2266,284.5938 668.8438,284.5938 Q669.2109,284.5938 669.5313,284.6797 Q669.8594,284.7578 670.1328,284.9375 Z " fill="#000000"/><text fill="#000000" font-family="sans-serif" font-size="7" lengthAdjust="spacing" textLength="67" x="675.75" y="289.8984">TransactionalContext</text><line style="stroke:#181818;stroke-width:0.25;" x1="661.75" x2="743.75" y1="295" y2="295"/><line style="stroke:#181818;stroke-width:0.25;" x1="661.75" x2="743.75" y1="299" y2="299"/><ellipse cx="666.75" cy="306.4053" fill="#84BE84" rx="1.5" ry="1.5" style="stroke:#038048;stroke-width:0.5;"/><text fill="#000000" font-family="sans-serif" font-size="7" lengthAdjust="spacing" textLength="60" x="671.25" y="308.5537">beginTransaction()</text><ellipse cx="666.75" cy="315.7158" fill="#84BE84" rx="1.5" ry="1.5" style="stroke:#038048;stroke-width:0.5;"/><text fill="#000000" font-family="sans-serif" font-size="7" lengthAdjust="spacing" textLength="27" x="671.25" y="317.8643">commit()</text></g><!--link TakeAutomaticFormativeExamUI to ExamController--><g id="link_TakeAutomaticFormativeExamUI_ExamController"><path codeLine="107" d="M605.25,27.66 C605.25,34.595 605.25,44.125 605.25,54.855 " fill="none" id="TakeAutomaticFormativeExamUI-to-ExamController" style="stroke:#181818;stroke-width:0.5;"/><polygon fill="#181818" points="605.25,57.46,607.25,52.96,605.25,54.96,603.25,52.96,605.25,57.46" style="stroke:#181818;stroke-width:0.5;"/></g><!--link ExamController to PersistenceContext--><g id="link_ExamController_PersistenceContext"><path codeLine="108" d="M605.25,249.095 C605.25,261.06 605.25,272.14 605.25,280.865 " fill="none" id="ExamController-to-PersistenceContext" style="stroke:#181818;stroke-width:0.5;"/><polygon fill="#181818" points="605.25,283.495,607.25,278.995,605.25,280.995,603.25,278.995,605.25,283.495" style="stroke:#181818;stroke-width:0.5;"/></g><!--link ExamController to TransactionalContext--><g id="link_ExamController_TransactionalContext"><path codeLine="109" d="M668.925,249.095 C675.66,259.185 681.975,268.645 687.285,276.595 " fill="none" id="ExamController-to-TransactionalContext" style="stroke:#181818;stroke-width:0.5;"/><polygon fill="#181818" points="688.755,278.795,687.9229,273.9414,687.3682,276.7149,684.5947,276.1602,688.755,278.795" style="stroke:#181818;stroke-width:0.5;"/></g><!--link ExamController to RepositoryFactory--><g id="link_ExamController_RepositoryFactory"><path codeLine="110" d="M544.515,249.095 C536.765,261.265 529.595,272.52 523.995,281.315 " fill="none" id="ExamController-to-RepositoryFactory" style="stroke:#181818;stroke-width:0.5;"/><polygon fill="#181818" points="522.605,283.495,526.7101,280.775,523.9486,281.3867,523.3368,278.6253,522.605,283.495" style="stroke:#181818;stroke-width:0.5;"/></g><!--link RepositoryFactory to ExamService--><g id="link_RepositoryFactory_ExamService"><path codeLine="111" d="M475.12,301.935 C403.575,304.99 242.17,315.61 111.75,351.5 C109.675,352.07 107.58,352.7 105.48,353.38 " fill="none" id="RepositoryFactory-to-ExamService" style="stroke:#181818;stroke-width:0.5;"/><polygon fill="#181818" points="103.01,354.195,107.9107,354.6782,105.3831,353.4087,106.6526,350.8812,103.01,354.195" style="stroke:#181818;stroke-width:0.5;"/></g><!--link RepositoryFactory to QuestionService--><g id="link_RepositoryFactory_QuestionService"><path codeLine="112" d="M475.06,305.4 C422.265,312.515 322.88,327.825 240.75,351.5 C238.585,352.125 236.39,352.795 234.18,353.5 " fill="none" id="RepositoryFactory-to-QuestionService" style="stroke:#181818;stroke-width:0.5;"/><polygon fill="#181818" points="231.78,354.275,236.6775,354.7892,234.1581,353.5037,235.4435,350.9843,231.78,354.275" style="stroke:#181818;stroke-width:0.5;"/></g><!--link RepositoryFactory to ShortAnswerService--><g id="link_RepositoryFactory_ShortAnswerService"><path codeLine="113" d="M475.055,314.825 C445.075,326.17 402.395,342.32 368.05,355.315 " fill="none" id="RepositoryFactory-to-ShortAnswerService" style="stroke:#181818;stroke-width:0.5;"/><polygon fill="#181818" points="365.595,356.245,370.5118,356.5195,367.9326,355.3586,369.0935,352.7794,365.595,356.245" style="stroke:#181818;stroke-width:0.5;"/></g><!--link RepositoryFactory to MatchingService--><g id="link_RepositoryFactory_MatchingService"><path codeLine="114" d="M497.875,317.11 C488.35,327.95 475.72,342.32 465.225,354.27 " fill="none" id="RepositoryFactory-to-MatchingService" style="stroke:#181818;stroke-width:0.5;"/><polygon fill="#181818" points="463.555,356.165,468.0273,354.1038,465.2048,354.2867,465.022,351.4641,463.555,356.165" style="stroke:#181818;stroke-width:0.5;"/></g><!--link RepositoryFactory to TrueOrFalseService--><g id="link_RepositoryFactory_TrueOrFalseService"><path codeLine="115" d="M526.73,317.11 C536.33,327.95 549.05,342.32 559.63,354.27 " fill="none" id="RepositoryFactory-to-TrueOrFalseService" style="stroke:#181818;stroke-width:0.5;"/><polygon fill="#181818" points="561.305,356.165,559.8191,351.4701,559.6476,354.2933,556.8244,354.1219,561.305,356.165" style="stroke:#181818;stroke-width:0.5;"/></g><!--link RepositoryFactory to MultipleChoiceService--><g id="link_RepositoryFactory_MultipleChoiceService"><path codeLine="116" d="M546.855,317.02 C550.51,318.59 554.19,320.115 557.75,321.5 C597.825,337.115 608.99,337.785 649.75,351.5 C653.515,352.765 657.38,354.08 661.28,355.41 " fill="none" id="RepositoryFactory-to-MultipleChoiceService" style="stroke:#181818;stroke-width:0.5;"/><polygon fill="#181818" points="663.715,356.24,660.0994,352.8967,661.3483,355.4345,658.8106,356.6834,663.715,356.24" style="stroke:#181818;stroke-width:0.5;"/></g><!--link RepositoryFactory to MissingWordsService--><g id="link_RepositoryFactory_MissingWordsService"><path codeLine="117" d="M544.86,317.03 C549.12,318.74 553.49,320.29 557.75,321.5 C660.525,350.665 692.295,326.855 796.25,351.5 C801.075,352.645 806.025,353.995 810.96,355.475 " fill="none" id="RepositoryFactory-to-MissingWordsService" style="stroke:#181818;stroke-width:0.5;"/><polygon fill="#181818" points="813.385,356.21,809.6627,352.986,810.9934,355.4818,808.4976,356.8125,813.385,356.21" style="stroke:#181818;stroke-width:0.5;"/></g><!--link RepositoryFactory to NumericalService--><g id="link_RepositoryFactory_NumericalService"><path codeLine="118" d="M544.305,317.025 C548.735,318.785 553.295,320.35 557.75,321.5 C722.84,364.195 774.015,313.495 940.25,351.5 C944.91,352.565 949.675,353.9 954.41,355.4 " fill="none" id="RepositoryFactory-to-NumericalService" style="stroke:#181818;stroke-width:0.5;"/><polygon fill="#181818" points="956.88,356.2,953.2076,352.9193,954.4999,355.4352,951.9839,356.7275,956.88,356.2" style="stroke:#181818;stroke-width:0.5;"/></g><!--link ExamService to ExamRepository--><g id="link_ExamService_ExamRepository"><path codeLine="119" d="M53.25,403.52 C53.25,412.755 53.25,422.855 53.25,430.77 " fill="none" id="ExamService-to-ExamRepository" style="stroke:#181818;stroke-width:0.5;"/><polygon fill="#181818" points="53.25,433.37,55.25,428.87,53.25,430.87,51.25,428.87,53.25,433.37" style="stroke:#181818;stroke-width:0.5;"/></g><!--link QuestionService to QuestionRepository--><g id="link_QuestionService_QuestionRepository"><path codeLine="120" d="M176.25,403.52 C176.25,412.755 176.25,422.855 176.25,430.77 " fill="none" id="QuestionService-to-QuestionRepository" style="stroke:#181818;stroke-width:0.5;"/><polygon fill="#181818" points="176.25,433.37,178.25,428.87,176.25,430.87,174.25,428.87,176.25,433.37" style="stroke:#181818;stroke-width:0.5;"/></g><!--link ShortAnswerService to ShortAnswerRepository--><g id="link_ShortAnswerService_ShortAnswerRepository"><path codeLine="121" d="M310.75,398.83 C310.75,409.225 310.75,421.525 310.75,430.815 " fill="none" id="ShortAnswerService-to-ShortAnswerRepository" style="stroke:#181818;stroke-width:0.5;"/><polygon fill="#181818" points="310.75,433.355,312.75,428.855,310.75,430.855,308.75,428.855,310.75,433.355" style="stroke:#181818;stroke-width:0.5;"/></g><!--link MatchingService to MatchingRepository--><g id="link_MatchingService_MatchingRepository"><path codeLine="122" d="M445.25,398.83 C445.25,409.225 445.25,421.525 445.25,430.815 " fill="none" id="MatchingService-to-MatchingRepository" style="stroke:#181818;stroke-width:0.5;"/><polygon fill="#181818" points="445.25,433.355,447.25,428.855,445.25,430.855,443.25,428.855,445.25,433.355" style="stroke:#181818;stroke-width:0.5;"/></g><!--link TrueOrFalseService to TrueOrFalseRepository--><g id="link_TrueOrFalseService_TrueOrFalseRepository"><path codeLine="123" d="M579.75,398.83 C579.75,409.225 579.75,421.525 579.75,430.815 " fill="none" id="TrueOrFalseService-to-TrueOrFalseRepository" style="stroke:#181818;stroke-width:0.5;"/><polygon fill="#181818" points="579.75,433.355,581.75,428.855,579.75,430.855,577.75,428.855,579.75,433.355" style="stroke:#181818;stroke-width:0.5;"/></g><!--link MultipleChoiceService to MultipleChoiceRepository--><g id="link_MultipleChoiceService_MultipleChoiceRepository"><path codeLine="124" d="M723.25,398.83 C723.25,409.225 723.25,421.525 723.25,430.815 " fill="none" id="MultipleChoiceService-to-MultipleChoiceRepository" style="stroke:#181818;stroke-width:0.5;"/><polygon fill="#181818" points="723.25,433.355,725.25,428.855,723.25,430.855,721.25,428.855,723.25,433.355" style="stroke:#181818;stroke-width:0.5;"/></g><!--link MissingWordsService to MissingWordsRepository--><g id="link_MissingWordsService_MissingWordsRepository"><path codeLine="125" d="M868.25,398.83 C868.25,409.225 868.25,421.525 868.25,430.815 " fill="none" id="MissingWordsService-to-MissingWordsRepository" style="stroke:#181818;stroke-width:0.5;"/><polygon fill="#181818" points="868.25,433.355,870.25,428.855,868.25,430.855,866.25,428.855,868.25,433.355" style="stroke:#181818;stroke-width:0.5;"/></g><!--link NumericalService to NumericalRepository--><g id="link_NumericalService_NumericalRepository"><path codeLine="126" d="M1005.75,398.83 C1005.75,409.225 1005.75,421.525 1005.75,430.815 " fill="none" id="NumericalService-to-NumericalRepository" style="stroke:#181818;stroke-width:0.5;"/><polygon fill="#181818" points="1005.75,433.355,1007.75,428.855,1005.75,430.855,1003.75,428.855,1005.75,433.355" style="stroke:#181818;stroke-width:0.5;"/></g><!--SRC=[ZPLDRzim38Rl_XM-BSMGvTx3W2nOW1xQRak6dLM5I8J9LYRA_S2m_px5jXHAeWldaC3amm-_aSWF9-VEUBjQdRLeNTVeJz8qAwa5ulAWnD6AfghwntelViEwSwOHJicjiPVVP_ZwAfgVT_NVwb_WBfQDQPqrMeFrdjf_bZM2VLOIRdl_RdWONNywGATCkml8zzGGCfoCTUiMNy16SbVOHjXt9q-gFKRoFZMCcBCTFDgjq0YHt1UsaBFJJfqrR4x66w-PENC8KOY-w2zZ3tWDA8qZtdODM2M5Zkn3Pkd1Z_KHt4L7_FAsCPr5MCZ-vsPqenZ-cGNuhvjhp5hhHVeOf4Pg9wgo_g0bwoJoyS69N3n216A1g0hr9YTmb2iUFmjdWyeP-pQSm1_nUSmg3eS7U9aMpMS_22UU14AMW1x-xEIovGCpqK9mByArUBULCXbjfxmUR4S4AvfYgx81j71sszYgWPbNigHflVBEiYK9Dgyg6v2yA7Vv-TTDo9alFH6JT51E4xu-uMPMPoDexNmwiOKZDAygWzEIL-jMoD4vP9CMX0Cw2Bw1HOKEMWcNZGIlBiAnGGN9xDXRqQ9FxA-Kq7dG4nnLIuWualpIR9GRybJlBihbydEs8QlqqGDbsoN3zPbHVQr2hgeKCFGKLWnFv4kPfvY5p8FvFkOfPXTFf6ENy0JBx5-UBBOlNIr1DdAiy_5FTICOCvOpxGYSZr8g7i6O2PW9I7EoKwlKaOOmOoONa-35P4Za9E1_]--></g></svg>