<?xml version="1.0" encoding="UTF-8" standalone="no"?><svg xmlns="http://www.w3.org/2000/svg" xmlns:xlink="http://www.w3.org/1999/xlink" contentStyleType="text/css" height="733px" preserveAspectRatio="none" style="width:422px;height:733px;background:#FFFFFF;" version="1.1" viewBox="0 0 422 733" width="422px" zoomAndPan="magnify"><defs/><g><!--MD5=[e772461b93ec8dac97cc522209ba0c32]
entity ClasseRepository--><g id="elem_ClasseRepository"><path d="M57,682 C57,672 122.5,672 122.5,672 C122.5,672 188,672 188,682 L188,706.6406 C188,716.6406 122.5,716.6406 122.5,716.6406 C122.5,716.6406 57,716.6406 57,706.6406 L57,682 " fill="#F1F1F1" style="stroke:#181818;stroke-width:0.5;"/><path d="M57,682 C57,692 122.5,692 122.5,692 C122.5,692 188,692 188,682 " fill="none" style="stroke:#181818;stroke-width:0.5;"/><text fill="#000000" font-family="sans-serif" font-size="14" lengthAdjust="spacing" textLength="111" x="67" y="708.6738">ClasseRepository</text></g><!--MD5=[a519a3403aa2e2b12a889363afe117c5]
class ScheduleExtraordinaryUI--><g id="elem_ScheduleExtraordinaryUI"><rect codeLine="3" fill="#F1F1F1" height="48" id="ScheduleExtraordinaryUI" rx="2.5" ry="2.5" style="stroke:#181818;stroke-width:0.5;" width="187" x="126" y="7"/><ellipse cx="141" cy="23" fill="#ADD1B2" rx="11" ry="11" style="stroke:#181818;stroke-width:1.0;"/><path d="M143.7656,18.875 Q143.9219,18.6563 144.1094,18.5469 Q144.2969,18.4375 144.5156,18.4375 Q144.8906,18.4375 145.125,18.7031 Q145.3594,18.9531 145.3594,19.5625 L145.3594,21.0156 Q145.3594,21.625 145.125,21.8906 Q144.8906,22.1563 144.5156,22.1563 Q144.1719,22.1563 143.9688,21.9531 Q143.7656,21.7656 143.6563,21.25 Q143.6094,20.8906 143.4219,20.7031 Q143.0938,20.3281 142.4844,20.1094 Q141.875,19.8906 141.25,19.8906 Q140.4844,19.8906 139.8438,20.2188 Q139.2188,20.5469 138.7188,21.2969 Q138.2344,22.0469 138.2344,23.0781 L138.2344,24.1719 Q138.2344,25.4063 139.125,26.2344 Q140.0156,27.0469 141.6094,27.0469 Q142.5469,27.0469 143.2031,26.7969 Q143.5938,26.6406 144.0156,26.2031 Q144.2813,25.9375 144.4219,25.8594 Q144.5781,25.7813 144.7813,25.7813 Q145.1094,25.7813 145.3594,26.0469 Q145.625,26.2969 145.625,26.6406 Q145.625,26.9844 145.2813,27.3906 Q144.7813,27.9688 143.9844,28.2969 Q142.9063,28.75 141.6094,28.75 Q140.0938,28.75 138.8906,28.125 Q137.9063,27.625 137.2188,26.5625 Q136.5313,25.4844 136.5313,24.2031 L136.5313,23.0469 Q136.5313,21.7188 137.1406,20.5781 Q137.7656,19.4219 138.8594,18.8125 Q139.9531,18.1875 141.1875,18.1875 Q141.9219,18.1875 142.5625,18.3594 Q143.2188,18.5156 143.7656,18.875 Z " fill="#000000"/><text fill="#000000" font-family="sans-serif" font-size="14" lengthAdjust="spacing" textLength="155" x="155" y="27.8535">ScheduleExtraordinaryUI</text><line style="stroke:#181818;stroke-width:0.5;" x1="127" x2="312" y1="39" y2="39"/><line style="stroke:#181818;stroke-width:0.5;" x1="127" x2="312" y1="47" y2="47"/></g><!--MD5=[791ef789a4b11c61d3c3e6e0888bade1]
class ClasseController--><g id="elem_ClasseController"><rect codeLine="6" fill="#F1F1F1" height="63.6406" id="ClasseController" rx="2.5" ry="2.5" style="stroke:#181818;stroke-width:0.5;" width="392" x="23.5" y="115"/><ellipse cx="162.75" cy="131" fill="#ADD1B2" rx="11" ry="11" style="stroke:#181818;stroke-width:1.0;"/><path d="M165.5156,126.875 Q165.6719,126.6563 165.8594,126.5469 Q166.0469,126.4375 166.2656,126.4375 Q166.6406,126.4375 166.875,126.7031 Q167.1094,126.9531 167.1094,127.5625 L167.1094,129.0156 Q167.1094,129.625 166.875,129.8906 Q166.6406,130.1563 166.2656,130.1563 Q165.9219,130.1563 165.7188,129.9531 Q165.5156,129.7656 165.4063,129.25 Q165.3594,128.8906 165.1719,128.7031 Q164.8438,128.3281 164.2344,128.1094 Q163.625,127.8906 163,127.8906 Q162.2344,127.8906 161.5938,128.2188 Q160.9688,128.5469 160.4688,129.2969 Q159.9844,130.0469 159.9844,131.0781 L159.9844,132.1719 Q159.9844,133.4063 160.875,134.2344 Q161.7656,135.0469 163.3594,135.0469 Q164.2969,135.0469 164.9531,134.7969 Q165.3438,134.6406 165.7656,134.2031 Q166.0313,133.9375 166.1719,133.8594 Q166.3281,133.7813 166.5313,133.7813 Q166.8594,133.7813 167.1094,134.0469 Q167.375,134.2969 167.375,134.6406 Q167.375,134.9844 167.0313,135.3906 Q166.5313,135.9688 165.7344,136.2969 Q164.6563,136.75 163.3594,136.75 Q161.8438,136.75 160.6406,136.125 Q159.6563,135.625 158.9688,134.5625 Q158.2813,133.4844 158.2813,132.2031 L158.2813,131.0469 Q158.2813,129.7188 158.8906,128.5781 Q159.5156,127.4219 160.6094,126.8125 Q161.7031,126.1875 162.9375,126.1875 Q163.6719,126.1875 164.3125,126.3594 Q164.9688,126.5156 165.5156,126.875 Z " fill="#000000"/><text fill="#000000" font-family="sans-serif" font-size="14" lengthAdjust="spacing" textLength="105" x="183.25" y="135.8535">ClasseController</text><line style="stroke:#181818;stroke-width:0.5;" x1="24.5" x2="414.5" y1="147" y2="147"/><line style="stroke:#181818;stroke-width:0.5;" x1="24.5" x2="414.5" y1="155" y2="155"/><ellipse cx="34.5" cy="168.3203" fill="#84BE84" rx="3" ry="3" style="stroke:#038048;stroke-width:1.0;"/><text fill="#000000" font-family="sans-serif" font-size="14" lengthAdjust="spacing" textLength="366" x="43.5" y="171.6738">addClass(duration,time_hour,time_min,title,teacherProfile)</text></g><!--MD5=[b1589d4dc92cc7c86bf97eeaeec1450b]
class ClasseService--><g id="elem_ClasseService"><rect codeLine="10" fill="#F1F1F1" height="79.2813" id="ClasseService" rx="2.5" ry="2.5" style="stroke:#181818;stroke-width:0.5;" width="161" x="42" y="533"/><ellipse cx="74.55" cy="549" fill="#ADD1B2" rx="11" ry="11" style="stroke:#181818;stroke-width:1.0;"/><path d="M77.3156,544.875 Q77.4719,544.6563 77.6594,544.5469 Q77.8469,544.4375 78.0656,544.4375 Q78.4406,544.4375 78.675,544.7031 Q78.9094,544.9531 78.9094,545.5625 L78.9094,547.0156 Q78.9094,547.625 78.675,547.8906 Q78.4406,548.1563 78.0656,548.1563 Q77.7219,548.1563 77.5188,547.9531 Q77.3156,547.7656 77.2063,547.25 Q77.1594,546.8906 76.9719,546.7031 Q76.6438,546.3281 76.0344,546.1094 Q75.425,545.8906 74.8,545.8906 Q74.0344,545.8906 73.3938,546.2188 Q72.7688,546.5469 72.2688,547.2969 Q71.7844,548.0469 71.7844,549.0781 L71.7844,550.1719 Q71.7844,551.4063 72.675,552.2344 Q73.5656,553.0469 75.1594,553.0469 Q76.0969,553.0469 76.7531,552.7969 Q77.1438,552.6406 77.5656,552.2031 Q77.8313,551.9375 77.9719,551.8594 Q78.1281,551.7813 78.3313,551.7813 Q78.6594,551.7813 78.9094,552.0469 Q79.175,552.2969 79.175,552.6406 Q79.175,552.9844 78.8313,553.3906 Q78.3313,553.9688 77.5344,554.2969 Q76.4563,554.75 75.1594,554.75 Q73.6438,554.75 72.4406,554.125 Q71.4563,553.625 70.7688,552.5625 Q70.0813,551.4844 70.0813,550.2031 L70.0813,549.0469 Q70.0813,547.7188 70.6906,546.5781 Q71.3156,545.4219 72.4094,544.8125 Q73.5031,544.1875 74.7375,544.1875 Q75.4719,544.1875 76.1125,544.3594 Q76.7688,544.5156 77.3156,544.875 Z " fill="#000000"/><text fill="#000000" font-family="sans-serif" font-size="14" lengthAdjust="spacing" textLength="90" x="92.45" y="553.8535">ClasseService</text><line style="stroke:#181818;stroke-width:0.5;" x1="43" x2="202" y1="565" y2="565"/><line style="stroke:#181818;stroke-width:0.5;" x1="43" x2="202" y1="573" y2="573"/><ellipse cx="53" cy="586.3203" fill="#84BE84" rx="3" ry="3" style="stroke:#038048;stroke-width:1.0;"/><text fill="#000000" font-family="sans-serif" font-size="14" lengthAdjust="spacing" textLength="135" x="62" y="589.6738">addNewClass(classe)</text><ellipse cx="53" cy="601.9609" fill="#84BE84" rx="3" ry="3" style="stroke:#038048;stroke-width:1.0;"/><text fill="#000000" font-family="sans-serif" font-size="14" lengthAdjust="spacing" textLength="95" x="62" y="605.3145">getAllClasses()</text></g><!--MD5=[e8c189551b7885b999ad7cefb30fc2a3]
class PersistenceContext--><g id="elem_PersistenceContext"><rect codeLine="16" fill="#F1F1F1" height="63.6406" id="PersistenceContext" rx="2.5" ry="2.5" style="stroke:#181818;stroke-width:0.5;" width="154" x="45.5" y="246.5"/><ellipse cx="60.5" cy="262.5" fill="#ADD1B2" rx="11" ry="11" style="stroke:#181818;stroke-width:1.0;"/><path d="M63.2656,258.375 Q63.4219,258.1563 63.6094,258.0469 Q63.7969,257.9375 64.0156,257.9375 Q64.3906,257.9375 64.625,258.2031 Q64.8594,258.4531 64.8594,259.0625 L64.8594,260.5156 Q64.8594,261.125 64.625,261.3906 Q64.3906,261.6563 64.0156,261.6563 Q63.6719,261.6563 63.4688,261.4531 Q63.2656,261.2656 63.1563,260.75 Q63.1094,260.3906 62.9219,260.2031 Q62.5938,259.8281 61.9844,259.6094 Q61.375,259.3906 60.75,259.3906 Q59.9844,259.3906 59.3438,259.7188 Q58.7188,260.0469 58.2188,260.7969 Q57.7344,261.5469 57.7344,262.5781 L57.7344,263.6719 Q57.7344,264.9063 58.625,265.7344 Q59.5156,266.5469 61.1094,266.5469 Q62.0469,266.5469 62.7031,266.2969 Q63.0938,266.1406 63.5156,265.7031 Q63.7813,265.4375 63.9219,265.3594 Q64.0781,265.2813 64.2813,265.2813 Q64.6094,265.2813 64.8594,265.5469 Q65.125,265.7969 65.125,266.1406 Q65.125,266.4844 64.7813,266.8906 Q64.2813,267.4688 63.4844,267.7969 Q62.4063,268.25 61.1094,268.25 Q59.5938,268.25 58.3906,267.625 Q57.4063,267.125 56.7188,266.0625 Q56.0313,264.9844 56.0313,263.7031 L56.0313,262.5469 Q56.0313,261.2188 56.6406,260.0781 Q57.2656,258.9219 58.3594,258.3125 Q59.4531,257.6875 60.6875,257.6875 Q61.4219,257.6875 62.0625,257.8594 Q62.7188,258.0156 63.2656,258.375 Z " fill="#000000"/><text fill="#000000" font-family="sans-serif" font-size="14" lengthAdjust="spacing" textLength="122" x="74.5" y="267.3535">PersistenceContext</text><line style="stroke:#181818;stroke-width:0.5;" x1="46.5" x2="198.5" y1="278.5" y2="278.5"/><line style="stroke:#181818;stroke-width:0.5;" x1="46.5" x2="198.5" y1="286.5" y2="286.5"/><ellipse cx="56.5" cy="299.8203" fill="#84BE84" rx="3" ry="3" style="stroke:#038048;stroke-width:1.0;"/><text fill="#000000" font-family="sans-serif" font-size="14" lengthAdjust="spacing" textLength="84" x="65.5" y="303.1738">repositories()</text></g><!--MD5=[48590afff58a68e2fcba47824d6f8a11]
class RepositoryFactory--><g id="elem_RepositoryFactory"><rect codeLine="20" fill="#F1F1F1" height="94.9219" id="RepositoryFactory" rx="2.5" ry="2.5" style="stroke:#181818;stroke-width:0.5;" width="231" x="7" y="378"/><ellipse cx="60.25" cy="394" fill="#ADD1B2" rx="11" ry="11" style="stroke:#181818;stroke-width:1.0;"/><path d="M63.0156,389.875 Q63.1719,389.6563 63.3594,389.5469 Q63.5469,389.4375 63.7656,389.4375 Q64.1406,389.4375 64.375,389.7031 Q64.6094,389.9531 64.6094,390.5625 L64.6094,392.0156 Q64.6094,392.625 64.375,392.8906 Q64.1406,393.1563 63.7656,393.1563 Q63.4219,393.1563 63.2188,392.9531 Q63.0156,392.7656 62.9063,392.25 Q62.8594,391.8906 62.6719,391.7031 Q62.3438,391.3281 61.7344,391.1094 Q61.125,390.8906 60.5,390.8906 Q59.7344,390.8906 59.0938,391.2188 Q58.4688,391.5469 57.9688,392.2969 Q57.4844,393.0469 57.4844,394.0781 L57.4844,395.1719 Q57.4844,396.4063 58.375,397.2344 Q59.2656,398.0469 60.8594,398.0469 Q61.7969,398.0469 62.4531,397.7969 Q62.8438,397.6406 63.2656,397.2031 Q63.5313,396.9375 63.6719,396.8594 Q63.8281,396.7813 64.0313,396.7813 Q64.3594,396.7813 64.6094,397.0469 Q64.875,397.2969 64.875,397.6406 Q64.875,397.9844 64.5313,398.3906 Q64.0313,398.9688 63.2344,399.2969 Q62.1563,399.75 60.8594,399.75 Q59.3438,399.75 58.1406,399.125 Q57.1563,398.625 56.4688,397.5625 Q55.7813,396.4844 55.7813,395.2031 L55.7813,394.0469 Q55.7813,392.7188 56.3906,391.5781 Q57.0156,390.4219 58.1094,389.8125 Q59.2031,389.1875 60.4375,389.1875 Q61.1719,389.1875 61.8125,389.3594 Q62.4688,389.5156 63.0156,389.875 Z " fill="#000000"/><text fill="#000000" font-family="sans-serif" font-size="14" lengthAdjust="spacing" textLength="116" x="80.75" y="398.8535">RepositoryFactory</text><line style="stroke:#181818;stroke-width:0.5;" x1="8" x2="237" y1="410" y2="410"/><line style="stroke:#181818;stroke-width:0.5;" x1="8" x2="237" y1="418" y2="418"/><ellipse cx="18" cy="431.3203" fill="#84BE84" rx="3" ry="3" style="stroke:#038048;stroke-width:1.0;"/><text fill="#000000" font-family="sans-serif" font-size="14" lengthAdjust="spacing" textLength="50" x="27" y="434.6738">create()</text><ellipse cx="18" cy="446.9609" fill="#84BE84" rx="3" ry="3" style="stroke:#038048;stroke-width:1.0;"/><text fill="#000000" font-family="sans-serif" font-size="14" lengthAdjust="spacing" textLength="169" x="27" y="450.3145">newTransactionalContext()</text><ellipse cx="18" cy="462.6016" fill="#84BE84" rx="3" ry="3" style="stroke:#038048;stroke-width:1.0;"/><text fill="#000000" font-family="sans-serif" font-size="14" lengthAdjust="spacing" textLength="205" x="27" y="465.9551">create(TransactionalContext ctx)</text></g><!--MD5=[288bffab58163169a8d16c57b889bc0c]
class TransactionalContext--><g id="elem_TransactionalContext"><rect codeLine="29" fill="#F1F1F1" height="79.2813" id="TransactionalContext" rx="2.5" ry="2.5" style="stroke:#181818;stroke-width:0.5;" width="166" x="234.5" y="239"/><ellipse cx="249.5" cy="255" fill="#ADD1B2" rx="11" ry="11" style="stroke:#181818;stroke-width:1.0;"/><path d="M252.2656,250.875 Q252.4219,250.6563 252.6094,250.5469 Q252.7969,250.4375 253.0156,250.4375 Q253.3906,250.4375 253.625,250.7031 Q253.8594,250.9531 253.8594,251.5625 L253.8594,253.0156 Q253.8594,253.625 253.625,253.8906 Q253.3906,254.1563 253.0156,254.1563 Q252.6719,254.1563 252.4688,253.9531 Q252.2656,253.7656 252.1563,253.25 Q252.1094,252.8906 251.9219,252.7031 Q251.5938,252.3281 250.9844,252.1094 Q250.375,251.8906 249.75,251.8906 Q248.9844,251.8906 248.3438,252.2188 Q247.7188,252.5469 247.2188,253.2969 Q246.7344,254.0469 246.7344,255.0781 L246.7344,256.1719 Q246.7344,257.4063 247.625,258.2344 Q248.5156,259.0469 250.1094,259.0469 Q251.0469,259.0469 251.7031,258.7969 Q252.0938,258.6406 252.5156,258.2031 Q252.7813,257.9375 252.9219,257.8594 Q253.0781,257.7813 253.2813,257.7813 Q253.6094,257.7813 253.8594,258.0469 Q254.125,258.2969 254.125,258.6406 Q254.125,258.9844 253.7813,259.3906 Q253.2813,259.9688 252.4844,260.2969 Q251.4063,260.75 250.1094,260.75 Q248.5938,260.75 247.3906,260.125 Q246.4063,259.625 245.7188,258.5625 Q245.0313,257.4844 245.0313,256.2031 L245.0313,255.0469 Q245.0313,253.7188 245.6406,252.5781 Q246.2656,251.4219 247.3594,250.8125 Q248.4531,250.1875 249.6875,250.1875 Q250.4219,250.1875 251.0625,250.3594 Q251.7188,250.5156 252.2656,250.875 Z " fill="#000000"/><text fill="#000000" font-family="sans-serif" font-size="14" lengthAdjust="spacing" textLength="134" x="263.5" y="259.8535">TransactionalContext</text><line style="stroke:#181818;stroke-width:0.5;" x1="235.5" x2="399.5" y1="271" y2="271"/><line style="stroke:#181818;stroke-width:0.5;" x1="235.5" x2="399.5" y1="279" y2="279"/><ellipse cx="245.5" cy="292.3203" fill="#84BE84" rx="3" ry="3" style="stroke:#038048;stroke-width:1.0;"/><text fill="#000000" font-family="sans-serif" font-size="14" lengthAdjust="spacing" textLength="120" x="254.5" y="295.6738">beginTransaction()</text><ellipse cx="245.5" cy="307.9609" fill="#84BE84" rx="3" ry="3" style="stroke:#038048;stroke-width:1.0;"/><text fill="#000000" font-family="sans-serif" font-size="14" lengthAdjust="spacing" textLength="54" x="254.5" y="311.3145">commit()</text></g><!--MD5=[4122e607484ddcbed8342364afcb7060]
link ScheduleExtraordinaryUI to ClasseController--><g id="link_ScheduleExtraordinaryUI_ClasseController"><path codeLine="34" d="M219.5,55.07 C219.5,70.64 219.5,91.51 219.5,109.33 " fill="none" id="ScheduleExtraordinaryUI-to-ClasseController" style="stroke:#181818;stroke-width:1.0;"/><polygon fill="#181818" points="219.5,114.75,223.5,105.75,219.5,109.75,215.5,105.75,219.5,114.75" style="stroke:#181818;stroke-width:1.0;"/></g><!--MD5=[9eed1fe6ef169e6d2c159d18e8d07626]
link ClasseController to PersistenceContext--><g id="link_ClasseController_PersistenceContext"><path codeLine="35" d="M196.27,179.02 C182.09,197.94 163.93,222.19 149.17,241.9 " fill="none" id="ClasseController-to-PersistenceContext" style="stroke:#181818;stroke-width:1.0;"/><polygon fill="#181818" points="145.88,246.29,154.48,241.49,148.88,242.29,148.08,236.69,145.88,246.29" style="stroke:#181818;stroke-width:1.0;"/></g><!--MD5=[7ade2fe6c2ac919cd568d60393b329bb]
link ClasseController to TransactionalContext--><g id="link_ClasseController_TransactionalContext"><path codeLine="36" d="M242.97,179.02 C255.61,195.71 271.38,216.56 285.16,234.77 " fill="none" id="ClasseController-to-TransactionalContext" style="stroke:#181818;stroke-width:1.0;"/><polygon fill="#181818" points="288.25,238.85,286.0116,229.2589,285.234,234.862,279.6309,234.0845,288.25,238.85" style="stroke:#181818;stroke-width:1.0;"/></g><!--MD5=[0cce390e0a1e597520ab1448c9da69b2]
link ClasseService to ClasseRepository--><g id="link_ClasseService_ClasseRepository"><path codeLine="38" d="M122.5,612.13 C122.5,629.86 122.5,650.45 122.5,666.48 " fill="none" id="ClasseService-to-ClasseRepository" style="stroke:#181818;stroke-width:1.0;"/><polygon fill="#181818" points="122.5,671.73,126.5,662.73,122.5,666.73,118.5,662.73,122.5,671.73" style="stroke:#181818;stroke-width:1.0;"/></g><!--MD5=[754b775031405e096442b27febffa290]
link PersistenceContext to RepositoryFactory--><g id="link_PersistenceContext_RepositoryFactory"><path codeLine="40" d="M122.5,310.61 C122.5,328.63 122.5,351.8 122.5,372.52 " fill="none" id="PersistenceContext-to-RepositoryFactory" style="stroke:#181818;stroke-width:1.0;"/><polygon fill="#181818" points="122.5,377.73,126.5,368.73,122.5,372.73,118.5,368.73,122.5,377.73" style="stroke:#181818;stroke-width:1.0;"/></g><!--MD5=[230049237148573180d3430de111fa41]
link RepositoryFactory to ClasseService--><g id="link_RepositoryFactory_ClasseService"><path codeLine="42" d="M122.5,473.18 C122.5,490.58 122.5,510.27 122.5,527.44 " fill="none" id="RepositoryFactory-to-ClasseService" style="stroke:#181818;stroke-width:1.0;"/><polygon fill="#181818" points="122.5,532.68,126.5,523.68,122.5,527.68,118.5,523.68,122.5,532.68" style="stroke:#181818;stroke-width:1.0;"/></g><!--MD5=[b90786a0d71861e2f08cc35a4eb1bf81]
@startuml
'https://plantuml.com/class-diagram

class ScheduleExtraordinaryUI{
}

class ClasseController{
+addClass(duration,time_hour,time_min,title,teacherProfile)
}

class ClasseService{
+addNewClass(classe)
+getAllClasses()
}


class PersistenceContext{
+repositories()
}

class RepositoryFactory{
+create()
+newTransactionalContext()
+create(TransactionalContext ctx)
}

database ClasseRepository{
}

class TransactionalContext{
+beginTransaction()
+commit()
}

ScheduleExtraordinaryUI - -> ClasseController
ClasseController- ->PersistenceContext
ClasseController- ->TransactionalContext

ClasseService - -> ClasseRepository

PersistenceContext- ->RepositoryFactory

RepositoryFactory- ->ClasseService
@enduml

@startuml

class ScheduleExtraordinaryUI{
}

class ClasseController{
+addClass(duration,time_hour,time_min,title,teacherProfile)
}

class ClasseService{
+addNewClass(classe)
+getAllClasses()
}


class PersistenceContext{
+repositories()
}

class RepositoryFactory{
+create()
+newTransactionalContext()
+create(TransactionalContext ctx)
}

database ClasseRepository{
}

class TransactionalContext{
+beginTransaction()
+commit()
}

ScheduleExtraordinaryUI - -> ClasseController
ClasseController- ->PersistenceContext
ClasseController- ->TransactionalContext

ClasseService - -> ClasseRepository

PersistenceContext- ->RepositoryFactory

RepositoryFactory- ->ClasseService
@enduml

PlantUML version 1.2022.12(Sun Oct 23 19:12:26 WEST 2022)
(GPL source distribution)
Java Runtime: OpenJDK Runtime Environment
JVM: OpenJDK 64-Bit Server VM
Default Encoding: Cp1252
Language: pt
Country: PT
--></g></svg>