<?xml version="1.0" encoding="us-ascii" standalone="no"?><svg xmlns="http://www.w3.org/2000/svg" xmlns:xlink="http://www.w3.org/1999/xlink" contentStyleType="text/css" height="871px" preserveAspectRatio="none" style="width:760px;height:871px;background:#FFFFFF;" version="1.1" viewBox="0 0 760 871" width="760px" zoomAndPan="magnify"><defs/><g><!--entity TeacherRegistrationRepository--><g id="elem_TeacherRegistrationRepository"><path d="M134.5,817 C134.5,807 243,807 243,807 C243,807 351.5,807 351.5,817 L351.5,844.6211 C351.5,854.6211 243,854.6211 243,854.6211 C243,854.6211 134.5,854.6211 134.5,844.6211 L134.5,817 " fill="#F1F1F1" style="stroke:#181818;stroke-width:0.5;"/><path d="M134.5,817 C134.5,827 243,827 243,827 C243,827 351.5,827 351.5,817 " fill="none" style="stroke:#181818;stroke-width:0.5;"/><text fill="#000000" font-family="sans-serif" font-size="14" lengthAdjust="spacing" textLength="197" x="144.5" y="846.1074">TeacherRegistrationRepository</text></g><!--class AddTeacherRegistrationUI--><g id="elem_AddTeacherRegistrationUI"><rect codeLine="3" fill="#F1F1F1" height="48" id="AddTeacherRegistrationUI" rx="2.5" ry="2.5" style="stroke:#181818;stroke-width:0.5;" width="198" x="339" y="7"/><ellipse cx="354" cy="23" fill="#ADD1B2" rx="11" ry="11" style="stroke:#181818;stroke-width:1.0;"/><path d="M356.7656,18.875 Q356.9219,18.6563 357.1094,18.5469 Q357.2969,18.4375 357.5156,18.4375 Q357.8906,18.4375 358.125,18.7031 Q358.3594,18.9531 358.3594,19.5625 L358.3594,21.0156 Q358.3594,21.625 358.125,21.8906 Q357.8906,22.1563 357.5156,22.1563 Q357.1719,22.1563 356.9688,21.9531 Q356.7656,21.7656 356.6563,21.25 Q356.6094,20.8906 356.4219,20.7031 Q356.0938,20.3281 355.4844,20.1094 Q354.875,19.8906 354.25,19.8906 Q353.4844,19.8906 352.8438,20.2188 Q352.2188,20.5469 351.7188,21.2969 Q351.2344,22.0469 351.2344,23.0781 L351.2344,24.1719 Q351.2344,25.4063 352.125,26.2344 Q353.0156,27.0469 354.6094,27.0469 Q355.5469,27.0469 356.2031,26.7969 Q356.5938,26.6406 357.0156,26.2031 Q357.2813,25.9375 357.4219,25.8594 Q357.5781,25.7813 357.7813,25.7813 Q358.1094,25.7813 358.3594,26.0469 Q358.625,26.2969 358.625,26.6406 Q358.625,26.9844 358.2813,27.3906 Q357.7813,27.9688 356.9844,28.2969 Q355.9063,28.75 354.6094,28.75 Q353.0938,28.75 351.8906,28.125 Q350.9063,27.625 350.2188,26.5625 Q349.5313,25.4844 349.5313,24.2031 L349.5313,23.0469 Q349.5313,21.7188 350.1406,20.5781 Q350.7656,19.4219 351.8594,18.8125 Q352.9531,18.1875 354.1875,18.1875 Q354.9219,18.1875 355.5625,18.3594 Q356.2188,18.5156 356.7656,18.875 Z " fill="#000000"/><text fill="#000000" font-family="sans-serif" font-size="14" lengthAdjust="spacing" textLength="166" x="368" y="28.7969">AddTeacherRegistrationUI</text><line style="stroke:#181818;stroke-width:0.5;" x1="340" x2="536" y1="39" y2="39"/><line style="stroke:#181818;stroke-width:0.5;" x1="340" x2="536" y1="47" y2="47"/></g><!--class AddTeacherRegistrationController--><g id="elem_AddTeacherRegistrationController"><rect codeLine="6" fill="#F1F1F1" height="178.3477" id="AddTeacherRegistrationController" rx="2.5" ry="2.5" style="stroke:#181818;stroke-width:0.5;" width="630" x="123" y="115"/><ellipse cx="325.75" cy="131" fill="#ADD1B2" rx="11" ry="11" style="stroke:#181818;stroke-width:1.0;"/><path d="M328.5156,126.875 Q328.6719,126.6563 328.8594,126.5469 Q329.0469,126.4375 329.2656,126.4375 Q329.6406,126.4375 329.875,126.7031 Q330.1094,126.9531 330.1094,127.5625 L330.1094,129.0156 Q330.1094,129.625 329.875,129.8906 Q329.6406,130.1563 329.2656,130.1563 Q328.9219,130.1563 328.7188,129.9531 Q328.5156,129.7656 328.4063,129.25 Q328.3594,128.8906 328.1719,128.7031 Q327.8438,128.3281 327.2344,128.1094 Q326.625,127.8906 326,127.8906 Q325.2344,127.8906 324.5938,128.2188 Q323.9688,128.5469 323.4688,129.2969 Q322.9844,130.0469 322.9844,131.0781 L322.9844,132.1719 Q322.9844,133.4063 323.875,134.2344 Q324.7656,135.0469 326.3594,135.0469 Q327.2969,135.0469 327.9531,134.7969 Q328.3438,134.6406 328.7656,134.2031 Q329.0313,133.9375 329.1719,133.8594 Q329.3281,133.7813 329.5313,133.7813 Q329.8594,133.7813 330.1094,134.0469 Q330.375,134.2969 330.375,134.6406 Q330.375,134.9844 330.0313,135.3906 Q329.5313,135.9688 328.7344,136.2969 Q327.6563,136.75 326.3594,136.75 Q324.8438,136.75 323.6406,136.125 Q322.6563,135.625 321.9688,134.5625 Q321.2813,133.4844 321.2813,132.2031 L321.2813,131.0469 Q321.2813,129.7188 321.8906,128.5781 Q322.5156,127.4219 323.6094,126.8125 Q324.7031,126.1875 325.9375,126.1875 Q326.6719,126.1875 327.3125,126.3594 Q327.9688,126.5156 328.5156,126.875 Z " fill="#000000"/><text fill="#000000" font-family="sans-serif" font-size="14" lengthAdjust="spacing" textLength="216" x="346.25" y="136.7969">AddTeacherRegistrationController</text><line style="stroke:#181818;stroke-width:0.5;" x1="124" x2="752" y1="147" y2="147"/><line style="stroke:#181818;stroke-width:0.5;" x1="124" x2="752" y1="155" y2="155"/><ellipse cx="134" cy="169.8105" fill="#84BE84" rx="3" ry="3" style="stroke:#038048;stroke-width:1.0;"/><text fill="#000000" font-family="sans-serif" font-size="14" lengthAdjust="spacing" textLength="604" x="143" y="174.1074">addTeacherRegistration(final TeacherProfile teacherProfile, final Role role, final Course course)</text><ellipse cx="134" cy="188.4316" fill="#84BE84" rx="3" ry="3" style="stroke:#038048;stroke-width:1.0;"/><text fill="#000000" font-family="sans-serif" font-size="14" lengthAdjust="spacing" textLength="426" x="143" y="192.7285">saveTeacherRegistration(TeacherRegistration teacherRegistration)</text><ellipse cx="134" cy="207.0527" fill="#84BE84" rx="3" ry="3" style="stroke:#038048;stroke-width:1.0;"/><text fill="#000000" font-family="sans-serif" font-size="14" lengthAdjust="spacing" textLength="229" x="143" y="211.3496">hasRegentInCourse(Course course)</text><ellipse cx="134" cy="225.6738" fill="#84BE84" rx="3" ry="3" style="stroke:#038048;stroke-width:1.0;"/><text fill="#000000" font-family="sans-serif" font-size="14" lengthAdjust="spacing" textLength="321" x="143" y="229.9707">getTeacherRegistrationsByCourse(Course course)</text><ellipse cx="134" cy="244.2949" fill="#84BE84" rx="3" ry="3" style="stroke:#038048;stroke-width:1.0;"/><text fill="#000000" font-family="sans-serif" font-size="14" lengthAdjust="spacing" textLength="83" x="143" y="248.5918">getCourses()</text><ellipse cx="134" cy="262.916" fill="#84BE84" rx="3" ry="3" style="stroke:#038048;stroke-width:1.0;"/><text fill="#000000" font-family="sans-serif" font-size="14" lengthAdjust="spacing" textLength="137" x="143" y="267.2129">getTeachersProfiles()</text><ellipse cx="134" cy="281.5371" fill="#84BE84" rx="3" ry="3" style="stroke:#038048;stroke-width:1.0;"/><text fill="#000000" font-family="sans-serif" font-size="14" lengthAdjust="spacing" textLength="166" x="143" y="285.834">getTeacherRegistrations()</text></g><!--class TeacherRegistrationService--><g id="elem_TeacherRegistrationService"><rect codeLine="16" fill="#F1F1F1" height="85.2422" id="TeacherRegistrationService" rx="2.5" ry="2.5" style="stroke:#181818;stroke-width:0.5;" width="472" x="7" y="662"/><ellipse cx="150.75" cy="678" fill="#ADD1B2" rx="11" ry="11" style="stroke:#181818;stroke-width:1.0;"/><path d="M153.5156,673.875 Q153.6719,673.6563 153.8594,673.5469 Q154.0469,673.4375 154.2656,673.4375 Q154.6406,673.4375 154.875,673.7031 Q155.1094,673.9531 155.1094,674.5625 L155.1094,676.0156 Q155.1094,676.625 154.875,676.8906 Q154.6406,677.1563 154.2656,677.1563 Q153.9219,677.1563 153.7188,676.9531 Q153.5156,676.7656 153.4063,676.25 Q153.3594,675.8906 153.1719,675.7031 Q152.8438,675.3281 152.2344,675.1094 Q151.625,674.8906 151,674.8906 Q150.2344,674.8906 149.5938,675.2188 Q148.9688,675.5469 148.4688,676.2969 Q147.9844,677.0469 147.9844,678.0781 L147.9844,679.1719 Q147.9844,680.4063 148.875,681.2344 Q149.7656,682.0469 151.3594,682.0469 Q152.2969,682.0469 152.9531,681.7969 Q153.3438,681.6406 153.7656,681.2031 Q154.0313,680.9375 154.1719,680.8594 Q154.3281,680.7813 154.5313,680.7813 Q154.8594,680.7813 155.1094,681.0469 Q155.375,681.2969 155.375,681.6406 Q155.375,681.9844 155.0313,682.3906 Q154.5313,682.9688 153.7344,683.2969 Q152.6563,683.75 151.3594,683.75 Q149.8438,683.75 148.6406,683.125 Q147.6563,682.625 146.9688,681.5625 Q146.2813,680.4844 146.2813,679.2031 L146.2813,678.0469 Q146.2813,676.7188 146.8906,675.5781 Q147.5156,674.4219 148.6094,673.8125 Q149.7031,673.1875 150.9375,673.1875 Q151.6719,673.1875 152.3125,673.3594 Q152.9688,673.5156 153.5156,673.875 Z " fill="#000000"/><text fill="#000000" font-family="sans-serif" font-size="14" lengthAdjust="spacing" textLength="176" x="171.25" y="683.7969">TeacherRegistrationService</text><line style="stroke:#181818;stroke-width:0.5;" x1="8" x2="478" y1="694" y2="694"/><line style="stroke:#181818;stroke-width:0.5;" x1="8" x2="478" y1="702" y2="702"/><ellipse cx="18" cy="716.8105" fill="#84BE84" rx="3" ry="3" style="stroke:#038048;stroke-width:1.0;"/><text fill="#000000" font-family="sans-serif" font-size="14" lengthAdjust="spacing" textLength="446" x="27" y="721.1074">addNewTeacherRegistration(TeacherRegistration teacherRegistration)</text><ellipse cx="18" cy="735.4316" fill="#84BE84" rx="3" ry="3" style="stroke:#038048;stroke-width:1.0;"/><text fill="#000000" font-family="sans-serif" font-size="14" lengthAdjust="spacing" textLength="45" x="27" y="739.7285">getAll()</text></g><!--class PersistenceContext--><g id="elem_PersistenceContext"><rect codeLine="22" fill="#F1F1F1" height="66.6211" id="PersistenceContext" rx="2.5" ry="2.5" style="stroke:#181818;stroke-width:0.5;" width="154" x="166" y="362"/><ellipse cx="181" cy="378" fill="#ADD1B2" rx="11" ry="11" style="stroke:#181818;stroke-width:1.0;"/><path d="M183.7656,373.875 Q183.9219,373.6563 184.1094,373.5469 Q184.2969,373.4375 184.5156,373.4375 Q184.8906,373.4375 185.125,373.7031 Q185.3594,373.9531 185.3594,374.5625 L185.3594,376.0156 Q185.3594,376.625 185.125,376.8906 Q184.8906,377.1563 184.5156,377.1563 Q184.1719,377.1563 183.9688,376.9531 Q183.7656,376.7656 183.6563,376.25 Q183.6094,375.8906 183.4219,375.7031 Q183.0938,375.3281 182.4844,375.1094 Q181.875,374.8906 181.25,374.8906 Q180.4844,374.8906 179.8438,375.2188 Q179.2188,375.5469 178.7188,376.2969 Q178.2344,377.0469 178.2344,378.0781 L178.2344,379.1719 Q178.2344,380.4063 179.125,381.2344 Q180.0156,382.0469 181.6094,382.0469 Q182.5469,382.0469 183.2031,381.7969 Q183.5938,381.6406 184.0156,381.2031 Q184.2813,380.9375 184.4219,380.8594 Q184.5781,380.7813 184.7813,380.7813 Q185.1094,380.7813 185.3594,381.0469 Q185.625,381.2969 185.625,381.6406 Q185.625,381.9844 185.2813,382.3906 Q184.7813,382.9688 183.9844,383.2969 Q182.9063,383.75 181.6094,383.75 Q180.0938,383.75 178.8906,383.125 Q177.9063,382.625 177.2188,381.5625 Q176.5313,380.4844 176.5313,379.2031 L176.5313,378.0469 Q176.5313,376.7188 177.1406,375.5781 Q177.7656,374.4219 178.8594,373.8125 Q179.9531,373.1875 181.1875,373.1875 Q181.9219,373.1875 182.5625,373.3594 Q183.2188,373.5156 183.7656,373.875 Z " fill="#000000"/><text fill="#000000" font-family="sans-serif" font-size="14" lengthAdjust="spacing" textLength="122" x="195" y="383.7969">PersistenceContext</text><line style="stroke:#181818;stroke-width:0.5;" x1="167" x2="319" y1="394" y2="394"/><line style="stroke:#181818;stroke-width:0.5;" x1="167" x2="319" y1="402" y2="402"/><ellipse cx="177" cy="416.8105" fill="#84BE84" rx="3" ry="3" style="stroke:#038048;stroke-width:1.0;"/><text fill="#000000" font-family="sans-serif" font-size="14" lengthAdjust="spacing" textLength="84" x="186" y="421.1074">repositories()</text></g><!--class RepositoryFactory--><g id="elem_RepositoryFactory"><rect codeLine="26" fill="#F1F1F1" height="103.8633" id="RepositoryFactory" rx="2.5" ry="2.5" style="stroke:#181818;stroke-width:0.5;" width="231" x="127.5" y="498"/><ellipse cx="180.75" cy="514" fill="#ADD1B2" rx="11" ry="11" style="stroke:#181818;stroke-width:1.0;"/><path d="M183.5156,509.875 Q183.6719,509.6563 183.8594,509.5469 Q184.0469,509.4375 184.2656,509.4375 Q184.6406,509.4375 184.875,509.7031 Q185.1094,509.9531 185.1094,510.5625 L185.1094,512.0156 Q185.1094,512.625 184.875,512.8906 Q184.6406,513.1563 184.2656,513.1563 Q183.9219,513.1563 183.7188,512.9531 Q183.5156,512.7656 183.4063,512.25 Q183.3594,511.8906 183.1719,511.7031 Q182.8438,511.3281 182.2344,511.1094 Q181.625,510.8906 181,510.8906 Q180.2344,510.8906 179.5938,511.2188 Q178.9688,511.5469 178.4688,512.2969 Q177.9844,513.0469 177.9844,514.0781 L177.9844,515.1719 Q177.9844,516.4063 178.875,517.2344 Q179.7656,518.0469 181.3594,518.0469 Q182.2969,518.0469 182.9531,517.7969 Q183.3438,517.6406 183.7656,517.2031 Q184.0313,516.9375 184.1719,516.8594 Q184.3281,516.7813 184.5313,516.7813 Q184.8594,516.7813 185.1094,517.0469 Q185.375,517.2969 185.375,517.6406 Q185.375,517.9844 185.0313,518.3906 Q184.5313,518.9688 183.7344,519.2969 Q182.6563,519.75 181.3594,519.75 Q179.8438,519.75 178.6406,519.125 Q177.6563,518.625 176.9688,517.5625 Q176.2813,516.4844 176.2813,515.2031 L176.2813,514.0469 Q176.2813,512.7188 176.8906,511.5781 Q177.5156,510.4219 178.6094,509.8125 Q179.7031,509.1875 180.9375,509.1875 Q181.6719,509.1875 182.3125,509.3594 Q182.9688,509.5156 183.5156,509.875 Z " fill="#000000"/><text fill="#000000" font-family="sans-serif" font-size="14" lengthAdjust="spacing" textLength="116" x="201.25" y="519.7969">RepositoryFactory</text><line style="stroke:#181818;stroke-width:0.5;" x1="128.5" x2="357.5" y1="530" y2="530"/><line style="stroke:#181818;stroke-width:0.5;" x1="128.5" x2="357.5" y1="538" y2="538"/><ellipse cx="138.5" cy="552.8105" fill="#84BE84" rx="3" ry="3" style="stroke:#038048;stroke-width:1.0;"/><text fill="#000000" font-family="sans-serif" font-size="14" lengthAdjust="spacing" textLength="50" x="147.5" y="557.1074">create()</text><ellipse cx="138.5" cy="571.4316" fill="#84BE84" rx="3" ry="3" style="stroke:#038048;stroke-width:1.0;"/><text fill="#000000" font-family="sans-serif" font-size="14" lengthAdjust="spacing" textLength="169" x="147.5" y="575.7285">newTransactionalContext()</text><ellipse cx="138.5" cy="590.0527" fill="#84BE84" rx="3" ry="3" style="stroke:#038048;stroke-width:1.0;"/><text fill="#000000" font-family="sans-serif" font-size="14" lengthAdjust="spacing" textLength="205" x="147.5" y="594.3496">create(TransactionalContext ctx)</text></g><!--class TransactionalContext--><g id="elem_TransactionalContext"><rect codeLine="35" fill="#F1F1F1" height="85.2422" id="TransactionalContext" rx="2.5" ry="2.5" style="stroke:#181818;stroke-width:0.5;" width="166" x="355" y="353"/><ellipse cx="370" cy="369" fill="#ADD1B2" rx="11" ry="11" style="stroke:#181818;stroke-width:1.0;"/><path d="M372.7656,364.875 Q372.9219,364.6563 373.1094,364.5469 Q373.2969,364.4375 373.5156,364.4375 Q373.8906,364.4375 374.125,364.7031 Q374.3594,364.9531 374.3594,365.5625 L374.3594,367.0156 Q374.3594,367.625 374.125,367.8906 Q373.8906,368.1563 373.5156,368.1563 Q373.1719,368.1563 372.9688,367.9531 Q372.7656,367.7656 372.6563,367.25 Q372.6094,366.8906 372.4219,366.7031 Q372.0938,366.3281 371.4844,366.1094 Q370.875,365.8906 370.25,365.8906 Q369.4844,365.8906 368.8438,366.2188 Q368.2188,366.5469 367.7188,367.2969 Q367.2344,368.0469 367.2344,369.0781 L367.2344,370.1719 Q367.2344,371.4063 368.125,372.2344 Q369.0156,373.0469 370.6094,373.0469 Q371.5469,373.0469 372.2031,372.7969 Q372.5938,372.6406 373.0156,372.2031 Q373.2813,371.9375 373.4219,371.8594 Q373.5781,371.7813 373.7813,371.7813 Q374.1094,371.7813 374.3594,372.0469 Q374.625,372.2969 374.625,372.6406 Q374.625,372.9844 374.2813,373.3906 Q373.7813,373.9688 372.9844,374.2969 Q371.9063,374.75 370.6094,374.75 Q369.0938,374.75 367.8906,374.125 Q366.9063,373.625 366.2188,372.5625 Q365.5313,371.4844 365.5313,370.2031 L365.5313,369.0469 Q365.5313,367.7188 366.1406,366.5781 Q366.7656,365.4219 367.8594,364.8125 Q368.9531,364.1875 370.1875,364.1875 Q370.9219,364.1875 371.5625,364.3594 Q372.2188,364.5156 372.7656,364.875 Z " fill="#000000"/><text fill="#000000" font-family="sans-serif" font-size="14" lengthAdjust="spacing" textLength="134" x="384" y="374.7969">TransactionalContext</text><line style="stroke:#181818;stroke-width:0.5;" x1="356" x2="520" y1="385" y2="385"/><line style="stroke:#181818;stroke-width:0.5;" x1="356" x2="520" y1="393" y2="393"/><ellipse cx="366" cy="407.8105" fill="#84BE84" rx="3" ry="3" style="stroke:#038048;stroke-width:1.0;"/><text fill="#000000" font-family="sans-serif" font-size="14" lengthAdjust="spacing" textLength="120" x="375" y="412.1074">beginTransaction()</text><ellipse cx="366" cy="426.4316" fill="#84BE84" rx="3" ry="3" style="stroke:#038048;stroke-width:1.0;"/><text fill="#000000" font-family="sans-serif" font-size="14" lengthAdjust="spacing" textLength="54" x="375" y="430.7285">commit()</text></g><!--class TeacherRegistration--><g id="elem_TeacherRegistration"><rect codeLine="40" fill="#F1F1F1" height="48" id="TeacherRegistration" rx="2.5" ry="2.5" style="stroke:#181818;stroke-width:0.5;" width="161" x="556.5" y="371.5"/><ellipse cx="571.5" cy="387.5" fill="#ADD1B2" rx="11" ry="11" style="stroke:#181818;stroke-width:1.0;"/><path d="M574.2656,383.375 Q574.4219,383.1563 574.6094,383.0469 Q574.7969,382.9375 575.0156,382.9375 Q575.3906,382.9375 575.625,383.2031 Q575.8594,383.4531 575.8594,384.0625 L575.8594,385.5156 Q575.8594,386.125 575.625,386.3906 Q575.3906,386.6563 575.0156,386.6563 Q574.6719,386.6563 574.4688,386.4531 Q574.2656,386.2656 574.1563,385.75 Q574.1094,385.3906 573.9219,385.2031 Q573.5938,384.8281 572.9844,384.6094 Q572.375,384.3906 571.75,384.3906 Q570.9844,384.3906 570.3438,384.7188 Q569.7188,385.0469 569.2188,385.7969 Q568.7344,386.5469 568.7344,387.5781 L568.7344,388.6719 Q568.7344,389.9063 569.625,390.7344 Q570.5156,391.5469 572.1094,391.5469 Q573.0469,391.5469 573.7031,391.2969 Q574.0938,391.1406 574.5156,390.7031 Q574.7813,390.4375 574.9219,390.3594 Q575.0781,390.2813 575.2813,390.2813 Q575.6094,390.2813 575.8594,390.5469 Q576.125,390.7969 576.125,391.1406 Q576.125,391.4844 575.7813,391.8906 Q575.2813,392.4688 574.4844,392.7969 Q573.4063,393.25 572.1094,393.25 Q570.5938,393.25 569.3906,392.625 Q568.4063,392.125 567.7188,391.0625 Q567.0313,389.9844 567.0313,388.7031 L567.0313,387.5469 Q567.0313,386.2188 567.6406,385.0781 Q568.2656,383.9219 569.3594,383.3125 Q570.4531,382.6875 571.6875,382.6875 Q572.4219,382.6875 573.0625,382.8594 Q573.7188,383.0156 574.2656,383.375 Z " fill="#000000"/><text fill="#000000" font-family="sans-serif" font-size="14" lengthAdjust="spacing" textLength="129" x="585.5" y="393.2969">TeacherRegistration</text><line style="stroke:#181818;stroke-width:0.5;" x1="557.5" x2="716.5" y1="403.5" y2="403.5"/><line style="stroke:#181818;stroke-width:0.5;" x1="557.5" x2="716.5" y1="411.5" y2="411.5"/></g><!--link AddTeacherRegistrationUI to AddTeacherRegistrationController--><g id="link_AddTeacherRegistrationUI_AddTeacherRegistrationController"><path codeLine="43" d="M438,55.06 C438,69.52 438,89.21 438,109.5 " fill="none" id="AddTeacherRegistrationUI-to-AddTeacherRegistrationController" style="stroke:#181818;stroke-width:1.0;"/><polygon fill="#181818" points="438,114.67,442,105.67,438,109.67,434,105.67,438,114.67" style="stroke:#181818;stroke-width:1.0;"/></g><!--link AddTeacherRegistrationController to PersistenceContext--><g id="link_AddTeacherRegistrationController_PersistenceContext"><path codeLine="44" d="M347.35,293.09 C323.67,316.11 299.44,339.65 280.3,358.25 " fill="none" id="AddTeacherRegistrationController-to-PersistenceContext" style="stroke:#181818;stroke-width:1.0;"/><polygon fill="#181818" points="276.54,361.9,285.7815,358.4948,280.1252,358.4148,280.2052,352.7585,276.54,361.9" style="stroke:#181818;stroke-width:1.0;"/></g><!--link AddTeacherRegistrationController to TransactionalContext--><g id="link_AddTeacherRegistrationController_TransactionalContext"><path codeLine="45" d="M438,293.09 C438,312.01 438,331.29 438,347.88 " fill="none" id="AddTeacherRegistrationController-to-TransactionalContext" style="stroke:#181818;stroke-width:1.0;"/><polygon fill="#181818" points="438,352.94,442,343.94,438,347.94,434,343.94,438,352.94" style="stroke:#181818;stroke-width:1.0;"/></g><!--link TeacherRegistrationService to TeacherRegistrationRepository--><g id="link_TeacherRegistrationService_TeacherRegistrationRepository"><path codeLine="47" d="M243,747.3 C243,765.2 243,785.64 243,801.71 " fill="none" id="TeacherRegistrationService-to-TeacherRegistrationRepository" style="stroke:#181818;stroke-width:1.0;"/><polygon fill="#181818" points="243,806.99,247,797.99,243,801.99,239,797.99,243,806.99" style="stroke:#181818;stroke-width:1.0;"/></g><!--link AddTeacherRegistrationController to TeacherRegistration--><g id="link_AddTeacherRegistrationController_TeacherRegistration"><path codeLine="48" d="M530.51,293.09 C558.98,320.21 588.23,348.05 608.84,367.69 " fill="none" id="AddTeacherRegistrationController-to-TeacherRegistration" style="stroke:#181818;stroke-width:1.0;"/><polygon fill="#181818" points="612.59,371.26,608.8332,362.1558,608.97,367.811,603.3148,367.9478,612.59,371.26" style="stroke:#181818;stroke-width:1.0;"/></g><!--link PersistenceContext to RepositoryFactory--><g id="link_PersistenceContext_RepositoryFactory"><path codeLine="50" d="M243,429.22 C243,447.69 243,471.29 243,492.65 " fill="none" id="PersistenceContext-to-RepositoryFactory" style="stroke:#181818;stroke-width:1.0;"/><polygon fill="#181818" points="243,497.74,247,488.74,243,492.74,239,488.74,243,497.74" style="stroke:#181818;stroke-width:1.0;"/></g><!--link RepositoryFactory to TeacherRegistrationService--><g id="link_RepositoryFactory_TeacherRegistrationService"><path codeLine="52" d="M243,602.2 C243,619.77 243,639.33 243,656.54 " fill="none" id="RepositoryFactory-to-TeacherRegistrationService" style="stroke:#181818;stroke-width:1.0;"/><polygon fill="#181818" points="243,661.8,247,652.8,243,656.8,239,652.8,243,661.8" style="stroke:#181818;stroke-width:1.0;"/></g><!--SRC=[fLFBRi8m4BpxAtmh5Krpxw4IHQh4fK9f-m6Biu0bnqRsGa6e_zxD0qg8GohrP7bcFBExjk_MH9lmbAOR0vQsXNbKhaYLWH2INCFAGo54jPMJFFz0K6lq6Qvq80-adVsS7SNtRSdKMVBE6FH7COQePBJK5enicBbtIsrGKclx86jHvfXYlpCmTLiVKAfgkHVZ03kCPKImKyGbnWvh28oWfPcjpKVN6IkaY5ruEVJhQoYCMgT3qzmLt39bwZpX2F-EVgSLrhDzmw__jSurJ8of8vlCEPV94hGAowl4FN6MnuqBcfpNs2emE-67Lr3bmbhb4GZB3YsNvy46fZWEJEDNKeqeHaj5-oeY1u85y5mZ_Vm6Npp8c1iNjE1pzeAhybrHQ1gOTMNTzn5aaZmFVW4n962Jxi3_SYhMgn3z3wOgz-OW1rFxB8Jeji3IpjiGeWELZVIM_0C0]--></g></svg>