<?xml version="1.0" encoding="us-ascii" standalone="no"?><svg xmlns="http://www.w3.org/2000/svg" xmlns:xlink="http://www.w3.org/1999/xlink" contentStyleType="text/css" height="999px" preserveAspectRatio="none" style="width:1945px;height:999px;background:#FFFFFF;" version="1.1" viewBox="0 0 1945 999" width="1945px" zoomAndPan="magnify"><defs/><g><rect fill="#FFFFFF" height="783.5293" style="stroke:#181818;stroke-width:1.0;" width="10" x="17.5" y="98.2422"/><rect fill="#FFFFFF" height="62.582" style="stroke:#181818;stroke-width:1.0;" width="10" x="298.5" y="121.5332"/><rect fill="#FFFFFF" height="31.291" style="stroke:#181818;stroke-width:1.0;" width="10" x="470" y="152.8242"/><rect fill="#FFFFFF" height="401.6191" style="stroke:#181818;stroke-width:1.0;" width="10" x="680.5" y="184.1152"/><rect fill="#FFFFFF" height="264.7461" style="stroke:#181818;stroke-width:1.0;" width="10" x="680.5" y="617.0254"/><rect fill="#FFFFFF" height="223.1641" style="stroke:#181818;stroke-width:1.0;" width="10" x="945.5" y="339.2793"/><rect fill="#FFFFFF" height="28" style="stroke:#181818;stroke-width:1.0;" width="10" x="950.5" y="378.5703"/><rect fill="#FFFFFF" height="28" style="stroke:#181818;stroke-width:1.0;" width="10" x="950.5" y="505.4434"/><rect fill="#FFFFFF" height="210.1641" style="stroke:#181818;stroke-width:1.0;" width="10" x="945.5" y="648.3164"/><rect fill="#FFFFFF" height="28" style="stroke:#181818;stroke-width:1.0;" width="10" x="950.5" y="801.4805"/><rect fill="#FFFFFF" height="92.582" style="stroke:#181818;stroke-width:1.0;" width="10" x="1287.5" y="215.4063"/><rect fill="#FFFFFF" height="61.291" style="stroke:#181818;stroke-width:1.0;" width="10" x="1535" y="246.6973"/><rect fill="#FFFFFF" height="30" style="stroke:#181818;stroke-width:1.0;" width="10" x="1635.5" y="679.6074"/><rect fill="#FFFFFF" height="30" style="stroke:#181818;stroke-width:1.0;" width="10" x="1880.5" y="277.9883"/><rect fill="none" height="126.873" style="stroke:#000000;stroke-width:1.5;" width="566" x="865.5" y="428.5703"/><rect fill="none" height="93.582" style="stroke:#000000;stroke-width:1.5;" width="546" x="875.5" y="454.8613"/><rect fill="none" height="126.873" style="stroke:#000000;stroke-width:1.5;" width="611" x="865.5" y="724.6074"/><rect fill="none" height="93.582" style="stroke:#000000;stroke-width:1.5;" width="591" x="875.5" y="750.8984"/><line style="stroke:#181818;stroke-width:0.5;stroke-dasharray:5.0,5.0;" x1="22" x2="22" y1="88.2422" y2="899.7715"/><line style="stroke:#181818;stroke-width:0.5;stroke-dasharray:5.0,5.0;" x1="303" x2="303" y1="88.2422" y2="899.7715"/><line style="stroke:#181818;stroke-width:0.5;stroke-dasharray:5.0,5.0;" x1="475" x2="475" y1="88.2422" y2="899.7715"/><line style="stroke:#181818;stroke-width:0.5;stroke-dasharray:5.0,5.0;" x1="685" x2="685" y1="88.2422" y2="899.7715"/><line style="stroke:#181818;stroke-width:0.5;stroke-dasharray:5.0,5.0;" x1="950.5" x2="950.5" y1="88.2422" y2="899.7715"/><line style="stroke:#181818;stroke-width:0.5;stroke-dasharray:5.0,5.0;" x1="1292.5" x2="1292.5" y1="88.2422" y2="899.7715"/><line style="stroke:#181818;stroke-width:0.5;stroke-dasharray:5.0,5.0;" x1="1419.5" x2="1419.5" y1="88.2422" y2="899.7715"/><line style="stroke:#181818;stroke-width:0.5;stroke-dasharray:5.0,5.0;" x1="1539.5" x2="1539.5" y1="88.2422" y2="899.7715"/><line style="stroke:#181818;stroke-width:0.5;stroke-dasharray:5.0,5.0;" x1="1640.5" x2="1640.5" y1="88.2422" y2="899.7715"/><line style="stroke:#181818;stroke-width:0.5;stroke-dasharray:5.0,5.0;" x1="1752.5" x2="1752.5" y1="88.2422" y2="899.7715"/><line style="stroke:#181818;stroke-width:0.5;stroke-dasharray:5.0,5.0;" x1="1885.5" x2="1885.5" y1="88.2422" y2="899.7715"/><text fill="#000000" font-family="sans-serif" font-size="14" lengthAdjust="spacing" textLength="29" x="5" y="84.7285">User</text><ellipse cx="22.5" cy="18.1211" fill="#E2E2F0" rx="8" ry="8" style="stroke:#181818;stroke-width:0.5;"/><path d="M22.5,26.1211 L22.5,53.1211 M9.5,34.1211 L35.5,34.1211 M22.5,53.1211 L9.5,68.1211 M22.5,53.1211 L35.5,68.1211 " fill="none" style="stroke:#181818;stroke-width:0.5;"/><text fill="#000000" font-family="sans-serif" font-size="14" lengthAdjust="spacing" textLength="29" x="5" y="913.8789">User</text><ellipse cx="22.5" cy="925.8926" fill="#E2E2F0" rx="8" ry="8" style="stroke:#181818;stroke-width:0.5;"/><path d="M22.5,933.8926 L22.5,960.8926 M9.5,941.8926 L35.5,941.8926 M22.5,960.8926 L9.5,975.8926 M22.5,960.8926 L35.5,975.8926 " fill="none" style="stroke:#181818;stroke-width:0.5;"/><rect fill="#E2E2F0" height="51.2422" rx="2.5" ry="2.5" style="stroke:#181818;stroke-width:0.5;" width="109" x="249" y="36"/><text fill="#000000" font-family="sans-serif" font-size="14" font-style="italic" lengthAdjust="spacing" textLength="95" x="256" y="58.1074">&#171;presentation&#187;</text><text fill="#000000" font-family="sans-serif" font-size="14" lengthAdjust="spacing" textLength="52" x="277.5" y="76.7285">:UsersUI</text><rect fill="#E2E2F0" height="51.2422" rx="2.5" ry="2.5" style="stroke:#181818;stroke-width:0.5;" width="109" x="249" y="898.7715"/><text fill="#000000" font-family="sans-serif" font-size="14" font-style="italic" lengthAdjust="spacing" textLength="95" x="256" y="920.8789">&#171;presentation&#187;</text><text fill="#000000" font-family="sans-serif" font-size="14" lengthAdjust="spacing" textLength="52" x="277.5" y="939.5">:UsersUI</text><rect fill="#E2E2F0" height="51.2422" rx="2.5" ry="2.5" style="stroke:#181818;stroke-width:0.5;" width="214" x="368" y="36"/><text fill="#000000" font-family="sans-serif" font-size="14" font-style="italic" lengthAdjust="spacing" textLength="84" x="433" y="58.1074">&#171;application&#187;</text><text fill="#000000" font-family="sans-serif" font-size="14" lengthAdjust="spacing" textLength="200" x="375" y="76.7285">:ListParticipantsInMeetingAction</text><rect fill="#E2E2F0" height="51.2422" rx="2.5" ry="2.5" style="stroke:#181818;stroke-width:0.5;" width="214" x="368" y="898.7715"/><text fill="#000000" font-family="sans-serif" font-size="14" font-style="italic" lengthAdjust="spacing" textLength="84" x="433" y="920.8789">&#171;application&#187;</text><text fill="#000000" font-family="sans-serif" font-size="14" lengthAdjust="spacing" textLength="200" x="375" y="939.5">:ListParticipantsInMeetingAction</text><rect fill="#E2E2F0" height="51.2422" rx="2.5" ry="2.5" style="stroke:#181818;stroke-width:0.5;" width="187" x="592" y="36"/><text fill="#000000" font-family="sans-serif" font-size="14" font-style="italic" lengthAdjust="spacing" textLength="95" x="638" y="58.1074">&#171;presentation&#187;</text><text fill="#000000" font-family="sans-serif" font-size="14" lengthAdjust="spacing" textLength="173" x="599" y="76.7285">:ListParticipantsInMeetingUI</text><rect fill="#E2E2F0" height="51.2422" rx="2.5" ry="2.5" style="stroke:#181818;stroke-width:0.5;" width="187" x="592" y="898.7715"/><text fill="#000000" font-family="sans-serif" font-size="14" font-style="italic" lengthAdjust="spacing" textLength="95" x="638" y="920.8789">&#171;presentation&#187;</text><text fill="#000000" font-family="sans-serif" font-size="14" lengthAdjust="spacing" textLength="173" x="599" y="939.5">:ListParticipantsInMeetingUI</text><rect fill="#E2E2F0" height="51.2422" rx="2.5" ry="2.5" style="stroke:#181818;stroke-width:0.5;" width="130" x="885.5" y="36"/><text fill="#000000" font-family="sans-serif" font-size="14" font-style="italic" lengthAdjust="spacing" textLength="84" x="908.5" y="58.1074">&#171;application&#187;</text><text fill="#000000" font-family="sans-serif" font-size="14" lengthAdjust="spacing" textLength="116" x="892.5" y="76.7285">:MeetingController</text><rect fill="#E2E2F0" height="51.2422" rx="2.5" ry="2.5" style="stroke:#181818;stroke-width:0.5;" width="130" x="885.5" y="898.7715"/><text fill="#000000" font-family="sans-serif" font-size="14" font-style="italic" lengthAdjust="spacing" textLength="84" x="908.5" y="920.8789">&#171;application&#187;</text><text fill="#000000" font-family="sans-serif" font-size="14" lengthAdjust="spacing" textLength="116" x="892.5" y="939.5">:MeetingController</text><rect fill="#E2E2F0" height="51.2422" rx="2.5" ry="2.5" style="stroke:#181818;stroke-width:0.5;" width="120" x="1232.5" y="36"/><text fill="#000000" font-family="sans-serif" font-size="14" font-style="italic" lengthAdjust="spacing" textLength="84" x="1250.5" y="58.1074">&#171;application&#187;</text><text fill="#000000" font-family="sans-serif" font-size="14" lengthAdjust="spacing" textLength="106" x="1239.5" y="76.7285">:ProfileController</text><rect fill="#E2E2F0" height="51.2422" rx="2.5" ry="2.5" style="stroke:#181818;stroke-width:0.5;" width="120" x="1232.5" y="898.7715"/><text fill="#000000" font-family="sans-serif" font-size="14" font-style="italic" lengthAdjust="spacing" textLength="84" x="1250.5" y="920.8789">&#171;application&#187;</text><text fill="#000000" font-family="sans-serif" font-size="14" lengthAdjust="spacing" textLength="106" x="1239.5" y="939.5">:ProfileController</text><rect fill="#E2E2F0" height="51.2422" rx="2.5" ry="2.5" style="stroke:#181818;stroke-width:0.5;" width="115" x="1362.5" y="36"/><text fill="#000000" font-family="sans-serif" font-size="14" font-style="italic" lengthAdjust="spacing" textLength="84" x="1378" y="58.1074">&#171;application&#187;</text><text fill="#000000" font-family="sans-serif" font-size="14" lengthAdjust="spacing" textLength="101" x="1369.5" y="76.7285">:MeetingService</text><rect fill="#E2E2F0" height="51.2422" rx="2.5" ry="2.5" style="stroke:#181818;stroke-width:0.5;" width="115" x="1362.5" y="898.7715"/><text fill="#000000" font-family="sans-serif" font-size="14" font-style="italic" lengthAdjust="spacing" textLength="84" x="1378" y="920.8789">&#171;application&#187;</text><text fill="#000000" font-family="sans-serif" font-size="14" lengthAdjust="spacing" textLength="101" x="1369.5" y="939.5">:MeetingService</text><rect fill="#E2E2F0" height="51.2422" rx="2.5" ry="2.5" style="stroke:#181818;stroke-width:0.5;" width="105" x="1487.5" y="36"/><text fill="#000000" font-family="sans-serif" font-size="14" font-style="italic" lengthAdjust="spacing" textLength="84" x="1498" y="58.1074">&#171;application&#187;</text><text fill="#000000" font-family="sans-serif" font-size="14" lengthAdjust="spacing" textLength="91" x="1494.5" y="76.7285">:ProfileService</text><rect fill="#E2E2F0" height="51.2422" rx="2.5" ry="2.5" style="stroke:#181818;stroke-width:0.5;" width="105" x="1487.5" y="898.7715"/><text fill="#000000" font-family="sans-serif" font-size="14" font-style="italic" lengthAdjust="spacing" textLength="84" x="1498" y="920.8789">&#171;application&#187;</text><text fill="#000000" font-family="sans-serif" font-size="14" lengthAdjust="spacing" textLength="91" x="1494.5" y="939.5">:ProfileService</text><rect fill="#E2E2F0" height="51.2422" rx="2.5" ry="2.5" style="stroke:#181818;stroke-width:0.5;" width="76" x="1602.5" y="36"/><text fill="#000000" font-family="sans-serif" font-size="14" font-style="italic" lengthAdjust="spacing" textLength="62" x="1609.5" y="58.1074">&#171;domain&#187;</text><text fill="#000000" font-family="sans-serif" font-size="14" lengthAdjust="spacing" textLength="50" x="1615.5" y="76.7285">Meeting</text><rect fill="#E2E2F0" height="51.2422" rx="2.5" ry="2.5" style="stroke:#181818;stroke-width:0.5;" width="76" x="1602.5" y="898.7715"/><text fill="#000000" font-family="sans-serif" font-size="14" font-style="italic" lengthAdjust="spacing" textLength="62" x="1609.5" y="920.8789">&#171;domain&#187;</text><text fill="#000000" font-family="sans-serif" font-size="14" lengthAdjust="spacing" textLength="50" x="1615.5" y="939.5">Meeting</text><text fill="#000000" font-family="sans-serif" font-size="14" font-style="italic" lengthAdjust="spacing" textLength="79" x="1710" y="66.1074">&#171;repository&#187;</text><text fill="#000000" font-family="sans-serif" font-size="14" lengthAdjust="spacing" textLength="122" x="1688.5" y="84.7285">:MeetingRepository</text><path d="M1734.5,15 C1734.5,5 1752.5,5 1752.5,5 C1752.5,5 1770.5,5 1770.5,15 L1770.5,41 C1770.5,51 1752.5,51 1752.5,51 C1752.5,51 1734.5,51 1734.5,41 L1734.5,15 " fill="#E2E2F0" style="stroke:#181818;stroke-width:1.5;"/><path d="M1734.5,15 C1734.5,25 1752.5,25 1752.5,25 C1752.5,25 1770.5,25 1770.5,15 " fill="none" style="stroke:#181818;stroke-width:1.5;"/><text fill="#000000" font-family="sans-serif" font-size="14" font-style="italic" lengthAdjust="spacing" textLength="79" x="1710" y="913.8789">&#171;repository&#187;</text><text fill="#000000" font-family="sans-serif" font-size="14" lengthAdjust="spacing" textLength="122" x="1688.5" y="932.5">:MeetingRepository</text><path d="M1734.5,946.0137 C1734.5,936.0137 1752.5,936.0137 1752.5,936.0137 C1752.5,936.0137 1770.5,936.0137 1770.5,946.0137 L1770.5,972.0137 C1770.5,982.0137 1752.5,982.0137 1752.5,982.0137 C1752.5,982.0137 1734.5,982.0137 1734.5,972.0137 L1734.5,946.0137 " fill="#E2E2F0" style="stroke:#181818;stroke-width:1.5;"/><path d="M1734.5,946.0137 C1734.5,956.0137 1752.5,956.0137 1752.5,956.0137 C1752.5,956.0137 1770.5,956.0137 1770.5,946.0137 " fill="none" style="stroke:#181818;stroke-width:1.5;"/><text fill="#000000" font-family="sans-serif" font-size="14" font-style="italic" lengthAdjust="spacing" textLength="79" x="1843" y="66.1074">&#171;repository&#187;</text><text fill="#000000" font-family="sans-serif" font-size="14" lengthAdjust="spacing" textLength="112" x="1826.5" y="84.7285">:ProfileRepository</text><path d="M1867.5,15 C1867.5,5 1885.5,5 1885.5,5 C1885.5,5 1903.5,5 1903.5,15 L1903.5,41 C1903.5,51 1885.5,51 1885.5,51 C1885.5,51 1867.5,51 1867.5,41 L1867.5,15 " fill="#E2E2F0" style="stroke:#181818;stroke-width:1.5;"/><path d="M1867.5,15 C1867.5,25 1885.5,25 1885.5,25 C1885.5,25 1903.5,25 1903.5,15 " fill="none" style="stroke:#181818;stroke-width:1.5;"/><text fill="#000000" font-family="sans-serif" font-size="14" font-style="italic" lengthAdjust="spacing" textLength="79" x="1843" y="913.8789">&#171;repository&#187;</text><text fill="#000000" font-family="sans-serif" font-size="14" lengthAdjust="spacing" textLength="112" x="1826.5" y="932.5">:ProfileRepository</text><path d="M1867.5,946.0137 C1867.5,936.0137 1885.5,936.0137 1885.5,936.0137 C1885.5,936.0137 1903.5,936.0137 1903.5,946.0137 L1903.5,972.0137 C1903.5,982.0137 1885.5,982.0137 1885.5,982.0137 C1885.5,982.0137 1867.5,982.0137 1867.5,972.0137 L1867.5,946.0137 " fill="#E2E2F0" style="stroke:#181818;stroke-width:1.5;"/><path d="M1867.5,946.0137 C1867.5,956.0137 1885.5,956.0137 1885.5,956.0137 C1885.5,956.0137 1903.5,956.0137 1903.5,946.0137 " fill="none" style="stroke:#181818;stroke-width:1.5;"/><rect fill="#FFFFFF" height="783.5293" style="stroke:#181818;stroke-width:1.0;" width="10" x="17.5" y="98.2422"/><rect fill="#FFFFFF" height="62.582" style="stroke:#181818;stroke-width:1.0;" width="10" x="298.5" y="121.5332"/><rect fill="#FFFFFF" height="31.291" style="stroke:#181818;stroke-width:1.0;" width="10" x="470" y="152.8242"/><rect fill="#FFFFFF" height="401.6191" style="stroke:#181818;stroke-width:1.0;" width="10" x="680.5" y="184.1152"/><rect fill="#FFFFFF" height="264.7461" style="stroke:#181818;stroke-width:1.0;" width="10" x="680.5" y="617.0254"/><rect fill="#FFFFFF" height="223.1641" style="stroke:#181818;stroke-width:1.0;" width="10" x="945.5" y="339.2793"/><rect fill="#FFFFFF" height="28" style="stroke:#181818;stroke-width:1.0;" width="10" x="950.5" y="378.5703"/><rect fill="#FFFFFF" height="28" style="stroke:#181818;stroke-width:1.0;" width="10" x="950.5" y="505.4434"/><rect fill="#FFFFFF" height="210.1641" style="stroke:#181818;stroke-width:1.0;" width="10" x="945.5" y="648.3164"/><rect fill="#FFFFFF" height="28" style="stroke:#181818;stroke-width:1.0;" width="10" x="950.5" y="801.4805"/><rect fill="#FFFFFF" height="92.582" style="stroke:#181818;stroke-width:1.0;" width="10" x="1287.5" y="215.4063"/><rect fill="#FFFFFF" height="61.291" style="stroke:#181818;stroke-width:1.0;" width="10" x="1535" y="246.6973"/><rect fill="#FFFFFF" height="30" style="stroke:#181818;stroke-width:1.0;" width="10" x="1635.5" y="679.6074"/><rect fill="#FFFFFF" height="30" style="stroke:#181818;stroke-width:1.0;" width="10" x="1880.5" y="277.9883"/><polygon fill="#181818" points="286.5,117.5332,296.5,121.5332,286.5,125.5332,290.5,121.5332" style="stroke:#181818;stroke-width:1.0;"/><line style="stroke:#181818;stroke-width:1.0;" x1="27.5" x2="292.5" y1="121.5332" y2="121.5332"/><text fill="#000000" font-family="sans-serif" font-size="13" font-weight="bold" lengthAdjust="spacing" textLength="7" x="34.5" y="116.2705">1</text><text fill="#000000" font-family="sans-serif" font-size="13" lengthAdjust="spacing" textLength="241" x="45.5" y="116.2705">Asks to list the participants of its meeting</text><polygon fill="#181818" points="458,148.8242,468,152.8242,458,156.8242,462,152.8242" style="stroke:#181818;stroke-width:1.0;"/><line style="stroke:#181818;stroke-width:1.0;" x1="308.5" x2="464" y1="152.8242" y2="152.8242"/><text fill="#000000" font-family="sans-serif" font-size="13" font-weight="bold" lengthAdjust="spacing" textLength="7" x="315.5" y="147.5615">2</text><text fill="#000000" font-family="sans-serif" font-size="13" lengthAdjust="spacing" textLength="54" x="326.5" y="147.5615">execute()</text><polygon fill="#181818" points="668.5,180.1152,678.5,184.1152,668.5,188.1152,672.5,184.1152" style="stroke:#181818;stroke-width:1.0;"/><line style="stroke:#181818;stroke-width:1.0;" x1="475" x2="674.5" y1="184.1152" y2="184.1152"/><text fill="#000000" font-family="sans-serif" font-size="13" font-weight="bold" lengthAdjust="spacing" textLength="7" x="482" y="178.8525">3</text><text fill="#000000" font-family="sans-serif" font-size="13" lengthAdjust="spacing" textLength="54" x="493" y="178.8525">doShow()</text><polygon fill="#181818" points="1275.5,211.4063,1285.5,215.4063,1275.5,219.4063,1279.5,215.4063" style="stroke:#181818;stroke-width:1.0;"/><line style="stroke:#181818;stroke-width:1.0;" x1="690.5" x2="1281.5" y1="215.4063" y2="215.4063"/><text fill="#000000" font-family="sans-serif" font-size="13" font-weight="bold" lengthAdjust="spacing" textLength="7" x="697.5" y="210.1436">4</text><text fill="#000000" font-family="sans-serif" font-size="13" lengthAdjust="spacing" textLength="567" x="708.5" y="210.1436">currentUserProfile = (StudentProfile) getUserProfile(authz.session().get().authenticatedUser()).get()</text><polygon fill="#181818" points="1523,242.6973,1533,246.6973,1523,250.6973,1527,246.6973" style="stroke:#181818;stroke-width:1.0;"/><line style="stroke:#181818;stroke-width:1.0;" x1="1297.5" x2="1529" y1="246.6973" y2="246.6973"/><text fill="#000000" font-family="sans-serif" font-size="13" font-weight="bold" lengthAdjust="spacing" textLength="7" x="1304.5" y="241.4346">5</text><text fill="#000000" font-family="sans-serif" font-size="13" lengthAdjust="spacing" textLength="172" x="1315.5" y="241.4346">getProfileFromDatabase(user)</text><polygon fill="#181818" points="1868.5,273.9883,1878.5,277.9883,1868.5,281.9883,1872.5,277.9883" style="stroke:#181818;stroke-width:1.0;"/><line style="stroke:#181818;stroke-width:1.0;" x1="1545" x2="1874.5" y1="277.9883" y2="277.9883"/><text fill="#000000" font-family="sans-serif" font-size="13" font-weight="bold" lengthAdjust="spacing" textLength="7" x="1552" y="272.7256">6</text><text fill="#000000" font-family="sans-serif" font-size="13" lengthAdjust="spacing" textLength="132" x="1563" y="272.7256">findProfileByUser(user)</text><polygon fill="#181818" points="933.5,335.2793,943.5,339.2793,933.5,343.2793,937.5,339.2793" style="stroke:#181818;stroke-width:1.0;"/><line style="stroke:#181818;stroke-width:1.0;" x1="690.5" x2="939.5" y1="339.2793" y2="339.2793"/><text fill="#000000" font-family="sans-serif" font-size="13" font-weight="bold" lengthAdjust="spacing" textLength="7" x="697.5" y="334.0166">7</text><text fill="#000000" font-family="sans-serif" font-size="13" lengthAdjust="spacing" textLength="225" x="708.5" y="334.0166">getMeetingsByUser(currentUserProfile)</text><line style="stroke:#181818;stroke-width:1.0;" x1="960.5" x2="1002.5" y1="370.5703" y2="370.5703"/><line style="stroke:#181818;stroke-width:1.0;" x1="1002.5" x2="1002.5" y1="370.5703" y2="383.5703"/><line style="stroke:#181818;stroke-width:1.0;" x1="961.5" x2="1002.5" y1="383.5703" y2="383.5703"/><polygon fill="#181818" points="971.5,379.5703,961.5,383.5703,971.5,387.5703,967.5,383.5703" style="stroke:#181818;stroke-width:1.0;"/><text fill="#000000" font-family="sans-serif" font-size="13" font-weight="bold" lengthAdjust="spacing" textLength="7" x="967.5" y="365.3076">8</text><text fill="#000000" font-family="sans-serif" font-size="13" lengthAdjust="spacing" textLength="148" x="978.5" y="365.3076">meetings = getMeetings()</text><path d="M865.5,428.5703 L938.5,428.5703 L938.5,437.8613 L928.5,447.8613 L865.5,447.8613 L865.5,428.5703 " fill="#EEEEEE" style="stroke:#000000;stroke-width:1.5;"/><rect fill="none" height="126.873" style="stroke:#000000;stroke-width:1.5;" width="566" x="865.5" y="428.5703"/><text fill="#000000" font-family="sans-serif" font-size="13" font-weight="bold" lengthAdjust="spacing" textLength="28" x="880.5" y="443.5986">loop</text><text fill="#000000" font-family="sans-serif" font-size="11" font-weight="bold" lengthAdjust="spacing" textLength="191" x="953.5" y="442.4404">[for (Meeting meeting : meetings)]</text><path d="M875.5,454.8613 L936.5,454.8613 L936.5,464.1523 L926.5,474.1523 L875.5,474.1523 L875.5,454.8613 " fill="#EEEEEE" style="stroke:#000000;stroke-width:1.5;"/><rect fill="none" height="93.582" style="stroke:#000000;stroke-width:1.5;" width="546" x="875.5" y="454.8613"/><text fill="#000000" font-family="sans-serif" font-size="13" font-weight="bold" lengthAdjust="spacing" textLength="16" x="890.5" y="469.8896">alt</text><text fill="#000000" font-family="sans-serif" font-size="11" font-weight="bold" lengthAdjust="spacing" textLength="465" x="951.5" y="468.7314">[(meeting.getUserProfile().equals(userProfile) || isParticipant(userProfile, meeting))]</text><line style="stroke:#181818;stroke-width:1.0;" x1="960.5" x2="1002.5" y1="497.4434" y2="497.4434"/><line style="stroke:#181818;stroke-width:1.0;" x1="1002.5" x2="1002.5" y1="497.4434" y2="510.4434"/><line style="stroke:#181818;stroke-width:1.0;" x1="961.5" x2="1002.5" y1="510.4434" y2="510.4434"/><polygon fill="#181818" points="971.5,506.4434,961.5,510.4434,971.5,514.4434,967.5,510.4434" style="stroke:#181818;stroke-width:1.0;"/><text fill="#000000" font-family="sans-serif" font-size="13" font-weight="bold" lengthAdjust="spacing" textLength="7" x="967.5" y="492.1807">9</text><text fill="#000000" font-family="sans-serif" font-size="13" lengthAdjust="spacing" textLength="175" x="978.5" y="492.1807">meetingsByUser.add(meeting)</text><polygon fill="#181818" points="38.5,581.7344,28.5,585.7344,38.5,589.7344,34.5,585.7344" style="stroke:#181818;stroke-width:1.0;"/><line style="stroke:#181818;stroke-width:1.0;stroke-dasharray:2.0,2.0;" x1="32.5" x2="684.5" y1="585.7344" y2="585.7344"/><text fill="#000000" font-family="sans-serif" font-size="13" font-weight="bold" lengthAdjust="spacing" textLength="14" x="44.5" y="580.4717">10</text><text fill="#000000" font-family="sans-serif" font-size="13" lengthAdjust="spacing" textLength="235" x="62.5" y="580.4717">Shows all meetings available for the user</text><polygon fill="#181818" points="668.5,613.0254,678.5,617.0254,668.5,621.0254,672.5,617.0254" style="stroke:#181818;stroke-width:1.0;"/><line style="stroke:#181818;stroke-width:1.0;" x1="27.5" x2="674.5" y1="617.0254" y2="617.0254"/><text fill="#000000" font-family="sans-serif" font-size="13" font-weight="bold" lengthAdjust="spacing" textLength="14" x="34.5" y="611.7627">11</text><text fill="#000000" font-family="sans-serif" font-size="13" lengthAdjust="spacing" textLength="101" x="52.5" y="611.7627">Chooses meeting</text><polygon fill="#181818" points="933.5,644.3164,943.5,648.3164,933.5,652.3164,937.5,648.3164" style="stroke:#181818;stroke-width:1.0;"/><line style="stroke:#181818;stroke-width:1.0;" x1="690.5" x2="939.5" y1="648.3164" y2="648.3164"/><text fill="#000000" font-family="sans-serif" font-size="13" font-weight="bold" lengthAdjust="spacing" textLength="14" x="697.5" y="643.0537">12</text><text fill="#000000" font-family="sans-serif" font-size="13" lengthAdjust="spacing" textLength="141" x="715.5" y="643.0537">getParticipants(meeting)</text><polygon fill="#181818" points="1623.5,675.6074,1633.5,679.6074,1623.5,683.6074,1627.5,679.6074" style="stroke:#181818;stroke-width:1.0;"/><line style="stroke:#181818;stroke-width:1.0;" x1="955.5" x2="1629.5" y1="679.6074" y2="679.6074"/><text fill="#000000" font-family="sans-serif" font-size="13" font-weight="bold" lengthAdjust="spacing" textLength="14" x="962.5" y="674.3447">13</text><text fill="#000000" font-family="sans-serif" font-size="13" lengthAdjust="spacing" textLength="272" x="980.5" y="674.3447">meetingParticipants = getMeetingParticipants()</text><path d="M865.5,724.6074 L938.5,724.6074 L938.5,733.8984 L928.5,743.8984 L865.5,743.8984 L865.5,724.6074 " fill="#EEEEEE" style="stroke:#000000;stroke-width:1.5;"/><rect fill="none" height="126.873" style="stroke:#000000;stroke-width:1.5;" width="611" x="865.5" y="724.6074"/><text fill="#000000" font-family="sans-serif" font-size="13" font-weight="bold" lengthAdjust="spacing" textLength="28" x="880.5" y="739.6357">loop</text><text fill="#000000" font-family="sans-serif" font-size="11" font-weight="bold" lengthAdjust="spacing" textLength="365" x="953.5" y="738.4775">[for (MeetingParticipant meetingParticipant : meetingParticipants)]</text><path d="M875.5,750.8984 L936.5,750.8984 L936.5,760.1895 L926.5,770.1895 L875.5,770.1895 L875.5,750.8984 " fill="#EEEEEE" style="stroke:#000000;stroke-width:1.5;"/><rect fill="none" height="93.582" style="stroke:#000000;stroke-width:1.5;" width="591" x="875.5" y="750.8984"/><text fill="#000000" font-family="sans-serif" font-size="13" font-weight="bold" lengthAdjust="spacing" textLength="16" x="890.5" y="765.9268">alt</text><text fill="#000000" font-family="sans-serif" font-size="11" font-weight="bold" lengthAdjust="spacing" textLength="510" x="951.5" y="764.7686">[(!meetingParticipant.getMeetingParticipantState().equals(MeetingParticipantState.PENDING))]</text><line style="stroke:#181818;stroke-width:1.0;" x1="960.5" x2="1002.5" y1="793.4805" y2="793.4805"/><line style="stroke:#181818;stroke-width:1.0;" x1="1002.5" x2="1002.5" y1="793.4805" y2="806.4805"/><line style="stroke:#181818;stroke-width:1.0;" x1="961.5" x2="1002.5" y1="806.4805" y2="806.4805"/><polygon fill="#181818" points="971.5,802.4805,961.5,806.4805,971.5,810.4805,967.5,806.4805" style="stroke:#181818;stroke-width:1.0;"/><text fill="#000000" font-family="sans-serif" font-size="13" font-weight="bold" lengthAdjust="spacing" textLength="14" x="967.5" y="788.2178">14</text><text fill="#000000" font-family="sans-serif" font-size="13" lengthAdjust="spacing" textLength="208" x="985.5" y="788.2178">participants.add(meetingParticipant)</text><polygon fill="#181818" points="33.5,877.7715,23.5,881.7715,33.5,885.7715,29.5,881.7715" style="stroke:#181818;stroke-width:1.0;"/><line style="stroke:#181818;stroke-width:1.0;stroke-dasharray:2.0,2.0;" x1="27.5" x2="684.5" y1="881.7715" y2="881.7715"/><text fill="#000000" font-family="sans-serif" font-size="13" font-weight="bold" lengthAdjust="spacing" textLength="14" x="39.5" y="876.5088">15</text><text fill="#000000" font-family="sans-serif" font-size="13" lengthAdjust="spacing" textLength="127" x="57.5" y="876.5088">Shows all participants</text><!--SRC=[pLN1ZjiW4Btp5JINsbBNkLlRbRQxRHMfNKMDzWE8JH9KR5p0QRVQZ- -0iPdOJfFUwaC2pCpZCVCOtXwiRKo-N3QIrRQjP5QeQcduZvRN1Ryf1TjhLX72Mglgjjfo3UF2AarRmpLbXYwUOR0Wf67QYa8q04CNkLiqpwk5ysW5lRrjD3UyjimALT_TZRo_26FNSSMiwg-SMr7lxmldxr6O7m8IQnefYdy42bGasFti4gCGzg1ggvMKS48NNWpJ2ppMMks4v6V3W_q2IY2nuVee2kuXJ3U-RlkPmAis3llwkAeRGq2fAYQSRyaispB38yDll556W2fUV8mUfX0M9wUXWSdPqCZq1C6fJnoPvLw0X7WPtjmvaUNqtdmtr2fVPceFdA9Z6QfsLDZXH0X848W6Z22ndF9Vl6WjJzBerDb8S07dAAMSbcfpK3_1lUJZ0BG2-mpZ8Pf4702TAYIdHQirwDJTg7xnFKqsjYrXDQoaTC-nHmBtzV0xCzmO896a6PZXrwr2a2ixBvrxaWPJP3QXGAQaWEb8JxaZ42QVjAeUGw4JLn-4VXf6HYY0EnL0JdUYBiFimukdFKAT1E6q_zKuueCiqpoSgLHtzd0JJ20uBTfiYb5k9w11fmQgZV3dIpLFd4Yb6hg3Pfs4yE4wH_YKKFYOj3G9Izb8Isa6pm6JncTz4DphAnK6zLfiVTUZfnsw-wuuQPUxZ9LbJoM6pnsljyqVtbbuNRgZ4VVlad4kJx6ohfKOpyfTQNXsf8oLO4Sc9Dk2A5rINOFnJGY1ndlTDoRS9nuEIi6TdBQWY-qWN33KpcAABkjgKdKCTAAlanqGTCyO7RLVceWCOSpiDqy2gV3Dr9pD4jp0sutKUSOXMtzyUbmzVRvEYlZ1m494gF-79Z7HUG7YbyS_bNy0]--></g></svg>