<?xml version="1.0" encoding="UTF-8" standalone="no"?><svg xmlns="http://www.w3.org/2000/svg" xmlns:xlink="http://www.w3.org/1999/xlink" contentStyleType="text/css" height="570px" preserveAspectRatio="none" style="width:1811px;height:570px;background:#FFFFFF;" version="1.1" viewBox="0 0 1811 570" width="1811px" zoomAndPan="magnify"><defs/><g><rect fill="none" height="25.6406" id="_title" style="stroke:none;stroke-width:1.0;" width="166" x="815.5" y="5"/><text fill="#000000" font-family="sans-serif" font-size="14" font-weight="bold" lengthAdjust="spacing" textLength="156" x="820.5" y="22.6738">Domain Driven Design</text><!--MD5=[597c9b6a35d8038d4b40fd8870ba90aa]
cluster <<aggregate>> User--><g id="cluster_&lt;&lt;aggregate&gt;&gt; User"><path d="M1081.5,42.6406 L1223.5,42.6406 A3.75,3.75 0 0 1 1226,45.1406 L1233,64.2813 L1506.5,64.2813 A2.5,2.5 0 0 1 1509,66.7813 L1509,423.1406 A2.5,2.5 0 0 1 1506.5,425.6406 L1081.5,425.6406 A2.5,2.5 0 0 1 1079,423.1406 L1079,45.1406 A2.5,2.5 0 0 1 1081.5,42.6406 " fill="#FFB380" style="stroke:#000000;stroke-width:1.5;"/><line style="stroke:#000000;stroke-width:1.5;" x1="1079" x2="1233" y1="64.2813" y2="64.2813"/><text fill="#000000" font-family="sans-serif" font-size="14" font-weight="bold" lengthAdjust="spacing" textLength="141" x="1083" y="57.3145">&lt;&lt;aggregate&gt;&gt; User</text></g><!--MD5=[8d8f4990f25fae9bc47748f0bf424d50]
cluster <<aggregate>> Student Registration--><g id="cluster_&lt;&lt;aggregate&gt;&gt; Student Registration"><path d="M788.5,165.6406 L1042.5,165.6406 A3.75,3.75 0 0 1 1045,168.1406 L1052,187.2813 L1052.5,187.2813 A2.5,2.5 0 0 1 1055,189.7813 L1055,416.1406 A2.5,2.5 0 0 1 1052.5,418.6406 L788.5,418.6406 A2.5,2.5 0 0 1 786,416.1406 L786,168.1406 A2.5,2.5 0 0 1 788.5,165.6406 " fill="#DDAAAA" style="stroke:#000000;stroke-width:1.5;"/><line style="stroke:#000000;stroke-width:1.5;" x1="786" x2="1052" y1="187.2813" y2="187.2813"/><text fill="#000000" font-family="sans-serif" font-size="14" font-weight="bold" lengthAdjust="spacing" textLength="253" x="790" y="180.3145">&lt;&lt;aggregate&gt;&gt; Student Registration</text></g><!--MD5=[37ad83970063a880b8fb3f5f52a3c821]
cluster <<aggregate>> Teacher Registration--><g id="cluster_&lt;&lt;aggregate&gt;&gt; Teacher Registration"><path d="M1535.5,308.6406 L1791.5,308.6406 A3.75,3.75 0 0 1 1794,311.1406 L1801,330.2813 L1801.5,330.2813 A2.5,2.5 0 0 1 1804,332.7813 L1804,561.1406 A2.5,2.5 0 0 1 1801.5,563.6406 L1535.5,563.6406 A2.5,2.5 0 0 1 1533,561.1406 L1533,311.1406 A2.5,2.5 0 0 1 1535.5,308.6406 " fill="#DDAAAA" style="stroke:#000000;stroke-width:1.5;"/><line style="stroke:#000000;stroke-width:1.5;" x1="1533" x2="1801" y1="330.2813" y2="330.2813"/><text fill="#000000" font-family="sans-serif" font-size="14" font-weight="bold" lengthAdjust="spacing" textLength="255" x="1537" y="323.3145">&lt;&lt;aggregate&gt;&gt; Teacher Registration</text></g><!--MD5=[58b45488df0a3248650bf631dc2ea132]
cluster <<aggregate>> Course--><g id="cluster_&lt;&lt;aggregate&gt;&gt; Course"><path d="M8.5,165.6406 L168.5,165.6406 A3.75,3.75 0 0 1 171,168.1406 L178,187.2813 L759.5,187.2813 A2.5,2.5 0 0 1 762,189.7813 L762,416.1406 A2.5,2.5 0 0 1 759.5,418.6406 L8.5,418.6406 A2.5,2.5 0 0 1 6,416.1406 L6,168.1406 A2.5,2.5 0 0 1 8.5,165.6406 " fill="#AABBBB" style="stroke:#000000;stroke-width:1.5;"/><line style="stroke:#000000;stroke-width:1.5;" x1="6" x2="178" y1="187.2813" y2="187.2813"/><text fill="#000000" font-family="sans-serif" font-size="14" font-weight="bold" lengthAdjust="spacing" textLength="159" x="10" y="180.3145">&lt;&lt;aggregate&gt;&gt; Course</text></g><!--MD5=[3fd616f346a44cd59a91eb10b19e157c]
class User--><g id="elem_User"><rect codeLine="13" fill="#F1F1F1" height="91.7344" id="User" rx="2.5" ry="2.5" style="stroke:#181818;stroke-width:0.5;" width="121" x="1233.5" y="183.6406"/><ellipse cx="1271" cy="209.8672" fill="#ADD1B2" rx="11" ry="11" style="stroke:#181818;stroke-width:1.0;"/><path d="M1269.8594,210.6641 L1269.8594,213.1641 L1274.1875,213.1641 L1274.1875,212.2422 Q1274.1875,211.6328 1274.4219,211.3672 Q1274.6719,211.1016 1275.0469,211.1016 Q1275.4219,211.1016 1275.6563,211.3672 Q1275.8906,211.6328 1275.8906,212.2422 L1275.8906,214.8672 L1267.8906,214.8672 Q1267.2656,214.8672 1267,214.6328 Q1266.75,214.3984 1266.75,214.0078 Q1266.75,213.6328 1267.0156,213.3984 Q1267.2813,213.1641 1267.8906,213.1641 L1268.1563,213.1641 L1268.1563,206.5078 L1267.8906,206.5078 Q1267.2656,206.5078 1267,206.2734 Q1266.75,206.0391 1266.75,205.6484 Q1266.75,205.2734 1267,205.0391 Q1267.2656,204.8047 1267.8906,204.8047 L1275.5156,204.8047 L1275.5156,207.3984 Q1275.5156,208.0078 1275.2813,208.2734 Q1275.0625,208.5234 1274.6719,208.5234 Q1274.2969,208.5234 1274.0625,208.2734 Q1273.8281,208.0078 1273.8281,207.3984 L1273.8281,206.5078 L1269.8594,206.5078 L1269.8594,208.9609 L1271.3438,208.9609 Q1271.3438,208.3047 1271.4688,208.1172 Q1271.7344,207.7109 1272.2031,207.7109 Q1272.5781,207.7109 1272.8125,207.9766 Q1273.0469,208.2266 1273.0469,208.8359 L1273.0469,210.8047 Q1273.0469,211.3516 1272.9219,211.5391 Q1272.6563,211.9297 1272.2031,211.9297 Q1271.7344,211.9297 1271.4688,211.5234 Q1271.3438,211.3359 1271.3438,210.6641 L1269.8594,210.6641 Z " fill="#000000"/><text fill="#000000" font-family="sans-serif" font-size="12" font-style="italic" lengthAdjust="spacing" textLength="35" x="1292" y="199.5039">«root»</text><text fill="#000000" font-family="sans-serif" font-size="12" font-style="italic" lengthAdjust="spacing" textLength="43" x="1288" y="212.9102">«entity»</text><text fill="#000000" font-family="sans-serif" font-size="14" lengthAdjust="spacing" textLength="29" x="1295" y="228.127">User</text><line style="stroke:#181818;stroke-width:0.5;" x1="1234.5" x2="1353.5" y1="236.0938" y2="236.0938"/><text fill="#000000" font-family="sans-serif" font-size="14" lengthAdjust="spacing" textLength="95" x="1239.5" y="252.7676">String fullName</text><text fill="#000000" font-family="sans-serif" font-size="14" lengthAdjust="spacing" textLength="109" x="1239.5" y="268.4082">String shortName</text></g><!--MD5=[a3638c1e5b65d287ecad7f06f5c0f212]
class Role--><g id="elem_Role"><rect codeLine="18" fill="#F1F1F1" height="47.0469" id="Role" rx="2.5" ry="2.5" style="stroke:#181818;stroke-width:0.5;" width="109" x="1095.5" y="349.1406"/><ellipse cx="1110.5" cy="368.6641" fill="#B8255F" rx="11" ry="11" style="stroke:#181818;stroke-width:1.0;"/><path d="M1111.0938,371.9297 L1113.5625,366.0547 L1113.1719,366.0547 Q1112.5625,366.0547 1112.2969,365.8203 Q1112.0313,365.5859 1112.0313,365.1953 Q1112.0313,364.8203 1112.2969,364.5859 Q1112.5625,364.3516 1113.1719,364.3516 L1115.4531,364.3516 Q1116.0625,364.3516 1116.3281,364.5859 Q1116.5938,364.8203 1116.5938,365.1953 Q1116.5938,365.6641 1116.1875,365.9297 Q1116,366.0547 1115.4063,366.0547 L1111.9219,374.4141 L1110.2813,374.4141 L1106.7969,366.0547 Q1106.2031,366.0547 1106.0156,365.9297 Q1105.6094,365.6641 1105.6094,365.1953 Q1105.6094,364.8203 1105.875,364.5859 Q1106.1406,364.3516 1106.75,364.3516 L1109.0469,364.3516 Q1109.6563,364.3516 1109.9063,364.5859 Q1110.1719,364.8203 1110.1719,365.1953 Q1110.1719,365.5859 1109.9063,365.8203 Q1109.6563,366.0547 1109.0469,366.0547 L1108.6406,366.0547 L1111.0938,371.9297 Z " fill="#000000"/><text fill="#000000" font-family="sans-serif" font-size="12" font-style="italic" lengthAdjust="spacing" textLength="81" x="1122.5" y="365.0039">«value object»</text><text fill="#000000" font-family="sans-serif" font-size="14" lengthAdjust="spacing" textLength="29" x="1148.5" y="380.2207">Role</text><line style="stroke:#181818;stroke-width:0.5;" x1="1096.5" x2="1203.5" y1="388.1875" y2="388.1875"/></g><!--MD5=[2f01b1126ff33a0669651ec2488a5ef9]
class Password--><g id="elem_Password"><rect codeLine="19" fill="#F1F1F1" height="47.0469" id="Password" rx="2.5" ry="2.5" style="stroke:#181818;stroke-width:0.5;" width="109" x="1239.5" y="349.1406"/><ellipse cx="1254.5" cy="368.6641" fill="#B8255F" rx="11" ry="11" style="stroke:#181818;stroke-width:1.0;"/><path d="M1255.0938,371.9297 L1257.5625,366.0547 L1257.1719,366.0547 Q1256.5625,366.0547 1256.2969,365.8203 Q1256.0313,365.5859 1256.0313,365.1953 Q1256.0313,364.8203 1256.2969,364.5859 Q1256.5625,364.3516 1257.1719,364.3516 L1259.4531,364.3516 Q1260.0625,364.3516 1260.3281,364.5859 Q1260.5938,364.8203 1260.5938,365.1953 Q1260.5938,365.6641 1260.1875,365.9297 Q1260,366.0547 1259.4063,366.0547 L1255.9219,374.4141 L1254.2813,374.4141 L1250.7969,366.0547 Q1250.2031,366.0547 1250.0156,365.9297 Q1249.6094,365.6641 1249.6094,365.1953 Q1249.6094,364.8203 1249.875,364.5859 Q1250.1406,364.3516 1250.75,364.3516 L1253.0469,364.3516 Q1253.6563,364.3516 1253.9063,364.5859 Q1254.1719,364.8203 1254.1719,365.1953 Q1254.1719,365.5859 1253.9063,365.8203 Q1253.6563,366.0547 1253.0469,366.0547 L1252.6406,366.0547 L1255.0938,371.9297 Z " fill="#000000"/><text fill="#000000" font-family="sans-serif" font-size="12" font-style="italic" lengthAdjust="spacing" textLength="81" x="1266.5" y="365.0039">«value object»</text><text fill="#000000" font-family="sans-serif" font-size="14" lengthAdjust="spacing" textLength="61" x="1276.5" y="380.2207">Password</text><line style="stroke:#181818;stroke-width:0.5;" x1="1240.5" x2="1347.5" y1="388.1875" y2="388.1875"/></g><!--MD5=[78bec0fde86ad92ec1dc3fb343b83709]
class Email--><g id="elem_Email"><rect codeLine="20" fill="#F1F1F1" height="73.8594" id="Email" rx="2.5" ry="2.5" style="stroke:#181818;stroke-width:0.5;" width="109" x="1383.5" y="335.6406"/><ellipse cx="1398.5" cy="368.5703" fill="#B8255F" rx="11" ry="11" style="stroke:#181818;stroke-width:1.0;"/><path d="M1399.0938,371.8359 L1401.5625,365.9609 L1401.1719,365.9609 Q1400.5625,365.9609 1400.2969,365.7266 Q1400.0313,365.4922 1400.0313,365.1016 Q1400.0313,364.7266 1400.2969,364.4922 Q1400.5625,364.2578 1401.1719,364.2578 L1403.4531,364.2578 Q1404.0625,364.2578 1404.3281,364.4922 Q1404.5938,364.7266 1404.5938,365.1016 Q1404.5938,365.5703 1404.1875,365.8359 Q1404,365.9609 1403.4063,365.9609 L1399.9219,374.3203 L1398.2813,374.3203 L1394.7969,365.9609 Q1394.2031,365.9609 1394.0156,365.8359 Q1393.6094,365.5703 1393.6094,365.1016 Q1393.6094,364.7266 1393.875,364.4922 Q1394.1406,364.2578 1394.75,364.2578 L1397.0469,364.2578 Q1397.6563,364.2578 1397.9063,364.4922 Q1398.1719,364.7266 1398.1719,365.1016 Q1398.1719,365.4922 1397.9063,365.7266 Q1397.6563,365.9609 1397.0469,365.9609 L1396.6406,365.9609 L1399.0938,371.8359 Z " fill="#000000"/><text fill="#000000" font-family="sans-serif" font-size="12" font-style="italic" lengthAdjust="spacing" textLength="25" x="1438.5" y="351.5039">«Id»</text><text fill="#000000" font-family="sans-serif" font-size="12" font-style="italic" lengthAdjust="spacing" textLength="52" x="1425" y="364.9102">«unique»</text><text fill="#000000" font-family="sans-serif" font-size="12" font-style="italic" lengthAdjust="spacing" textLength="81" x="1410.5" y="378.3164">«value object»</text><text fill="#000000" font-family="sans-serif" font-size="14" lengthAdjust="spacing" textLength="34" x="1434" y="393.5332">Email</text><line style="stroke:#181818;stroke-width:0.5;" x1="1384.5" x2="1491.5" y1="401.5" y2="401.5"/></g><!--MD5=[d6181cb537bdc20c0a3007a98a56832d]
class Student--><g id="elem_Student"><rect codeLine="21" fill="#F1F1F1" height="47.0469" id="Student" rx="2.5" ry="2.5" style="stroke:#181818;stroke-width:0.5;" width="81" x="1391.5" y="76.6406"/><ellipse cx="1406.5" cy="96.1641" fill="#ADD1B2" rx="11" ry="11" style="stroke:#181818;stroke-width:1.0;"/><path d="M1405.3594,96.9609 L1405.3594,99.4609 L1409.6875,99.4609 L1409.6875,98.5391 Q1409.6875,97.9297 1409.9219,97.6641 Q1410.1719,97.3984 1410.5469,97.3984 Q1410.9219,97.3984 1411.1563,97.6641 Q1411.3906,97.9297 1411.3906,98.5391 L1411.3906,101.1641 L1403.3906,101.1641 Q1402.7656,101.1641 1402.5,100.9297 Q1402.25,100.6953 1402.25,100.3047 Q1402.25,99.9297 1402.5156,99.6953 Q1402.7813,99.4609 1403.3906,99.4609 L1403.6563,99.4609 L1403.6563,92.8047 L1403.3906,92.8047 Q1402.7656,92.8047 1402.5,92.5703 Q1402.25,92.3359 1402.25,91.9453 Q1402.25,91.5703 1402.5,91.3359 Q1402.7656,91.1016 1403.3906,91.1016 L1411.0156,91.1016 L1411.0156,93.6953 Q1411.0156,94.3047 1410.7813,94.5703 Q1410.5625,94.8203 1410.1719,94.8203 Q1409.7969,94.8203 1409.5625,94.5703 Q1409.3281,94.3047 1409.3281,93.6953 L1409.3281,92.8047 L1405.3594,92.8047 L1405.3594,95.2578 L1406.8438,95.2578 Q1406.8438,94.6016 1406.9688,94.4141 Q1407.2344,94.0078 1407.7031,94.0078 Q1408.0781,94.0078 1408.3125,94.2734 Q1408.5469,94.5234 1408.5469,95.1328 L1408.5469,97.1016 Q1408.5469,97.6484 1408.4219,97.8359 Q1408.1563,98.2266 1407.7031,98.2266 Q1407.2344,98.2266 1406.9688,97.8203 Q1406.8438,97.6328 1406.8438,96.9609 L1405.3594,96.9609 Z " fill="#000000"/><text fill="#000000" font-family="sans-serif" font-size="12" font-style="italic" lengthAdjust="spacing" textLength="43" x="1423.5" y="92.5039">«entity»</text><text fill="#000000" font-family="sans-serif" font-size="14" lengthAdjust="spacing" textLength="49" x="1420.5" y="107.7207">Student</text><line style="stroke:#181818;stroke-width:0.5;" x1="1392.5" x2="1471.5" y1="115.6875" y2="115.6875"/></g><!--MD5=[61a83f88cb8b7d3a80bc8c481f3736bf]
class Teacher--><g id="elem_Teacher"><rect codeLine="22" fill="#F1F1F1" height="47.0469" id="Teacher" rx="2.5" ry="2.5" style="stroke:#181818;stroke-width:0.5;" width="85" x="1271.5" y="76.6406"/><ellipse cx="1286.5" cy="96.1641" fill="#ADD1B2" rx="11" ry="11" style="stroke:#181818;stroke-width:1.0;"/><path d="M1285.3594,96.9609 L1285.3594,99.4609 L1289.6875,99.4609 L1289.6875,98.5391 Q1289.6875,97.9297 1289.9219,97.6641 Q1290.1719,97.3984 1290.5469,97.3984 Q1290.9219,97.3984 1291.1563,97.6641 Q1291.3906,97.9297 1291.3906,98.5391 L1291.3906,101.1641 L1283.3906,101.1641 Q1282.7656,101.1641 1282.5,100.9297 Q1282.25,100.6953 1282.25,100.3047 Q1282.25,99.9297 1282.5156,99.6953 Q1282.7813,99.4609 1283.3906,99.4609 L1283.6563,99.4609 L1283.6563,92.8047 L1283.3906,92.8047 Q1282.7656,92.8047 1282.5,92.5703 Q1282.25,92.3359 1282.25,91.9453 Q1282.25,91.5703 1282.5,91.3359 Q1282.7656,91.1016 1283.3906,91.1016 L1291.0156,91.1016 L1291.0156,93.6953 Q1291.0156,94.3047 1290.7813,94.5703 Q1290.5625,94.8203 1290.1719,94.8203 Q1289.7969,94.8203 1289.5625,94.5703 Q1289.3281,94.3047 1289.3281,93.6953 L1289.3281,92.8047 L1285.3594,92.8047 L1285.3594,95.2578 L1286.8438,95.2578 Q1286.8438,94.6016 1286.9688,94.4141 Q1287.2344,94.0078 1287.7031,94.0078 Q1288.0781,94.0078 1288.3125,94.2734 Q1288.5469,94.5234 1288.5469,95.1328 L1288.5469,97.1016 Q1288.5469,97.6484 1288.4219,97.8359 Q1288.1563,98.2266 1287.7031,98.2266 Q1287.2344,98.2266 1286.9688,97.8203 Q1286.8438,97.6328 1286.8438,96.9609 L1285.3594,96.9609 Z " fill="#000000"/><text fill="#000000" font-family="sans-serif" font-size="12" font-style="italic" lengthAdjust="spacing" textLength="43" x="1305.5" y="92.5039">«entity»</text><text fill="#000000" font-family="sans-serif" font-size="14" lengthAdjust="spacing" textLength="53" x="1300.5" y="107.7207">Teacher</text><line style="stroke:#181818;stroke-width:0.5;" x1="1272.5" x2="1355.5" y1="115.6875" y2="115.6875"/></g><!--MD5=[b24ed8d4ae84bae9290d9aab401637c7]
class Manager--><g id="elem_Manager"><rect codeLine="23" fill="#F1F1F1" height="47.0469" id="Manager" rx="2.5" ry="2.5" style="stroke:#181818;stroke-width:0.5;" width="88" x="1148" y="76.6406"/><ellipse cx="1163" cy="96.1641" fill="#ADD1B2" rx="11" ry="11" style="stroke:#181818;stroke-width:1.0;"/><path d="M1161.8594,96.9609 L1161.8594,99.4609 L1166.1875,99.4609 L1166.1875,98.5391 Q1166.1875,97.9297 1166.4219,97.6641 Q1166.6719,97.3984 1167.0469,97.3984 Q1167.4219,97.3984 1167.6563,97.6641 Q1167.8906,97.9297 1167.8906,98.5391 L1167.8906,101.1641 L1159.8906,101.1641 Q1159.2656,101.1641 1159,100.9297 Q1158.75,100.6953 1158.75,100.3047 Q1158.75,99.9297 1159.0156,99.6953 Q1159.2813,99.4609 1159.8906,99.4609 L1160.1563,99.4609 L1160.1563,92.8047 L1159.8906,92.8047 Q1159.2656,92.8047 1159,92.5703 Q1158.75,92.3359 1158.75,91.9453 Q1158.75,91.5703 1159,91.3359 Q1159.2656,91.1016 1159.8906,91.1016 L1167.5156,91.1016 L1167.5156,93.6953 Q1167.5156,94.3047 1167.2813,94.5703 Q1167.0625,94.8203 1166.6719,94.8203 Q1166.2969,94.8203 1166.0625,94.5703 Q1165.8281,94.3047 1165.8281,93.6953 L1165.8281,92.8047 L1161.8594,92.8047 L1161.8594,95.2578 L1163.3438,95.2578 Q1163.3438,94.6016 1163.4688,94.4141 Q1163.7344,94.0078 1164.2031,94.0078 Q1164.5781,94.0078 1164.8125,94.2734 Q1165.0469,94.5234 1165.0469,95.1328 L1165.0469,97.1016 Q1165.0469,97.6484 1164.9219,97.8359 Q1164.6563,98.2266 1164.2031,98.2266 Q1163.7344,98.2266 1163.4688,97.8203 Q1163.3438,97.6328 1163.3438,96.9609 L1161.8594,96.9609 Z " fill="#000000"/><text fill="#000000" font-family="sans-serif" font-size="12" font-style="italic" lengthAdjust="spacing" textLength="43" x="1183.5" y="92.5039">«entity»</text><text fill="#000000" font-family="sans-serif" font-size="14" lengthAdjust="spacing" textLength="56" x="1177" y="107.7207">Manager</text><line style="stroke:#181818;stroke-width:0.5;" x1="1149" x2="1235" y1="115.6875" y2="115.6875"/></g><!--MD5=[f0af975bcef78e7775ee4ad5904d052d]
class StudentRegistration--><g id="elem_StudentRegistration"><rect codeLine="38" fill="#F1F1F1" height="60.4531" id="StudentRegistration" rx="2.5" ry="2.5" style="stroke:#181818;stroke-width:0.5;" width="157" x="841.5" y="199.6406"/><ellipse cx="856.5" cy="225.8672" fill="#ADD1B2" rx="11" ry="11" style="stroke:#181818;stroke-width:1.0;"/><path d="M855.3594,226.6641 L855.3594,229.1641 L859.6875,229.1641 L859.6875,228.2422 Q859.6875,227.6328 859.9219,227.3672 Q860.1719,227.1016 860.5469,227.1016 Q860.9219,227.1016 861.1563,227.3672 Q861.3906,227.6328 861.3906,228.2422 L861.3906,230.8672 L853.3906,230.8672 Q852.7656,230.8672 852.5,230.6328 Q852.25,230.3984 852.25,230.0078 Q852.25,229.6328 852.5156,229.3984 Q852.7813,229.1641 853.3906,229.1641 L853.6563,229.1641 L853.6563,222.5078 L853.3906,222.5078 Q852.7656,222.5078 852.5,222.2734 Q852.25,222.0391 852.25,221.6484 Q852.25,221.2734 852.5,221.0391 Q852.7656,220.8047 853.3906,220.8047 L861.0156,220.8047 L861.0156,223.3984 Q861.0156,224.0078 860.7813,224.2734 Q860.5625,224.5234 860.1719,224.5234 Q859.7969,224.5234 859.5625,224.2734 Q859.3281,224.0078 859.3281,223.3984 L859.3281,222.5078 L855.3594,222.5078 L855.3594,224.9609 L856.8438,224.9609 Q856.8438,224.3047 856.9688,224.1172 Q857.2344,223.7109 857.7031,223.7109 Q858.0781,223.7109 858.3125,223.9766 Q858.5469,224.2266 858.5469,224.8359 L858.5469,226.8047 Q858.5469,227.3516 858.4219,227.5391 Q858.1563,227.9297 857.7031,227.9297 Q857.2344,227.9297 856.9688,227.5234 Q856.8438,227.3359 856.8438,226.6641 L855.3594,226.6641 Z " fill="#000000"/><text fill="#000000" font-family="sans-serif" font-size="12" font-style="italic" lengthAdjust="spacing" textLength="35" x="915.5" y="215.5039">«root»</text><text fill="#000000" font-family="sans-serif" font-size="12" font-style="italic" lengthAdjust="spacing" textLength="43" x="911.5" y="228.9102">«entity»</text><text fill="#000000" font-family="sans-serif" font-size="14" lengthAdjust="spacing" textLength="125" x="870.5" y="244.127">StudentRegistration</text><line style="stroke:#181818;stroke-width:0.5;" x1="842.5" x2="997.5" y1="252.0938" y2="252.0938"/></g><!--MD5=[d54f99121f47b38ee3d4150d54c642cd]
class RegiStatusStudent--><g id="elem_RegiStatusStudent"><rect codeLine="40" fill="#F1F1F1" height="60.4531" id="RegiStatusStudent" rx="2.5" ry="2.5" style="stroke:#181818;stroke-width:0.5;" width="109" x="865.5" y="342.6406"/><ellipse cx="880.5" cy="368.8672" fill="#B8255F" rx="11" ry="11" style="stroke:#181818;stroke-width:1.0;"/><path d="M881.0938,372.1328 L883.5625,366.2578 L883.1719,366.2578 Q882.5625,366.2578 882.2969,366.0234 Q882.0313,365.7891 882.0313,365.3984 Q882.0313,365.0234 882.2969,364.7891 Q882.5625,364.5547 883.1719,364.5547 L885.4531,364.5547 Q886.0625,364.5547 886.3281,364.7891 Q886.5938,365.0234 886.5938,365.3984 Q886.5938,365.8672 886.1875,366.1328 Q886,366.2578 885.4063,366.2578 L881.9219,374.6172 L880.2813,374.6172 L876.7969,366.2578 Q876.2031,366.2578 876.0156,366.1328 Q875.6094,365.8672 875.6094,365.3984 Q875.6094,365.0234 875.875,364.7891 Q876.1406,364.5547 876.75,364.5547 L879.0469,364.5547 Q879.6563,364.5547 879.9063,364.7891 Q880.1719,365.0234 880.1719,365.3984 Q880.1719,365.7891 879.9063,366.0234 Q879.6563,366.2578 879.0469,366.2578 L878.6406,366.2578 L881.0938,372.1328 Z " fill="#000000"/><text fill="#000000" font-family="sans-serif" font-size="12" font-style="italic" lengthAdjust="spacing" textLength="81" x="892.5" y="358.5039">«value object»</text><text fill="#000000" font-family="sans-serif" font-size="12" font-style="italic" lengthAdjust="spacing" textLength="52" x="907" y="371.9102">«unique»</text><text fill="#000000" font-family="sans-serif" font-size="14" lengthAdjust="spacing" textLength="40" x="913" y="387.127">Status</text><line style="stroke:#181818;stroke-width:0.5;" x1="866.5" x2="973.5" y1="395.0938" y2="395.0938"/></g><!--MD5=[2cde1893743db7326c8898df7574159d]
class TeacherRegistration--><g id="elem_TeacherRegistration"><rect codeLine="49" fill="#F1F1F1" height="60.4531" id="TeacherRegistration" rx="2.5" ry="2.5" style="stroke:#181818;stroke-width:0.5;" width="161" x="1549.5" y="342.6406"/><ellipse cx="1564.5" cy="368.8672" fill="#ADD1B2" rx="11" ry="11" style="stroke:#181818;stroke-width:1.0;"/><path d="M1563.3594,369.6641 L1563.3594,372.1641 L1567.6875,372.1641 L1567.6875,371.2422 Q1567.6875,370.6328 1567.9219,370.3672 Q1568.1719,370.1016 1568.5469,370.1016 Q1568.9219,370.1016 1569.1563,370.3672 Q1569.3906,370.6328 1569.3906,371.2422 L1569.3906,373.8672 L1561.3906,373.8672 Q1560.7656,373.8672 1560.5,373.6328 Q1560.25,373.3984 1560.25,373.0078 Q1560.25,372.6328 1560.5156,372.3984 Q1560.7813,372.1641 1561.3906,372.1641 L1561.6563,372.1641 L1561.6563,365.5078 L1561.3906,365.5078 Q1560.7656,365.5078 1560.5,365.2734 Q1560.25,365.0391 1560.25,364.6484 Q1560.25,364.2734 1560.5,364.0391 Q1560.7656,363.8047 1561.3906,363.8047 L1569.0156,363.8047 L1569.0156,366.3984 Q1569.0156,367.0078 1568.7813,367.2734 Q1568.5625,367.5234 1568.1719,367.5234 Q1567.7969,367.5234 1567.5625,367.2734 Q1567.3281,367.0078 1567.3281,366.3984 L1567.3281,365.5078 L1563.3594,365.5078 L1563.3594,367.9609 L1564.8438,367.9609 Q1564.8438,367.3047 1564.9688,367.1172 Q1565.2344,366.7109 1565.7031,366.7109 Q1566.0781,366.7109 1566.3125,366.9766 Q1566.5469,367.2266 1566.5469,367.8359 L1566.5469,369.8047 Q1566.5469,370.3516 1566.4219,370.5391 Q1566.1563,370.9297 1565.7031,370.9297 Q1565.2344,370.9297 1564.9688,370.5234 Q1564.8438,370.3359 1564.8438,369.6641 L1563.3594,369.6641 Z " fill="#000000"/><text fill="#000000" font-family="sans-serif" font-size="12" font-style="italic" lengthAdjust="spacing" textLength="35" x="1625.5" y="358.5039">«root»</text><text fill="#000000" font-family="sans-serif" font-size="12" font-style="italic" lengthAdjust="spacing" textLength="43" x="1621.5" y="371.9102">«entity»</text><text fill="#000000" font-family="sans-serif" font-size="14" lengthAdjust="spacing" textLength="129" x="1578.5" y="387.127">TeacherRegistration</text><line style="stroke:#181818;stroke-width:0.5;" x1="1550.5" x2="1709.5" y1="395.0938" y2="395.0938"/></g><!--MD5=[3cdb1e7a67f7b96c83656fb7b61d1f52]
class TeacherRole--><g id="elem_TeacherRole"><rect codeLine="51" fill="#F1F1F1" height="78.3281" id="TeacherRole" rx="2.5" ry="2.5" style="stroke:#181818;stroke-width:0.5;" width="114" x="1573" y="469.6406"/><ellipse cx="1588" cy="489.1641" fill="#EB937F" rx="11" ry="11" style="stroke:#181818;stroke-width:1.0;"/><path d="M1586.8594,489.9609 L1586.8594,492.4609 L1591.1875,492.4609 L1591.1875,491.5391 Q1591.1875,490.9297 1591.4219,490.6641 Q1591.6719,490.3984 1592.0469,490.3984 Q1592.4219,490.3984 1592.6563,490.6641 Q1592.8906,490.9297 1592.8906,491.5391 L1592.8906,494.1641 L1584.8906,494.1641 Q1584.2656,494.1641 1584,493.9297 Q1583.75,493.6953 1583.75,493.3047 Q1583.75,492.9297 1584.0156,492.6953 Q1584.2813,492.4609 1584.8906,492.4609 L1585.1563,492.4609 L1585.1563,485.8047 L1584.8906,485.8047 Q1584.2656,485.8047 1584,485.5703 Q1583.75,485.3359 1583.75,484.9453 Q1583.75,484.5703 1584,484.3359 Q1584.2656,484.1016 1584.8906,484.1016 L1592.5156,484.1016 L1592.5156,486.6953 Q1592.5156,487.3047 1592.2813,487.5703 Q1592.0625,487.8203 1591.6719,487.8203 Q1591.2969,487.8203 1591.0625,487.5703 Q1590.8281,487.3047 1590.8281,486.6953 L1590.8281,485.8047 L1586.8594,485.8047 L1586.8594,488.2578 L1588.3438,488.2578 Q1588.3438,487.6016 1588.4688,487.4141 Q1588.7344,487.0078 1589.2031,487.0078 Q1589.5781,487.0078 1589.8125,487.2734 Q1590.0469,487.5234 1590.0469,488.1328 L1590.0469,490.1016 Q1590.0469,490.6484 1589.9219,490.8359 Q1589.6563,491.2266 1589.2031,491.2266 Q1588.7344,491.2266 1588.4688,490.8203 Q1588.3438,490.6328 1588.3438,489.9609 L1586.8594,489.9609 Z " fill="#000000"/><text fill="#000000" font-family="sans-serif" font-size="12" font-style="italic" lengthAdjust="spacing" textLength="46" x="1620" y="485.5039">«enum»</text><text fill="#000000" font-family="sans-serif" font-size="14" lengthAdjust="spacing" textLength="82" x="1602" y="500.7207">TeacherRole</text><line style="stroke:#181818;stroke-width:0.5;" x1="1574" x2="1686" y1="508.6875" y2="508.6875"/><text fill="#000000" font-family="sans-serif" font-size="14" lengthAdjust="spacing" textLength="75" x="1579" y="525.3613">ASSISTANT</text><text fill="#000000" font-family="sans-serif" font-size="14" lengthAdjust="spacing" textLength="57" x="1579" y="541.002">REGENT</text></g><!--MD5=[4066b0363c5a91ff3b6e03e0428953a9]
class Course--><g id="elem_Course"><rect codeLine="62" fill="#F1F1F1" height="60.4531" id="Course" rx="2.5" ry="2.5" style="stroke:#181818;stroke-width:0.5;" width="78" x="508" y="342.6406"/><ellipse cx="523" cy="368.8672" fill="#ADD1B2" rx="11" ry="11" style="stroke:#181818;stroke-width:1.0;"/><path d="M521.8594,369.6641 L521.8594,372.1641 L526.1875,372.1641 L526.1875,371.2422 Q526.1875,370.6328 526.4219,370.3672 Q526.6719,370.1016 527.0469,370.1016 Q527.4219,370.1016 527.6563,370.3672 Q527.8906,370.6328 527.8906,371.2422 L527.8906,373.8672 L519.8906,373.8672 Q519.2656,373.8672 519,373.6328 Q518.75,373.3984 518.75,373.0078 Q518.75,372.6328 519.0156,372.3984 Q519.2813,372.1641 519.8906,372.1641 L520.1563,372.1641 L520.1563,365.5078 L519.8906,365.5078 Q519.2656,365.5078 519,365.2734 Q518.75,365.0391 518.75,364.6484 Q518.75,364.2734 519,364.0391 Q519.2656,363.8047 519.8906,363.8047 L527.5156,363.8047 L527.5156,366.3984 Q527.5156,367.0078 527.2813,367.2734 Q527.0625,367.5234 526.6719,367.5234 Q526.2969,367.5234 526.0625,367.2734 Q525.8281,367.0078 525.8281,366.3984 L525.8281,365.5078 L521.8594,365.5078 L521.8594,367.9609 L523.3438,367.9609 Q523.3438,367.3047 523.4688,367.1172 Q523.7344,366.7109 524.2031,366.7109 Q524.5781,366.7109 524.8125,366.9766 Q525.0469,367.2266 525.0469,367.8359 L525.0469,369.8047 Q525.0469,370.3516 524.9219,370.5391 Q524.6563,370.9297 524.2031,370.9297 Q523.7344,370.9297 523.4688,370.5234 Q523.3438,370.3359 523.3438,369.6641 L521.8594,369.6641 Z " fill="#000000"/><text fill="#000000" font-family="sans-serif" font-size="12" font-style="italic" lengthAdjust="spacing" textLength="35" x="542.5" y="358.5039">«root»</text><text fill="#000000" font-family="sans-serif" font-size="12" font-style="italic" lengthAdjust="spacing" textLength="43" x="538.5" y="371.9102">«entity»</text><text fill="#000000" font-family="sans-serif" font-size="14" lengthAdjust="spacing" textLength="46" x="537" y="387.127">Course</text><line style="stroke:#181818;stroke-width:0.5;" x1="509" x2="585" y1="395.0938" y2="395.0938"/></g><!--MD5=[c3304bb95cb9ec2adad5e3f1dfc01105]
class CourseTitle--><g id="elem_CourseTitle"><rect codeLine="64" fill="#F1F1F1" height="60.4531" id="CourseTitle" rx="2.5" ry="2.5" style="stroke:#181818;stroke-width:0.5;" width="109" x="636.5" y="199.6406"/><ellipse cx="651.5" cy="225.8672" fill="#B8255F" rx="11" ry="11" style="stroke:#181818;stroke-width:1.0;"/><path d="M652.0938,229.1328 L654.5625,223.2578 L654.1719,223.2578 Q653.5625,223.2578 653.2969,223.0234 Q653.0313,222.7891 653.0313,222.3984 Q653.0313,222.0234 653.2969,221.7891 Q653.5625,221.5547 654.1719,221.5547 L656.4531,221.5547 Q657.0625,221.5547 657.3281,221.7891 Q657.5938,222.0234 657.5938,222.3984 Q657.5938,222.8672 657.1875,223.1328 Q657,223.2578 656.4063,223.2578 L652.9219,231.6172 L651.2813,231.6172 L647.7969,223.2578 Q647.2031,223.2578 647.0156,223.1328 Q646.6094,222.8672 646.6094,222.3984 Q646.6094,222.0234 646.875,221.7891 Q647.1406,221.5547 647.75,221.5547 L650.0469,221.5547 Q650.6563,221.5547 650.9063,221.7891 Q651.1719,222.0234 651.1719,222.3984 Q651.1719,222.7891 650.9063,223.0234 Q650.6563,223.2578 650.0469,223.2578 L649.6406,223.2578 L652.0938,229.1328 Z " fill="#000000"/><text fill="#000000" font-family="sans-serif" font-size="12" font-style="italic" lengthAdjust="spacing" textLength="81" x="663.5" y="215.5039">«value object»</text><text fill="#000000" font-family="sans-serif" font-size="12" font-style="italic" lengthAdjust="spacing" textLength="52" x="678" y="228.9102">«unique»</text><text fill="#000000" font-family="sans-serif" font-size="14" lengthAdjust="spacing" textLength="27" x="690.5" y="244.127">Title</text><line style="stroke:#181818;stroke-width:0.5;" x1="637.5" x2="744.5" y1="252.0938" y2="252.0938"/></g><!--MD5=[0276c55ef034c711ad16864ae0c1a09b]
class Id--><g id="elem_Id"><rect codeLine="65" fill="#F1F1F1" height="60.4531" id="Id" rx="2.5" ry="2.5" style="stroke:#181818;stroke-width:0.5;" width="109" x="492.5" y="199.6406"/><ellipse cx="507.5" cy="225.8672" fill="#B8255F" rx="11" ry="11" style="stroke:#181818;stroke-width:1.0;"/><path d="M508.0938,229.1328 L510.5625,223.2578 L510.1719,223.2578 Q509.5625,223.2578 509.2969,223.0234 Q509.0313,222.7891 509.0313,222.3984 Q509.0313,222.0234 509.2969,221.7891 Q509.5625,221.5547 510.1719,221.5547 L512.4531,221.5547 Q513.0625,221.5547 513.3281,221.7891 Q513.5938,222.0234 513.5938,222.3984 Q513.5938,222.8672 513.1875,223.1328 Q513,223.2578 512.4063,223.2578 L508.9219,231.6172 L507.2813,231.6172 L503.7969,223.2578 Q503.2031,223.2578 503.0156,223.1328 Q502.6094,222.8672 502.6094,222.3984 Q502.6094,222.0234 502.875,221.7891 Q503.1406,221.5547 503.75,221.5547 L506.0469,221.5547 Q506.6563,221.5547 506.9063,221.7891 Q507.1719,222.0234 507.1719,222.3984 Q507.1719,222.7891 506.9063,223.0234 Q506.6563,223.2578 506.0469,223.2578 L505.6406,223.2578 L508.0938,229.1328 Z " fill="#000000"/><text fill="#000000" font-family="sans-serif" font-size="12" font-style="italic" lengthAdjust="spacing" textLength="81" x="519.5" y="215.5039">«value object»</text><text fill="#000000" font-family="sans-serif" font-size="12" font-style="italic" lengthAdjust="spacing" textLength="25" x="547.5" y="228.9102">«Id»</text><text fill="#000000" font-family="sans-serif" font-size="14" lengthAdjust="spacing" textLength="11" x="554.5" y="244.127">Id</text><line style="stroke:#181818;stroke-width:0.5;" x1="493.5" x2="600.5" y1="252.0938" y2="252.0938"/></g><!--MD5=[799856c08d18301c64071de18adb2d39]
class CourseState--><g id="elem_CourseState"><rect codeLine="66" fill="#F1F1F1" height="47.0469" id="CourseState" rx="2.5" ry="2.5" style="stroke:#181818;stroke-width:0.5;" width="109" x="348.5" y="206.1406"/><ellipse cx="363.5" cy="225.6641" fill="#B8255F" rx="11" ry="11" style="stroke:#181818;stroke-width:1.0;"/><path d="M364.0938,228.9297 L366.5625,223.0547 L366.1719,223.0547 Q365.5625,223.0547 365.2969,222.8203 Q365.0313,222.5859 365.0313,222.1953 Q365.0313,221.8203 365.2969,221.5859 Q365.5625,221.3516 366.1719,221.3516 L368.4531,221.3516 Q369.0625,221.3516 369.3281,221.5859 Q369.5938,221.8203 369.5938,222.1953 Q369.5938,222.6641 369.1875,222.9297 Q369,223.0547 368.4063,223.0547 L364.9219,231.4141 L363.2813,231.4141 L359.7969,223.0547 Q359.2031,223.0547 359.0156,222.9297 Q358.6094,222.6641 358.6094,222.1953 Q358.6094,221.8203 358.875,221.5859 Q359.1406,221.3516 359.75,221.3516 L362.0469,221.3516 Q362.6563,221.3516 362.9063,221.5859 Q363.1719,221.8203 363.1719,222.1953 Q363.1719,222.5859 362.9063,222.8203 Q362.6563,223.0547 362.0469,223.0547 L361.6406,223.0547 L364.0938,228.9297 Z " fill="#000000"/><text fill="#000000" font-family="sans-serif" font-size="12" font-style="italic" lengthAdjust="spacing" textLength="81" x="375.5" y="222.0039">«value object»</text><text fill="#000000" font-family="sans-serif" font-size="14" lengthAdjust="spacing" textLength="33" x="399.5" y="237.2207">State</text><line style="stroke:#181818;stroke-width:0.5;" x1="349.5" x2="456.5" y1="245.1875" y2="245.1875"/></g><!--MD5=[f6a23ce3a300b49f1448f5d1d44095f1]
class Capacity--><g id="elem_Capacity"><rect codeLine="67" fill="#F1F1F1" height="47.0469" id="Capacity" rx="2.5" ry="2.5" style="stroke:#181818;stroke-width:0.5;" width="109" x="204.5" y="206.1406"/><ellipse cx="219.5" cy="225.6641" fill="#B8255F" rx="11" ry="11" style="stroke:#181818;stroke-width:1.0;"/><path d="M220.0938,228.9297 L222.5625,223.0547 L222.1719,223.0547 Q221.5625,223.0547 221.2969,222.8203 Q221.0313,222.5859 221.0313,222.1953 Q221.0313,221.8203 221.2969,221.5859 Q221.5625,221.3516 222.1719,221.3516 L224.4531,221.3516 Q225.0625,221.3516 225.3281,221.5859 Q225.5938,221.8203 225.5938,222.1953 Q225.5938,222.6641 225.1875,222.9297 Q225,223.0547 224.4063,223.0547 L220.9219,231.4141 L219.2813,231.4141 L215.7969,223.0547 Q215.2031,223.0547 215.0156,222.9297 Q214.6094,222.6641 214.6094,222.1953 Q214.6094,221.8203 214.875,221.5859 Q215.1406,221.3516 215.75,221.3516 L218.0469,221.3516 Q218.6563,221.3516 218.9063,221.5859 Q219.1719,221.8203 219.1719,222.1953 Q219.1719,222.5859 218.9063,222.8203 Q218.6563,223.0547 218.0469,223.0547 L217.6406,223.0547 L220.0938,228.9297 Z " fill="#000000"/><text fill="#000000" font-family="sans-serif" font-size="12" font-style="italic" lengthAdjust="spacing" textLength="81" x="231.5" y="222.0039">«value object»</text><text fill="#000000" font-family="sans-serif" font-size="14" lengthAdjust="spacing" textLength="55" x="244.5" y="237.2207">Capacity</text><line style="stroke:#181818;stroke-width:0.5;" x1="205.5" x2="312.5" y1="245.1875" y2="245.1875"/></g><!--MD5=[ac7bd2233807ab297c4b9d0ba4720eee]
class EnrollementsState--><g id="elem_EnrollementsState"><rect codeLine="68" fill="#F1F1F1" height="47.0469" id="EnrollementsState" rx="2.5" ry="2.5" style="stroke:#181818;stroke-width:0.5;" width="147" x="22.5" y="206.1406"/><ellipse cx="37.5" cy="225.6641" fill="#B8255F" rx="11" ry="11" style="stroke:#181818;stroke-width:1.0;"/><path d="M38.0938,228.9297 L40.5625,223.0547 L40.1719,223.0547 Q39.5625,223.0547 39.2969,222.8203 Q39.0313,222.5859 39.0313,222.1953 Q39.0313,221.8203 39.2969,221.5859 Q39.5625,221.3516 40.1719,221.3516 L42.4531,221.3516 Q43.0625,221.3516 43.3281,221.5859 Q43.5938,221.8203 43.5938,222.1953 Q43.5938,222.6641 43.1875,222.9297 Q43,223.0547 42.4063,223.0547 L38.9219,231.4141 L37.2813,231.4141 L33.7969,223.0547 Q33.2031,223.0547 33.0156,222.9297 Q32.6094,222.6641 32.6094,222.1953 Q32.6094,221.8203 32.875,221.5859 Q33.1406,221.3516 33.75,221.3516 L36.0469,221.3516 Q36.6563,221.3516 36.9063,221.5859 Q37.1719,221.8203 37.1719,222.1953 Q37.1719,222.5859 36.9063,222.8203 Q36.6563,223.0547 36.0469,223.0547 L35.6406,223.0547 L38.0938,228.9297 Z " fill="#000000"/><text fill="#000000" font-family="sans-serif" font-size="12" font-style="italic" lengthAdjust="spacing" textLength="81" x="68.5" y="222.0039">«value object»</text><text fill="#000000" font-family="sans-serif" font-size="14" lengthAdjust="spacing" textLength="115" x="51.5" y="237.2207">EnrollementsState</text><line style="stroke:#181818;stroke-width:0.5;" x1="23.5" x2="168.5" y1="245.1875" y2="245.1875"/></g><!--MD5=[dbc364445409b51c9b407d19a07b4adf]
link User to Email--><g id="link_User_Email"><path codeLine="25" d="M1366.54,252.6406 C1366.54,252.6406 1387.5,252.6406 1387.5,252.6406 C1387.5,252.6406 1387.5,322.3306 1387.5,322.3306 " fill="none" id="User-Email" style="stroke:#181818;stroke-width:1.0;"/><polygon fill="#181818" points="1387.5,335.3306,1391.5,326.3306,1387.5,330.3306,1383.5,326.3306,1387.5,335.3306" style="stroke:#181818;stroke-width:1.0;"/><line style="stroke:#181818;stroke-width:1.0;" x1="1387.5" x2="1387.5" y1="330.3306" y2="322.3306"/><polygon fill="#181818" points="1354.54,252.6406,1360.54,256.6406,1366.54,252.6406,1360.54,248.6406,1354.54,252.6406" style="stroke:#181818;stroke-width:1.0;"/><text fill="#000000" font-family="sans-serif" font-size="13" lengthAdjust="spacing" textLength="21" x="1365.5" y="274.2692">has</text><text fill="#000000" font-family="sans-serif" font-size="13" lengthAdjust="spacing" textLength="7" x="1362.3449" y="252.4073">1</text><text fill="#000000" font-family="sans-serif" font-size="13" lengthAdjust="spacing" textLength="7" x="1370.5438" y="324.9907">1</text></g><!--MD5=[5ab1f46e477a8163e64d30b24bef4255]
link User to Password--><g id="link_User_Password"><path codeLine="26" d="M1294,287.6706 C1294,287.6706 1294,336.1306 1294,336.1306 " fill="none" id="User-Password" style="stroke:#181818;stroke-width:1.0;"/><polygon fill="#181818" points="1294,349.1306,1298,340.1306,1294,344.1306,1290,340.1306,1294,349.1306" style="stroke:#181818;stroke-width:1.0;"/><line style="stroke:#181818;stroke-width:1.0;" x1="1294" x2="1294" y1="344.1306" y2="336.1306"/><polygon fill="#181818" points="1294,275.6706,1290,281.6706,1294,287.6706,1298,281.6706,1294,275.6706" style="stroke:#181818;stroke-width:1.0;"/><text fill="#000000" font-family="sans-serif" font-size="13" lengthAdjust="spacing" textLength="21" x="1272" y="309.1692">has</text><text fill="#000000" font-family="sans-serif" font-size="13" lengthAdjust="spacing" textLength="7" x="1286.0156" y="338.3853">1</text><text fill="#000000" font-family="sans-serif" font-size="13" lengthAdjust="spacing" textLength="7" x="1286.4859" y="295.2859">1</text></g><!--MD5=[70c37dc9bfbc8656942103c36f1181e4]
link User to Role--><g id="link_User_Role"><path codeLine="27" d="M1221.4,267.6406 C1221.4,267.6406 1176.25,267.6406 1176.25,267.6406 C1176.25,267.6406 1176.25,336.0806 1176.25,336.0806 " fill="none" id="User-Role" style="stroke:#181818;stroke-width:1.0;"/><polygon fill="#181818" points="1176.25,349.0806,1180.25,340.0806,1176.25,344.0806,1172.25,340.0806,1176.25,349.0806" style="stroke:#181818;stroke-width:1.0;"/><line style="stroke:#181818;stroke-width:1.0;" x1="1176.25" x2="1176.25" y1="344.0806" y2="336.0806"/><polygon fill="#181818" points="1233.4,267.6406,1227.4,263.6406,1221.4,267.6406,1227.4,271.6406,1233.4,267.6406" style="stroke:#181818;stroke-width:1.0;"/><text fill="#000000" font-family="sans-serif" font-size="13" lengthAdjust="spacing" textLength="21" x="1154.25" y="276.5492">has</text><text fill="#000000" font-family="sans-serif" font-size="13" lengthAdjust="spacing" textLength="7" x="1218.5878" y="269.2354">1</text><text fill="#000000" font-family="sans-serif" font-size="13" lengthAdjust="spacing" textLength="7" x="1175.6484" y="338.3212">1</text></g><!--MD5=[6eb6e197a729f6ec2412743e0bdbca1d]
link Manager to User--><g id="link_Manager_User"><path codeLine="28" d="M1214.17,123.6606 C1214.17,150.1706 1214.17,189.6406 1214.17,189.6406 C1214.17,189.6406 1228.49,189.6406 1228.49,189.6406 " fill="none" id="Manager-to-User" style="stroke:#181818;stroke-width:1.0;"/><polygon fill="#181818" points="1233.49,189.6406,1224.49,185.6406,1228.49,189.6406,1224.49,193.6406,1233.49,189.6406" style="stroke:#181818;stroke-width:1.0;"/><text fill="#000000" font-family="sans-serif" font-size="13" lengthAdjust="spacing" textLength="43" x="1170.17" y="160.5792">creates</text><text fill="#000000" font-family="sans-serif" font-size="13" lengthAdjust="spacing" textLength="7" x="1211.9542" y="143.311">1</text><text fill="#000000" font-family="sans-serif" font-size="13" lengthAdjust="spacing" textLength="5" x="1220.4168" y="181.4379">*</text></g><!--MD5=[6eb6e197a729f6ec2412743e0bdbca1d]
link Manager to User--><g id="link_Manager_User"><path codeLine="29" d="M1223.83,123.9906 C1223.83,151.9806 1223.83,194.6406 1223.83,194.6406 C1223.83,194.6406 1224.78,194.6406 1224.78,194.6406 " fill="none" id="Manager-to-User-1" style="stroke:#181818;stroke-width:1.0;"/><polygon fill="none" points="1213.3,187.6406,1233.3,194.6406,1213.3,201.6406,1213.3,187.6406" style="stroke:#181818;stroke-width:1.0;"/></g><!--MD5=[e7e4384c2e5b49218c5cd97f5ff6bc06]
link Student to User--><g id="link_Student_User"><path codeLine="30" d="M1432,123.7806 C1432,155.1506 1432,206.6406 1432,206.6406 C1432,206.6406 1374.53,206.6406 1374.53,206.6406 " fill="none" id="Student-to-User" style="stroke:#181818;stroke-width:1.0;"/><polygon fill="none" points="1374.53,213.6406,1354.53,206.6406,1374.53,199.6406,1374.53,213.6406" style="stroke:#181818;stroke-width:1.0;"/></g><!--MD5=[0a356a4e09bd4fc4087bf5e4e9dbf72c]
link Teacher to User--><g id="link_Teacher_User"><path codeLine="31" d="M1313,123.8906 C1313,123.8906 1313,163.4906 1313,163.4906 " fill="none" id="Teacher-to-User" style="stroke:#181818;stroke-width:1.0;"/><polygon fill="none" points="1320,163.4906,1313,183.4906,1306,163.4906,1320,163.4906" style="stroke:#181818;stroke-width:1.0;"/></g><!--MD5=[f5ffdf6c45929761980a7c2b41304f8e]
reverse link StudentRegistration to User--><g id="link_StudentRegistration_User"><path codeLine="42" d="M1003.86,239.6406 C1003.86,239.6406 1233.4,239.6406 1233.4,239.6406 " fill="none" id="StudentRegistration-backto-User" style="stroke:#181818;stroke-width:1.0;"/><polygon fill="#181818" points="998.86,239.6406,1007.86,243.6406,1003.86,239.6406,1007.86,235.6406,998.86,239.6406" style="stroke:#181818;stroke-width:1.0;"/><text fill="#000000" font-family="sans-serif" font-size="13" lengthAdjust="spacing" textLength="38" x="1079.63" y="236.4092">enrolls</text><text fill="#000000" font-family="sans-serif" font-size="13" lengthAdjust="spacing" textLength="7" x="1006.4526" y="237.689">1</text><text fill="#000000" font-family="sans-serif" font-size="13" lengthAdjust="spacing" textLength="7" x="1218.5878" y="237.8229">1</text></g><!--MD5=[89645d7b06ab68493d025cc7837295ad]
link User to StudentRegistration--><g id="link_User_StudentRegistration"><path codeLine="43" d="M1233.49,219.6406 C1233.49,219.6406 1003.64,219.6406 1003.64,219.6406 " fill="none" id="User-to-StudentRegistration" style="stroke:#181818;stroke-width:1.0;"/><polygon fill="#181818" points="998.64,219.6406,1007.64,223.6406,1003.64,219.6406,1007.64,215.6406,998.64,219.6406" style="stroke:#181818;stroke-width:1.0;"/><text fill="#000000" font-family="sans-serif" font-size="13" lengthAdjust="spacing" textLength="53" x="1064.57" y="216.4092">manages</text><text fill="#000000" font-family="sans-serif" font-size="13" lengthAdjust="spacing" textLength="7" x="1218.6888" y="215.3854">1</text><text fill="#000000" font-family="sans-serif" font-size="13" lengthAdjust="spacing" textLength="7" x="1006.469" y="215.7922">1</text></g><!--MD5=[36ac1ed9af1724fe1e4b6cfc9f6bc82f]
link StudentRegistration to RegiStatusStudent--><g id="link_StudentRegistration_RegiStatusStudent"><path codeLine="44" d="M920,271.9706 C920,271.9706 920,329.3606 920,329.3606 " fill="none" id="StudentRegistration-RegiStatusStudent" style="stroke:#181818;stroke-width:1.0;"/><polygon fill="#181818" points="920,342.3606,924,333.3606,920,337.3606,916,333.3606,920,342.3606" style="stroke:#181818;stroke-width:1.0;"/><line style="stroke:#181818;stroke-width:1.0;" x1="920" x2="920" y1="337.3606" y2="329.3606"/><polygon fill="#181818" points="920,259.9706,916,265.9706,920,271.9706,924,265.9706,920,259.9706" style="stroke:#181818;stroke-width:1.0;"/><text fill="#000000" font-family="sans-serif" font-size="13" lengthAdjust="spacing" textLength="21" x="898" y="297.9292">has</text><text fill="#000000" font-family="sans-serif" font-size="13" lengthAdjust="spacing" textLength="7" x="912.2344" y="331.9819">1</text><text fill="#000000" font-family="sans-serif" font-size="13" lengthAdjust="spacing" textLength="7" x="912.2344" y="279.9128">1</text></g><!--MD5=[91f280d5544d20e02ad2867b5330a892]
link User to TeacherRegistration--><g id="link_User_TeacherRegistration"><path codeLine="56" d="M1354.85,229.6406 C1451.67,229.6406 1630,229.6406 1630,229.6406 C1630,229.6406 1630,337.3106 1630,337.3106 " fill="none" id="User-to-TeacherRegistration" style="stroke:#181818;stroke-width:1.0;"/><polygon fill="#181818" points="1630,342.3106,1634,333.3106,1630,337.3106,1626,333.3106,1630,342.3106" style="stroke:#181818;stroke-width:1.0;"/><text fill="#000000" font-family="sans-serif" font-size="13" lengthAdjust="spacing" textLength="53" x="1492.26" y="226.4092">manages</text><text fill="#000000" font-family="sans-serif" font-size="13" lengthAdjust="spacing" textLength="7" x="1362.6927" y="226.6041">1</text><text fill="#000000" font-family="sans-serif" font-size="13" lengthAdjust="spacing" textLength="5" x="1624.4531" y="331.9209">*</text></g><!--MD5=[312af8da20d8ac1ea0cc71907323243a]
link TeacherRegistration to TeacherRole--><g id="link_TeacherRegistration_TeacherRole"><path codeLine="57" d="M1630,402.8206 C1630,402.8206 1630,464.4906 1630,464.4906 " fill="none" id="TeacherRegistration-to-TeacherRole" style="stroke:#181818;stroke-width:1.0;"/><polygon fill="#181818" points="1630,469.4906,1634,460.4906,1630,464.4906,1626,460.4906,1630,469.4906" style="stroke:#181818;stroke-width:1.0;"/><text fill="#000000" font-family="sans-serif" font-size="13" lengthAdjust="spacing" textLength="21" x="1608" y="430.4292">has</text><text fill="#000000" font-family="sans-serif" font-size="13" lengthAdjust="spacing" textLength="7" x="1622.2344" y="422.73">1</text><text fill="#000000" font-family="sans-serif" font-size="13" lengthAdjust="spacing" textLength="7" x="1622.3547" y="458.7683">1</text></g><!--MD5=[d2d45e8b3a4d9e4a07207541b7c62d68]
link CourseTitle to Course--><g id="link_CourseTitle_Course"><path codeLine="70" d="M691,272.8206 C691,272.8206 691,362.6406 691,362.6406 C691,362.6406 598.35,362.6406 598.35,362.6406 " fill="none" id="CourseTitle-Course" style="stroke:#181818;stroke-width:1.0;"/><polygon fill="#181818" points="586.35,362.6406,592.35,366.6406,598.35,362.6406,592.35,358.6406,586.35,362.6406" style="stroke:#181818;stroke-width:1.0;"/><polygon fill="#181818" points="691,259.8206,687,268.8206,691,264.8206,695,268.8206,691,259.8206" style="stroke:#181818;stroke-width:1.0;"/><line style="stroke:#181818;stroke-width:1.0;" x1="691" x2="691" y1="264.8206" y2="272.8206"/><text fill="#000000" font-family="sans-serif" font-size="13" lengthAdjust="spacing" textLength="21" x="668.08" y="359.4092">has</text><text fill="#000000" font-family="sans-serif" font-size="13" lengthAdjust="spacing" textLength="7" x="683.2344" y="279.73">1</text><text fill="#000000" font-family="sans-serif" font-size="13" lengthAdjust="spacing" textLength="7" x="593.9827" y="357.3873">1</text></g><!--MD5=[1e0d200394426de6698d6f293ed79c4a]
link Id to Course--><g id="link_Id_Course"><path codeLine="71" d="M547,272.9706 C547,272.9706 547,330.3606 547,330.3606 " fill="none" id="Id-Course" style="stroke:#181818;stroke-width:1.0;"/><polygon fill="#181818" points="547,342.3606,551,336.3606,547,330.3606,543,336.3606,547,342.3606" style="stroke:#181818;stroke-width:1.0;"/><polygon fill="#181818" points="547,259.9706,543,268.9706,547,264.9706,551,268.9706,547,259.9706" style="stroke:#181818;stroke-width:1.0;"/><line style="stroke:#181818;stroke-width:1.0;" x1="547" x2="547" y1="264.9706" y2="272.9706"/><text fill="#000000" font-family="sans-serif" font-size="13" lengthAdjust="spacing" textLength="21" x="525" y="297.9292">has</text><text fill="#000000" font-family="sans-serif" font-size="13" lengthAdjust="spacing" textLength="7" x="539.2344" y="331.9819">1</text><text fill="#000000" font-family="sans-serif" font-size="13" lengthAdjust="spacing" textLength="7" x="539.2344" y="279.9128">1</text></g><!--MD5=[629d6269f0237dae7a30852633c03088]
link CourseState to Course--><g id="link_CourseState_Course"><path codeLine="72" d="M403,266.4206 C403,266.4206 403,357.6406 403,357.6406 C403,357.6406 495.65,357.6406 495.65,357.6406 " fill="none" id="CourseState-Course" style="stroke:#181818;stroke-width:1.0;"/><polygon fill="#181818" points="507.65,357.6406,501.65,353.6406,495.65,357.6406,501.65,361.6406,507.65,357.6406" style="stroke:#181818;stroke-width:1.0;"/><polygon fill="#181818" points="403,253.4206,399,262.4206,403,258.4206,407,262.4206,403,253.4206" style="stroke:#181818;stroke-width:1.0;"/><line style="stroke:#181818;stroke-width:1.0;" x1="403" x2="403" y1="258.4206" y2="266.4206"/><text fill="#000000" font-family="sans-serif" font-size="13" lengthAdjust="spacing" textLength="21" x="381.21" y="354.4092">has</text><text fill="#000000" font-family="sans-serif" font-size="13" lengthAdjust="spacing" textLength="7" x="395.1031" y="273.1376">1</text><text fill="#000000" font-family="sans-serif" font-size="13" lengthAdjust="spacing" textLength="7" x="493.0173" y="351.4967">1</text></g><!--MD5=[a7883546fd97c43adba3cbc269bc6729]
link Capacity to Course--><g id="link_Capacity_Course"><path codeLine="73" d="M259,266.2506 C259,266.2506 259,372.6406 259,372.6406 C259,372.6406 495.86,372.6406 495.86,372.6406 " fill="none" id="Capacity-Course" style="stroke:#181818;stroke-width:1.0;"/><polygon fill="#181818" points="507.86,372.6406,501.86,368.6406,495.86,372.6406,501.86,376.6406,507.86,372.6406" style="stroke:#181818;stroke-width:1.0;"/><polygon fill="#181818" points="259,253.2506,255,262.2506,259,258.2506,263,262.2506,259,253.2506" style="stroke:#181818;stroke-width:1.0;"/><line style="stroke:#181818;stroke-width:1.0;" x1="259" x2="259" y1="258.2506" y2="266.2506"/><text fill="#000000" font-family="sans-serif" font-size="13" lengthAdjust="spacing" textLength="21" x="301.74" y="369.4092">has</text><text fill="#000000" font-family="sans-serif" font-size="13" lengthAdjust="spacing" textLength="7" x="251.1031" y="272.9241">1</text><text fill="#000000" font-family="sans-serif" font-size="13" lengthAdjust="spacing" textLength="7" x="492.9983" y="369.125">1</text></g><!--MD5=[22f80963d37c896e0913ff7b6e29c1a1]
link EnrollementsState to Course--><g id="link_EnrollementsState_Course"><path codeLine="74" d="M96,266.2906 C96,266.2906 96,387.6406 96,387.6406 C96,387.6406 495.77,387.6406 495.77,387.6406 " fill="none" id="EnrollementsState-Course" style="stroke:#181818;stroke-width:1.0;"/><polygon fill="#181818" points="507.77,387.6406,501.77,383.6406,495.77,387.6406,501.77,391.6406,507.77,387.6406" style="stroke:#181818;stroke-width:1.0;"/><polygon fill="#181818" points="96,253.2906,92,262.2906,96,258.2906,100,262.2906,96,253.2906" style="stroke:#181818;stroke-width:1.0;"/><line style="stroke:#181818;stroke-width:1.0;" x1="96" x2="96" y1="258.2906" y2="266.2906"/><text fill="#000000" font-family="sans-serif" font-size="13" lengthAdjust="spacing" textLength="21" x="212.71" y="384.4092">has</text><text fill="#000000" font-family="sans-serif" font-size="13" lengthAdjust="spacing" textLength="7" x="88.1031" y="272.9743">1</text><text fill="#000000" font-family="sans-serif" font-size="13" lengthAdjust="spacing" textLength="7" x="492.8917" y="386.8907">1</text></g><!--MD5=[5b07f0580c574b70a160dd1554ed44f2]
link StudentRegistration to Course--><g id="link_StudentRegistration_Course"><path codeLine="75" d="M853.5,259.8706 C853.5,304.4606 853.5,382.6406 853.5,382.6406 C853.5,382.6406 591.13,382.6406 591.13,382.6406 " fill="none" id="StudentRegistration-to-Course" style="stroke:#181818;stroke-width:1.0;"/><polygon fill="#181818" points="586.13,382.6406,595.13,386.6406,591.13,382.6406,595.13,378.6406,586.13,382.6406" style="stroke:#181818;stroke-width:1.0;"/><text fill="#000000" font-family="sans-serif" font-size="13" lengthAdjust="spacing" textLength="21" x="761.7" y="379.4092">has</text><text fill="#000000" font-family="sans-serif" font-size="13" lengthAdjust="spacing" textLength="7" x="831.1875" y="279.7909">1</text><text fill="#000000" font-family="sans-serif" font-size="13" lengthAdjust="spacing" textLength="7" x="593.9899" y="380.9688">1</text></g><!--MD5=[6276a510343990cfac63dd37918d3e2d]
reverse link Course to TeacherRegistration--><g id="link_Course_TeacherRegistration"><path codeLine="76" d="M547,408.0006 C547,408.0006 547,439.6406 547,439.6406 C547,439.6406 1561.25,439.6406 1561.25,439.6406 C1561.25,439.6406 1561.25,420.7306 1561.25,403.0006 " fill="none" id="Course-backto-TeacherRegistration" style="stroke:#181818;stroke-width:1.0;"/><polygon fill="#181818" points="547,403.0006,543,412.0006,547,408.0006,551,412.0006,547,403.0006" style="stroke:#181818;stroke-width:1.0;"/><text fill="#000000" font-family="sans-serif" font-size="13" lengthAdjust="spacing" textLength="21" x="1034.62" y="436.4092">has</text><text fill="#000000" font-family="sans-serif" font-size="13" lengthAdjust="spacing" textLength="7" x="539.2344" y="422.9494">1</text><text fill="#000000" font-family="sans-serif" font-size="13" lengthAdjust="spacing" textLength="7" x="1538.4453" y="422.9494">1</text></g><!--MD5=[ed5d9f4622cfeb507f13ef62bed4f5f8]
@startuml

hide methods

skinparam packageStyle rectangle
skinparam linetype ortho

top to bottom direction

title Domain Driven Design

package "<<aggregate>> User" <<Folder>> #ffb380 {

   entity User <<root>> <<entity>>{
        String fullName
        String shortName
    }

    class Role <<(V,#B8255F) value object>> {}
    class Password <<(V,#B8255F) value object>> {}
    class Email <<Id>> <<unique>> <<(V,#B8255F) value object>>  {}
    entity Student <<entity>>{}
    entity Teacher <<entity>>{}
    entity Manager <<entity>>{}

    User "1" *- -> "1" Email : has
    User "1" *- -> "1" Password : has
    User "1" *- -> "1" Role : has
    Manager "1" - -> "*" User : creates
    Manager - -|> User
    Student - -|> User
    Teacher - -|> User
}




package "<<aggregate>> Student Registration" <<Folder>> #ddaaaa {
    entity StudentRegistration <<root>> <<entity>>{
        }
     class "Status" as RegiStatusStudent <<(V,#B8255F) value object>> <<unique>> {}

    StudentRegistration "1" <- - "1" User : enrolls
    User "1" - -> "1" StudentRegistration : manages
    StudentRegistration "1" *- -> "1" RegiStatusStudent : has

}

package "<<aggregate>> Teacher Registration" <<Folder>> #ddaaaa {
    entity TeacherRegistration <<root>> <<entity>>{
        }
     enum TeacherRole <<enum>> {
     ASSISTANT
     REGENT
     }

    User "1" - -> "*" TeacherRegistration : manages
    TeacherRegistration "1" - -> "1" TeacherRole : has

}

package "<<aggregate>> Course" <<Folder>> #aabbbb {
   entity Course <<root>> <<entity>>{
    }
    class "Title" as CourseTitle <<(V,#B8255F) value object>> <<unique>> {}
    class Id <<(V,#B8255F) value object>> <<Id>> {}
    class CourseState as "State" <<(V,#B8255F) value object>> {}
    class Capacity <<(V,#B8255F) value object>> {}
    class EnrollementsState <<(V,#B8255F) value object>> {}

    CourseTitle "1" <- -* "1" Course : has
    Id "1" <- -* "1" Course : has
    CourseState "1" <- -* "1" Course : has
    Capacity "1" <- -* "1" Course : has
    EnrollementsState "1" <- -* "1" Course : has
    StudentRegistration "1" - -> "1" Course : has
    TeacherRegistration "1" -l-> "1" Course : has
}


@enduml

PlantUML version 1.2022.12(Sun Oct 23 19:12:26 WEST 2022)
(GPL source distribution)
Java Runtime: OpenJDK Runtime Environment
JVM: OpenJDK 64-Bit Server VM
Default Encoding: Cp1252
Language: en
Country: GB
--></g></svg>