<?xml version="1.0" encoding="UTF-8" standalone="no"?><svg xmlns="http://www.w3.org/2000/svg" xmlns:xlink="http://www.w3.org/1999/xlink" contentStyleType="text/css" height="810px" preserveAspectRatio="none" style="width:1683px;height:810px;background:#FFFFFF;" version="1.1" viewBox="0 0 1683 810" width="1683px" zoomAndPan="magnify"><defs/><g><rect fill="none" height="25.6406" id="_title" style="stroke:none;stroke-width:1.0;" width="166" x="751.5" y="5"/><text fill="#000000" font-family="sans-serif" font-size="14" font-weight="bold" lengthAdjust="spacing" textLength="156" x="756.5" y="22.6738">Domain Driven Design</text><!--MD5=[597c9b6a35d8038d4b40fd8870ba90aa]
cluster <<aggregate>> User--><g id="cluster_&lt;&lt;aggregate&gt;&gt; User"><path d="M8.5,276.1406 L150.5,276.1406 A3.75,3.75 0 0 1 153,278.6406 L160,297.7813 L433.5,297.7813 A2.5,2.5 0 0 1 436,300.2813 L436,663.1406 A2.5,2.5 0 0 1 433.5,665.6406 L8.5,665.6406 A2.5,2.5 0 0 1 6,663.1406 L6,278.6406 A2.5,2.5 0 0 1 8.5,276.1406 " fill="#FFB380" style="stroke:#000000;stroke-width:1.5;"/><line style="stroke:#000000;stroke-width:1.5;" x1="6" x2="160" y1="297.7813" y2="297.7813"/><text fill="#000000" font-family="sans-serif" font-size="14" font-weight="bold" lengthAdjust="spacing" textLength="141" x="10" y="290.8145">&lt;&lt;aggregate&gt;&gt; User</text></g><!--MD5=[345d2926e9f5d576001f82e13aea4ac3]
cluster <<aggregate>> Profile--><g id="cluster_&lt;&lt;aggregate&gt;&gt; Profile"><path d="M462.5,42.6406 L617.5,42.6406 A3.75,3.75 0 0 1 620,45.1406 L627,64.2813 L1380.5,64.2813 A2.5,2.5 0 0 1 1383,66.7813 L1383,377.1406 A2.5,2.5 0 0 1 1380.5,379.6406 L462.5,379.6406 A2.5,2.5 0 0 1 460,377.1406 L460,45.1406 A2.5,2.5 0 0 1 462.5,42.6406 " fill="#99B3FF" style="stroke:#000000;stroke-width:1.5;"/><line style="stroke:#000000;stroke-width:1.5;" x1="460" x2="627" y1="64.2813" y2="64.2813"/><text fill="#000000" font-family="sans-serif" font-size="14" font-weight="bold" lengthAdjust="spacing" textLength="154" x="464" y="57.3145">&lt;&lt;aggregate&gt;&gt; Profile</text></g><!--MD5=[8d8f4990f25fae9bc47748f0bf424d50]
cluster <<aggregate>> Student Registration--><g id="cluster_&lt;&lt;aggregate&gt;&gt; Student Registration"><path d="M1409.5,269.6406 L1663.5,269.6406 A3.75,3.75 0 0 1 1666,272.1406 L1673,291.2813 L1673.5,291.2813 A2.5,2.5 0 0 1 1676,293.7813 L1676,513.1406 A2.5,2.5 0 0 1 1673.5,515.6406 L1409.5,515.6406 A2.5,2.5 0 0 1 1407,513.1406 L1407,272.1406 A2.5,2.5 0 0 1 1409.5,269.6406 " fill="#DDAAAA" style="stroke:#000000;stroke-width:1.5;"/><line style="stroke:#000000;stroke-width:1.5;" x1="1407" x2="1673" y1="291.2813" y2="291.2813"/><text fill="#000000" font-family="sans-serif" font-size="14" font-weight="bold" lengthAdjust="spacing" textLength="253" x="1411" y="284.3145">&lt;&lt;aggregate&gt;&gt; Student Registration</text></g><!--MD5=[37ad83970063a880b8fb3f5f52a3c821]
cluster <<aggregate>> Teacher Registration--><g id="cluster_&lt;&lt;aggregate&gt;&gt; Teacher Registration"><path d="M462.5,548.6406 L718.5,548.6406 A3.75,3.75 0 0 1 721,551.1406 L728,570.2813 L728.5,570.2813 A2.5,2.5 0 0 1 731,572.7813 L731,801.1406 A2.5,2.5 0 0 1 728.5,803.6406 L462.5,803.6406 A2.5,2.5 0 0 1 460,801.1406 L460,551.1406 A2.5,2.5 0 0 1 462.5,548.6406 " fill="#DDAAAA" style="stroke:#000000;stroke-width:1.5;"/><line style="stroke:#000000;stroke-width:1.5;" x1="460" x2="728" y1="570.2813" y2="570.2813"/><text fill="#000000" font-family="sans-serif" font-size="14" font-weight="bold" lengthAdjust="spacing" textLength="255" x="464" y="563.3145">&lt;&lt;aggregate&gt;&gt; Teacher Registration</text></g><!--MD5=[3fd616f346a44cd59a91eb10b19e157c]
class User--><g id="elem_User"><rect codeLine="13" fill="#F1F1F1" height="91.7344" id="User" rx="2.5" ry="2.5" style="stroke:#181818;stroke-width:0.5;" width="121" x="249.5" y="423.6406"/><ellipse cx="287" cy="449.8672" fill="#ADD1B2" rx="11" ry="11" style="stroke:#181818;stroke-width:1.0;"/><path d="M285.8594,450.6641 L285.8594,453.1641 L290.1875,453.1641 L290.1875,452.2422 Q290.1875,451.6328 290.4219,451.3672 Q290.6719,451.1016 291.0469,451.1016 Q291.4219,451.1016 291.6563,451.3672 Q291.8906,451.6328 291.8906,452.2422 L291.8906,454.8672 L283.8906,454.8672 Q283.2656,454.8672 283,454.6328 Q282.75,454.3984 282.75,454.0078 Q282.75,453.6328 283.0156,453.3984 Q283.2813,453.1641 283.8906,453.1641 L284.1563,453.1641 L284.1563,446.5078 L283.8906,446.5078 Q283.2656,446.5078 283,446.2734 Q282.75,446.0391 282.75,445.6484 Q282.75,445.2734 283,445.0391 Q283.2656,444.8047 283.8906,444.8047 L291.5156,444.8047 L291.5156,447.3984 Q291.5156,448.0078 291.2813,448.2734 Q291.0625,448.5234 290.6719,448.5234 Q290.2969,448.5234 290.0625,448.2734 Q289.8281,448.0078 289.8281,447.3984 L289.8281,446.5078 L285.8594,446.5078 L285.8594,448.9609 L287.3438,448.9609 Q287.3438,448.3047 287.4688,448.1172 Q287.7344,447.7109 288.2031,447.7109 Q288.5781,447.7109 288.8125,447.9766 Q289.0469,448.2266 289.0469,448.8359 L289.0469,450.8047 Q289.0469,451.3516 288.9219,451.5391 Q288.6563,451.9297 288.2031,451.9297 Q287.7344,451.9297 287.4688,451.5234 Q287.3438,451.3359 287.3438,450.6641 L285.8594,450.6641 Z " fill="#000000"/><text fill="#000000" font-family="sans-serif" font-size="12" font-style="italic" lengthAdjust="spacing" textLength="35" x="308" y="439.5039">«root»</text><text fill="#000000" font-family="sans-serif" font-size="12" font-style="italic" lengthAdjust="spacing" textLength="43" x="304" y="452.9102">«entity»</text><text fill="#000000" font-family="sans-serif" font-size="14" lengthAdjust="spacing" textLength="29" x="311" y="468.127">User</text><line style="stroke:#181818;stroke-width:0.5;" x1="250.5" x2="369.5" y1="476.0938" y2="476.0938"/><text fill="#000000" font-family="sans-serif" font-size="14" lengthAdjust="spacing" textLength="95" x="255.5" y="492.7676">String fullName</text><text fill="#000000" font-family="sans-serif" font-size="14" lengthAdjust="spacing" textLength="109" x="255.5" y="508.4082">String shortName</text></g><!--MD5=[a3638c1e5b65d287ecad7f06f5c0f212]
class Role--><g id="elem_Role"><rect codeLine="18" fill="#F1F1F1" height="47.0469" id="Role" rx="2.5" ry="2.5" style="stroke:#181818;stroke-width:0.5;" width="109" x="22.5" y="589.1406"/><ellipse cx="37.5" cy="608.6641" fill="#B8255F" rx="11" ry="11" style="stroke:#181818;stroke-width:1.0;"/><path d="M38.0938,611.9297 L40.5625,606.0547 L40.1719,606.0547 Q39.5625,606.0547 39.2969,605.8203 Q39.0313,605.5859 39.0313,605.1953 Q39.0313,604.8203 39.2969,604.5859 Q39.5625,604.3516 40.1719,604.3516 L42.4531,604.3516 Q43.0625,604.3516 43.3281,604.5859 Q43.5938,604.8203 43.5938,605.1953 Q43.5938,605.6641 43.1875,605.9297 Q43,606.0547 42.4063,606.0547 L38.9219,614.4141 L37.2813,614.4141 L33.7969,606.0547 Q33.2031,606.0547 33.0156,605.9297 Q32.6094,605.6641 32.6094,605.1953 Q32.6094,604.8203 32.875,604.5859 Q33.1406,604.3516 33.75,604.3516 L36.0469,604.3516 Q36.6563,604.3516 36.9063,604.5859 Q37.1719,604.8203 37.1719,605.1953 Q37.1719,605.5859 36.9063,605.8203 Q36.6563,606.0547 36.0469,606.0547 L35.6406,606.0547 L38.0938,611.9297 Z " fill="#000000"/><text fill="#000000" font-family="sans-serif" font-size="12" font-style="italic" lengthAdjust="spacing" textLength="81" x="49.5" y="605.0039">«value object»</text><text fill="#000000" font-family="sans-serif" font-size="14" lengthAdjust="spacing" textLength="29" x="75.5" y="620.2207">Role</text><line style="stroke:#181818;stroke-width:0.5;" x1="23.5" x2="130.5" y1="628.1875" y2="628.1875"/></g><!--MD5=[2f01b1126ff33a0669651ec2488a5ef9]
class Password--><g id="elem_Password"><rect codeLine="19" fill="#F1F1F1" height="47.0469" id="Password" rx="2.5" ry="2.5" style="stroke:#181818;stroke-width:0.5;" width="109" x="166.5" y="589.1406"/><ellipse cx="181.5" cy="608.6641" fill="#B8255F" rx="11" ry="11" style="stroke:#181818;stroke-width:1.0;"/><path d="M182.0938,611.9297 L184.5625,606.0547 L184.1719,606.0547 Q183.5625,606.0547 183.2969,605.8203 Q183.0313,605.5859 183.0313,605.1953 Q183.0313,604.8203 183.2969,604.5859 Q183.5625,604.3516 184.1719,604.3516 L186.4531,604.3516 Q187.0625,604.3516 187.3281,604.5859 Q187.5938,604.8203 187.5938,605.1953 Q187.5938,605.6641 187.1875,605.9297 Q187,606.0547 186.4063,606.0547 L182.9219,614.4141 L181.2813,614.4141 L177.7969,606.0547 Q177.2031,606.0547 177.0156,605.9297 Q176.6094,605.6641 176.6094,605.1953 Q176.6094,604.8203 176.875,604.5859 Q177.1406,604.3516 177.75,604.3516 L180.0469,604.3516 Q180.6563,604.3516 180.9063,604.5859 Q181.1719,604.8203 181.1719,605.1953 Q181.1719,605.5859 180.9063,605.8203 Q180.6563,606.0547 180.0469,606.0547 L179.6406,606.0547 L182.0938,611.9297 Z " fill="#000000"/><text fill="#000000" font-family="sans-serif" font-size="12" font-style="italic" lengthAdjust="spacing" textLength="81" x="193.5" y="605.0039">«value object»</text><text fill="#000000" font-family="sans-serif" font-size="14" lengthAdjust="spacing" textLength="61" x="203.5" y="620.2207">Password</text><line style="stroke:#181818;stroke-width:0.5;" x1="167.5" x2="274.5" y1="628.1875" y2="628.1875"/></g><!--MD5=[78bec0fde86ad92ec1dc3fb343b83709]
class Email--><g id="elem_Email"><rect codeLine="20" fill="#F1F1F1" height="73.8594" id="Email" rx="2.5" ry="2.5" style="stroke:#181818;stroke-width:0.5;" width="109" x="310.5" y="575.6406"/><ellipse cx="325.5" cy="608.5703" fill="#B8255F" rx="11" ry="11" style="stroke:#181818;stroke-width:1.0;"/><path d="M326.0938,611.8359 L328.5625,605.9609 L328.1719,605.9609 Q327.5625,605.9609 327.2969,605.7266 Q327.0313,605.4922 327.0313,605.1016 Q327.0313,604.7266 327.2969,604.4922 Q327.5625,604.2578 328.1719,604.2578 L330.4531,604.2578 Q331.0625,604.2578 331.3281,604.4922 Q331.5938,604.7266 331.5938,605.1016 Q331.5938,605.5703 331.1875,605.8359 Q331,605.9609 330.4063,605.9609 L326.9219,614.3203 L325.2813,614.3203 L321.7969,605.9609 Q321.2031,605.9609 321.0156,605.8359 Q320.6094,605.5703 320.6094,605.1016 Q320.6094,604.7266 320.875,604.4922 Q321.1406,604.2578 321.75,604.2578 L324.0469,604.2578 Q324.6563,604.2578 324.9063,604.4922 Q325.1719,604.7266 325.1719,605.1016 Q325.1719,605.4922 324.9063,605.7266 Q324.6563,605.9609 324.0469,605.9609 L323.6406,605.9609 L326.0938,611.8359 Z " fill="#000000"/><text fill="#000000" font-family="sans-serif" font-size="12" font-style="italic" lengthAdjust="spacing" textLength="25" x="365.5" y="591.5039">«Id»</text><text fill="#000000" font-family="sans-serif" font-size="12" font-style="italic" lengthAdjust="spacing" textLength="52" x="352" y="604.9102">«unique»</text><text fill="#000000" font-family="sans-serif" font-size="12" font-style="italic" lengthAdjust="spacing" textLength="81" x="337.5" y="618.3164">«value object»</text><text fill="#000000" font-family="sans-serif" font-size="14" lengthAdjust="spacing" textLength="34" x="361" y="633.5332">Email</text><line style="stroke:#181818;stroke-width:0.5;" x1="311.5" x2="418.5" y1="641.5" y2="641.5"/></g><!--MD5=[d6181cb537bdc20c0a3007a98a56832d]
class Student--><g id="elem_Student"><rect codeLine="21" fill="#F1F1F1" height="47.0469" id="Student" rx="2.5" ry="2.5" style="stroke:#181818;stroke-width:0.5;" width="81" x="338.5" y="310.1406"/><ellipse cx="353.5" cy="329.6641" fill="#ADD1B2" rx="11" ry="11" style="stroke:#181818;stroke-width:1.0;"/><path d="M352.3594,330.4609 L352.3594,332.9609 L356.6875,332.9609 L356.6875,332.0391 Q356.6875,331.4297 356.9219,331.1641 Q357.1719,330.8984 357.5469,330.8984 Q357.9219,330.8984 358.1563,331.1641 Q358.3906,331.4297 358.3906,332.0391 L358.3906,334.6641 L350.3906,334.6641 Q349.7656,334.6641 349.5,334.4297 Q349.25,334.1953 349.25,333.8047 Q349.25,333.4297 349.5156,333.1953 Q349.7813,332.9609 350.3906,332.9609 L350.6563,332.9609 L350.6563,326.3047 L350.3906,326.3047 Q349.7656,326.3047 349.5,326.0703 Q349.25,325.8359 349.25,325.4453 Q349.25,325.0703 349.5,324.8359 Q349.7656,324.6016 350.3906,324.6016 L358.0156,324.6016 L358.0156,327.1953 Q358.0156,327.8047 357.7813,328.0703 Q357.5625,328.3203 357.1719,328.3203 Q356.7969,328.3203 356.5625,328.0703 Q356.3281,327.8047 356.3281,327.1953 L356.3281,326.3047 L352.3594,326.3047 L352.3594,328.7578 L353.8438,328.7578 Q353.8438,328.1016 353.9688,327.9141 Q354.2344,327.5078 354.7031,327.5078 Q355.0781,327.5078 355.3125,327.7734 Q355.5469,328.0234 355.5469,328.6328 L355.5469,330.6016 Q355.5469,331.1484 355.4219,331.3359 Q355.1563,331.7266 354.7031,331.7266 Q354.2344,331.7266 353.9688,331.3203 Q353.8438,331.1328 353.8438,330.4609 L352.3594,330.4609 Z " fill="#000000"/><text fill="#000000" font-family="sans-serif" font-size="12" font-style="italic" lengthAdjust="spacing" textLength="43" x="370.5" y="326.0039">«entity»</text><text fill="#000000" font-family="sans-serif" font-size="14" lengthAdjust="spacing" textLength="49" x="367.5" y="341.2207">Student</text><line style="stroke:#181818;stroke-width:0.5;" x1="339.5" x2="418.5" y1="349.1875" y2="349.1875"/></g><!--MD5=[61a83f88cb8b7d3a80bc8c481f3736bf]
class Teacher--><g id="elem_Teacher"><rect codeLine="22" fill="#F1F1F1" height="47.0469" id="Teacher" rx="2.5" ry="2.5" style="stroke:#181818;stroke-width:0.5;" width="85" x="218.5" y="310.1406"/><ellipse cx="233.5" cy="329.6641" fill="#ADD1B2" rx="11" ry="11" style="stroke:#181818;stroke-width:1.0;"/><path d="M232.3594,330.4609 L232.3594,332.9609 L236.6875,332.9609 L236.6875,332.0391 Q236.6875,331.4297 236.9219,331.1641 Q237.1719,330.8984 237.5469,330.8984 Q237.9219,330.8984 238.1563,331.1641 Q238.3906,331.4297 238.3906,332.0391 L238.3906,334.6641 L230.3906,334.6641 Q229.7656,334.6641 229.5,334.4297 Q229.25,334.1953 229.25,333.8047 Q229.25,333.4297 229.5156,333.1953 Q229.7813,332.9609 230.3906,332.9609 L230.6563,332.9609 L230.6563,326.3047 L230.3906,326.3047 Q229.7656,326.3047 229.5,326.0703 Q229.25,325.8359 229.25,325.4453 Q229.25,325.0703 229.5,324.8359 Q229.7656,324.6016 230.3906,324.6016 L238.0156,324.6016 L238.0156,327.1953 Q238.0156,327.8047 237.7813,328.0703 Q237.5625,328.3203 237.1719,328.3203 Q236.7969,328.3203 236.5625,328.0703 Q236.3281,327.8047 236.3281,327.1953 L236.3281,326.3047 L232.3594,326.3047 L232.3594,328.7578 L233.8438,328.7578 Q233.8438,328.1016 233.9688,327.9141 Q234.2344,327.5078 234.7031,327.5078 Q235.0781,327.5078 235.3125,327.7734 Q235.5469,328.0234 235.5469,328.6328 L235.5469,330.6016 Q235.5469,331.1484 235.4219,331.3359 Q235.1563,331.7266 234.7031,331.7266 Q234.2344,331.7266 233.9688,331.3203 Q233.8438,331.1328 233.8438,330.4609 L232.3594,330.4609 Z " fill="#000000"/><text fill="#000000" font-family="sans-serif" font-size="12" font-style="italic" lengthAdjust="spacing" textLength="43" x="252.5" y="326.0039">«entity»</text><text fill="#000000" font-family="sans-serif" font-size="14" lengthAdjust="spacing" textLength="53" x="247.5" y="341.2207">Teacher</text><line style="stroke:#181818;stroke-width:0.5;" x1="219.5" x2="302.5" y1="349.1875" y2="349.1875"/></g><!--MD5=[b24ed8d4ae84bae9290d9aab401637c7]
class Manager--><g id="elem_Manager"><rect codeLine="23" fill="#F1F1F1" height="47.0469" id="Manager" rx="2.5" ry="2.5" style="stroke:#181818;stroke-width:0.5;" width="88" x="95" y="310.1406"/><ellipse cx="110" cy="329.6641" fill="#ADD1B2" rx="11" ry="11" style="stroke:#181818;stroke-width:1.0;"/><path d="M108.8594,330.4609 L108.8594,332.9609 L113.1875,332.9609 L113.1875,332.0391 Q113.1875,331.4297 113.4219,331.1641 Q113.6719,330.8984 114.0469,330.8984 Q114.4219,330.8984 114.6563,331.1641 Q114.8906,331.4297 114.8906,332.0391 L114.8906,334.6641 L106.8906,334.6641 Q106.2656,334.6641 106,334.4297 Q105.75,334.1953 105.75,333.8047 Q105.75,333.4297 106.0156,333.1953 Q106.2813,332.9609 106.8906,332.9609 L107.1563,332.9609 L107.1563,326.3047 L106.8906,326.3047 Q106.2656,326.3047 106,326.0703 Q105.75,325.8359 105.75,325.4453 Q105.75,325.0703 106,324.8359 Q106.2656,324.6016 106.8906,324.6016 L114.5156,324.6016 L114.5156,327.1953 Q114.5156,327.8047 114.2813,328.0703 Q114.0625,328.3203 113.6719,328.3203 Q113.2969,328.3203 113.0625,328.0703 Q112.8281,327.8047 112.8281,327.1953 L112.8281,326.3047 L108.8594,326.3047 L108.8594,328.7578 L110.3438,328.7578 Q110.3438,328.1016 110.4688,327.9141 Q110.7344,327.5078 111.2031,327.5078 Q111.5781,327.5078 111.8125,327.7734 Q112.0469,328.0234 112.0469,328.6328 L112.0469,330.6016 Q112.0469,331.1484 111.9219,331.3359 Q111.6563,331.7266 111.2031,331.7266 Q110.7344,331.7266 110.4688,331.3203 Q110.3438,331.1328 110.3438,330.4609 L108.8594,330.4609 Z " fill="#000000"/><text fill="#000000" font-family="sans-serif" font-size="12" font-style="italic" lengthAdjust="spacing" textLength="43" x="130.5" y="326.0039">«entity»</text><text fill="#000000" font-family="sans-serif" font-size="14" lengthAdjust="spacing" textLength="56" x="124" y="341.2207">Manager</text><line style="stroke:#181818;stroke-width:0.5;" x1="96" x2="182" y1="349.1875" y2="349.1875"/></g><!--MD5=[7b57f7066b803747d2119f99dd1555d4]
class Profile--><g id="elem_Profile"><rect codeLine="35" fill="#F1F1F1" height="60.4531" id="Profile" rx="2.5" ry="2.5" style="stroke:#181818;stroke-width:0.5;" width="72" x="787" y="303.6406"/><ellipse cx="802" cy="329.8672" fill="#ADD1B2" rx="11" ry="11" style="stroke:#181818;stroke-width:1.0;"/><path d="M800.8594,330.6641 L800.8594,333.1641 L805.1875,333.1641 L805.1875,332.2422 Q805.1875,331.6328 805.4219,331.3672 Q805.6719,331.1016 806.0469,331.1016 Q806.4219,331.1016 806.6563,331.3672 Q806.8906,331.6328 806.8906,332.2422 L806.8906,334.8672 L798.8906,334.8672 Q798.2656,334.8672 798,334.6328 Q797.75,334.3984 797.75,334.0078 Q797.75,333.6328 798.0156,333.3984 Q798.2813,333.1641 798.8906,333.1641 L799.1563,333.1641 L799.1563,326.5078 L798.8906,326.5078 Q798.2656,326.5078 798,326.2734 Q797.75,326.0391 797.75,325.6484 Q797.75,325.2734 798,325.0391 Q798.2656,324.8047 798.8906,324.8047 L806.5156,324.8047 L806.5156,327.3984 Q806.5156,328.0078 806.2813,328.2734 Q806.0625,328.5234 805.6719,328.5234 Q805.2969,328.5234 805.0625,328.2734 Q804.8281,328.0078 804.8281,327.3984 L804.8281,326.5078 L800.8594,326.5078 L800.8594,328.9609 L802.3438,328.9609 Q802.3438,328.3047 802.4688,328.1172 Q802.7344,327.7109 803.2031,327.7109 Q803.5781,327.7109 803.8125,327.9766 Q804.0469,328.2266 804.0469,328.8359 L804.0469,330.8047 Q804.0469,331.3516 803.9219,331.5391 Q803.6563,331.9297 803.2031,331.9297 Q802.7344,331.9297 802.4688,331.5234 Q802.3438,331.3359 802.3438,330.6641 L800.8594,330.6641 Z " fill="#000000"/><text fill="#000000" font-family="sans-serif" font-size="12" font-style="italic" lengthAdjust="spacing" textLength="35" x="818.5" y="319.5039">«root»</text><text fill="#000000" font-family="sans-serif" font-size="12" font-style="italic" lengthAdjust="spacing" textLength="43" x="814.5" y="332.9102">«entity»</text><text fill="#000000" font-family="sans-serif" font-size="14" lengthAdjust="spacing" textLength="40" x="816" y="348.127">Profile</text><line style="stroke:#181818;stroke-width:0.5;" x1="788" x2="858" y1="356.0938" y2="356.0938"/></g><!--MD5=[e8e4e5930fae63cd70e278d3ab742cd3]
class TeacherProfile--><g id="elem_TeacherProfile"><rect codeLine="37" fill="#F1F1F1" height="47.0469" id="TeacherProfile" rx="2.5" ry="2.5" style="stroke:#181818;stroke-width:0.5;" width="125" x="602.5" y="190.1406"/><ellipse cx="617.5" cy="209.6641" fill="#ADD1B2" rx="11" ry="11" style="stroke:#181818;stroke-width:1.0;"/><path d="M620.2656,205.5391 Q620.4219,205.3203 620.6094,205.2109 Q620.7969,205.1016 621.0156,205.1016 Q621.3906,205.1016 621.625,205.3672 Q621.8594,205.6172 621.8594,206.2266 L621.8594,207.6797 Q621.8594,208.2891 621.625,208.5547 Q621.3906,208.8203 621.0156,208.8203 Q620.6719,208.8203 620.4688,208.6172 Q620.2656,208.4297 620.1563,207.9141 Q620.1094,207.5547 619.9219,207.3672 Q619.5938,206.9922 618.9844,206.7734 Q618.375,206.5547 617.75,206.5547 Q616.9844,206.5547 616.3438,206.8828 Q615.7188,207.2109 615.2188,207.9609 Q614.7344,208.7109 614.7344,209.7422 L614.7344,210.8359 Q614.7344,212.0703 615.625,212.8984 Q616.5156,213.7109 618.1094,213.7109 Q619.0469,213.7109 619.7031,213.4609 Q620.0938,213.3047 620.5156,212.8672 Q620.7813,212.6016 620.9219,212.5234 Q621.0781,212.4453 621.2813,212.4453 Q621.6094,212.4453 621.8594,212.7109 Q622.125,212.9609 622.125,213.3047 Q622.125,213.6484 621.7813,214.0547 Q621.2813,214.6328 620.4844,214.9609 Q619.4063,215.4141 618.1094,215.4141 Q616.5938,215.4141 615.3906,214.7891 Q614.4063,214.2891 613.7188,213.2266 Q613.0313,212.1484 613.0313,210.8672 L613.0313,209.7109 Q613.0313,208.3828 613.6406,207.2422 Q614.2656,206.0859 615.3594,205.4766 Q616.4531,204.8516 617.6875,204.8516 Q618.4219,204.8516 619.0625,205.0234 Q619.7188,205.1797 620.2656,205.5391 Z " fill="#000000"/><text fill="#000000" font-family="sans-serif" font-size="12" font-style="italic" lengthAdjust="spacing" textLength="43" x="656.5" y="206.0039">«entity»</text><text fill="#000000" font-family="sans-serif" font-size="14" lengthAdjust="spacing" textLength="93" x="631.5" y="221.2207">TeacherProfile</text><line style="stroke:#181818;stroke-width:0.5;" x1="603.5" x2="726.5" y1="229.1875" y2="229.1875"/></g><!--MD5=[21a6163d0bed51676eae0f856b5f6ecb]
class StudentProfile--><g id="elem_StudentProfile"><rect codeLine="38" fill="#F1F1F1" height="47.0469" id="StudentProfile" rx="2.5" ry="2.5" style="stroke:#181818;stroke-width:0.5;" width="121" x="762.5" y="190.1406"/><ellipse cx="777.5" cy="209.6641" fill="#ADD1B2" rx="11" ry="11" style="stroke:#181818;stroke-width:1.0;"/><path d="M780.2656,205.5391 Q780.4219,205.3203 780.6094,205.2109 Q780.7969,205.1016 781.0156,205.1016 Q781.3906,205.1016 781.625,205.3672 Q781.8594,205.6172 781.8594,206.2266 L781.8594,207.6797 Q781.8594,208.2891 781.625,208.5547 Q781.3906,208.8203 781.0156,208.8203 Q780.6719,208.8203 780.4688,208.6172 Q780.2656,208.4297 780.1563,207.9141 Q780.1094,207.5547 779.9219,207.3672 Q779.5938,206.9922 778.9844,206.7734 Q778.375,206.5547 777.75,206.5547 Q776.9844,206.5547 776.3438,206.8828 Q775.7188,207.2109 775.2188,207.9609 Q774.7344,208.7109 774.7344,209.7422 L774.7344,210.8359 Q774.7344,212.0703 775.625,212.8984 Q776.5156,213.7109 778.1094,213.7109 Q779.0469,213.7109 779.7031,213.4609 Q780.0938,213.3047 780.5156,212.8672 Q780.7813,212.6016 780.9219,212.5234 Q781.0781,212.4453 781.2813,212.4453 Q781.6094,212.4453 781.8594,212.7109 Q782.125,212.9609 782.125,213.3047 Q782.125,213.6484 781.7813,214.0547 Q781.2813,214.6328 780.4844,214.9609 Q779.4063,215.4141 778.1094,215.4141 Q776.5938,215.4141 775.3906,214.7891 Q774.4063,214.2891 773.7188,213.2266 Q773.0313,212.1484 773.0313,210.8672 L773.0313,209.7109 Q773.0313,208.3828 773.6406,207.2422 Q774.2656,206.0859 775.3594,205.4766 Q776.4531,204.8516 777.6875,204.8516 Q778.4219,204.8516 779.0625,205.0234 Q779.7188,205.1797 780.2656,205.5391 Z " fill="#000000"/><text fill="#000000" font-family="sans-serif" font-size="12" font-style="italic" lengthAdjust="spacing" textLength="43" x="814.5" y="206.0039">«entity»</text><text fill="#000000" font-family="sans-serif" font-size="14" lengthAdjust="spacing" textLength="89" x="791.5" y="221.2207">StudentProfile</text><line style="stroke:#181818;stroke-width:0.5;" x1="763.5" x2="882.5" y1="229.1875" y2="229.1875"/></g><!--MD5=[684494e934d4ef2a2d5a02e84740ac0e]
class ManagerProfile--><g id="elem_ManagerProfile"><rect codeLine="39" fill="#F1F1F1" height="60.4531" id="ManagerProfile" rx="2.5" ry="2.5" style="stroke:#181818;stroke-width:0.5;" width="128" x="1239" y="183.6406"/><ellipse cx="1254" cy="209.8672" fill="#ADD1B2" rx="11" ry="11" style="stroke:#181818;stroke-width:1.0;"/><path d="M1256.7656,205.7422 Q1256.9219,205.5234 1257.1094,205.4141 Q1257.2969,205.3047 1257.5156,205.3047 Q1257.8906,205.3047 1258.125,205.5703 Q1258.3594,205.8203 1258.3594,206.4297 L1258.3594,207.8828 Q1258.3594,208.4922 1258.125,208.7578 Q1257.8906,209.0234 1257.5156,209.0234 Q1257.1719,209.0234 1256.9688,208.8203 Q1256.7656,208.6328 1256.6563,208.1172 Q1256.6094,207.7578 1256.4219,207.5703 Q1256.0938,207.1953 1255.4844,206.9766 Q1254.875,206.7578 1254.25,206.7578 Q1253.4844,206.7578 1252.8438,207.0859 Q1252.2188,207.4141 1251.7188,208.1641 Q1251.2344,208.9141 1251.2344,209.9453 L1251.2344,211.0391 Q1251.2344,212.2734 1252.125,213.1016 Q1253.0156,213.9141 1254.6094,213.9141 Q1255.5469,213.9141 1256.2031,213.6641 Q1256.5938,213.5078 1257.0156,213.0703 Q1257.2813,212.8047 1257.4219,212.7266 Q1257.5781,212.6484 1257.7813,212.6484 Q1258.1094,212.6484 1258.3594,212.9141 Q1258.625,213.1641 1258.625,213.5078 Q1258.625,213.8516 1258.2813,214.2578 Q1257.7813,214.8359 1256.9844,215.1641 Q1255.9063,215.6172 1254.6094,215.6172 Q1253.0938,215.6172 1251.8906,214.9922 Q1250.9063,214.4922 1250.2188,213.4297 Q1249.5313,212.3516 1249.5313,211.0703 L1249.5313,209.9141 Q1249.5313,208.5859 1250.1406,207.4453 Q1250.7656,206.2891 1251.8594,205.6797 Q1252.9531,205.0547 1254.1875,205.0547 Q1254.9219,205.0547 1255.5625,205.2266 Q1256.2188,205.3828 1256.7656,205.7422 Z " fill="#000000"/><text fill="#000000" font-family="sans-serif" font-size="12" font-style="italic" lengthAdjust="spacing" textLength="43" x="1294.5" y="199.5039">«entity»</text><text fill="#000000" font-family="sans-serif" font-size="12" font-style="italic" lengthAdjust="spacing" textLength="72" x="1280" y="212.9102">«NullObject»</text><text fill="#000000" font-family="sans-serif" font-size="14" lengthAdjust="spacing" textLength="96" x="1268" y="228.127">ManagerProfile</text><line style="stroke:#181818;stroke-width:0.5;" x1="1240" x2="1366" y1="236.0938" y2="236.0938"/></g><!--MD5=[d92d9e883939eee4186895798e1fdba2]
class TaxPayerNumber--><g id="elem_TaxPayerNumber"><rect codeLine="40" fill="#F1F1F1" height="47.0469" id="TaxPayerNumber" rx="2.5" ry="2.5" style="stroke:#181818;stroke-width:0.5;" width="141" x="1062.5" y="190.1406"/><ellipse cx="1077.5" cy="209.6641" fill="#B8255F" rx="11" ry="11" style="stroke:#181818;stroke-width:1.0;"/><path d="M1078.0938,212.9297 L1080.5625,207.0547 L1080.1719,207.0547 Q1079.5625,207.0547 1079.2969,206.8203 Q1079.0313,206.5859 1079.0313,206.1953 Q1079.0313,205.8203 1079.2969,205.5859 Q1079.5625,205.3516 1080.1719,205.3516 L1082.4531,205.3516 Q1083.0625,205.3516 1083.3281,205.5859 Q1083.5938,205.8203 1083.5938,206.1953 Q1083.5938,206.6641 1083.1875,206.9297 Q1083,207.0547 1082.4063,207.0547 L1078.9219,215.4141 L1077.2813,215.4141 L1073.7969,207.0547 Q1073.2031,207.0547 1073.0156,206.9297 Q1072.6094,206.6641 1072.6094,206.1953 Q1072.6094,205.8203 1072.875,205.5859 Q1073.1406,205.3516 1073.75,205.3516 L1076.0469,205.3516 Q1076.6563,205.3516 1076.9063,205.5859 Q1077.1719,205.8203 1077.1719,206.1953 Q1077.1719,206.5859 1076.9063,206.8203 Q1076.6563,207.0547 1076.0469,207.0547 L1075.6406,207.0547 L1078.0938,212.9297 Z " fill="#000000"/><text fill="#000000" font-family="sans-serif" font-size="12" font-style="italic" lengthAdjust="spacing" textLength="81" x="1105.5" y="206.0039">«value object»</text><text fill="#000000" font-family="sans-serif" font-size="14" lengthAdjust="spacing" textLength="109" x="1091.5" y="221.2207">TaxPayerNumber</text><line style="stroke:#181818;stroke-width:0.5;" x1="1063.5" x2="1202.5" y1="229.1875" y2="229.1875"/></g><!--MD5=[3adb951617f02218a93676affdecd4f3]
class DateOfBirth--><g id="elem_DateOfBirth"><rect codeLine="41" fill="#F1F1F1" height="47.0469" id="DateOfBirth" rx="2.5" ry="2.5" style="stroke:#181818;stroke-width:0.5;" width="109" x="918.5" y="190.1406"/><ellipse cx="933.5" cy="209.6641" fill="#B8255F" rx="11" ry="11" style="stroke:#181818;stroke-width:1.0;"/><path d="M934.0938,212.9297 L936.5625,207.0547 L936.1719,207.0547 Q935.5625,207.0547 935.2969,206.8203 Q935.0313,206.5859 935.0313,206.1953 Q935.0313,205.8203 935.2969,205.5859 Q935.5625,205.3516 936.1719,205.3516 L938.4531,205.3516 Q939.0625,205.3516 939.3281,205.5859 Q939.5938,205.8203 939.5938,206.1953 Q939.5938,206.6641 939.1875,206.9297 Q939,207.0547 938.4063,207.0547 L934.9219,215.4141 L933.2813,215.4141 L929.7969,207.0547 Q929.2031,207.0547 929.0156,206.9297 Q928.6094,206.6641 928.6094,206.1953 Q928.6094,205.8203 928.875,205.5859 Q929.1406,205.3516 929.75,205.3516 L932.0469,205.3516 Q932.6563,205.3516 932.9063,205.5859 Q933.1719,205.8203 933.1719,206.1953 Q933.1719,206.5859 932.9063,206.8203 Q932.6563,207.0547 932.0469,207.0547 L931.6406,207.0547 L934.0938,212.9297 Z " fill="#000000"/><text fill="#000000" font-family="sans-serif" font-size="12" font-style="italic" lengthAdjust="spacing" textLength="81" x="945.5" y="206.0039">«value object»</text><text fill="#000000" font-family="sans-serif" font-size="14" lengthAdjust="spacing" textLength="74" x="949" y="221.2207">DateOfBirth</text><line style="stroke:#181818;stroke-width:0.5;" x1="919.5" x2="1026.5" y1="229.1875" y2="229.1875"/></g><!--MD5=[9de4f19eab90a199848c5893311179be]
class MechanographicNumber--><g id="elem_MechanographicNumber"><rect codeLine="42" fill="#F1F1F1" height="47.0469" id="MechanographicNumber" rx="2.5" ry="2.5" style="stroke:#181818;stroke-width:0.5;" width="186" x="765" y="76.6406"/><ellipse cx="780" cy="96.1641" fill="#B8255F" rx="11" ry="11" style="stroke:#181818;stroke-width:1.0;"/><path d="M780.5938,99.4297 L783.0625,93.5547 L782.6719,93.5547 Q782.0625,93.5547 781.7969,93.3203 Q781.5313,93.0859 781.5313,92.6953 Q781.5313,92.3203 781.7969,92.0859 Q782.0625,91.8516 782.6719,91.8516 L784.9531,91.8516 Q785.5625,91.8516 785.8281,92.0859 Q786.0938,92.3203 786.0938,92.6953 Q786.0938,93.1641 785.6875,93.4297 Q785.5,93.5547 784.9063,93.5547 L781.4219,101.9141 L779.7813,101.9141 L776.2969,93.5547 Q775.7031,93.5547 775.5156,93.4297 Q775.1094,93.1641 775.1094,92.6953 Q775.1094,92.3203 775.375,92.0859 Q775.6406,91.8516 776.25,91.8516 L778.5469,91.8516 Q779.1563,91.8516 779.4063,92.0859 Q779.6719,92.3203 779.6719,92.6953 Q779.6719,93.0859 779.4063,93.3203 Q779.1563,93.5547 778.5469,93.5547 L778.1406,93.5547 L780.5938,99.4297 Z " fill="#000000"/><text fill="#000000" font-family="sans-serif" font-size="12" font-style="italic" lengthAdjust="spacing" textLength="81" x="830.5" y="92.5039">«value object»</text><text fill="#000000" font-family="sans-serif" font-size="14" lengthAdjust="spacing" textLength="154" x="794" y="107.7207">MechanographicNumber</text><line style="stroke:#181818;stroke-width:0.5;" x1="766" x2="950" y1="115.6875" y2="115.6875"/></g><!--MD5=[739264bb8c13fd453fd6fc4eef2b32cc]
class Acronym--><g id="elem_Acronym"><rect codeLine="43" fill="#F1F1F1" height="47.0469" id="Acronym" rx="2.5" ry="2.5" style="stroke:#181818;stroke-width:0.5;" width="109" x="620.5" y="76.6406"/><ellipse cx="635.5" cy="96.1641" fill="#B8255F" rx="11" ry="11" style="stroke:#181818;stroke-width:1.0;"/><path d="M636.0938,99.4297 L638.5625,93.5547 L638.1719,93.5547 Q637.5625,93.5547 637.2969,93.3203 Q637.0313,93.0859 637.0313,92.6953 Q637.0313,92.3203 637.2969,92.0859 Q637.5625,91.8516 638.1719,91.8516 L640.4531,91.8516 Q641.0625,91.8516 641.3281,92.0859 Q641.5938,92.3203 641.5938,92.6953 Q641.5938,93.1641 641.1875,93.4297 Q641,93.5547 640.4063,93.5547 L636.9219,101.9141 L635.2813,101.9141 L631.7969,93.5547 Q631.2031,93.5547 631.0156,93.4297 Q630.6094,93.1641 630.6094,92.6953 Q630.6094,92.3203 630.875,92.0859 Q631.1406,91.8516 631.75,91.8516 L634.0469,91.8516 Q634.6563,91.8516 634.9063,92.0859 Q635.1719,92.3203 635.1719,92.6953 Q635.1719,93.0859 634.9063,93.3203 Q634.6563,93.5547 634.0469,93.5547 L633.6406,93.5547 L636.0938,99.4297 Z " fill="#000000"/><text fill="#000000" font-family="sans-serif" font-size="12" font-style="italic" lengthAdjust="spacing" textLength="81" x="647.5" y="92.5039">«value object»</text><text fill="#000000" font-family="sans-serif" font-size="14" lengthAdjust="spacing" textLength="55" x="660.5" y="107.7207">Acronym</text><line style="stroke:#181818;stroke-width:0.5;" x1="621.5" x2="728.5" y1="115.6875" y2="115.6875"/></g><!--MD5=[c680266cf9e454ca06c2d1bb8b683e6b]
class Schedule--><g id="elem_Schedule"><rect codeLine="44" fill="#F1F1F1" height="47.0469" id="Schedule" rx="2.5" ry="2.5" style="stroke:#181818;stroke-width:0.5;" width="91" x="476.5" y="190.1406"/><ellipse cx="491.5" cy="209.6641" fill="#ADD1B2" rx="11" ry="11" style="stroke:#181818;stroke-width:1.0;"/><path d="M494.2656,205.5391 Q494.4219,205.3203 494.6094,205.2109 Q494.7969,205.1016 495.0156,205.1016 Q495.3906,205.1016 495.625,205.3672 Q495.8594,205.6172 495.8594,206.2266 L495.8594,207.6797 Q495.8594,208.2891 495.625,208.5547 Q495.3906,208.8203 495.0156,208.8203 Q494.6719,208.8203 494.4688,208.6172 Q494.2656,208.4297 494.1563,207.9141 Q494.1094,207.5547 493.9219,207.3672 Q493.5938,206.9922 492.9844,206.7734 Q492.375,206.5547 491.75,206.5547 Q490.9844,206.5547 490.3438,206.8828 Q489.7188,207.2109 489.2188,207.9609 Q488.7344,208.7109 488.7344,209.7422 L488.7344,210.8359 Q488.7344,212.0703 489.625,212.8984 Q490.5156,213.7109 492.1094,213.7109 Q493.0469,213.7109 493.7031,213.4609 Q494.0938,213.3047 494.5156,212.8672 Q494.7813,212.6016 494.9219,212.5234 Q495.0781,212.4453 495.2813,212.4453 Q495.6094,212.4453 495.8594,212.7109 Q496.125,212.9609 496.125,213.3047 Q496.125,213.6484 495.7813,214.0547 Q495.2813,214.6328 494.4844,214.9609 Q493.4063,215.4141 492.1094,215.4141 Q490.5938,215.4141 489.3906,214.7891 Q488.4063,214.2891 487.7188,213.2266 Q487.0313,212.1484 487.0313,210.8672 L487.0313,209.7109 Q487.0313,208.3828 487.6406,207.2422 Q488.2656,206.0859 489.3594,205.4766 Q490.4531,204.8516 491.6875,204.8516 Q492.4219,204.8516 493.0625,205.0234 Q493.7188,205.1797 494.2656,205.5391 Z " fill="#000000"/><text fill="#000000" font-family="sans-serif" font-size="12" font-style="italic" lengthAdjust="spacing" textLength="43" x="513.5" y="206.0039">«entity»</text><text fill="#000000" font-family="sans-serif" font-size="14" lengthAdjust="spacing" textLength="59" x="505.5" y="221.2207">Schedule</text><line style="stroke:#181818;stroke-width:0.5;" x1="477.5" x2="566.5" y1="229.1875" y2="229.1875"/></g><!--MD5=[abe91ce615374b501721fa99f1a2b204]
class ProfileDay--><g id="elem_ProfileDay"><rect codeLine="45" fill="#F1F1F1" height="47.0469" id="ProfileDay" rx="2.5" ry="2.5" style="stroke:#181818;stroke-width:0.5;" width="109" x="476.5" y="76.6406"/><ellipse cx="491.5" cy="96.1641" fill="#B8255F" rx="11" ry="11" style="stroke:#181818;stroke-width:1.0;"/><path d="M492.0938,99.4297 L494.5625,93.5547 L494.1719,93.5547 Q493.5625,93.5547 493.2969,93.3203 Q493.0313,93.0859 493.0313,92.6953 Q493.0313,92.3203 493.2969,92.0859 Q493.5625,91.8516 494.1719,91.8516 L496.4531,91.8516 Q497.0625,91.8516 497.3281,92.0859 Q497.5938,92.3203 497.5938,92.6953 Q497.5938,93.1641 497.1875,93.4297 Q497,93.5547 496.4063,93.5547 L492.9219,101.9141 L491.2813,101.9141 L487.7969,93.5547 Q487.2031,93.5547 487.0156,93.4297 Q486.6094,93.1641 486.6094,92.6953 Q486.6094,92.3203 486.875,92.0859 Q487.1406,91.8516 487.75,91.8516 L490.0469,91.8516 Q490.6563,91.8516 490.9063,92.0859 Q491.1719,92.3203 491.1719,92.6953 Q491.1719,93.0859 490.9063,93.3203 Q490.6563,93.5547 490.0469,93.5547 L489.6406,93.5547 L492.0938,99.4297 Z " fill="#000000"/><text fill="#000000" font-family="sans-serif" font-size="12" font-style="italic" lengthAdjust="spacing" textLength="81" x="503.5" y="92.5039">«value object»</text><text fill="#000000" font-family="sans-serif" font-size="14" lengthAdjust="spacing" textLength="25" x="531.5" y="107.7207">Day</text><line style="stroke:#181818;stroke-width:0.5;" x1="477.5" x2="584.5" y1="115.6875" y2="115.6875"/></g><!--MD5=[f0af975bcef78e7775ee4ad5904d052d]
class StudentRegistration--><g id="elem_StudentRegistration"><rect codeLine="61" fill="#F1F1F1" height="60.4531" id="StudentRegistration" rx="2.5" ry="2.5" style="stroke:#181818;stroke-width:0.5;" width="157" x="1423.5" y="303.6406"/><ellipse cx="1438.5" cy="329.8672" fill="#ADD1B2" rx="11" ry="11" style="stroke:#181818;stroke-width:1.0;"/><path d="M1437.3594,330.6641 L1437.3594,333.1641 L1441.6875,333.1641 L1441.6875,332.2422 Q1441.6875,331.6328 1441.9219,331.3672 Q1442.1719,331.1016 1442.5469,331.1016 Q1442.9219,331.1016 1443.1563,331.3672 Q1443.3906,331.6328 1443.3906,332.2422 L1443.3906,334.8672 L1435.3906,334.8672 Q1434.7656,334.8672 1434.5,334.6328 Q1434.25,334.3984 1434.25,334.0078 Q1434.25,333.6328 1434.5156,333.3984 Q1434.7813,333.1641 1435.3906,333.1641 L1435.6563,333.1641 L1435.6563,326.5078 L1435.3906,326.5078 Q1434.7656,326.5078 1434.5,326.2734 Q1434.25,326.0391 1434.25,325.6484 Q1434.25,325.2734 1434.5,325.0391 Q1434.7656,324.8047 1435.3906,324.8047 L1443.0156,324.8047 L1443.0156,327.3984 Q1443.0156,328.0078 1442.7813,328.2734 Q1442.5625,328.5234 1442.1719,328.5234 Q1441.7969,328.5234 1441.5625,328.2734 Q1441.3281,328.0078 1441.3281,327.3984 L1441.3281,326.5078 L1437.3594,326.5078 L1437.3594,328.9609 L1438.8438,328.9609 Q1438.8438,328.3047 1438.9688,328.1172 Q1439.2344,327.7109 1439.7031,327.7109 Q1440.0781,327.7109 1440.3125,327.9766 Q1440.5469,328.2266 1440.5469,328.8359 L1440.5469,330.8047 Q1440.5469,331.3516 1440.4219,331.5391 Q1440.1563,331.9297 1439.7031,331.9297 Q1439.2344,331.9297 1438.9688,331.5234 Q1438.8438,331.3359 1438.8438,330.6641 L1437.3594,330.6641 Z " fill="#000000"/><text fill="#000000" font-family="sans-serif" font-size="12" font-style="italic" lengthAdjust="spacing" textLength="35" x="1497.5" y="319.5039">«root»</text><text fill="#000000" font-family="sans-serif" font-size="12" font-style="italic" lengthAdjust="spacing" textLength="43" x="1493.5" y="332.9102">«entity»</text><text fill="#000000" font-family="sans-serif" font-size="14" lengthAdjust="spacing" textLength="125" x="1452.5" y="348.127">StudentRegistration</text><line style="stroke:#181818;stroke-width:0.5;" x1="1424.5" x2="1579.5" y1="356.0938" y2="356.0938"/></g><!--MD5=[d54f99121f47b38ee3d4150d54c642cd]
class RegiStatusStudent--><g id="elem_RegiStatusStudent"><rect codeLine="63" fill="#F1F1F1" height="60.4531" id="RegiStatusStudent" rx="2.5" ry="2.5" style="stroke:#181818;stroke-width:0.5;" width="109" x="1447.5" y="439.6406"/><ellipse cx="1462.5" cy="465.8672" fill="#B8255F" rx="11" ry="11" style="stroke:#181818;stroke-width:1.0;"/><path d="M1463.0938,469.1328 L1465.5625,463.2578 L1465.1719,463.2578 Q1464.5625,463.2578 1464.2969,463.0234 Q1464.0313,462.7891 1464.0313,462.3984 Q1464.0313,462.0234 1464.2969,461.7891 Q1464.5625,461.5547 1465.1719,461.5547 L1467.4531,461.5547 Q1468.0625,461.5547 1468.3281,461.7891 Q1468.5938,462.0234 1468.5938,462.3984 Q1468.5938,462.8672 1468.1875,463.1328 Q1468,463.2578 1467.4063,463.2578 L1463.9219,471.6172 L1462.2813,471.6172 L1458.7969,463.2578 Q1458.2031,463.2578 1458.0156,463.1328 Q1457.6094,462.8672 1457.6094,462.3984 Q1457.6094,462.0234 1457.875,461.7891 Q1458.1406,461.5547 1458.75,461.5547 L1461.0469,461.5547 Q1461.6563,461.5547 1461.9063,461.7891 Q1462.1719,462.0234 1462.1719,462.3984 Q1462.1719,462.7891 1461.9063,463.0234 Q1461.6563,463.2578 1461.0469,463.2578 L1460.6406,463.2578 L1463.0938,469.1328 Z " fill="#000000"/><text fill="#000000" font-family="sans-serif" font-size="12" font-style="italic" lengthAdjust="spacing" textLength="81" x="1474.5" y="455.5039">«value object»</text><text fill="#000000" font-family="sans-serif" font-size="12" font-style="italic" lengthAdjust="spacing" textLength="52" x="1489" y="468.9102">«unique»</text><text fill="#000000" font-family="sans-serif" font-size="14" lengthAdjust="spacing" textLength="40" x="1495" y="484.127">Status</text><line style="stroke:#181818;stroke-width:0.5;" x1="1448.5" x2="1555.5" y1="492.0938" y2="492.0938"/></g><!--MD5=[2cde1893743db7326c8898df7574159d]
class TeacherRegistration--><g id="elem_TeacherRegistration"><rect codeLine="72" fill="#F1F1F1" height="60.4531" id="TeacherRegistration" rx="2.5" ry="2.5" style="stroke:#181818;stroke-width:0.5;" width="161" x="476.5" y="582.6406"/><ellipse cx="491.5" cy="608.8672" fill="#ADD1B2" rx="11" ry="11" style="stroke:#181818;stroke-width:1.0;"/><path d="M490.3594,609.6641 L490.3594,612.1641 L494.6875,612.1641 L494.6875,611.2422 Q494.6875,610.6328 494.9219,610.3672 Q495.1719,610.1016 495.5469,610.1016 Q495.9219,610.1016 496.1563,610.3672 Q496.3906,610.6328 496.3906,611.2422 L496.3906,613.8672 L488.3906,613.8672 Q487.7656,613.8672 487.5,613.6328 Q487.25,613.3984 487.25,613.0078 Q487.25,612.6328 487.5156,612.3984 Q487.7813,612.1641 488.3906,612.1641 L488.6563,612.1641 L488.6563,605.5078 L488.3906,605.5078 Q487.7656,605.5078 487.5,605.2734 Q487.25,605.0391 487.25,604.6484 Q487.25,604.2734 487.5,604.0391 Q487.7656,603.8047 488.3906,603.8047 L496.0156,603.8047 L496.0156,606.3984 Q496.0156,607.0078 495.7813,607.2734 Q495.5625,607.5234 495.1719,607.5234 Q494.7969,607.5234 494.5625,607.2734 Q494.3281,607.0078 494.3281,606.3984 L494.3281,605.5078 L490.3594,605.5078 L490.3594,607.9609 L491.8438,607.9609 Q491.8438,607.3047 491.9688,607.1172 Q492.2344,606.7109 492.7031,606.7109 Q493.0781,606.7109 493.3125,606.9766 Q493.5469,607.2266 493.5469,607.8359 L493.5469,609.8047 Q493.5469,610.3516 493.4219,610.5391 Q493.1563,610.9297 492.7031,610.9297 Q492.2344,610.9297 491.9688,610.5234 Q491.8438,610.3359 491.8438,609.6641 L490.3594,609.6641 Z " fill="#000000"/><text fill="#000000" font-family="sans-serif" font-size="12" font-style="italic" lengthAdjust="spacing" textLength="35" x="552.5" y="598.5039">«root»</text><text fill="#000000" font-family="sans-serif" font-size="12" font-style="italic" lengthAdjust="spacing" textLength="43" x="548.5" y="611.9102">«entity»</text><text fill="#000000" font-family="sans-serif" font-size="14" lengthAdjust="spacing" textLength="129" x="505.5" y="627.127">TeacherRegistration</text><line style="stroke:#181818;stroke-width:0.5;" x1="477.5" x2="636.5" y1="635.0938" y2="635.0938"/></g><!--MD5=[3cdb1e7a67f7b96c83656fb7b61d1f52]
class TeacherRole--><g id="elem_TeacherRole"><rect codeLine="74" fill="#F1F1F1" height="78.3281" id="TeacherRole" rx="2.5" ry="2.5" style="stroke:#181818;stroke-width:0.5;" width="114" x="500" y="709.6406"/><ellipse cx="515" cy="729.1641" fill="#EB937F" rx="11" ry="11" style="stroke:#181818;stroke-width:1.0;"/><path d="M513.8594,729.9609 L513.8594,732.4609 L518.1875,732.4609 L518.1875,731.5391 Q518.1875,730.9297 518.4219,730.6641 Q518.6719,730.3984 519.0469,730.3984 Q519.4219,730.3984 519.6563,730.6641 Q519.8906,730.9297 519.8906,731.5391 L519.8906,734.1641 L511.8906,734.1641 Q511.2656,734.1641 511,733.9297 Q510.75,733.6953 510.75,733.3047 Q510.75,732.9297 511.0156,732.6953 Q511.2813,732.4609 511.8906,732.4609 L512.1563,732.4609 L512.1563,725.8047 L511.8906,725.8047 Q511.2656,725.8047 511,725.5703 Q510.75,725.3359 510.75,724.9453 Q510.75,724.5703 511,724.3359 Q511.2656,724.1016 511.8906,724.1016 L519.5156,724.1016 L519.5156,726.6953 Q519.5156,727.3047 519.2813,727.5703 Q519.0625,727.8203 518.6719,727.8203 Q518.2969,727.8203 518.0625,727.5703 Q517.8281,727.3047 517.8281,726.6953 L517.8281,725.8047 L513.8594,725.8047 L513.8594,728.2578 L515.3438,728.2578 Q515.3438,727.6016 515.4688,727.4141 Q515.7344,727.0078 516.2031,727.0078 Q516.5781,727.0078 516.8125,727.2734 Q517.0469,727.5234 517.0469,728.1328 L517.0469,730.1016 Q517.0469,730.6484 516.9219,730.8359 Q516.6563,731.2266 516.2031,731.2266 Q515.7344,731.2266 515.4688,730.8203 Q515.3438,730.6328 515.3438,729.9609 L513.8594,729.9609 Z " fill="#000000"/><text fill="#000000" font-family="sans-serif" font-size="12" font-style="italic" lengthAdjust="spacing" textLength="46" x="547" y="725.5039">«enum»</text><text fill="#000000" font-family="sans-serif" font-size="14" lengthAdjust="spacing" textLength="82" x="529" y="740.7207">TeacherRole</text><line style="stroke:#181818;stroke-width:0.5;" x1="501" x2="613" y1="748.6875" y2="748.6875"/><text fill="#000000" font-family="sans-serif" font-size="14" lengthAdjust="spacing" textLength="75" x="506" y="765.3613">ASSISTANT</text><text fill="#000000" font-family="sans-serif" font-size="14" lengthAdjust="spacing" textLength="57" x="506" y="781.002">REGENT</text></g><!--MD5=[dbc364445409b51c9b407d19a07b4adf]
link User to Email--><g id="link_User_Email"><path codeLine="25" d="M340.5,527.6706 C340.5,527.6706 340.5,562.2806 340.5,562.2806 " fill="none" id="User-Email" style="stroke:#181818;stroke-width:1.0;"/><polygon fill="#181818" points="340.5,575.2806,344.5,566.2806,340.5,570.2806,336.5,566.2806,340.5,575.2806" style="stroke:#181818;stroke-width:1.0;"/><line style="stroke:#181818;stroke-width:1.0;" x1="340.5" x2="340.5" y1="570.2806" y2="562.2806"/><polygon fill="#181818" points="340.5,515.6706,336.5,521.6706,340.5,527.6706,344.5,521.6706,340.5,515.6706" style="stroke:#181818;stroke-width:1.0;"/><text fill="#000000" font-family="sans-serif" font-size="13" lengthAdjust="spacing" textLength="21" x="318.5" y="558.2492">has</text><text fill="#000000" font-family="sans-serif" font-size="13" lengthAdjust="spacing" textLength="7" x="328.3375" y="564.9315">1</text><text fill="#000000" font-family="sans-serif" font-size="13" lengthAdjust="spacing" textLength="7" x="337.4656" y="535.2859">1</text></g><!--MD5=[5ab1f46e477a8163e64d30b24bef4255]
link User to Password--><g id="link_User_Password"><path codeLine="26" d="M262.5,527.6706 C262.5,527.6706 262.5,576.1306 262.5,576.1306 " fill="none" id="User-Password" style="stroke:#181818;stroke-width:1.0;"/><polygon fill="#181818" points="262.5,589.1306,266.5,580.1306,262.5,584.1306,258.5,580.1306,262.5,589.1306" style="stroke:#181818;stroke-width:1.0;"/><line style="stroke:#181818;stroke-width:1.0;" x1="262.5" x2="262.5" y1="584.1306" y2="576.1306"/><polygon fill="#181818" points="262.5,515.6706,258.5,521.6706,262.5,527.6706,266.5,521.6706,262.5,515.6706" style="stroke:#181818;stroke-width:1.0;"/><text fill="#000000" font-family="sans-serif" font-size="13" lengthAdjust="spacing" textLength="21" x="240.5" y="549.1692">has</text><text fill="#000000" font-family="sans-serif" font-size="13" lengthAdjust="spacing" textLength="7" x="266.1875" y="578.3853">1</text><text fill="#000000" font-family="sans-serif" font-size="13" lengthAdjust="spacing" textLength="7" x="248.0094" y="535.2859">1</text></g><!--MD5=[70c37dc9bfbc8656942103c36f1181e4]
link User to Role--><g id="link_User_Role"><path codeLine="27" d="M237.36,492.6406 C237.36,492.6406 113.25,492.6406 113.25,492.6406 C113.25,492.6406 113.25,575.9306 113.25,575.9306 " fill="none" id="User-Role" style="stroke:#181818;stroke-width:1.0;"/><polygon fill="#181818" points="113.25,588.9306,117.25,579.9306,113.25,583.9306,109.25,579.9306,113.25,588.9306" style="stroke:#181818;stroke-width:1.0;"/><line style="stroke:#181818;stroke-width:1.0;" x1="113.25" x2="113.25" y1="583.9306" y2="575.9306"/><polygon fill="#181818" points="249.36,492.6406,243.36,488.6406,237.36,492.6406,243.36,496.6406,249.36,492.6406" style="stroke:#181818;stroke-width:1.0;"/><text fill="#000000" font-family="sans-serif" font-size="13" lengthAdjust="spacing" textLength="21" x="111.16" y="489.4092">has</text><text fill="#000000" font-family="sans-serif" font-size="13" lengthAdjust="spacing" textLength="7" x="234.5429" y="492.4073">1</text><text fill="#000000" font-family="sans-serif" font-size="13" lengthAdjust="spacing" textLength="7" x="115.0516" y="578.5099">1</text></g><!--MD5=[6eb6e197a729f6ec2412743e0bdbca1d]
link Manager to User--><g id="link_Manager_User"><path codeLine="28" d="M172,357.3306 C172,396.2906 172,469.6406 172,469.6406 C172,469.6406 244.47,469.6406 244.47,469.6406 " fill="none" id="Manager-to-User" style="stroke:#181818;stroke-width:1.0;"/><polygon fill="#181818" points="249.47,469.6406,240.47,465.6406,244.47,469.6406,240.47,473.6406,249.47,469.6406" style="stroke:#181818;stroke-width:1.0;"/><text fill="#000000" font-family="sans-serif" font-size="13" lengthAdjust="spacing" textLength="43" x="128" y="446.4892">creates</text><text fill="#000000" font-family="sans-serif" font-size="13" lengthAdjust="spacing" textLength="7" x="172.5594" y="377.0246">1</text><text fill="#000000" font-family="sans-serif" font-size="13" lengthAdjust="spacing" textLength="5" x="236.3943" y="466.5629">*</text></g><!--MD5=[6eb6e197a729f6ec2412743e0bdbca1d]
link Manager to User--><g id="link_Manager_User"><path codeLine="29" d="M177.5,357.3306 C177.5,390.4606 177.5,446.6406 177.5,446.6406 C177.5,446.6406 229.18,446.6406 229.18,446.6406 " fill="none" id="Manager-to-User-1" style="stroke:#181818;stroke-width:1.0;"/><polygon fill="none" points="229.18,439.6406,249.18,446.6406,229.18,453.6406,229.18,439.6406" style="stroke:#181818;stroke-width:1.0;"/></g><!--MD5=[e7e4384c2e5b49218c5cd97f5ff6bc06]
link Student to User--><g id="link_Student_User"><path codeLine="30" d="M354.5,357.3306 C354.5,357.3306 354.5,403.4106 354.5,403.4106 " fill="none" id="Student-to-User" style="stroke:#181818;stroke-width:1.0;"/><polygon fill="none" points="361.5,403.4106,354.5,423.4106,347.5,403.4106,361.5,403.4106" style="stroke:#181818;stroke-width:1.0;"/></g><!--MD5=[0a356a4e09bd4fc4087bf5e4e9dbf72c]
link Teacher to User--><g id="link_Teacher_User"><path codeLine="31" d="M276.5,357.3306 C276.5,357.3306 276.5,403.4106 276.5,403.4106 " fill="none" id="Teacher-to-User" style="stroke:#181818;stroke-width:1.0;"/><polygon fill="none" points="283.5,403.4106,276.5,423.4106,269.5,403.4106,283.5,403.4106" style="stroke:#181818;stroke-width:1.0;"/></g><!--MD5=[a4704c7d667610242c4910d8f03d8365]
link TeacherProfile to Profile--><g id="link_TeacherProfile_Profile"><path codeLine="47" d="M682.5,237.3306 C682.5,270.4606 682.5,326.6406 682.5,326.6406 C682.5,326.6406 766.82,326.6406 766.82,326.6406 " fill="none" id="TeacherProfile-to-Profile" style="stroke:#181818;stroke-width:1.0;"/><polygon fill="none" points="766.82,319.6406,786.82,326.6406,766.82,333.6406,766.82,319.6406" style="stroke:#181818;stroke-width:1.0;"/></g><!--MD5=[74f6c88ebae95880488e779c734e479a]
link StudentProfile to Profile--><g id="link_StudentProfile_Profile"><path codeLine="48" d="M823,237.3506 C823,237.3506 823,283.5806 823,283.5806 " fill="none" id="StudentProfile-to-Profile" style="stroke:#181818;stroke-width:1.0;"/><polygon fill="none" points="830,283.5806,823,303.5806,816,283.5806,830,283.5806" style="stroke:#181818;stroke-width:1.0;"/></g><!--MD5=[f7f29814defc5875b454afa8d8fb2888]
link ManagerProfile to Profile--><g id="link_ManagerProfile_Profile"><path codeLine="49" d="M1303,243.9406 C1303,283.7406 1303,348.6406 1303,348.6406 C1303,348.6406 879.08,348.6406 879.08,348.6406 " fill="none" id="ManagerProfile-to-Profile" style="stroke:#181818;stroke-width:1.0;"/><polygon fill="none" points="879.08,355.6406,859.08,348.6406,879.08,341.6406,879.08,355.6406" style="stroke:#181818;stroke-width:1.0;"/></g><!--MD5=[2bc47b069c5ba380f277202e4d17c25b]
link TaxPayerNumber to Profile--><g id="link_TaxPayerNumber_Profile"><path codeLine="50" d="M1133,250.3506 C1133,250.3506 1133,333.6406 1133,333.6406 C1133,333.6406 871.17,333.6406 871.17,333.6406 " fill="none" id="TaxPayerNumber-Profile" style="stroke:#181818;stroke-width:1.0;"/><polygon fill="#181818" points="859.17,333.6406,865.17,337.6406,871.17,333.6406,865.17,329.6406,859.17,333.6406" style="stroke:#181818;stroke-width:1.0;"/><polygon fill="#181818" points="1133,237.3506,1129,246.3506,1133,242.3506,1137,246.3506,1133,237.3506" style="stroke:#181818;stroke-width:1.0;"/><line style="stroke:#181818;stroke-width:1.0;" x1="1133" x2="1133" y1="242.3506" y2="250.3506"/><text fill="#000000" font-family="sans-serif" font-size="13" lengthAdjust="spacing" textLength="21" x="1022.23" y="330.4092">has</text><text fill="#000000" font-family="sans-serif" font-size="13" lengthAdjust="spacing" textLength="7" x="1125.1031" y="257.0497">1</text><text fill="#000000" font-family="sans-serif" font-size="13" lengthAdjust="spacing" textLength="7" x="866.98" y="330.038">1</text></g><!--MD5=[02fab2b53211d87eb632ce55aa25c763]
link DateOfBirth to Profile--><g id="link_DateOfBirth_Profile"><path codeLine="51" d="M973,250.2006 C973,250.2006 973,318.6406 973,318.6406 C973,318.6406 871.31,318.6406 871.31,318.6406 " fill="none" id="DateOfBirth-Profile" style="stroke:#181818;stroke-width:1.0;"/><polygon fill="#181818" points="859.31,318.6406,865.31,322.6406,871.31,318.6406,865.31,314.6406,859.31,318.6406" style="stroke:#181818;stroke-width:1.0;"/><polygon fill="#181818" points="973,237.2006,969,246.2006,973,242.2006,977,246.2006,973,237.2006" style="stroke:#181818;stroke-width:1.0;"/><line style="stroke:#181818;stroke-width:1.0;" x1="973" x2="973" y1="242.2006" y2="250.2006"/><text fill="#000000" font-family="sans-serif" font-size="13" lengthAdjust="spacing" textLength="21" x="934.87" y="315.4092">has</text><text fill="#000000" font-family="sans-serif" font-size="13" lengthAdjust="spacing" textLength="7" x="965.1031" y="256.8612">1</text><text fill="#000000" font-family="sans-serif" font-size="13" lengthAdjust="spacing" textLength="7" x="866.8988" y="312.2221">1</text></g><!--MD5=[10a6c99310405b7a97b4cf47d76d8922]
link MechanographicNumber to StudentProfile--><g id="link_MechanographicNumber_StudentProfile"><path codeLine="52" d="M824.25,136.6606 C824.25,136.6606 824.25,177.7606 824.25,177.7606 " fill="none" id="MechanographicNumber-StudentProfile" style="stroke:#181818;stroke-width:1.0;"/><polygon fill="#181818" points="824.25,189.7606,828.25,183.7606,824.25,177.7606,820.25,183.7606,824.25,189.7606" style="stroke:#181818;stroke-width:1.0;"/><polygon fill="#181818" points="824.25,123.6606,820.25,132.6606,824.25,128.6606,828.25,132.6606,824.25,123.6606" style="stroke:#181818;stroke-width:1.0;"/><line style="stroke:#181818;stroke-width:1.0;" x1="824.25" x2="824.25" y1="128.6606" y2="136.6606"/><text fill="#000000" font-family="sans-serif" font-size="13" lengthAdjust="spacing" textLength="21" x="802.25" y="153.4792">has</text><text fill="#000000" font-family="sans-serif" font-size="13" lengthAdjust="spacing" textLength="7" x="816.6453" y="179.2942">1</text><text fill="#000000" font-family="sans-serif" font-size="13" lengthAdjust="spacing" textLength="7" x="807.7047" y="143.311">1</text></g><!--MD5=[ae3e36caf4c7951d7f4f6fff495b345e]
link Acronym to TeacherProfile--><g id="link_Acronym_TeacherProfile"><path codeLine="53" d="M674,136.6606 C674,136.6606 674,177.7606 674,177.7606 " fill="none" id="Acronym-TeacherProfile" style="stroke:#181818;stroke-width:1.0;"/><polygon fill="#181818" points="674,189.7606,678,183.7606,674,177.7606,670,183.7606,674,189.7606" style="stroke:#181818;stroke-width:1.0;"/><polygon fill="#181818" points="674,123.6606,670,132.6606,674,128.6606,678,132.6606,674,123.6606" style="stroke:#181818;stroke-width:1.0;"/><line style="stroke:#181818;stroke-width:1.0;" x1="674" x2="674" y1="128.6606" y2="136.6606"/><text fill="#000000" font-family="sans-serif" font-size="13" lengthAdjust="spacing" textLength="21" x="652" y="153.4792">has</text><text fill="#000000" font-family="sans-serif" font-size="13" lengthAdjust="spacing" textLength="7" x="668.4781" y="179.2942">1</text><text fill="#000000" font-family="sans-serif" font-size="13" lengthAdjust="spacing" textLength="7" x="665.8469" y="143.311">1</text></g><!--MD5=[0dc7d8961856536cda53252c0ddcf162]
link Schedule to Profile--><g id="link_Schedule_Profile"><path codeLine="54" d="M506.83,250.4206 C506.83,250.4206 506.83,341.6406 506.83,341.6406 C506.83,341.6406 774.73,341.6406 774.73,341.6406 " fill="none" id="Schedule-Profile" style="stroke:#181818;stroke-width:1.0;"/><polygon fill="#181818" points="786.73,341.6406,780.73,337.6406,774.73,341.6406,780.73,345.6406,786.73,341.6406" style="stroke:#181818;stroke-width:1.0;"/><polygon fill="#181818" points="506.83,237.4206,502.83,246.4206,506.83,242.4206,510.83,246.4206,506.83,237.4206" style="stroke:#181818;stroke-width:1.0;"/><line style="stroke:#181818;stroke-width:1.0;" x1="506.83" x2="506.83" y1="242.4206" y2="250.4206"/><text fill="#000000" font-family="sans-serif" font-size="13" lengthAdjust="spacing" textLength="21" x="572.67" y="338.4092">has</text><text fill="#000000" font-family="sans-serif" font-size="13" lengthAdjust="spacing" textLength="7" x="495.0458" y="257.1376">1</text><text fill="#000000" font-family="sans-serif" font-size="13" lengthAdjust="spacing" textLength="7" x="771.9003" y="339.613">1</text></g><!--MD5=[45f59c8fa32af7dd4bd10287af5ddf83]
link ProfileDay to Schedule--><g id="link_ProfileDay_Schedule"><path codeLine="55" d="M522,136.6606 C522,136.6606 522,177.7606 522,177.7606 " fill="none" id="ProfileDay-Schedule" style="stroke:#181818;stroke-width:1.0;"/><polygon fill="#181818" points="522,189.7606,526,183.7606,522,177.7606,518,183.7606,522,189.7606" style="stroke:#181818;stroke-width:1.0;"/><polygon fill="#181818" points="522,123.6606,518,132.6606,522,128.6606,526,132.6606,522,123.6606" style="stroke:#181818;stroke-width:1.0;"/><line style="stroke:#181818;stroke-width:1.0;" x1="522" x2="522" y1="128.6606" y2="136.6606"/><text fill="#000000" font-family="sans-serif" font-size="13" lengthAdjust="spacing" textLength="21" x="500" y="153.4792">has</text><text fill="#000000" font-family="sans-serif" font-size="13" lengthAdjust="spacing" textLength="20" x="499.3125" y="179.2942">1..*</text><text fill="#000000" font-family="sans-serif" font-size="13" lengthAdjust="spacing" textLength="7" x="511.7969" y="143.311">1</text></g><!--MD5=[26f2750967a9157267d57c5e6d98bc07]
link Profile to User--><g id="link_Profile_User"><path codeLine="57" d="M823,375.6406 C823,375.6406 823,427.6406 823,427.6406 C823,427.6406 383.61,427.6406 383.61,427.6406 " fill="none" id="Profile-User" style="stroke:#181818;stroke-width:1.0;"/><polygon fill="#181818" points="370.61,427.6406,379.61,431.6406,375.61,427.6406,379.61,423.6406,370.61,427.6406" style="stroke:#181818;stroke-width:1.0;"/><line style="stroke:#181818;stroke-width:1.0;" x1="375.61" x2="383.61" y1="427.6406" y2="427.6406"/><polygon fill="#181818" points="823,363.6406,819,369.6406,823,375.6406,827,369.6406,823,363.6406" style="stroke:#181818;stroke-width:1.0;"/><text fill="#000000" font-family="sans-serif" font-size="13" lengthAdjust="spacing" textLength="21" x="606.8" y="424.4092">has</text><text fill="#000000" font-family="sans-serif" font-size="13" lengthAdjust="spacing" textLength="7" x="815.1906" y="383.9736">1</text><text fill="#000000" font-family="sans-serif" font-size="13" lengthAdjust="spacing" textLength="7" x="378.2444" y="412.954">1</text></g><!--MD5=[f5ffdf6c45929761980a7c2b41304f8e]
reverse link StudentRegistration to User--><g id="link_StudentRegistration_User"><path codeLine="65" d="M1439.5,368.6906 C1439.5,368.6906 1439.5,435.6406 1439.5,435.6406 C1439.5,435.6406 605.34,435.6406 370.73,435.6406 " fill="none" id="StudentRegistration-backto-User" style="stroke:#181818;stroke-width:1.0;"/><polygon fill="#181818" points="1439.5,363.6906,1435.5,372.6906,1439.5,368.6906,1443.5,372.6906,1439.5,363.6906" style="stroke:#181818;stroke-width:1.0;"/><text fill="#000000" font-family="sans-serif" font-size="13" lengthAdjust="spacing" textLength="38" x="899.59" y="448.4092">enrolls</text><text fill="#000000" font-family="sans-serif" font-size="13" lengthAdjust="spacing" textLength="7" x="1417.2375" y="384.0351">1</text><text fill="#000000" font-family="sans-serif" font-size="13" lengthAdjust="spacing" textLength="7" x="378.558" y="444.1666">1</text></g><!--MD5=[89645d7b06ab68493d025cc7837295ad]
link User to StudentRegistration--><g id="link_User_StudentRegistration"><path codeLine="66" d="M370.69,431.6406 C604.18,431.6406 1431.5,431.6406 1431.5,431.6406 C1431.5,431.6406 1431.5,368.8406 1431.5,368.8406 " fill="none" id="User-to-StudentRegistration" style="stroke:#181818;stroke-width:1.0;"/><polygon fill="#181818" points="1431.5,363.8406,1427.5,372.8406,1431.5,368.8406,1435.5,372.8406,1431.5,363.8406" style="stroke:#181818;stroke-width:1.0;"/><text fill="#000000" font-family="sans-serif" font-size="13" lengthAdjust="spacing" textLength="53" x="878.5" y="428.4092">manages</text><text fill="#000000" font-family="sans-serif" font-size="13" lengthAdjust="spacing" textLength="7" x="378.5132" y="423.9729">1</text><text fill="#000000" font-family="sans-serif" font-size="13" lengthAdjust="spacing" textLength="7" x="1408.3125" y="383.7544">1</text></g><!--MD5=[36ac1ed9af1724fe1e4b6cfc9f6bc82f]
link StudentRegistration to RegiStatusStudent--><g id="link_StudentRegistration_RegiStatusStudent"><path codeLine="67" d="M1502,375.8206 C1502,375.8206 1502,426.5406 1502,426.5406 " fill="none" id="StudentRegistration-RegiStatusStudent" style="stroke:#181818;stroke-width:1.0;"/><polygon fill="#181818" points="1502,439.5406,1506,430.5406,1502,434.5406,1498,430.5406,1502,439.5406" style="stroke:#181818;stroke-width:1.0;"/><line style="stroke:#181818;stroke-width:1.0;" x1="1502" x2="1502" y1="434.5406" y2="426.5406"/><polygon fill="#181818" points="1502,363.8206,1498,369.8206,1502,375.8206,1506,369.8206,1502,363.8206" style="stroke:#181818;stroke-width:1.0;"/><text fill="#000000" font-family="sans-serif" font-size="13" lengthAdjust="spacing" textLength="21" x="1480" y="398.4492">has</text><text fill="#000000" font-family="sans-serif" font-size="13" lengthAdjust="spacing" textLength="7" x="1494.1906" y="428.7379">1</text><text fill="#000000" font-family="sans-serif" font-size="13" lengthAdjust="spacing" textLength="7" x="1494.2344" y="383.73">1</text></g><!--MD5=[91f280d5544d20e02ad2867b5330a892]
link User to TeacherRegistration--><g id="link_User_TeacherRegistration"><path codeLine="79" d="M370.58,507.6406 C437.87,507.6406 537.17,507.6406 537.17,507.6406 C537.17,507.6406 537.17,577.5506 537.17,577.5506 " fill="none" id="User-to-TeacherRegistration" style="stroke:#181818;stroke-width:1.0;"/><polygon fill="#181818" points="537.17,582.5506,541.17,573.5506,537.17,577.5506,533.17,573.5506,537.17,582.5506" style="stroke:#181818;stroke-width:1.0;"/><text fill="#000000" font-family="sans-serif" font-size="13" lengthAdjust="spacing" textLength="53" x="434.83" y="504.4092">manages</text><text fill="#000000" font-family="sans-serif" font-size="13" lengthAdjust="spacing" textLength="7" x="378.3898" y="509.2354">1</text><text fill="#000000" font-family="sans-serif" font-size="13" lengthAdjust="spacing" textLength="5" x="527.0062" y="571.7502">*</text></g><!--MD5=[312af8da20d8ac1ea0cc71907323243a]
link TeacherRegistration to TeacherRole--><g id="link_TeacherRegistration_TeacherRole"><path codeLine="80" d="M557,642.8206 C557,642.8206 557,704.4906 557,704.4906 " fill="none" id="TeacherRegistration-to-TeacherRole" style="stroke:#181818;stroke-width:1.0;"/><polygon fill="#181818" points="557,709.4906,561,700.4906,557,704.4906,553,700.4906,557,709.4906" style="stroke:#181818;stroke-width:1.0;"/><text fill="#000000" font-family="sans-serif" font-size="13" lengthAdjust="spacing" textLength="21" x="535" y="670.4292">has</text><text fill="#000000" font-family="sans-serif" font-size="13" lengthAdjust="spacing" textLength="7" x="549.2344" y="662.73">1</text><text fill="#000000" font-family="sans-serif" font-size="13" lengthAdjust="spacing" textLength="7" x="549.3547" y="698.7683">1</text></g><!--MD5=[8575e83913033f1cc3615313de359fc2]
@startuml

hide methods

skinparam packageStyle rectangle
skinparam linetype ortho

top to bottom direction

title Domain Driven Design

package "<<aggregate>> User" <<Folder>> #ffb380 {

   entity User <<root>> <<entity>>{
        String fullName
        String shortName
    }

    class Role <<(V,#B8255F) value object>> {}
    class Password <<(V,#B8255F) value object>> {}
    class Email <<Id>> <<unique>> <<(V,#B8255F) value object>>  {}
    entity Student <<entity>>{}
    entity Teacher <<entity>>{}
    entity Manager <<entity>>{}

    User "1" *- -> "1" Email : has
    User "1" *- -> "1" Password : has
    User "1" *- -> "1" Role : has
    Manager "1" - -> "*" User : creates
    Manager - -|> User
    Student - -|> User
    Teacher - -|> User
}

package "<<aggregate>> Profile" <<Folder>> #99b3ff {
   entity Profile <<root>> <<entity>>{}

    class TeacherProfile <<entity>> {}
    class StudentProfile <<entity>> {}
    class ManagerProfile <<entity>> <<NullObject>> {}
    class TaxPayerNumber <<(V,#B8255F) value object>> {}
    class DateOfBirth <<(V,#B8255F) value object>> {}
    class MechanographicNumber <<(V,#B8255F) value object>> {}
    class Acronym <<(V,#B8255F) value object>> {}
    class Schedule <<entity>> {}
    class "Day" as ProfileDay <<(V,#B8255F) value object>> {}

    TeacherProfile - -|> Profile
    StudentProfile - -|> Profile
    ManagerProfile - -|> Profile
    TaxPayerNumber "1" <- -* "1" Profile : has
    DateOfBirth "1" <- -* "1" Profile : has
    MechanographicNumber "1" <- -* "1" StudentProfile : has
    Acronym "1" <- -* "1" TeacherProfile : has
    Schedule "1" <- -* "1" Profile : has
    ProfileDay "1..*" <- -* "1" Schedule : has
}
Profile "1" *- -> "1" User : has


package "<<aggregate>> Student Registration" <<Folder>> #ddaaaa {
    entity StudentRegistration <<root>> <<entity>>{
        }
     class "Status" as RegiStatusStudent <<(V,#B8255F) value object>> <<unique>> {}

    StudentRegistration "1" <- - "1" User : enrolls
    User "1" - -> "1" StudentRegistration : manages
    StudentRegistration "1" *- -> "1" RegiStatusStudent : has

}

package "<<aggregate>> Teacher Registration" <<Folder>> #ddaaaa {
    entity TeacherRegistration <<root>> <<entity>>{
        }
     enum TeacherRole <<enum>> {
     ASSISTANT
     REGENT
     }

    User "1" - -> "*" TeacherRegistration : manages
    TeacherRegistration "1" - -> "1" TeacherRole : has

}

@enduml

PlantUML version 1.2022.12(Sun Oct 23 19:12:26 WEST 2022)
(GPL source distribution)
Java Runtime: OpenJDK Runtime Environment
JVM: OpenJDK 64-Bit Server VM
Default Encoding: Cp1252
Language: en
Country: GB
--></g></svg>