<?xml version="1.0" encoding="UTF-8" standalone="no"?><svg xmlns="http://www.w3.org/2000/svg" xmlns:xlink="http://www.w3.org/1999/xlink" contentStyleType="text/css" height="1160px" preserveAspectRatio="none" style="width:2924px;height:1160px;background:#FFFFFF;" version="1.1" viewBox="0 0 2924 1160" width="2924px" zoomAndPan="magnify"><defs/><g><rect fill="#FFFFFF" height="965.6563" style="stroke:#181818;stroke-width:1.0;" width="10" x="44.5" y="92.2813"/><rect fill="#FFFFFF" height="57.0469" style="stroke:#181818;stroke-width:1.0;" width="10" x="263.5" y="112.8047"/><rect fill="#FFFFFF" height="28.5234" style="stroke:#181818;stroke-width:1.0;" width="10" x="394.5" y="141.3281"/><rect fill="#FFFFFF" height="888.0859" style="stroke:#181818;stroke-width:1.0;" width="10" x="530.5" y="169.8516"/><rect fill="#FFFFFF" height="427.2813" style="stroke:#181818;stroke-width:1.0;" width="10" x="530.5" y="169.8516"/><rect fill="#FFFFFF" height="431.2813" style="stroke:#181818;stroke-width:1.0;" width="10" x="530.5" y="625.6563"/><rect fill="#FFFFFF" height="174.0938" style="stroke:#181818;stroke-width:1.0;" width="10" x="1019.5" y="654.1797"/><rect fill="#FFFFFF" height="208.6172" style="stroke:#181818;stroke-width:1.0;" width="10" x="1194" y="198.375"/><rect fill="#FFFFFF" height="145.5703" style="stroke:#181818;stroke-width:1.0;" width="10" x="1470" y="682.7031"/><rect fill="#FFFFFF" height="180.0938" style="stroke:#181818;stroke-width:1.0;" width="10" x="1629.5" y="226.8984"/><rect fill="#FFFFFF" height="93.0469" style="stroke:#181818;stroke-width:1.0;" width="10" x="2093.5" y="255.4219"/><rect fill="#FFFFFF" height="58.5234" style="stroke:#181818;stroke-width:1.0;" width="10" x="2093.5" y="711.2266"/><rect fill="#FFFFFF" height="30" style="stroke:#181818;stroke-width:1.0;" width="10" x="2260.5" y="318.4688"/><rect fill="#FFFFFF" height="30" style="stroke:#181818;stroke-width:1.0;" width="10" x="2260.5" y="739.75"/><rect fill="#FFFFFF" height="30" style="stroke:#181818;stroke-width:1.0;" width="10" x="2394.5" y="798.2734"/><rect fill="#FFFFFF" height="30" style="stroke:#181818;stroke-width:1.0;" width="10" x="2689" y="376.9922"/><rect fill="none" height="88.5703" style="stroke:#000000;stroke-width:1.5;" width="479" x="456" y="421.9922"/><rect fill="none" height="58.0469" style="stroke:#000000;stroke-width:1.5;" width="459" x="466" y="445.5156"/><rect fill="none" height="45.0469" style="stroke:#000000;stroke-width:1.5;" width="585" x="10" y="524.5625"/><rect fill="none" height="147.6172" style="stroke:#000000;stroke-width:1.5;" width="2472.5" x="446" y="843.2734"/><rect fill="none" height="88.5703" style="stroke:#000000;stroke-width:1.5;" width="406" x="456" y="895.3203"/><rect fill="none" height="58.0469" style="stroke:#000000;stroke-width:1.5;" width="386" x="466" y="918.8438"/><rect fill="none" height="45.0469" style="stroke:#000000;stroke-width:1.5;" width="585" x="10" y="1004.8906"/><line style="stroke:#181818;stroke-width:0.5;stroke-dasharray:5.0,5.0;" x1="49" x2="49" y1="82.2813" y2="1066.9375"/><line style="stroke:#181818;stroke-width:0.5;stroke-dasharray:5.0,5.0;" x1="268" x2="268" y1="82.2813" y2="1066.9375"/><line style="stroke:#181818;stroke-width:0.5;stroke-dasharray:5.0,5.0;" x1="399" x2="399" y1="82.2813" y2="1066.9375"/><line style="stroke:#181818;stroke-width:0.5;stroke-dasharray:5.0,5.0;" x1="530" x2="530" y1="82.2813" y2="1066.9375"/><line style="stroke:#181818;stroke-width:0.5;stroke-dasharray:5.0,5.0;" x1="897.5" x2="897.5" y1="82.2813" y2="1066.9375"/><line style="stroke:#181818;stroke-width:0.5;stroke-dasharray:5.0,5.0;" x1="1024.5" x2="1024.5" y1="82.2813" y2="1066.9375"/><line style="stroke:#181818;stroke-width:0.5;stroke-dasharray:5.0,5.0;" x1="1198.5" x2="1198.5" y1="82.2813" y2="1066.9375"/><line style="stroke:#181818;stroke-width:0.5;stroke-dasharray:5.0,5.0;" x1="1362.5" x2="1362.5" y1="82.2813" y2="1066.9375"/><line style="stroke:#181818;stroke-width:0.5;stroke-dasharray:5.0,5.0;" x1="1474.5" x2="1474.5" y1="82.2813" y2="1066.9375"/><line style="stroke:#181818;stroke-width:0.5;stroke-dasharray:5.0,5.0;" x1="1634.5" x2="1634.5" y1="82.2813" y2="1066.9375"/><line style="stroke:#181818;stroke-width:0.5;stroke-dasharray:5.0,5.0;" x1="1794.5" x2="1794.5" y1="82.2813" y2="1066.9375"/><line style="stroke:#181818;stroke-width:0.5;stroke-dasharray:5.0,5.0;" x1="1896.5" x2="1896.5" y1="82.2813" y2="1066.9375"/><line style="stroke:#181818;stroke-width:0.5;stroke-dasharray:5.0,5.0;" x1="1982.5" x2="1982.5" y1="82.2813" y2="1066.9375"/><line style="stroke:#181818;stroke-width:0.5;stroke-dasharray:5.0,5.0;" x1="2098.5" x2="2098.5" y1="82.2813" y2="1066.9375"/><line style="stroke:#181818;stroke-width:0.5;stroke-dasharray:5.0,5.0;" x1="2265.5" x2="2265.5" y1="82.2813" y2="1066.9375"/><line style="stroke:#181818;stroke-width:0.5;stroke-dasharray:5.0,5.0;" x1="2399.5" x2="2399.5" y1="82.2813" y2="1066.9375"/><line style="stroke:#181818;stroke-width:0.5;stroke-dasharray:5.0,5.0;" x1="2524.5" x2="2524.5" y1="82.2813" y2="1066.9375"/><line style="stroke:#181818;stroke-width:0.5;stroke-dasharray:5.0,5.0;" x1="2693.5" x2="2693.5" y1="82.2813" y2="1066.9375"/><line style="stroke:#181818;stroke-width:0.5;stroke-dasharray:5.0,5.0;" x1="2857.5" x2="2857.5" y1="82.2813" y2="1066.9375"/><text fill="#000000" font-family="sans-serif" font-size="14" lengthAdjust="spacing" textLength="53" x="20" y="79.3145">Teacher</text><ellipse cx="49.5" cy="15.1406" fill="#E2E2F0" rx="8" ry="8" style="stroke:#181818;stroke-width:0.5;"/><path d="M49.5,23.1406 L49.5,50.1406 M36.5,31.1406 L62.5,31.1406 M49.5,50.1406 L36.5,65.1406 M49.5,50.1406 L62.5,65.1406 " fill="none" style="stroke:#181818;stroke-width:0.5;"/><text fill="#000000" font-family="sans-serif" font-size="14" lengthAdjust="spacing" textLength="53" x="20" y="1078.6113">Teacher</text><ellipse cx="49.5" cy="1090.0781" fill="#E2E2F0" rx="8" ry="8" style="stroke:#181818;stroke-width:0.5;"/><path d="M49.5,1098.0781 L49.5,1125.0781 M36.5,1106.0781 L62.5,1106.0781 M49.5,1125.0781 L36.5,1140.0781 M49.5,1125.0781 L62.5,1140.0781 " fill="none" style="stroke:#181818;stroke-width:0.5;"/><rect fill="#E2E2F0" height="45.2813" rx="2.5" ry="2.5" style="stroke:#181818;stroke-width:0.5;" width="109" x="214" y="36"/><text fill="#000000" font-family="sans-serif" font-size="14" font-style="italic" lengthAdjust="spacing" textLength="95" x="221" y="55.6738">«presentation»</text><text fill="#000000" font-family="sans-serif" font-size="14" lengthAdjust="spacing" textLength="69" x="234" y="71.3145">:CoursesUi</text><rect fill="#E2E2F0" height="45.2813" rx="2.5" ry="2.5" style="stroke:#181818;stroke-width:0.5;" width="109" x="214" y="1065.9375"/><text fill="#000000" font-family="sans-serif" font-size="14" font-style="italic" lengthAdjust="spacing" textLength="95" x="221" y="1085.6113">«presentation»</text><text fill="#000000" font-family="sans-serif" font-size="14" lengthAdjust="spacing" textLength="69" x="234" y="1101.252">:CoursesUi</text><rect fill="#E2E2F0" height="45.2813" rx="2.5" ry="2.5" style="stroke:#181818;stroke-width:0.5;" width="133" x="333" y="36"/><text fill="#000000" font-family="sans-serif" font-size="14" font-style="italic" lengthAdjust="spacing" textLength="84" x="357.5" y="55.6738">«application»</text><text fill="#000000" font-family="sans-serif" font-size="14" lengthAdjust="spacing" textLength="119" x="340" y="71.3145">:ViewGradesAction</text><rect fill="#E2E2F0" height="45.2813" rx="2.5" ry="2.5" style="stroke:#181818;stroke-width:0.5;" width="133" x="333" y="1065.9375"/><text fill="#000000" font-family="sans-serif" font-size="14" font-style="italic" lengthAdjust="spacing" textLength="84" x="357.5" y="1085.6113">«application»</text><text fill="#000000" font-family="sans-serif" font-size="14" lengthAdjust="spacing" textLength="119" x="340" y="1101.252">:ViewGradesAction</text><rect fill="#E2E2F0" height="45.2813" rx="2.5" ry="2.5" style="stroke:#181818;stroke-width:0.5;" width="109" x="476" y="36"/><text fill="#000000" font-family="sans-serif" font-size="14" font-style="italic" lengthAdjust="spacing" textLength="95" x="483" y="55.6738">«presentation»</text><text fill="#000000" font-family="sans-serif" font-size="14" lengthAdjust="spacing" textLength="92" x="484.5" y="71.3145">:ViewGradesUi</text><rect fill="#E2E2F0" height="45.2813" rx="2.5" ry="2.5" style="stroke:#181818;stroke-width:0.5;" width="109" x="476" y="1065.9375"/><text fill="#000000" font-family="sans-serif" font-size="14" font-style="italic" lengthAdjust="spacing" textLength="95" x="483" y="1085.6113">«presentation»</text><text fill="#000000" font-family="sans-serif" font-size="14" lengthAdjust="spacing" textLength="92" x="484.5" y="1101.252">:ViewGradesUi</text><rect fill="#E2E2F0" height="45.2813" rx="2.5" ry="2.5" style="stroke:#181818;stroke-width:0.5;" width="114" x="840.5" y="36"/><text fill="#000000" font-family="sans-serif" font-size="14" font-style="italic" lengthAdjust="spacing" textLength="84" x="855.5" y="55.6738">«application»</text><text fill="#000000" font-family="sans-serif" font-size="14" lengthAdjust="spacing" textLength="100" x="847.5" y="71.3145">:ExamController</text><rect fill="#E2E2F0" height="45.2813" rx="2.5" ry="2.5" style="stroke:#181818;stroke-width:0.5;" width="114" x="840.5" y="1065.9375"/><text fill="#000000" font-family="sans-serif" font-size="14" font-style="italic" lengthAdjust="spacing" textLength="84" x="855.5" y="1085.6113">«application»</text><text fill="#000000" font-family="sans-serif" font-size="14" lengthAdjust="spacing" textLength="100" x="847.5" y="1101.252">:ExamController</text><rect fill="#E2E2F0" height="45.2813" rx="2.5" ry="2.5" style="stroke:#181818;stroke-width:0.5;" width="120" x="964.5" y="36"/><text fill="#000000" font-family="sans-serif" font-size="14" font-style="italic" lengthAdjust="spacing" textLength="84" x="982.5" y="55.6738">«application»</text><text fill="#000000" font-family="sans-serif" font-size="14" lengthAdjust="spacing" textLength="106" x="971.5" y="71.3145">:ProfileController</text><rect fill="#E2E2F0" height="45.2813" rx="2.5" ry="2.5" style="stroke:#181818;stroke-width:0.5;" width="120" x="964.5" y="1065.9375"/><text fill="#000000" font-family="sans-serif" font-size="14" font-style="italic" lengthAdjust="spacing" textLength="84" x="982.5" y="1085.6113">«application»</text><text fill="#000000" font-family="sans-serif" font-size="14" lengthAdjust="spacing" textLength="106" x="971.5" y="1101.252">:ProfileController</text><rect fill="#E2E2F0" height="45.2813" rx="2.5" ry="2.5" style="stroke:#181818;stroke-width:0.5;" width="209" x="1094.5" y="36"/><text fill="#000000" font-family="sans-serif" font-size="14" font-style="italic" lengthAdjust="spacing" textLength="84" x="1157" y="55.6738">«application»</text><text fill="#000000" font-family="sans-serif" font-size="14" lengthAdjust="spacing" textLength="195" x="1101.5" y="71.3145">:TeacherRegistrationController</text><rect fill="#E2E2F0" height="45.2813" rx="2.5" ry="2.5" style="stroke:#181818;stroke-width:0.5;" width="209" x="1094.5" y="1065.9375"/><text fill="#000000" font-family="sans-serif" font-size="14" font-style="italic" lengthAdjust="spacing" textLength="84" x="1157" y="1085.6113">«application»</text><text fill="#000000" font-family="sans-serif" font-size="14" lengthAdjust="spacing" textLength="195" x="1101.5" y="1101.252">:TeacherRegistrationController</text><rect fill="#E2E2F0" height="45.2813" rx="2.5" ry="2.5" style="stroke:#181818;stroke-width:0.5;" width="99" x="1313.5" y="36"/><text fill="#000000" font-family="sans-serif" font-size="14" font-style="italic" lengthAdjust="spacing" textLength="84" x="1321" y="55.6738">«application»</text><text fill="#000000" font-family="sans-serif" font-size="14" lengthAdjust="spacing" textLength="85" x="1320.5" y="71.3145">:ExamService</text><rect fill="#E2E2F0" height="45.2813" rx="2.5" ry="2.5" style="stroke:#181818;stroke-width:0.5;" width="99" x="1313.5" y="1065.9375"/><text fill="#000000" font-family="sans-serif" font-size="14" font-style="italic" lengthAdjust="spacing" textLength="84" x="1321" y="1085.6113">«application»</text><text fill="#000000" font-family="sans-serif" font-size="14" lengthAdjust="spacing" textLength="85" x="1320.5" y="1101.252">:ExamService</text><rect fill="#E2E2F0" height="45.2813" rx="2.5" ry="2.5" style="stroke:#181818;stroke-width:0.5;" width="105" x="1422.5" y="36"/><text fill="#000000" font-family="sans-serif" font-size="14" font-style="italic" lengthAdjust="spacing" textLength="84" x="1433" y="55.6738">«application»</text><text fill="#000000" font-family="sans-serif" font-size="14" lengthAdjust="spacing" textLength="91" x="1429.5" y="71.3145">:ProfileService</text><rect fill="#E2E2F0" height="45.2813" rx="2.5" ry="2.5" style="stroke:#181818;stroke-width:0.5;" width="105" x="1422.5" y="1065.9375"/><text fill="#000000" font-family="sans-serif" font-size="14" font-style="italic" lengthAdjust="spacing" textLength="84" x="1433" y="1085.6113">«application»</text><text fill="#000000" font-family="sans-serif" font-size="14" lengthAdjust="spacing" textLength="91" x="1429.5" y="1101.252">:ProfileService</text><rect fill="#E2E2F0" height="45.2813" rx="2.5" ry="2.5" style="stroke:#181818;stroke-width:0.5;" width="194" x="1537.5" y="36"/><text fill="#000000" font-family="sans-serif" font-size="14" font-style="italic" lengthAdjust="spacing" textLength="84" x="1592.5" y="55.6738">«application»</text><text fill="#000000" font-family="sans-serif" font-size="14" lengthAdjust="spacing" textLength="180" x="1544.5" y="71.3145">:TeacherRegistrationService</text><rect fill="#E2E2F0" height="45.2813" rx="2.5" ry="2.5" style="stroke:#181818;stroke-width:0.5;" width="194" x="1537.5" y="1065.9375"/><text fill="#000000" font-family="sans-serif" font-size="14" font-style="italic" lengthAdjust="spacing" textLength="84" x="1592.5" y="1085.6113">«application»</text><text fill="#000000" font-family="sans-serif" font-size="14" lengthAdjust="spacing" textLength="180" x="1544.5" y="1101.252">:TeacherRegistrationService</text><rect fill="#E2E2F0" height="45.2813" rx="2.5" ry="2.5" style="stroke:#181818;stroke-width:0.5;" width="107" x="1741.5" y="36"/><text fill="#000000" font-family="sans-serif" font-size="14" font-style="italic" lengthAdjust="spacing" textLength="62" x="1764" y="55.6738">«domain»</text><text fill="#000000" font-family="sans-serif" font-size="14" lengthAdjust="spacing" textLength="93" x="1748.5" y="71.3145">:StudentProfile</text><rect fill="#E2E2F0" height="45.2813" rx="2.5" ry="2.5" style="stroke:#181818;stroke-width:0.5;" width="107" x="1741.5" y="1065.9375"/><text fill="#000000" font-family="sans-serif" font-size="14" font-style="italic" lengthAdjust="spacing" textLength="62" x="1764" y="1085.6113">«domain»</text><text fill="#000000" font-family="sans-serif" font-size="14" lengthAdjust="spacing" textLength="93" x="1748.5" y="1101.252">:StudentProfile</text><rect fill="#E2E2F0" height="45.2813" rx="2.5" ry="2.5" style="stroke:#181818;stroke-width:0.5;" width="76" x="1858.5" y="36"/><text fill="#000000" font-family="sans-serif" font-size="14" font-style="italic" lengthAdjust="spacing" textLength="62" x="1865.5" y="55.6738">«domain»</text><text fill="#000000" font-family="sans-serif" font-size="14" lengthAdjust="spacing" textLength="34" x="1879.5" y="71.3145">Exam</text><rect fill="#E2E2F0" height="45.2813" rx="2.5" ry="2.5" style="stroke:#181818;stroke-width:0.5;" width="76" x="1858.5" y="1065.9375"/><text fill="#000000" font-family="sans-serif" font-size="14" font-style="italic" lengthAdjust="spacing" textLength="62" x="1865.5" y="1085.6113">«domain»</text><text fill="#000000" font-family="sans-serif" font-size="14" lengthAdjust="spacing" textLength="34" x="1879.5" y="1101.252">Exam</text><rect fill="#E2E2F0" height="45.2813" rx="2.5" ry="2.5" style="stroke:#181818;stroke-width:0.5;" width="76" x="1944.5" y="36"/><text fill="#000000" font-family="sans-serif" font-size="14" font-style="italic" lengthAdjust="spacing" textLength="62" x="1951.5" y="55.6738">«domain»</text><text fill="#000000" font-family="sans-serif" font-size="14" lengthAdjust="spacing" textLength="40" x="1962.5" y="71.3145">Grade</text><rect fill="#E2E2F0" height="45.2813" rx="2.5" ry="2.5" style="stroke:#181818;stroke-width:0.5;" width="76" x="1944.5" y="1065.9375"/><text fill="#000000" font-family="sans-serif" font-size="14" font-style="italic" lengthAdjust="spacing" textLength="62" x="1951.5" y="1085.6113">«domain»</text><text fill="#000000" font-family="sans-serif" font-size="14" lengthAdjust="spacing" textLength="40" x="1962.5" y="1101.252">Grade</text><rect fill="#E2E2F0" height="29.6406" rx="2.5" ry="2.5" style="stroke:#181818;stroke-width:0.5;" width="136" x="2030.5" y="51.6406"/><text fill="#000000" font-family="sans-serif" font-size="14" lengthAdjust="spacing" textLength="122" x="2037.5" y="71.3145">PersistenceContext</text><rect fill="#E2E2F0" height="29.6406" rx="2.5" ry="2.5" style="stroke:#181818;stroke-width:0.5;" width="136" x="2030.5" y="1065.9375"/><text fill="#000000" font-family="sans-serif" font-size="14" lengthAdjust="spacing" textLength="122" x="2037.5" y="1085.6113">PersistenceContext</text><rect fill="#E2E2F0" height="29.6406" rx="2.5" ry="2.5" style="stroke:#181818;stroke-width:0.5;" width="130" x="2200.5" y="51.6406"/><text fill="#000000" font-family="sans-serif" font-size="14" lengthAdjust="spacing" textLength="116" x="2207.5" y="71.3145">RepositoryFactory</text><rect fill="#E2E2F0" height="29.6406" rx="2.5" ry="2.5" style="stroke:#181818;stroke-width:0.5;" width="130" x="2200.5" y="1065.9375"/><text fill="#000000" font-family="sans-serif" font-size="14" lengthAdjust="spacing" textLength="116" x="2207.5" y="1085.6113">RepositoryFactory</text><text fill="#000000" font-family="sans-serif" font-size="14" font-style="italic" lengthAdjust="spacing" textLength="79" x="2357" y="63.6738">«repository»</text><text fill="#000000" font-family="sans-serif" font-size="14" lengthAdjust="spacing" textLength="112" x="2340.5" y="79.3145">:ProfileRepository</text><path d="M2381.5,15 C2381.5,5 2399.5,5 2399.5,5 C2399.5,5 2417.5,5 2417.5,15 L2417.5,41 C2417.5,51 2399.5,51 2399.5,51 C2399.5,51 2381.5,51 2381.5,41 L2381.5,15 " fill="#E2E2F0" style="stroke:#181818;stroke-width:1.5;"/><path d="M2381.5,15 C2381.5,25 2399.5,25 2399.5,25 C2399.5,25 2417.5,25 2417.5,15 " fill="none" style="stroke:#181818;stroke-width:1.5;"/><text fill="#000000" font-family="sans-serif" font-size="14" font-style="italic" lengthAdjust="spacing" textLength="79" x="2357" y="1078.6113">«repository»</text><text fill="#000000" font-family="sans-serif" font-size="14" lengthAdjust="spacing" textLength="112" x="2340.5" y="1094.252">:ProfileRepository</text><path d="M2381.5,1107.2188 C2381.5,1097.2188 2399.5,1097.2188 2399.5,1097.2188 C2399.5,1097.2188 2417.5,1097.2188 2417.5,1107.2188 L2417.5,1133.2188 C2417.5,1143.2188 2399.5,1143.2188 2399.5,1143.2188 C2399.5,1143.2188 2381.5,1143.2188 2381.5,1133.2188 L2381.5,1107.2188 " fill="#E2E2F0" style="stroke:#181818;stroke-width:1.5;"/><path d="M2381.5,1107.2188 C2381.5,1117.2188 2399.5,1117.2188 2399.5,1117.2188 C2399.5,1117.2188 2417.5,1117.2188 2417.5,1107.2188 " fill="none" style="stroke:#181818;stroke-width:1.5;"/><text fill="#000000" font-family="sans-serif" font-size="14" font-style="italic" lengthAdjust="spacing" textLength="79" x="2482" y="63.6738">«repository»</text><text fill="#000000" font-family="sans-serif" font-size="14" lengthAdjust="spacing" textLength="106" x="2468.5" y="79.3145">:ExamRepository</text><path d="M2506.5,15 C2506.5,5 2524.5,5 2524.5,5 C2524.5,5 2542.5,5 2542.5,15 L2542.5,41 C2542.5,51 2524.5,51 2524.5,51 C2524.5,51 2506.5,51 2506.5,41 L2506.5,15 " fill="#E2E2F0" style="stroke:#181818;stroke-width:1.5;"/><path d="M2506.5,15 C2506.5,25 2524.5,25 2524.5,25 C2524.5,25 2542.5,25 2542.5,15 " fill="none" style="stroke:#181818;stroke-width:1.5;"/><text fill="#000000" font-family="sans-serif" font-size="14" font-style="italic" lengthAdjust="spacing" textLength="79" x="2482" y="1078.6113">«repository»</text><text fill="#000000" font-family="sans-serif" font-size="14" lengthAdjust="spacing" textLength="106" x="2468.5" y="1094.252">:ExamRepository</text><path d="M2506.5,1107.2188 C2506.5,1097.2188 2524.5,1097.2188 2524.5,1097.2188 C2524.5,1097.2188 2542.5,1097.2188 2542.5,1107.2188 L2542.5,1133.2188 C2542.5,1143.2188 2524.5,1143.2188 2524.5,1143.2188 C2524.5,1143.2188 2506.5,1143.2188 2506.5,1133.2188 L2506.5,1107.2188 " fill="#E2E2F0" style="stroke:#181818;stroke-width:1.5;"/><path d="M2506.5,1107.2188 C2506.5,1117.2188 2524.5,1117.2188 2524.5,1117.2188 C2524.5,1117.2188 2542.5,1117.2188 2542.5,1107.2188 " fill="none" style="stroke:#181818;stroke-width:1.5;"/><text fill="#000000" font-family="sans-serif" font-size="14" font-style="italic" lengthAdjust="spacing" textLength="79" x="2651.5" y="63.6738">«repository»</text><text fill="#000000" font-family="sans-serif" font-size="14" lengthAdjust="spacing" textLength="201" x="2590.5" y="79.3145">:TeacherRegistrationRepository</text><path d="M2676,15 C2676,5 2694,5 2694,5 C2694,5 2712,5 2712,15 L2712,41 C2712,51 2694,51 2694,51 C2694,51 2676,51 2676,41 L2676,15 " fill="#E2E2F0" style="stroke:#181818;stroke-width:1.5;"/><path d="M2676,15 C2676,25 2694,25 2694,25 C2694,25 2712,25 2712,15 " fill="none" style="stroke:#181818;stroke-width:1.5;"/><text fill="#000000" font-family="sans-serif" font-size="14" font-style="italic" lengthAdjust="spacing" textLength="79" x="2651.5" y="1078.6113">«repository»</text><text fill="#000000" font-family="sans-serif" font-size="14" lengthAdjust="spacing" textLength="201" x="2590.5" y="1094.252">:TeacherRegistrationRepository</text><path d="M2676,1107.2188 C2676,1097.2188 2694,1097.2188 2694,1097.2188 C2694,1097.2188 2712,1097.2188 2712,1107.2188 L2712,1133.2188 C2712,1143.2188 2694,1143.2188 2694,1143.2188 C2694,1143.2188 2676,1143.2188 2676,1133.2188 L2676,1107.2188 " fill="#E2E2F0" style="stroke:#181818;stroke-width:1.5;"/><path d="M2676,1107.2188 C2676,1117.2188 2694,1117.2188 2694,1117.2188 C2694,1117.2188 2712,1117.2188 2712,1107.2188 " fill="none" style="stroke:#181818;stroke-width:1.5;"/><rect fill="#E2E2F0" height="29.6406" rx="2.5" ry="2.5" style="stroke:#181818;stroke-width:0.5;" width="101" x="2807.5" y="51.6406"/><text fill="#000000" font-family="sans-serif" font-size="14" lengthAdjust="spacing" textLength="87" x="2814.5" y="71.3145">studentProfile</text><rect fill="#E2E2F0" height="29.6406" rx="2.5" ry="2.5" style="stroke:#181818;stroke-width:0.5;" width="101" x="2807.5" y="1065.9375"/><text fill="#000000" font-family="sans-serif" font-size="14" lengthAdjust="spacing" textLength="87" x="2814.5" y="1085.6113">studentProfile</text><rect fill="#FFFFFF" height="965.6563" style="stroke:#181818;stroke-width:1.0;" width="10" x="44.5" y="92.2813"/><rect fill="#FFFFFF" height="57.0469" style="stroke:#181818;stroke-width:1.0;" width="10" x="263.5" y="112.8047"/><rect fill="#FFFFFF" height="28.5234" style="stroke:#181818;stroke-width:1.0;" width="10" x="394.5" y="141.3281"/><rect fill="#FFFFFF" height="888.0859" style="stroke:#181818;stroke-width:1.0;" width="10" x="530.5" y="169.8516"/><rect fill="#FFFFFF" height="427.2813" style="stroke:#181818;stroke-width:1.0;" width="10" x="530.5" y="169.8516"/><rect fill="#FFFFFF" height="431.2813" style="stroke:#181818;stroke-width:1.0;" width="10" x="530.5" y="625.6563"/><rect fill="#FFFFFF" height="174.0938" style="stroke:#181818;stroke-width:1.0;" width="10" x="1019.5" y="654.1797"/><rect fill="#FFFFFF" height="208.6172" style="stroke:#181818;stroke-width:1.0;" width="10" x="1194" y="198.375"/><rect fill="#FFFFFF" height="145.5703" style="stroke:#181818;stroke-width:1.0;" width="10" x="1470" y="682.7031"/><rect fill="#FFFFFF" height="180.0938" style="stroke:#181818;stroke-width:1.0;" width="10" x="1629.5" y="226.8984"/><rect fill="#FFFFFF" height="93.0469" style="stroke:#181818;stroke-width:1.0;" width="10" x="2093.5" y="255.4219"/><rect fill="#FFFFFF" height="58.5234" style="stroke:#181818;stroke-width:1.0;" width="10" x="2093.5" y="711.2266"/><rect fill="#FFFFFF" height="30" style="stroke:#181818;stroke-width:1.0;" width="10" x="2260.5" y="318.4688"/><rect fill="#FFFFFF" height="30" style="stroke:#181818;stroke-width:1.0;" width="10" x="2260.5" y="739.75"/><rect fill="#FFFFFF" height="30" style="stroke:#181818;stroke-width:1.0;" width="10" x="2394.5" y="798.2734"/><rect fill="#FFFFFF" height="30" style="stroke:#181818;stroke-width:1.0;" width="10" x="2689" y="376.9922"/><polygon fill="#181818" points="251.5,108.8047,261.5,112.8047,251.5,116.8047,255.5,112.8047" style="stroke:#181818;stroke-width:1.0;"/><line style="stroke:#181818;stroke-width:1.0;" x1="54.5" x2="257.5" y1="112.8047" y2="112.8047"/><text fill="#000000" font-family="sans-serif" font-size="13" font-weight="bold" lengthAdjust="spacing" textLength="7" x="61.5" y="108.0498">1</text><text fill="#000000" font-family="sans-serif" font-size="13" lengthAdjust="spacing" textLength="179" x="72.5" y="108.0498">requests to view course grades</text><polygon fill="#181818" points="382.5,137.3281,392.5,141.3281,382.5,145.3281,386.5,141.3281" style="stroke:#181818;stroke-width:1.0;"/><line style="stroke:#181818;stroke-width:1.0;" x1="273.5" x2="388.5" y1="141.3281" y2="141.3281"/><text fill="#000000" font-family="sans-serif" font-size="13" font-weight="bold" lengthAdjust="spacing" textLength="7" x="280.5" y="136.5732">2</text><text fill="#000000" font-family="sans-serif" font-size="13" lengthAdjust="spacing" textLength="54" x="291.5" y="136.5732">execute()</text><polygon fill="#181818" points="518.5,165.8516,528.5,169.8516,518.5,173.8516,522.5,169.8516" style="stroke:#181818;stroke-width:1.0;"/><line style="stroke:#181818;stroke-width:1.0;" x1="399.5" x2="524.5" y1="169.8516" y2="169.8516"/><text fill="#000000" font-family="sans-serif" font-size="13" font-weight="bold" lengthAdjust="spacing" textLength="7" x="406.5" y="165.0967">3</text><text fill="#000000" font-family="sans-serif" font-size="13" lengthAdjust="spacing" textLength="54" x="417.5" y="165.0967">doShow()</text><polygon fill="#181818" points="1182,194.375,1192,198.375,1182,202.375,1186,198.375" style="stroke:#181818;stroke-width:1.0;"/><line style="stroke:#181818;stroke-width:1.0;" x1="540.5" x2="1188" y1="198.375" y2="198.375"/><text fill="#000000" font-family="sans-serif" font-size="13" font-weight="bold" lengthAdjust="spacing" textLength="7" x="547.5" y="193.6201">4</text><text fill="#000000" font-family="sans-serif" font-size="13" lengthAdjust="spacing" textLength="297" x="558.5" y="193.6201">teacherRegistrationList = getTeacherRegistrations()</text><polygon fill="#181818" points="1617.5,222.8984,1627.5,226.8984,1617.5,230.8984,1621.5,226.8984" style="stroke:#181818;stroke-width:1.0;"/><line style="stroke:#181818;stroke-width:1.0;" x1="1204" x2="1623.5" y1="226.8984" y2="226.8984"/><text fill="#000000" font-family="sans-serif" font-size="13" font-weight="bold" lengthAdjust="spacing" textLength="7" x="1211" y="222.1436">5</text><text fill="#000000" font-family="sans-serif" font-size="13" lengthAdjust="spacing" textLength="41" x="1222" y="222.1436">getAll()</text><polygon fill="#181818" points="2081.5,251.4219,2091.5,255.4219,2081.5,259.4219,2085.5,255.4219" style="stroke:#181818;stroke-width:1.0;"/><line style="stroke:#181818;stroke-width:1.0;" x1="1639.5" x2="2087.5" y1="255.4219" y2="255.4219"/><text fill="#000000" font-family="sans-serif" font-size="13" font-weight="bold" lengthAdjust="spacing" textLength="7" x="1646.5" y="250.667">6</text><text fill="#000000" font-family="sans-serif" font-size="13" lengthAdjust="spacing" textLength="75" x="1657.5" y="250.667">repositories()</text><path d="M2108,268.4219 L2108,292.4219 L2373,292.4219 L2373,278.4219 L2363,268.4219 L2108,268.4219 " fill="#FEFFDD" style="stroke:#181818;stroke-width:0.5;"/><path d="M2363,268.4219 L2363,278.4219 L2373,278.4219 L2363,268.4219 " fill="#FEFFDD" style="stroke:#181818;stroke-width:0.5;"/><text fill="#000000" font-family="sans-serif" font-size="13" lengthAdjust="spacing" textLength="244" x="2114" y="285.1904">repository can be either in memory or JPA</text><polygon fill="#181818" points="2248.5,314.4688,2258.5,318.4688,2248.5,322.4688,2252.5,318.4688" style="stroke:#181818;stroke-width:1.0;"/><line style="stroke:#181818;stroke-width:1.0;" x1="2103.5" x2="2254.5" y1="318.4688" y2="318.4688"/><text fill="#000000" font-family="sans-serif" font-size="13" font-weight="bold" lengthAdjust="spacing" textLength="7" x="2110.5" y="313.7139">7</text><text fill="#000000" font-family="sans-serif" font-size="13" lengthAdjust="spacing" textLength="127" x="2121.5" y="313.7139">teacherRegistrations()</text><polygon fill="#181818" points="2677,372.9922,2687,376.9922,2677,380.9922,2681,376.9922" style="stroke:#181818;stroke-width:1.0;"/><line style="stroke:#181818;stroke-width:1.0;" x1="1639.5" x2="2683" y1="376.9922" y2="376.9922"/><text fill="#000000" font-family="sans-serif" font-size="13" font-weight="bold" lengthAdjust="spacing" textLength="7" x="1646.5" y="372.2373">8</text><text fill="#000000" font-family="sans-serif" font-size="13" lengthAdjust="spacing" textLength="41" x="1657.5" y="372.2373">getAll()</text><path d="M456,421.9922 L529,421.9922 L529,428.5156 L519,438.5156 L456,438.5156 L456,421.9922 " fill="#EEEEEE" style="stroke:#000000;stroke-width:1.5;"/><rect fill="none" height="88.5703" style="stroke:#000000;stroke-width:1.5;" width="479" x="456" y="421.9922"/><text fill="#000000" font-family="sans-serif" font-size="13" font-weight="bold" lengthAdjust="spacing" textLength="28" x="471" y="434.7607">loop</text><text fill="#000000" font-family="sans-serif" font-size="11" font-weight="bold" lengthAdjust="spacing" textLength="312" x="544" y="433.9502">[for each studentRegistration in teacherRegistrationList]</text><path d="M466,445.5156 L527,445.5156 L527,452.0391 L517,462.0391 L466,462.0391 L466,445.5156 " fill="#EEEEEE" style="stroke:#000000;stroke-width:1.5;"/><rect fill="none" height="58.0469" style="stroke:#000000;stroke-width:1.5;" width="459" x="466" y="445.5156"/><text fill="#000000" font-family="sans-serif" font-size="13" font-weight="bold" lengthAdjust="spacing" textLength="16" x="481" y="458.2842">alt</text><text fill="#000000" font-family="sans-serif" font-size="11" font-weight="bold" lengthAdjust="spacing" textLength="378" x="542" y="457.4736">[teacherRegistration.getTeacherProfile().equals(currentUserProfile)]</text><line style="stroke:#181818;stroke-width:1.0;" x1="540.5" x2="582.5" y1="482.5625" y2="482.5625"/><line style="stroke:#181818;stroke-width:1.0;" x1="582.5" x2="582.5" y1="482.5625" y2="495.5625"/><line style="stroke:#181818;stroke-width:1.0;" x1="541.5" x2="582.5" y1="495.5625" y2="495.5625"/><polygon fill="#181818" points="551.5,491.5625,541.5,495.5625,551.5,499.5625,547.5,495.5625" style="stroke:#181818;stroke-width:1.0;"/><text fill="#000000" font-family="sans-serif" font-size="13" font-weight="bold" lengthAdjust="spacing" textLength="7" x="547.5" y="477.8076">9</text><text fill="#000000" font-family="sans-serif" font-size="13" lengthAdjust="spacing" textLength="327" x="558.5" y="477.8076">availableCourseList.add(teacherRegistration.getCourse())</text><path d="M10,524.5625 L83,524.5625 L83,531.0859 L73,541.0859 L10,541.0859 L10,524.5625 " fill="#EEEEEE" style="stroke:#000000;stroke-width:1.5;"/><rect fill="none" height="45.0469" style="stroke:#000000;stroke-width:1.5;" width="585" x="10" y="524.5625"/><text fill="#000000" font-family="sans-serif" font-size="13" font-weight="bold" lengthAdjust="spacing" textLength="28" x="25" y="537.3311">loop</text><text fill="#000000" font-family="sans-serif" font-size="11" font-weight="bold" lengthAdjust="spacing" textLength="220" x="98" y="536.5205">[for each course in availableCourseList]</text><polygon fill="#181818" points="65.5,557.6094,55.5,561.6094,65.5,565.6094,61.5,561.6094" style="stroke:#181818;stroke-width:1.0;"/><line style="stroke:#181818;stroke-width:1.0;stroke-dasharray:2.0,2.0;" x1="59.5" x2="529.5" y1="561.6094" y2="561.6094"/><text fill="#000000" font-family="sans-serif" font-size="13" font-weight="bold" lengthAdjust="spacing" textLength="14" x="71.5" y="556.8545">10</text><text fill="#000000" font-family="sans-serif" font-size="13" lengthAdjust="spacing" textLength="135" x="89.5" y="556.8545">print course information</text><polygon fill="#181818" points="65.5,593.1328,55.5,597.1328,65.5,601.1328,61.5,597.1328" style="stroke:#181818;stroke-width:1.0;"/><line style="stroke:#181818;stroke-width:1.0;stroke-dasharray:2.0,2.0;" x1="59.5" x2="524.5" y1="597.1328" y2="597.1328"/><text fill="#000000" font-family="sans-serif" font-size="13" font-weight="bold" lengthAdjust="spacing" textLength="14" x="71.5" y="592.3779">11</text><text fill="#000000" font-family="sans-serif" font-size="13" lengthAdjust="spacing" textLength="251" x="89.5" y="592.3779">requests to choose a course to view exams</text><polygon fill="#181818" points="518.5,621.6563,528.5,625.6563,518.5,629.6563,522.5,625.6563" style="stroke:#181818;stroke-width:1.0;"/><line style="stroke:#181818;stroke-width:1.0;" x1="54.5" x2="524.5" y1="625.6563" y2="625.6563"/><text fill="#000000" font-family="sans-serif" font-size="13" font-weight="bold" lengthAdjust="spacing" textLength="14" x="61.5" y="620.9014">12</text><text fill="#000000" font-family="sans-serif" font-size="13" lengthAdjust="spacing" textLength="125" x="79.5" y="620.9014">inputs course number</text><polygon fill="#181818" points="1007.5,650.1797,1017.5,654.1797,1007.5,658.1797,1011.5,654.1797" style="stroke:#181818;stroke-width:1.0;"/><line style="stroke:#181818;stroke-width:1.0;" x1="540.5" x2="1013.5" y1="654.1797" y2="654.1797"/><text fill="#000000" font-family="sans-serif" font-size="13" font-weight="bold" lengthAdjust="spacing" textLength="14" x="547.5" y="649.4248">13</text><text fill="#000000" font-family="sans-serif" font-size="13" lengthAdjust="spacing" textLength="194" x="565.5" y="649.4248">studentList = getStudentProfiles()</text><polygon fill="#181818" points="1458,678.7031,1468,682.7031,1458,686.7031,1462,682.7031" style="stroke:#181818;stroke-width:1.0;"/><line style="stroke:#181818;stroke-width:1.0;" x1="1029.5" x2="1464" y1="682.7031" y2="682.7031"/><text fill="#000000" font-family="sans-serif" font-size="13" font-weight="bold" lengthAdjust="spacing" textLength="14" x="1036.5" y="677.9482">14</text><text fill="#000000" font-family="sans-serif" font-size="13" lengthAdjust="spacing" textLength="114" x="1054.5" y="677.9482">getStudentProfiles()</text><polygon fill="#181818" points="2081.5,707.2266,2091.5,711.2266,2081.5,715.2266,2085.5,711.2266" style="stroke:#181818;stroke-width:1.0;"/><line style="stroke:#181818;stroke-width:1.0;" x1="1480" x2="2087.5" y1="711.2266" y2="711.2266"/><text fill="#000000" font-family="sans-serif" font-size="13" font-weight="bold" lengthAdjust="spacing" textLength="14" x="1487" y="706.4717">15</text><text fill="#000000" font-family="sans-serif" font-size="13" lengthAdjust="spacing" textLength="75" x="1505" y="706.4717">repositories()</text><polygon fill="#181818" points="2248.5,735.75,2258.5,739.75,2248.5,743.75,2252.5,739.75" style="stroke:#181818;stroke-width:1.0;"/><line style="stroke:#181818;stroke-width:1.0;" x1="2103.5" x2="2254.5" y1="739.75" y2="739.75"/><text fill="#000000" font-family="sans-serif" font-size="13" font-weight="bold" lengthAdjust="spacing" textLength="14" x="2110.5" y="734.9951">16</text><text fill="#000000" font-family="sans-serif" font-size="13" lengthAdjust="spacing" textLength="49" x="2128.5" y="734.9951">profiles()</text><polygon fill="#181818" points="2382.5,794.2734,2392.5,798.2734,2382.5,802.2734,2386.5,798.2734" style="stroke:#181818;stroke-width:1.0;"/><line style="stroke:#181818;stroke-width:1.0;" x1="1363" x2="2388.5" y1="798.2734" y2="798.2734"/><text fill="#000000" font-family="sans-serif" font-size="13" font-weight="bold" lengthAdjust="spacing" textLength="14" x="1370" y="793.5186">17</text><text fill="#000000" font-family="sans-serif" font-size="13" lengthAdjust="spacing" textLength="114" x="1388" y="793.5186">getStudentProfiles()</text><path d="M446,843.2734 L519,843.2734 L519,849.7969 L509,859.7969 L446,859.7969 L446,843.2734 " fill="#EEEEEE" style="stroke:#000000;stroke-width:1.5;"/><rect fill="none" height="147.6172" style="stroke:#000000;stroke-width:1.5;" width="2472.5" x="446" y="843.2734"/><text fill="#000000" font-family="sans-serif" font-size="13" font-weight="bold" lengthAdjust="spacing" textLength="28" x="461" y="856.042">loop</text><text fill="#000000" font-family="sans-serif" font-size="11" font-weight="bold" lengthAdjust="spacing" textLength="215" x="534" y="855.2314">[for each studentProfile in studentList]</text><polygon fill="#181818" points="2846,876.3203,2856,880.3203,2846,884.3203,2850,880.3203" style="stroke:#181818;stroke-width:1.0;"/><line style="stroke:#181818;stroke-width:1.0;" x1="540.5" x2="2852" y1="880.3203" y2="880.3203"/><text fill="#000000" font-family="sans-serif" font-size="13" font-weight="bold" lengthAdjust="spacing" textLength="14" x="547.5" y="875.5654">18</text><text fill="#000000" font-family="sans-serif" font-size="13" lengthAdjust="spacing" textLength="169" x="565.5" y="875.5654">studentGrades = getGrades()</text><path d="M456,895.3203 L529,895.3203 L529,901.8438 L519,911.8438 L456,911.8438 L456,895.3203 " fill="#EEEEEE" style="stroke:#000000;stroke-width:1.5;"/><rect fill="none" height="88.5703" style="stroke:#000000;stroke-width:1.5;" width="406" x="456" y="895.3203"/><text fill="#000000" font-family="sans-serif" font-size="13" font-weight="bold" lengthAdjust="spacing" textLength="28" x="471" y="908.0889">loop</text><text fill="#000000" font-family="sans-serif" font-size="11" font-weight="bold" lengthAdjust="spacing" textLength="187" x="544" y="907.2783">[for each grade in studentGrades]</text><path d="M466,918.8438 L527,918.8438 L527,925.3672 L517,935.3672 L466,935.3672 L466,918.8438 " fill="#EEEEEE" style="stroke:#000000;stroke-width:1.5;"/><rect fill="none" height="58.0469" style="stroke:#000000;stroke-width:1.5;" width="386" x="466" y="918.8438"/><text fill="#000000" font-family="sans-serif" font-size="13" font-weight="bold" lengthAdjust="spacing" textLength="16" x="481" y="931.6123">alt</text><text fill="#000000" font-family="sans-serif" font-size="11" font-weight="bold" lengthAdjust="spacing" textLength="305" x="542" y="930.8018">[grade.getExam().getCourse().equals(choosenCourse)]</text><line style="stroke:#181818;stroke-width:1.0;" x1="540.5" x2="582.5" y1="955.8906" y2="955.8906"/><line style="stroke:#181818;stroke-width:1.0;" x1="582.5" x2="582.5" y1="955.8906" y2="968.8906"/><line style="stroke:#181818;stroke-width:1.0;" x1="541.5" x2="582.5" y1="968.8906" y2="968.8906"/><polygon fill="#181818" points="551.5,964.8906,541.5,968.8906,551.5,972.8906,547.5,968.8906" style="stroke:#181818;stroke-width:1.0;"/><text fill="#000000" font-family="sans-serif" font-size="13" font-weight="bold" lengthAdjust="spacing" textLength="14" x="547.5" y="951.1357">19</text><text fill="#000000" font-family="sans-serif" font-size="13" lengthAdjust="spacing" textLength="197" x="565.5" y="951.1357">choosenCourseGrades.add(grade)</text><path d="M10,1004.8906 L83,1004.8906 L83,1011.4141 L73,1021.4141 L10,1021.4141 L10,1004.8906 " fill="#EEEEEE" style="stroke:#000000;stroke-width:1.5;"/><rect fill="none" height="45.0469" style="stroke:#000000;stroke-width:1.5;" width="585" x="10" y="1004.8906"/><text fill="#000000" font-family="sans-serif" font-size="13" font-weight="bold" lengthAdjust="spacing" textLength="28" x="25" y="1017.6592">loop</text><text fill="#000000" font-family="sans-serif" font-size="11" font-weight="bold" lengthAdjust="spacing" textLength="233" x="98" y="1016.8486">[for each grade in choosenCourseGrades]</text><polygon fill="#181818" points="65.5,1037.9375,55.5,1041.9375,65.5,1045.9375,61.5,1041.9375" style="stroke:#181818;stroke-width:1.0;"/><line style="stroke:#181818;stroke-width:1.0;stroke-dasharray:2.0,2.0;" x1="59.5" x2="529.5" y1="1041.9375" y2="1041.9375"/><text fill="#000000" font-family="sans-serif" font-size="13" font-weight="bold" lengthAdjust="spacing" textLength="14" x="71.5" y="1037.1826">20</text><text fill="#000000" font-family="sans-serif" font-size="13" lengthAdjust="spacing" textLength="128" x="89.5" y="1037.1826">print grade information</text><!--MD5=[3f429a39cf2108a57e6cc2fe2b71f54a]
@startuml
'https://plantuml.com/sequence-diagram

autonumber

actor manager as "Teacher"

participant ":CoursesUi" as ui <<presentation>>
participant ":ViewGradesAction" as action <<application>>
participant ":ViewGradesUi" as viewUi <<presentation>>
participant ":ExamController" as controller <<application>>
participant ":ProfileController" as profController <<application>>
participant ":TeacherRegistrationController" as registController <<application>>
participant ":ExamService" as service <<application>>
participant ":ProfileService" as profService <<application>>
participant ":TeacherRegistrationService" as registService <<application>>
participant ":StudentProfile" as profile <<domain>>
participant "Exam" as exam <<domain>>
participant "Grade" as grade <<domain>>
participant PersistenceContext as persistence
participant RepositoryFactory as factory
database ":ProfileRepository" as profRepo <<repository>>
database ":ExamRepository" as repository <<repository>>
database ":TeacherRegistrationRepository" as userRepository <<repository>>



activate manager

manager -> ui : requests to view course grades
activate ui
ui -> action : execute()
activate action
action -> viewUi : doShow()
deactivate action
activate viewUi
deactivate ui
activate viewUi

viewUi -> registController : teacherRegistrationList = getTeacherRegistrations()
activate registController
registController -> registService : getAll()
activate registService
registService -> persistence : repositories()
activate persistence
note right of persistence: repository can be either in memory or JPA
persistence -> factory : teacherRegistrations()
activate factory
deactivate factory
deactivate persistence
registService -> userRepository : getAll()
activate userRepository
deactivate userRepository
deactivate registService
deactivate registController
loop for each studentRegistration in teacherRegistrationList
alt teacherRegistration.getTeacherProfile().equals(currentUserProfile)
viewUi -> viewUi : availableCourseList.add(teacherRegistration.getCourse())
end
end
loop for each course in availableCourseList
viewUi - -> manager : print course information
end
viewUi - -> manager : requests to choose a course to view exams
deactivate viewUi
manager -> viewUi : inputs course number
activate viewUi
viewUi -> profController : studentList = getStudentProfiles()
activate profController
profController -> profService : getStudentProfiles()
activate profService
profService -> persistence : repositories()
activate persistence
persistence -> factory : profiles()
activate factory
deactivate factory
deactivate persistence
service -> profRepo : getStudentProfiles()
activate profRepo
deactivate profRepo
deactivate profService
deactivate profController
loop for each studentProfile in studentList
viewUi -> studentProfile : studentGrades = getGrades()
loop for each grade in studentGrades
alt grade.getExam().getCourse().equals(choosenCourse)
viewUi -> viewUi : choosenCourseGrades.add(grade)
end
end
end
loop for each grade in choosenCourseGrades
viewUi - -> manager : print grade information
end
deactivate viewUi





@enduml

@startuml

autonumber

actor manager as "Teacher"

participant ":CoursesUi" as ui <<presentation>>
participant ":ViewGradesAction" as action <<application>>
participant ":ViewGradesUi" as viewUi <<presentation>>
participant ":ExamController" as controller <<application>>
participant ":ProfileController" as profController <<application>>
participant ":TeacherRegistrationController" as registController <<application>>
participant ":ExamService" as service <<application>>
participant ":ProfileService" as profService <<application>>
participant ":TeacherRegistrationService" as registService <<application>>
participant ":StudentProfile" as profile <<domain>>
participant "Exam" as exam <<domain>>
participant "Grade" as grade <<domain>>
participant PersistenceContext as persistence
participant RepositoryFactory as factory
database ":ProfileRepository" as profRepo <<repository>>
database ":ExamRepository" as repository <<repository>>
database ":TeacherRegistrationRepository" as userRepository <<repository>>



activate manager

manager -> ui : requests to view course grades
activate ui
ui -> action : execute()
activate action
action -> viewUi : doShow()
deactivate action
activate viewUi
deactivate ui
activate viewUi

viewUi -> registController : teacherRegistrationList = getTeacherRegistrations()
activate registController
registController -> registService : getAll()
activate registService
registService -> persistence : repositories()
activate persistence
note right of persistence: repository can be either in memory or JPA
persistence -> factory : teacherRegistrations()
activate factory
deactivate factory
deactivate persistence
registService -> userRepository : getAll()
activate userRepository
deactivate userRepository
deactivate registService
deactivate registController
loop for each studentRegistration in teacherRegistrationList
alt teacherRegistration.getTeacherProfile().equals(currentUserProfile)
viewUi -> viewUi : availableCourseList.add(teacherRegistration.getCourse())
end
end
loop for each course in availableCourseList
viewUi - -> manager : print course information
end
viewUi - -> manager : requests to choose a course to view exams
deactivate viewUi
manager -> viewUi : inputs course number
activate viewUi
viewUi -> profController : studentList = getStudentProfiles()
activate profController
profController -> profService : getStudentProfiles()
activate profService
profService -> persistence : repositories()
activate persistence
persistence -> factory : profiles()
activate factory
deactivate factory
deactivate persistence
service -> profRepo : getStudentProfiles()
activate profRepo
deactivate profRepo
deactivate profService
deactivate profController
loop for each studentProfile in studentList
viewUi -> studentProfile : studentGrades = getGrades()
loop for each grade in studentGrades
alt grade.getExam().getCourse().equals(choosenCourse)
viewUi -> viewUi : choosenCourseGrades.add(grade)
end
end
end
loop for each grade in choosenCourseGrades
viewUi - -> manager : print grade information
end
deactivate viewUi





@enduml

PlantUML version 1.2022.12(Sun Oct 23 19:12:26 WEST 2022)
(GPL source distribution)
Java Runtime: OpenJDK Runtime Environment
JVM: OpenJDK 64-Bit Server VM
Default Encoding: Cp1252
Language: en
Country: GB
--></g></svg>