<?xml version="1.0" encoding="us-ascii" standalone="no"?><svg xmlns="http://www.w3.org/2000/svg" xmlns:xlink="http://www.w3.org/1999/xlink" contentStyleType="text/css" height="995px" preserveAspectRatio="none" style="width:1296px;height:995px;background:#FFFFFF;" version="1.1" viewBox="0 0 1296 995" width="1296px" zoomAndPan="magnify"><defs/><g><rect fill="#FFFFFF" height="788.5293" style="stroke:#181818;stroke-width:1.0;" width="10" x="31" y="98.2422"/><rect fill="#FFFFFF" height="62.582" style="stroke:#181818;stroke-width:1.0;" width="10" x="283" y="121.5332"/><rect fill="#FFFFFF" height="31.291" style="stroke:#181818;stroke-width:1.0;" width="10" x="434.5" y="152.8242"/><rect fill="#FFFFFF" height="155.1641" style="stroke:#181818;stroke-width:1.0;" width="10" x="605" y="184.1152"/><rect fill="#FFFFFF" height="516.2012" style="stroke:#181818;stroke-width:1.0;" width="10" x="605" y="370.5703"/><rect fill="#FFFFFF" height="28" style="stroke:#181818;stroke-width:1.0;" width="10" x="610" y="409.8613"/><rect fill="#FFFFFF" height="92.582" style="stroke:#181818;stroke-width:1.0;" width="10" x="834" y="215.4063"/><rect fill="#FFFFFF" height="153.873" style="stroke:#181818;stroke-width:1.0;" width="10" x="834" y="692.6074"/><rect fill="#FFFFFF" height="61.291" style="stroke:#181818;stroke-width:1.0;" width="10" x="1015" y="246.6973"/><rect fill="#FFFFFF" height="61.291" style="stroke:#181818;stroke-width:1.0;" width="10" x="1015" y="785.1895"/><rect fill="#FFFFFF" height="30" style="stroke:#181818;stroke-width:1.0;" width="10" x="1118.5" y="476.1523"/><rect fill="#FFFFFF" height="30" style="stroke:#181818;stroke-width:1.0;" width="10" x="1118.5" y="723.8984"/><rect fill="#FFFFFF" height="30" style="stroke:#181818;stroke-width:1.0;" width="10" x="1228.5" y="277.9883"/><rect fill="#FFFFFF" height="30" style="stroke:#181818;stroke-width:1.0;" width="10" x="1228.5" y="816.4805"/><rect fill="none" height="63.582" style="stroke:#000000;stroke-width:1.5;" width="247.5" x="526.5" y="521.1523"/><rect fill="none" height="63.582" style="stroke:#000000;stroke-width:1.5;" width="240.5" x="526.5" y="598.7344"/><line style="stroke:#181818;stroke-width:0.5;stroke-dasharray:5.0,5.0;" x1="36" x2="36" y1="88.2422" y2="895.7715"/><line style="stroke:#181818;stroke-width:0.5;stroke-dasharray:5.0,5.0;" x1="287.5" x2="287.5" y1="88.2422" y2="895.7715"/><line style="stroke:#181818;stroke-width:0.5;stroke-dasharray:5.0,5.0;" x1="439.5" x2="439.5" y1="88.2422" y2="895.7715"/><line style="stroke:#181818;stroke-width:0.5;stroke-dasharray:5.0,5.0;" x1="609.5" x2="609.5" y1="88.2422" y2="895.7715"/><line style="stroke:#181818;stroke-width:0.5;stroke-dasharray:5.0,5.0;" x1="838.5" x2="838.5" y1="88.2422" y2="895.7715"/><line style="stroke:#181818;stroke-width:0.5;stroke-dasharray:5.0,5.0;" x1="1019.5" x2="1019.5" y1="88.2422" y2="895.7715"/><line style="stroke:#181818;stroke-width:0.5;stroke-dasharray:5.0,5.0;" x1="1123.5" x2="1123.5" y1="88.2422" y2="895.7715"/><line style="stroke:#181818;stroke-width:0.5;stroke-dasharray:5.0,5.0;" x1="1233.5" x2="1233.5" y1="88.2422" y2="895.7715"/><text fill="#000000" font-family="sans-serif" font-size="14" lengthAdjust="spacing" textLength="56" x="5" y="84.7285">Manager</text><ellipse cx="36" cy="18.1211" fill="#E2E2F0" rx="8" ry="8" style="stroke:#181818;stroke-width:0.5;"/><path d="M36,26.1211 L36,53.1211 M23,34.1211 L49,34.1211 M36,53.1211 L23,68.1211 M36,53.1211 L49,68.1211 " fill="none" style="stroke:#181818;stroke-width:0.5;"/><text fill="#000000" font-family="sans-serif" font-size="14" lengthAdjust="spacing" textLength="56" x="5" y="909.8789">Manager</text><ellipse cx="36" cy="921.8926" fill="#E2E2F0" rx="8" ry="8" style="stroke:#181818;stroke-width:0.5;"/><path d="M36,929.8926 L36,956.8926 M23,937.8926 L49,937.8926 M36,956.8926 L23,971.8926 M36,956.8926 L49,971.8926 " fill="none" style="stroke:#181818;stroke-width:0.5;"/><rect fill="#E2E2F0" height="51.2422" rx="2.5" ry="2.5" style="stroke:#181818;stroke-width:0.5;" width="109" x="233.5" y="36"/><text fill="#000000" font-family="sans-serif" font-size="14" font-style="italic" lengthAdjust="spacing" textLength="95" x="240.5" y="58.1074">&#171;presentation&#187;</text><text fill="#000000" font-family="sans-serif" font-size="14" lengthAdjust="spacing" textLength="52" x="262" y="76.7285">:UsersUI</text><rect fill="#E2E2F0" height="51.2422" rx="2.5" ry="2.5" style="stroke:#181818;stroke-width:0.5;" width="109" x="233.5" y="894.7715"/><text fill="#000000" font-family="sans-serif" font-size="14" font-style="italic" lengthAdjust="spacing" textLength="95" x="240.5" y="916.8789">&#171;presentation&#187;</text><text fill="#000000" font-family="sans-serif" font-size="14" lengthAdjust="spacing" textLength="52" x="262" y="935.5">:UsersUI</text><rect fill="#E2E2F0" height="51.2422" rx="2.5" ry="2.5" style="stroke:#181818;stroke-width:0.5;" width="174" x="352.5" y="36"/><text fill="#000000" font-family="sans-serif" font-size="14" font-style="italic" lengthAdjust="spacing" textLength="84" x="397.5" y="58.1074">&#171;application&#187;</text><text fill="#000000" font-family="sans-serif" font-size="14" lengthAdjust="spacing" textLength="160" x="359.5" y="76.7285">:OpenCloseCourseAction</text><rect fill="#E2E2F0" height="51.2422" rx="2.5" ry="2.5" style="stroke:#181818;stroke-width:0.5;" width="174" x="352.5" y="894.7715"/><text fill="#000000" font-family="sans-serif" font-size="14" font-style="italic" lengthAdjust="spacing" textLength="84" x="397.5" y="916.8789">&#171;application&#187;</text><text fill="#000000" font-family="sans-serif" font-size="14" lengthAdjust="spacing" textLength="160" x="359.5" y="935.5">:OpenCloseCourseAction</text><rect fill="#E2E2F0" height="51.2422" rx="2.5" ry="2.5" style="stroke:#181818;stroke-width:0.5;" width="147" x="536.5" y="36"/><text fill="#000000" font-family="sans-serif" font-size="14" font-style="italic" lengthAdjust="spacing" textLength="95" x="562.5" y="58.1074">&#171;presentation&#187;</text><text fill="#000000" font-family="sans-serif" font-size="14" lengthAdjust="spacing" textLength="133" x="543.5" y="76.7285">:OpenCloseCourseUI</text><rect fill="#E2E2F0" height="51.2422" rx="2.5" ry="2.5" style="stroke:#181818;stroke-width:0.5;" width="147" x="536.5" y="894.7715"/><text fill="#000000" font-family="sans-serif" font-size="14" font-style="italic" lengthAdjust="spacing" textLength="95" x="562.5" y="916.8789">&#171;presentation&#187;</text><text fill="#000000" font-family="sans-serif" font-size="14" lengthAdjust="spacing" textLength="133" x="543.5" y="935.5">:OpenCloseCourseUI</text><rect fill="#E2E2F0" height="51.2422" rx="2.5" ry="2.5" style="stroke:#181818;stroke-width:0.5;" width="197" x="740.5" y="36"/><text fill="#000000" font-family="sans-serif" font-size="14" font-style="italic" lengthAdjust="spacing" textLength="84" x="797" y="58.1074">&#171;application&#187;</text><text fill="#000000" font-family="sans-serif" font-size="14" lengthAdjust="spacing" textLength="183" x="747.5" y="76.7285">:OpenCloseCourseController</text><rect fill="#E2E2F0" height="51.2422" rx="2.5" ry="2.5" style="stroke:#181818;stroke-width:0.5;" width="197" x="740.5" y="894.7715"/><text fill="#000000" font-family="sans-serif" font-size="14" font-style="italic" lengthAdjust="spacing" textLength="84" x="797" y="916.8789">&#171;application&#187;</text><text fill="#000000" font-family="sans-serif" font-size="14" lengthAdjust="spacing" textLength="183" x="747.5" y="935.5">:OpenCloseCourseController</text><rect fill="#E2E2F0" height="51.2422" rx="2.5" ry="2.5" style="stroke:#181818;stroke-width:0.5;" width="111" x="964.5" y="36"/><text fill="#000000" font-family="sans-serif" font-size="14" font-style="italic" lengthAdjust="spacing" textLength="84" x="978" y="58.1074">&#171;application&#187;</text><text fill="#000000" font-family="sans-serif" font-size="14" lengthAdjust="spacing" textLength="97" x="971.5" y="76.7285">:CourseService</text><rect fill="#E2E2F0" height="51.2422" rx="2.5" ry="2.5" style="stroke:#181818;stroke-width:0.5;" width="111" x="964.5" y="894.7715"/><text fill="#000000" font-family="sans-serif" font-size="14" font-style="italic" lengthAdjust="spacing" textLength="84" x="978" y="916.8789">&#171;application&#187;</text><text fill="#000000" font-family="sans-serif" font-size="14" lengthAdjust="spacing" textLength="97" x="971.5" y="935.5">:CourseService</text><rect fill="#E2E2F0" height="51.2422" rx="2.5" ry="2.5" style="stroke:#181818;stroke-width:0.5;" width="76" x="1085.5" y="36"/><text fill="#000000" font-family="sans-serif" font-size="14" font-style="italic" lengthAdjust="spacing" textLength="62" x="1092.5" y="58.1074">&#171;domain&#187;</text><text fill="#000000" font-family="sans-serif" font-size="14" lengthAdjust="spacing" textLength="46" x="1100.5" y="76.7285">Course</text><rect fill="#E2E2F0" height="51.2422" rx="2.5" ry="2.5" style="stroke:#181818;stroke-width:0.5;" width="76" x="1085.5" y="894.7715"/><text fill="#000000" font-family="sans-serif" font-size="14" font-style="italic" lengthAdjust="spacing" textLength="62" x="1092.5" y="916.8789">&#171;domain&#187;</text><text fill="#000000" font-family="sans-serif" font-size="14" lengthAdjust="spacing" textLength="46" x="1100.5" y="935.5">Course</text><text fill="#000000" font-family="sans-serif" font-size="14" font-style="italic" lengthAdjust="spacing" textLength="79" x="1191" y="66.1074">&#171;repository&#187;</text><text fill="#000000" font-family="sans-serif" font-size="14" lengthAdjust="spacing" textLength="118" x="1171.5" y="84.7285">:CourseRepository</text><path d="M1215.5,15 C1215.5,5 1233.5,5 1233.5,5 C1233.5,5 1251.5,5 1251.5,15 L1251.5,41 C1251.5,51 1233.5,51 1233.5,51 C1233.5,51 1215.5,51 1215.5,41 L1215.5,15 " fill="#E2E2F0" style="stroke:#181818;stroke-width:1.5;"/><path d="M1215.5,15 C1215.5,25 1233.5,25 1233.5,25 C1233.5,25 1251.5,25 1251.5,15 " fill="none" style="stroke:#181818;stroke-width:1.5;"/><text fill="#000000" font-family="sans-serif" font-size="14" font-style="italic" lengthAdjust="spacing" textLength="79" x="1191" y="909.8789">&#171;repository&#187;</text><text fill="#000000" font-family="sans-serif" font-size="14" lengthAdjust="spacing" textLength="118" x="1171.5" y="928.5">:CourseRepository</text><path d="M1215.5,942.0137 C1215.5,932.0137 1233.5,932.0137 1233.5,932.0137 C1233.5,932.0137 1251.5,932.0137 1251.5,942.0137 L1251.5,968.0137 C1251.5,978.0137 1233.5,978.0137 1233.5,978.0137 C1233.5,978.0137 1215.5,978.0137 1215.5,968.0137 L1215.5,942.0137 " fill="#E2E2F0" style="stroke:#181818;stroke-width:1.5;"/><path d="M1215.5,942.0137 C1215.5,952.0137 1233.5,952.0137 1233.5,952.0137 C1233.5,952.0137 1251.5,952.0137 1251.5,942.0137 " fill="none" style="stroke:#181818;stroke-width:1.5;"/><rect fill="#FFFFFF" height="788.5293" style="stroke:#181818;stroke-width:1.0;" width="10" x="31" y="98.2422"/><rect fill="#FFFFFF" height="62.582" style="stroke:#181818;stroke-width:1.0;" width="10" x="283" y="121.5332"/><rect fill="#FFFFFF" height="31.291" style="stroke:#181818;stroke-width:1.0;" width="10" x="434.5" y="152.8242"/><rect fill="#FFFFFF" height="155.1641" style="stroke:#181818;stroke-width:1.0;" width="10" x="605" y="184.1152"/><rect fill="#FFFFFF" height="516.2012" style="stroke:#181818;stroke-width:1.0;" width="10" x="605" y="370.5703"/><rect fill="#FFFFFF" height="28" style="stroke:#181818;stroke-width:1.0;" width="10" x="610" y="409.8613"/><rect fill="#FFFFFF" height="92.582" style="stroke:#181818;stroke-width:1.0;" width="10" x="834" y="215.4063"/><rect fill="#FFFFFF" height="153.873" style="stroke:#181818;stroke-width:1.0;" width="10" x="834" y="692.6074"/><rect fill="#FFFFFF" height="61.291" style="stroke:#181818;stroke-width:1.0;" width="10" x="1015" y="246.6973"/><rect fill="#FFFFFF" height="61.291" style="stroke:#181818;stroke-width:1.0;" width="10" x="1015" y="785.1895"/><rect fill="#FFFFFF" height="30" style="stroke:#181818;stroke-width:1.0;" width="10" x="1118.5" y="476.1523"/><rect fill="#FFFFFF" height="30" style="stroke:#181818;stroke-width:1.0;" width="10" x="1118.5" y="723.8984"/><rect fill="#FFFFFF" height="30" style="stroke:#181818;stroke-width:1.0;" width="10" x="1228.5" y="277.9883"/><rect fill="#FFFFFF" height="30" style="stroke:#181818;stroke-width:1.0;" width="10" x="1228.5" y="816.4805"/><polygon fill="#181818" points="271,117.5332,281,121.5332,271,125.5332,275,121.5332" style="stroke:#181818;stroke-width:1.0;"/><line style="stroke:#181818;stroke-width:1.0;" x1="41" x2="277" y1="121.5332" y2="121.5332"/><text fill="#000000" font-family="sans-serif" font-size="13" font-weight="bold" lengthAdjust="spacing" textLength="7" x="48" y="116.2705">1</text><text fill="#000000" font-family="sans-serif" font-size="13" lengthAdjust="spacing" textLength="212" x="59" y="116.2705">requests to add modification course state</text><polygon fill="#181818" points="422.5,148.8242,432.5,152.8242,422.5,156.8242,426.5,152.8242" style="stroke:#181818;stroke-width:1.0;"/><line style="stroke:#181818;stroke-width:1.0;" x1="293" x2="428.5" y1="152.8242" y2="152.8242"/><text fill="#000000" font-family="sans-serif" font-size="13" font-weight="bold" lengthAdjust="spacing" textLength="7" x="300" y="147.5615">2</text><text fill="#000000" font-family="sans-serif" font-size="13" lengthAdjust="spacing" textLength="54" x="311" y="147.5615">execute()</text><polygon fill="#181818" points="593,180.1152,603,184.1152,593,188.1152,597,184.1152" style="stroke:#181818;stroke-width:1.0;"/><line style="stroke:#181818;stroke-width:1.0;" x1="439.5" x2="599" y1="184.1152" y2="184.1152"/><text fill="#000000" font-family="sans-serif" font-size="13" font-weight="bold" lengthAdjust="spacing" textLength="7" x="446.5" y="178.8525">3</text><text fill="#000000" font-family="sans-serif" font-size="13" lengthAdjust="spacing" textLength="54" x="457.5" y="178.8525">doShow()</text><polygon fill="#181818" points="822,211.4063,832,215.4063,822,219.4063,826,215.4063" style="stroke:#181818;stroke-width:1.0;"/><line style="stroke:#181818;stroke-width:1.0;" x1="615" x2="828" y1="215.4063" y2="215.4063"/><text fill="#000000" font-family="sans-serif" font-size="13" font-weight="bold" lengthAdjust="spacing" textLength="7" x="622" y="210.1436">4</text><text fill="#000000" font-family="sans-serif" font-size="13" lengthAdjust="spacing" textLength="89" x="633" y="210.1436">getAllCourses()</text><polygon fill="#181818" points="1003,242.6973,1013,246.6973,1003,250.6973,1007,246.6973" style="stroke:#181818;stroke-width:1.0;"/><line style="stroke:#181818;stroke-width:1.0;" x1="844" x2="1009" y1="246.6973" y2="246.6973"/><text fill="#000000" font-family="sans-serif" font-size="13" font-weight="bold" lengthAdjust="spacing" textLength="7" x="851" y="241.4346">5</text><text fill="#000000" font-family="sans-serif" font-size="13" lengthAdjust="spacing" textLength="89" x="862" y="241.4346">getAllCourses()</text><polygon fill="#181818" points="1216.5,273.9883,1226.5,277.9883,1216.5,281.9883,1220.5,277.9883" style="stroke:#181818;stroke-width:1.0;"/><line style="stroke:#181818;stroke-width:1.0;" x1="1025" x2="1222.5" y1="277.9883" y2="277.9883"/><text fill="#000000" font-family="sans-serif" font-size="13" font-weight="bold" lengthAdjust="spacing" textLength="7" x="1032" y="272.7256">6</text><text fill="#000000" font-family="sans-serif" font-size="13" lengthAdjust="spacing" textLength="89" x="1043" y="272.7256">getAllCourses()</text><polygon fill="#181818" points="52,335.2793,42,339.2793,52,343.2793,48,339.2793" style="stroke:#181818;stroke-width:1.0;"/><line style="stroke:#181818;stroke-width:1.0;" x1="46" x2="609" y1="339.2793" y2="339.2793"/><text fill="#000000" font-family="sans-serif" font-size="13" font-weight="bold" lengthAdjust="spacing" textLength="7" x="58" y="334.0166">7</text><text fill="#000000" font-family="sans-serif" font-size="13" lengthAdjust="spacing" textLength="269" x="69" y="334.0166">shows all courses and requests to choose one</text><polygon fill="#181818" points="593,366.5703,603,370.5703,593,374.5703,597,370.5703" style="stroke:#181818;stroke-width:1.0;"/><line style="stroke:#181818;stroke-width:1.0;" x1="41" x2="599" y1="370.5703" y2="370.5703"/><text fill="#000000" font-family="sans-serif" font-size="13" font-weight="bold" lengthAdjust="spacing" textLength="7" x="48" y="365.3076">8</text><text fill="#000000" font-family="sans-serif" font-size="13" lengthAdjust="spacing" textLength="67" x="59" y="365.3076">choose one</text><line style="stroke:#181818;stroke-width:1.0;" x1="620" x2="662" y1="401.8613" y2="401.8613"/><line style="stroke:#181818;stroke-width:1.0;" x1="662" x2="662" y1="401.8613" y2="414.8613"/><line style="stroke:#181818;stroke-width:1.0;" x1="621" x2="662" y1="414.8613" y2="414.8613"/><polygon fill="#181818" points="631,410.8613,621,414.8613,631,418.8613,627,414.8613" style="stroke:#181818;stroke-width:1.0;"/><text fill="#000000" font-family="sans-serif" font-size="13" font-weight="bold" lengthAdjust="spacing" textLength="7" x="627" y="396.5986">9</text><text fill="#000000" font-family="sans-serif" font-size="13" lengthAdjust="spacing" textLength="120" x="638" y="396.5986">course = get(course)</text><polygon fill="#181818" points="1106.5,472.1523,1116.5,476.1523,1106.5,480.1523,1110.5,476.1523" style="stroke:#181818;stroke-width:1.0;"/><line style="stroke:#181818;stroke-width:1.0;" x1="615" x2="1112.5" y1="476.1523" y2="476.1523"/><text fill="#000000" font-family="sans-serif" font-size="13" font-weight="bold" lengthAdjust="spacing" textLength="14" x="622" y="470.8896">10</text><text fill="#000000" font-family="sans-serif" font-size="13" lengthAdjust="spacing" textLength="178" x="640" y="470.8896">state = getEnrollementsState()</text><path d="M526.5,521.1523 L587.5,521.1523 L587.5,530.4434 L577.5,540.4434 L526.5,540.4434 L526.5,521.1523 " fill="#EEEEEE" style="stroke:#000000;stroke-width:1.5;"/><rect fill="none" height="63.582" style="stroke:#000000;stroke-width:1.5;" width="247.5" x="526.5" y="521.1523"/><text fill="#000000" font-family="sans-serif" font-size="13" font-weight="bold" lengthAdjust="spacing" textLength="16" x="541.5" y="536.1807">alt</text><text fill="#000000" font-family="sans-serif" font-size="11" font-weight="bold" lengthAdjust="spacing" textLength="107" x="602.5" y="535.0225">[state = state.OPEN]</text><line style="stroke:#181818;stroke-width:1.0;" x1="615" x2="657" y1="563.7344" y2="563.7344"/><line style="stroke:#181818;stroke-width:1.0;" x1="657" x2="657" y1="563.7344" y2="576.7344"/><line style="stroke:#181818;stroke-width:1.0;" x1="616" x2="657" y1="576.7344" y2="576.7344"/><polygon fill="#181818" points="626,572.7344,616,576.7344,626,580.7344,622,576.7344" style="stroke:#181818;stroke-width:1.0;"/><text fill="#000000" font-family="sans-serif" font-size="13" font-weight="bold" lengthAdjust="spacing" textLength="14" x="622" y="558.4717">11</text><text fill="#000000" font-family="sans-serif" font-size="13" lengthAdjust="spacing" textLength="122" x="640" y="558.4717">state = state.CLOSE</text><path d="M526.5,598.7344 L587.5,598.7344 L587.5,608.0254 L577.5,618.0254 L526.5,618.0254 L526.5,598.7344 " fill="#EEEEEE" style="stroke:#000000;stroke-width:1.5;"/><rect fill="none" height="63.582" style="stroke:#000000;stroke-width:1.5;" width="240.5" x="526.5" y="598.7344"/><text fill="#000000" font-family="sans-serif" font-size="13" font-weight="bold" lengthAdjust="spacing" textLength="16" x="541.5" y="613.7627">alt</text><text fill="#000000" font-family="sans-serif" font-size="11" font-weight="bold" lengthAdjust="spacing" textLength="115" x="602.5" y="612.6045">[state = state.CLOSE]</text><line style="stroke:#181818;stroke-width:1.0;" x1="615" x2="657" y1="641.3164" y2="641.3164"/><line style="stroke:#181818;stroke-width:1.0;" x1="657" x2="657" y1="641.3164" y2="654.3164"/><line style="stroke:#181818;stroke-width:1.0;" x1="616" x2="657" y1="654.3164" y2="654.3164"/><polygon fill="#181818" points="626,650.3164,616,654.3164,626,658.3164,622,654.3164" style="stroke:#181818;stroke-width:1.0;"/><text fill="#000000" font-family="sans-serif" font-size="13" font-weight="bold" lengthAdjust="spacing" textLength="14" x="622" y="636.0537">12</text><text fill="#000000" font-family="sans-serif" font-size="13" lengthAdjust="spacing" textLength="115" x="640" y="636.0537">state = state.OPEN</text><polygon fill="#181818" points="822,688.6074,832,692.6074,822,696.6074,826,692.6074" style="stroke:#181818;stroke-width:1.0;"/><line style="stroke:#181818;stroke-width:1.0;" x1="615" x2="828" y1="692.6074" y2="692.6074"/><text fill="#000000" font-family="sans-serif" font-size="13" font-weight="bold" lengthAdjust="spacing" textLength="14" x="622" y="687.3447">13</text><text fill="#000000" font-family="sans-serif" font-size="13" lengthAdjust="spacing" textLength="182" x="640" y="687.3447">openCloseCourse(course,state)</text><polygon fill="#181818" points="1106.5,719.8984,1116.5,723.8984,1106.5,727.8984,1110.5,723.8984" style="stroke:#181818;stroke-width:1.0;"/><line style="stroke:#181818;stroke-width:1.0;" x1="844" x2="1112.5" y1="723.8984" y2="723.8984"/><text fill="#000000" font-family="sans-serif" font-size="13" font-weight="bold" lengthAdjust="spacing" textLength="14" x="851" y="718.6357">14</text><text fill="#000000" font-family="sans-serif" font-size="13" lengthAdjust="spacing" textLength="86" x="869" y="718.6357">setState(state)</text><polygon fill="#181818" points="1003,781.1895,1013,785.1895,1003,789.1895,1007,785.1895" style="stroke:#181818;stroke-width:1.0;"/><line style="stroke:#181818;stroke-width:1.0;" x1="844" x2="1009" y1="785.1895" y2="785.1895"/><text fill="#000000" font-family="sans-serif" font-size="13" font-weight="bold" lengthAdjust="spacing" textLength="14" x="851" y="779.9268">15</text><text fill="#000000" font-family="sans-serif" font-size="13" lengthAdjust="spacing" textLength="134" x="869" y="779.9268">addNewCourse(course)</text><polygon fill="#181818" points="1216.5,812.4805,1226.5,816.4805,1216.5,820.4805,1220.5,816.4805" style="stroke:#181818;stroke-width:1.0;"/><line style="stroke:#181818;stroke-width:1.0;" x1="1025" x2="1222.5" y1="816.4805" y2="816.4805"/><text fill="#000000" font-family="sans-serif" font-size="13" font-weight="bold" lengthAdjust="spacing" textLength="14" x="1032" y="811.2178">16</text><text fill="#000000" font-family="sans-serif" font-size="13" lengthAdjust="spacing" textLength="73" x="1050" y="811.2178">save(course)</text><polygon fill="#181818" points="52,873.7715,42,877.7715,52,881.7715,48,877.7715" style="stroke:#181818;stroke-width:1.0;"/><line style="stroke:#181818;stroke-width:1.0;stroke-dasharray:2.0,2.0;" x1="46" x2="604" y1="877.7715" y2="877.7715"/><text fill="#000000" font-family="sans-serif" font-size="13" font-weight="bold" lengthAdjust="spacing" textLength="14" x="58" y="872.5088">17</text><text fill="#000000" font-family="sans-serif" font-size="13" lengthAdjust="spacing" textLength="152" x="76" y="872.5088">informs operation success</text><!--SRC=[jLHDRniX4BtpAv0lTQGclgzIIv7bGwKshchb1n1sQYEni6LOf_tt7M3PPVqLvz2J1_pUOtYFsKzxxrki5ejM2-ExHZz8somGVdTW9DpNIkoSQ1WJdRUcQrx1KIszTRmHHkp0SO5yzZtLCyPQuRoIgYKnFgjU41o-V9q5KAVuusFh0C5uuPKro-KHUjE2MMcBiBATGtYI0HMv8fR45sshbRo9tXyhq-AZXw-iySvgJPTAAddvJXE9lGLtK18Y5LDzdPTeHSC4hsqZL43MmejNGNjP_YUq5XM5y3SotB0arhWWPeXA7OI7d1PZERRxPKYa8Z95ZHwvjrpKDPTxONQGkq1o2qQLJZ4Y4RKFfEBm1sJdONutWj9_h8SGU8YWuhNTxkqReMiunXSxTCnGPp8RLABY44V5T-2Vj4xEODd8Y685WUWvaYlS7i8ob5Y5pLU88wgyqVdTV4YnDUbvl71EhU98_j50QDqxGxMf9odAlQLdpAqv4kvzB1v04Kn1Ui_waPFUo9TWnZmjxiwmppLngXYk5XvRabkRQ493uuhRi3q_KJxLPKBxGIJ-Fcn-h9yljJz5hhvjjci6fZwZalwxIIOU65GkFbSx_T3qndsEz5iUxsWN-6JDAVM2FvUcWER-6Tuc_NnW550Sph3-nnnC1a6PNzOr6FnqyPlAiPCI41dx1m00]--></g></svg>