<?xml version="1.0" encoding="UTF-8" standalone="no"?><svg xmlns="http://www.w3.org/2000/svg" xmlns:xlink="http://www.w3.org/1999/xlink" contentStyleType="text/css" height="686.7px" preserveAspectRatio="none" style="width:1955px;height:686px;background:#FFFFFF;" version="1.1" viewBox="0 0 1955 686" width="1955.8px" zoomAndPan="magnify"><defs/><g><rect fill="#FFFFFF" height="550.5609" style="stroke:#181818;stroke-width:0.6999999999999998;" width="7" x="22.75" y="64.5969"/><rect fill="#FFFFFF" height="39.9328" style="stroke:#181818;stroke-width:0.6999999999999998;" width="7" x="159.95" y="78.9633"/><rect fill="#FFFFFF" height="19.9664" style="stroke:#181818;stroke-width:0.6999999999999998;" width="7" x="256.55" y="98.9297"/><rect fill="#FFFFFF" height="496.2617" style="stroke:#181818;stroke-width:0.6999999999999998;" width="7" x="357" y="118.8961"/><rect fill="#FFFFFF" height="299.0969" style="stroke:#181818;stroke-width:0.6999999999999998;" width="7" x="357" y="118.8961"/><rect fill="#FFFFFF" height="170.8984" style="stroke:#181818;stroke-width:0.6999999999999998;" width="7" x="357" y="437.9594"/><rect fill="#FFFFFF" height="146.032" style="stroke:#181818;stroke-width:0.6999999999999998;" width="7" x="535.5" y="138.8625"/><rect fill="#FFFFFF" height="60.9328" style="stroke:#181818;stroke-width:0.6999999999999998;" width="7" x="535.5" y="527.9586"/><rect fill="#FFFFFF" height="126.0656" style="stroke:#181818;stroke-width:0.6999999999999998;" width="7" x="896.35" y="158.8289"/><rect fill="#FFFFFF" height="40.9664" style="stroke:#181818;stroke-width:0.6999999999999998;" width="7" x="896.35" y="547.925"/><rect fill="#FFFFFF" height="21" style="stroke:#181818;stroke-width:0.6999999999999998;" width="7" x="1295" y="486.9922"/><rect fill="#FFFFFF" height="65.1328" style="stroke:#181818;stroke-width:0.6999999999999998;" width="7" x="1444.1" y="178.7953"/><rect fill="#FFFFFF" height="21" style="stroke:#181818;stroke-width:0.6999999999999998;" width="7" x="1544.2" y="222.9281"/><rect fill="#FFFFFF" height="21" style="stroke:#181818;stroke-width:0.6999999999999998;" width="7" x="1743" y="263.8945"/><rect fill="#FFFFFF" height="21" style="stroke:#181818;stroke-width:0.6999999999999998;" width="7" x="1743" y="567.8914"/><rect fill="none" height="61.9992" style="stroke:#000000;stroke-width:1.0499999999999998;" width="571.2" x="302.75" y="295.3945"/><rect fill="none" height="40.6328" style="stroke:#000000;stroke-width:1.0499999999999998;" width="557.2" x="309.75" y="311.8609"/><rect fill="none" height="31.5328" style="stroke:#000000;stroke-width:1.0499999999999998;" width="397.25" x="7" y="367.1937"/><line style="stroke:#181818;stroke-width:0.3499999999999999;stroke-dasharray:5.0,5.0;" x1="25.9" x2="25.9" y1="57.5969" y2="621.4578"/><line style="stroke:#181818;stroke-width:0.3499999999999999;stroke-dasharray:5.0,5.0;" x1="163.45" x2="163.45" y1="57.5969" y2="621.4578"/><line style="stroke:#181818;stroke-width:0.3499999999999999;stroke-dasharray:5.0,5.0;" x1="260.05" x2="260.05" y1="57.5969" y2="621.4578"/><line style="stroke:#181818;stroke-width:0.3499999999999999;stroke-dasharray:5.0,5.0;" x1="356.65" x2="356.65" y1="57.5969" y2="621.4578"/><line style="stroke:#181818;stroke-width:0.3499999999999999;stroke-dasharray:5.0,5.0;" x1="539" x2="539" y1="57.5969" y2="621.4578"/><line style="stroke:#181818;stroke-width:0.3499999999999999;stroke-dasharray:5.0,5.0;" x1="645.4" x2="645.4" y1="57.5969" y2="621.4578"/><line style="stroke:#181818;stroke-width:0.3499999999999999;stroke-dasharray:5.0,5.0;" x1="767.2" x2="767.2" y1="57.5969" y2="621.4578"/><line style="stroke:#181818;stroke-width:0.3499999999999999;stroke-dasharray:5.0,5.0;" x1="899.5" x2="899.5" y1="57.5969" y2="621.4578"/><line style="stroke:#181818;stroke-width:0.3499999999999999;stroke-dasharray:5.0,5.0;" x1="995.4" x2="995.4" y1="57.5969" y2="621.4578"/><line style="stroke:#181818;stroke-width:0.3499999999999999;stroke-dasharray:5.0,5.0;" x1="1107.4" x2="1107.4" y1="57.5969" y2="621.4578"/><line style="stroke:#181818;stroke-width:0.3499999999999999;stroke-dasharray:5.0,5.0;" x1="1219.4" x2="1219.4" y1="57.5969" y2="621.4578"/><line style="stroke:#181818;stroke-width:0.3499999999999999;stroke-dasharray:5.0,5.0;" x1="1298.5" x2="1298.5" y1="57.5969" y2="621.4578"/><line style="stroke:#181818;stroke-width:0.3499999999999999;stroke-dasharray:5.0,5.0;" x1="1366.4" x2="1366.4" y1="57.5969" y2="621.4578"/><line style="stroke:#181818;stroke-width:0.3499999999999999;stroke-dasharray:5.0,5.0;" x1="1447.6" x2="1447.6" y1="57.5969" y2="621.4578"/><line style="stroke:#181818;stroke-width:0.3499999999999999;stroke-dasharray:5.0,5.0;" x1="1547.7" x2="1547.7" y1="57.5969" y2="621.4578"/><line style="stroke:#181818;stroke-width:0.3499999999999999;stroke-dasharray:5.0,5.0;" x1="1641.5" x2="1641.5" y1="57.5969" y2="621.4578"/><line style="stroke:#181818;stroke-width:0.3499999999999999;stroke-dasharray:5.0,5.0;" x1="1746.5" x2="1746.5" y1="57.5969" y2="621.4578"/><line style="stroke:#181818;stroke-width:0.3499999999999999;stroke-dasharray:5.0,5.0;" x1="1882.3" x2="1882.3" y1="57.5969" y2="621.4578"/><text fill="#000000" font-family="sans-serif" font-size="9.8" lengthAdjust="spacing" textLength="20.3" x="14" y="55.5201">User</text><ellipse cx="26.25" cy="10.5984" fill="#E2E2F0" rx="5.6" ry="5.6" style="stroke:#181818;stroke-width:0.3499999999999999;"/><path d="M26.25,16.1984 L26.25,35.0984 M17.15,21.7984 L35.35,21.7984 M26.25,35.0984 L17.15,45.5984 M26.25,35.0984 L35.35,45.5984 " fill="none" style="stroke:#181818;stroke-width:0.3499999999999999;"/><text fill="#000000" font-family="sans-serif" font-size="9.8" lengthAdjust="spacing" textLength="20.3" x="14" y="629.6295">User</text><ellipse cx="26.25" cy="637.6562" fill="#E2E2F0" rx="5.6" ry="5.6" style="stroke:#181818;stroke-width:0.3499999999999999;"/><path d="M26.25,643.2562 L26.25,662.1562 M17.15,648.8562 L35.35,648.8562 M26.25,662.1562 L17.15,672.6562 M26.25,662.1562 L35.35,672.6562 " fill="none" style="stroke:#181818;stroke-width:0.3499999999999999;"/><rect fill="#E2E2F0" height="31.6969" rx="1.75" ry="1.75" style="stroke:#181818;stroke-width:0.3499999999999999;" width="79.8" x="123.55" y="25.2"/><text fill="#000000" font-family="sans-serif" font-size="9.8" font-style="italic" lengthAdjust="spacing" textLength="66.5" x="130.2" y="38.9717">«presentation»</text><text fill="#000000" font-family="sans-serif" font-size="9.8" lengthAdjust="spacing" textLength="70" x="128.45" y="49.9201">:SharedBoardUi</text><rect fill="#E2E2F0" height="31.6969" rx="1.75" ry="1.75" style="stroke:#181818;stroke-width:0.3499999999999999;" width="79.8" x="123.55" y="620.7578"/><text fill="#000000" font-family="sans-serif" font-size="9.8" font-style="italic" lengthAdjust="spacing" textLength="66.5" x="130.2" y="634.5295">«presentation»</text><text fill="#000000" font-family="sans-serif" font-size="9.8" lengthAdjust="spacing" textLength="70" x="128.45" y="645.4779">:SharedBoardUi</text><rect fill="#E2E2F0" height="31.6969" rx="1.75" ry="1.75" style="stroke:#181818;stroke-width:0.3499999999999999;" width="99.4" x="210.35" y="25.2"/><text fill="#000000" font-family="sans-serif" font-size="9.8" font-style="italic" lengthAdjust="spacing" textLength="58.8" x="230.65" y="38.9717">«application»</text><text fill="#000000" font-family="sans-serif" font-size="9.8" lengthAdjust="spacing" textLength="89.6" x="215.25" y="49.9201">:ArchiveBoardAction</text><rect fill="#E2E2F0" height="31.6969" rx="1.75" ry="1.75" style="stroke:#181818;stroke-width:0.3499999999999999;" width="99.4" x="210.35" y="620.7578"/><text fill="#000000" font-family="sans-serif" font-size="9.8" font-style="italic" lengthAdjust="spacing" textLength="58.8" x="230.65" y="634.5295">«application»</text><text fill="#000000" font-family="sans-serif" font-size="9.8" lengthAdjust="spacing" textLength="89.6" x="215.25" y="645.4779">:ArchiveBoardAction</text><rect fill="#E2E2F0" height="31.6969" rx="1.75" ry="1.75" style="stroke:#181818;stroke-width:0.3499999999999999;" width="80.5" x="316.75" y="25.2"/><text fill="#000000" font-family="sans-serif" font-size="9.8" font-style="italic" lengthAdjust="spacing" textLength="66.5" x="323.75" y="38.9717">«presentation»</text><text fill="#000000" font-family="sans-serif" font-size="9.8" lengthAdjust="spacing" textLength="70.7" x="321.65" y="49.9201">:ArchiveBoardUi</text><rect fill="#E2E2F0" height="31.6969" rx="1.75" ry="1.75" style="stroke:#181818;stroke-width:0.3499999999999999;" width="80.5" x="316.75" y="620.7578"/><text fill="#000000" font-family="sans-serif" font-size="9.8" font-style="italic" lengthAdjust="spacing" textLength="66.5" x="323.75" y="634.5295">«presentation»</text><text fill="#000000" font-family="sans-serif" font-size="9.8" lengthAdjust="spacing" textLength="70.7" x="321.65" y="645.4779">:ArchiveBoardUi</text><rect fill="#E2E2F0" height="31.6969" rx="1.75" ry="1.75" style="stroke:#181818;stroke-width:0.3499999999999999;" width="114.8" x="481.6" y="25.2"/><text fill="#000000" font-family="sans-serif" font-size="9.8" font-style="italic" lengthAdjust="spacing" textLength="58.8" x="509.6" y="38.9717">«application»</text><text fill="#000000" font-family="sans-serif" font-size="9.8" lengthAdjust="spacing" textLength="105" x="486.5" y="49.9201">:SharedBoardController</text><rect fill="#E2E2F0" height="31.6969" rx="1.75" ry="1.75" style="stroke:#181818;stroke-width:0.3499999999999999;" width="114.8" x="481.6" y="620.7578"/><text fill="#000000" font-family="sans-serif" font-size="9.8" font-style="italic" lengthAdjust="spacing" textLength="58.8" x="509.6" y="634.5295">«application»</text><text fill="#000000" font-family="sans-serif" font-size="9.8" lengthAdjust="spacing" textLength="105" x="486.5" y="645.4779">:SharedBoardController</text><rect fill="#E2E2F0" height="31.6969" rx="1.75" ry="1.75" style="stroke:#181818;stroke-width:0.3499999999999999;" width="84" x="603.4" y="25.2"/><text fill="#000000" font-family="sans-serif" font-size="9.8" font-style="italic" lengthAdjust="spacing" textLength="58.8" x="616" y="38.9717">«application»</text><text fill="#000000" font-family="sans-serif" font-size="9.8" lengthAdjust="spacing" textLength="74.2" x="608.3" y="49.9201">:ProfileController</text><rect fill="#E2E2F0" height="31.6969" rx="1.75" ry="1.75" style="stroke:#181818;stroke-width:0.3499999999999999;" width="84" x="603.4" y="620.7578"/><text fill="#000000" font-family="sans-serif" font-size="9.8" font-style="italic" lengthAdjust="spacing" textLength="58.8" x="616" y="634.5295">«application»</text><text fill="#000000" font-family="sans-serif" font-size="9.8" lengthAdjust="spacing" textLength="74.2" x="608.3" y="645.4779">:ProfileController</text><rect fill="#E2E2F0" height="31.6969" rx="1.75" ry="1.75" style="stroke:#181818;stroke-width:0.3499999999999999;" width="146.3" x="694.4" y="25.2"/><text fill="#000000" font-family="sans-serif" font-size="9.8" font-style="italic" lengthAdjust="spacing" textLength="58.8" x="738.15" y="38.9717">«application»</text><text fill="#000000" font-family="sans-serif" font-size="9.8" lengthAdjust="spacing" textLength="136.5" x="699.3" y="49.9201">:TeacherRegistrationController</text><rect fill="#E2E2F0" height="31.6969" rx="1.75" ry="1.75" style="stroke:#181818;stroke-width:0.3499999999999999;" width="146.3" x="694.4" y="620.7578"/><text fill="#000000" font-family="sans-serif" font-size="9.8" font-style="italic" lengthAdjust="spacing" textLength="58.8" x="738.15" y="634.5295">«application»</text><text fill="#000000" font-family="sans-serif" font-size="9.8" lengthAdjust="spacing" textLength="136.5" x="699.3" y="645.4779">:TeacherRegistrationController</text><rect fill="#E2E2F0" height="31.6969" rx="1.75" ry="1.75" style="stroke:#181818;stroke-width:0.3499999999999999;" width="104.3" x="847.7" y="25.2"/><text fill="#000000" font-family="sans-serif" font-size="9.8" font-style="italic" lengthAdjust="spacing" textLength="58.8" x="870.45" y="38.9717">«application»</text><text fill="#000000" font-family="sans-serif" font-size="9.8" lengthAdjust="spacing" textLength="94.5" x="852.6" y="49.9201">:SharedBoardService</text><rect fill="#E2E2F0" height="31.6969" rx="1.75" ry="1.75" style="stroke:#181818;stroke-width:0.3499999999999999;" width="104.3" x="847.7" y="620.7578"/><text fill="#000000" font-family="sans-serif" font-size="9.8" font-style="italic" lengthAdjust="spacing" textLength="58.8" x="870.45" y="634.5295">«application»</text><text fill="#000000" font-family="sans-serif" font-size="9.8" lengthAdjust="spacing" textLength="94.5" x="852.6" y="645.4779">:SharedBoardService</text><rect fill="#E2E2F0" height="31.6969" rx="1.75" ry="1.75" style="stroke:#181818;stroke-width:0.3499999999999999;" width="73.5" x="959" y="25.2"/><text fill="#000000" font-family="sans-serif" font-size="9.8" font-style="italic" lengthAdjust="spacing" textLength="58.8" x="966.35" y="38.9717">«application»</text><text fill="#000000" font-family="sans-serif" font-size="9.8" lengthAdjust="spacing" textLength="63.7" x="963.9" y="49.9201">:ProfileService</text><rect fill="#E2E2F0" height="31.6969" rx="1.75" ry="1.75" style="stroke:#181818;stroke-width:0.3499999999999999;" width="73.5" x="959" y="620.7578"/><text fill="#000000" font-family="sans-serif" font-size="9.8" font-style="italic" lengthAdjust="spacing" textLength="58.8" x="966.35" y="634.5295">«application»</text><text fill="#000000" font-family="sans-serif" font-size="9.8" lengthAdjust="spacing" textLength="63.7" x="963.9" y="645.4779">:ProfileService</text><rect fill="#E2E2F0" height="31.6969" rx="1.75" ry="1.75" style="stroke:#181818;stroke-width:0.3499999999999999;" width="135.8" x="1039.5" y="25.2"/><text fill="#000000" font-family="sans-serif" font-size="9.8" font-style="italic" lengthAdjust="spacing" textLength="58.8" x="1078" y="38.9717">«application»</text><text fill="#000000" font-family="sans-serif" font-size="9.8" lengthAdjust="spacing" textLength="126" x="1044.4" y="49.9201">:TeacherRegistrationService</text><rect fill="#E2E2F0" height="31.6969" rx="1.75" ry="1.75" style="stroke:#181818;stroke-width:0.3499999999999999;" width="135.8" x="1039.5" y="620.7578"/><text fill="#000000" font-family="sans-serif" font-size="9.8" font-style="italic" lengthAdjust="spacing" textLength="58.8" x="1078" y="634.5295">«application»</text><text fill="#000000" font-family="sans-serif" font-size="9.8" lengthAdjust="spacing" textLength="126" x="1044.4" y="645.4779">:TeacherRegistrationService</text><rect fill="#E2E2F0" height="31.6969" rx="1.75" ry="1.75" style="stroke:#181818;stroke-width:0.3499999999999999;" width="74.9" x="1182.3" y="25.2"/><text fill="#000000" font-family="sans-serif" font-size="9.8" font-style="italic" lengthAdjust="spacing" textLength="43.4" x="1198.05" y="38.9717">«domain»</text><text fill="#000000" font-family="sans-serif" font-size="9.8" lengthAdjust="spacing" textLength="65.1" x="1187.2" y="49.9201">:StudentProfile</text><rect fill="#E2E2F0" height="31.6969" rx="1.75" ry="1.75" style="stroke:#181818;stroke-width:0.3499999999999999;" width="74.9" x="1182.3" y="620.7578"/><text fill="#000000" font-family="sans-serif" font-size="9.8" font-style="italic" lengthAdjust="spacing" textLength="43.4" x="1198.05" y="634.5295">«domain»</text><text fill="#000000" font-family="sans-serif" font-size="9.8" lengthAdjust="spacing" textLength="65.1" x="1187.2" y="645.4779">:StudentProfile</text><rect fill="#E2E2F0" height="31.6969" rx="1.75" ry="1.75" style="stroke:#181818;stroke-width:0.3499999999999999;" width="68.6" x="1264.2" y="25.2"/><text fill="#000000" font-family="sans-serif" font-size="9.8" font-style="italic" lengthAdjust="spacing" textLength="43.4" x="1276.8" y="38.9717">«domain»</text><text fill="#000000" font-family="sans-serif" font-size="9.8" lengthAdjust="spacing" textLength="58.8" x="1269.1" y="49.9201">SharedBoard</text><rect fill="#E2E2F0" height="31.6969" rx="1.75" ry="1.75" style="stroke:#181818;stroke-width:0.3499999999999999;" width="68.6" x="1264.2" y="620.7578"/><text fill="#000000" font-family="sans-serif" font-size="9.8" font-style="italic" lengthAdjust="spacing" textLength="43.4" x="1276.8" y="634.5295">«domain»</text><text fill="#000000" font-family="sans-serif" font-size="9.8" lengthAdjust="spacing" textLength="58.8" x="1269.1" y="645.4779">SharedBoard</text><rect fill="#E2E2F0" height="31.6969" rx="1.75" ry="1.75" style="stroke:#181818;stroke-width:0.3499999999999999;" width="53.2" x="1339.8" y="25.2"/><text fill="#000000" font-family="sans-serif" font-size="9.8" font-style="italic" lengthAdjust="spacing" textLength="43.4" x="1344.7" y="38.9717">«domain»</text><text fill="#000000" font-family="sans-serif" font-size="9.8" lengthAdjust="spacing" textLength="28" x="1352.4" y="49.9201">Grade</text><rect fill="#E2E2F0" height="31.6969" rx="1.75" ry="1.75" style="stroke:#181818;stroke-width:0.3499999999999999;" width="53.2" x="1339.8" y="620.7578"/><text fill="#000000" font-family="sans-serif" font-size="9.8" font-style="italic" lengthAdjust="spacing" textLength="43.4" x="1344.7" y="634.5295">«domain»</text><text fill="#000000" font-family="sans-serif" font-size="9.8" lengthAdjust="spacing" textLength="28" x="1352.4" y="645.4779">Grade</text><rect fill="#E2E2F0" height="20.7484" rx="1.75" ry="1.75" style="stroke:#181818;stroke-width:0.3499999999999999;" width="95.2" x="1400" y="36.1484"/><text fill="#000000" font-family="sans-serif" font-size="9.8" lengthAdjust="spacing" textLength="85.4" x="1404.9" y="49.9201">PersistenceContext</text><rect fill="#E2E2F0" height="20.7484" rx="1.75" ry="1.75" style="stroke:#181818;stroke-width:0.3499999999999999;" width="95.2" x="1400" y="620.7578"/><text fill="#000000" font-family="sans-serif" font-size="9.8" lengthAdjust="spacing" textLength="85.4" x="1404.9" y="634.5295">PersistenceContext</text><rect fill="#E2E2F0" height="20.7484" rx="1.75" ry="1.75" style="stroke:#181818;stroke-width:0.3499999999999999;" width="91" x="1502.2" y="36.1484"/><text fill="#000000" font-family="sans-serif" font-size="9.8" lengthAdjust="spacing" textLength="81.2" x="1507.1" y="49.9201">RepositoryFactory</text><rect fill="#E2E2F0" height="20.7484" rx="1.75" ry="1.75" style="stroke:#181818;stroke-width:0.3499999999999999;" width="91" x="1502.2" y="620.7578"/><text fill="#000000" font-family="sans-serif" font-size="9.8" lengthAdjust="spacing" textLength="81.2" x="1507.1" y="634.5295">RepositoryFactory</text><text fill="#000000" font-family="sans-serif" font-size="9.8" font-style="italic" lengthAdjust="spacing" textLength="55.3" x="1611.75" y="44.5717">«repository»</text><text fill="#000000" font-family="sans-serif" font-size="9.8" lengthAdjust="spacing" textLength="78.4" x="1600.2" y="55.5201">:ProfileRepository</text><path d="M1628.9,10.5 C1628.9,3.5 1641.5,3.5 1641.5,3.5 C1641.5,3.5 1654.1,3.5 1654.1,10.5 L1654.1,28.7 C1654.1,35.7 1641.5,35.7 1641.5,35.7 C1641.5,35.7 1628.9,35.7 1628.9,28.7 L1628.9,10.5 " fill="#E2E2F0" style="stroke:#181818;stroke-width:1.0499999999999998;"/><path d="M1628.9,10.5 C1628.9,17.5 1641.5,17.5 1641.5,17.5 C1641.5,17.5 1654.1,17.5 1654.1,10.5 " fill="none" style="stroke:#181818;stroke-width:1.0499999999999998;"/><text fill="#000000" font-family="sans-serif" font-size="9.8" font-style="italic" lengthAdjust="spacing" textLength="55.3" x="1611.75" y="629.6295">«repository»</text><text fill="#000000" font-family="sans-serif" font-size="9.8" lengthAdjust="spacing" textLength="78.4" x="1600.2" y="640.5779">:ProfileRepository</text><path d="M1628.9,649.6547 C1628.9,642.6547 1641.5,642.6547 1641.5,642.6547 C1641.5,642.6547 1654.1,642.6547 1654.1,649.6547 L1654.1,667.8547 C1654.1,674.8547 1641.5,674.8547 1641.5,674.8547 C1641.5,674.8547 1628.9,674.8547 1628.9,667.8547 L1628.9,649.6547 " fill="#E2E2F0" style="stroke:#181818;stroke-width:1.0499999999999998;"/><path d="M1628.9,649.6547 C1628.9,656.6547 1641.5,656.6547 1641.5,656.6547 C1641.5,656.6547 1654.1,656.6547 1654.1,649.6547 " fill="none" style="stroke:#181818;stroke-width:1.0499999999999998;"/><text fill="#000000" font-family="sans-serif" font-size="9.8" font-style="italic" lengthAdjust="spacing" textLength="55.3" x="1716.75" y="44.5717">«repository»</text><text fill="#000000" font-family="sans-serif" font-size="9.8" lengthAdjust="spacing" textLength="109.2" x="1689.8" y="55.5201">:SharedBoardRepository</text><path d="M1733.9,10.5 C1733.9,3.5 1746.5,3.5 1746.5,3.5 C1746.5,3.5 1759.1,3.5 1759.1,10.5 L1759.1,28.7 C1759.1,35.7 1746.5,35.7 1746.5,35.7 C1746.5,35.7 1733.9,35.7 1733.9,28.7 L1733.9,10.5 " fill="#E2E2F0" style="stroke:#181818;stroke-width:1.0499999999999998;"/><path d="M1733.9,10.5 C1733.9,17.5 1746.5,17.5 1746.5,17.5 C1746.5,17.5 1759.1,17.5 1759.1,10.5 " fill="none" style="stroke:#181818;stroke-width:1.0499999999999998;"/><text fill="#000000" font-family="sans-serif" font-size="9.8" font-style="italic" lengthAdjust="spacing" textLength="55.3" x="1716.75" y="629.6295">«repository»</text><text fill="#000000" font-family="sans-serif" font-size="9.8" lengthAdjust="spacing" textLength="109.2" x="1689.8" y="640.5779">:SharedBoardRepository</text><path d="M1733.9,649.6547 C1733.9,642.6547 1746.5,642.6547 1746.5,642.6547 C1746.5,642.6547 1759.1,642.6547 1759.1,649.6547 L1759.1,667.8547 C1759.1,674.8547 1746.5,674.8547 1746.5,674.8547 C1746.5,674.8547 1733.9,674.8547 1733.9,667.8547 L1733.9,649.6547 " fill="#E2E2F0" style="stroke:#181818;stroke-width:1.0499999999999998;"/><path d="M1733.9,649.6547 C1733.9,656.6547 1746.5,656.6547 1746.5,656.6547 C1746.5,656.6547 1759.1,656.6547 1759.1,649.6547 " fill="none" style="stroke:#181818;stroke-width:1.0499999999999998;"/><text fill="#000000" font-family="sans-serif" font-size="9.8" font-style="italic" lengthAdjust="spacing" textLength="55.3" x="1852.9" y="44.5717">«repository»</text><text fill="#000000" font-family="sans-serif" font-size="9.8" lengthAdjust="spacing" textLength="140.7" x="1810.2" y="55.5201">:TeacherRegistrationRepository</text><path d="M1870.05,10.5 C1870.05,3.5 1882.65,3.5 1882.65,3.5 C1882.65,3.5 1895.25,3.5 1895.25,10.5 L1895.25,28.7 C1895.25,35.7 1882.65,35.7 1882.65,35.7 C1882.65,35.7 1870.05,35.7 1870.05,28.7 L1870.05,10.5 " fill="#E2E2F0" style="stroke:#181818;stroke-width:1.0499999999999998;"/><path d="M1870.05,10.5 C1870.05,17.5 1882.65,17.5 1882.65,17.5 C1882.65,17.5 1895.25,17.5 1895.25,10.5 " fill="none" style="stroke:#181818;stroke-width:1.0499999999999998;"/><text fill="#000000" font-family="sans-serif" font-size="9.8" font-style="italic" lengthAdjust="spacing" textLength="55.3" x="1852.9" y="629.6295">«repository»</text><text fill="#000000" font-family="sans-serif" font-size="9.8" lengthAdjust="spacing" textLength="140.7" x="1810.2" y="640.5779">:TeacherRegistrationRepository</text><path d="M1870.05,649.6547 C1870.05,642.6547 1882.65,642.6547 1882.65,642.6547 C1882.65,642.6547 1895.25,642.6547 1895.25,649.6547 L1895.25,667.8547 C1895.25,674.8547 1882.65,674.8547 1882.65,674.8547 C1882.65,674.8547 1870.05,674.8547 1870.05,667.8547 L1870.05,649.6547 " fill="#E2E2F0" style="stroke:#181818;stroke-width:1.0499999999999998;"/><path d="M1870.05,649.6547 C1870.05,656.6547 1882.65,656.6547 1882.65,656.6547 C1882.65,656.6547 1895.25,656.6547 1895.25,649.6547 " fill="none" style="stroke:#181818;stroke-width:1.0499999999999998;"/><rect fill="#FFFFFF" height="550.5609" style="stroke:#181818;stroke-width:0.6999999999999998;" width="7" x="22.75" y="64.5969"/><rect fill="#FFFFFF" height="39.9328" style="stroke:#181818;stroke-width:0.6999999999999998;" width="7" x="159.95" y="78.9633"/><rect fill="#FFFFFF" height="19.9664" style="stroke:#181818;stroke-width:0.6999999999999998;" width="7" x="256.55" y="98.9297"/><rect fill="#FFFFFF" height="496.2617" style="stroke:#181818;stroke-width:0.6999999999999998;" width="7" x="357" y="118.8961"/><rect fill="#FFFFFF" height="299.0969" style="stroke:#181818;stroke-width:0.6999999999999998;" width="7" x="357" y="118.8961"/><rect fill="#FFFFFF" height="170.8984" style="stroke:#181818;stroke-width:0.6999999999999998;" width="7" x="357" y="437.9594"/><rect fill="#FFFFFF" height="146.032" style="stroke:#181818;stroke-width:0.6999999999999998;" width="7" x="535.5" y="138.8625"/><rect fill="#FFFFFF" height="60.9328" style="stroke:#181818;stroke-width:0.6999999999999998;" width="7" x="535.5" y="527.9586"/><rect fill="#FFFFFF" height="126.0656" style="stroke:#181818;stroke-width:0.6999999999999998;" width="7" x="896.35" y="158.8289"/><rect fill="#FFFFFF" height="40.9664" style="stroke:#181818;stroke-width:0.6999999999999998;" width="7" x="896.35" y="547.925"/><rect fill="#FFFFFF" height="21" style="stroke:#181818;stroke-width:0.6999999999999998;" width="7" x="1295" y="486.9922"/><rect fill="#FFFFFF" height="65.1328" style="stroke:#181818;stroke-width:0.6999999999999998;" width="7" x="1444.1" y="178.7953"/><rect fill="#FFFFFF" height="21" style="stroke:#181818;stroke-width:0.6999999999999998;" width="7" x="1544.2" y="222.9281"/><rect fill="#FFFFFF" height="21" style="stroke:#181818;stroke-width:0.6999999999999998;" width="7" x="1743" y="263.8945"/><rect fill="#FFFFFF" height="21" style="stroke:#181818;stroke-width:0.6999999999999998;" width="7" x="1743" y="567.8914"/><polygon fill="#181818" points="151.55,76.1633,158.55,78.9633,151.55,81.7633,154.35,78.9633" style="stroke:#181818;stroke-width:0.6999999999999998;"/><line style="stroke:#181818;stroke-width:0.6999999999999998;" x1="29.75" x2="155.75" y1="78.9633" y2="78.9633"/><text fill="#000000" font-family="sans-serif" font-size="9.1" font-weight="bold" lengthAdjust="spacing" textLength="4.9" x="34.65" y="75.6349">1</text><text fill="#000000" font-family="sans-serif" font-size="9.1" lengthAdjust="spacing" textLength="109.2" x="42.35" y="75.6349">requests to archive a board</text><polygon fill="#181818" points="248.15,96.1297,255.15,98.9297,248.15,101.7297,250.95,98.9297" style="stroke:#181818;stroke-width:0.6999999999999998;"/><line style="stroke:#181818;stroke-width:0.6999999999999998;" x1="166.95" x2="252.35" y1="98.9297" y2="98.9297"/><text fill="#000000" font-family="sans-serif" font-size="9.1" font-weight="bold" lengthAdjust="spacing" textLength="4.9" x="171.85" y="95.6013">2</text><text fill="#000000" font-family="sans-serif" font-size="9.1" lengthAdjust="spacing" textLength="37.8" x="179.55" y="95.6013">execute()</text><polygon fill="#181818" points="348.6,116.0961,355.6,118.8961,348.6,121.6961,351.4,118.8961" style="stroke:#181818;stroke-width:0.6999999999999998;"/><line style="stroke:#181818;stroke-width:0.6999999999999998;" x1="260.05" x2="352.8" y1="118.8961" y2="118.8961"/><text fill="#000000" font-family="sans-serif" font-size="9.1" font-weight="bold" lengthAdjust="spacing" textLength="4.9" x="264.95" y="115.5677">3</text><text fill="#000000" font-family="sans-serif" font-size="9.1" lengthAdjust="spacing" textLength="37.8" x="272.65" y="115.5677">doShow()</text><polygon fill="#181818" points="527.1,136.0625,534.1,138.8625,527.1,141.6625,529.9,138.8625" style="stroke:#181818;stroke-width:0.6999999999999998;"/><line style="stroke:#181818;stroke-width:0.6999999999999998;" x1="364" x2="531.3" y1="138.8625" y2="138.8625"/><text fill="#000000" font-family="sans-serif" font-size="9.1" font-weight="bold" lengthAdjust="spacing" textLength="4.9" x="368.9" y="135.5341">4</text><text fill="#000000" font-family="sans-serif" font-size="9.1" lengthAdjust="spacing" textLength="105.7" x="376.6" y="135.5341">sharedBoardList = getAll()</text><polygon fill="#181818" points="887.95,156.0289,894.95,158.8289,887.95,161.6289,890.75,158.8289" style="stroke:#181818;stroke-width:0.6999999999999998;"/><line style="stroke:#181818;stroke-width:0.6999999999999998;" x1="542.5" x2="892.15" y1="158.8289" y2="158.8289"/><text fill="#000000" font-family="sans-serif" font-size="9.1" font-weight="bold" lengthAdjust="spacing" textLength="4.9" x="547.4" y="155.5005">5</text><text fill="#000000" font-family="sans-serif" font-size="9.1" lengthAdjust="spacing" textLength="28.7" x="555.1" y="155.5005">getAll()</text><polygon fill="#181818" points="1435.7,175.9953,1442.7,178.7953,1435.7,181.5953,1438.5,178.7953" style="stroke:#181818;stroke-width:0.6999999999999998;"/><line style="stroke:#181818;stroke-width:0.6999999999999998;" x1="903.35" x2="1439.9" y1="178.7953" y2="178.7953"/><text fill="#000000" font-family="sans-serif" font-size="9.1" font-weight="bold" lengthAdjust="spacing" textLength="4.9" x="908.25" y="175.4669">6</text><text fill="#000000" font-family="sans-serif" font-size="9.1" lengthAdjust="spacing" textLength="52.5" x="915.95" y="175.4669">repositories()</text><path d="M1454.6,187.8953 L1454.6,204.6953 L1640.1,204.6953 L1640.1,194.8953 L1633.1,187.8953 L1454.6,187.8953 " fill="#FEFFDD" style="stroke:#181818;stroke-width:0.3499999999999999;"/><path d="M1633.1,187.8953 L1633.1,194.8953 L1640.1,194.8953 L1633.1,187.8953 " fill="#FEFFDD" style="stroke:#181818;stroke-width:0.3499999999999999;"/><text fill="#000000" font-family="sans-serif" font-size="9.1" lengthAdjust="spacing" textLength="170.8" x="1458.8" y="199.6333">repository can be either in memory or JPA</text><polygon fill="#181818" points="1535.8,220.1281,1542.8,222.9281,1535.8,225.7281,1538.6,222.9281" style="stroke:#181818;stroke-width:0.6999999999999998;"/><line style="stroke:#181818;stroke-width:0.6999999999999998;" x1="1451.1" x2="1540" y1="222.9281" y2="222.9281"/><text fill="#000000" font-family="sans-serif" font-size="9.1" font-weight="bold" lengthAdjust="spacing" textLength="4.9" x="1456" y="219.5997">7</text><text fill="#000000" font-family="sans-serif" font-size="9.1" lengthAdjust="spacing" textLength="61.6" x="1463.7" y="219.5997">sharedBoards()</text><polygon fill="#181818" points="1734.6,261.0945,1741.6,263.8945,1734.6,266.6945,1737.4,263.8945" style="stroke:#181818;stroke-width:0.6999999999999998;"/><line style="stroke:#181818;stroke-width:0.6999999999999998;" x1="903.35" x2="1738.8" y1="263.8945" y2="263.8945"/><text fill="#000000" font-family="sans-serif" font-size="9.1" font-weight="bold" lengthAdjust="spacing" textLength="4.9" x="908.25" y="260.5661">8</text><text fill="#000000" font-family="sans-serif" font-size="9.1" lengthAdjust="spacing" textLength="95.9" x="915.95" y="260.5661">sharedBoards = getAll()</text><path d="M302.75,295.3945 L353.85,295.3945 L353.85,299.9609 L346.85,306.9609 L302.75,306.9609 L302.75,295.3945 " fill="#EEEEEE" style="stroke:#000000;stroke-width:1.0499999999999998;"/><rect fill="none" height="61.9992" style="stroke:#000000;stroke-width:1.0499999999999998;" width="571.2" x="302.75" y="295.3945"/><text fill="#000000" font-family="sans-serif" font-size="9.1" font-weight="bold" lengthAdjust="spacing" textLength="19.6" x="313.25" y="304.3325">loop</text><text fill="#000000" font-family="sans-serif" font-size="7.7" font-weight="bold" lengthAdjust="spacing" textLength="154.7" x="364.35" y="303.7651">[for each sharedBoard in sharedBoards]</text><path d="M309.75,311.8609 L352.45,311.8609 L352.45,316.4273 L345.45,323.4273 L309.75,323.4273 L309.75,311.8609 " fill="#EEEEEE" style="stroke:#000000;stroke-width:1.0499999999999998;"/><rect fill="none" height="40.6328" style="stroke:#000000;stroke-width:1.0499999999999998;" width="557.2" x="309.75" y="311.8609"/><text fill="#000000" font-family="sans-serif" font-size="9.1" font-weight="bold" lengthAdjust="spacing" textLength="11.2" x="320.25" y="320.7989">alt</text><text fill="#000000" font-family="sans-serif" font-size="7.7" font-weight="bold" lengthAdjust="spacing" textLength="500.5" x="362.95" y="320.2315">[board.getOwner().getOwnerProfile().equals(currentUserProfile) &amp;&amp; board.getSharedBoardState().equals(SharedBoardState.OPEN]</text><line style="stroke:#181818;stroke-width:0.6999999999999998;" x1="364" x2="393.4" y1="337.7937" y2="337.7937"/><line style="stroke:#181818;stroke-width:0.6999999999999998;" x1="393.4" x2="393.4" y1="337.7937" y2="346.8937"/><line style="stroke:#181818;stroke-width:0.6999999999999998;" x1="364.7" x2="393.4" y1="346.8937" y2="346.8937"/><polygon fill="#181818" points="371.7,344.0937,364.7,346.8937,371.7,349.6937,368.9,346.8937" style="stroke:#181818;stroke-width:0.6999999999999998;"/><text fill="#000000" font-family="sans-serif" font-size="9.1" font-weight="bold" lengthAdjust="spacing" textLength="4.9" x="368.9" y="334.4653">9</text><text fill="#000000" font-family="sans-serif" font-size="9.1" lengthAdjust="spacing" textLength="101.5" x="376.6" y="334.4653">userBoardList.add(board)</text><path d="M7,367.1937 L58.1,367.1937 L58.1,371.7602 L51.1,378.7602 L7,378.7602 L7,367.1937 " fill="#EEEEEE" style="stroke:#000000;stroke-width:1.0499999999999998;"/><rect fill="none" height="31.5328" style="stroke:#000000;stroke-width:1.0499999999999998;" width="397.25" x="7" y="367.1937"/><text fill="#000000" font-family="sans-serif" font-size="9.1" font-weight="bold" lengthAdjust="spacing" textLength="19.6" x="17.5" y="376.1317">loop</text><text fill="#000000" font-family="sans-serif" font-size="7.7" font-weight="bold" lengthAdjust="spacing" textLength="128.1" x="68.6" y="375.5644">[for each board in userBoardList]</text><polygon fill="#181818" points="37.45,390.3266,30.45,393.1266,37.45,395.9266,34.65,393.1266" style="stroke:#181818;stroke-width:0.6999999999999998;"/><line style="stroke:#181818;stroke-width:0.6999999999999998;stroke-dasharray:2.0,2.0;" x1="33.25" x2="356.3" y1="393.1266" y2="393.1266"/><text fill="#000000" font-family="sans-serif" font-size="9.1" font-weight="bold" lengthAdjust="spacing" textLength="9.8" x="41.65" y="389.7981">10</text><text fill="#000000" font-family="sans-serif" font-size="9.1" lengthAdjust="spacing" textLength="89.6" x="54.25" y="389.7981">print board information</text><polygon fill="#181818" points="37.45,415.193,30.45,417.993,37.45,420.793,34.65,417.993" style="stroke:#181818;stroke-width:0.6999999999999998;"/><line style="stroke:#181818;stroke-width:0.6999999999999998;stroke-dasharray:2.0,2.0;" x1="33.25" x2="352.8" y1="417.993" y2="417.993"/><text fill="#000000" font-family="sans-serif" font-size="9.1" font-weight="bold" lengthAdjust="spacing" textLength="9.8" x="41.65" y="414.6646">11</text><text fill="#000000" font-family="sans-serif" font-size="9.1" lengthAdjust="spacing" textLength="151.9" x="54.25" y="414.6646">requests to choose a board to archive</text><polygon fill="#181818" points="348.6,435.1594,355.6,437.9594,348.6,440.7594,351.4,437.9594" style="stroke:#181818;stroke-width:0.6999999999999998;"/><line style="stroke:#181818;stroke-width:0.6999999999999998;" x1="29.75" x2="352.8" y1="437.9594" y2="437.9594"/><text fill="#000000" font-family="sans-serif" font-size="9.1" font-weight="bold" lengthAdjust="spacing" textLength="9.8" x="34.65" y="434.631">12</text><text fill="#000000" font-family="sans-serif" font-size="9.1" lengthAdjust="spacing" textLength="59.5" x="47.25" y="434.631">inputs board id</text><line style="stroke:#181818;stroke-width:0.6999999999999998;" x1="364" x2="393.4" y1="457.9258" y2="457.9258"/><line style="stroke:#181818;stroke-width:0.6999999999999998;" x1="393.4" x2="393.4" y1="457.9258" y2="467.0258"/><line style="stroke:#181818;stroke-width:0.6999999999999998;" x1="364.7" x2="393.4" y1="467.0258" y2="467.0258"/><polygon fill="#181818" points="371.7,464.2258,364.7,467.0258,371.7,469.8258,368.9,467.0258" style="stroke:#181818;stroke-width:0.6999999999999998;"/><text fill="#000000" font-family="sans-serif" font-size="9.1" font-weight="bold" lengthAdjust="spacing" textLength="9.8" x="368.9" y="454.5974">13</text><text fill="#000000" font-family="sans-serif" font-size="9.1" lengthAdjust="spacing" textLength="149.1" x="381.5" y="454.5974">state=SharedBoardState.ARCHIVED</text><polygon fill="#181818" points="1286.6,484.1922,1293.6,486.9922,1286.6,489.7922,1289.4,486.9922" style="stroke:#181818;stroke-width:0.6999999999999998;"/><line style="stroke:#181818;stroke-width:0.6999999999999998;" x1="364" x2="1290.8" y1="486.9922" y2="486.9922"/><text fill="#000000" font-family="sans-serif" font-size="9.1" font-weight="bold" lengthAdjust="spacing" textLength="9.8" x="368.9" y="483.6638">14</text><text fill="#000000" font-family="sans-serif" font-size="9.1" lengthAdjust="spacing" textLength="173.6" x="381.5" y="483.6638">choosenBoard.setSharedBoardState(state)</text><polygon fill="#181818" points="527.1,525.1586,534.1,527.9586,527.1,530.7586,529.9,527.9586" style="stroke:#181818;stroke-width:0.6999999999999998;"/><line style="stroke:#181818;stroke-width:0.6999999999999998;" x1="364" x2="531.3" y1="527.9586" y2="527.9586"/><text fill="#000000" font-family="sans-serif" font-size="9.1" font-weight="bold" lengthAdjust="spacing" textLength="9.8" x="368.9" y="524.6302">15</text><text fill="#000000" font-family="sans-serif" font-size="9.1" lengthAdjust="spacing" textLength="134.4" x="381.5" y="524.6302">saveSharedBoard(choosenBoard)</text><polygon fill="#181818" points="887.95,545.125,894.95,547.925,887.95,550.725,890.75,547.925" style="stroke:#181818;stroke-width:0.6999999999999998;"/><line style="stroke:#181818;stroke-width:0.6999999999999998;" x1="542.5" x2="892.15" y1="547.925" y2="547.925"/><text fill="#000000" font-family="sans-serif" font-size="9.1" font-weight="bold" lengthAdjust="spacing" textLength="9.8" x="547.4" y="544.5966">16</text><text fill="#000000" font-family="sans-serif" font-size="9.1" lengthAdjust="spacing" textLength="134.4" x="560" y="544.5966">saveSharedBoard(choosenBoard)</text><polygon fill="#181818" points="1734.6,565.0914,1741.6,567.8914,1734.6,570.6914,1737.4,567.8914" style="stroke:#181818;stroke-width:0.6999999999999998;"/><line style="stroke:#181818;stroke-width:0.6999999999999998;" x1="903.35" x2="1738.8" y1="567.8914" y2="567.8914"/><text fill="#000000" font-family="sans-serif" font-size="9.1" font-weight="bold" lengthAdjust="spacing" textLength="9.8" x="908.25" y="564.563">17</text><text fill="#000000" font-family="sans-serif" font-size="9.1" lengthAdjust="spacing" textLength="81.9" x="920.85" y="564.563">save(choosenBoard)</text><polygon fill="#181818" points="37.45,606.0578,30.45,608.8578,37.45,611.6578,34.65,608.8578" style="stroke:#181818;stroke-width:0.6999999999999998;"/><line style="stroke:#181818;stroke-width:0.6999999999999998;stroke-dasharray:2.0,2.0;" x1="33.25" x2="352.8" y1="608.8578" y2="608.8578"/><text fill="#000000" font-family="sans-serif" font-size="9.1" font-weight="bold" lengthAdjust="spacing" textLength="9.8" x="41.65" y="605.5294">18</text><text fill="#000000" font-family="sans-serif" font-size="9.1" lengthAdjust="spacing" textLength="106.4" x="54.25" y="605.5294">informs operation success</text><!--MD5=[807f48e124c87945c6978f00dc846c85]
@startuml
'https://plantuml.com/sequence-diagram

autonumber

actor manager as "User"

participant ":SharedBoardUi" as ui <<presentation>>
participant ":ArchiveBoardAction" as action <<application>>
participant ":ArchiveBoardUi" as viewUi <<presentation>>
participant ":SharedBoardController" as controller <<application>>
participant ":ProfileController" as profController <<application>>
participant ":TeacherRegistrationController" as registController <<application>>
participant ":SharedBoardService" as service <<application>>
participant ":ProfileService" as profService <<application>>
participant ":TeacherRegistrationService" as registService <<application>>
participant ":StudentProfile" as profile <<domain>>
participant "SharedBoard" as board <<domain>>
participant "Grade" as grade <<domain>>
participant PersistenceContext as persistence
participant RepositoryFactory as factory
database ":ProfileRepository" as profRepo <<repository>>
database ":SharedBoardRepository" as repository <<repository>>
database ":TeacherRegistrationRepository" as userRepository <<repository>>



activate manager

manager -> ui : requests to archive a board
activate ui
ui -> action : execute()
activate action
action -> viewUi : doShow()
deactivate action
activate viewUi
deactivate ui
activate viewUi

viewUi -> controller : sharedBoardList = getAll()
activate controller
controller -> service : getAll()
activate service
service -> persistence : repositories()
activate persistence
note right of persistence: repository can be either in memory or JPA
persistence -> factory : sharedBoards()
activate factory
deactivate factory
deactivate persistence
service -> repository : sharedBoards = getAll()
activate repository
deactivate repository
deactivate service
deactivate controller
loop for each sharedBoard in sharedBoards
alt board.getOwner().getOwnerProfile().equals(currentUserProfile) && board.getSharedBoardState().equals(SharedBoardState.OPEN
viewUi -> viewUi : userBoardList.add(board)
end
end
loop for each board in userBoardList
viewUi - -> manager : print board information
end
viewUi - -> manager : requests to choose a board to archive
deactivate viewUi
manager -> viewUi : inputs board id
activate viewUi
viewUi -> viewUi : state=SharedBoardState.ARCHIVED
viewUi -> board : choosenBoard.setSharedBoardState(state)
activate board
deactivate  board
viewUi -> controller : saveSharedBoard(choosenBoard)
activate controller
controller -> service : saveSharedBoard(choosenBoard)
activate service
service -> repository : save(choosenBoard)
activate repository
deactivate repository
deactivate service
deactivate controller
viewUi - -> manager : informs operation success
deactivate viewUi





@enduml

@startuml

autonumber

actor manager as "User"

participant ":SharedBoardUi" as ui <<presentation>>
participant ":ArchiveBoardAction" as action <<application>>
participant ":ArchiveBoardUi" as viewUi <<presentation>>
participant ":SharedBoardController" as controller <<application>>
participant ":ProfileController" as profController <<application>>
participant ":TeacherRegistrationController" as registController <<application>>
participant ":SharedBoardService" as service <<application>>
participant ":ProfileService" as profService <<application>>
participant ":TeacherRegistrationService" as registService <<application>>
participant ":StudentProfile" as profile <<domain>>
participant "SharedBoard" as board <<domain>>
participant "Grade" as grade <<domain>>
participant PersistenceContext as persistence
participant RepositoryFactory as factory
database ":ProfileRepository" as profRepo <<repository>>
database ":SharedBoardRepository" as repository <<repository>>
database ":TeacherRegistrationRepository" as userRepository <<repository>>



activate manager

manager -> ui : requests to archive a board
activate ui
ui -> action : execute()
activate action
action -> viewUi : doShow()
deactivate action
activate viewUi
deactivate ui
activate viewUi

viewUi -> controller : sharedBoardList = getAll()
activate controller
controller -> service : getAll()
activate service
service -> persistence : repositories()
activate persistence
note right of persistence: repository can be either in memory or JPA
persistence -> factory : sharedBoards()
activate factory
deactivate factory
deactivate persistence
service -> repository : sharedBoards = getAll()
activate repository
deactivate repository
deactivate service
deactivate controller
loop for each sharedBoard in sharedBoards
alt board.getOwner().getOwnerProfile().equals(currentUserProfile) && board.getSharedBoardState().equals(SharedBoardState.OPEN
viewUi -> viewUi : userBoardList.add(board)
end
end
loop for each board in userBoardList
viewUi - -> manager : print board information
end
viewUi - -> manager : requests to choose a board to archive
deactivate viewUi
manager -> viewUi : inputs board id
activate viewUi
viewUi -> viewUi : state=SharedBoardState.ARCHIVED
viewUi -> board : choosenBoard.setSharedBoardState(state)
activate board
deactivate  board
viewUi -> controller : saveSharedBoard(choosenBoard)
activate controller
controller -> service : saveSharedBoard(choosenBoard)
activate service
service -> repository : save(choosenBoard)
activate repository
deactivate repository
deactivate service
deactivate controller
viewUi - -> manager : informs operation success
deactivate viewUi





@enduml

PlantUML version 1.2022.12(Sun Oct 23 19:12:26 WEST 2022)
(GPL source distribution)
Java Runtime: OpenJDK Runtime Environment
JVM: OpenJDK 64-Bit Server VM
Default Encoding: Cp1252
Language: en
Country: GB
--></g></svg>