<?xml version="1.0" encoding="us-ascii" standalone="no"?><svg xmlns="http://www.w3.org/2000/svg" xmlns:xlink="http://www.w3.org/1999/xlink" contentStyleType="text/css" height="728px" preserveAspectRatio="none" style="width:1970px;height:728px;background:#FFFFFF;" version="1.1" viewBox="0 0 1970 728" width="1970px" zoomAndPan="magnify"><defs/><g><text fill="#000000" font-family="sans-serif" font-size="14" font-weight="bold" lengthAdjust="spacing" textLength="156" x="900" y="25.1074">Domain Driven Design</text><!--cluster <<aggregate>> Meeting--><g id="cluster_&lt;&lt;aggregate&gt;&gt; Meeting"><path d="M955.5,177.1348 L1106.5,177.1348 A3.75,3.75 0 0 1 1109,179.6348 L1116,201.7559 L1506.5,201.7559 A2.5,2.5 0 0 1 1509,204.2559 L1509,719.1348 A2.5,2.5 0 0 1 1506.5,721.6348 L955.5,721.6348 A2.5,2.5 0 0 1 953,719.1348 L953,179.6348 A2.5,2.5 0 0 1 955.5,177.1348 " fill="#AABBAA" style="stroke:#000000;stroke-width:1.5;"/><line style="stroke:#000000;stroke-width:1.5;" x1="953" x2="1116" y1="201.7559" y2="201.7559"/><text fill="#000000" font-family="sans-serif" font-size="14" font-weight="bold" lengthAdjust="spacing" textLength="150" x="957" y="194.2422">&#171;aggregate&#187; Meeting</text></g><!--cluster <<aggregate>> Notification--><g id="cluster_&lt;&lt;aggregate&gt;&gt; Notification"><path d="M1535.5,486.6348 L1708.5,486.6348 A3.75,3.75 0 0 1 1711,489.1348 L1718,511.2559 L1805.5,511.2559 A2.5,2.5 0 0 1 1808,513.7559 L1808,719.1348 A2.5,2.5 0 0 1 1805.5,721.6348 L1535.5,721.6348 A2.5,2.5 0 0 1 1533,719.1348 L1533,489.1348 A2.5,2.5 0 0 1 1535.5,486.6348 " fill="#AACCAA" style="stroke:#000000;stroke-width:1.5;"/><line style="stroke:#000000;stroke-width:1.5;" x1="1533" x2="1718" y1="511.2559" y2="511.2559"/><text fill="#000000" font-family="sans-serif" font-size="14" font-weight="bold" lengthAdjust="spacing" textLength="172" x="1537" y="503.7422">&#171;aggregate&#187; Notification</text></g><!--cluster <<aggregate>> Profile--><g id="cluster_&lt;&lt;aggregate&gt;&gt; Profile"><path d="M8.5,45.6348 L147.5,45.6348 A3.75,3.75 0 0 1 150,48.1348 L157,70.2559 L926.5,70.2559 A2.5,2.5 0 0 1 929,72.7559 L929,452.1348 A2.5,2.5 0 0 1 926.5,454.6348 L8.5,454.6348 A2.5,2.5 0 0 1 6,452.1348 L6,48.1348 A2.5,2.5 0 0 1 8.5,45.6348 " fill="#99B3FF" style="stroke:#000000;stroke-width:1.5;"/><line style="stroke:#000000;stroke-width:1.5;" x1="6" x2="157" y1="70.2559" y2="70.2559"/><text fill="#000000" font-family="sans-serif" font-size="14" font-weight="bold" lengthAdjust="spacing" textLength="138" x="10" y="62.7422">&#171;aggregate&#187; Profile</text></g><!--cluster <<aggregate>> User--><g id="cluster_&lt;&lt;aggregate&gt;&gt; User"><path d="M1535.5,45.6348 L1661.5,45.6348 A3.75,3.75 0 0 1 1664,48.1348 L1671,70.2559 L1960.5,70.2559 A2.5,2.5 0 0 1 1963,72.7559 L1963,460.1348 A2.5,2.5 0 0 1 1960.5,462.6348 L1535.5,462.6348 A2.5,2.5 0 0 1 1533,460.1348 L1533,48.1348 A2.5,2.5 0 0 1 1535.5,45.6348 " fill="#FFB380" style="stroke:#000000;stroke-width:1.5;"/><line style="stroke:#000000;stroke-width:1.5;" x1="1533" x2="1671" y1="70.2559" y2="70.2559"/><text fill="#000000" font-family="sans-serif" font-size="14" font-weight="bold" lengthAdjust="spacing" textLength="125" x="1537" y="62.7422">&#171;aggregate&#187; User</text></g><!--class Meeting--><g id="elem_Meeting"><rect codeLine="11" fill="#F1F1F1" height="68.543" id="Meeting" rx="2.5" ry="2.5" style="stroke:#181818;stroke-width:0.5;" width="82" x="1168" y="369.6348"/><ellipse cx="1183" cy="399.9063" fill="#ADD1B2" rx="11" ry="11" style="stroke:#181818;stroke-width:1.0;"/><path d="M1181.8594,400.7031 L1181.8594,403.2031 L1186.1875,403.2031 L1186.1875,402.2813 Q1186.1875,401.6719 1186.4219,401.4063 Q1186.6719,401.1406 1187.0469,401.1406 Q1187.4219,401.1406 1187.6563,401.4063 Q1187.8906,401.6719 1187.8906,402.2813 L1187.8906,404.9063 L1179.8906,404.9063 Q1179.2656,404.9063 1179,404.6719 Q1178.75,404.4375 1178.75,404.0469 Q1178.75,403.6719 1179.0156,403.4375 Q1179.2813,403.2031 1179.8906,403.2031 L1180.1563,403.2031 L1180.1563,396.5469 L1179.8906,396.5469 Q1179.2656,396.5469 1179,396.3125 Q1178.75,396.0781 1178.75,395.6875 Q1178.75,395.3125 1179,395.0781 Q1179.2656,394.8438 1179.8906,394.8438 L1187.5156,394.8438 L1187.5156,397.4375 Q1187.5156,398.0469 1187.2813,398.3125 Q1187.0625,398.5625 1186.6719,398.5625 Q1186.2969,398.5625 1186.0625,398.3125 Q1185.8281,398.0469 1185.8281,397.4375 L1185.8281,396.5469 L1181.8594,396.5469 L1181.8594,399 L1183.3438,399 Q1183.3438,398.3438 1183.4688,398.1563 Q1183.7344,397.75 1184.2031,397.75 Q1184.5781,397.75 1184.8125,398.0156 Q1185.0469,398.2656 1185.0469,398.875 L1185.0469,400.8438 Q1185.0469,401.3906 1184.9219,401.5781 Q1184.6563,401.9688 1184.2031,401.9688 Q1183.7344,401.9688 1183.4688,401.5625 Q1183.3438,401.375 1183.3438,400.7031 L1181.8594,400.7031 Z " fill="#000000"/><text fill="#000000" font-family="sans-serif" font-size="12" font-style="italic" lengthAdjust="spacing" textLength="35" x="1204.5" y="387.584">&#171;root&#187;</text><text fill="#000000" font-family="sans-serif" font-size="12" font-style="italic" lengthAdjust="spacing" textLength="43" x="1200.5" y="403.5449">&#171;entity&#187;</text><text fill="#000000" font-family="sans-serif" font-size="14" lengthAdjust="spacing" textLength="50" x="1197" y="421.6641">Meeting</text><line style="stroke:#181818;stroke-width:0.5;" x1="1169" x2="1249" y1="430.1777" y2="430.1777"/></g><!--class MeetingTitle--><g id="elem_MeetingTitle"><rect codeLine="14" fill="#F1F1F1" height="68.543" id="MeetingTitle" rx="2.5" ry="2.5" style="stroke:#181818;stroke-width:0.5;" width="109" x="1383.5" y="214.1348"/><ellipse cx="1398.5" cy="244.4063" fill="#B8255F" rx="11" ry="11" style="stroke:#181818;stroke-width:1.0;"/><path d="M1399.0938,247.6719 L1401.5625,241.7969 L1401.1719,241.7969 Q1400.5625,241.7969 1400.2969,241.5625 Q1400.0313,241.3281 1400.0313,240.9375 Q1400.0313,240.5625 1400.2969,240.3281 Q1400.5625,240.0938 1401.1719,240.0938 L1403.4531,240.0938 Q1404.0625,240.0938 1404.3281,240.3281 Q1404.5938,240.5625 1404.5938,240.9375 Q1404.5938,241.4063 1404.1875,241.6719 Q1404,241.7969 1403.4063,241.7969 L1399.9219,250.1563 L1398.2813,250.1563 L1394.7969,241.7969 Q1394.2031,241.7969 1394.0156,241.6719 Q1393.6094,241.4063 1393.6094,240.9375 Q1393.6094,240.5625 1393.875,240.3281 Q1394.1406,240.0938 1394.75,240.0938 L1397.0469,240.0938 Q1397.6563,240.0938 1397.9063,240.3281 Q1398.1719,240.5625 1398.1719,240.9375 Q1398.1719,241.3281 1397.9063,241.5625 Q1397.6563,241.7969 1397.0469,241.7969 L1396.6406,241.7969 L1399.0938,247.6719 Z " fill="#000000"/><text fill="#000000" font-family="sans-serif" font-size="12" font-style="italic" lengthAdjust="spacing" textLength="81" x="1410.5" y="232.084">&#171;value object&#187;</text><text fill="#000000" font-family="sans-serif" font-size="12" font-style="italic" lengthAdjust="spacing" textLength="52" x="1425" y="248.0449">&#171;unique&#187;</text><text fill="#000000" font-family="sans-serif" font-size="14" lengthAdjust="spacing" textLength="27" x="1437.5" y="266.1641">Title</text><line style="stroke:#181818;stroke-width:0.5;" x1="1384.5" x2="1491.5" y1="274.6777" y2="274.6777"/></g><!--class Duration--><g id="elem_Duration"><rect codeLine="15" fill="#F1F1F1" height="52.582" id="Duration" rx="2.5" ry="2.5" style="stroke:#181818;stroke-width:0.5;" width="109" x="1239.5" y="222.1348"/><ellipse cx="1254.5" cy="244.4258" fill="#B8255F" rx="11" ry="11" style="stroke:#181818;stroke-width:1.0;"/><path d="M1255.0938,247.6914 L1257.5625,241.8164 L1257.1719,241.8164 Q1256.5625,241.8164 1256.2969,241.582 Q1256.0313,241.3477 1256.0313,240.957 Q1256.0313,240.582 1256.2969,240.3477 Q1256.5625,240.1133 1257.1719,240.1133 L1259.4531,240.1133 Q1260.0625,240.1133 1260.3281,240.3477 Q1260.5938,240.582 1260.5938,240.957 Q1260.5938,241.4258 1260.1875,241.6914 Q1260,241.8164 1259.4063,241.8164 L1255.9219,250.1758 L1254.2813,250.1758 L1250.7969,241.8164 Q1250.2031,241.8164 1250.0156,241.6914 Q1249.6094,241.4258 1249.6094,240.957 Q1249.6094,240.582 1249.875,240.3477 Q1250.1406,240.1133 1250.75,240.1133 L1253.0469,240.1133 Q1253.6563,240.1133 1253.9063,240.3477 Q1254.1719,240.582 1254.1719,240.957 Q1254.1719,241.3477 1253.9063,241.582 Q1253.6563,241.8164 1253.0469,241.8164 L1252.6406,241.8164 L1255.0938,247.6914 Z " fill="#000000"/><text fill="#000000" font-family="sans-serif" font-size="12" font-style="italic" lengthAdjust="spacing" textLength="81" x="1266.5" y="240.084">&#171;value object&#187;</text><text fill="#000000" font-family="sans-serif" font-size="14" lengthAdjust="spacing" textLength="54" x="1280" y="258.2031">Duration</text><line style="stroke:#181818;stroke-width:0.5;" x1="1240.5" x2="1347.5" y1="266.7168" y2="266.7168"/></g><!--class Time--><g id="elem_Time"><rect codeLine="16" fill="#F1F1F1" height="52.582" id="Time" rx="2.5" ry="2.5" style="stroke:#181818;stroke-width:0.5;" width="109" x="1095.5" y="222.1348"/><ellipse cx="1110.5" cy="244.4258" fill="#B8255F" rx="11" ry="11" style="stroke:#181818;stroke-width:1.0;"/><path d="M1111.0938,247.6914 L1113.5625,241.8164 L1113.1719,241.8164 Q1112.5625,241.8164 1112.2969,241.582 Q1112.0313,241.3477 1112.0313,240.957 Q1112.0313,240.582 1112.2969,240.3477 Q1112.5625,240.1133 1113.1719,240.1133 L1115.4531,240.1133 Q1116.0625,240.1133 1116.3281,240.3477 Q1116.5938,240.582 1116.5938,240.957 Q1116.5938,241.4258 1116.1875,241.6914 Q1116,241.8164 1115.4063,241.8164 L1111.9219,250.1758 L1110.2813,250.1758 L1106.7969,241.8164 Q1106.2031,241.8164 1106.0156,241.6914 Q1105.6094,241.4258 1105.6094,240.957 Q1105.6094,240.582 1105.875,240.3477 Q1106.1406,240.1133 1106.75,240.1133 L1109.0469,240.1133 Q1109.6563,240.1133 1109.9063,240.3477 Q1110.1719,240.582 1110.1719,240.957 Q1110.1719,241.3477 1109.9063,241.582 Q1109.6563,241.8164 1109.0469,241.8164 L1108.6406,241.8164 L1111.0938,247.6914 Z " fill="#000000"/><text fill="#000000" font-family="sans-serif" font-size="12" font-style="italic" lengthAdjust="spacing" textLength="81" x="1122.5" y="240.084">&#171;value object&#187;</text><text fill="#000000" font-family="sans-serif" font-size="14" lengthAdjust="spacing" textLength="31" x="1147.5" y="258.2031">Time</text><line style="stroke:#181818;stroke-width:0.5;" x1="1096.5" x2="1203.5" y1="266.7168" y2="266.7168"/></g><!--class MeetingState--><g id="elem_MeetingState"><rect codeLine="17" fill="#F1F1F1" height="52.582" id="MeetingState" rx="2.5" ry="2.5" style="stroke:#181818;stroke-width:0.5;" width="115" x="1318.5" y="531.6348"/><ellipse cx="1333.5" cy="553.9258" fill="#B8255F" rx="11" ry="11" style="stroke:#181818;stroke-width:1.0;"/><path d="M1334.0938,557.1914 L1336.5625,551.3164 L1336.1719,551.3164 Q1335.5625,551.3164 1335.2969,551.082 Q1335.0313,550.8477 1335.0313,550.457 Q1335.0313,550.082 1335.2969,549.8477 Q1335.5625,549.6133 1336.1719,549.6133 L1338.4531,549.6133 Q1339.0625,549.6133 1339.3281,549.8477 Q1339.5938,550.082 1339.5938,550.457 Q1339.5938,550.9258 1339.1875,551.1914 Q1339,551.3164 1338.4063,551.3164 L1334.9219,559.6758 L1333.2813,559.6758 L1329.7969,551.3164 Q1329.2031,551.3164 1329.0156,551.1914 Q1328.6094,550.9258 1328.6094,550.457 Q1328.6094,550.082 1328.875,549.8477 Q1329.1406,549.6133 1329.75,549.6133 L1332.0469,549.6133 Q1332.6563,549.6133 1332.9063,549.8477 Q1333.1719,550.082 1333.1719,550.457 Q1333.1719,550.8477 1332.9063,551.082 Q1332.6563,551.3164 1332.0469,551.3164 L1331.6406,551.3164 L1334.0938,557.1914 Z " fill="#000000"/><text fill="#000000" font-family="sans-serif" font-size="12" font-style="italic" lengthAdjust="spacing" textLength="81" x="1348.5" y="549.584">&#171;value object&#187;</text><text fill="#000000" font-family="sans-serif" font-size="14" lengthAdjust="spacing" textLength="83" x="1347.5" y="567.7031">MeetingState</text><line style="stroke:#181818;stroke-width:0.5;" x1="1319.5" x2="1432.5" y1="576.2168" y2="576.2168"/></g><!--class MeetingParticipant--><g id="elem_MeetingParticipant"><rect codeLine="18" fill="#F1F1F1" height="52.582" id="MeetingParticipant" rx="2.5" ry="2.5" style="stroke:#181818;stroke-width:0.5;" width="149" x="1134.5" y="531.6348"/><ellipse cx="1149.5" cy="553.9258" fill="#ADD1B2" rx="11" ry="11" style="stroke:#181818;stroke-width:1.0;"/><path d="M1152.2656,549.8008 Q1152.4219,549.582 1152.6094,549.4727 Q1152.7969,549.3633 1153.0156,549.3633 Q1153.3906,549.3633 1153.625,549.6289 Q1153.8594,549.8789 1153.8594,550.4883 L1153.8594,551.9414 Q1153.8594,552.5508 1153.625,552.8164 Q1153.3906,553.082 1153.0156,553.082 Q1152.6719,553.082 1152.4688,552.8789 Q1152.2656,552.6914 1152.1563,552.1758 Q1152.1094,551.8164 1151.9219,551.6289 Q1151.5938,551.2539 1150.9844,551.0352 Q1150.375,550.8164 1149.75,550.8164 Q1148.9844,550.8164 1148.3438,551.1445 Q1147.7188,551.4727 1147.2188,552.2227 Q1146.7344,552.9727 1146.7344,554.0039 L1146.7344,555.0977 Q1146.7344,556.332 1147.625,557.1602 Q1148.5156,557.9727 1150.1094,557.9727 Q1151.0469,557.9727 1151.7031,557.7227 Q1152.0938,557.5664 1152.5156,557.1289 Q1152.7813,556.8633 1152.9219,556.7852 Q1153.0781,556.707 1153.2813,556.707 Q1153.6094,556.707 1153.8594,556.9727 Q1154.125,557.2227 1154.125,557.5664 Q1154.125,557.9102 1153.7813,558.3164 Q1153.2813,558.8945 1152.4844,559.2227 Q1151.4063,559.6758 1150.1094,559.6758 Q1148.5938,559.6758 1147.3906,559.0508 Q1146.4063,558.5508 1145.7188,557.4883 Q1145.0313,556.4102 1145.0313,555.1289 L1145.0313,553.9727 Q1145.0313,552.6445 1145.6406,551.5039 Q1146.2656,550.3477 1147.3594,549.7383 Q1148.4531,549.1133 1149.6875,549.1133 Q1150.4219,549.1133 1151.0625,549.2852 Q1151.7188,549.4414 1152.2656,549.8008 Z " fill="#000000"/><text fill="#000000" font-family="sans-serif" font-size="12" font-style="italic" lengthAdjust="spacing" textLength="43" x="1200.5" y="549.584">&#171;entity&#187;</text><text fill="#000000" font-family="sans-serif" font-size="14" lengthAdjust="spacing" textLength="117" x="1163.5" y="567.7031">MeetingParticipant</text><line style="stroke:#181818;stroke-width:0.5;" x1="1135.5" x2="1282.5" y1="576.2168" y2="576.2168"/></g><!--class MeetingParticipantState--><g id="elem_MeetingParticipantState"><rect codeLine="19" fill="#F1F1F1" height="52.582" id="MeetingParticipantState" rx="2.5" ry="2.5" style="stroke:#181818;stroke-width:0.5;" width="182" x="1118" y="652.6348"/><ellipse cx="1133" cy="674.9258" fill="#B8255F" rx="11" ry="11" style="stroke:#181818;stroke-width:1.0;"/><path d="M1133.5938,678.1914 L1136.0625,672.3164 L1135.6719,672.3164 Q1135.0625,672.3164 1134.7969,672.082 Q1134.5313,671.8477 1134.5313,671.457 Q1134.5313,671.082 1134.7969,670.8477 Q1135.0625,670.6133 1135.6719,670.6133 L1137.9531,670.6133 Q1138.5625,670.6133 1138.8281,670.8477 Q1139.0938,671.082 1139.0938,671.457 Q1139.0938,671.9258 1138.6875,672.1914 Q1138.5,672.3164 1137.9063,672.3164 L1134.4219,680.6758 L1132.7813,680.6758 L1129.2969,672.3164 Q1128.7031,672.3164 1128.5156,672.1914 Q1128.1094,671.9258 1128.1094,671.457 Q1128.1094,671.082 1128.375,670.8477 Q1128.6406,670.6133 1129.25,670.6133 L1131.5469,670.6133 Q1132.1563,670.6133 1132.4063,670.8477 Q1132.6719,671.082 1132.6719,671.457 Q1132.6719,671.8477 1132.4063,672.082 Q1132.1563,672.3164 1131.5469,672.3164 L1131.1406,672.3164 L1133.5938,678.1914 Z " fill="#000000"/><text fill="#000000" font-family="sans-serif" font-size="12" font-style="italic" lengthAdjust="spacing" textLength="81" x="1181.5" y="670.584">&#171;value object&#187;</text><text fill="#000000" font-family="sans-serif" font-size="14" lengthAdjust="spacing" textLength="150" x="1147" y="688.7031">MeetingParticipantState</text><line style="stroke:#181818;stroke-width:0.5;" x1="1119" x2="1299" y1="697.2168" y2="697.2168"/></g><!--class Schedule--><g id="elem_Schedule"><rect fill="#F1F1F1" height="40" id="Schedule" rx="2.5" ry="2.5" style="stroke:#181818;stroke-width:0.5;" width="91" x="969.5" y="228.6348"/><ellipse cx="984.5" cy="244.6348" fill="#ADD1B2" rx="11" ry="11" style="stroke:#181818;stroke-width:1.0;"/><path d="M987.2656,240.5098 Q987.4219,240.291 987.6094,240.1816 Q987.7969,240.0723 988.0156,240.0723 Q988.3906,240.0723 988.625,240.3379 Q988.8594,240.5879 988.8594,241.1973 L988.8594,242.6504 Q988.8594,243.2598 988.625,243.5254 Q988.3906,243.791 988.0156,243.791 Q987.6719,243.791 987.4688,243.5879 Q987.2656,243.4004 987.1563,242.8848 Q987.1094,242.5254 986.9219,242.3379 Q986.5938,241.9629 985.9844,241.7441 Q985.375,241.5254 984.75,241.5254 Q983.9844,241.5254 983.3438,241.8535 Q982.7188,242.1816 982.2188,242.9316 Q981.7344,243.6816 981.7344,244.7129 L981.7344,245.8066 Q981.7344,247.041 982.625,247.8691 Q983.5156,248.6816 985.1094,248.6816 Q986.0469,248.6816 986.7031,248.4316 Q987.0938,248.2754 987.5156,247.8379 Q987.7813,247.5723 987.9219,247.4941 Q988.0781,247.416 988.2813,247.416 Q988.6094,247.416 988.8594,247.6816 Q989.125,247.9316 989.125,248.2754 Q989.125,248.6191 988.7813,249.0254 Q988.2813,249.6035 987.4844,249.9316 Q986.4063,250.3848 985.1094,250.3848 Q983.5938,250.3848 982.3906,249.7598 Q981.4063,249.2598 980.7188,248.1973 Q980.0313,247.1191 980.0313,245.8379 L980.0313,244.6816 Q980.0313,243.3535 980.6406,242.2129 Q981.2656,241.0566 982.3594,240.4473 Q983.4531,239.8223 984.6875,239.8223 Q985.4219,239.8223 986.0625,239.9941 Q986.7188,240.1504 987.2656,240.5098 Z " fill="#000000"/><text fill="#000000" font-family="sans-serif" font-size="14" lengthAdjust="spacing" textLength="59" x="998.5" y="250.4316">Schedule</text><line style="stroke:#181818;stroke-width:0.5;" x1="970.5" x2="1059.5" y1="260.6348" y2="260.6348"/></g><!--class User--><g id="elem_User"><rect fill="#F1F1F1" height="40" id="User" rx="2.5" ry="2.5" style="stroke:#181818;stroke-width:0.5;" width="61" x="1038.5" y="538.1348"/><ellipse cx="1053.5" cy="554.1348" fill="#ADD1B2" rx="11" ry="11" style="stroke:#181818;stroke-width:1.0;"/><path d="M1056.2656,550.0098 Q1056.4219,549.791 1056.6094,549.6816 Q1056.7969,549.5723 1057.0156,549.5723 Q1057.3906,549.5723 1057.625,549.8379 Q1057.8594,550.0879 1057.8594,550.6973 L1057.8594,552.1504 Q1057.8594,552.7598 1057.625,553.0254 Q1057.3906,553.291 1057.0156,553.291 Q1056.6719,553.291 1056.4688,553.0879 Q1056.2656,552.9004 1056.1563,552.3848 Q1056.1094,552.0254 1055.9219,551.8379 Q1055.5938,551.4629 1054.9844,551.2441 Q1054.375,551.0254 1053.75,551.0254 Q1052.9844,551.0254 1052.3438,551.3535 Q1051.7188,551.6816 1051.2188,552.4316 Q1050.7344,553.1816 1050.7344,554.2129 L1050.7344,555.3066 Q1050.7344,556.541 1051.625,557.3691 Q1052.5156,558.1816 1054.1094,558.1816 Q1055.0469,558.1816 1055.7031,557.9316 Q1056.0938,557.7754 1056.5156,557.3379 Q1056.7813,557.0723 1056.9219,556.9941 Q1057.0781,556.916 1057.2813,556.916 Q1057.6094,556.916 1057.8594,557.1816 Q1058.125,557.4316 1058.125,557.7754 Q1058.125,558.1191 1057.7813,558.5254 Q1057.2813,559.1035 1056.4844,559.4316 Q1055.4063,559.8848 1054.1094,559.8848 Q1052.5938,559.8848 1051.3906,559.2598 Q1050.4063,558.7598 1049.7188,557.6973 Q1049.0313,556.6191 1049.0313,555.3379 L1049.0313,554.1816 Q1049.0313,552.8535 1049.6406,551.7129 Q1050.2656,550.5566 1051.3594,549.9473 Q1052.4531,549.3223 1053.6875,549.3223 Q1054.4219,549.3223 1055.0625,549.4941 Q1055.7188,549.6504 1056.2656,550.0098 Z " fill="#000000"/><text fill="#000000" font-family="sans-serif" font-size="14" lengthAdjust="spacing" textLength="29" x="1067.5" y="559.9316">User</text><line style="stroke:#181818;stroke-width:0.5;" x1="1039.5" x2="1098.5" y1="570.1348" y2="570.1348"/></g><!--class Notification--><g id="elem_Notification"><rect codeLine="33" fill="#F1F1F1" height="68.543" id="Notification" rx="2.5" ry="2.5" style="stroke:#181818;stroke-width:0.5;" width="101" x="1572.5" y="523.6348"/><ellipse cx="1587.5" cy="553.9063" fill="#ADD1B2" rx="11" ry="11" style="stroke:#181818;stroke-width:1.0;"/><path d="M1586.3594,554.7031 L1586.3594,557.2031 L1590.6875,557.2031 L1590.6875,556.2813 Q1590.6875,555.6719 1590.9219,555.4063 Q1591.1719,555.1406 1591.5469,555.1406 Q1591.9219,555.1406 1592.1563,555.4063 Q1592.3906,555.6719 1592.3906,556.2813 L1592.3906,558.9063 L1584.3906,558.9063 Q1583.7656,558.9063 1583.5,558.6719 Q1583.25,558.4375 1583.25,558.0469 Q1583.25,557.6719 1583.5156,557.4375 Q1583.7813,557.2031 1584.3906,557.2031 L1584.6563,557.2031 L1584.6563,550.5469 L1584.3906,550.5469 Q1583.7656,550.5469 1583.5,550.3125 Q1583.25,550.0781 1583.25,549.6875 Q1583.25,549.3125 1583.5,549.0781 Q1583.7656,548.8438 1584.3906,548.8438 L1592.0156,548.8438 L1592.0156,551.4375 Q1592.0156,552.0469 1591.7813,552.3125 Q1591.5625,552.5625 1591.1719,552.5625 Q1590.7969,552.5625 1590.5625,552.3125 Q1590.3281,552.0469 1590.3281,551.4375 L1590.3281,550.5469 L1586.3594,550.5469 L1586.3594,553 L1587.8438,553 Q1587.8438,552.3438 1587.9688,552.1563 Q1588.2344,551.75 1588.7031,551.75 Q1589.0781,551.75 1589.3125,552.0156 Q1589.5469,552.2656 1589.5469,552.875 L1589.5469,554.8438 Q1589.5469,555.3906 1589.4219,555.5781 Q1589.1563,555.9688 1588.7031,555.9688 Q1588.2344,555.9688 1587.9688,555.5625 Q1587.8438,555.375 1587.8438,554.7031 L1586.3594,554.7031 Z " fill="#000000"/><text fill="#000000" font-family="sans-serif" font-size="12" font-style="italic" lengthAdjust="spacing" textLength="35" x="1618.5" y="541.584">&#171;root&#187;</text><text fill="#000000" font-family="sans-serif" font-size="12" font-style="italic" lengthAdjust="spacing" textLength="43" x="1614.5" y="557.5449">&#171;entity&#187;</text><text fill="#000000" font-family="sans-serif" font-size="14" lengthAdjust="spacing" textLength="69" x="1601.5" y="575.6641">Notification</text><line style="stroke:#181818;stroke-width:0.5;" x1="1573.5" x2="1672.5" y1="584.1777" y2="584.1777"/></g><!--class TypeOfNotification--><g id="elem_TypeOfNotification"><rect codeLine="34" fill="#F1F1F1" height="52.582" id="TypeOfNotification" rx="2.5" ry="2.5" style="stroke:#181818;stroke-width:0.5;" width="148" x="1549" y="652.6348"/><ellipse cx="1564" cy="674.9258" fill="#B8255F" rx="11" ry="11" style="stroke:#181818;stroke-width:1.0;"/><path d="M1564.5938,678.1914 L1567.0625,672.3164 L1566.6719,672.3164 Q1566.0625,672.3164 1565.7969,672.082 Q1565.5313,671.8477 1565.5313,671.457 Q1565.5313,671.082 1565.7969,670.8477 Q1566.0625,670.6133 1566.6719,670.6133 L1568.9531,670.6133 Q1569.5625,670.6133 1569.8281,670.8477 Q1570.0938,671.082 1570.0938,671.457 Q1570.0938,671.9258 1569.6875,672.1914 Q1569.5,672.3164 1568.9063,672.3164 L1565.4219,680.6758 L1563.7813,680.6758 L1560.2969,672.3164 Q1559.7031,672.3164 1559.5156,672.1914 Q1559.1094,671.9258 1559.1094,671.457 Q1559.1094,671.082 1559.375,670.8477 Q1559.6406,670.6133 1560.25,670.6133 L1562.5469,670.6133 Q1563.1563,670.6133 1563.4063,670.8477 Q1563.6719,671.082 1563.6719,671.457 Q1563.6719,671.8477 1563.4063,672.082 Q1563.1563,672.3164 1562.5469,672.3164 L1562.1406,672.3164 L1564.5938,678.1914 Z " fill="#000000"/><text fill="#000000" font-family="sans-serif" font-size="12" font-style="italic" lengthAdjust="spacing" textLength="81" x="1595.5" y="670.584">&#171;value object&#187;</text><text fill="#000000" font-family="sans-serif" font-size="14" lengthAdjust="spacing" textLength="116" x="1578" y="688.7031">TypeOfNotification</text><line style="stroke:#181818;stroke-width:0.5;" x1="1550" x2="1696" y1="697.2168" y2="697.2168"/></g><!--class Post--><g id="elem_Post"><rect fill="#F1F1F1" height="40" id="Post" rx="2.5" ry="2.5" style="stroke:#181818;stroke-width:0.5;" width="60" x="1732" y="659.1348"/><ellipse cx="1747" cy="675.1348" fill="#ADD1B2" rx="11" ry="11" style="stroke:#181818;stroke-width:1.0;"/><path d="M1749.7656,671.0098 Q1749.9219,670.791 1750.1094,670.6816 Q1750.2969,670.5723 1750.5156,670.5723 Q1750.8906,670.5723 1751.125,670.8379 Q1751.3594,671.0879 1751.3594,671.6973 L1751.3594,673.1504 Q1751.3594,673.7598 1751.125,674.0254 Q1750.8906,674.291 1750.5156,674.291 Q1750.1719,674.291 1749.9688,674.0879 Q1749.7656,673.9004 1749.6563,673.3848 Q1749.6094,673.0254 1749.4219,672.8379 Q1749.0938,672.4629 1748.4844,672.2441 Q1747.875,672.0254 1747.25,672.0254 Q1746.4844,672.0254 1745.8438,672.3535 Q1745.2188,672.6816 1744.7188,673.4316 Q1744.2344,674.1816 1744.2344,675.2129 L1744.2344,676.3066 Q1744.2344,677.541 1745.125,678.3691 Q1746.0156,679.1816 1747.6094,679.1816 Q1748.5469,679.1816 1749.2031,678.9316 Q1749.5938,678.7754 1750.0156,678.3379 Q1750.2813,678.0723 1750.4219,677.9941 Q1750.5781,677.916 1750.7813,677.916 Q1751.1094,677.916 1751.3594,678.1816 Q1751.625,678.4316 1751.625,678.7754 Q1751.625,679.1191 1751.2813,679.5254 Q1750.7813,680.1035 1749.9844,680.4316 Q1748.9063,680.8848 1747.6094,680.8848 Q1746.0938,680.8848 1744.8906,680.2598 Q1743.9063,679.7598 1743.2188,678.6973 Q1742.5313,677.6191 1742.5313,676.3379 L1742.5313,675.1816 Q1742.5313,673.8535 1743.1406,672.7129 Q1743.7656,671.5566 1744.8594,670.9473 Q1745.9531,670.3223 1747.1875,670.3223 Q1747.9219,670.3223 1748.5625,670.4941 Q1749.2188,670.6504 1749.7656,671.0098 Z " fill="#000000"/><text fill="#000000" font-family="sans-serif" font-size="14" lengthAdjust="spacing" textLength="28" x="1761" y="680.9316">Post</text><line style="stroke:#181818;stroke-width:0.5;" x1="1733" x2="1791" y1="691.1348" y2="691.1348"/></g><!--class Profile--><g id="elem_Profile"><rect codeLine="41" fill="#F1F1F1" height="68.543" id="Profile" rx="2.5" ry="2.5" style="stroke:#181818;stroke-width:0.5;" width="72" x="483" y="369.6348"/><ellipse cx="498" cy="399.9063" fill="#ADD1B2" rx="11" ry="11" style="stroke:#181818;stroke-width:1.0;"/><path d="M496.8594,400.7031 L496.8594,403.2031 L501.1875,403.2031 L501.1875,402.2813 Q501.1875,401.6719 501.4219,401.4063 Q501.6719,401.1406 502.0469,401.1406 Q502.4219,401.1406 502.6563,401.4063 Q502.8906,401.6719 502.8906,402.2813 L502.8906,404.9063 L494.8906,404.9063 Q494.2656,404.9063 494,404.6719 Q493.75,404.4375 493.75,404.0469 Q493.75,403.6719 494.0156,403.4375 Q494.2813,403.2031 494.8906,403.2031 L495.1563,403.2031 L495.1563,396.5469 L494.8906,396.5469 Q494.2656,396.5469 494,396.3125 Q493.75,396.0781 493.75,395.6875 Q493.75,395.3125 494,395.0781 Q494.2656,394.8438 494.8906,394.8438 L502.5156,394.8438 L502.5156,397.4375 Q502.5156,398.0469 502.2813,398.3125 Q502.0625,398.5625 501.6719,398.5625 Q501.2969,398.5625 501.0625,398.3125 Q500.8281,398.0469 500.8281,397.4375 L500.8281,396.5469 L496.8594,396.5469 L496.8594,399 L498.3438,399 Q498.3438,398.3438 498.4688,398.1563 Q498.7344,397.75 499.2031,397.75 Q499.5781,397.75 499.8125,398.0156 Q500.0469,398.2656 500.0469,398.875 L500.0469,400.8438 Q500.0469,401.3906 499.9219,401.5781 Q499.6563,401.9688 499.2031,401.9688 Q498.7344,401.9688 498.4688,401.5625 Q498.3438,401.375 498.3438,400.7031 L496.8594,400.7031 Z " fill="#000000"/><text fill="#000000" font-family="sans-serif" font-size="12" font-style="italic" lengthAdjust="spacing" textLength="35" x="514.5" y="387.584">&#171;root&#187;</text><text fill="#000000" font-family="sans-serif" font-size="12" font-style="italic" lengthAdjust="spacing" textLength="43" x="510.5" y="403.5449">&#171;entity&#187;</text><text fill="#000000" font-family="sans-serif" font-size="14" lengthAdjust="spacing" textLength="40" x="512" y="421.6641">Profile</text><line style="stroke:#181818;stroke-width:0.5;" x1="484" x2="554" y1="430.1777" y2="430.1777"/></g><!--class TeacherProfile--><g id="elem_TeacherProfile"><rect codeLine="43" fill="#F1F1F1" height="52.582" id="TeacherProfile" rx="2.5" ry="2.5" style="stroke:#181818;stroke-width:0.5;" width="125" x="148.5" y="222.1348"/><ellipse cx="163.5" cy="244.4258" fill="#ADD1B2" rx="11" ry="11" style="stroke:#181818;stroke-width:1.0;"/><path d="M166.2656,240.3008 Q166.4219,240.082 166.6094,239.9727 Q166.7969,239.8633 167.0156,239.8633 Q167.3906,239.8633 167.625,240.1289 Q167.8594,240.3789 167.8594,240.9883 L167.8594,242.4414 Q167.8594,243.0508 167.625,243.3164 Q167.3906,243.582 167.0156,243.582 Q166.6719,243.582 166.4688,243.3789 Q166.2656,243.1914 166.1563,242.6758 Q166.1094,242.3164 165.9219,242.1289 Q165.5938,241.7539 164.9844,241.5352 Q164.375,241.3164 163.75,241.3164 Q162.9844,241.3164 162.3438,241.6445 Q161.7188,241.9727 161.2188,242.7227 Q160.7344,243.4727 160.7344,244.5039 L160.7344,245.5977 Q160.7344,246.832 161.625,247.6602 Q162.5156,248.4727 164.1094,248.4727 Q165.0469,248.4727 165.7031,248.2227 Q166.0938,248.0664 166.5156,247.6289 Q166.7813,247.3633 166.9219,247.2852 Q167.0781,247.207 167.2813,247.207 Q167.6094,247.207 167.8594,247.4727 Q168.125,247.7227 168.125,248.0664 Q168.125,248.4102 167.7813,248.8164 Q167.2813,249.3945 166.4844,249.7227 Q165.4063,250.1758 164.1094,250.1758 Q162.5938,250.1758 161.3906,249.5508 Q160.4063,249.0508 159.7188,247.9883 Q159.0313,246.9102 159.0313,245.6289 L159.0313,244.4727 Q159.0313,243.1445 159.6406,242.0039 Q160.2656,240.8477 161.3594,240.2383 Q162.4531,239.6133 163.6875,239.6133 Q164.4219,239.6133 165.0625,239.7852 Q165.7188,239.9414 166.2656,240.3008 Z " fill="#000000"/><text fill="#000000" font-family="sans-serif" font-size="12" font-style="italic" lengthAdjust="spacing" textLength="43" x="202.5" y="240.084">&#171;entity&#187;</text><text fill="#000000" font-family="sans-serif" font-size="14" lengthAdjust="spacing" textLength="93" x="177.5" y="258.2031">TeacherProfile</text><line style="stroke:#181818;stroke-width:0.5;" x1="149.5" x2="272.5" y1="266.7168" y2="266.7168"/></g><!--class StudentProfile--><g id="elem_StudentProfile"><rect codeLine="44" fill="#F1F1F1" height="52.582" id="StudentProfile" rx="2.5" ry="2.5" style="stroke:#181818;stroke-width:0.5;" width="121" x="308.5" y="222.1348"/><ellipse cx="323.5" cy="244.4258" fill="#ADD1B2" rx="11" ry="11" style="stroke:#181818;stroke-width:1.0;"/><path d="M326.2656,240.3008 Q326.4219,240.082 326.6094,239.9727 Q326.7969,239.8633 327.0156,239.8633 Q327.3906,239.8633 327.625,240.1289 Q327.8594,240.3789 327.8594,240.9883 L327.8594,242.4414 Q327.8594,243.0508 327.625,243.3164 Q327.3906,243.582 327.0156,243.582 Q326.6719,243.582 326.4688,243.3789 Q326.2656,243.1914 326.1563,242.6758 Q326.1094,242.3164 325.9219,242.1289 Q325.5938,241.7539 324.9844,241.5352 Q324.375,241.3164 323.75,241.3164 Q322.9844,241.3164 322.3438,241.6445 Q321.7188,241.9727 321.2188,242.7227 Q320.7344,243.4727 320.7344,244.5039 L320.7344,245.5977 Q320.7344,246.832 321.625,247.6602 Q322.5156,248.4727 324.1094,248.4727 Q325.0469,248.4727 325.7031,248.2227 Q326.0938,248.0664 326.5156,247.6289 Q326.7813,247.3633 326.9219,247.2852 Q327.0781,247.207 327.2813,247.207 Q327.6094,247.207 327.8594,247.4727 Q328.125,247.7227 328.125,248.0664 Q328.125,248.4102 327.7813,248.8164 Q327.2813,249.3945 326.4844,249.7227 Q325.4063,250.1758 324.1094,250.1758 Q322.5938,250.1758 321.3906,249.5508 Q320.4063,249.0508 319.7188,247.9883 Q319.0313,246.9102 319.0313,245.6289 L319.0313,244.4727 Q319.0313,243.1445 319.6406,242.0039 Q320.2656,240.8477 321.3594,240.2383 Q322.4531,239.6133 323.6875,239.6133 Q324.4219,239.6133 325.0625,239.7852 Q325.7188,239.9414 326.2656,240.3008 Z " fill="#000000"/><text fill="#000000" font-family="sans-serif" font-size="12" font-style="italic" lengthAdjust="spacing" textLength="43" x="360.5" y="240.084">&#171;entity&#187;</text><text fill="#000000" font-family="sans-serif" font-size="14" lengthAdjust="spacing" textLength="89" x="337.5" y="258.2031">StudentProfile</text><line style="stroke:#181818;stroke-width:0.5;" x1="309.5" x2="428.5" y1="266.7168" y2="266.7168"/></g><!--class ManagerProfile--><g id="elem_ManagerProfile"><rect codeLine="45" fill="#F1F1F1" height="68.543" id="ManagerProfile" rx="2.5" ry="2.5" style="stroke:#181818;stroke-width:0.5;" width="128" x="785" y="214.1348"/><ellipse cx="800" cy="244.4063" fill="#ADD1B2" rx="11" ry="11" style="stroke:#181818;stroke-width:1.0;"/><path d="M802.7656,240.2813 Q802.9219,240.0625 803.1094,239.9531 Q803.2969,239.8438 803.5156,239.8438 Q803.8906,239.8438 804.125,240.1094 Q804.3594,240.3594 804.3594,240.9688 L804.3594,242.4219 Q804.3594,243.0313 804.125,243.2969 Q803.8906,243.5625 803.5156,243.5625 Q803.1719,243.5625 802.9688,243.3594 Q802.7656,243.1719 802.6563,242.6563 Q802.6094,242.2969 802.4219,242.1094 Q802.0938,241.7344 801.4844,241.5156 Q800.875,241.2969 800.25,241.2969 Q799.4844,241.2969 798.8438,241.625 Q798.2188,241.9531 797.7188,242.7031 Q797.2344,243.4531 797.2344,244.4844 L797.2344,245.5781 Q797.2344,246.8125 798.125,247.6406 Q799.0156,248.4531 800.6094,248.4531 Q801.5469,248.4531 802.2031,248.2031 Q802.5938,248.0469 803.0156,247.6094 Q803.2813,247.3438 803.4219,247.2656 Q803.5781,247.1875 803.7813,247.1875 Q804.1094,247.1875 804.3594,247.4531 Q804.625,247.7031 804.625,248.0469 Q804.625,248.3906 804.2813,248.7969 Q803.7813,249.375 802.9844,249.7031 Q801.9063,250.1563 800.6094,250.1563 Q799.0938,250.1563 797.8906,249.5313 Q796.9063,249.0313 796.2188,247.9688 Q795.5313,246.8906 795.5313,245.6094 L795.5313,244.4531 Q795.5313,243.125 796.1406,241.9844 Q796.7656,240.8281 797.8594,240.2188 Q798.9531,239.5938 800.1875,239.5938 Q800.9219,239.5938 801.5625,239.7656 Q802.2188,239.9219 802.7656,240.2813 Z " fill="#000000"/><text fill="#000000" font-family="sans-serif" font-size="12" font-style="italic" lengthAdjust="spacing" textLength="43" x="840.5" y="232.084">&#171;entity&#187;</text><text fill="#000000" font-family="sans-serif" font-size="12" font-style="italic" lengthAdjust="spacing" textLength="72" x="826" y="248.0449">&#171;NullObject&#187;</text><text fill="#000000" font-family="sans-serif" font-size="14" lengthAdjust="spacing" textLength="96" x="814" y="266.1641">ManagerProfile</text><line style="stroke:#181818;stroke-width:0.5;" x1="786" x2="912" y1="274.6777" y2="274.6777"/></g><!--class TaxPayerNumber--><g id="elem_TaxPayerNumber"><rect codeLine="46" fill="#F1F1F1" height="52.582" id="TaxPayerNumber" rx="2.5" ry="2.5" style="stroke:#181818;stroke-width:0.5;" width="141" x="608.5" y="222.1348"/><ellipse cx="623.5" cy="244.4258" fill="#B8255F" rx="11" ry="11" style="stroke:#181818;stroke-width:1.0;"/><path d="M624.0938,247.6914 L626.5625,241.8164 L626.1719,241.8164 Q625.5625,241.8164 625.2969,241.582 Q625.0313,241.3477 625.0313,240.957 Q625.0313,240.582 625.2969,240.3477 Q625.5625,240.1133 626.1719,240.1133 L628.4531,240.1133 Q629.0625,240.1133 629.3281,240.3477 Q629.5938,240.582 629.5938,240.957 Q629.5938,241.4258 629.1875,241.6914 Q629,241.8164 628.4063,241.8164 L624.9219,250.1758 L623.2813,250.1758 L619.7969,241.8164 Q619.2031,241.8164 619.0156,241.6914 Q618.6094,241.4258 618.6094,240.957 Q618.6094,240.582 618.875,240.3477 Q619.1406,240.1133 619.75,240.1133 L622.0469,240.1133 Q622.6563,240.1133 622.9063,240.3477 Q623.1719,240.582 623.1719,240.957 Q623.1719,241.3477 622.9063,241.582 Q622.6563,241.8164 622.0469,241.8164 L621.6406,241.8164 L624.0938,247.6914 Z " fill="#000000"/><text fill="#000000" font-family="sans-serif" font-size="12" font-style="italic" lengthAdjust="spacing" textLength="81" x="651.5" y="240.084">&#171;value object&#187;</text><text fill="#000000" font-family="sans-serif" font-size="14" lengthAdjust="spacing" textLength="109" x="637.5" y="258.2031">TaxPayerNumber</text><line style="stroke:#181818;stroke-width:0.5;" x1="609.5" x2="748.5" y1="266.7168" y2="266.7168"/></g><!--class DateOfBirth--><g id="elem_DateOfBirth"><rect codeLine="47" fill="#F1F1F1" height="52.582" id="DateOfBirth" rx="2.5" ry="2.5" style="stroke:#181818;stroke-width:0.5;" width="109" x="464.5" y="222.1348"/><ellipse cx="479.5" cy="244.4258" fill="#B8255F" rx="11" ry="11" style="stroke:#181818;stroke-width:1.0;"/><path d="M480.0938,247.6914 L482.5625,241.8164 L482.1719,241.8164 Q481.5625,241.8164 481.2969,241.582 Q481.0313,241.3477 481.0313,240.957 Q481.0313,240.582 481.2969,240.3477 Q481.5625,240.1133 482.1719,240.1133 L484.4531,240.1133 Q485.0625,240.1133 485.3281,240.3477 Q485.5938,240.582 485.5938,240.957 Q485.5938,241.4258 485.1875,241.6914 Q485,241.8164 484.4063,241.8164 L480.9219,250.1758 L479.2813,250.1758 L475.7969,241.8164 Q475.2031,241.8164 475.0156,241.6914 Q474.6094,241.4258 474.6094,240.957 Q474.6094,240.582 474.875,240.3477 Q475.1406,240.1133 475.75,240.1133 L478.0469,240.1133 Q478.6563,240.1133 478.9063,240.3477 Q479.1719,240.582 479.1719,240.957 Q479.1719,241.3477 478.9063,241.582 Q478.6563,241.8164 478.0469,241.8164 L477.6406,241.8164 L480.0938,247.6914 Z " fill="#000000"/><text fill="#000000" font-family="sans-serif" font-size="12" font-style="italic" lengthAdjust="spacing" textLength="81" x="491.5" y="240.084">&#171;value object&#187;</text><text fill="#000000" font-family="sans-serif" font-size="14" lengthAdjust="spacing" textLength="74" x="495" y="258.2031">DateOfBirth</text><line style="stroke:#181818;stroke-width:0.5;" x1="465.5" x2="572.5" y1="266.7168" y2="266.7168"/></g><!--class MechanographicNumber--><g id="elem_MechanographicNumber"><rect codeLine="48" fill="#F1F1F1" height="52.582" id="MechanographicNumber" rx="2.5" ry="2.5" style="stroke:#181818;stroke-width:0.5;" width="186" x="311" y="82.6348"/><ellipse cx="326" cy="104.9258" fill="#B8255F" rx="11" ry="11" style="stroke:#181818;stroke-width:1.0;"/><path d="M326.5938,108.1914 L329.0625,102.3164 L328.6719,102.3164 Q328.0625,102.3164 327.7969,102.082 Q327.5313,101.8477 327.5313,101.457 Q327.5313,101.082 327.7969,100.8477 Q328.0625,100.6133 328.6719,100.6133 L330.9531,100.6133 Q331.5625,100.6133 331.8281,100.8477 Q332.0938,101.082 332.0938,101.457 Q332.0938,101.9258 331.6875,102.1914 Q331.5,102.3164 330.9063,102.3164 L327.4219,110.6758 L325.7813,110.6758 L322.2969,102.3164 Q321.7031,102.3164 321.5156,102.1914 Q321.1094,101.9258 321.1094,101.457 Q321.1094,101.082 321.375,100.8477 Q321.6406,100.6133 322.25,100.6133 L324.5469,100.6133 Q325.1563,100.6133 325.4063,100.8477 Q325.6719,101.082 325.6719,101.457 Q325.6719,101.8477 325.4063,102.082 Q325.1563,102.3164 324.5469,102.3164 L324.1406,102.3164 L326.5938,108.1914 Z " fill="#000000"/><text fill="#000000" font-family="sans-serif" font-size="12" font-style="italic" lengthAdjust="spacing" textLength="81" x="376.5" y="100.584">&#171;value object&#187;</text><text fill="#000000" font-family="sans-serif" font-size="14" lengthAdjust="spacing" textLength="154" x="340" y="118.7031">MechanographicNumber</text><line style="stroke:#181818;stroke-width:0.5;" x1="312" x2="496" y1="127.2168" y2="127.2168"/></g><!--class Acronym--><g id="elem_Acronym"><rect codeLine="49" fill="#F1F1F1" height="52.582" id="Acronym" rx="2.5" ry="2.5" style="stroke:#181818;stroke-width:0.5;" width="109" x="166.5" y="82.6348"/><ellipse cx="181.5" cy="104.9258" fill="#B8255F" rx="11" ry="11" style="stroke:#181818;stroke-width:1.0;"/><path d="M182.0938,108.1914 L184.5625,102.3164 L184.1719,102.3164 Q183.5625,102.3164 183.2969,102.082 Q183.0313,101.8477 183.0313,101.457 Q183.0313,101.082 183.2969,100.8477 Q183.5625,100.6133 184.1719,100.6133 L186.4531,100.6133 Q187.0625,100.6133 187.3281,100.8477 Q187.5938,101.082 187.5938,101.457 Q187.5938,101.9258 187.1875,102.1914 Q187,102.3164 186.4063,102.3164 L182.9219,110.6758 L181.2813,110.6758 L177.7969,102.3164 Q177.2031,102.3164 177.0156,102.1914 Q176.6094,101.9258 176.6094,101.457 Q176.6094,101.082 176.875,100.8477 Q177.1406,100.6133 177.75,100.6133 L180.0469,100.6133 Q180.6563,100.6133 180.9063,100.8477 Q181.1719,101.082 181.1719,101.457 Q181.1719,101.8477 180.9063,102.082 Q180.6563,102.3164 180.0469,102.3164 L179.6406,102.3164 L182.0938,108.1914 Z " fill="#000000"/><text fill="#000000" font-family="sans-serif" font-size="12" font-style="italic" lengthAdjust="spacing" textLength="81" x="193.5" y="100.584">&#171;value object&#187;</text><text fill="#000000" font-family="sans-serif" font-size="14" lengthAdjust="spacing" textLength="55" x="206.5" y="118.7031">Acronym</text><line style="stroke:#181818;stroke-width:0.5;" x1="167.5" x2="274.5" y1="127.2168" y2="127.2168"/></g><!--class Schedule--><g id="elem_Schedule"><rect codeLine="50" fill="#F1F1F1" height="52.582" id="Schedule" rx="2.5" ry="2.5" style="stroke:#181818;stroke-width:0.5;" width="91" x="22.5" y="222.1348"/><ellipse cx="37.5" cy="244.4258" fill="#ADD1B2" rx="11" ry="11" style="stroke:#181818;stroke-width:1.0;"/><path d="M40.2656,240.3008 Q40.4219,240.082 40.6094,239.9727 Q40.7969,239.8633 41.0156,239.8633 Q41.3906,239.8633 41.625,240.1289 Q41.8594,240.3789 41.8594,240.9883 L41.8594,242.4414 Q41.8594,243.0508 41.625,243.3164 Q41.3906,243.582 41.0156,243.582 Q40.6719,243.582 40.4688,243.3789 Q40.2656,243.1914 40.1563,242.6758 Q40.1094,242.3164 39.9219,242.1289 Q39.5938,241.7539 38.9844,241.5352 Q38.375,241.3164 37.75,241.3164 Q36.9844,241.3164 36.3438,241.6445 Q35.7188,241.9727 35.2188,242.7227 Q34.7344,243.4727 34.7344,244.5039 L34.7344,245.5977 Q34.7344,246.832 35.625,247.6602 Q36.5156,248.4727 38.1094,248.4727 Q39.0469,248.4727 39.7031,248.2227 Q40.0938,248.0664 40.5156,247.6289 Q40.7813,247.3633 40.9219,247.2852 Q41.0781,247.207 41.2813,247.207 Q41.6094,247.207 41.8594,247.4727 Q42.125,247.7227 42.125,248.0664 Q42.125,248.4102 41.7813,248.8164 Q41.2813,249.3945 40.4844,249.7227 Q39.4063,250.1758 38.1094,250.1758 Q36.5938,250.1758 35.3906,249.5508 Q34.4063,249.0508 33.7188,247.9883 Q33.0313,246.9102 33.0313,245.6289 L33.0313,244.4727 Q33.0313,243.1445 33.6406,242.0039 Q34.2656,240.8477 35.3594,240.2383 Q36.4531,239.6133 37.6875,239.6133 Q38.4219,239.6133 39.0625,239.7852 Q39.7188,239.9414 40.2656,240.3008 Z " fill="#000000"/><text fill="#000000" font-family="sans-serif" font-size="12" font-style="italic" lengthAdjust="spacing" textLength="43" x="59.5" y="240.084">&#171;entity&#187;</text><text fill="#000000" font-family="sans-serif" font-size="14" lengthAdjust="spacing" textLength="59" x="51.5" y="258.2031">Schedule</text><line style="stroke:#181818;stroke-width:0.5;" x1="23.5" x2="112.5" y1="266.7168" y2="266.7168"/></g><!--class ProfileDay--><g id="elem_ProfileDay"><rect codeLine="51" fill="#F1F1F1" height="52.582" id="ProfileDay" rx="2.5" ry="2.5" style="stroke:#181818;stroke-width:0.5;" width="109" x="22.5" y="82.6348"/><ellipse cx="37.5" cy="104.9258" fill="#B8255F" rx="11" ry="11" style="stroke:#181818;stroke-width:1.0;"/><path d="M38.0938,108.1914 L40.5625,102.3164 L40.1719,102.3164 Q39.5625,102.3164 39.2969,102.082 Q39.0313,101.8477 39.0313,101.457 Q39.0313,101.082 39.2969,100.8477 Q39.5625,100.6133 40.1719,100.6133 L42.4531,100.6133 Q43.0625,100.6133 43.3281,100.8477 Q43.5938,101.082 43.5938,101.457 Q43.5938,101.9258 43.1875,102.1914 Q43,102.3164 42.4063,102.3164 L38.9219,110.6758 L37.2813,110.6758 L33.7969,102.3164 Q33.2031,102.3164 33.0156,102.1914 Q32.6094,101.9258 32.6094,101.457 Q32.6094,101.082 32.875,100.8477 Q33.1406,100.6133 33.75,100.6133 L36.0469,100.6133 Q36.6563,100.6133 36.9063,100.8477 Q37.1719,101.082 37.1719,101.457 Q37.1719,101.8477 36.9063,102.082 Q36.6563,102.3164 36.0469,102.3164 L35.6406,102.3164 L38.0938,108.1914 Z " fill="#000000"/><text fill="#000000" font-family="sans-serif" font-size="12" font-style="italic" lengthAdjust="spacing" textLength="81" x="49.5" y="100.584">&#171;value object&#187;</text><text fill="#000000" font-family="sans-serif" font-size="14" lengthAdjust="spacing" textLength="25" x="77.5" y="118.7031">Day</text><line style="stroke:#181818;stroke-width:0.5;" x1="23.5" x2="130.5" y1="127.2168" y2="127.2168"/></g><!--class User--><g id="elem_User"><rect codeLine="66" fill="#F1F1F1" height="105.7852" id="User" rx="2.5" ry="2.5" style="stroke:#181818;stroke-width:0.5;" width="121" x="1687.5" y="195.6348"/><ellipse cx="1725" cy="225.9063" fill="#ADD1B2" rx="11" ry="11" style="stroke:#181818;stroke-width:1.0;"/><path d="M1723.8594,226.7031 L1723.8594,229.2031 L1728.1875,229.2031 L1728.1875,228.2813 Q1728.1875,227.6719 1728.4219,227.4063 Q1728.6719,227.1406 1729.0469,227.1406 Q1729.4219,227.1406 1729.6563,227.4063 Q1729.8906,227.6719 1729.8906,228.2813 L1729.8906,230.9063 L1721.8906,230.9063 Q1721.2656,230.9063 1721,230.6719 Q1720.75,230.4375 1720.75,230.0469 Q1720.75,229.6719 1721.0156,229.4375 Q1721.2813,229.2031 1721.8906,229.2031 L1722.1563,229.2031 L1722.1563,222.5469 L1721.8906,222.5469 Q1721.2656,222.5469 1721,222.3125 Q1720.75,222.0781 1720.75,221.6875 Q1720.75,221.3125 1721,221.0781 Q1721.2656,220.8438 1721.8906,220.8438 L1729.5156,220.8438 L1729.5156,223.4375 Q1729.5156,224.0469 1729.2813,224.3125 Q1729.0625,224.5625 1728.6719,224.5625 Q1728.2969,224.5625 1728.0625,224.3125 Q1727.8281,224.0469 1727.8281,223.4375 L1727.8281,222.5469 L1723.8594,222.5469 L1723.8594,225 L1725.3438,225 Q1725.3438,224.3438 1725.4688,224.1563 Q1725.7344,223.75 1726.2031,223.75 Q1726.5781,223.75 1726.8125,224.0156 Q1727.0469,224.2656 1727.0469,224.875 L1727.0469,226.8438 Q1727.0469,227.3906 1726.9219,227.5781 Q1726.6563,227.9688 1726.2031,227.9688 Q1725.7344,227.9688 1725.4688,227.5625 Q1725.3438,227.375 1725.3438,226.7031 L1723.8594,226.7031 Z " fill="#000000"/><text fill="#000000" font-family="sans-serif" font-size="12" font-style="italic" lengthAdjust="spacing" textLength="35" x="1746" y="213.584">&#171;root&#187;</text><text fill="#000000" font-family="sans-serif" font-size="12" font-style="italic" lengthAdjust="spacing" textLength="43" x="1742" y="229.5449">&#171;entity&#187;</text><text fill="#000000" font-family="sans-serif" font-size="14" lengthAdjust="spacing" textLength="29" x="1749" y="247.6641">User</text><line style="stroke:#181818;stroke-width:0.5;" x1="1688.5" x2="1807.5" y1="256.1777" y2="256.1777"/><text fill="#000000" font-family="sans-serif" font-size="14" lengthAdjust="spacing" textLength="95" x="1693.5" y="275.2852">String fullName</text><text fill="#000000" font-family="sans-serif" font-size="14" lengthAdjust="spacing" textLength="109" x="1693.5" y="293.9063">String shortName</text></g><!--class Role--><g id="elem_Role"><rect codeLine="71" fill="#F1F1F1" height="52.582" id="Role" rx="2.5" ry="2.5" style="stroke:#181818;stroke-width:0.5;" width="109" x="1549.5" y="377.6348"/><ellipse cx="1564.5" cy="399.9258" fill="#B8255F" rx="11" ry="11" style="stroke:#181818;stroke-width:1.0;"/><path d="M1565.0938,403.1914 L1567.5625,397.3164 L1567.1719,397.3164 Q1566.5625,397.3164 1566.2969,397.082 Q1566.0313,396.8477 1566.0313,396.457 Q1566.0313,396.082 1566.2969,395.8477 Q1566.5625,395.6133 1567.1719,395.6133 L1569.4531,395.6133 Q1570.0625,395.6133 1570.3281,395.8477 Q1570.5938,396.082 1570.5938,396.457 Q1570.5938,396.9258 1570.1875,397.1914 Q1570,397.3164 1569.4063,397.3164 L1565.9219,405.6758 L1564.2813,405.6758 L1560.7969,397.3164 Q1560.2031,397.3164 1560.0156,397.1914 Q1559.6094,396.9258 1559.6094,396.457 Q1559.6094,396.082 1559.875,395.8477 Q1560.1406,395.6133 1560.75,395.6133 L1563.0469,395.6133 Q1563.6563,395.6133 1563.9063,395.8477 Q1564.1719,396.082 1564.1719,396.457 Q1564.1719,396.8477 1563.9063,397.082 Q1563.6563,397.3164 1563.0469,397.3164 L1562.6406,397.3164 L1565.0938,403.1914 Z " fill="#000000"/><text fill="#000000" font-family="sans-serif" font-size="12" font-style="italic" lengthAdjust="spacing" textLength="81" x="1576.5" y="395.584">&#171;value object&#187;</text><text fill="#000000" font-family="sans-serif" font-size="14" lengthAdjust="spacing" textLength="29" x="1602.5" y="413.7031">Role</text><line style="stroke:#181818;stroke-width:0.5;" x1="1550.5" x2="1657.5" y1="422.2168" y2="422.2168"/></g><!--class Password--><g id="elem_Password"><rect codeLine="72" fill="#F1F1F1" height="52.582" id="Password" rx="2.5" ry="2.5" style="stroke:#181818;stroke-width:0.5;" width="109" x="1693.5" y="377.6348"/><ellipse cx="1708.5" cy="399.9258" fill="#B8255F" rx="11" ry="11" style="stroke:#181818;stroke-width:1.0;"/><path d="M1709.0938,403.1914 L1711.5625,397.3164 L1711.1719,397.3164 Q1710.5625,397.3164 1710.2969,397.082 Q1710.0313,396.8477 1710.0313,396.457 Q1710.0313,396.082 1710.2969,395.8477 Q1710.5625,395.6133 1711.1719,395.6133 L1713.4531,395.6133 Q1714.0625,395.6133 1714.3281,395.8477 Q1714.5938,396.082 1714.5938,396.457 Q1714.5938,396.9258 1714.1875,397.1914 Q1714,397.3164 1713.4063,397.3164 L1709.9219,405.6758 L1708.2813,405.6758 L1704.7969,397.3164 Q1704.2031,397.3164 1704.0156,397.1914 Q1703.6094,396.9258 1703.6094,396.457 Q1703.6094,396.082 1703.875,395.8477 Q1704.1406,395.6133 1704.75,395.6133 L1707.0469,395.6133 Q1707.6563,395.6133 1707.9063,395.8477 Q1708.1719,396.082 1708.1719,396.457 Q1708.1719,396.8477 1707.9063,397.082 Q1707.6563,397.3164 1707.0469,397.3164 L1706.6406,397.3164 L1709.0938,403.1914 Z " fill="#000000"/><text fill="#000000" font-family="sans-serif" font-size="12" font-style="italic" lengthAdjust="spacing" textLength="81" x="1720.5" y="395.584">&#171;value object&#187;</text><text fill="#000000" font-family="sans-serif" font-size="14" lengthAdjust="spacing" textLength="61" x="1730.5" y="413.7031">Password</text><line style="stroke:#181818;stroke-width:0.5;" x1="1694.5" x2="1801.5" y1="422.2168" y2="422.2168"/></g><!--class Email--><g id="elem_Email"><rect codeLine="73" fill="#F1F1F1" height="84.5039" id="Email" rx="2.5" ry="2.5" style="stroke:#181818;stroke-width:0.5;" width="109" x="1837.5" y="361.6348"/><ellipse cx="1852.5" cy="399.8867" fill="#B8255F" rx="11" ry="11" style="stroke:#181818;stroke-width:1.0;"/><path d="M1853.0938,403.1523 L1855.5625,397.2773 L1855.1719,397.2773 Q1854.5625,397.2773 1854.2969,397.043 Q1854.0313,396.8086 1854.0313,396.418 Q1854.0313,396.043 1854.2969,395.8086 Q1854.5625,395.5742 1855.1719,395.5742 L1857.4531,395.5742 Q1858.0625,395.5742 1858.3281,395.8086 Q1858.5938,396.043 1858.5938,396.418 Q1858.5938,396.8867 1858.1875,397.1523 Q1858,397.2773 1857.4063,397.2773 L1853.9219,405.6367 L1852.2813,405.6367 L1848.7969,397.2773 Q1848.2031,397.2773 1848.0156,397.1523 Q1847.6094,396.8867 1847.6094,396.418 Q1847.6094,396.043 1847.875,395.8086 Q1848.1406,395.5742 1848.75,395.5742 L1851.0469,395.5742 Q1851.6563,395.5742 1851.9063,395.8086 Q1852.1719,396.043 1852.1719,396.418 Q1852.1719,396.8086 1851.9063,397.043 Q1851.6563,397.2773 1851.0469,397.2773 L1850.6406,397.2773 L1853.0938,403.1523 Z " fill="#000000"/><text fill="#000000" font-family="sans-serif" font-size="12" font-style="italic" lengthAdjust="spacing" textLength="25" x="1892.5" y="379.584">&#171;Id&#187;</text><text fill="#000000" font-family="sans-serif" font-size="12" font-style="italic" lengthAdjust="spacing" textLength="52" x="1879" y="395.5449">&#171;unique&#187;</text><text fill="#000000" font-family="sans-serif" font-size="12" font-style="italic" lengthAdjust="spacing" textLength="81" x="1864.5" y="411.5059">&#171;value object&#187;</text><text fill="#000000" font-family="sans-serif" font-size="14" lengthAdjust="spacing" textLength="34" x="1888" y="429.625">Email</text><line style="stroke:#181818;stroke-width:0.5;" x1="1838.5" x2="1945.5" y1="438.1387" y2="438.1387"/></g><!--class Student--><g id="elem_Student"><rect codeLine="74" fill="#F1F1F1" height="52.582" id="Student" rx="2.5" ry="2.5" style="stroke:#181818;stroke-width:0.5;" width="81" x="1845.5" y="82.6348"/><ellipse cx="1860.5" cy="104.9258" fill="#ADD1B2" rx="11" ry="11" style="stroke:#181818;stroke-width:1.0;"/><path d="M1859.3594,105.7227 L1859.3594,108.2227 L1863.6875,108.2227 L1863.6875,107.3008 Q1863.6875,106.6914 1863.9219,106.4258 Q1864.1719,106.1602 1864.5469,106.1602 Q1864.9219,106.1602 1865.1563,106.4258 Q1865.3906,106.6914 1865.3906,107.3008 L1865.3906,109.9258 L1857.3906,109.9258 Q1856.7656,109.9258 1856.5,109.6914 Q1856.25,109.457 1856.25,109.0664 Q1856.25,108.6914 1856.5156,108.457 Q1856.7813,108.2227 1857.3906,108.2227 L1857.6563,108.2227 L1857.6563,101.5664 L1857.3906,101.5664 Q1856.7656,101.5664 1856.5,101.332 Q1856.25,101.0977 1856.25,100.707 Q1856.25,100.332 1856.5,100.0977 Q1856.7656,99.8633 1857.3906,99.8633 L1865.0156,99.8633 L1865.0156,102.457 Q1865.0156,103.0664 1864.7813,103.332 Q1864.5625,103.582 1864.1719,103.582 Q1863.7969,103.582 1863.5625,103.332 Q1863.3281,103.0664 1863.3281,102.457 L1863.3281,101.5664 L1859.3594,101.5664 L1859.3594,104.0195 L1860.8438,104.0195 Q1860.8438,103.3633 1860.9688,103.1758 Q1861.2344,102.7695 1861.7031,102.7695 Q1862.0781,102.7695 1862.3125,103.0352 Q1862.5469,103.2852 1862.5469,103.8945 L1862.5469,105.8633 Q1862.5469,106.4102 1862.4219,106.5977 Q1862.1563,106.9883 1861.7031,106.9883 Q1861.2344,106.9883 1860.9688,106.582 Q1860.8438,106.3945 1860.8438,105.7227 L1859.3594,105.7227 Z " fill="#000000"/><text fill="#000000" font-family="sans-serif" font-size="12" font-style="italic" lengthAdjust="spacing" textLength="43" x="1877.5" y="100.584">&#171;entity&#187;</text><text fill="#000000" font-family="sans-serif" font-size="14" lengthAdjust="spacing" textLength="49" x="1874.5" y="118.7031">Student</text><line style="stroke:#181818;stroke-width:0.5;" x1="1846.5" x2="1925.5" y1="127.2168" y2="127.2168"/></g><!--class Teacher--><g id="elem_Teacher"><rect codeLine="75" fill="#F1F1F1" height="52.582" id="Teacher" rx="2.5" ry="2.5" style="stroke:#181818;stroke-width:0.5;" width="85" x="1725.5" y="82.6348"/><ellipse cx="1740.5" cy="104.9258" fill="#ADD1B2" rx="11" ry="11" style="stroke:#181818;stroke-width:1.0;"/><path d="M1739.3594,105.7227 L1739.3594,108.2227 L1743.6875,108.2227 L1743.6875,107.3008 Q1743.6875,106.6914 1743.9219,106.4258 Q1744.1719,106.1602 1744.5469,106.1602 Q1744.9219,106.1602 1745.1563,106.4258 Q1745.3906,106.6914 1745.3906,107.3008 L1745.3906,109.9258 L1737.3906,109.9258 Q1736.7656,109.9258 1736.5,109.6914 Q1736.25,109.457 1736.25,109.0664 Q1736.25,108.6914 1736.5156,108.457 Q1736.7813,108.2227 1737.3906,108.2227 L1737.6563,108.2227 L1737.6563,101.5664 L1737.3906,101.5664 Q1736.7656,101.5664 1736.5,101.332 Q1736.25,101.0977 1736.25,100.707 Q1736.25,100.332 1736.5,100.0977 Q1736.7656,99.8633 1737.3906,99.8633 L1745.0156,99.8633 L1745.0156,102.457 Q1745.0156,103.0664 1744.7813,103.332 Q1744.5625,103.582 1744.1719,103.582 Q1743.7969,103.582 1743.5625,103.332 Q1743.3281,103.0664 1743.3281,102.457 L1743.3281,101.5664 L1739.3594,101.5664 L1739.3594,104.0195 L1740.8438,104.0195 Q1740.8438,103.3633 1740.9688,103.1758 Q1741.2344,102.7695 1741.7031,102.7695 Q1742.0781,102.7695 1742.3125,103.0352 Q1742.5469,103.2852 1742.5469,103.8945 L1742.5469,105.8633 Q1742.5469,106.4102 1742.4219,106.5977 Q1742.1563,106.9883 1741.7031,106.9883 Q1741.2344,106.9883 1740.9688,106.582 Q1740.8438,106.3945 1740.8438,105.7227 L1739.3594,105.7227 Z " fill="#000000"/><text fill="#000000" font-family="sans-serif" font-size="12" font-style="italic" lengthAdjust="spacing" textLength="43" x="1759.5" y="100.584">&#171;entity&#187;</text><text fill="#000000" font-family="sans-serif" font-size="14" lengthAdjust="spacing" textLength="53" x="1754.5" y="118.7031">Teacher</text><line style="stroke:#181818;stroke-width:0.5;" x1="1726.5" x2="1809.5" y1="127.2168" y2="127.2168"/></g><!--class Manager--><g id="elem_Manager"><rect codeLine="76" fill="#F1F1F1" height="52.582" id="Manager" rx="2.5" ry="2.5" style="stroke:#181818;stroke-width:0.5;" width="88" x="1602" y="82.6348"/><ellipse cx="1617" cy="104.9258" fill="#ADD1B2" rx="11" ry="11" style="stroke:#181818;stroke-width:1.0;"/><path d="M1615.8594,105.7227 L1615.8594,108.2227 L1620.1875,108.2227 L1620.1875,107.3008 Q1620.1875,106.6914 1620.4219,106.4258 Q1620.6719,106.1602 1621.0469,106.1602 Q1621.4219,106.1602 1621.6563,106.4258 Q1621.8906,106.6914 1621.8906,107.3008 L1621.8906,109.9258 L1613.8906,109.9258 Q1613.2656,109.9258 1613,109.6914 Q1612.75,109.457 1612.75,109.0664 Q1612.75,108.6914 1613.0156,108.457 Q1613.2813,108.2227 1613.8906,108.2227 L1614.1563,108.2227 L1614.1563,101.5664 L1613.8906,101.5664 Q1613.2656,101.5664 1613,101.332 Q1612.75,101.0977 1612.75,100.707 Q1612.75,100.332 1613,100.0977 Q1613.2656,99.8633 1613.8906,99.8633 L1621.5156,99.8633 L1621.5156,102.457 Q1621.5156,103.0664 1621.2813,103.332 Q1621.0625,103.582 1620.6719,103.582 Q1620.2969,103.582 1620.0625,103.332 Q1619.8281,103.0664 1619.8281,102.457 L1619.8281,101.5664 L1615.8594,101.5664 L1615.8594,104.0195 L1617.3438,104.0195 Q1617.3438,103.3633 1617.4688,103.1758 Q1617.7344,102.7695 1618.2031,102.7695 Q1618.5781,102.7695 1618.8125,103.0352 Q1619.0469,103.2852 1619.0469,103.8945 L1619.0469,105.8633 Q1619.0469,106.4102 1618.9219,106.5977 Q1618.6563,106.9883 1618.2031,106.9883 Q1617.7344,106.9883 1617.4688,106.582 Q1617.3438,106.3945 1617.3438,105.7227 L1615.8594,105.7227 Z " fill="#000000"/><text fill="#000000" font-family="sans-serif" font-size="12" font-style="italic" lengthAdjust="spacing" textLength="43" x="1637.5" y="100.584">&#171;entity&#187;</text><text fill="#000000" font-family="sans-serif" font-size="14" lengthAdjust="spacing" textLength="56" x="1631" y="118.7031">Manager</text><line style="stroke:#181818;stroke-width:0.5;" x1="1603" x2="1689" y1="127.2168" y2="127.2168"/></g><!--link Schedule to Meeting--><g id="link_Schedule_Meeting"><path codeLine="21" d="M1053.17,268.8348 C1053.17,306.0448 1053.17,381.6348 1053.17,381.6348 C1053.17,381.6348 1162.65,381.6348 1162.65,381.6348 " fill="none" id="Schedule-to-Meeting" style="stroke:#181818;stroke-width:1.0;"/><polygon fill="#181818" points="1167.65,381.6348,1158.65,377.6348,1162.65,381.6348,1158.65,385.6348,1167.65,381.6348" style="stroke:#181818;stroke-width:1.0;"/><text fill="#000000" font-family="sans-serif" font-size="13" lengthAdjust="spacing" textLength="39" x="1013.17" y="376.0031">map of</text><text fill="#000000" font-family="sans-serif" font-size="13" lengthAdjust="spacing" textLength="7" x="1055.4876" y="290.6153">1</text><text fill="#000000" font-family="sans-serif" font-size="13" lengthAdjust="spacing" textLength="7" x="1152.9414" y="373.3992">1</text></g><!--link MeetingTitle to Meeting--><g id="link_MeetingTitle_Meeting"><path codeLine="22" d="M1370.38,279.6348 C1370.38,279.6348 1246.5,279.6348 1246.5,279.6348 C1246.5,279.6348 1246.5,356.4548 1246.5,356.4548 " fill="none" id="MeetingTitle-Meeting" style="stroke:#181818;stroke-width:1.0;"/><polygon fill="#181818" points="1383.38,279.6348,1374.38,275.6348,1378.38,279.6348,1374.38,283.6348,1383.38,279.6348" style="stroke:#181818;stroke-width:1.0;"/><line style="stroke:#181818;stroke-width:1.0;" x1="1378.38" x2="1370.38" y1="279.6348" y2="279.6348"/><polygon fill="#181818" points="1246.5,369.4548,1250.5,363.4548,1246.5,357.4548,1242.5,363.4548,1246.5,369.4548" style="stroke:#181818;stroke-width:1.0;"/><text fill="#000000" font-family="sans-serif" font-size="13" lengthAdjust="spacing" textLength="21" x="1248.03" y="294.6631">has</text><text fill="#000000" font-family="sans-serif" font-size="13" lengthAdjust="spacing" textLength="7" x="1368.5701" y="279.7368">1</text><text fill="#000000" font-family="sans-serif" font-size="13" lengthAdjust="spacing" textLength="7" x="1245.9813" y="358.3232">1</text></g><!--link Duration to Meeting--><g id="link_Duration_Meeting"><path codeLine="23" d="M1243,288.3648 C1243,288.3648 1243,356.5848 1243,356.5848 " fill="none" id="Duration-Meeting" style="stroke:#181818;stroke-width:1.0;"/><polygon fill="#181818" points="1243,275.3648,1239,284.3648,1243,280.3648,1247,284.3648,1243,275.3648" style="stroke:#181818;stroke-width:1.0;"/><line style="stroke:#181818;stroke-width:1.0;" x1="1243" x2="1243" y1="280.3648" y2="288.3648"/><polygon fill="#181818" points="1243,369.5848,1247,363.5848,1243,357.5848,1239,363.5848,1243,369.5848" style="stroke:#181818;stroke-width:1.0;"/><text fill="#000000" font-family="sans-serif" font-size="13" lengthAdjust="spacing" textLength="21" x="1221" y="318.5031">has</text><text fill="#000000" font-family="sans-serif" font-size="13" lengthAdjust="spacing" textLength="7" x="1250.1484" y="358.478">1</text><text fill="#000000" font-family="sans-serif" font-size="13" lengthAdjust="spacing" textLength="7" x="1224.7594" y="296.7324">1</text></g><!--link Time to Meeting--><g id="link_Time_Meeting"><path codeLine="24" d="M1186.25,288.3648 C1186.25,288.3648 1186.25,356.5848 1186.25,356.5848 " fill="none" id="Time-Meeting" style="stroke:#181818;stroke-width:1.0;"/><polygon fill="#181818" points="1186.25,275.3648,1182.25,284.3648,1186.25,280.3648,1190.25,284.3648,1186.25,275.3648" style="stroke:#181818;stroke-width:1.0;"/><line style="stroke:#181818;stroke-width:1.0;" x1="1186.25" x2="1186.25" y1="280.3648" y2="288.3648"/><polygon fill="#181818" points="1186.25,369.5848,1190.25,363.5848,1186.25,357.5848,1182.25,363.5848,1186.25,369.5848" style="stroke:#181818;stroke-width:1.0;"/><text fill="#000000" font-family="sans-serif" font-size="13" lengthAdjust="spacing" textLength="21" x="1164.25" y="318.5031">has</text><text fill="#000000" font-family="sans-serif" font-size="13" lengthAdjust="spacing" textLength="7" x="1174.2461" y="358.478">1</text><text fill="#000000" font-family="sans-serif" font-size="13" lengthAdjust="spacing" textLength="7" x="1186.0047" y="296.7324">1</text></g><!--link Meeting to User--><g id="link_Meeting_User"><path codeLine="25" d="M1154.67,427.6348 C1154.67,427.6348 1083.83,427.6348 1083.83,427.6348 C1083.83,427.6348 1083.83,525.0348 1083.83,525.0348 " fill="none" id="Meeting-User" style="stroke:#181818;stroke-width:1.0;"/><polygon fill="#181818" points="1167.67,427.6348,1161.67,423.6348,1155.67,427.6348,1161.67,431.6348,1167.67,427.6348" style="stroke:#181818;stroke-width:1.0;"/><polygon fill="#181818" points="1083.83,538.0348,1087.83,529.0348,1083.83,533.0348,1079.83,529.0348,1083.83,538.0348" style="stroke:#181818;stroke-width:1.0;"/><line style="stroke:#181818;stroke-width:1.0;" x1="1083.83" x2="1083.83" y1="533.0348" y2="525.0348"/><text fill="#000000" font-family="sans-serif" font-size="13" lengthAdjust="spacing" textLength="21" x="1061.83" y="455.9431">has</text><text fill="#000000" font-family="sans-serif" font-size="13" lengthAdjust="spacing" textLength="7" x="1152.9648" y="427.3055">1</text><text fill="#000000" font-family="sans-serif" font-size="13" lengthAdjust="spacing" textLength="5" x="1082.4519" y="526.7046">*</text></g><!--reverse link Meeting to User--><g id="link_Meeting_User"><path codeLine="26" d="M1162.95,415.6348 C1162.95,415.6348 1072.17,415.6348 1072.17,415.6348 C1072.17,415.6348 1072.17,498.7448 1072.17,538.0248 " fill="none" id="Meeting-backto-User" style="stroke:#181818;stroke-width:1.0;"/><polygon fill="#181818" points="1167.95,415.6348,1158.95,411.6348,1162.95,415.6348,1158.95,419.6348,1167.95,415.6348" style="stroke:#181818;stroke-width:1.0;"/><text fill="#000000" font-family="sans-serif" font-size="13" lengthAdjust="spacing" textLength="134" x="937.17" y="427.4631">schedule and manages</text><text fill="#000000" font-family="sans-serif" font-size="13" lengthAdjust="spacing" textLength="7" x="1153.0145" y="413.2641">1</text><text fill="#000000" font-family="sans-serif" font-size="13" lengthAdjust="spacing" textLength="7" x="1065.0772" y="527.0474">1</text></g><!--link Meeting to MeetingState--><g id="link_Meeting_MeetingState"><path codeLine="27" d="M1250.11,434.6348 C1286.38,434.6348 1333.5,434.6348 1333.5,434.6348 C1333.5,434.6348 1333.5,526.3348 1333.5,526.3348 " fill="none" id="Meeting-to-MeetingState" style="stroke:#181818;stroke-width:1.0;"/><polygon fill="#181818" points="1333.5,531.3348,1337.5,522.3348,1333.5,526.3348,1329.5,522.3348,1333.5,531.3348" style="stroke:#181818;stroke-width:1.0;"/><text fill="#000000" font-family="sans-serif" font-size="13" lengthAdjust="spacing" textLength="21" x="1311.5" y="434.8231">has</text><text fill="#000000" font-family="sans-serif" font-size="13" lengthAdjust="spacing" textLength="7" x="1258.0562" y="435.6485">1</text><text fill="#000000" font-family="sans-serif" font-size="13" lengthAdjust="spacing" textLength="7" x="1315.8625" y="520.2819">1</text></g><!--link Meeting to MeetingParticipant--><g id="link_Meeting_MeetingParticipant"><path codeLine="28" d="M1195.33,438.6948 C1195.33,438.6948 1195.33,526.3448 1195.33,526.3448 " fill="none" id="Meeting-to-MeetingParticipant" style="stroke:#181818;stroke-width:1.0;"/><polygon fill="#181818" points="1195.33,531.3448,1199.33,522.3448,1195.33,526.3448,1191.33,522.3448,1195.33,531.3448" style="stroke:#181818;stroke-width:1.0;"/><text fill="#000000" font-family="sans-serif" font-size="13" lengthAdjust="spacing" textLength="21" x="1173.33" y="478.5531">has</text><text fill="#000000" font-family="sans-serif" font-size="13" lengthAdjust="spacing" textLength="7" x="1185.3789" y="460.1883">1</text><text fill="#000000" font-family="sans-serif" font-size="13" lengthAdjust="spacing" textLength="20" x="1169.8563" y="520.2942">1..*</text></g><!--link MeetingParticipant to MeetingParticipantState--><g id="link_MeetingParticipant_MeetingParticipantState"><path codeLine="29" d="M1209,584.6848 C1209,584.6848 1209,647.2248 1209,647.2248 " fill="none" id="MeetingParticipant-to-MeetingParticipantState" style="stroke:#181818;stroke-width:1.0;"/><polygon fill="#181818" points="1209,652.2248,1213,643.2248,1209,647.2248,1205,643.2248,1209,652.2248" style="stroke:#181818;stroke-width:1.0;"/><text fill="#000000" font-family="sans-serif" font-size="13" lengthAdjust="spacing" textLength="21" x="1187" y="630.9831">has</text><text fill="#000000" font-family="sans-serif" font-size="13" lengthAdjust="spacing" textLength="7" x="1201.2344" y="606.4578">1</text><text fill="#000000" font-family="sans-serif" font-size="13" lengthAdjust="spacing" textLength="7" x="1201.2344" y="641.5847">1</text></g><!--link Notification to TypeOfNotification--><g id="link_Notification_TypeOfNotification"><path codeLine="36" d="M1623,605.8048 C1623,605.8048 1623,639.5348 1623,639.5348 " fill="none" id="Notification-TypeOfNotification" style="stroke:#181818;stroke-width:1.0;"/><polygon fill="#181818" points="1623,592.8048,1619,598.8048,1623,604.8048,1627,598.8048,1623,592.8048" style="stroke:#181818;stroke-width:1.0;"/><polygon fill="#181818" points="1623,652.5348,1627,643.5348,1623,647.5348,1619,643.5348,1623,652.5348" style="stroke:#181818;stroke-width:1.0;"/><line style="stroke:#181818;stroke-width:1.0;" x1="1623" x2="1623" y1="647.5348" y2="639.5348"/><text fill="#000000" font-family="sans-serif" font-size="13" lengthAdjust="spacing" textLength="21" x="1624" y="618.7031">has</text><text fill="#000000" font-family="sans-serif" font-size="13" lengthAdjust="spacing" textLength="7" x="1615.1906" y="641.5282">1</text><text fill="#000000" font-family="sans-serif" font-size="13" lengthAdjust="spacing" textLength="7" x="1615.3984" y="614.3172">1</text></g><!--link Notification to Post--><g id="link_Notification_Post"><path codeLine="37" d="M1686.58,558.6348 C1686.58,558.6348 1762,558.6348 1762,558.6348 C1762,558.6348 1762,645.9648 1762,645.9648 " fill="none" id="Notification-Post" style="stroke:#181818;stroke-width:1.0;"/><polygon fill="#181818" points="1673.58,558.6348,1682.58,562.6348,1678.58,558.6348,1682.58,554.6348,1673.58,558.6348" style="stroke:#181818;stroke-width:1.0;"/><line style="stroke:#181818;stroke-width:1.0;" x1="1678.58" x2="1686.58" y1="558.6348" y2="558.6348"/><polygon fill="#181818" points="1762,658.9648,1766,652.9648,1762,646.9648,1758,652.9648,1762,658.9648" style="stroke:#181818;stroke-width:1.0;"/><text fill="#000000" font-family="sans-serif" font-size="13" lengthAdjust="spacing" textLength="35" x="1726" y="560.6131">sends</text><text fill="#000000" font-family="sans-serif" font-size="13" lengthAdjust="spacing" textLength="7" x="1681.523" y="554.543">1</text><text fill="#000000" font-family="sans-serif" font-size="13" lengthAdjust="spacing" textLength="7" x="1754.0156" y="647.9706">1</text></g><!--link Meeting to Notification--><g id="link_Meeting_Notification"><path codeLine="38" d="M1222.67,451.8648 C1222.67,451.8648 1222.67,527.6348 1222.67,527.6348 C1222.67,527.6348 1559.3,527.6348 1559.3,527.6348 " fill="none" id="Meeting-Notification" style="stroke:#181818;stroke-width:1.0;"/><polygon fill="#181818" points="1222.67,438.8648,1218.67,444.8648,1222.67,450.8648,1226.67,444.8648,1222.67,438.8648" style="stroke:#181818;stroke-width:1.0;"/><polygon fill="#181818" points="1572.3,527.6348,1563.3,523.6348,1567.3,527.6348,1563.3,531.6348,1572.3,527.6348" style="stroke:#181818;stroke-width:1.0;"/><line style="stroke:#181818;stroke-width:1.0;" x1="1567.3" x2="1559.3" y1="527.6348" y2="527.6348"/><text fill="#000000" font-family="sans-serif" font-size="13" lengthAdjust="spacing" textLength="35" x="1354.1" y="523.6631">sends</text><text fill="#000000" font-family="sans-serif" font-size="13" lengthAdjust="spacing" textLength="7" x="1217.3544" y="460.115">1</text><text fill="#000000" font-family="sans-serif" font-size="13" lengthAdjust="spacing" textLength="7" x="1557.3394" y="518.9899">1</text></g><!--link TeacherProfile to Profile--><g id="link_TeacherProfile_Profile"><path codeLine="53" d="M211,275.4548 C211,320.0548 211,404.6348 211,404.6348 C211,404.6348 462.76,404.6348 462.76,404.6348 " fill="none" id="TeacherProfile-to-Profile" style="stroke:#181818;stroke-width:1.0;"/><polygon fill="none" points="462.76,397.6348,482.76,404.6348,462.76,411.6348,462.76,397.6348" style="stroke:#181818;stroke-width:1.0;"/></g><!--link StudentProfile to Profile--><g id="link_StudentProfile_Profile"><path codeLine="54" d="M369,275.4348 C369,315.8248 369,387.6348 369,387.6348 C369,387.6348 462.69,387.6348 462.69,387.6348 " fill="none" id="StudentProfile-to-Profile" style="stroke:#181818;stroke-width:1.0;"/><polygon fill="none" points="462.69,380.6348,482.69,387.6348,462.69,394.6348,462.69,380.6348" style="stroke:#181818;stroke-width:1.0;"/></g><!--link ManagerProfile to Profile--><g id="link_ManagerProfile_Profile"><path codeLine="55" d="M784.65,279.6348 C691.73,279.6348 531,279.6348 531,279.6348 C531,279.6348 531,349.4548 531,349.4548 " fill="none" id="ManagerProfile-to-Profile" style="stroke:#181818;stroke-width:1.0;"/><polygon fill="none" points="538,349.4548,531,369.4548,524,349.4548,538,349.4548" style="stroke:#181818;stroke-width:1.0;"/></g><!--link TaxPayerNumber to Profile--><g id="link_TaxPayerNumber_Profile"><path codeLine="56" d="M679,288.3848 C679,288.3848 679,392.6348 679,392.6348 C679,392.6348 568.31,392.6348 568.31,392.6348 " fill="none" id="TaxPayerNumber-Profile" style="stroke:#181818;stroke-width:1.0;"/><polygon fill="#181818" points="679,275.3848,675,284.3848,679,280.3848,683,284.3848,679,275.3848" style="stroke:#181818;stroke-width:1.0;"/><line style="stroke:#181818;stroke-width:1.0;" x1="679" x2="679" y1="280.3848" y2="288.3848"/><polygon fill="#181818" points="555.31,392.6348,561.31,396.6348,567.31,392.6348,561.31,388.6348,555.31,392.6348" style="stroke:#181818;stroke-width:1.0;"/><text fill="#000000" font-family="sans-serif" font-size="13" lengthAdjust="spacing" textLength="21" x="653.78" y="388.6631">has</text><text fill="#000000" font-family="sans-serif" font-size="13" lengthAdjust="spacing" textLength="7" x="671.2781" y="296.7565">1</text><text fill="#000000" font-family="sans-serif" font-size="13" lengthAdjust="spacing" textLength="7" x="562.8988" y="385.9219">1</text></g><!--link DateOfBirth to Profile--><g id="link_DateOfBirth_Profile"><path codeLine="57" d="M507,288.3648 C507,288.3648 507,356.5848 507,356.5848 " fill="none" id="DateOfBirth-Profile" style="stroke:#181818;stroke-width:1.0;"/><polygon fill="#181818" points="507,275.3648,503,284.3648,507,280.3648,511,284.3648,507,275.3648" style="stroke:#181818;stroke-width:1.0;"/><line style="stroke:#181818;stroke-width:1.0;" x1="507" x2="507" y1="280.3648" y2="288.3648"/><polygon fill="#181818" points="507,369.5848,511,363.5848,507,357.5848,503,363.5848,507,369.5848" style="stroke:#181818;stroke-width:1.0;"/><text fill="#000000" font-family="sans-serif" font-size="13" lengthAdjust="spacing" textLength="21" x="485" y="318.5031">has</text><text fill="#000000" font-family="sans-serif" font-size="13" lengthAdjust="spacing" textLength="7" x="497.0453" y="358.478">1</text><text fill="#000000" font-family="sans-serif" font-size="13" lengthAdjust="spacing" textLength="7" x="496.8031" y="296.7324">1</text></g><!--link MechanographicNumber to StudentProfile--><g id="link_MechanographicNumber_StudentProfile"><path codeLine="58" d="M370.25,148.7048 C370.25,148.7048 370.25,208.6948 370.25,208.6948 " fill="none" id="MechanographicNumber-StudentProfile" style="stroke:#181818;stroke-width:1.0;"/><polygon fill="#181818" points="370.25,135.7048,366.25,144.7048,370.25,140.7048,374.25,144.7048,370.25,135.7048" style="stroke:#181818;stroke-width:1.0;"/><line style="stroke:#181818;stroke-width:1.0;" x1="370.25" x2="370.25" y1="140.7048" y2="148.7048"/><polygon fill="#181818" points="370.25,221.6948,374.25,215.6948,370.25,209.6948,366.25,215.6948,370.25,221.6948" style="stroke:#181818;stroke-width:1.0;"/><text fill="#000000" font-family="sans-serif" font-size="13" lengthAdjust="spacing" textLength="21" x="348.25" y="174.7231">has</text><text fill="#000000" font-family="sans-serif" font-size="13" lengthAdjust="spacing" textLength="7" x="362.7578" y="211.0481">1</text><text fill="#000000" font-family="sans-serif" font-size="13" lengthAdjust="spacing" textLength="7" x="355.5672" y="157.0394">1</text></g><!--link Acronym to TeacherProfile--><g id="link_Acronym_TeacherProfile"><path codeLine="59" d="M220,148.7048 C220,148.7048 220,208.6948 220,208.6948 " fill="none" id="Acronym-TeacherProfile" style="stroke:#181818;stroke-width:1.0;"/><polygon fill="#181818" points="220,135.7048,216,144.7048,220,140.7048,224,144.7048,220,135.7048" style="stroke:#181818;stroke-width:1.0;"/><line style="stroke:#181818;stroke-width:1.0;" x1="220" x2="220" y1="140.7048" y2="148.7048"/><polygon fill="#181818" points="220,221.6948,224,215.6948,220,209.6948,216,215.6948,220,221.6948" style="stroke:#181818;stroke-width:1.0;"/><text fill="#000000" font-family="sans-serif" font-size="13" lengthAdjust="spacing" textLength="21" x="198" y="174.7231">has</text><text fill="#000000" font-family="sans-serif" font-size="13" lengthAdjust="spacing" textLength="7" x="214.2031" y="211.0481">1</text><text fill="#000000" font-family="sans-serif" font-size="13" lengthAdjust="spacing" textLength="7" x="212.0719" y="157.0394">1</text></g><!--link Schedule to Profile--><g id="link_Schedule_Profile"><path codeLine="60" d="M68,288.2848 C68,288.2848 68,421.6348 68,421.6348 C68,421.6348 469.86,421.6348 469.86,421.6348 " fill="none" id="Schedule-Profile" style="stroke:#181818;stroke-width:1.0;"/><polygon fill="#181818" points="68,275.2848,64,284.2848,68,280.2848,72,284.2848,68,275.2848" style="stroke:#181818;stroke-width:1.0;"/><line style="stroke:#181818;stroke-width:1.0;" x1="68" x2="68" y1="280.2848" y2="288.2848"/><polygon fill="#181818" points="482.86,421.6348,476.86,417.6348,470.86,421.6348,476.86,425.6348,482.86,421.6348" style="stroke:#181818;stroke-width:1.0;"/><text fill="#000000" font-family="sans-serif" font-size="13" lengthAdjust="spacing" textLength="21" x="180.25" y="417.6631">has</text><text fill="#000000" font-family="sans-serif" font-size="13" lengthAdjust="spacing" textLength="7" x="60.2781" y="296.6359">1</text><text fill="#000000" font-family="sans-serif" font-size="13" lengthAdjust="spacing" textLength="7" x="468.0559" y="420.5086">1</text></g><!--link ProfileDay to Schedule--><g id="link_ProfileDay_Schedule"><path codeLine="61" d="M68,148.7048 C68,148.7048 68,208.6948 68,208.6948 " fill="none" id="ProfileDay-Schedule" style="stroke:#181818;stroke-width:1.0;"/><polygon fill="#181818" points="68,135.7048,64,144.7048,68,140.7048,72,144.7048,68,135.7048" style="stroke:#181818;stroke-width:1.0;"/><line style="stroke:#181818;stroke-width:1.0;" x1="68" x2="68" y1="140.7048" y2="148.7048"/><polygon fill="#181818" points="68,221.6948,72,215.6948,68,209.6948,64,215.6948,68,221.6948" style="stroke:#181818;stroke-width:1.0;"/><text fill="#000000" font-family="sans-serif" font-size="13" lengthAdjust="spacing" textLength="21" x="46" y="174.7231">has</text><text fill="#000000" font-family="sans-serif" font-size="13" lengthAdjust="spacing" textLength="20" x="45.8125" y="211.0481">1..*</text><text fill="#000000" font-family="sans-serif" font-size="13" lengthAdjust="spacing" textLength="7" x="58.4219" y="157.0394">1</text></g><!--link Profile to User--><g id="link_Profile_User"><path codeLine="63" d="M568.21,404.6348 C568.21,404.6348 1045.83,404.6348 1045.83,404.6348 C1045.83,404.6348 1045.83,525.0648 1045.83,525.0648 " fill="none" id="Profile-User" style="stroke:#181818;stroke-width:1.0;"/><polygon fill="#181818" points="555.21,404.6348,561.21,408.6348,567.21,404.6348,561.21,400.6348,555.21,404.6348" style="stroke:#181818;stroke-width:1.0;"/><polygon fill="#181818" points="1045.83,538.0648,1049.83,529.0648,1045.83,533.0648,1041.83,529.0648,1045.83,538.0648" style="stroke:#181818;stroke-width:1.0;"/><line style="stroke:#181818;stroke-width:1.0;" x1="1045.83" x2="1045.83" y1="533.0648" y2="525.0648"/><text fill="#000000" font-family="sans-serif" font-size="13" lengthAdjust="spacing" textLength="21" x="845.24" y="400.6631">has</text><text fill="#000000" font-family="sans-serif" font-size="13" lengthAdjust="spacing" textLength="7" x="563.0279" y="420.5086">1</text><text fill="#000000" font-family="sans-serif" font-size="13" lengthAdjust="spacing" textLength="7" x="1030.9957" y="526.7434">1</text></g><!--link User to Email--><g id="link_User_Email"><path codeLine="78" d="M1821.54,266.6348 C1821.54,266.6348 1841.5,266.6348 1841.5,266.6348 C1841.5,266.6348 1841.5,348.3848 1841.5,348.3848 " fill="none" id="User-Email" style="stroke:#181818;stroke-width:1.0;"/><polygon fill="#181818" points="1808.54,266.6348,1814.54,270.6348,1820.54,266.6348,1814.54,262.6348,1808.54,266.6348" style="stroke:#181818;stroke-width:1.0;"/><polygon fill="#181818" points="1841.5,361.3848,1845.5,352.3848,1841.5,356.3848,1837.5,352.3848,1841.5,361.3848" style="stroke:#181818;stroke-width:1.0;"/><line style="stroke:#181818;stroke-width:1.0;" x1="1841.5" x2="1841.5" y1="356.3848" y2="348.3848"/><text fill="#000000" font-family="sans-serif" font-size="13" lengthAdjust="spacing" textLength="21" x="1819.5" y="293.5531">has</text><text fill="#000000" font-family="sans-serif" font-size="13" lengthAdjust="spacing" textLength="7" x="1816.3449" y="264.8517">1</text><text fill="#000000" font-family="sans-serif" font-size="13" lengthAdjust="spacing" textLength="7" x="1825.8938" y="350.3078">1</text></g><!--link User to Password--><g id="link_User_Password"><path codeLine="79" d="M1748,314.7148 C1748,314.7148 1748,364.4548 1748,364.4548 " fill="none" id="User-Password" style="stroke:#181818;stroke-width:1.0;"/><polygon fill="#181818" points="1748,301.7148,1744,307.7148,1748,313.7148,1752,307.7148,1748,301.7148" style="stroke:#181818;stroke-width:1.0;"/><polygon fill="#181818" points="1748,377.4548,1752,368.4548,1748,372.4548,1744,368.4548,1748,377.4548" style="stroke:#181818;stroke-width:1.0;"/><line style="stroke:#181818;stroke-width:1.0;" x1="1748" x2="1748" y1="372.4548" y2="364.4548"/><text fill="#000000" font-family="sans-serif" font-size="13" lengthAdjust="spacing" textLength="21" x="1726" y="335.6131">has</text><text fill="#000000" font-family="sans-serif" font-size="13" lengthAdjust="spacing" textLength="7" x="1740.1906" y="366.4297">1</text><text fill="#000000" font-family="sans-serif" font-size="13" lengthAdjust="spacing" textLength="7" x="1740.5734" y="323.279">1</text></g><!--link User to Role--><g id="link_User_Role"><path codeLine="80" d="M1674.4,292.6348 C1674.4,292.6348 1630.25,292.6348 1630.25,292.6348 C1630.25,292.6348 1630.25,364.4248 1630.25,364.4248 " fill="none" id="User-Role" style="stroke:#181818;stroke-width:1.0;"/><polygon fill="#181818" points="1687.4,292.6348,1681.4,288.6348,1675.4,292.6348,1681.4,296.6348,1687.4,292.6348" style="stroke:#181818;stroke-width:1.0;"/><polygon fill="#181818" points="1630.25,377.4248,1634.25,368.4248,1630.25,372.4248,1626.25,368.4248,1630.25,377.4248" style="stroke:#181818;stroke-width:1.0;"/><line style="stroke:#181818;stroke-width:1.0;" x1="1630.25" x2="1630.25" y1="372.4248" y2="364.4248"/><text fill="#000000" font-family="sans-serif" font-size="13" lengthAdjust="spacing" textLength="21" x="1608.25" y="302.4831">has</text><text fill="#000000" font-family="sans-serif" font-size="13" lengthAdjust="spacing" textLength="7" x="1672.5878" y="294.0205">1</text><text fill="#000000" font-family="sans-serif" font-size="13" lengthAdjust="spacing" textLength="7" x="1628.5109" y="366.3927">1</text></g><!--link Manager to User--><g id="link_Manager_User"><path codeLine="81" d="M1678.17,135.6748 C1678.17,163.3248 1678.17,202.6348 1678.17,202.6348 C1678.17,202.6348 1682.3,202.6348 1682.3,202.6348 " fill="none" id="Manager-to-User" style="stroke:#181818;stroke-width:1.0;"/><polygon fill="#181818" points="1687.3,202.6348,1678.3,198.6348,1682.3,202.6348,1678.3,206.6348,1687.3,202.6348" style="stroke:#181818;stroke-width:1.0;"/><text fill="#000000" font-family="sans-serif" font-size="13" lengthAdjust="spacing" textLength="43" x="1634.17" y="186.2531">creates</text><text fill="#000000" font-family="sans-serif" font-size="13" lengthAdjust="spacing" textLength="7" x="1677.4416" y="157.4456">1</text><text fill="#000000" font-family="sans-serif" font-size="13" lengthAdjust="spacing" textLength="5" x="1674.5975" y="193.0517">*</text></g><!--link Manager to User--><g id="link_Manager_User"><path codeLine="82" d="M1682.83,135.7948 C1682.83,165.2748 1682.83,208.6348 1682.83,208.6348 C1682.83,208.6348 1683.26,208.6348 1683.26,208.6348 " fill="none" id="Manager-to-User-1" style="stroke:#181818;stroke-width:1.0;"/><polygon fill="none" points="1667.11,201.6348,1687.11,208.6348,1667.11,215.6348,1667.11,201.6348" style="stroke:#181818;stroke-width:1.0;"/></g><!--link Student to User--><g id="link_Student_User"><path codeLine="83" d="M1886,135.7148 C1886,171.7448 1886,231.6348 1886,231.6348 C1886,231.6348 1828.53,231.6348 1828.53,231.6348 " fill="none" id="Student-to-User" style="stroke:#181818;stroke-width:1.0;"/><polygon fill="none" points="1828.53,238.6348,1808.53,231.6348,1828.53,224.6348,1828.53,238.6348" style="stroke:#181818;stroke-width:1.0;"/></g><!--link Teacher to User--><g id="link_Teacher_User"><path codeLine="84" d="M1767,135.7048 C1767,135.7048 1767,175.5848 1767,175.5848 " fill="none" id="Teacher-to-User" style="stroke:#181818;stroke-width:1.0;"/><polygon fill="none" points="1774,175.5848,1767,195.5848,1760,175.5848,1774,175.5848" style="stroke:#181818;stroke-width:1.0;"/></g><!--SRC=[bLRVRvim47xFNs7HborQgcrLfNP2aLPbbVRGD5gwlHzWm2lOp9XkKPV_lOSn0VCZ2Izru_lkE7ztzzan2oX9gOf5aCzc-JFZ6KX8IGR-CqHqgtO99PBw2dYKq1OWOPogNKQ9aEWycocH4IM89vGIAGbOwSC4HmDJ668bKc2Sh2HxeRZGd4LyPZv27DU5A98q0aMNI_90gM8ySeZhteiae1BtBW0y3u2ypWWXb6FGNOr3c1H28SXrAyjogM5aFzEBdq2U4-UfJCGXaDUEUWETtltwS75ty_dw-luzUO6am3Dvlp5z7R7Wx4zHPlMwRmLR5HBAunttjboUM4edm4sEMuMSJ7VRW5JCPnbmrMBb5FIyZ-aGMp-cGO7qEPySibWizLeNv0j98ICYr4YBx1BbBXRp3Zo6N6CFj9x0QIvFOEgTqZhN6SuTyZEdSWI3eVHg87bzGE017eTZd_PzEWUl-1iENq4lB-VEK8rwFctZm9TwHQi2O756Pcej50kPhzdj3fRl0rG3OmQh3HwSBgklKGGUmuxB6HraUJH5mdy68ZRyR4Ik3Bmm-0uofpmOQu4nz7wCjuqK8IjbeqtPxQrt5OQM5XdS25jjkYXWPya6FpoSMrK4Q3a5Uz2DEHJDTTT5aZmEIn7ysy2EodMHUjZivwlB2abv3EyOIluaJV9Zu2AIaCNCd_pHhxuKV9TEy3Y8qnXjpWfs-YOmnE7FyvgsKxt5ul-XHIfPjClMitVgrRDtAcD9NEtKaijMEKv01sjW-NHIRrnh_YrqXuW6RLqCHn9gCMzaiSca3b6BMkrjpN5BoaTcjqJOWnk6tjNDHnpSrkJgEADFYAgeibIH4ETf3IdjxkSnFe4E1clOVuXaokMzmJz_XGmck7p3PrM2-E-1_Lev6g4EOHWmbUyBlB6RMe_QJLCFI9xcrgfQbM_J1dt4WOHZ84rigxjD1eURihdgVKcn6soO7hlItfxPpcvzw6Pt_mO0]--></g></svg>