<?xml version="1.0" encoding="us-ascii" standalone="no"?><svg xmlns="http://www.w3.org/2000/svg" xmlns:xlink="http://www.w3.org/1999/xlink" contentStyleType="text/css" height="816px" preserveAspectRatio="none" style="width:558px;height:816px;background:#FFFFFF;" version="1.1" viewBox="0 0 558 816" width="558px" zoomAndPan="magnify"><defs/><g><!--entity MeetingRepository--><g id="elem_MeetingRepository"><path d="M53.5,762 C53.5,752 122.5,752 122.5,752 C122.5,752 191.5,752 191.5,762 L191.5,789.6211 C191.5,799.6211 122.5,799.6211 122.5,799.6211 C122.5,799.6211 53.5,799.6211 53.5,789.6211 L53.5,762 " fill="#F1F1F1" style="stroke:#181818;stroke-width:0.5;"/><path d="M53.5,762 C53.5,772 122.5,772 122.5,772 C122.5,772 191.5,772 191.5,762 " fill="none" style="stroke:#181818;stroke-width:0.5;"/><text fill="#000000" font-family="sans-serif" font-size="14" lengthAdjust="spacing" textLength="118" x="63.5" y="791.1074">MeetingRepository</text></g><!--class ListParticipantsInMeetingUI--><g id="elem_ListParticipantsInMeetingUI"><rect codeLine="3" fill="#F1F1F1" height="48" id="ListParticipantsInMeetingUI" rx="2.5" ry="2.5" style="stroke:#181818;stroke-width:0.5;" width="201" x="217" y="7"/><ellipse cx="232" cy="23" fill="#ADD1B2" rx="11" ry="11" style="stroke:#181818;stroke-width:1.0;"/><path d="M234.7656,18.875 Q234.9219,18.6563 235.1094,18.5469 Q235.2969,18.4375 235.5156,18.4375 Q235.8906,18.4375 236.125,18.7031 Q236.3594,18.9531 236.3594,19.5625 L236.3594,21.0156 Q236.3594,21.625 236.125,21.8906 Q235.8906,22.1563 235.5156,22.1563 Q235.1719,22.1563 234.9688,21.9531 Q234.7656,21.7656 234.6563,21.25 Q234.6094,20.8906 234.4219,20.7031 Q234.0938,20.3281 233.4844,20.1094 Q232.875,19.8906 232.25,19.8906 Q231.4844,19.8906 230.8438,20.2188 Q230.2188,20.5469 229.7188,21.2969 Q229.2344,22.0469 229.2344,23.0781 L229.2344,24.1719 Q229.2344,25.4063 230.125,26.2344 Q231.0156,27.0469 232.6094,27.0469 Q233.5469,27.0469 234.2031,26.7969 Q234.5938,26.6406 235.0156,26.2031 Q235.2813,25.9375 235.4219,25.8594 Q235.5781,25.7813 235.7813,25.7813 Q236.1094,25.7813 236.3594,26.0469 Q236.625,26.2969 236.625,26.6406 Q236.625,26.9844 236.2813,27.3906 Q235.7813,27.9688 234.9844,28.2969 Q233.9063,28.75 232.6094,28.75 Q231.0938,28.75 229.8906,28.125 Q228.9063,27.625 228.2188,26.5625 Q227.5313,25.4844 227.5313,24.2031 L227.5313,23.0469 Q227.5313,21.7188 228.1406,20.5781 Q228.7656,19.4219 229.8594,18.8125 Q230.9531,18.1875 232.1875,18.1875 Q232.9219,18.1875 233.5625,18.3594 Q234.2188,18.5156 234.7656,18.875 Z " fill="#000000"/><text fill="#000000" font-family="sans-serif" font-size="14" lengthAdjust="spacing" textLength="169" x="246" y="28.7969">ListParticipantsInMeetingUI</text><line style="stroke:#181818;stroke-width:0.5;" x1="218" x2="417" y1="39" y2="39"/><line style="stroke:#181818;stroke-width:0.5;" x1="218" x2="417" y1="47" y2="47"/></g><!--class MeetingController--><g id="elem_MeetingController"><rect codeLine="6" fill="#F1F1F1" height="141.1055" id="MeetingController" rx="2.5" ry="2.5" style="stroke:#181818;stroke-width:0.5;" width="337" x="149" y="115"/><ellipse cx="257.25" cy="131" fill="#ADD1B2" rx="11" ry="11" style="stroke:#181818;stroke-width:1.0;"/><path d="M260.0156,126.875 Q260.1719,126.6563 260.3594,126.5469 Q260.5469,126.4375 260.7656,126.4375 Q261.1406,126.4375 261.375,126.7031 Q261.6094,126.9531 261.6094,127.5625 L261.6094,129.0156 Q261.6094,129.625 261.375,129.8906 Q261.1406,130.1563 260.7656,130.1563 Q260.4219,130.1563 260.2188,129.9531 Q260.0156,129.7656 259.9063,129.25 Q259.8594,128.8906 259.6719,128.7031 Q259.3438,128.3281 258.7344,128.1094 Q258.125,127.8906 257.5,127.8906 Q256.7344,127.8906 256.0938,128.2188 Q255.4688,128.5469 254.9688,129.2969 Q254.4844,130.0469 254.4844,131.0781 L254.4844,132.1719 Q254.4844,133.4063 255.375,134.2344 Q256.2656,135.0469 257.8594,135.0469 Q258.7969,135.0469 259.4531,134.7969 Q259.8438,134.6406 260.2656,134.2031 Q260.5313,133.9375 260.6719,133.8594 Q260.8281,133.7813 261.0313,133.7813 Q261.3594,133.7813 261.6094,134.0469 Q261.875,134.2969 261.875,134.6406 Q261.875,134.9844 261.5313,135.3906 Q261.0313,135.9688 260.2344,136.2969 Q259.1563,136.75 257.8594,136.75 Q256.3438,136.75 255.1406,136.125 Q254.1563,135.625 253.4688,134.5625 Q252.7813,133.4844 252.7813,132.2031 L252.7813,131.0469 Q252.7813,129.7188 253.3906,128.5781 Q254.0156,127.4219 255.1094,126.8125 Q256.2031,126.1875 257.4375,126.1875 Q258.1719,126.1875 258.8125,126.3594 Q259.4688,126.5156 260.0156,126.875 Z " fill="#000000"/><text fill="#000000" font-family="sans-serif" font-size="14" lengthAdjust="spacing" textLength="112" x="277.75" y="136.7969">MeetingController</text><line style="stroke:#181818;stroke-width:0.5;" x1="150" x2="485" y1="147" y2="147"/><line style="stroke:#181818;stroke-width:0.5;" x1="150" x2="485" y1="155" y2="155"/><ellipse cx="160" cy="169.8105" fill="#84BE84" rx="3" ry="3" style="stroke:#038048;stroke-width:1.0;"/><text fill="#000000" font-family="sans-serif" font-size="14" lengthAdjust="spacing" textLength="87" x="169" y="174.1074">getMeetings()</text><ellipse cx="160" cy="188.4316" fill="#84BE84" rx="3" ry="3" style="stroke:#038048;stroke-width:1.0;"/><text fill="#000000" font-family="sans-serif" font-size="14" lengthAdjust="spacing" textLength="65" x="169" y="192.7285">getAuthz()</text><ellipse cx="160" cy="207.0527" fill="#84BE84" rx="3" ry="3" style="stroke:#038048;stroke-width:1.0;"/><text fill="#000000" font-family="sans-serif" font-size="14" lengthAdjust="spacing" textLength="208" x="169" y="211.3496">getParticipants(Meeting meeting)</text><ellipse cx="160" cy="225.6738" fill="#84BE84" rx="3" ry="3" style="stroke:#038048;stroke-width:1.0;"/><text fill="#000000" font-family="sans-serif" font-size="14" lengthAdjust="spacing" textLength="244" x="169" y="229.9707">getMeetingsByUser(Profile userProfile)</text><ellipse cx="160" cy="244.2949" fill="#84BE84" rx="3" ry="3" style="stroke:#038048;stroke-width:1.0;"/><text fill="#000000" font-family="sans-serif" font-size="14" lengthAdjust="spacing" textLength="311" x="169" y="248.5918">isParticipant(Profile userProfile, Meeting meeting)</text></g><!--class MeetingService--><g id="elem_MeetingService"><rect codeLine="14" fill="#F1F1F1" height="66.6211" id="MeetingService" rx="2.5" ry="2.5" style="stroke:#181818;stroke-width:0.5;" width="129" x="58" y="625"/><ellipse cx="73" cy="641" fill="#ADD1B2" rx="11" ry="11" style="stroke:#181818;stroke-width:1.0;"/><path d="M75.7656,636.875 Q75.9219,636.6563 76.1094,636.5469 Q76.2969,636.4375 76.5156,636.4375 Q76.8906,636.4375 77.125,636.7031 Q77.3594,636.9531 77.3594,637.5625 L77.3594,639.0156 Q77.3594,639.625 77.125,639.8906 Q76.8906,640.1563 76.5156,640.1563 Q76.1719,640.1563 75.9688,639.9531 Q75.7656,639.7656 75.6563,639.25 Q75.6094,638.8906 75.4219,638.7031 Q75.0938,638.3281 74.4844,638.1094 Q73.875,637.8906 73.25,637.8906 Q72.4844,637.8906 71.8438,638.2188 Q71.2188,638.5469 70.7188,639.2969 Q70.2344,640.0469 70.2344,641.0781 L70.2344,642.1719 Q70.2344,643.4063 71.125,644.2344 Q72.0156,645.0469 73.6094,645.0469 Q74.5469,645.0469 75.2031,644.7969 Q75.5938,644.6406 76.0156,644.2031 Q76.2813,643.9375 76.4219,643.8594 Q76.5781,643.7813 76.7813,643.7813 Q77.1094,643.7813 77.3594,644.0469 Q77.625,644.2969 77.625,644.6406 Q77.625,644.9844 77.2813,645.3906 Q76.7813,645.9688 75.9844,646.2969 Q74.9063,646.75 73.6094,646.75 Q72.0938,646.75 70.8906,646.125 Q69.9063,645.625 69.2188,644.5625 Q68.5313,643.4844 68.5313,642.2031 L68.5313,641.0469 Q68.5313,639.7188 69.1406,638.5781 Q69.7656,637.4219 70.8594,636.8125 Q71.9531,636.1875 73.1875,636.1875 Q73.9219,636.1875 74.5625,636.3594 Q75.2188,636.5156 75.7656,636.875 Z " fill="#000000"/><text fill="#000000" font-family="sans-serif" font-size="14" lengthAdjust="spacing" textLength="97" x="87" y="646.7969">MeetingService</text><line style="stroke:#181818;stroke-width:0.5;" x1="59" x2="186" y1="657" y2="657"/><line style="stroke:#181818;stroke-width:0.5;" x1="59" x2="186" y1="665" y2="665"/><ellipse cx="69" cy="679.8105" fill="#84BE84" rx="3" ry="3" style="stroke:#038048;stroke-width:1.0;"/><text fill="#000000" font-family="sans-serif" font-size="14" lengthAdjust="spacing" textLength="102" x="78" y="684.1074">getAllMeetings()</text></g><!--class PersistenceContext--><g id="elem_PersistenceContext"><rect codeLine="19" fill="#F1F1F1" height="66.6211" id="PersistenceContext" rx="2.5" ry="2.5" style="stroke:#181818;stroke-width:0.5;" width="154" x="45.5" y="325"/><ellipse cx="60.5" cy="341" fill="#ADD1B2" rx="11" ry="11" style="stroke:#181818;stroke-width:1.0;"/><path d="M63.2656,336.875 Q63.4219,336.6563 63.6094,336.5469 Q63.7969,336.4375 64.0156,336.4375 Q64.3906,336.4375 64.625,336.7031 Q64.8594,336.9531 64.8594,337.5625 L64.8594,339.0156 Q64.8594,339.625 64.625,339.8906 Q64.3906,340.1563 64.0156,340.1563 Q63.6719,340.1563 63.4688,339.9531 Q63.2656,339.7656 63.1563,339.25 Q63.1094,338.8906 62.9219,338.7031 Q62.5938,338.3281 61.9844,338.1094 Q61.375,337.8906 60.75,337.8906 Q59.9844,337.8906 59.3438,338.2188 Q58.7188,338.5469 58.2188,339.2969 Q57.7344,340.0469 57.7344,341.0781 L57.7344,342.1719 Q57.7344,343.4063 58.625,344.2344 Q59.5156,345.0469 61.1094,345.0469 Q62.0469,345.0469 62.7031,344.7969 Q63.0938,344.6406 63.5156,344.2031 Q63.7813,343.9375 63.9219,343.8594 Q64.0781,343.7813 64.2813,343.7813 Q64.6094,343.7813 64.8594,344.0469 Q65.125,344.2969 65.125,344.6406 Q65.125,344.9844 64.7813,345.3906 Q64.2813,345.9688 63.4844,346.2969 Q62.4063,346.75 61.1094,346.75 Q59.5938,346.75 58.3906,346.125 Q57.4063,345.625 56.7188,344.5625 Q56.0313,343.4844 56.0313,342.2031 L56.0313,341.0469 Q56.0313,339.7188 56.6406,338.5781 Q57.2656,337.4219 58.3594,336.8125 Q59.4531,336.1875 60.6875,336.1875 Q61.4219,336.1875 62.0625,336.3594 Q62.7188,336.5156 63.2656,336.875 Z " fill="#000000"/><text fill="#000000" font-family="sans-serif" font-size="14" lengthAdjust="spacing" textLength="122" x="74.5" y="346.7969">PersistenceContext</text><line style="stroke:#181818;stroke-width:0.5;" x1="46.5" x2="198.5" y1="357" y2="357"/><line style="stroke:#181818;stroke-width:0.5;" x1="46.5" x2="198.5" y1="365" y2="365"/><ellipse cx="56.5" cy="379.8105" fill="#84BE84" rx="3" ry="3" style="stroke:#038048;stroke-width:1.0;"/><text fill="#000000" font-family="sans-serif" font-size="14" lengthAdjust="spacing" textLength="84" x="65.5" y="384.1074">repositories()</text></g><!--class RepositoryFactory--><g id="elem_RepositoryFactory"><rect codeLine="23" fill="#F1F1F1" height="103.8633" id="RepositoryFactory" rx="2.5" ry="2.5" style="stroke:#181818;stroke-width:0.5;" width="231" x="7" y="461"/><ellipse cx="60.25" cy="477" fill="#ADD1B2" rx="11" ry="11" style="stroke:#181818;stroke-width:1.0;"/><path d="M63.0156,472.875 Q63.1719,472.6563 63.3594,472.5469 Q63.5469,472.4375 63.7656,472.4375 Q64.1406,472.4375 64.375,472.7031 Q64.6094,472.9531 64.6094,473.5625 L64.6094,475.0156 Q64.6094,475.625 64.375,475.8906 Q64.1406,476.1563 63.7656,476.1563 Q63.4219,476.1563 63.2188,475.9531 Q63.0156,475.7656 62.9063,475.25 Q62.8594,474.8906 62.6719,474.7031 Q62.3438,474.3281 61.7344,474.1094 Q61.125,473.8906 60.5,473.8906 Q59.7344,473.8906 59.0938,474.2188 Q58.4688,474.5469 57.9688,475.2969 Q57.4844,476.0469 57.4844,477.0781 L57.4844,478.1719 Q57.4844,479.4063 58.375,480.2344 Q59.2656,481.0469 60.8594,481.0469 Q61.7969,481.0469 62.4531,480.7969 Q62.8438,480.6406 63.2656,480.2031 Q63.5313,479.9375 63.6719,479.8594 Q63.8281,479.7813 64.0313,479.7813 Q64.3594,479.7813 64.6094,480.0469 Q64.875,480.2969 64.875,480.6406 Q64.875,480.9844 64.5313,481.3906 Q64.0313,481.9688 63.2344,482.2969 Q62.1563,482.75 60.8594,482.75 Q59.3438,482.75 58.1406,482.125 Q57.1563,481.625 56.4688,480.5625 Q55.7813,479.4844 55.7813,478.2031 L55.7813,477.0469 Q55.7813,475.7188 56.3906,474.5781 Q57.0156,473.4219 58.1094,472.8125 Q59.2031,472.1875 60.4375,472.1875 Q61.1719,472.1875 61.8125,472.3594 Q62.4688,472.5156 63.0156,472.875 Z " fill="#000000"/><text fill="#000000" font-family="sans-serif" font-size="14" lengthAdjust="spacing" textLength="116" x="80.75" y="482.7969">RepositoryFactory</text><line style="stroke:#181818;stroke-width:0.5;" x1="8" x2="237" y1="493" y2="493"/><line style="stroke:#181818;stroke-width:0.5;" x1="8" x2="237" y1="501" y2="501"/><ellipse cx="18" cy="515.8105" fill="#84BE84" rx="3" ry="3" style="stroke:#038048;stroke-width:1.0;"/><text fill="#000000" font-family="sans-serif" font-size="14" lengthAdjust="spacing" textLength="50" x="27" y="520.1074">create()</text><ellipse cx="18" cy="534.4316" fill="#84BE84" rx="3" ry="3" style="stroke:#038048;stroke-width:1.0;"/><text fill="#000000" font-family="sans-serif" font-size="14" lengthAdjust="spacing" textLength="169" x="27" y="538.7285">newTransactionalContext()</text><ellipse cx="18" cy="553.0527" fill="#84BE84" rx="3" ry="3" style="stroke:#038048;stroke-width:1.0;"/><text fill="#000000" font-family="sans-serif" font-size="14" lengthAdjust="spacing" textLength="205" x="27" y="557.3496">create(TransactionalContext ctx)</text></g><!--class TransactionalContext--><g id="elem_TransactionalContext"><rect codeLine="32" fill="#F1F1F1" height="85.2422" id="TransactionalContext" rx="2.5" ry="2.5" style="stroke:#181818;stroke-width:0.5;" width="166" x="234.5" y="316"/><ellipse cx="249.5" cy="332" fill="#ADD1B2" rx="11" ry="11" style="stroke:#181818;stroke-width:1.0;"/><path d="M252.2656,327.875 Q252.4219,327.6563 252.6094,327.5469 Q252.7969,327.4375 253.0156,327.4375 Q253.3906,327.4375 253.625,327.7031 Q253.8594,327.9531 253.8594,328.5625 L253.8594,330.0156 Q253.8594,330.625 253.625,330.8906 Q253.3906,331.1563 253.0156,331.1563 Q252.6719,331.1563 252.4688,330.9531 Q252.2656,330.7656 252.1563,330.25 Q252.1094,329.8906 251.9219,329.7031 Q251.5938,329.3281 250.9844,329.1094 Q250.375,328.8906 249.75,328.8906 Q248.9844,328.8906 248.3438,329.2188 Q247.7188,329.5469 247.2188,330.2969 Q246.7344,331.0469 246.7344,332.0781 L246.7344,333.1719 Q246.7344,334.4063 247.625,335.2344 Q248.5156,336.0469 250.1094,336.0469 Q251.0469,336.0469 251.7031,335.7969 Q252.0938,335.6406 252.5156,335.2031 Q252.7813,334.9375 252.9219,334.8594 Q253.0781,334.7813 253.2813,334.7813 Q253.6094,334.7813 253.8594,335.0469 Q254.125,335.2969 254.125,335.6406 Q254.125,335.9844 253.7813,336.3906 Q253.2813,336.9688 252.4844,337.2969 Q251.4063,337.75 250.1094,337.75 Q248.5938,337.75 247.3906,337.125 Q246.4063,336.625 245.7188,335.5625 Q245.0313,334.4844 245.0313,333.2031 L245.0313,332.0469 Q245.0313,330.7188 245.6406,329.5781 Q246.2656,328.4219 247.3594,327.8125 Q248.4531,327.1875 249.6875,327.1875 Q250.4219,327.1875 251.0625,327.3594 Q251.7188,327.5156 252.2656,327.875 Z " fill="#000000"/><text fill="#000000" font-family="sans-serif" font-size="14" lengthAdjust="spacing" textLength="134" x="263.5" y="337.7969">TransactionalContext</text><line style="stroke:#181818;stroke-width:0.5;" x1="235.5" x2="399.5" y1="348" y2="348"/><line style="stroke:#181818;stroke-width:0.5;" x1="235.5" x2="399.5" y1="356" y2="356"/><ellipse cx="245.5" cy="370.8105" fill="#84BE84" rx="3" ry="3" style="stroke:#038048;stroke-width:1.0;"/><text fill="#000000" font-family="sans-serif" font-size="14" lengthAdjust="spacing" textLength="120" x="254.5" y="375.1074">beginTransaction()</text><ellipse cx="245.5" cy="389.4316" fill="#84BE84" rx="3" ry="3" style="stroke:#038048;stroke-width:1.0;"/><text fill="#000000" font-family="sans-serif" font-size="14" lengthAdjust="spacing" textLength="54" x="254.5" y="393.7285">commit()</text></g><!--class Meeting--><g id="elem_Meeting"><rect codeLine="37" fill="#F1F1F1" height="48" id="Meeting" rx="2.5" ry="2.5" style="stroke:#181818;stroke-width:0.5;" width="82" x="435.5" y="334.5"/><ellipse cx="450.5" cy="350.5" fill="#ADD1B2" rx="11" ry="11" style="stroke:#181818;stroke-width:1.0;"/><path d="M453.2656,346.375 Q453.4219,346.1563 453.6094,346.0469 Q453.7969,345.9375 454.0156,345.9375 Q454.3906,345.9375 454.625,346.2031 Q454.8594,346.4531 454.8594,347.0625 L454.8594,348.5156 Q454.8594,349.125 454.625,349.3906 Q454.3906,349.6563 454.0156,349.6563 Q453.6719,349.6563 453.4688,349.4531 Q453.2656,349.2656 453.1563,348.75 Q453.1094,348.3906 452.9219,348.2031 Q452.5938,347.8281 451.9844,347.6094 Q451.375,347.3906 450.75,347.3906 Q449.9844,347.3906 449.3438,347.7188 Q448.7188,348.0469 448.2188,348.7969 Q447.7344,349.5469 447.7344,350.5781 L447.7344,351.6719 Q447.7344,352.9063 448.625,353.7344 Q449.5156,354.5469 451.1094,354.5469 Q452.0469,354.5469 452.7031,354.2969 Q453.0938,354.1406 453.5156,353.7031 Q453.7813,353.4375 453.9219,353.3594 Q454.0781,353.2813 454.2813,353.2813 Q454.6094,353.2813 454.8594,353.5469 Q455.125,353.7969 455.125,354.1406 Q455.125,354.4844 454.7813,354.8906 Q454.2813,355.4688 453.4844,355.7969 Q452.4063,356.25 451.1094,356.25 Q449.5938,356.25 448.3906,355.625 Q447.4063,355.125 446.7188,354.0625 Q446.0313,352.9844 446.0313,351.7031 L446.0313,350.5469 Q446.0313,349.2188 446.6406,348.0781 Q447.2656,346.9219 448.3594,346.3125 Q449.4531,345.6875 450.6875,345.6875 Q451.4219,345.6875 452.0625,345.8594 Q452.7188,346.0156 453.2656,346.375 Z " fill="#000000"/><text fill="#000000" font-family="sans-serif" font-size="14" lengthAdjust="spacing" textLength="50" x="464.5" y="356.2969">Meeting</text><line style="stroke:#181818;stroke-width:0.5;" x1="436.5" x2="516.5" y1="366.5" y2="366.5"/><line style="stroke:#181818;stroke-width:0.5;" x1="436.5" x2="516.5" y1="374.5" y2="374.5"/></g><!--class MeetingParticipant--><g id="elem_MeetingParticipant"><rect codeLine="40" fill="#F1F1F1" height="48" id="MeetingParticipant" rx="2.5" ry="2.5" style="stroke:#181818;stroke-width:0.5;" width="149" x="402" y="489"/><ellipse cx="417" cy="505" fill="#ADD1B2" rx="11" ry="11" style="stroke:#181818;stroke-width:1.0;"/><path d="M419.7656,500.875 Q419.9219,500.6563 420.1094,500.5469 Q420.2969,500.4375 420.5156,500.4375 Q420.8906,500.4375 421.125,500.7031 Q421.3594,500.9531 421.3594,501.5625 L421.3594,503.0156 Q421.3594,503.625 421.125,503.8906 Q420.8906,504.1563 420.5156,504.1563 Q420.1719,504.1563 419.9688,503.9531 Q419.7656,503.7656 419.6563,503.25 Q419.6094,502.8906 419.4219,502.7031 Q419.0938,502.3281 418.4844,502.1094 Q417.875,501.8906 417.25,501.8906 Q416.4844,501.8906 415.8438,502.2188 Q415.2188,502.5469 414.7188,503.2969 Q414.2344,504.0469 414.2344,505.0781 L414.2344,506.1719 Q414.2344,507.4063 415.125,508.2344 Q416.0156,509.0469 417.6094,509.0469 Q418.5469,509.0469 419.2031,508.7969 Q419.5938,508.6406 420.0156,508.2031 Q420.2813,507.9375 420.4219,507.8594 Q420.5781,507.7813 420.7813,507.7813 Q421.1094,507.7813 421.3594,508.0469 Q421.625,508.2969 421.625,508.6406 Q421.625,508.9844 421.2813,509.3906 Q420.7813,509.9688 419.9844,510.2969 Q418.9063,510.75 417.6094,510.75 Q416.0938,510.75 414.8906,510.125 Q413.9063,509.625 413.2188,508.5625 Q412.5313,507.4844 412.5313,506.2031 L412.5313,505.0469 Q412.5313,503.7188 413.1406,502.5781 Q413.7656,501.4219 414.8594,500.8125 Q415.9531,500.1875 417.1875,500.1875 Q417.9219,500.1875 418.5625,500.3594 Q419.2188,500.5156 419.7656,500.875 Z " fill="#000000"/><text fill="#000000" font-family="sans-serif" font-size="14" lengthAdjust="spacing" textLength="117" x="431" y="510.7969">MeetingParticipant</text><line style="stroke:#181818;stroke-width:0.5;" x1="403" x2="550" y1="521" y2="521"/><line style="stroke:#181818;stroke-width:0.5;" x1="403" x2="550" y1="529" y2="529"/></g><!--link ListParticipantsInMeetingUI to MeetingController--><g id="link_ListParticipantsInMeetingUI_MeetingController"><path codeLine="43" d="M317.5,55.16 C317.5,69.91 317.5,89.92 317.5,109.79 " fill="none" id="ListParticipantsInMeetingUI-to-MeetingController" style="stroke:#181818;stroke-width:1.0;"/><polygon fill="#181818" points="317.5,114.83,321.5,105.83,317.5,109.83,313.5,105.83,317.5,114.83" style="stroke:#181818;stroke-width:1.0;"/></g><!--link MeetingController to PersistenceContext--><g id="link_MeetingController_PersistenceContext"><path codeLine="44" d="M238.19,256.05 C212.58,278.51 185.23,302.49 163.56,321.49 " fill="none" id="MeetingController-to-PersistenceContext" style="stroke:#181818;stroke-width:1.0;"/><polygon fill="#181818" points="159.58,324.98,168.988,322.0663,163.3438,321.6885,163.7216,316.0443,159.58,324.98" style="stroke:#181818;stroke-width:1.0;"/></g><!--link MeetingController to TransactionalContext--><g id="link_MeetingController_TransactionalContext"><path codeLine="45" d="M317.5,256.05 C317.5,274.49 317.5,293.95 317.5,310.84 " fill="none" id="MeetingController-to-TransactionalContext" style="stroke:#181818;stroke-width:1.0;"/><polygon fill="#181818" points="317.5,316,321.5,307,317.5,311,313.5,307,317.5,316" style="stroke:#181818;stroke-width:1.0;"/></g><!--link MeetingService to MeetingRepository--><g id="link_MeetingService_MeetingRepository"><path codeLine="47" d="M122.5,692.29 C122.5,709.31 122.5,729.9 122.5,746.29 " fill="none" id="MeetingService-to-MeetingRepository" style="stroke:#181818;stroke-width:1.0;"/><polygon fill="#181818" points="122.5,751.67,126.5,742.67,122.5,746.67,118.5,742.67,122.5,751.67" style="stroke:#181818;stroke-width:1.0;"/></g><!--link MeetingController to Meeting--><g id="link_MeetingController_Meeting"><path codeLine="48" d="M382.17,256.05 C406.51,282.23 432.78,310.48 451.4,330.5 " fill="none" id="MeetingController-to-Meeting" style="stroke:#181818;stroke-width:1.0;"/><polygon fill="#181818" points="455.02,334.39,451.8215,325.075,451.6156,330.7281,445.9624,330.5221,455.02,334.39" style="stroke:#181818;stroke-width:1.0;"/></g><!--link Meeting to MeetingParticipant--><g id="link_Meeting_MeetingParticipant"><path codeLine="49" d="M476.5,382.66 C476.5,409.65 476.5,454.24 476.5,483.37 " fill="none" id="Meeting-to-MeetingParticipant" style="stroke:#181818;stroke-width:1.0;"/><polygon fill="#181818" points="476.5,488.62,480.5,479.62,476.5,483.62,472.5,479.62,476.5,488.62" style="stroke:#181818;stroke-width:1.0;"/></g><!--link PersistenceContext to RepositoryFactory--><g id="link_PersistenceContext_RepositoryFactory"><path codeLine="51" d="M122.5,392.22 C122.5,410.69 122.5,434.29 122.5,455.65 " fill="none" id="PersistenceContext-to-RepositoryFactory" style="stroke:#181818;stroke-width:1.0;"/><polygon fill="#181818" points="122.5,460.74,126.5,451.74,122.5,455.74,118.5,451.74,122.5,460.74" style="stroke:#181818;stroke-width:1.0;"/></g><!--link RepositoryFactory to MeetingService--><g id="link_RepositoryFactory_MeetingService"><path codeLine="53" d="M122.5,565.4 C122.5,583.33 122.5,603.11 122.5,619.72 " fill="none" id="RepositoryFactory-to-MeetingService" style="stroke:#181818;stroke-width:1.0;"/><polygon fill="#181818" points="122.5,624.77,126.5,615.77,122.5,619.77,118.5,615.77,122.5,624.77" style="stroke:#181818;stroke-width:1.0;"/></g><!--SRC=[VPBDJiCm3CVlUOhSw0IbTmv80mbf4aWLi0V8CjDPoaULkB0nyUwaRQgbfEAKsFx5_jlErO6ezNTLrIfXgDFgLbfTIIMyB_Se6YSqOuF9dz5JBHoXn3QmVcDU00XDizsSsSz4HT-ZDUIiKk3ExBe1YcvVh0PptT7XEzxJd4Nak1xFrUpnmsdhmHMrin-eW7V1YFV0eKyIBJ4tF4l-L_KRk4-KC4fUAvMe3cXaQt0-Z0ACXBvBE5BW7RJM8rc74EaHVftyfoSX-oEmqe4WwBityFNkXF4XXDO85VFreGWjXRcaur1YBqZiX8T9_gLOif2b34743XeqIMoeQRL6AlAvvFjDPZq4__aSl2plys_1Ca_0yj4kOaijCJRVOLhrCfSyNSfDqTINDCLOhY-GsOePorm1cylx1G00]--></g></svg>