<?xml version="1.0" encoding="UTF-8" standalone="no"?><svg xmlns="http://www.w3.org/2000/svg" xmlns:xlink="http://www.w3.org/1999/xlink" contentStyleType="text/css" height="597.6px" preserveAspectRatio="none" style="width:967px;height:597px;background:#FFFFFF;" version="1.1" viewBox="0 0 967 597" width="967.2px" zoomAndPan="magnify"><defs/><g><rect fill="#FFFFFF" height="481.2234" style="stroke:#181818;stroke-width:0.6;" width="6" x="26.7" y="55.3688"/><rect fill="#FFFFFF" height="34.2281" style="stroke:#181818;stroke-width:0.6;" width="6" x="170.1" y="67.6828"/><rect fill="#FFFFFF" height="17.1141" style="stroke:#181818;stroke-width:0.6;" width="6" x="267.6" y="84.7969"/><rect fill="#FFFFFF" height="434.6813" style="stroke:#181818;stroke-width:0.6;" width="6" x="386.1" y="101.9109"/><rect fill="#FFFFFF" height="256.3688" style="stroke:#181818;stroke-width:0.6;" width="6" x="386.1" y="101.9109"/><rect fill="#FFFFFF" height="17.1141" style="stroke:#181818;stroke-width:0.6;" width="6" x="386.1" y="375.3938"/><rect fill="#FFFFFF" height="121.5703" style="stroke:#181818;stroke-width:0.6;" width="6" x="386.1" y="409.6219"/><rect fill="#FFFFFF" height="125.1703" style="stroke:#181818;stroke-width:0.6;" width="6" x="507.3" y="119.025"/><rect fill="#FFFFFF" height="52.2281" style="stroke:#181818;stroke-width:0.6;" width="6" x="507.3" y="461.85"/><rect fill="#FFFFFF" height="108.0562" style="stroke:#181818;stroke-width:0.6;" width="6" x="636.9" y="136.1391"/><rect fill="#FFFFFF" height="35.1141" style="stroke:#181818;stroke-width:0.6;" width="6" x="636.9" y="478.9641"/><rect fill="#FFFFFF" height="18" style="stroke:#181818;stroke-width:0.6;" width="6" x="695.7" y="426.7359"/><rect fill="#FFFFFF" height="55.8281" style="stroke:#181818;stroke-width:0.6;" width="6" x="765.3" y="153.2531"/><rect fill="#FFFFFF" height="18" style="stroke:#181818;stroke-width:0.6;" width="6" x="851.1" y="191.0812"/><rect fill="#FFFFFF" height="18" style="stroke:#181818;stroke-width:0.6;" width="6" x="930" y="226.1953"/><rect fill="#FFFFFF" height="18" style="stroke:#181818;stroke-width:0.6;" width="6" x="930" y="496.0781"/><rect fill="none" height="53.1422" style="stroke:#000000;stroke-width:0.8999999999999999;" width="243.6" x="323.4" y="253.1953"/><rect fill="none" height="34.8281" style="stroke:#000000;stroke-width:0.8999999999999999;" width="231.6" x="329.4" y="267.3094"/><rect fill="none" height="27.0281" style="stroke:#000000;stroke-width:0.8999999999999999;" width="436.8" x="6" y="314.7375"/><line style="stroke:#181818;stroke-width:0.3;stroke-dasharray:5.0,5.0;" x1="29.4" x2="29.4" y1="49.3688" y2="541.9922"/><line style="stroke:#181818;stroke-width:0.3;stroke-dasharray:5.0,5.0;" x1="172.8" x2="172.8" y1="49.3688" y2="541.9922"/><line style="stroke:#181818;stroke-width:0.3;stroke-dasharray:5.0,5.0;" x1="270.6" x2="270.6" y1="49.3688" y2="541.9922"/><line style="stroke:#181818;stroke-width:0.3;stroke-dasharray:5.0,5.0;" x1="385.8" x2="385.8" y1="49.3688" y2="541.9922"/><line style="stroke:#181818;stroke-width:0.3;stroke-dasharray:5.0,5.0;" x1="510" x2="510" y1="49.3688" y2="541.9922"/><line style="stroke:#181818;stroke-width:0.3;stroke-dasharray:5.0,5.0;" x1="639.9" x2="639.9" y1="49.3688" y2="541.9922"/><line style="stroke:#181818;stroke-width:0.3;stroke-dasharray:5.0,5.0;" x1="698.7" x2="698.7" y1="49.3688" y2="541.9922"/><line style="stroke:#181818;stroke-width:0.3;stroke-dasharray:5.0,5.0;" x1="768.3" x2="768.3" y1="49.3688" y2="541.9922"/><line style="stroke:#181818;stroke-width:0.3;stroke-dasharray:5.0,5.0;" x1="854.1" x2="854.1" y1="49.3688" y2="541.9922"/><line style="stroke:#181818;stroke-width:0.3;stroke-dasharray:5.0,5.0;" x1="932.7" x2="932.7" y1="49.3688" y2="541.9922"/><text fill="#000000" font-family="sans-serif" font-size="8.4" lengthAdjust="spacing" textLength="31.8" x="12" y="47.5887">Teacher</text><ellipse cx="29.7" cy="9.0844" fill="#E2E2F0" rx="4.8" ry="4.8" style="stroke:#181818;stroke-width:0.3;"/><path d="M29.7,13.8844 L29.7,30.0844 M21.9,18.6844 L37.5,18.6844 M29.7,30.0844 L21.9,39.0844 M29.7,30.0844 L37.5,39.0844 " fill="none" style="stroke:#181818;stroke-width:0.3;"/><text fill="#000000" font-family="sans-serif" font-size="8.4" lengthAdjust="spacing" textLength="31.8" x="12" y="548.9965">Teacher</text><ellipse cx="29.7" cy="555.8766" fill="#E2E2F0" rx="4.8" ry="4.8" style="stroke:#181818;stroke-width:0.3;"/><path d="M29.7,560.6766 L29.7,576.8766 M21.9,565.4766 L37.5,565.4766 M29.7,576.8766 L21.9,585.8766 M29.7,576.8766 L37.5,585.8766 " fill="none" style="stroke:#181818;stroke-width:0.3;"/><rect fill="#E2E2F0" height="27.1688" rx="1.5" ry="1.5" style="stroke:#181818;stroke-width:0.3;" width="65.4" x="140.4" y="21.6"/><text fill="#000000" font-family="sans-serif" font-size="8.4" font-style="italic" lengthAdjust="spacing" textLength="57" x="144.6" y="33.4043">«presentation»</text><text fill="#000000" font-family="sans-serif" font-size="8.4" lengthAdjust="spacing" textLength="39.6" x="153.3" y="42.7887">:ClassesUi</text><rect fill="#E2E2F0" height="27.1688" rx="1.5" ry="1.5" style="stroke:#181818;stroke-width:0.3;" width="65.4" x="140.4" y="541.3922"/><text fill="#000000" font-family="sans-serif" font-size="8.4" font-style="italic" lengthAdjust="spacing" textLength="57" x="144.6" y="553.1965">«presentation»</text><text fill="#000000" font-family="sans-serif" font-size="8.4" lengthAdjust="spacing" textLength="39.6" x="153.3" y="562.5809">:ClassesUi</text><rect fill="#E2E2F0" height="27.1688" rx="1.5" ry="1.5" style="stroke:#181818;stroke-width:0.3;" width="117.6" x="211.8" y="21.6"/><text fill="#000000" font-family="sans-serif" font-size="8.4" font-style="italic" lengthAdjust="spacing" textLength="50.4" x="245.4" y="33.4043">«application»</text><text fill="#000000" font-family="sans-serif" font-size="8.4" lengthAdjust="spacing" textLength="109.2" x="216" y="42.7887">:UpdateClassScheduleAction</text><rect fill="#E2E2F0" height="27.1688" rx="1.5" ry="1.5" style="stroke:#181818;stroke-width:0.3;" width="117.6" x="211.8" y="541.3922"/><text fill="#000000" font-family="sans-serif" font-size="8.4" font-style="italic" lengthAdjust="spacing" textLength="50.4" x="245.4" y="553.1965">«application»</text><text fill="#000000" font-family="sans-serif" font-size="8.4" lengthAdjust="spacing" textLength="109.2" x="216" y="562.5809">:UpdateClassScheduleAction</text><rect fill="#E2E2F0" height="27.1688" rx="1.5" ry="1.5" style="stroke:#181818;stroke-width:0.3;" width="101.4" x="335.4" y="21.6"/><text fill="#000000" font-family="sans-serif" font-size="8.4" font-style="italic" lengthAdjust="spacing" textLength="57" x="357.6" y="33.4043">«presentation»</text><text fill="#000000" font-family="sans-serif" font-size="8.4" lengthAdjust="spacing" textLength="93" x="339.6" y="42.7887">:UpdateClassScheduleUi</text><rect fill="#E2E2F0" height="27.1688" rx="1.5" ry="1.5" style="stroke:#181818;stroke-width:0.3;" width="101.4" x="335.4" y="541.3922"/><text fill="#000000" font-family="sans-serif" font-size="8.4" font-style="italic" lengthAdjust="spacing" textLength="57" x="357.6" y="553.1965">«presentation»</text><text fill="#000000" font-family="sans-serif" font-size="8.4" lengthAdjust="spacing" textLength="93" x="339.6" y="562.5809">:UpdateClassScheduleUi</text><rect fill="#E2E2F0" height="27.1688" rx="1.5" ry="1.5" style="stroke:#181818;stroke-width:0.3;" width="69" x="475.8" y="21.6"/><text fill="#000000" font-family="sans-serif" font-size="8.4" font-style="italic" lengthAdjust="spacing" textLength="50.4" x="485.1" y="33.4043">«application»</text><text fill="#000000" font-family="sans-serif" font-size="8.4" lengthAdjust="spacing" textLength="60.6" x="480" y="42.7887">:ClassController</text><rect fill="#E2E2F0" height="27.1688" rx="1.5" ry="1.5" style="stroke:#181818;stroke-width:0.3;" width="69" x="475.8" y="541.3922"/><text fill="#000000" font-family="sans-serif" font-size="8.4" font-style="italic" lengthAdjust="spacing" textLength="50.4" x="485.1" y="553.1965">«application»</text><text fill="#000000" font-family="sans-serif" font-size="8.4" lengthAdjust="spacing" textLength="60.6" x="480" y="562.5809">:ClassController</text><rect fill="#E2E2F0" height="27.1688" rx="1.5" ry="1.5" style="stroke:#181818;stroke-width:0.3;" width="60" x="609.9" y="21.6"/><text fill="#000000" font-family="sans-serif" font-size="8.4" font-style="italic" lengthAdjust="spacing" textLength="50.4" x="614.7" y="33.4043">«application»</text><text fill="#000000" font-family="sans-serif" font-size="8.4" lengthAdjust="spacing" textLength="51.6" x="614.1" y="42.7887">:ClassService</text><rect fill="#E2E2F0" height="27.1688" rx="1.5" ry="1.5" style="stroke:#181818;stroke-width:0.3;" width="60" x="609.9" y="541.3922"/><text fill="#000000" font-family="sans-serif" font-size="8.4" font-style="italic" lengthAdjust="spacing" textLength="50.4" x="614.7" y="553.1965">«application»</text><text fill="#000000" font-family="sans-serif" font-size="8.4" lengthAdjust="spacing" textLength="51.6" x="614.1" y="562.5809">:ClassService</text><rect fill="#E2E2F0" height="27.1688" rx="1.5" ry="1.5" style="stroke:#181818;stroke-width:0.3;" width="45.6" x="675.9" y="21.6"/><text fill="#000000" font-family="sans-serif" font-size="8.4" font-style="italic" lengthAdjust="spacing" textLength="37.2" x="680.1" y="33.4043">«domain»</text><text fill="#000000" font-family="sans-serif" font-size="8.4" lengthAdjust="spacing" textLength="21" x="688.2" y="42.7887">Class</text><rect fill="#E2E2F0" height="27.1688" rx="1.5" ry="1.5" style="stroke:#181818;stroke-width:0.3;" width="45.6" x="675.9" y="541.3922"/><text fill="#000000" font-family="sans-serif" font-size="8.4" font-style="italic" lengthAdjust="spacing" textLength="37.2" x="680.1" y="553.1965">«domain»</text><text fill="#000000" font-family="sans-serif" font-size="8.4" lengthAdjust="spacing" textLength="21" x="688.2" y="562.5809">Class</text><rect fill="#E2E2F0" height="17.7844" rx="1.5" ry="1.5" style="stroke:#181818;stroke-width:0.3;" width="81.6" x="727.5" y="30.9844"/><text fill="#000000" font-family="sans-serif" font-size="8.4" lengthAdjust="spacing" textLength="73.2" x="731.7" y="42.7887">PersistenceContext</text><rect fill="#E2E2F0" height="17.7844" rx="1.5" ry="1.5" style="stroke:#181818;stroke-width:0.3;" width="81.6" x="727.5" y="541.3922"/><text fill="#000000" font-family="sans-serif" font-size="8.4" lengthAdjust="spacing" textLength="73.2" x="731.7" y="553.1965">PersistenceContext</text><rect fill="#E2E2F0" height="17.7844" rx="1.5" ry="1.5" style="stroke:#181818;stroke-width:0.3;" width="78" x="815.1" y="30.9844"/><text fill="#000000" font-family="sans-serif" font-size="8.4" lengthAdjust="spacing" textLength="69.6" x="819.3" y="42.7887">RepositoryFactory</text><rect fill="#E2E2F0" height="17.7844" rx="1.5" ry="1.5" style="stroke:#181818;stroke-width:0.3;" width="78" x="815.1" y="541.3922"/><text fill="#000000" font-family="sans-serif" font-size="8.4" lengthAdjust="spacing" textLength="69.6" x="819.3" y="553.1965">RepositoryFactory</text><text fill="#000000" font-family="sans-serif" font-size="8.4" font-style="italic" lengthAdjust="spacing" textLength="47.4" x="907.5" y="38.2043">«repository»</text><text fill="#000000" font-family="sans-serif" font-size="8.4" lengthAdjust="spacing" textLength="64.2" x="899.1" y="47.5887">:ClassRepository</text><path d="M922.2,9 C922.2,3 933,3 933,3 C933,3 943.8,3 943.8,9 L943.8,24.6 C943.8,30.6 933,30.6 933,30.6 C933,30.6 922.2,30.6 922.2,24.6 L922.2,9 " fill="#E2E2F0" style="stroke:#181818;stroke-width:0.8999999999999999;"/><path d="M922.2,9 C922.2,15 933,15 933,15 C933,15 943.8,15 943.8,9 " fill="none" style="stroke:#181818;stroke-width:0.8999999999999999;"/><text fill="#000000" font-family="sans-serif" font-size="8.4" font-style="italic" lengthAdjust="spacing" textLength="47.4" x="907.5" y="548.9965">«repository»</text><text fill="#000000" font-family="sans-serif" font-size="8.4" lengthAdjust="spacing" textLength="64.2" x="899.1" y="558.3809">:ClassRepository</text><path d="M922.2,566.1609 C922.2,560.1609 933,560.1609 933,560.1609 C933,560.1609 943.8,560.1609 943.8,566.1609 L943.8,581.7609 C943.8,587.7609 933,587.7609 933,587.7609 C933,587.7609 922.2,587.7609 922.2,581.7609 L922.2,566.1609 " fill="#E2E2F0" style="stroke:#181818;stroke-width:0.8999999999999999;"/><path d="M922.2,566.1609 C922.2,572.1609 933,572.1609 933,572.1609 C933,572.1609 943.8,572.1609 943.8,566.1609 " fill="none" style="stroke:#181818;stroke-width:0.8999999999999999;"/><rect fill="#FFFFFF" height="481.2234" style="stroke:#181818;stroke-width:0.6;" width="6" x="26.7" y="55.3688"/><rect fill="#FFFFFF" height="34.2281" style="stroke:#181818;stroke-width:0.6;" width="6" x="170.1" y="67.6828"/><rect fill="#FFFFFF" height="17.1141" style="stroke:#181818;stroke-width:0.6;" width="6" x="267.6" y="84.7969"/><rect fill="#FFFFFF" height="434.6813" style="stroke:#181818;stroke-width:0.6;" width="6" x="386.1" y="101.9109"/><rect fill="#FFFFFF" height="256.3688" style="stroke:#181818;stroke-width:0.6;" width="6" x="386.1" y="101.9109"/><rect fill="#FFFFFF" height="17.1141" style="stroke:#181818;stroke-width:0.6;" width="6" x="386.1" y="375.3938"/><rect fill="#FFFFFF" height="121.5703" style="stroke:#181818;stroke-width:0.6;" width="6" x="386.1" y="409.6219"/><rect fill="#FFFFFF" height="125.1703" style="stroke:#181818;stroke-width:0.6;" width="6" x="507.3" y="119.025"/><rect fill="#FFFFFF" height="52.2281" style="stroke:#181818;stroke-width:0.6;" width="6" x="507.3" y="461.85"/><rect fill="#FFFFFF" height="108.0562" style="stroke:#181818;stroke-width:0.6;" width="6" x="636.9" y="136.1391"/><rect fill="#FFFFFF" height="35.1141" style="stroke:#181818;stroke-width:0.6;" width="6" x="636.9" y="478.9641"/><rect fill="#FFFFFF" height="18" style="stroke:#181818;stroke-width:0.6;" width="6" x="695.7" y="426.7359"/><rect fill="#FFFFFF" height="55.8281" style="stroke:#181818;stroke-width:0.6;" width="6" x="765.3" y="153.2531"/><rect fill="#FFFFFF" height="18" style="stroke:#181818;stroke-width:0.6;" width="6" x="851.1" y="191.0812"/><rect fill="#FFFFFF" height="18" style="stroke:#181818;stroke-width:0.6;" width="6" x="930" y="226.1953"/><rect fill="#FFFFFF" height="18" style="stroke:#181818;stroke-width:0.6;" width="6" x="930" y="496.0781"/><polygon fill="#181818" points="162.9,65.2828,168.9,67.6828,162.9,70.0828,165.3,67.6828" style="stroke:#181818;stroke-width:0.6;"/><line style="stroke:#181818;stroke-width:0.6;" x1="32.7" x2="166.5" y1="67.6828" y2="67.6828"/><text fill="#000000" font-family="sans-serif" font-size="7.8" font-weight="bold" lengthAdjust="spacing" textLength="4.2" x="36.9" y="64.8299">1</text><text fill="#000000" font-family="sans-serif" font-size="7.8" lengthAdjust="spacing" textLength="119.4" x="43.5" y="64.8299">requests to modification class schedule</text><polygon fill="#181818" points="260.4,82.3969,266.4,84.7969,260.4,87.1969,262.8,84.7969" style="stroke:#181818;stroke-width:0.6;"/><line style="stroke:#181818;stroke-width:0.6;" x1="176.1" x2="264" y1="84.7969" y2="84.7969"/><text fill="#000000" font-family="sans-serif" font-size="7.8" font-weight="bold" lengthAdjust="spacing" textLength="4.2" x="180.3" y="81.9439">2</text><text fill="#000000" font-family="sans-serif" font-size="7.8" lengthAdjust="spacing" textLength="32.4" x="186.9" y="81.9439">execute()</text><polygon fill="#181818" points="378.9,99.5109,384.9,101.9109,378.9,104.3109,381.3,101.9109" style="stroke:#181818;stroke-width:0.6;"/><line style="stroke:#181818;stroke-width:0.6;" x1="270.6" x2="382.5" y1="101.9109" y2="101.9109"/><text fill="#000000" font-family="sans-serif" font-size="7.8" font-weight="bold" lengthAdjust="spacing" textLength="4.2" x="274.8" y="99.058">3</text><text fill="#000000" font-family="sans-serif" font-size="7.8" lengthAdjust="spacing" textLength="32.4" x="281.4" y="99.058">doShow()</text><polygon fill="#181818" points="500.1,116.625,506.1,119.025,500.1,121.425,502.5,119.025" style="stroke:#181818;stroke-width:0.6;"/><line style="stroke:#181818;stroke-width:0.6;" x1="392.1" x2="503.7" y1="119.025" y2="119.025"/><text fill="#000000" font-family="sans-serif" font-size="7.8" font-weight="bold" lengthAdjust="spacing" textLength="4.2" x="396.3" y="116.1721">4</text><text fill="#000000" font-family="sans-serif" font-size="7.8" lengthAdjust="spacing" textLength="84.6" x="402.9" y="116.1721">classList = getClasses()</text><polygon fill="#181818" points="629.7,133.7391,635.7,136.1391,629.7,138.5391,632.1,136.1391" style="stroke:#181818;stroke-width:0.6;"/><line style="stroke:#181818;stroke-width:0.6;" x1="513.3" x2="633.3" y1="136.1391" y2="136.1391"/><text fill="#000000" font-family="sans-serif" font-size="7.8" font-weight="bold" lengthAdjust="spacing" textLength="4.2" x="517.5" y="133.2861">5</text><text fill="#000000" font-family="sans-serif" font-size="7.8" lengthAdjust="spacing" textLength="24.6" x="524.1" y="133.2861">getAll()</text><polygon fill="#181818" points="758.1,150.8531,764.1,153.2531,758.1,155.6531,760.5,153.2531" style="stroke:#181818;stroke-width:0.6;"/><line style="stroke:#181818;stroke-width:0.6;" x1="642.9" x2="761.7" y1="153.2531" y2="153.2531"/><text fill="#000000" font-family="sans-serif" font-size="7.8" font-weight="bold" lengthAdjust="spacing" textLength="4.2" x="647.1" y="150.4002">6</text><text fill="#000000" font-family="sans-serif" font-size="7.8" lengthAdjust="spacing" textLength="45" x="653.7" y="150.4002">repositories()</text><path d="M774,161.0531 L774,175.4531 L933,175.4531 L933,167.0531 L927,161.0531 L774,161.0531 " fill="#FEFFDD" style="stroke:#181818;stroke-width:0.3;"/><path d="M927,161.0531 L927,167.0531 L933,167.0531 L927,161.0531 " fill="#FEFFDD" style="stroke:#181818;stroke-width:0.3;"/><text fill="#000000" font-family="sans-serif" font-size="7.8" lengthAdjust="spacing" textLength="146.4" x="777.6" y="171.1143">repository can be either in memory or JPA</text><polygon fill="#181818" points="843.9,188.6813,849.9,191.0812,843.9,193.4813,846.3,191.0812" style="stroke:#181818;stroke-width:0.6;"/><line style="stroke:#181818;stroke-width:0.6;" x1="771.3" x2="847.5" y1="191.0812" y2="191.0812"/><text fill="#000000" font-family="sans-serif" font-size="7.8" font-weight="bold" lengthAdjust="spacing" textLength="4.2" x="775.5" y="188.2283">7</text><text fill="#000000" font-family="sans-serif" font-size="7.8" lengthAdjust="spacing" textLength="31.8" x="782.1" y="188.2283">classes()</text><polygon fill="#181818" points="922.8,223.7953,928.8,226.1953,922.8,228.5953,925.2,226.1953" style="stroke:#181818;stroke-width:0.6;"/><line style="stroke:#181818;stroke-width:0.6;" x1="642.9" x2="926.4" y1="226.1953" y2="226.1953"/><text fill="#000000" font-family="sans-serif" font-size="7.8" font-weight="bold" lengthAdjust="spacing" textLength="4.2" x="647.1" y="223.3424">8</text><text fill="#000000" font-family="sans-serif" font-size="7.8" lengthAdjust="spacing" textLength="24.6" x="653.7" y="223.3424">getAll()</text><path d="M323.4,253.1953 L367.2,253.1953 L367.2,257.1094 L361.2,263.1094 L323.4,263.1094 L323.4,253.1953 " fill="#EEEEEE" style="stroke:#000000;stroke-width:0.8999999999999999;"/><rect fill="none" height="53.1422" style="stroke:#000000;stroke-width:0.8999999999999999;" width="243.6" x="323.4" y="253.1953"/><text fill="#000000" font-family="sans-serif" font-size="7.8" font-weight="bold" lengthAdjust="spacing" textLength="16.8" x="332.4" y="260.8564">loop</text><text fill="#000000" font-family="sans-serif" font-size="6.6" font-weight="bold" lengthAdjust="spacing" textLength="90.6" x="376.2" y="260.3701">[for each class in classList]</text><path d="M329.4,267.3094 L366,267.3094 L366,271.2234 L360,277.2234 L329.4,277.2234 L329.4,267.3094 " fill="#EEEEEE" style="stroke:#000000;stroke-width:0.8999999999999999;"/><rect fill="none" height="34.8281" style="stroke:#000000;stroke-width:0.8999999999999999;" width="231.6" x="329.4" y="267.3094"/><text fill="#000000" font-family="sans-serif" font-size="7.8" font-weight="bold" lengthAdjust="spacing" textLength="9.6" x="338.4" y="274.9705">alt</text><text fill="#000000" font-family="sans-serif" font-size="6.6" font-weight="bold" lengthAdjust="spacing" textLength="183" x="375" y="274.4842">[classe.getTeacherProfile().equals(currentUserProfile)]</text><line style="stroke:#181818;stroke-width:0.6;" x1="392.1" x2="417.3" y1="289.5375" y2="289.5375"/><line style="stroke:#181818;stroke-width:0.6;" x1="417.3" x2="417.3" y1="289.5375" y2="297.3375"/><line style="stroke:#181818;stroke-width:0.6;" x1="392.7" x2="417.3" y1="297.3375" y2="297.3375"/><polygon fill="#181818" points="398.7,294.9375,392.7,297.3375,398.7,299.7375,396.3,297.3375" style="stroke:#181818;stroke-width:0.6;"/><text fill="#000000" font-family="sans-serif" font-size="7.8" font-weight="bold" lengthAdjust="spacing" textLength="4.2" x="396.3" y="286.6846">9</text><text fill="#000000" font-family="sans-serif" font-size="7.8" lengthAdjust="spacing" textLength="100.2" x="402.9" y="286.6846">availableClassList.add(class)</text><path d="M6,314.7375 L49.8,314.7375 L49.8,318.6516 L43.8,324.6516 L6,324.6516 L6,314.7375 " fill="#EEEEEE" style="stroke:#000000;stroke-width:0.8999999999999999;"/><rect fill="none" height="27.0281" style="stroke:#000000;stroke-width:0.8999999999999999;" width="436.8" x="6" y="314.7375"/><text fill="#000000" font-family="sans-serif" font-size="7.8" font-weight="bold" lengthAdjust="spacing" textLength="16.8" x="15" y="322.3986">loop</text><text fill="#000000" font-family="sans-serif" font-size="6.6" font-weight="bold" lengthAdjust="spacing" textLength="120" x="58.8" y="321.9123">[for each class in availableClassList]</text><polygon fill="#181818" points="39.3,334.5656,33.3,336.9656,39.3,339.3656,36.9,336.9656" style="stroke:#181818;stroke-width:0.6;"/><line style="stroke:#181818;stroke-width:0.6;stroke-dasharray:2.0,2.0;" x1="35.7" x2="385.5" y1="336.9656" y2="336.9656"/><text fill="#000000" font-family="sans-serif" font-size="7.8" font-weight="bold" lengthAdjust="spacing" textLength="8.4" x="42.9" y="334.1127">10</text><text fill="#000000" font-family="sans-serif" font-size="7.8" lengthAdjust="spacing" textLength="76.2" x="53.7" y="334.1127">print class information</text><polygon fill="#181818" points="39.3,355.8797,33.3,358.2797,39.3,360.6797,36.9,358.2797" style="stroke:#181818;stroke-width:0.6;"/><line style="stroke:#181818;stroke-width:0.6;stroke-dasharray:2.0,2.0;" x1="35.7" x2="382.5" y1="358.2797" y2="358.2797"/><text fill="#000000" font-family="sans-serif" font-size="7.8" font-weight="bold" lengthAdjust="spacing" textLength="8.4" x="42.9" y="355.4268">11</text><text fill="#000000" font-family="sans-serif" font-size="7.8" lengthAdjust="spacing" textLength="144" x="53.7" y="355.4268">requests to choose a class to be updated</text><polygon fill="#181818" points="378.9,372.9938,384.9,375.3938,378.9,377.7938,381.3,375.3938" style="stroke:#181818;stroke-width:0.6;"/><line style="stroke:#181818;stroke-width:0.6;" x1="32.7" x2="382.5" y1="375.3938" y2="375.3938"/><text fill="#000000" font-family="sans-serif" font-size="7.8" font-weight="bold" lengthAdjust="spacing" textLength="8.4" x="36.9" y="372.5408">12</text><text fill="#000000" font-family="sans-serif" font-size="7.8" lengthAdjust="spacing" textLength="70.2" x="47.7" y="372.5408">inputs class number</text><polygon fill="#181818" points="39.3,390.1078,33.3,392.5078,39.3,394.9078,36.9,392.5078" style="stroke:#181818;stroke-width:0.6;"/><line style="stroke:#181818;stroke-width:0.6;stroke-dasharray:2.0,2.0;" x1="35.7" x2="382.5" y1="392.5078" y2="392.5078"/><text fill="#000000" font-family="sans-serif" font-size="7.8" font-weight="bold" lengthAdjust="spacing" textLength="8.4" x="42.9" y="389.6549">13</text><text fill="#000000" font-family="sans-serif" font-size="7.8" lengthAdjust="spacing" textLength="121.2" x="53.7" y="389.6549">requests to choose new class time</text><polygon fill="#181818" points="378.9,407.2219,384.9,409.6219,378.9,412.0219,381.3,409.6219" style="stroke:#181818;stroke-width:0.6;"/><line style="stroke:#181818;stroke-width:0.6;" x1="32.7" x2="382.5" y1="409.6219" y2="409.6219"/><text fill="#000000" font-family="sans-serif" font-size="7.8" font-weight="bold" lengthAdjust="spacing" textLength="8.4" x="36.9" y="406.7689">14</text><text fill="#000000" font-family="sans-serif" font-size="7.8" lengthAdjust="spacing" textLength="75.6" x="47.7" y="406.7689">inputs new class time</text><polygon fill="#181818" points="688.5,424.3359,694.5,426.7359,688.5,429.1359,690.9,426.7359" style="stroke:#181818;stroke-width:0.6;"/><line style="stroke:#181818;stroke-width:0.6;" x1="392.1" x2="692.1" y1="426.7359" y2="426.7359"/><text fill="#000000" font-family="sans-serif" font-size="7.8" font-weight="bold" lengthAdjust="spacing" textLength="8.4" x="396.3" y="423.883">15</text><text fill="#000000" font-family="sans-serif" font-size="7.8" lengthAdjust="spacing" textLength="82.8" x="407.1" y="423.883">setClassTime(newTime)</text><polygon fill="#181818" points="500.1,459.45,506.1,461.85,500.1,464.25,502.5,461.85" style="stroke:#181818;stroke-width:0.6;"/><line style="stroke:#181818;stroke-width:0.6;" x1="392.1" x2="503.7" y1="461.85" y2="461.85"/><text fill="#000000" font-family="sans-serif" font-size="7.8" font-weight="bold" lengthAdjust="spacing" textLength="8.4" x="396.3" y="458.9971">16</text><text fill="#000000" font-family="sans-serif" font-size="7.8" lengthAdjust="spacing" textLength="89.4" x="407.1" y="458.9971">saveClass(selectedClass)</text><polygon fill="#181818" points="629.7,476.5641,635.7,478.9641,629.7,481.3641,632.1,478.9641" style="stroke:#181818;stroke-width:0.6;"/><line style="stroke:#181818;stroke-width:0.6;" x1="513.3" x2="633.3" y1="478.9641" y2="478.9641"/><text fill="#000000" font-family="sans-serif" font-size="7.8" font-weight="bold" lengthAdjust="spacing" textLength="8.4" x="517.5" y="476.1111">17</text><text fill="#000000" font-family="sans-serif" font-size="7.8" lengthAdjust="spacing" textLength="101.4" x="528.3" y="476.1111">addNewClass(selectedClass)</text><polygon fill="#181818" points="922.8,493.6781,928.8,496.0781,922.8,498.4781,925.2,496.0781" style="stroke:#181818;stroke-width:0.6;"/><line style="stroke:#181818;stroke-width:0.6;" x1="642.9" x2="926.4" y1="496.0781" y2="496.0781"/><text fill="#000000" font-family="sans-serif" font-size="7.8" font-weight="bold" lengthAdjust="spacing" textLength="8.4" x="647.1" y="493.2252">18</text><text fill="#000000" font-family="sans-serif" font-size="7.8" lengthAdjust="spacing" textLength="69.6" x="657.9" y="493.2252">save(selectedClass)</text><polygon fill="#181818" points="39.3,528.7922,33.3,531.1922,39.3,533.5922,36.9,531.1922" style="stroke:#181818;stroke-width:0.6;"/><line style="stroke:#181818;stroke-width:0.6;stroke-dasharray:2.0,2.0;" x1="35.7" x2="382.5" y1="531.1922" y2="531.1922"/><text fill="#000000" font-family="sans-serif" font-size="7.8" font-weight="bold" lengthAdjust="spacing" textLength="8.4" x="42.9" y="528.3393">19</text><text fill="#000000" font-family="sans-serif" font-size="7.8" lengthAdjust="spacing" textLength="91.2" x="53.7" y="528.3393">informs operation success</text><!--MD5=[ac0ea427b818a4c58f48a98d43237ed8]
@startuml
'https://plantuml.com/sequence-diagram

autonumber

actor manager as "Teacher"

participant ":ClassesUi" as ui <<presentation>>
participant ":UpdateClassScheduleAction" as action <<application>>
participant ":UpdateClassScheduleUi" as updateUi <<presentation>>
participant ":ClassController" as controller <<application>>
participant ":ClassService" as service <<application>>
participant "Class" as classe <<domain>>
participant PersistenceContext as persistence
participant RepositoryFactory as factory
database ":ClassRepository" as repository <<repository>>


activate manager

manager -> ui : requests to modification class schedule
activate ui
ui -> action : execute()
activate action
action -> updateUi : doShow()
deactivate action
activate updateUi
deactivate ui
activate updateUi
updateUi -> controller : classList = getClasses()
activate controller
controller -> service : getAll()
activate service
service -> persistence : repositories()
activate persistence
note right of persistence: repository can be either in memory or JPA
persistence -> factory : classes()
activate factory
deactivate factory
deactivate persistence
service -> repository : getAll()
activate repository
deactivate repository
deactivate service
deactivate controller
loop for each class in classList
alt classe.getTeacherProfile().equals(currentUserProfile)
updateUi -> updateUi : availableClassList.add(class)
end
end
loop for each class in availableClassList
updateUi - -> manager : print class information
end
updateUi - -> manager : requests to choose a class to be updated
deactivate updateUi
manager -> updateUi : inputs class number
activate updateUi
updateUi - -> manager : requests to choose new class time
deactivate updateUi
manager -> updateUi : inputs new class time
activate updateUi
updateUi -> classe : setClassTime(newTime)
activate classe
deactivate classe
updateUi -> controller : saveClass(selectedClass)
activate controller
controller -> service : addNewClass(selectedClass)
activate service
service -> repository : save(selectedClass)
activate repository
deactivate repository
deactivate service
deactivate controller
updateUi - -> manager : informs operation success
deactivate updateUi





@enduml

@startuml

autonumber

actor manager as "Teacher"

participant ":ClassesUi" as ui <<presentation>>
participant ":UpdateClassScheduleAction" as action <<application>>
participant ":UpdateClassScheduleUi" as updateUi <<presentation>>
participant ":ClassController" as controller <<application>>
participant ":ClassService" as service <<application>>
participant "Class" as classe <<domain>>
participant PersistenceContext as persistence
participant RepositoryFactory as factory
database ":ClassRepository" as repository <<repository>>


activate manager

manager -> ui : requests to modification class schedule
activate ui
ui -> action : execute()
activate action
action -> updateUi : doShow()
deactivate action
activate updateUi
deactivate ui
activate updateUi
updateUi -> controller : classList = getClasses()
activate controller
controller -> service : getAll()
activate service
service -> persistence : repositories()
activate persistence
note right of persistence: repository can be either in memory or JPA
persistence -> factory : classes()
activate factory
deactivate factory
deactivate persistence
service -> repository : getAll()
activate repository
deactivate repository
deactivate service
deactivate controller
loop for each class in classList
alt classe.getTeacherProfile().equals(currentUserProfile)
updateUi -> updateUi : availableClassList.add(class)
end
end
loop for each class in availableClassList
updateUi - -> manager : print class information
end
updateUi - -> manager : requests to choose a class to be updated
deactivate updateUi
manager -> updateUi : inputs class number
activate updateUi
updateUi - -> manager : requests to choose new class time
deactivate updateUi
manager -> updateUi : inputs new class time
activate updateUi
updateUi -> classe : setClassTime(newTime)
activate classe
deactivate classe
updateUi -> controller : saveClass(selectedClass)
activate controller
controller -> service : addNewClass(selectedClass)
activate service
service -> repository : save(selectedClass)
activate repository
deactivate repository
deactivate service
deactivate controller
updateUi - -> manager : informs operation success
deactivate updateUi





@enduml

PlantUML version 1.2022.12(Sun Oct 23 19:12:26 WEST 2022)
(GPL source distribution)
Java Runtime: OpenJDK Runtime Environment
JVM: OpenJDK 64-Bit Server VM
Default Encoding: Cp1252
Language: en
Country: GB
--></g></svg>