<?xml version="1.0" encoding="us-ascii" standalone="no"?><svg xmlns="http://www.w3.org/2000/svg" xmlns:xlink="http://www.w3.org/1999/xlink" contentStyleType="text/css" height="1883px" preserveAspectRatio="none" style="width:2430px;height:1883px;background:#FFFFFF;" version="1.1" viewBox="0 0 2430 1883" width="2430px" zoomAndPan="magnify"><defs/><g><rect fill="#FFFFFF" height="1668.3574" style="stroke:#181818;stroke-width:1.0;" width="10" x="52.5" y="98.2422"/><rect fill="#FFFFFF" height="62.582" style="stroke:#181818;stroke-width:1.0;" width="10" x="270.5" y="121.5332"/><rect fill="#FFFFFF" height="31.291" style="stroke:#181818;stroke-width:1.0;" width="10" x="419.5" y="152.8242"/><rect fill="#FFFFFF" height="1008.4883" style="stroke:#181818;stroke-width:1.0;" width="10" x="585" y="184.1152"/><rect fill="#FFFFFF" height="362.6191" style="stroke:#181818;stroke-width:1.0;" width="10" x="590" y="428.4922"/><rect fill="#FFFFFF" height="142.1641" style="stroke:#181818;stroke-width:1.0;" width="10" x="590" y="822.4023"/><rect fill="#FFFFFF" height="173.4551" style="stroke:#181818;stroke-width:1.0;" width="10" x="590" y="987.8574"/><rect fill="#FFFFFF" height="542.7051" style="stroke:#181818;stroke-width:1.0;" width="10" x="585" y="1223.8945"/><rect fill="#FFFFFF" height="191.4551" style="stroke:#181818;stroke-width:1.0;" width="10" x="590" y="1289.4766"/><rect fill="#FFFFFF" height="191.4551" style="stroke:#181818;stroke-width:1.0;" width="10" x="590" y="1536.8535"/><rect fill="#FFFFFF" height="92.582" style="stroke:#181818;stroke-width:1.0;" width="10" x="1530" y="509.0742"/><rect fill="#FFFFFF" height="92.582" style="stroke:#181818;stroke-width:1.0;" width="10" x="1530" y="1388.3496"/><rect fill="#FFFFFF" height="92.582" style="stroke:#181818;stroke-width:1.0;" width="10" x="1530" y="1635.7266"/><rect fill="#FFFFFF" height="290.959" style="stroke:#181818;stroke-width:1.0;" width="10" x="1682" y="98.2422"/><rect fill="#FFFFFF" height="61.291" style="stroke:#181818;stroke-width:1.0;" width="10" x="1826.5" y="540.3652"/><rect fill="#FFFFFF" height="61.291" style="stroke:#181818;stroke-width:1.0;" width="10" x="1826.5" y="1419.6406"/><rect fill="#FFFFFF" height="61.291" style="stroke:#181818;stroke-width:1.0;" width="10" x="1826.5" y="1667.0176"/><rect fill="#FFFFFF" height="61.291" style="stroke:#181818;stroke-width:1.0;" width="10" x="1963.5" y="327.9102"/><rect fill="#FFFFFF" height="30" style="stroke:#181818;stroke-width:1.0;" width="10" x="2215" y="571.6563"/><rect fill="#FFFFFF" height="30" style="stroke:#181818;stroke-width:1.0;" width="10" x="2215" y="1450.9316"/><rect fill="#FFFFFF" height="30" style="stroke:#181818;stroke-width:1.0;" width="10" x="2215" y="1698.3086"/><rect fill="#FFFFFF" height="30" style="stroke:#181818;stroke-width:1.0;" width="10" x="2365" y="359.2012"/><rect fill="none" height="98.5039" style="stroke:#000000;stroke-width:1.5;" width="1248" x="509" y="199.1152"/><rect fill="none" height="96.873" style="stroke:#000000;stroke-width:1.5;" width="683" x="499" y="687.2383"/><rect fill="none" height="63.582" style="stroke:#000000;stroke-width:1.5;" width="663" x="509" y="713.5293"/><rect fill="none" height="50.582" style="stroke:#000000;stroke-width:1.5;" width="641" x="30" y="842.4023"/><rect fill="none" height="50.582" style="stroke:#000000;stroke-width:1.5;" width="641" x="30" y="906.9844"/><rect fill="none" height="83.873" style="stroke:#000000;stroke-width:1.5;" width="661" x="20" y="1047.1484"/><rect fill="none" height="50.582" style="stroke:#000000;stroke-width:1.5;" width="641" x="30" y="1073.4395"/><rect fill="none" height="497.4141" style="stroke:#000000;stroke-width:1.5;" width="2281" x="30" y="1238.8945"/><line style="stroke:#181818;stroke-width:0.5;stroke-dasharray:5.0,5.0;" x1="57" x2="57" y1="88.2422" y2="1784.5996"/><line style="stroke:#181818;stroke-width:0.5;stroke-dasharray:5.0,5.0;" x1="275" x2="275" y1="88.2422" y2="1784.5996"/><line style="stroke:#181818;stroke-width:0.5;stroke-dasharray:5.0,5.0;" x1="424" x2="424" y1="88.2422" y2="1784.5996"/><line style="stroke:#181818;stroke-width:0.5;stroke-dasharray:5.0,5.0;" x1="590" x2="590" y1="88.2422" y2="1784.5996"/><line style="stroke:#181818;stroke-width:0.5;stroke-dasharray:5.0,5.0;" x1="1535" x2="1535" y1="88.2422" y2="1784.5996"/><line style="stroke:#181818;stroke-width:0.5;stroke-dasharray:5.0,5.0;" x1="1687" x2="1687" y1="88.2422" y2="1784.5996"/><line style="stroke:#181818;stroke-width:0.5;stroke-dasharray:5.0,5.0;" x1="1831" x2="1831" y1="88.2422" y2="1784.5996"/><line style="stroke:#181818;stroke-width:0.5;stroke-dasharray:5.0,5.0;" x1="1968" x2="1968" y1="88.2422" y2="1784.5996"/><line style="stroke:#181818;stroke-width:0.5;stroke-dasharray:5.0,5.0;" x1="2080" x2="2080" y1="88.2422" y2="1784.5996"/><line style="stroke:#181818;stroke-width:0.5;stroke-dasharray:5.0,5.0;" x1="2220" x2="2220" y1="88.2422" y2="1784.5996"/><line style="stroke:#181818;stroke-width:0.5;stroke-dasharray:5.0,5.0;" x1="2370" x2="2370" y1="88.2422" y2="1784.5996"/><text fill="#000000" font-family="sans-serif" font-size="14" lengthAdjust="spacing" textLength="29" x="40" y="84.7285">User</text><ellipse cx="57.5" cy="18.1211" fill="#E2E2F0" rx="8" ry="8" style="stroke:#181818;stroke-width:0.5;"/><path d="M57.5,26.1211 L57.5,53.1211 M44.5,34.1211 L70.5,34.1211 M57.5,53.1211 L44.5,68.1211 M57.5,53.1211 L70.5,68.1211 " fill="none" style="stroke:#181818;stroke-width:0.5;"/><text fill="#000000" font-family="sans-serif" font-size="14" lengthAdjust="spacing" textLength="29" x="40" y="1798.707">User</text><ellipse cx="57.5" cy="1810.7207" fill="#E2E2F0" rx="8" ry="8" style="stroke:#181818;stroke-width:0.5;"/><path d="M57.5,1818.7207 L57.5,1845.7207 M44.5,1826.7207 L70.5,1826.7207 M57.5,1845.7207 L44.5,1860.7207 M57.5,1845.7207 L70.5,1860.7207 " fill="none" style="stroke:#181818;stroke-width:0.5;"/><rect fill="#E2E2F0" height="51.2422" rx="2.5" ry="2.5" style="stroke:#181818;stroke-width:0.5;" width="109" x="221" y="36"/><text fill="#000000" font-family="sans-serif" font-size="14" font-style="italic" lengthAdjust="spacing" textLength="95" x="228" y="58.1074">&#171;presentation&#187;</text><text fill="#000000" font-family="sans-serif" font-size="14" lengthAdjust="spacing" textLength="52" x="249.5" y="76.7285">:UsersUI</text><rect fill="#E2E2F0" height="51.2422" rx="2.5" ry="2.5" style="stroke:#181818;stroke-width:0.5;" width="109" x="221" y="1783.5996"/><text fill="#000000" font-family="sans-serif" font-size="14" font-style="italic" lengthAdjust="spacing" textLength="95" x="228" y="1805.707">&#171;presentation&#187;</text><text fill="#000000" font-family="sans-serif" font-size="14" lengthAdjust="spacing" textLength="52" x="249.5" y="1824.3281">:UsersUI</text><rect fill="#E2E2F0" height="51.2422" rx="2.5" ry="2.5" style="stroke:#181818;stroke-width:0.5;" width="169" x="340" y="36"/><text fill="#000000" font-family="sans-serif" font-size="14" font-style="italic" lengthAdjust="spacing" textLength="84" x="382.5" y="58.1074">&#171;application&#187;</text><text fill="#000000" font-family="sans-serif" font-size="14" lengthAdjust="spacing" textLength="155" x="347" y="76.7285">:PostSharedBoardAction</text><rect fill="#E2E2F0" height="51.2422" rx="2.5" ry="2.5" style="stroke:#181818;stroke-width:0.5;" width="169" x="340" y="1783.5996"/><text fill="#000000" font-family="sans-serif" font-size="14" font-style="italic" lengthAdjust="spacing" textLength="84" x="382.5" y="1805.707">&#171;application&#187;</text><text fill="#000000" font-family="sans-serif" font-size="14" lengthAdjust="spacing" textLength="155" x="347" y="1824.3281">:PostSharedBoardAction</text><rect fill="#E2E2F0" height="51.2422" rx="2.5" ry="2.5" style="stroke:#181818;stroke-width:0.5;" width="142" x="519" y="36"/><text fill="#000000" font-family="sans-serif" font-size="14" font-style="italic" lengthAdjust="spacing" textLength="95" x="542.5" y="58.1074">&#171;presentation&#187;</text><text fill="#000000" font-family="sans-serif" font-size="14" lengthAdjust="spacing" textLength="128" x="526" y="76.7285">:PostSharedBoardUI</text><rect fill="#E2E2F0" height="51.2422" rx="2.5" ry="2.5" style="stroke:#181818;stroke-width:0.5;" width="142" x="519" y="1783.5996"/><text fill="#000000" font-family="sans-serif" font-size="14" font-style="italic" lengthAdjust="spacing" textLength="95" x="542.5" y="1805.707">&#171;presentation&#187;</text><text fill="#000000" font-family="sans-serif" font-size="14" lengthAdjust="spacing" textLength="128" x="526" y="1824.3281">:PostSharedBoardUI</text><rect fill="#E2E2F0" height="51.2422" rx="2.5" ry="2.5" style="stroke:#181818;stroke-width:0.5;" width="164" x="1453" y="36"/><text fill="#000000" font-family="sans-serif" font-size="14" font-style="italic" lengthAdjust="spacing" textLength="84" x="1493" y="58.1074">&#171;application&#187;</text><text fill="#000000" font-family="sans-serif" font-size="14" lengthAdjust="spacing" textLength="150" x="1460" y="76.7285">:SharedBoardController</text><rect fill="#E2E2F0" height="51.2422" rx="2.5" ry="2.5" style="stroke:#181818;stroke-width:0.5;" width="164" x="1453" y="1783.5996"/><text fill="#000000" font-family="sans-serif" font-size="14" font-style="italic" lengthAdjust="spacing" textLength="84" x="1493" y="1805.707">&#171;application&#187;</text><text fill="#000000" font-family="sans-serif" font-size="14" lengthAdjust="spacing" textLength="150" x="1460" y="1824.3281">:SharedBoardController</text><rect fill="#E2E2F0" height="51.2422" rx="2.5" ry="2.5" style="stroke:#181818;stroke-width:0.5;" width="120" x="1627" y="36"/><text fill="#000000" font-family="sans-serif" font-size="14" font-style="italic" lengthAdjust="spacing" textLength="84" x="1645" y="58.1074">&#171;application&#187;</text><text fill="#000000" font-family="sans-serif" font-size="14" lengthAdjust="spacing" textLength="106" x="1634" y="76.7285">:ProfileController</text><rect fill="#E2E2F0" height="51.2422" rx="2.5" ry="2.5" style="stroke:#181818;stroke-width:0.5;" width="120" x="1627" y="1783.5996"/><text fill="#000000" font-family="sans-serif" font-size="14" font-style="italic" lengthAdjust="spacing" textLength="84" x="1645" y="1805.707">&#171;application&#187;</text><text fill="#000000" font-family="sans-serif" font-size="14" lengthAdjust="spacing" textLength="106" x="1634" y="1824.3281">:ProfileController</text><rect fill="#E2E2F0" height="51.2422" rx="2.5" ry="2.5" style="stroke:#181818;stroke-width:0.5;" width="149" x="1757" y="36"/><text fill="#000000" font-family="sans-serif" font-size="14" font-style="italic" lengthAdjust="spacing" textLength="84" x="1789.5" y="58.1074">&#171;application&#187;</text><text fill="#000000" font-family="sans-serif" font-size="14" lengthAdjust="spacing" textLength="135" x="1764" y="76.7285">:SharedBoardService</text><rect fill="#E2E2F0" height="51.2422" rx="2.5" ry="2.5" style="stroke:#181818;stroke-width:0.5;" width="149" x="1757" y="1783.5996"/><text fill="#000000" font-family="sans-serif" font-size="14" font-style="italic" lengthAdjust="spacing" textLength="84" x="1789.5" y="1805.707">&#171;application&#187;</text><text fill="#000000" font-family="sans-serif" font-size="14" lengthAdjust="spacing" textLength="135" x="1764" y="1824.3281">:SharedBoardService</text><rect fill="#E2E2F0" height="51.2422" rx="2.5" ry="2.5" style="stroke:#181818;stroke-width:0.5;" width="105" x="1916" y="36"/><text fill="#000000" font-family="sans-serif" font-size="14" font-style="italic" lengthAdjust="spacing" textLength="84" x="1926.5" y="58.1074">&#171;application&#187;</text><text fill="#000000" font-family="sans-serif" font-size="14" lengthAdjust="spacing" textLength="91" x="1923" y="76.7285">:ProfileService</text><rect fill="#E2E2F0" height="51.2422" rx="2.5" ry="2.5" style="stroke:#181818;stroke-width:0.5;" width="105" x="1916" y="1783.5996"/><text fill="#000000" font-family="sans-serif" font-size="14" font-style="italic" lengthAdjust="spacing" textLength="84" x="1926.5" y="1805.707">&#171;application&#187;</text><text fill="#000000" font-family="sans-serif" font-size="14" lengthAdjust="spacing" textLength="91" x="1923" y="1824.3281">:ProfileService</text><rect fill="#E2E2F0" height="51.2422" rx="2.5" ry="2.5" style="stroke:#181818;stroke-width:0.5;" width="98" x="2031" y="36"/><text fill="#000000" font-family="sans-serif" font-size="14" font-style="italic" lengthAdjust="spacing" textLength="62" x="2049" y="58.1074">&#171;domain&#187;</text><text fill="#000000" font-family="sans-serif" font-size="14" lengthAdjust="spacing" textLength="84" x="2038" y="76.7285">SharedBoard</text><rect fill="#E2E2F0" height="51.2422" rx="2.5" ry="2.5" style="stroke:#181818;stroke-width:0.5;" width="98" x="2031" y="1783.5996"/><text fill="#000000" font-family="sans-serif" font-size="14" font-style="italic" lengthAdjust="spacing" textLength="62" x="2049" y="1805.707">&#171;domain&#187;</text><text fill="#000000" font-family="sans-serif" font-size="14" lengthAdjust="spacing" textLength="84" x="2038" y="1824.3281">SharedBoard</text><text fill="#000000" font-family="sans-serif" font-size="14" font-style="italic" lengthAdjust="spacing" textLength="79" x="2177.5" y="66.1074">&#171;repository&#187;</text><text fill="#000000" font-family="sans-serif" font-size="14" lengthAdjust="spacing" textLength="156" x="2139" y="84.7285">:SharedBoardRepository</text><path d="M2202,15 C2202,5 2220,5 2220,5 C2220,5 2238,5 2238,15 L2238,41 C2238,51 2220,51 2220,51 C2220,51 2202,51 2202,41 L2202,15 " fill="#E2E2F0" style="stroke:#181818;stroke-width:1.5;"/><path d="M2202,15 C2202,25 2220,25 2220,25 C2220,25 2238,25 2238,15 " fill="none" style="stroke:#181818;stroke-width:1.5;"/><text fill="#000000" font-family="sans-serif" font-size="14" font-style="italic" lengthAdjust="spacing" textLength="79" x="2177.5" y="1798.707">&#171;repository&#187;</text><text fill="#000000" font-family="sans-serif" font-size="14" lengthAdjust="spacing" textLength="156" x="2139" y="1817.3281">:SharedBoardRepository</text><path d="M2202,1830.8418 C2202,1820.8418 2220,1820.8418 2220,1820.8418 C2220,1820.8418 2238,1820.8418 2238,1830.8418 L2238,1856.8418 C2238,1866.8418 2220,1866.8418 2220,1866.8418 C2220,1866.8418 2202,1866.8418 2202,1856.8418 L2202,1830.8418 " fill="#E2E2F0" style="stroke:#181818;stroke-width:1.5;"/><path d="M2202,1830.8418 C2202,1840.8418 2220,1840.8418 2220,1840.8418 C2220,1840.8418 2238,1840.8418 2238,1830.8418 " fill="none" style="stroke:#181818;stroke-width:1.5;"/><text fill="#000000" font-family="sans-serif" font-size="14" font-style="italic" lengthAdjust="spacing" textLength="79" x="2327.5" y="66.1074">&#171;repository&#187;</text><text fill="#000000" font-family="sans-serif" font-size="14" lengthAdjust="spacing" textLength="112" x="2311" y="84.7285">:ProfileRepository</text><path d="M2352,15 C2352,5 2370,5 2370,5 C2370,5 2388,5 2388,15 L2388,41 C2388,51 2370,51 2370,51 C2370,51 2352,51 2352,41 L2352,15 " fill="#E2E2F0" style="stroke:#181818;stroke-width:1.5;"/><path d="M2352,15 C2352,25 2370,25 2370,25 C2370,25 2388,25 2388,15 " fill="none" style="stroke:#181818;stroke-width:1.5;"/><text fill="#000000" font-family="sans-serif" font-size="14" font-style="italic" lengthAdjust="spacing" textLength="79" x="2327.5" y="1798.707">&#171;repository&#187;</text><text fill="#000000" font-family="sans-serif" font-size="14" lengthAdjust="spacing" textLength="112" x="2311" y="1817.3281">:ProfileRepository</text><path d="M2352,1830.8418 C2352,1820.8418 2370,1820.8418 2370,1820.8418 C2370,1820.8418 2388,1820.8418 2388,1830.8418 L2388,1856.8418 C2388,1866.8418 2370,1866.8418 2370,1866.8418 C2370,1866.8418 2352,1866.8418 2352,1856.8418 L2352,1830.8418 " fill="#E2E2F0" style="stroke:#181818;stroke-width:1.5;"/><path d="M2352,1830.8418 C2352,1840.8418 2370,1840.8418 2370,1840.8418 C2370,1840.8418 2388,1840.8418 2388,1830.8418 " fill="none" style="stroke:#181818;stroke-width:1.5;"/><rect fill="#FFFFFF" height="1668.3574" style="stroke:#181818;stroke-width:1.0;" width="10" x="52.5" y="98.2422"/><rect fill="#FFFFFF" height="62.582" style="stroke:#181818;stroke-width:1.0;" width="10" x="270.5" y="121.5332"/><rect fill="#FFFFFF" height="31.291" style="stroke:#181818;stroke-width:1.0;" width="10" x="419.5" y="152.8242"/><rect fill="#FFFFFF" height="1008.4883" style="stroke:#181818;stroke-width:1.0;" width="10" x="585" y="184.1152"/><rect fill="#FFFFFF" height="362.6191" style="stroke:#181818;stroke-width:1.0;" width="10" x="590" y="428.4922"/><rect fill="#FFFFFF" height="142.1641" style="stroke:#181818;stroke-width:1.0;" width="10" x="590" y="822.4023"/><rect fill="#FFFFFF" height="173.4551" style="stroke:#181818;stroke-width:1.0;" width="10" x="590" y="987.8574"/><rect fill="#FFFFFF" height="542.7051" style="stroke:#181818;stroke-width:1.0;" width="10" x="585" y="1223.8945"/><rect fill="#FFFFFF" height="191.4551" style="stroke:#181818;stroke-width:1.0;" width="10" x="590" y="1289.4766"/><rect fill="#FFFFFF" height="191.4551" style="stroke:#181818;stroke-width:1.0;" width="10" x="590" y="1536.8535"/><rect fill="#FFFFFF" height="92.582" style="stroke:#181818;stroke-width:1.0;" width="10" x="1530" y="509.0742"/><rect fill="#FFFFFF" height="92.582" style="stroke:#181818;stroke-width:1.0;" width="10" x="1530" y="1388.3496"/><rect fill="#FFFFFF" height="92.582" style="stroke:#181818;stroke-width:1.0;" width="10" x="1530" y="1635.7266"/><rect fill="#FFFFFF" height="290.959" style="stroke:#181818;stroke-width:1.0;" width="10" x="1682" y="98.2422"/><rect fill="#FFFFFF" height="61.291" style="stroke:#181818;stroke-width:1.0;" width="10" x="1826.5" y="540.3652"/><rect fill="#FFFFFF" height="61.291" style="stroke:#181818;stroke-width:1.0;" width="10" x="1826.5" y="1419.6406"/><rect fill="#FFFFFF" height="61.291" style="stroke:#181818;stroke-width:1.0;" width="10" x="1826.5" y="1667.0176"/><rect fill="#FFFFFF" height="61.291" style="stroke:#181818;stroke-width:1.0;" width="10" x="1963.5" y="327.9102"/><rect fill="#FFFFFF" height="30" style="stroke:#181818;stroke-width:1.0;" width="10" x="2215" y="571.6563"/><rect fill="#FFFFFF" height="30" style="stroke:#181818;stroke-width:1.0;" width="10" x="2215" y="1450.9316"/><rect fill="#FFFFFF" height="30" style="stroke:#181818;stroke-width:1.0;" width="10" x="2215" y="1698.3086"/><rect fill="#FFFFFF" height="30" style="stroke:#181818;stroke-width:1.0;" width="10" x="2365" y="359.2012"/><polygon fill="#181818" points="258.5,117.5332,268.5,121.5332,258.5,125.5332,262.5,121.5332" style="stroke:#181818;stroke-width:1.0;"/><line style="stroke:#181818;stroke-width:1.0;" x1="62.5" x2="264.5" y1="121.5332" y2="121.5332"/><text fill="#000000" font-family="sans-serif" font-size="13" font-weight="bold" lengthAdjust="spacing" textLength="7" x="69.5" y="116.2705">1</text><text fill="#000000" font-family="sans-serif" font-size="13" lengthAdjust="spacing" textLength="178" x="80.5" y="116.2705">Asks to post in a shared board</text><polygon fill="#181818" points="407.5,148.8242,417.5,152.8242,407.5,156.8242,411.5,152.8242" style="stroke:#181818;stroke-width:1.0;"/><line style="stroke:#181818;stroke-width:1.0;" x1="280.5" x2="413.5" y1="152.8242" y2="152.8242"/><text fill="#000000" font-family="sans-serif" font-size="13" font-weight="bold" lengthAdjust="spacing" textLength="7" x="287.5" y="147.5615">2</text><text fill="#000000" font-family="sans-serif" font-size="13" lengthAdjust="spacing" textLength="54" x="298.5" y="147.5615">execute()</text><polygon fill="#181818" points="573,180.1152,583,184.1152,573,188.1152,577,184.1152" style="stroke:#181818;stroke-width:1.0;"/><line style="stroke:#181818;stroke-width:1.0;" x1="424.5" x2="579" y1="184.1152" y2="184.1152"/><text fill="#000000" font-family="sans-serif" font-size="13" font-weight="bold" lengthAdjust="spacing" textLength="7" x="431.5" y="178.8525">3</text><text fill="#000000" font-family="sans-serif" font-size="13" lengthAdjust="spacing" textLength="54" x="442.5" y="178.8525">doShow()</text><path d="M509,199.1152 L570,199.1152 L570,208.4063 L560,218.4063 L509,218.4063 L509,199.1152 " fill="#EEEEEE" style="stroke:#000000;stroke-width:1.5;"/><rect fill="none" height="98.5039" style="stroke:#000000;stroke-width:1.5;" width="1248" x="509" y="199.1152"/><text fill="#000000" font-family="sans-serif" font-size="13" font-weight="bold" lengthAdjust="spacing" textLength="16" x="524" y="214.1436">alt</text><text fill="#000000" font-family="sans-serif" font-size="11" font-weight="bold" lengthAdjust="spacing" textLength="107" x="585" y="212.9854">[(profile==student)]</text><polygon fill="#181818" points="1670,237.6973,1680,241.6973,1670,245.6973,1674,241.6973" style="stroke:#181818;stroke-width:1.0;"/><line style="stroke:#181818;stroke-width:1.0;" x1="595" x2="1676" y1="241.6973" y2="241.6973"/><text fill="#000000" font-family="sans-serif" font-size="13" font-weight="bold" lengthAdjust="spacing" textLength="7" x="602" y="236.4346">4</text><text fill="#000000" font-family="sans-serif" font-size="13" lengthAdjust="spacing" textLength="567" x="613" y="236.4346">currentUserProfile = (StudentProfile) getUserProfile(authz.session().get().authenticatedUser()).get()</text><line style="stroke:#000000;stroke-width:1.0;stroke-dasharray:2.0,2.0;" x1="509" x2="1757" y1="250.6973" y2="250.6973"/><text fill="#000000" font-family="sans-serif" font-size="11" font-weight="bold" lengthAdjust="spacing" textLength="106" x="514" y="262.5674">[(profile==teacher)]</text><polygon fill="#181818" points="1670,285.6191,1680,289.6191,1670,293.6191,1674,289.6191" style="stroke:#181818;stroke-width:1.0;"/><line style="stroke:#181818;stroke-width:1.0;" x1="595" x2="1676" y1="289.6191" y2="289.6191"/><text fill="#000000" font-family="sans-serif" font-size="13" font-weight="bold" lengthAdjust="spacing" textLength="7" x="602" y="284.3564">5</text><text fill="#000000" font-family="sans-serif" font-size="13" lengthAdjust="spacing" textLength="568" x="613" y="284.3564">currentUserProfile = (TeacherProfile) getUserProfile(authz.session().get().authenticatedUser()).get()</text><polygon fill="#181818" points="1951.5,323.9102,1961.5,327.9102,1951.5,331.9102,1955.5,327.9102" style="stroke:#181818;stroke-width:1.0;"/><line style="stroke:#181818;stroke-width:1.0;" x1="1692" x2="1957.5" y1="327.9102" y2="327.9102"/><text fill="#000000" font-family="sans-serif" font-size="13" font-weight="bold" lengthAdjust="spacing" textLength="7" x="1699" y="322.6475">6</text><text fill="#000000" font-family="sans-serif" font-size="13" lengthAdjust="spacing" textLength="172" x="1710" y="322.6475">getProfileFromDatabase(user)</text><polygon fill="#181818" points="2353,355.2012,2363,359.2012,2353,363.2012,2357,359.2012" style="stroke:#181818;stroke-width:1.0;"/><line style="stroke:#181818;stroke-width:1.0;" x1="1973.5" x2="2359" y1="359.2012" y2="359.2012"/><text fill="#000000" font-family="sans-serif" font-size="13" font-weight="bold" lengthAdjust="spacing" textLength="7" x="1980.5" y="353.9385">7</text><text fill="#000000" font-family="sans-serif" font-size="13" lengthAdjust="spacing" textLength="132" x="1991.5" y="353.9385">findProfileByUser(user)</text><line style="stroke:#181818;stroke-width:1.0;" x1="595" x2="642" y1="415.4922" y2="415.4922"/><line style="stroke:#181818;stroke-width:1.0;" x1="642" x2="642" y1="415.4922" y2="428.4922"/><line style="stroke:#181818;stroke-width:1.0;" x1="601" x2="642" y1="428.4922" y2="428.4922"/><polygon fill="#181818" points="611,424.4922,601,428.4922,611,432.4922,607,428.4922" style="stroke:#181818;stroke-width:1.0;"/><text fill="#000000" font-family="sans-serif" font-size="13" font-weight="bold" lengthAdjust="spacing" textLength="7" x="607" y="410.2295">8</text><text fill="#000000" font-family="sans-serif" font-size="13" lengthAdjust="spacing" textLength="94" x="618" y="410.2295">getUserBoards()</text><line style="stroke:#181818;stroke-width:1.0;" x1="600" x2="642" y1="464.7832" y2="464.7832"/><line style="stroke:#181818;stroke-width:1.0;" x1="642" x2="642" y1="464.7832" y2="477.7832"/><line style="stroke:#181818;stroke-width:1.0;" x1="601" x2="642" y1="477.7832" y2="477.7832"/><polygon fill="#181818" points="611,473.7832,601,477.7832,611,481.7832,607,477.7832" style="stroke:#181818;stroke-width:1.0;"/><text fill="#000000" font-family="sans-serif" font-size="13" font-weight="bold" lengthAdjust="spacing" textLength="7" x="607" y="459.5205">9</text><text fill="#000000" font-family="sans-serif" font-size="13" lengthAdjust="spacing" textLength="265" x="618" y="459.5205">name = currentUserProfile.getUser().toString()</text><polygon fill="#181818" points="1518,505.0742,1528,509.0742,1518,513.0742,1522,509.0742" style="stroke:#181818;stroke-width:1.0;"/><line style="stroke:#181818;stroke-width:1.0;" x1="600" x2="1524" y1="509.0742" y2="509.0742"/><text fill="#000000" font-family="sans-serif" font-size="13" font-weight="bold" lengthAdjust="spacing" textLength="14" x="607" y="503.8115">10</text><text fill="#000000" font-family="sans-serif" font-size="13" lengthAdjust="spacing" textLength="100" x="625" y="503.8115">boards = getAll();</text><polygon fill="#181818" points="1814.5,536.3652,1824.5,540.3652,1814.5,544.3652,1818.5,540.3652" style="stroke:#181818;stroke-width:1.0;"/><line style="stroke:#181818;stroke-width:1.0;" x1="1540" x2="1820.5" y1="540.3652" y2="540.3652"/><text fill="#000000" font-family="sans-serif" font-size="13" font-weight="bold" lengthAdjust="spacing" textLength="14" x="1547" y="535.1025">11</text><text fill="#000000" font-family="sans-serif" font-size="13" lengthAdjust="spacing" textLength="171" x="1565" y="535.1025">boards = getAllSharedBoard()</text><polygon fill="#181818" points="2203,567.6563,2213,571.6563,2203,575.6563,2207,571.6563" style="stroke:#181818;stroke-width:1.0;"/><line style="stroke:#181818;stroke-width:1.0;" x1="1836.5" x2="2209" y1="571.6563" y2="571.6563"/><text fill="#000000" font-family="sans-serif" font-size="13" font-weight="bold" lengthAdjust="spacing" textLength="14" x="1843.5" y="566.3936">12</text><text fill="#000000" font-family="sans-serif" font-size="13" lengthAdjust="spacing" textLength="175" x="1861.5" y="566.3936">boards = getAllSharedBoard();</text><line style="stroke:#181818;stroke-width:1.0;" x1="600" x2="642" y1="659.2383" y2="659.2383"/><line style="stroke:#181818;stroke-width:1.0;" x1="642" x2="642" y1="659.2383" y2="672.2383"/><line style="stroke:#181818;stroke-width:1.0;" x1="601" x2="642" y1="672.2383" y2="672.2383"/><polygon fill="#181818" points="611,668.2383,601,672.2383,611,676.2383,607,672.2383" style="stroke:#181818;stroke-width:1.0;"/><text fill="#000000" font-family="sans-serif" font-size="13" font-weight="bold" lengthAdjust="spacing" textLength="14" x="607" y="653.9756">13</text><text fill="#000000" font-family="sans-serif" font-size="13" lengthAdjust="spacing" textLength="320" x="625" y="653.9756">Set&lt;Participant&gt; participants = board.getParticipants();</text><path d="M499,687.2383 L572,687.2383 L572,696.5293 L562,706.5293 L499,706.5293 L499,687.2383 " fill="#EEEEEE" style="stroke:#000000;stroke-width:1.5;"/><rect fill="none" height="96.873" style="stroke:#000000;stroke-width:1.5;" width="683" x="499" y="687.2383"/><text fill="#000000" font-family="sans-serif" font-size="13" font-weight="bold" lengthAdjust="spacing" textLength="28" x="514" y="702.2666">loop</text><text fill="#000000" font-family="sans-serif" font-size="11" font-weight="bold" lengthAdjust="spacing" textLength="228" x="587" y="701.1084">[(for Participant participant : participants)]</text><path d="M509,713.5293 L570,713.5293 L570,722.8203 L560,732.8203 L509,732.8203 L509,713.5293 " fill="#EEEEEE" style="stroke:#000000;stroke-width:1.5;"/><rect fill="none" height="63.582" style="stroke:#000000;stroke-width:1.5;" width="663" x="509" y="713.5293"/><text fill="#000000" font-family="sans-serif" font-size="13" font-weight="bold" lengthAdjust="spacing" textLength="16" x="524" y="728.5576">alt</text><text fill="#000000" font-family="sans-serif" font-size="11" font-weight="bold" lengthAdjust="spacing" textLength="582" x="585" y="727.3994">[(participant.profile.getUser().toString().equals(name) &amp;&amp; participant.getPermission()!= Permission.READ)]</text><line style="stroke:#181818;stroke-width:1.0;" x1="600" x2="642" y1="756.1113" y2="756.1113"/><line style="stroke:#181818;stroke-width:1.0;" x1="642" x2="642" y1="756.1113" y2="769.1113"/><line style="stroke:#181818;stroke-width:1.0;" x1="601" x2="642" y1="769.1113" y2="769.1113"/><polygon fill="#181818" points="611,765.1113,601,769.1113,611,773.1113,607,769.1113" style="stroke:#181818;stroke-width:1.0;"/><text fill="#000000" font-family="sans-serif" font-size="13" font-weight="bold" lengthAdjust="spacing" textLength="14" x="607" y="750.8486">14</text><text fill="#000000" font-family="sans-serif" font-size="13" lengthAdjust="spacing" textLength="135" x="625" y="750.8486">userBoards.add(board);</text><line style="stroke:#181818;stroke-width:1.0;" x1="595" x2="642" y1="809.4023" y2="809.4023"/><line style="stroke:#181818;stroke-width:1.0;" x1="642" x2="642" y1="809.4023" y2="822.4023"/><line style="stroke:#181818;stroke-width:1.0;" x1="601" x2="642" y1="822.4023" y2="822.4023"/><polygon fill="#181818" points="611,818.4023,601,822.4023,611,826.4023,607,822.4023" style="stroke:#181818;stroke-width:1.0;"/><text fill="#000000" font-family="sans-serif" font-size="13" font-weight="bold" lengthAdjust="spacing" textLength="14" x="607" y="804.1396">15</text><text fill="#000000" font-family="sans-serif" font-size="13" lengthAdjust="spacing" textLength="167" x="625" y="804.1396">getSharedBoard(userBoards)</text><path d="M30,842.4023 L91,842.4023 L91,851.6934 L81,861.6934 L30,861.6934 L30,842.4023 " fill="#EEEEEE" style="stroke:#000000;stroke-width:1.5;"/><rect fill="none" height="50.582" style="stroke:#000000;stroke-width:1.5;" width="641" x="30" y="842.4023"/><text fill="#000000" font-family="sans-serif" font-size="13" font-weight="bold" lengthAdjust="spacing" textLength="16" x="45" y="857.4307">alt</text><text fill="#000000" font-family="sans-serif" font-size="11" font-weight="bold" lengthAdjust="spacing" textLength="110" x="106" y="856.2725">[(boards.isEmpty())]</text><polygon fill="#181818" points="73.5,880.9844,63.5,884.9844,73.5,888.9844,69.5,884.9844" style="stroke:#181818;stroke-width:1.0;"/><line style="stroke:#181818;stroke-width:1.0;stroke-dasharray:2.0,2.0;" x1="67.5" x2="589" y1="884.9844" y2="884.9844"/><text fill="#000000" font-family="sans-serif" font-size="13" font-weight="bold" lengthAdjust="spacing" textLength="14" x="79.5" y="879.7217">16</text><text fill="#000000" font-family="sans-serif" font-size="13" lengthAdjust="spacing" textLength="226" x="97.5" y="879.7217">This user does not has Shared Boards.</text><path d="M30,906.9844 L103,906.9844 L103,916.2754 L93,926.2754 L30,926.2754 L30,906.9844 " fill="#EEEEEE" style="stroke:#000000;stroke-width:1.5;"/><rect fill="none" height="50.582" style="stroke:#000000;stroke-width:1.5;" width="641" x="30" y="906.9844"/><text fill="#000000" font-family="sans-serif" font-size="13" font-weight="bold" lengthAdjust="spacing" textLength="28" x="45" y="922.0127">loop</text><text fill="#000000" font-family="sans-serif" font-size="11" font-weight="bold" lengthAdjust="spacing" textLength="189" x="118" y="920.8545">[(for SharedBoard board : boards)]</text><polygon fill="#181818" points="73.5,945.5664,63.5,949.5664,73.5,953.5664,69.5,949.5664" style="stroke:#181818;stroke-width:1.0;"/><line style="stroke:#181818;stroke-width:1.0;stroke-dasharray:2.0,2.0;" x1="67.5" x2="589" y1="949.5664" y2="949.5664"/><text fill="#000000" font-family="sans-serif" font-size="13" font-weight="bold" lengthAdjust="spacing" textLength="14" x="79.5" y="944.3037">17</text><text fill="#000000" font-family="sans-serif" font-size="13" lengthAdjust="spacing" textLength="73" x="97.5" y="944.3037">shows board</text><polygon fill="#181818" points="578,983.8574,588,987.8574,578,991.8574,582,987.8574" style="stroke:#181818;stroke-width:1.0;"/><line style="stroke:#181818;stroke-width:1.0;" x1="62.5" x2="584" y1="987.8574" y2="987.8574"/><text fill="#000000" font-family="sans-serif" font-size="13" font-weight="bold" lengthAdjust="spacing" textLength="14" x="69.5" y="982.5947">18</text><text fill="#000000" font-family="sans-serif" font-size="13" lengthAdjust="spacing" textLength="87" x="87.5" y="982.5947">Chooses board</text><line style="stroke:#181818;stroke-width:1.0;" x1="600" x2="642" y1="1019.1484" y2="1019.1484"/><line style="stroke:#181818;stroke-width:1.0;" x1="642" x2="642" y1="1019.1484" y2="1032.1484"/><line style="stroke:#181818;stroke-width:1.0;" x1="601" x2="642" y1="1032.1484" y2="1032.1484"/><polygon fill="#181818" points="611,1028.1484,601,1032.1484,611,1036.1484,607,1032.1484" style="stroke:#181818;stroke-width:1.0;"/><text fill="#000000" font-family="sans-serif" font-size="13" font-weight="bold" lengthAdjust="spacing" textLength="14" x="607" y="1013.8857">19</text><text fill="#000000" font-family="sans-serif" font-size="13" lengthAdjust="spacing" textLength="121" x="625" y="1013.8857">getCell(sharedBoard)</text><path d="M20,1047.1484 L93,1047.1484 L93,1056.4395 L83,1066.4395 L20,1066.4395 L20,1047.1484 " fill="#EEEEEE" style="stroke:#000000;stroke-width:1.5;"/><rect fill="none" height="83.873" style="stroke:#000000;stroke-width:1.5;" width="661" x="20" y="1047.1484"/><text fill="#000000" font-family="sans-serif" font-size="13" font-weight="bold" lengthAdjust="spacing" textLength="28" x="35" y="1062.1768">loop</text><text fill="#000000" font-family="sans-serif" font-size="11" font-weight="bold" lengthAdjust="spacing" textLength="211" x="108" y="1061.0186">[for (Cell cell : sharedBoard.getCells()]</text><path d="M30,1073.4395 L91,1073.4395 L91,1082.7305 L81,1092.7305 L30,1092.7305 L30,1073.4395 " fill="#EEEEEE" style="stroke:#000000;stroke-width:1.5;"/><rect fill="none" height="50.582" style="stroke:#000000;stroke-width:1.5;" width="641" x="30" y="1073.4395"/><text fill="#000000" font-family="sans-serif" font-size="13" font-weight="bold" lengthAdjust="spacing" textLength="16" x="45" y="1088.4678">alt</text><text fill="#000000" font-family="sans-serif" font-size="11" font-weight="bold" lengthAdjust="spacing" textLength="208" x="106" y="1087.3096">[(cell.getCellState() == CellState.FREE)]</text><polygon fill="#181818" points="73.5,1112.0215,63.5,1116.0215,73.5,1120.0215,69.5,1116.0215" style="stroke:#181818;stroke-width:1.0;"/><line style="stroke:#181818;stroke-width:1.0;stroke-dasharray:2.0,2.0;" x1="67.5" x2="589" y1="1116.0215" y2="1116.0215"/><text fill="#000000" font-family="sans-serif" font-size="13" font-weight="bold" lengthAdjust="spacing" textLength="14" x="79.5" y="1110.7588">20</text><text fill="#000000" font-family="sans-serif" font-size="13" lengthAdjust="spacing" textLength="61" x="97.5" y="1110.7588">shows cell</text><polygon fill="#181818" points="573,1157.3125,583,1161.3125,573,1165.3125,577,1161.3125" style="stroke:#181818;stroke-width:1.0;"/><line style="stroke:#181818;stroke-width:1.0;" x1="62.5" x2="579" y1="1161.3125" y2="1161.3125"/><text fill="#000000" font-family="sans-serif" font-size="13" font-weight="bold" lengthAdjust="spacing" textLength="14" x="69.5" y="1156.0498">21</text><text fill="#000000" font-family="sans-serif" font-size="13" lengthAdjust="spacing" textLength="75" x="87.5" y="1156.0498">Chooses cell</text><polygon fill="#181818" points="73.5,1188.6035,63.5,1192.6035,73.5,1196.6035,69.5,1192.6035" style="stroke:#181818;stroke-width:1.0;"/><line style="stroke:#181818;stroke-width:1.0;stroke-dasharray:2.0,2.0;" x1="67.5" x2="589" y1="1192.6035" y2="1192.6035"/><text fill="#000000" font-family="sans-serif" font-size="13" font-weight="bold" lengthAdjust="spacing" textLength="14" x="79.5" y="1187.3408">22</text><text fill="#000000" font-family="sans-serif" font-size="13" lengthAdjust="spacing" textLength="117" x="97.5" y="1187.3408">Ask the type of post</text><polygon fill="#181818" points="573,1219.8945,583,1223.8945,573,1227.8945,577,1223.8945" style="stroke:#181818;stroke-width:1.0;"/><line style="stroke:#181818;stroke-width:1.0;" x1="62.5" x2="579" y1="1223.8945" y2="1223.8945"/><text fill="#000000" font-family="sans-serif" font-size="13" font-weight="bold" lengthAdjust="spacing" textLength="14" x="69.5" y="1218.6318">23</text><text fill="#000000" font-family="sans-serif" font-size="13" lengthAdjust="spacing" textLength="116" x="87.5" y="1218.6318">Choose type of post</text><path d="M30,1238.8945 L91,1238.8945 L91,1248.1855 L81,1258.1855 L30,1258.1855 L30,1238.8945 " fill="#EEEEEE" style="stroke:#000000;stroke-width:1.5;"/><rect fill="none" height="497.4141" style="stroke:#000000;stroke-width:1.5;" width="2281" x="30" y="1238.8945"/><text fill="#000000" font-family="sans-serif" font-size="13" font-weight="bold" lengthAdjust="spacing" textLength="16" x="45" y="1253.9229">alt</text><text fill="#000000" font-family="sans-serif" font-size="11" font-weight="bold" lengthAdjust="spacing" textLength="118" x="106" y="1252.7646">[(TypeOfPost.IMAGE)]</text><line style="stroke:#181818;stroke-width:1.0;" x1="595" x2="642" y1="1276.4766" y2="1276.4766"/><line style="stroke:#181818;stroke-width:1.0;" x1="642" x2="642" y1="1276.4766" y2="1289.4766"/><line style="stroke:#181818;stroke-width:1.0;" x1="601" x2="642" y1="1289.4766" y2="1289.4766"/><polygon fill="#181818" points="611,1285.4766,601,1289.4766,611,1293.4766,607,1289.4766" style="stroke:#181818;stroke-width:1.0;"/><text fill="#000000" font-family="sans-serif" font-size="13" font-weight="bold" lengthAdjust="spacing" textLength="14" x="607" y="1271.2139">24</text><text fill="#000000" font-family="sans-serif" font-size="13" lengthAdjust="spacing" textLength="68" x="625" y="1271.2139">postImage()</text><polygon fill="#181818" points="73.5,1321.7676,63.5,1325.7676,73.5,1329.7676,69.5,1325.7676" style="stroke:#181818;stroke-width:1.0;"/><line style="stroke:#181818;stroke-width:1.0;stroke-dasharray:2.0,2.0;" x1="67.5" x2="589" y1="1325.7676" y2="1325.7676"/><text fill="#000000" font-family="sans-serif" font-size="13" font-weight="bold" lengthAdjust="spacing" textLength="14" x="79.5" y="1320.5049">25</text><text fill="#000000" font-family="sans-serif" font-size="13" lengthAdjust="spacing" textLength="74" x="97.5" y="1320.5049">Ask the path</text><polygon fill="#181818" points="578,1353.0586,588,1357.0586,578,1361.0586,582,1357.0586" style="stroke:#181818;stroke-width:1.0;"/><line style="stroke:#181818;stroke-width:1.0;" x1="62.5" x2="584" y1="1357.0586" y2="1357.0586"/><text fill="#000000" font-family="sans-serif" font-size="13" font-weight="bold" lengthAdjust="spacing" textLength="14" x="69.5" y="1351.7959">26</text><text fill="#000000" font-family="sans-serif" font-size="13" lengthAdjust="spacing" textLength="79" x="87.5" y="1351.7959">Input the path</text><polygon fill="#181818" points="1518,1384.3496,1528,1388.3496,1518,1392.3496,1522,1388.3496" style="stroke:#181818;stroke-width:1.0;"/><line style="stroke:#181818;stroke-width:1.0;" x1="600" x2="1524" y1="1388.3496" y2="1388.3496"/><text fill="#000000" font-family="sans-serif" font-size="13" font-weight="bold" lengthAdjust="spacing" textLength="14" x="607" y="1383.0869">27</text><text fill="#000000" font-family="sans-serif" font-size="13" lengthAdjust="spacing" textLength="893" x="625" y="1383.0869">addPosts(sharedBoard,cell,new Post(null,new Notification(null,TypeOfNotification.from("SharedBoard")),new Description(content),TypeOfPost.IMAGE,null));</text><polygon fill="#181818" points="1814.5,1415.6406,1824.5,1419.6406,1814.5,1423.6406,1818.5,1419.6406" style="stroke:#181818;stroke-width:1.0;"/><line style="stroke:#181818;stroke-width:1.0;" x1="1540" x2="1820.5" y1="1419.6406" y2="1419.6406"/><text fill="#000000" font-family="sans-serif" font-size="13" font-weight="bold" lengthAdjust="spacing" textLength="14" x="1547" y="1414.3779">28</text><text fill="#000000" font-family="sans-serif" font-size="13" lengthAdjust="spacing" textLength="202" x="1565" y="1414.3779">addNewSharedBoard(sharedBoard)</text><polygon fill="#181818" points="2203,1446.9316,2213,1450.9316,2203,1454.9316,2207,1450.9316" style="stroke:#181818;stroke-width:1.0;"/><line style="stroke:#181818;stroke-width:1.0;" x1="1836.5" x2="2209" y1="1450.9316" y2="1450.9316"/><text fill="#000000" font-family="sans-serif" font-size="13" font-weight="bold" lengthAdjust="spacing" textLength="14" x="1843.5" y="1445.6689">29</text><text fill="#000000" font-family="sans-serif" font-size="13" lengthAdjust="spacing" textLength="105" x="1861.5" y="1445.6689">save(sharedboard)</text><line style="stroke:#000000;stroke-width:1.0;stroke-dasharray:2.0,2.0;" x1="30" x2="2311" y1="1489.9316" y2="1489.9316"/><text fill="#000000" font-family="sans-serif" font-size="11" font-weight="bold" lengthAdjust="spacing" textLength="110" x="35" y="1501.8018">[(TypeOfPost.TEXT)]</text><line style="stroke:#181818;stroke-width:1.0;" x1="595" x2="642" y1="1523.8535" y2="1523.8535"/><line style="stroke:#181818;stroke-width:1.0;" x1="642" x2="642" y1="1523.8535" y2="1536.8535"/><line style="stroke:#181818;stroke-width:1.0;" x1="601" x2="642" y1="1536.8535" y2="1536.8535"/><polygon fill="#181818" points="611,1532.8535,601,1536.8535,611,1540.8535,607,1536.8535" style="stroke:#181818;stroke-width:1.0;"/><text fill="#000000" font-family="sans-serif" font-size="13" font-weight="bold" lengthAdjust="spacing" textLength="14" x="607" y="1518.5908">30</text><text fill="#000000" font-family="sans-serif" font-size="13" lengthAdjust="spacing" textLength="58" x="625" y="1518.5908">postText()</text><polygon fill="#181818" points="73.5,1569.1445,63.5,1573.1445,73.5,1577.1445,69.5,1573.1445" style="stroke:#181818;stroke-width:1.0;"/><line style="stroke:#181818;stroke-width:1.0;stroke-dasharray:2.0,2.0;" x1="67.5" x2="589" y1="1573.1445" y2="1573.1445"/><text fill="#000000" font-family="sans-serif" font-size="13" font-weight="bold" lengthAdjust="spacing" textLength="14" x="79.5" y="1567.8818">31</text><text fill="#000000" font-family="sans-serif" font-size="13" lengthAdjust="spacing" textLength="92" x="97.5" y="1567.8818">Ask the content</text><polygon fill="#181818" points="578,1600.4355,588,1604.4355,578,1608.4355,582,1604.4355" style="stroke:#181818;stroke-width:1.0;"/><line style="stroke:#181818;stroke-width:1.0;" x1="62.5" x2="584" y1="1604.4355" y2="1604.4355"/><text fill="#000000" font-family="sans-serif" font-size="13" font-weight="bold" lengthAdjust="spacing" textLength="14" x="69.5" y="1599.1729">32</text><text fill="#000000" font-family="sans-serif" font-size="13" lengthAdjust="spacing" textLength="97" x="87.5" y="1599.1729">Input the content</text><polygon fill="#181818" points="1518,1631.7266,1528,1635.7266,1518,1639.7266,1522,1635.7266" style="stroke:#181818;stroke-width:1.0;"/><line style="stroke:#181818;stroke-width:1.0;" x1="600" x2="1524" y1="1635.7266" y2="1635.7266"/><text fill="#000000" font-family="sans-serif" font-size="13" font-weight="bold" lengthAdjust="spacing" textLength="14" x="607" y="1630.4639">33</text><text fill="#000000" font-family="sans-serif" font-size="13" lengthAdjust="spacing" textLength="885" x="625" y="1630.4639">addPosts(sharedBoard,cell,new Post(null,new Notification(null, TypeOfNotification.from("SharedBoard")),new Description(content),TypeOfPost.TEXT,null));</text><polygon fill="#181818" points="1814.5,1663.0176,1824.5,1667.0176,1814.5,1671.0176,1818.5,1667.0176" style="stroke:#181818;stroke-width:1.0;"/><line style="stroke:#181818;stroke-width:1.0;" x1="1540" x2="1820.5" y1="1667.0176" y2="1667.0176"/><text fill="#000000" font-family="sans-serif" font-size="13" font-weight="bold" lengthAdjust="spacing" textLength="14" x="1547" y="1661.7549">34</text><text fill="#000000" font-family="sans-serif" font-size="13" lengthAdjust="spacing" textLength="202" x="1565" y="1661.7549">addNewSharedBoard(sharedBoard)</text><polygon fill="#181818" points="2203,1694.3086,2213,1698.3086,2203,1702.3086,2207,1698.3086" style="stroke:#181818;stroke-width:1.0;"/><line style="stroke:#181818;stroke-width:1.0;" x1="1836.5" x2="2209" y1="1698.3086" y2="1698.3086"/><text fill="#000000" font-family="sans-serif" font-size="13" font-weight="bold" lengthAdjust="spacing" textLength="14" x="1843.5" y="1693.0459">35</text><text fill="#000000" font-family="sans-serif" font-size="13" lengthAdjust="spacing" textLength="105" x="1861.5" y="1693.0459">save(sharedboard)</text><polygon fill="#181818" points="68.5,1762.5996,58.5,1766.5996,68.5,1770.5996,64.5,1766.5996" style="stroke:#181818;stroke-width:1.0;"/><line style="stroke:#181818;stroke-width:1.0;stroke-dasharray:2.0,2.0;" x1="62.5" x2="589" y1="1766.5996" y2="1766.5996"/><text fill="#000000" font-family="sans-serif" font-size="13" font-weight="bold" lengthAdjust="spacing" textLength="14" x="74.5" y="1761.3369">36</text><text fill="#000000" font-family="sans-serif" font-size="13" lengthAdjust="spacing" textLength="210" x="92.5" y="1761.3369">informs the success of the operation</text><!--SRC=[xLTBSzis4BxpLw0wfEICGzyPoJEAhNHqQ9gnv9bSOH8oCIK95W3jkB- -km18WY_9zQIt-Y3ZiTy-i1zsmLzphMkLN5_N1QrqKnPnAifhnVvgM9MoZncdJvAMGK0RBQgcV6GIngaMaZIAIK8LMJt0O1K4DPMQfxm6DMILuA9wsAzGek5alQubKwpIL7DHtToCfBy9fGyvbIpxBAZCjYbA6ImrGy3JkYvu-YQuCwlCoiF-ad4FUIigBKLHG42e8UscbnoGuiGBjWXt-nUqU8uSc7pcARDnsF7RN9W1liMuPngHZsQmNcUYf1nbCwhf8rLiwEKzguNYG8PNOqzsKu3sao7SURC8xRqTQ43IyMUgcU5T41ZsVRn1RYLag_vKH0i2yfhmYb2NUnk71-K1o0FAiIeXx0TB6yt2g1UoUu4J0U6EHmd9n24NBo2TiR6yjm9ckd4B3cYXILZRu3ORfPiC21a5dN8mDELBGj96IX34wzGkRaXui72t4f4dvak4S5dplsF5b0BFmYY6RVZ5LG0X0S0YY8UHsmfO0RdflTCGIyxaUxqxMlZFywu2KXQwFzI9Ay7KEKpSaFy9Ek8cNwGexnmfG-IIHu0XB1Xf0RrJiYRanAlCpJw_6lT7MYSWdp5dDqV-U3lJS_0Jvl7MPS1SMkMJlQFd0h2Y9QPqckVOgOJCQN7GabTFuH9VG8-vY0eq0MnR567qQIwRNXgz_4tXNWaAfubhCpPCrGKjd-OoDP-YcTpC9sLXjH2Y9k49MgXVTMt9RPsC0W9_2qavCBt-rXVl6-9LSWpFgC04UK8AGqITlNLlrzS01dnzrXDRlVhbk3v3WnXU3xHG8P8d8Xy- -FgCMqoMtDt-NpQadyRtk-sTDNWc_APZSaopB3JHkk3QIe7_CT11gYvG7Hpp6T5RYPQgkKrLpDMkhFKhrAjHqh0zAKF_OywL7MU2AL89JNBeUjOUSS5qTUuz105RhJ45BSgryFC7qVPGxn1kSo6WCeyRvnlExfR1jLQzlv4D0wC8SO-a-9CGJoHsCAn87SbGhDqum8iDUZFPR4WtZR_SxtQE8sV2HpNpb3WJjG6TfqoVKtXq46XPHB_MZ8YJUNpyksCUGXT8TWIPFqxumettlsz_svsj3AXeNz8drfxeHESIGzjeQgfp8pJZzRwg6psKMYpuS3FHP-LJuWhFzwfYBmItmgfniwz2yvDxbzfL6xI_7f-WOuShxqAieiYWxvXA9QyD65t0PzNL-DIkK6tagiHSKSRrfUu3iNnbBtvn6F1yUD2k8PZ3MUX3YZupf-9nHeNNQN1zlWUDTdopyrrd36W9OPz-tdaTTz-F5qbsP3_qkpdcidIPPhxWVyGqyZEfXaVtFzCMcUOgyMmrvHLqYbAPjAicJU7h02iZJaND91r_OtLQ_UykysNu3m00]--></g></svg>