<?xml version="1.0" encoding="us-ascii" standalone="no"?><svg xmlns="http://www.w3.org/2000/svg" xmlns:xlink="http://www.w3.org/1999/xlink" contentStyleType="text/css" height="779px" preserveAspectRatio="none" style="width:558px;height:779px;background:#FFFFFF;" version="1.1" viewBox="0 0 558 779" width="558px" zoomAndPan="magnify"><defs/><g><!--entity SharedBoardRepository--><g id="elem_SharedBoardRepository"><path d="M36.5,725 C36.5,715 122.5,715 122.5,715 C122.5,715 208.5,715 208.5,725 L208.5,752.6211 C208.5,762.6211 122.5,762.6211 122.5,762.6211 C122.5,762.6211 36.5,762.6211 36.5,752.6211 L36.5,725 " fill="#F1F1F1" style="stroke:#181818;stroke-width:0.5;"/><path d="M36.5,725 C36.5,735 122.5,735 122.5,735 C122.5,735 208.5,735 208.5,725 " fill="none" style="stroke:#181818;stroke-width:0.5;"/><text fill="#000000" font-family="sans-serif" font-size="14" lengthAdjust="spacing" textLength="152" x="46.5" y="754.1074">SharedBoardRepository</text></g><!--class UndoPostItUI--><g id="elem_UndoPostItUI"><rect codeLine="3" fill="#F1F1F1" height="48" id="UndoPostItUI" rx="2.5" ry="2.5" style="stroke:#181818;stroke-width:0.5;" width="112" x="261.5" y="7"/><ellipse cx="276.5" cy="23" fill="#ADD1B2" rx="11" ry="11" style="stroke:#181818;stroke-width:1.0;"/><path d="M279.2656,18.875 Q279.4219,18.6563 279.6094,18.5469 Q279.7969,18.4375 280.0156,18.4375 Q280.3906,18.4375 280.625,18.7031 Q280.8594,18.9531 280.8594,19.5625 L280.8594,21.0156 Q280.8594,21.625 280.625,21.8906 Q280.3906,22.1563 280.0156,22.1563 Q279.6719,22.1563 279.4688,21.9531 Q279.2656,21.7656 279.1563,21.25 Q279.1094,20.8906 278.9219,20.7031 Q278.5938,20.3281 277.9844,20.1094 Q277.375,19.8906 276.75,19.8906 Q275.9844,19.8906 275.3438,20.2188 Q274.7188,20.5469 274.2188,21.2969 Q273.7344,22.0469 273.7344,23.0781 L273.7344,24.1719 Q273.7344,25.4063 274.625,26.2344 Q275.5156,27.0469 277.1094,27.0469 Q278.0469,27.0469 278.7031,26.7969 Q279.0938,26.6406 279.5156,26.2031 Q279.7813,25.9375 279.9219,25.8594 Q280.0781,25.7813 280.2813,25.7813 Q280.6094,25.7813 280.8594,26.0469 Q281.125,26.2969 281.125,26.6406 Q281.125,26.9844 280.7813,27.3906 Q280.2813,27.9688 279.4844,28.2969 Q278.4063,28.75 277.1094,28.75 Q275.5938,28.75 274.3906,28.125 Q273.4063,27.625 272.7188,26.5625 Q272.0313,25.4844 272.0313,24.2031 L272.0313,23.0469 Q272.0313,21.7188 272.6406,20.5781 Q273.2656,19.4219 274.3594,18.8125 Q275.4531,18.1875 276.6875,18.1875 Q277.4219,18.1875 278.0625,18.3594 Q278.7188,18.5156 279.2656,18.875 Z " fill="#000000"/><text fill="#000000" font-family="sans-serif" font-size="14" lengthAdjust="spacing" textLength="80" x="290.5" y="28.7969">UndoPostItUI</text><line style="stroke:#181818;stroke-width:0.5;" x1="262.5" x2="372.5" y1="39" y2="39"/><line style="stroke:#181818;stroke-width:0.5;" x1="262.5" x2="372.5" y1="47" y2="47"/></g><!--class SharedBoardController--><g id="elem_SharedBoardController"><rect codeLine="6" fill="#F1F1F1" height="103.8633" id="SharedBoardController" rx="2.5" ry="2.5" style="stroke:#181818;stroke-width:0.5;" width="178" x="228.5" y="115"/><ellipse cx="243.5" cy="131" fill="#ADD1B2" rx="11" ry="11" style="stroke:#181818;stroke-width:1.0;"/><path d="M246.2656,126.875 Q246.4219,126.6563 246.6094,126.5469 Q246.7969,126.4375 247.0156,126.4375 Q247.3906,126.4375 247.625,126.7031 Q247.8594,126.9531 247.8594,127.5625 L247.8594,129.0156 Q247.8594,129.625 247.625,129.8906 Q247.3906,130.1563 247.0156,130.1563 Q246.6719,130.1563 246.4688,129.9531 Q246.2656,129.7656 246.1563,129.25 Q246.1094,128.8906 245.9219,128.7031 Q245.5938,128.3281 244.9844,128.1094 Q244.375,127.8906 243.75,127.8906 Q242.9844,127.8906 242.3438,128.2188 Q241.7188,128.5469 241.2188,129.2969 Q240.7344,130.0469 240.7344,131.0781 L240.7344,132.1719 Q240.7344,133.4063 241.625,134.2344 Q242.5156,135.0469 244.1094,135.0469 Q245.0469,135.0469 245.7031,134.7969 Q246.0938,134.6406 246.5156,134.2031 Q246.7813,133.9375 246.9219,133.8594 Q247.0781,133.7813 247.2813,133.7813 Q247.6094,133.7813 247.8594,134.0469 Q248.125,134.2969 248.125,134.6406 Q248.125,134.9844 247.7813,135.3906 Q247.2813,135.9688 246.4844,136.2969 Q245.4063,136.75 244.1094,136.75 Q242.5938,136.75 241.3906,136.125 Q240.4063,135.625 239.7188,134.5625 Q239.0313,133.4844 239.0313,132.2031 L239.0313,131.0469 Q239.0313,129.7188 239.6406,128.5781 Q240.2656,127.4219 241.3594,126.8125 Q242.4531,126.1875 243.6875,126.1875 Q244.4219,126.1875 245.0625,126.3594 Q245.7188,126.5156 246.2656,126.875 Z " fill="#000000"/><text fill="#000000" font-family="sans-serif" font-size="14" lengthAdjust="spacing" textLength="146" x="257.5" y="136.7969">SharedBoardController</text><line style="stroke:#181818;stroke-width:0.5;" x1="229.5" x2="405.5" y1="147" y2="147"/><line style="stroke:#181818;stroke-width:0.5;" x1="229.5" x2="405.5" y1="155" y2="155"/><ellipse cx="239.5" cy="169.8105" fill="#84BE84" rx="3" ry="3" style="stroke:#038048;stroke-width:1.0;"/><text fill="#000000" font-family="sans-serif" font-size="14" lengthAdjust="spacing" textLength="118" x="248.5" y="174.1074">addSharedBoard()</text><ellipse cx="239.5" cy="188.4316" fill="#84BE84" rx="3" ry="3" style="stroke:#038048;stroke-width:1.0;"/><text fill="#000000" font-family="sans-serif" font-size="14" lengthAdjust="spacing" textLength="124" x="248.5" y="192.7285">saveSharedBoard()</text><ellipse cx="239.5" cy="207.0527" fill="#84BE84" rx="3" ry="3" style="stroke:#038048;stroke-width:1.0;"/><text fill="#000000" font-family="sans-serif" font-size="14" lengthAdjust="spacing" textLength="45" x="248.5" y="211.3496">getAll()</text></g><!--class SharedBoardService--><g id="elem_SharedBoardService"><rect codeLine="12" fill="#F1F1F1" height="66.6211" id="SharedBoardService" rx="2.5" ry="2.5" style="stroke:#181818;stroke-width:0.5;" width="163" x="41" y="588"/><ellipse cx="56" cy="604" fill="#ADD1B2" rx="11" ry="11" style="stroke:#181818;stroke-width:1.0;"/><path d="M58.7656,599.875 Q58.9219,599.6563 59.1094,599.5469 Q59.2969,599.4375 59.5156,599.4375 Q59.8906,599.4375 60.125,599.7031 Q60.3594,599.9531 60.3594,600.5625 L60.3594,602.0156 Q60.3594,602.625 60.125,602.8906 Q59.8906,603.1563 59.5156,603.1563 Q59.1719,603.1563 58.9688,602.9531 Q58.7656,602.7656 58.6563,602.25 Q58.6094,601.8906 58.4219,601.7031 Q58.0938,601.3281 57.4844,601.1094 Q56.875,600.8906 56.25,600.8906 Q55.4844,600.8906 54.8438,601.2188 Q54.2188,601.5469 53.7188,602.2969 Q53.2344,603.0469 53.2344,604.0781 L53.2344,605.1719 Q53.2344,606.4063 54.125,607.2344 Q55.0156,608.0469 56.6094,608.0469 Q57.5469,608.0469 58.2031,607.7969 Q58.5938,607.6406 59.0156,607.2031 Q59.2813,606.9375 59.4219,606.8594 Q59.5781,606.7813 59.7813,606.7813 Q60.1094,606.7813 60.3594,607.0469 Q60.625,607.2969 60.625,607.6406 Q60.625,607.9844 60.2813,608.3906 Q59.7813,608.9688 58.9844,609.2969 Q57.9063,609.75 56.6094,609.75 Q55.0938,609.75 53.8906,609.125 Q52.9063,608.625 52.2188,607.5625 Q51.5313,606.4844 51.5313,605.2031 L51.5313,604.0469 Q51.5313,602.7188 52.1406,601.5781 Q52.7656,600.4219 53.8594,599.8125 Q54.9531,599.1875 56.1875,599.1875 Q56.9219,599.1875 57.5625,599.3594 Q58.2188,599.5156 58.7656,599.875 Z " fill="#000000"/><text fill="#000000" font-family="sans-serif" font-size="14" lengthAdjust="spacing" textLength="131" x="70" y="609.7969">SharedBoardService</text><line style="stroke:#181818;stroke-width:0.5;" x1="42" x2="203" y1="620" y2="620"/><line style="stroke:#181818;stroke-width:0.5;" x1="42" x2="203" y1="628" y2="628"/><ellipse cx="52" cy="642.8105" fill="#84BE84" rx="3" ry="3" style="stroke:#038048;stroke-width:1.0;"/><text fill="#000000" font-family="sans-serif" font-size="14" lengthAdjust="spacing" textLength="129" x="61" y="647.1074">getAllSharedBoard()</text></g><!--class PersistenceContext--><g id="elem_PersistenceContext"><rect codeLine="17" fill="#F1F1F1" height="66.6211" id="PersistenceContext" rx="2.5" ry="2.5" style="stroke:#181818;stroke-width:0.5;" width="154" x="45.5" y="288"/><ellipse cx="60.5" cy="304" fill="#ADD1B2" rx="11" ry="11" style="stroke:#181818;stroke-width:1.0;"/><path d="M63.2656,299.875 Q63.4219,299.6563 63.6094,299.5469 Q63.7969,299.4375 64.0156,299.4375 Q64.3906,299.4375 64.625,299.7031 Q64.8594,299.9531 64.8594,300.5625 L64.8594,302.0156 Q64.8594,302.625 64.625,302.8906 Q64.3906,303.1563 64.0156,303.1563 Q63.6719,303.1563 63.4688,302.9531 Q63.2656,302.7656 63.1563,302.25 Q63.1094,301.8906 62.9219,301.7031 Q62.5938,301.3281 61.9844,301.1094 Q61.375,300.8906 60.75,300.8906 Q59.9844,300.8906 59.3438,301.2188 Q58.7188,301.5469 58.2188,302.2969 Q57.7344,303.0469 57.7344,304.0781 L57.7344,305.1719 Q57.7344,306.4063 58.625,307.2344 Q59.5156,308.0469 61.1094,308.0469 Q62.0469,308.0469 62.7031,307.7969 Q63.0938,307.6406 63.5156,307.2031 Q63.7813,306.9375 63.9219,306.8594 Q64.0781,306.7813 64.2813,306.7813 Q64.6094,306.7813 64.8594,307.0469 Q65.125,307.2969 65.125,307.6406 Q65.125,307.9844 64.7813,308.3906 Q64.2813,308.9688 63.4844,309.2969 Q62.4063,309.75 61.1094,309.75 Q59.5938,309.75 58.3906,309.125 Q57.4063,308.625 56.7188,307.5625 Q56.0313,306.4844 56.0313,305.2031 L56.0313,304.0469 Q56.0313,302.7188 56.6406,301.5781 Q57.2656,300.4219 58.3594,299.8125 Q59.4531,299.1875 60.6875,299.1875 Q61.4219,299.1875 62.0625,299.3594 Q62.7188,299.5156 63.2656,299.875 Z " fill="#000000"/><text fill="#000000" font-family="sans-serif" font-size="14" lengthAdjust="spacing" textLength="122" x="74.5" y="309.7969">PersistenceContext</text><line style="stroke:#181818;stroke-width:0.5;" x1="46.5" x2="198.5" y1="320" y2="320"/><line style="stroke:#181818;stroke-width:0.5;" x1="46.5" x2="198.5" y1="328" y2="328"/><ellipse cx="56.5" cy="342.8105" fill="#84BE84" rx="3" ry="3" style="stroke:#038048;stroke-width:1.0;"/><text fill="#000000" font-family="sans-serif" font-size="14" lengthAdjust="spacing" textLength="84" x="65.5" y="347.1074">repositories()</text></g><!--class RepositoryFactory--><g id="elem_RepositoryFactory"><rect codeLine="21" fill="#F1F1F1" height="103.8633" id="RepositoryFactory" rx="2.5" ry="2.5" style="stroke:#181818;stroke-width:0.5;" width="231" x="7" y="424"/><ellipse cx="60.25" cy="440" fill="#ADD1B2" rx="11" ry="11" style="stroke:#181818;stroke-width:1.0;"/><path d="M63.0156,435.875 Q63.1719,435.6563 63.3594,435.5469 Q63.5469,435.4375 63.7656,435.4375 Q64.1406,435.4375 64.375,435.7031 Q64.6094,435.9531 64.6094,436.5625 L64.6094,438.0156 Q64.6094,438.625 64.375,438.8906 Q64.1406,439.1563 63.7656,439.1563 Q63.4219,439.1563 63.2188,438.9531 Q63.0156,438.7656 62.9063,438.25 Q62.8594,437.8906 62.6719,437.7031 Q62.3438,437.3281 61.7344,437.1094 Q61.125,436.8906 60.5,436.8906 Q59.7344,436.8906 59.0938,437.2188 Q58.4688,437.5469 57.9688,438.2969 Q57.4844,439.0469 57.4844,440.0781 L57.4844,441.1719 Q57.4844,442.4063 58.375,443.2344 Q59.2656,444.0469 60.8594,444.0469 Q61.7969,444.0469 62.4531,443.7969 Q62.8438,443.6406 63.2656,443.2031 Q63.5313,442.9375 63.6719,442.8594 Q63.8281,442.7813 64.0313,442.7813 Q64.3594,442.7813 64.6094,443.0469 Q64.875,443.2969 64.875,443.6406 Q64.875,443.9844 64.5313,444.3906 Q64.0313,444.9688 63.2344,445.2969 Q62.1563,445.75 60.8594,445.75 Q59.3438,445.75 58.1406,445.125 Q57.1563,444.625 56.4688,443.5625 Q55.7813,442.4844 55.7813,441.2031 L55.7813,440.0469 Q55.7813,438.7188 56.3906,437.5781 Q57.0156,436.4219 58.1094,435.8125 Q59.2031,435.1875 60.4375,435.1875 Q61.1719,435.1875 61.8125,435.3594 Q62.4688,435.5156 63.0156,435.875 Z " fill="#000000"/><text fill="#000000" font-family="sans-serif" font-size="14" lengthAdjust="spacing" textLength="116" x="80.75" y="445.7969">RepositoryFactory</text><line style="stroke:#181818;stroke-width:0.5;" x1="8" x2="237" y1="456" y2="456"/><line style="stroke:#181818;stroke-width:0.5;" x1="8" x2="237" y1="464" y2="464"/><ellipse cx="18" cy="478.8105" fill="#84BE84" rx="3" ry="3" style="stroke:#038048;stroke-width:1.0;"/><text fill="#000000" font-family="sans-serif" font-size="14" lengthAdjust="spacing" textLength="50" x="27" y="483.1074">create()</text><ellipse cx="18" cy="497.4316" fill="#84BE84" rx="3" ry="3" style="stroke:#038048;stroke-width:1.0;"/><text fill="#000000" font-family="sans-serif" font-size="14" lengthAdjust="spacing" textLength="169" x="27" y="501.7285">newTransactionalContext()</text><ellipse cx="18" cy="516.0527" fill="#84BE84" rx="3" ry="3" style="stroke:#038048;stroke-width:1.0;"/><text fill="#000000" font-family="sans-serif" font-size="14" lengthAdjust="spacing" textLength="205" x="27" y="520.3496">create(TransactionalContext ctx)</text></g><!--class TransactionalContext--><g id="elem_TransactionalContext"><rect codeLine="30" fill="#F1F1F1" height="85.2422" id="TransactionalContext" rx="2.5" ry="2.5" style="stroke:#181818;stroke-width:0.5;" width="166" x="234.5" y="279"/><ellipse cx="249.5" cy="295" fill="#ADD1B2" rx="11" ry="11" style="stroke:#181818;stroke-width:1.0;"/><path d="M252.2656,290.875 Q252.4219,290.6563 252.6094,290.5469 Q252.7969,290.4375 253.0156,290.4375 Q253.3906,290.4375 253.625,290.7031 Q253.8594,290.9531 253.8594,291.5625 L253.8594,293.0156 Q253.8594,293.625 253.625,293.8906 Q253.3906,294.1563 253.0156,294.1563 Q252.6719,294.1563 252.4688,293.9531 Q252.2656,293.7656 252.1563,293.25 Q252.1094,292.8906 251.9219,292.7031 Q251.5938,292.3281 250.9844,292.1094 Q250.375,291.8906 249.75,291.8906 Q248.9844,291.8906 248.3438,292.2188 Q247.7188,292.5469 247.2188,293.2969 Q246.7344,294.0469 246.7344,295.0781 L246.7344,296.1719 Q246.7344,297.4063 247.625,298.2344 Q248.5156,299.0469 250.1094,299.0469 Q251.0469,299.0469 251.7031,298.7969 Q252.0938,298.6406 252.5156,298.2031 Q252.7813,297.9375 252.9219,297.8594 Q253.0781,297.7813 253.2813,297.7813 Q253.6094,297.7813 253.8594,298.0469 Q254.125,298.2969 254.125,298.6406 Q254.125,298.9844 253.7813,299.3906 Q253.2813,299.9688 252.4844,300.2969 Q251.4063,300.75 250.1094,300.75 Q248.5938,300.75 247.3906,300.125 Q246.4063,299.625 245.7188,298.5625 Q245.0313,297.4844 245.0313,296.2031 L245.0313,295.0469 Q245.0313,293.7188 245.6406,292.5781 Q246.2656,291.4219 247.3594,290.8125 Q248.4531,290.1875 249.6875,290.1875 Q250.4219,290.1875 251.0625,290.3594 Q251.7188,290.5156 252.2656,290.875 Z " fill="#000000"/><text fill="#000000" font-family="sans-serif" font-size="14" lengthAdjust="spacing" textLength="134" x="263.5" y="300.7969">TransactionalContext</text><line style="stroke:#181818;stroke-width:0.5;" x1="235.5" x2="399.5" y1="311" y2="311"/><line style="stroke:#181818;stroke-width:0.5;" x1="235.5" x2="399.5" y1="319" y2="319"/><ellipse cx="245.5" cy="333.8105" fill="#84BE84" rx="3" ry="3" style="stroke:#038048;stroke-width:1.0;"/><text fill="#000000" font-family="sans-serif" font-size="14" lengthAdjust="spacing" textLength="120" x="254.5" y="338.1074">beginTransaction()</text><ellipse cx="245.5" cy="352.4316" fill="#84BE84" rx="3" ry="3" style="stroke:#038048;stroke-width:1.0;"/><text fill="#000000" font-family="sans-serif" font-size="14" lengthAdjust="spacing" textLength="54" x="254.5" y="356.7285">commit()</text></g><!--class SharedBoard--><g id="elem_SharedBoard"><rect codeLine="35" fill="#F1F1F1" height="48" id="SharedBoard" rx="2.5" ry="2.5" style="stroke:#181818;stroke-width:0.5;" width="116" x="435.5" y="297.5"/><ellipse cx="450.5" cy="313.5" fill="#ADD1B2" rx="11" ry="11" style="stroke:#181818;stroke-width:1.0;"/><path d="M453.2656,309.375 Q453.4219,309.1563 453.6094,309.0469 Q453.7969,308.9375 454.0156,308.9375 Q454.3906,308.9375 454.625,309.2031 Q454.8594,309.4531 454.8594,310.0625 L454.8594,311.5156 Q454.8594,312.125 454.625,312.3906 Q454.3906,312.6563 454.0156,312.6563 Q453.6719,312.6563 453.4688,312.4531 Q453.2656,312.2656 453.1563,311.75 Q453.1094,311.3906 452.9219,311.2031 Q452.5938,310.8281 451.9844,310.6094 Q451.375,310.3906 450.75,310.3906 Q449.9844,310.3906 449.3438,310.7188 Q448.7188,311.0469 448.2188,311.7969 Q447.7344,312.5469 447.7344,313.5781 L447.7344,314.6719 Q447.7344,315.9063 448.625,316.7344 Q449.5156,317.5469 451.1094,317.5469 Q452.0469,317.5469 452.7031,317.2969 Q453.0938,317.1406 453.5156,316.7031 Q453.7813,316.4375 453.9219,316.3594 Q454.0781,316.2813 454.2813,316.2813 Q454.6094,316.2813 454.8594,316.5469 Q455.125,316.7969 455.125,317.1406 Q455.125,317.4844 454.7813,317.8906 Q454.2813,318.4688 453.4844,318.7969 Q452.4063,319.25 451.1094,319.25 Q449.5938,319.25 448.3906,318.625 Q447.4063,318.125 446.7188,317.0625 Q446.0313,315.9844 446.0313,314.7031 L446.0313,313.5469 Q446.0313,312.2188 446.6406,311.0781 Q447.2656,309.9219 448.3594,309.3125 Q449.4531,308.6875 450.6875,308.6875 Q451.4219,308.6875 452.0625,308.8594 Q452.7188,309.0156 453.2656,309.375 Z " fill="#000000"/><text fill="#000000" font-family="sans-serif" font-size="14" lengthAdjust="spacing" textLength="84" x="464.5" y="319.2969">SharedBoard</text><line style="stroke:#181818;stroke-width:0.5;" x1="436.5" x2="550.5" y1="329.5" y2="329.5"/><line style="stroke:#181818;stroke-width:0.5;" x1="436.5" x2="550.5" y1="337.5" y2="337.5"/></g><!--link UndoPostItUI to SharedBoardController--><g id="link_UndoPostItUI_SharedBoardController"><path codeLine="39" d="M317.5,55.04 C317.5,70.08 317.5,90.43 317.5,109.59 " fill="none" id="UndoPostItUI-to-SharedBoardController" style="stroke:#181818;stroke-width:1.0;"/><polygon fill="#181818" points="317.5,114.96,321.5,105.96,317.5,109.96,313.5,105.96,317.5,114.96" style="stroke:#181818;stroke-width:1.0;"/></g><!--link SharedBoardController to PersistenceContext--><g id="link_SharedBoardController_PersistenceContext"><path codeLine="40" d="M252.03,219.2 C224.51,240.72 193.16,265.24 168.2,284.76 " fill="none" id="SharedBoardController-to-PersistenceContext" style="stroke:#181818;stroke-width:1.0;"/><polygon fill="#181818" points="164.25,287.85,173.8028,285.4532,168.1875,284.7685,168.8723,279.1532,164.25,287.85" style="stroke:#181818;stroke-width:1.0;"/></g><!--link SharedBoardController to TransactionalContext--><g id="link_SharedBoardController_TransactionalContext"><path codeLine="41" d="M317.5,219.2 C317.5,236.77 317.5,256.33 317.5,273.54 " fill="none" id="SharedBoardController-to-TransactionalContext" style="stroke:#181818;stroke-width:1.0;"/><polygon fill="#181818" points="317.5,278.8,321.5,269.8,317.5,273.8,313.5,269.8,317.5,278.8" style="stroke:#181818;stroke-width:1.0;"/></g><!--link SharedBoardService to SharedBoardRepository--><g id="link_SharedBoardService_SharedBoardRepository"><path codeLine="43" d="M122.5,655.29 C122.5,672.31 122.5,692.9 122.5,709.29 " fill="none" id="SharedBoardService-to-SharedBoardRepository" style="stroke:#181818;stroke-width:1.0;"/><polygon fill="#181818" points="122.5,714.67,126.5,705.67,122.5,709.67,118.5,705.67,122.5,714.67" style="stroke:#181818;stroke-width:1.0;"/></g><!--link SharedBoardController to SharedBoard--><g id="link_SharedBoardController_SharedBoard"><path codeLine="44" d="M376.6,219.2 C405.48,244.23 439.04,273.31 462.78,293.88 " fill="none" id="SharedBoardController-to-SharedBoard" style="stroke:#181818;stroke-width:1.0;"/><polygon fill="#181818" points="466.79,297.36,462.5957,288.4489,463.0068,294.0908,457.365,294.5019,466.79,297.36" style="stroke:#181818;stroke-width:1.0;"/></g><!--link PersistenceContext to RepositoryFactory--><g id="link_PersistenceContext_RepositoryFactory"><path codeLine="46" d="M122.5,355.22 C122.5,373.69 122.5,397.29 122.5,418.65 " fill="none" id="PersistenceContext-to-RepositoryFactory" style="stroke:#181818;stroke-width:1.0;"/><polygon fill="#181818" points="122.5,423.74,126.5,414.74,122.5,418.74,118.5,414.74,122.5,423.74" style="stroke:#181818;stroke-width:1.0;"/></g><!--link RepositoryFactory to SharedBoardService--><g id="link_RepositoryFactory_SharedBoardService"><path codeLine="48" d="M122.5,528.4 C122.5,546.33 122.5,566.11 122.5,582.72 " fill="none" id="RepositoryFactory-to-SharedBoardService" style="stroke:#181818;stroke-width:1.0;"/><polygon fill="#181818" points="122.5,587.77,126.5,578.77,122.5,582.77,118.5,578.77,122.5,587.77" style="stroke:#181818;stroke-width:1.0;"/></g><!--SRC=[TL71JiCm3BtxAte3D9NUEI014j9k4sCVu2LM5obDAiUCeOf_9wrQBJJPASbxpyylzjr9f0zFJTDRTFBLsKVbkqPP3A7M1bl63c1wLWUd_Su7sSfXEy3l0kzFoAHVFR9-yqxOMqiym0QrJgZx1zW4FDCAQabUh8stajsU-6mK3OliVssic4jsnC448QTeJ40NYILClGz6F1iAgV_7Wl-yengFg5LCA3JcSVJzoUX2f8ntQ6U_aPf59RfISfbQQ1GyOg3q5zU6oT1ABZ78aLhZ4cxgwxlEo8qHJPQGRgQgw-VoJg28Hda-lvlIKcw0V6Vh5DSXbAtNUe0yL9HaomF8e2ZBy_m1]--></g></svg>