<?xml version="1.0" encoding="us-ascii" standalone="no"?><svg xmlns="http://www.w3.org/2000/svg" xmlns:xlink="http://www.w3.org/1999/xlink" contentStyleType="text/css" height="658px" preserveAspectRatio="none" style="width:3063px;height:658px;background:#FFFFFF;" version="1.1" viewBox="0 0 3063 658" width="3063px" zoomAndPan="magnify"><defs/><g><text fill="#000000" font-family="sans-serif" font-size="14" font-weight="bold" lengthAdjust="spacing" textLength="156" x="1446.5" y="25.1074">Domain Driven Design</text><!--cluster <<aggregate>> Exam--><g id="cluster_&lt;&lt;aggregate&gt;&gt; Exam"><path d="M1176.5,173.1348 L1306.5,173.1348 A3.75,3.75 0 0 1 1309,175.6348 L1316,197.7559 L1843.5,197.7559 A2.5,2.5 0 0 1 1846,200.2559 L1846,649.1348 A2.5,2.5 0 0 1 1843.5,651.6348 L1176.5,651.6348 A2.5,2.5 0 0 1 1174,649.1348 L1174,175.6348 A2.5,2.5 0 0 1 1176.5,173.1348 " fill="#BBBBAA" style="stroke:#000000;stroke-width:1.5;"/><line style="stroke:#000000;stroke-width:1.5;" x1="1174" x2="1316" y1="197.7559" y2="197.7559"/><text fill="#000000" font-family="sans-serif" font-size="14" font-weight="bold" lengthAdjust="spacing" textLength="129" x="1178" y="190.2422">&#171;aggregate&#187; Exam</text></g><!--cluster <<aggregate>> Question--><g id="cluster_&lt;&lt;aggregate&gt;&gt; Question"><path d="M1872.5,45.6348 L2029.5,45.6348 A3.75,3.75 0 0 1 2032,48.1348 L2039,70.2559 L3053.5,70.2559 A2.5,2.5 0 0 1 3056,72.7559 L3056,399.1348 A2.5,2.5 0 0 1 3053.5,401.6348 L1872.5,401.6348 A2.5,2.5 0 0 1 1870,399.1348 L1870,48.1348 A2.5,2.5 0 0 1 1872.5,45.6348 " fill="#CCCCCC" style="stroke:#000000;stroke-width:1.5;"/><line style="stroke:#000000;stroke-width:1.5;" x1="1870" x2="2039" y1="70.2559" y2="70.2559"/><text fill="#000000" font-family="sans-serif" font-size="14" font-weight="bold" lengthAdjust="spacing" textLength="156" x="1874" y="62.7422">&#171;aggregate&#187; Question</text></g><!--cluster <<aggregate>> Course--><g id="cluster_&lt;&lt;aggregate&gt;&gt; Course"><path d="M8.5,158.6348 L152.5,158.6348 A3.75,3.75 0 0 1 155,161.1348 L162,183.2559 L1147.5,183.2559 A2.5,2.5 0 0 1 1150,185.7559 L1150,407.1348 A2.5,2.5 0 0 1 1147.5,409.6348 L8.5,409.6348 A2.5,2.5 0 0 1 6,407.1348 L6,161.1348 A2.5,2.5 0 0 1 8.5,158.6348 " fill="#AABBBB" style="stroke:#000000;stroke-width:1.5;"/><line style="stroke:#000000;stroke-width:1.5;" x1="6" x2="162" y1="183.2559" y2="183.2559"/><text fill="#000000" font-family="sans-serif" font-size="14" font-weight="bold" lengthAdjust="spacing" textLength="143" x="10" y="175.7422">&#171;aggregate&#187; Course</text></g><!--class Exam--><g id="elem_Exam"><rect codeLine="11" fill="#F1F1F1" height="68.543" id="Exam" rx="2.5" ry="2.5" style="stroke:#181818;stroke-width:0.5;" width="71" x="1467.5" y="324.6348"/><ellipse cx="1482.5" cy="354.9063" fill="#ADD1B2" rx="11" ry="11" style="stroke:#181818;stroke-width:1.0;"/><path d="M1481.3594,355.7031 L1481.3594,358.2031 L1485.6875,358.2031 L1485.6875,357.2813 Q1485.6875,356.6719 1485.9219,356.4063 Q1486.1719,356.1406 1486.5469,356.1406 Q1486.9219,356.1406 1487.1563,356.4063 Q1487.3906,356.6719 1487.3906,357.2813 L1487.3906,359.9063 L1479.3906,359.9063 Q1478.7656,359.9063 1478.5,359.6719 Q1478.25,359.4375 1478.25,359.0469 Q1478.25,358.6719 1478.5156,358.4375 Q1478.7813,358.2031 1479.3906,358.2031 L1479.6563,358.2031 L1479.6563,351.5469 L1479.3906,351.5469 Q1478.7656,351.5469 1478.5,351.3125 Q1478.25,351.0781 1478.25,350.6875 Q1478.25,350.3125 1478.5,350.0781 Q1478.7656,349.8438 1479.3906,349.8438 L1487.0156,349.8438 L1487.0156,352.4375 Q1487.0156,353.0469 1486.7813,353.3125 Q1486.5625,353.5625 1486.1719,353.5625 Q1485.7969,353.5625 1485.5625,353.3125 Q1485.3281,353.0469 1485.3281,352.4375 L1485.3281,351.5469 L1481.3594,351.5469 L1481.3594,354 L1482.8438,354 Q1482.8438,353.3438 1482.9688,353.1563 Q1483.2344,352.75 1483.7031,352.75 Q1484.0781,352.75 1484.3125,353.0156 Q1484.5469,353.2656 1484.5469,353.875 L1484.5469,355.8438 Q1484.5469,356.3906 1484.4219,356.5781 Q1484.1563,356.9688 1483.7031,356.9688 Q1483.2344,356.9688 1482.9688,356.5625 Q1482.8438,356.375 1482.8438,355.7031 L1481.3594,355.7031 Z " fill="#000000"/><text fill="#000000" font-family="sans-serif" font-size="12" font-style="italic" lengthAdjust="spacing" textLength="35" x="1498.5" y="342.584">&#171;root&#187;</text><text fill="#000000" font-family="sans-serif" font-size="12" font-style="italic" lengthAdjust="spacing" textLength="43" x="1494.5" y="358.5449">&#171;entity&#187;</text><text fill="#000000" font-family="sans-serif" font-size="14" lengthAdjust="spacing" textLength="34" x="1499" y="376.6641">Exam</text><line style="stroke:#181818;stroke-width:0.5;" x1="1468.5" x2="1537.5" y1="385.1777" y2="385.1777"/></g><!--class ExamTitle--><g id="elem_ExamTitle"><rect codeLine="13" fill="#F1F1F1" height="68.543" id="ExamTitle" rx="2.5" ry="2.5" style="stroke:#181818;stroke-width:0.5;" width="109" x="1190.5" y="453.6348"/><ellipse cx="1205.5" cy="483.9063" fill="#B8255F" rx="11" ry="11" style="stroke:#181818;stroke-width:1.0;"/><path d="M1206.0938,487.1719 L1208.5625,481.2969 L1208.1719,481.2969 Q1207.5625,481.2969 1207.2969,481.0625 Q1207.0313,480.8281 1207.0313,480.4375 Q1207.0313,480.0625 1207.2969,479.8281 Q1207.5625,479.5938 1208.1719,479.5938 L1210.4531,479.5938 Q1211.0625,479.5938 1211.3281,479.8281 Q1211.5938,480.0625 1211.5938,480.4375 Q1211.5938,480.9063 1211.1875,481.1719 Q1211,481.2969 1210.4063,481.2969 L1206.9219,489.6563 L1205.2813,489.6563 L1201.7969,481.2969 Q1201.2031,481.2969 1201.0156,481.1719 Q1200.6094,480.9063 1200.6094,480.4375 Q1200.6094,480.0625 1200.875,479.8281 Q1201.1406,479.5938 1201.75,479.5938 L1204.0469,479.5938 Q1204.6563,479.5938 1204.9063,479.8281 Q1205.1719,480.0625 1205.1719,480.4375 Q1205.1719,480.8281 1204.9063,481.0625 Q1204.6563,481.2969 1204.0469,481.2969 L1203.6406,481.2969 L1206.0938,487.1719 Z " fill="#000000"/><text fill="#000000" font-family="sans-serif" font-size="12" font-style="italic" lengthAdjust="spacing" textLength="81" x="1217.5" y="471.584">&#171;value object&#187;</text><text fill="#000000" font-family="sans-serif" font-size="12" font-style="italic" lengthAdjust="spacing" textLength="52" x="1232" y="487.5449">&#171;unique&#187;</text><text fill="#000000" font-family="sans-serif" font-size="14" lengthAdjust="spacing" textLength="27" x="1244.5" y="505.6641">Title</text><line style="stroke:#181818;stroke-width:0.5;" x1="1191.5" x2="1298.5" y1="514.1777" y2="514.1777"/></g><!--class Section--><g id="elem_Section"><rect codeLine="14" fill="#F1F1F1" height="52.582" id="Section" rx="2.5" ry="2.5" style="stroke:#181818;stroke-width:0.5;" width="79" x="1736.5" y="461.6348"/><ellipse cx="1751.5" cy="483.9258" fill="#ADD1B2" rx="11" ry="11" style="stroke:#181818;stroke-width:1.0;"/><path d="M1754.2656,479.8008 Q1754.4219,479.582 1754.6094,479.4727 Q1754.7969,479.3633 1755.0156,479.3633 Q1755.3906,479.3633 1755.625,479.6289 Q1755.8594,479.8789 1755.8594,480.4883 L1755.8594,481.9414 Q1755.8594,482.5508 1755.625,482.8164 Q1755.3906,483.082 1755.0156,483.082 Q1754.6719,483.082 1754.4688,482.8789 Q1754.2656,482.6914 1754.1563,482.1758 Q1754.1094,481.8164 1753.9219,481.6289 Q1753.5938,481.2539 1752.9844,481.0352 Q1752.375,480.8164 1751.75,480.8164 Q1750.9844,480.8164 1750.3438,481.1445 Q1749.7188,481.4727 1749.2188,482.2227 Q1748.7344,482.9727 1748.7344,484.0039 L1748.7344,485.0977 Q1748.7344,486.332 1749.625,487.1602 Q1750.5156,487.9727 1752.1094,487.9727 Q1753.0469,487.9727 1753.7031,487.7227 Q1754.0938,487.5664 1754.5156,487.1289 Q1754.7813,486.8633 1754.9219,486.7852 Q1755.0781,486.707 1755.2813,486.707 Q1755.6094,486.707 1755.8594,486.9727 Q1756.125,487.2227 1756.125,487.5664 Q1756.125,487.9102 1755.7813,488.3164 Q1755.2813,488.8945 1754.4844,489.2227 Q1753.4063,489.6758 1752.1094,489.6758 Q1750.5938,489.6758 1749.3906,489.0508 Q1748.4063,488.5508 1747.7188,487.4883 Q1747.0313,486.4102 1747.0313,485.1289 L1747.0313,483.9727 Q1747.0313,482.6445 1747.6406,481.5039 Q1748.2656,480.3477 1749.3594,479.7383 Q1750.4531,479.1133 1751.6875,479.1133 Q1752.4219,479.1133 1753.0625,479.2852 Q1753.7188,479.4414 1754.2656,479.8008 Z " fill="#000000"/><text fill="#000000" font-family="sans-serif" font-size="12" font-style="italic" lengthAdjust="spacing" textLength="43" x="1767.5" y="479.584">&#171;entity&#187;</text><text fill="#000000" font-family="sans-serif" font-size="14" lengthAdjust="spacing" textLength="47" x="1765.5" y="497.7031">Section</text><line style="stroke:#181818;stroke-width:0.5;" x1="1737.5" x2="1814.5" y1="506.2168" y2="506.2168"/></g><!--class Header--><g id="elem_Header"><rect codeLine="15" fill="#F1F1F1" height="52.582" id="Header" rx="2.5" ry="2.5" style="stroke:#181818;stroke-width:0.5;" width="78" x="1335" y="461.6348"/><ellipse cx="1350" cy="483.9258" fill="#ADD1B2" rx="11" ry="11" style="stroke:#181818;stroke-width:1.0;"/><path d="M1352.7656,479.8008 Q1352.9219,479.582 1353.1094,479.4727 Q1353.2969,479.3633 1353.5156,479.3633 Q1353.8906,479.3633 1354.125,479.6289 Q1354.3594,479.8789 1354.3594,480.4883 L1354.3594,481.9414 Q1354.3594,482.5508 1354.125,482.8164 Q1353.8906,483.082 1353.5156,483.082 Q1353.1719,483.082 1352.9688,482.8789 Q1352.7656,482.6914 1352.6563,482.1758 Q1352.6094,481.8164 1352.4219,481.6289 Q1352.0938,481.2539 1351.4844,481.0352 Q1350.875,480.8164 1350.25,480.8164 Q1349.4844,480.8164 1348.8438,481.1445 Q1348.2188,481.4727 1347.7188,482.2227 Q1347.2344,482.9727 1347.2344,484.0039 L1347.2344,485.0977 Q1347.2344,486.332 1348.125,487.1602 Q1349.0156,487.9727 1350.6094,487.9727 Q1351.5469,487.9727 1352.2031,487.7227 Q1352.5938,487.5664 1353.0156,487.1289 Q1353.2813,486.8633 1353.4219,486.7852 Q1353.5781,486.707 1353.7813,486.707 Q1354.1094,486.707 1354.3594,486.9727 Q1354.625,487.2227 1354.625,487.5664 Q1354.625,487.9102 1354.2813,488.3164 Q1353.7813,488.8945 1352.9844,489.2227 Q1351.9063,489.6758 1350.6094,489.6758 Q1349.0938,489.6758 1347.8906,489.0508 Q1346.9063,488.5508 1346.2188,487.4883 Q1345.5313,486.4102 1345.5313,485.1289 L1345.5313,483.9727 Q1345.5313,482.6445 1346.1406,481.5039 Q1346.7656,480.3477 1347.8594,479.7383 Q1348.9531,479.1133 1350.1875,479.1133 Q1350.9219,479.1133 1351.5625,479.2852 Q1352.2188,479.4414 1352.7656,479.8008 Z " fill="#000000"/><text fill="#000000" font-family="sans-serif" font-size="12" font-style="italic" lengthAdjust="spacing" textLength="43" x="1365.5" y="479.584">&#171;entity&#187;</text><text fill="#000000" font-family="sans-serif" font-size="14" lengthAdjust="spacing" textLength="46" x="1364" y="497.7031">Header</text><line style="stroke:#181818;stroke-width:0.5;" x1="1336" x2="1412" y1="506.2168" y2="506.2168"/></g><!--class TextualDescription--><g id="elem_TextualDescription"><rect codeLine="16" fill="#F1F1F1" height="52.582" id="TextualDescription" rx="2.5" ry="2.5" style="stroke:#181818;stroke-width:0.5;" width="149" x="1680.5" y="582.6348"/><ellipse cx="1695.5" cy="604.9258" fill="#B8255F" rx="11" ry="11" style="stroke:#181818;stroke-width:1.0;"/><path d="M1696.0938,608.1914 L1698.5625,602.3164 L1698.1719,602.3164 Q1697.5625,602.3164 1697.2969,602.082 Q1697.0313,601.8477 1697.0313,601.457 Q1697.0313,601.082 1697.2969,600.8477 Q1697.5625,600.6133 1698.1719,600.6133 L1700.4531,600.6133 Q1701.0625,600.6133 1701.3281,600.8477 Q1701.5938,601.082 1701.5938,601.457 Q1701.5938,601.9258 1701.1875,602.1914 Q1701,602.3164 1700.4063,602.3164 L1696.9219,610.6758 L1695.2813,610.6758 L1691.7969,602.3164 Q1691.2031,602.3164 1691.0156,602.1914 Q1690.6094,601.9258 1690.6094,601.457 Q1690.6094,601.082 1690.875,600.8477 Q1691.1406,600.6133 1691.75,600.6133 L1694.0469,600.6133 Q1694.6563,600.6133 1694.9063,600.8477 Q1695.1719,601.082 1695.1719,601.457 Q1695.1719,601.8477 1694.9063,602.082 Q1694.6563,602.3164 1694.0469,602.3164 L1693.6406,602.3164 L1696.0938,608.1914 Z " fill="#000000"/><text fill="#000000" font-family="sans-serif" font-size="12" font-style="italic" lengthAdjust="spacing" textLength="81" x="1727.5" y="600.584">&#171;value object&#187;</text><text fill="#000000" font-family="sans-serif" font-size="14" lengthAdjust="spacing" textLength="117" x="1709.5" y="618.7031">TextualDescription</text><line style="stroke:#181818;stroke-width:0.5;" x1="1681.5" x2="1828.5" y1="627.2168" y2="627.2168"/></g><!--class OpenDate--><g id="elem_OpenDate"><rect codeLine="17" fill="#F1F1F1" height="52.582" id="OpenDate" rx="2.5" ry="2.5" style="stroke:#181818;stroke-width:0.5;" width="109" x="1448.5" y="461.6348"/><ellipse cx="1463.5" cy="483.9258" fill="#B8255F" rx="11" ry="11" style="stroke:#181818;stroke-width:1.0;"/><path d="M1464.0938,487.1914 L1466.5625,481.3164 L1466.1719,481.3164 Q1465.5625,481.3164 1465.2969,481.082 Q1465.0313,480.8477 1465.0313,480.457 Q1465.0313,480.082 1465.2969,479.8477 Q1465.5625,479.6133 1466.1719,479.6133 L1468.4531,479.6133 Q1469.0625,479.6133 1469.3281,479.8477 Q1469.5938,480.082 1469.5938,480.457 Q1469.5938,480.9258 1469.1875,481.1914 Q1469,481.3164 1468.4063,481.3164 L1464.9219,489.6758 L1463.2813,489.6758 L1459.7969,481.3164 Q1459.2031,481.3164 1459.0156,481.1914 Q1458.6094,480.9258 1458.6094,480.457 Q1458.6094,480.082 1458.875,479.8477 Q1459.1406,479.6133 1459.75,479.6133 L1462.0469,479.6133 Q1462.6563,479.6133 1462.9063,479.8477 Q1463.1719,480.082 1463.1719,480.457 Q1463.1719,480.8477 1462.9063,481.082 Q1462.6563,481.3164 1462.0469,481.3164 L1461.6406,481.3164 L1464.0938,487.1914 Z " fill="#000000"/><text fill="#000000" font-family="sans-serif" font-size="12" font-style="italic" lengthAdjust="spacing" textLength="81" x="1475.5" y="479.584">&#171;value object&#187;</text><text fill="#000000" font-family="sans-serif" font-size="14" lengthAdjust="spacing" textLength="65" x="1483.5" y="497.7031">OpenDate</text><line style="stroke:#181818;stroke-width:0.5;" x1="1449.5" x2="1556.5" y1="506.2168" y2="506.2168"/></g><!--class CloseDate--><g id="elem_CloseDate"><rect codeLine="18" fill="#F1F1F1" height="52.582" id="CloseDate" rx="2.5" ry="2.5" style="stroke:#181818;stroke-width:0.5;" width="109" x="1592.5" y="461.6348"/><ellipse cx="1607.5" cy="483.9258" fill="#B8255F" rx="11" ry="11" style="stroke:#181818;stroke-width:1.0;"/><path d="M1608.0938,487.1914 L1610.5625,481.3164 L1610.1719,481.3164 Q1609.5625,481.3164 1609.2969,481.082 Q1609.0313,480.8477 1609.0313,480.457 Q1609.0313,480.082 1609.2969,479.8477 Q1609.5625,479.6133 1610.1719,479.6133 L1612.4531,479.6133 Q1613.0625,479.6133 1613.3281,479.8477 Q1613.5938,480.082 1613.5938,480.457 Q1613.5938,480.9258 1613.1875,481.1914 Q1613,481.3164 1612.4063,481.3164 L1608.9219,489.6758 L1607.2813,489.6758 L1603.7969,481.3164 Q1603.2031,481.3164 1603.0156,481.1914 Q1602.6094,480.9258 1602.6094,480.457 Q1602.6094,480.082 1602.875,479.8477 Q1603.1406,479.6133 1603.75,479.6133 L1606.0469,479.6133 Q1606.6563,479.6133 1606.9063,479.8477 Q1607.1719,480.082 1607.1719,480.457 Q1607.1719,480.8477 1606.9063,481.082 Q1606.6563,481.3164 1606.0469,481.3164 L1605.6406,481.3164 L1608.0938,487.1914 Z " fill="#000000"/><text fill="#000000" font-family="sans-serif" font-size="12" font-style="italic" lengthAdjust="spacing" textLength="81" x="1619.5" y="479.584">&#171;value object&#187;</text><text fill="#000000" font-family="sans-serif" font-size="14" lengthAdjust="spacing" textLength="66" x="1627" y="497.7031">CloseDate</text><line style="stroke:#181818;stroke-width:0.5;" x1="1593.5" x2="1700.5" y1="506.2168" y2="506.2168"/></g><!--class ExamDescription--><g id="elem_ExamDescription"><rect codeLine="19" fill="#F1F1F1" height="52.582" id="ExamDescription" rx="2.5" ry="2.5" style="stroke:#181818;stroke-width:0.5;" width="137" x="1190.5" y="582.6348"/><ellipse cx="1205.5" cy="604.9258" fill="#B8255F" rx="11" ry="11" style="stroke:#181818;stroke-width:1.0;"/><path d="M1206.0938,608.1914 L1208.5625,602.3164 L1208.1719,602.3164 Q1207.5625,602.3164 1207.2969,602.082 Q1207.0313,601.8477 1207.0313,601.457 Q1207.0313,601.082 1207.2969,600.8477 Q1207.5625,600.6133 1208.1719,600.6133 L1210.4531,600.6133 Q1211.0625,600.6133 1211.3281,600.8477 Q1211.5938,601.082 1211.5938,601.457 Q1211.5938,601.9258 1211.1875,602.1914 Q1211,602.3164 1210.4063,602.3164 L1206.9219,610.6758 L1205.2813,610.6758 L1201.7969,602.3164 Q1201.2031,602.3164 1201.0156,602.1914 Q1200.6094,601.9258 1200.6094,601.457 Q1200.6094,601.082 1200.875,600.8477 Q1201.1406,600.6133 1201.75,600.6133 L1204.0469,600.6133 Q1204.6563,600.6133 1204.9063,600.8477 Q1205.1719,601.082 1205.1719,601.457 Q1205.1719,601.8477 1204.9063,602.082 Q1204.6563,602.3164 1204.0469,602.3164 L1203.6406,602.3164 L1206.0938,608.1914 Z " fill="#000000"/><text fill="#000000" font-family="sans-serif" font-size="12" font-style="italic" lengthAdjust="spacing" textLength="81" x="1231.5" y="600.584">&#171;value object&#187;</text><text fill="#000000" font-family="sans-serif" font-size="14" lengthAdjust="spacing" textLength="105" x="1219.5" y="618.7031">ExamDescription</text><line style="stroke:#181818;stroke-width:0.5;" x1="1191.5" x2="1326.5" y1="627.2168" y2="627.2168"/></g><!--class FeedbackExam--><g id="elem_FeedbackExam"><rect codeLine="20" fill="#F1F1F1" height="52.582" id="FeedbackExam" rx="2.5" ry="2.5" style="stroke:#181818;stroke-width:0.5;" width="129" x="1362.5" y="582.6348"/><ellipse cx="1377.5" cy="604.9258" fill="#B8255F" rx="11" ry="11" style="stroke:#181818;stroke-width:1.0;"/><path d="M1378.0938,608.1914 L1380.5625,602.3164 L1380.1719,602.3164 Q1379.5625,602.3164 1379.2969,602.082 Q1379.0313,601.8477 1379.0313,601.457 Q1379.0313,601.082 1379.2969,600.8477 Q1379.5625,600.6133 1380.1719,600.6133 L1382.4531,600.6133 Q1383.0625,600.6133 1383.3281,600.8477 Q1383.5938,601.082 1383.5938,601.457 Q1383.5938,601.9258 1383.1875,602.1914 Q1383,602.3164 1382.4063,602.3164 L1378.9219,610.6758 L1377.2813,610.6758 L1373.7969,602.3164 Q1373.2031,602.3164 1373.0156,602.1914 Q1372.6094,601.9258 1372.6094,601.457 Q1372.6094,601.082 1372.875,600.8477 Q1373.1406,600.6133 1373.75,600.6133 L1376.0469,600.6133 Q1376.6563,600.6133 1376.9063,600.8477 Q1377.1719,601.082 1377.1719,601.457 Q1377.1719,601.8477 1376.9063,602.082 Q1376.6563,602.3164 1376.0469,602.3164 L1375.6406,602.3164 L1378.0938,608.1914 Z " fill="#000000"/><text fill="#000000" font-family="sans-serif" font-size="12" font-style="italic" lengthAdjust="spacing" textLength="81" x="1399.5" y="600.584">&#171;value object&#187;</text><text fill="#000000" font-family="sans-serif" font-size="14" lengthAdjust="spacing" textLength="97" x="1391.5" y="618.7031">FeedbackExam</text><line style="stroke:#181818;stroke-width:0.5;" x1="1363.5" x2="1490.5" y1="627.2168" y2="627.2168"/></g><!--class Difficulty--><g id="elem_Difficulty"><rect codeLine="21" fill="#F1F1F1" height="52.582" id="Difficulty" rx="2.5" ry="2.5" style="stroke:#181818;stroke-width:0.5;" width="109" x="1720.5" y="332.6348"/><ellipse cx="1735.5" cy="354.9258" fill="#B8255F" rx="11" ry="11" style="stroke:#181818;stroke-width:1.0;"/><path d="M1736.0938,358.1914 L1738.5625,352.3164 L1738.1719,352.3164 Q1737.5625,352.3164 1737.2969,352.082 Q1737.0313,351.8477 1737.0313,351.457 Q1737.0313,351.082 1737.2969,350.8477 Q1737.5625,350.6133 1738.1719,350.6133 L1740.4531,350.6133 Q1741.0625,350.6133 1741.3281,350.8477 Q1741.5938,351.082 1741.5938,351.457 Q1741.5938,351.9258 1741.1875,352.1914 Q1741,352.3164 1740.4063,352.3164 L1736.9219,360.6758 L1735.2813,360.6758 L1731.7969,352.3164 Q1731.2031,352.3164 1731.0156,352.1914 Q1730.6094,351.9258 1730.6094,351.457 Q1730.6094,351.082 1730.875,350.8477 Q1731.1406,350.6133 1731.75,350.6133 L1734.0469,350.6133 Q1734.6563,350.6133 1734.9063,350.8477 Q1735.1719,351.082 1735.1719,351.457 Q1735.1719,351.8477 1734.9063,352.082 Q1734.6563,352.3164 1734.0469,352.3164 L1733.6406,352.3164 L1736.0938,358.1914 Z " fill="#000000"/><text fill="#000000" font-family="sans-serif" font-size="12" font-style="italic" lengthAdjust="spacing" textLength="81" x="1747.5" y="350.584">&#171;value object&#187;</text><text fill="#000000" font-family="sans-serif" font-size="14" lengthAdjust="spacing" textLength="53" x="1761.5" y="368.7031">Difficulty</text><line style="stroke:#181818;stroke-width:0.5;" x1="1721.5" x2="1828.5" y1="377.2168" y2="377.2168"/></g><!--class TypeOfGrade--><g id="elem_TypeOfGrade"><rect codeLine="22" fill="#F1F1F1" height="52.582" id="TypeOfGrade" rx="2.5" ry="2.5" style="stroke:#181818;stroke-width:0.5;" width="119" x="1526.5" y="582.6348"/><ellipse cx="1541.5" cy="604.9258" fill="#B8255F" rx="11" ry="11" style="stroke:#181818;stroke-width:1.0;"/><path d="M1542.0938,608.1914 L1544.5625,602.3164 L1544.1719,602.3164 Q1543.5625,602.3164 1543.2969,602.082 Q1543.0313,601.8477 1543.0313,601.457 Q1543.0313,601.082 1543.2969,600.8477 Q1543.5625,600.6133 1544.1719,600.6133 L1546.4531,600.6133 Q1547.0625,600.6133 1547.3281,600.8477 Q1547.5938,601.082 1547.5938,601.457 Q1547.5938,601.9258 1547.1875,602.1914 Q1547,602.3164 1546.4063,602.3164 L1542.9219,610.6758 L1541.2813,610.6758 L1537.7969,602.3164 Q1537.2031,602.3164 1537.0156,602.1914 Q1536.6094,601.9258 1536.6094,601.457 Q1536.6094,601.082 1536.875,600.8477 Q1537.1406,600.6133 1537.75,600.6133 L1540.0469,600.6133 Q1540.6563,600.6133 1540.9063,600.8477 Q1541.1719,601.082 1541.1719,601.457 Q1541.1719,601.8477 1540.9063,602.082 Q1540.6563,602.3164 1540.0469,602.3164 L1539.6406,602.3164 L1542.0938,608.1914 Z " fill="#000000"/><text fill="#000000" font-family="sans-serif" font-size="12" font-style="italic" lengthAdjust="spacing" textLength="81" x="1558.5" y="600.584">&#171;value object&#187;</text><text fill="#000000" font-family="sans-serif" font-size="14" lengthAdjust="spacing" textLength="87" x="1555.5" y="618.7031">TypeOfGrade</text><line style="stroke:#181818;stroke-width:0.5;" x1="1527.5" x2="1644.5" y1="627.2168" y2="627.2168"/></g><!--class Course--><g id="elem_Course"><rect fill="#F1F1F1" height="40" id="Course" rx="2.5" ry="2.5" style="stroke:#181818;stroke-width:0.5;" width="78" x="1523" y="210.1348"/><ellipse cx="1538" cy="226.1348" fill="#ADD1B2" rx="11" ry="11" style="stroke:#181818;stroke-width:1.0;"/><path d="M1540.7656,222.0098 Q1540.9219,221.791 1541.1094,221.6816 Q1541.2969,221.5723 1541.5156,221.5723 Q1541.8906,221.5723 1542.125,221.8379 Q1542.3594,222.0879 1542.3594,222.6973 L1542.3594,224.1504 Q1542.3594,224.7598 1542.125,225.0254 Q1541.8906,225.291 1541.5156,225.291 Q1541.1719,225.291 1540.9688,225.0879 Q1540.7656,224.9004 1540.6563,224.3848 Q1540.6094,224.0254 1540.4219,223.8379 Q1540.0938,223.4629 1539.4844,223.2441 Q1538.875,223.0254 1538.25,223.0254 Q1537.4844,223.0254 1536.8438,223.3535 Q1536.2188,223.6816 1535.7188,224.4316 Q1535.2344,225.1816 1535.2344,226.2129 L1535.2344,227.3066 Q1535.2344,228.541 1536.125,229.3691 Q1537.0156,230.1816 1538.6094,230.1816 Q1539.5469,230.1816 1540.2031,229.9316 Q1540.5938,229.7754 1541.0156,229.3379 Q1541.2813,229.0723 1541.4219,228.9941 Q1541.5781,228.916 1541.7813,228.916 Q1542.1094,228.916 1542.3594,229.1816 Q1542.625,229.4316 1542.625,229.7754 Q1542.625,230.1191 1542.2813,230.5254 Q1541.7813,231.1035 1540.9844,231.4316 Q1539.9063,231.8848 1538.6094,231.8848 Q1537.0938,231.8848 1535.8906,231.2598 Q1534.9063,230.7598 1534.2188,229.6973 Q1533.5313,228.6191 1533.5313,227.3379 L1533.5313,226.1816 Q1533.5313,224.8535 1534.1406,223.7129 Q1534.7656,222.5566 1535.8594,221.9473 Q1536.9531,221.3223 1538.1875,221.3223 Q1538.9219,221.3223 1539.5625,221.4941 Q1540.2188,221.6504 1540.7656,222.0098 Z " fill="#000000"/><text fill="#000000" font-family="sans-serif" font-size="14" lengthAdjust="spacing" textLength="46" x="1552" y="231.9316">Course</text><line style="stroke:#181818;stroke-width:0.5;" x1="1524" x2="1600" y1="242.1348" y2="242.1348"/></g><!--class Teacher--><g id="elem_Teacher"><rect fill="#F1F1F1" height="40" id="Teacher" rx="2.5" ry="2.5" style="stroke:#181818;stroke-width:0.5;" width="85" x="1402.5" y="210.1348"/><ellipse cx="1417.5" cy="226.1348" fill="#ADD1B2" rx="11" ry="11" style="stroke:#181818;stroke-width:1.0;"/><path d="M1420.2656,222.0098 Q1420.4219,221.791 1420.6094,221.6816 Q1420.7969,221.5723 1421.0156,221.5723 Q1421.3906,221.5723 1421.625,221.8379 Q1421.8594,222.0879 1421.8594,222.6973 L1421.8594,224.1504 Q1421.8594,224.7598 1421.625,225.0254 Q1421.3906,225.291 1421.0156,225.291 Q1420.6719,225.291 1420.4688,225.0879 Q1420.2656,224.9004 1420.1563,224.3848 Q1420.1094,224.0254 1419.9219,223.8379 Q1419.5938,223.4629 1418.9844,223.2441 Q1418.375,223.0254 1417.75,223.0254 Q1416.9844,223.0254 1416.3438,223.3535 Q1415.7188,223.6816 1415.2188,224.4316 Q1414.7344,225.1816 1414.7344,226.2129 L1414.7344,227.3066 Q1414.7344,228.541 1415.625,229.3691 Q1416.5156,230.1816 1418.1094,230.1816 Q1419.0469,230.1816 1419.7031,229.9316 Q1420.0938,229.7754 1420.5156,229.3379 Q1420.7813,229.0723 1420.9219,228.9941 Q1421.0781,228.916 1421.2813,228.916 Q1421.6094,228.916 1421.8594,229.1816 Q1422.125,229.4316 1422.125,229.7754 Q1422.125,230.1191 1421.7813,230.5254 Q1421.2813,231.1035 1420.4844,231.4316 Q1419.4063,231.8848 1418.1094,231.8848 Q1416.5938,231.8848 1415.3906,231.2598 Q1414.4063,230.7598 1413.7188,229.6973 Q1413.0313,228.6191 1413.0313,227.3379 L1413.0313,226.1816 Q1413.0313,224.8535 1413.6406,223.7129 Q1414.2656,222.5566 1415.3594,221.9473 Q1416.4531,221.3223 1417.6875,221.3223 Q1418.4219,221.3223 1419.0625,221.4941 Q1419.7188,221.6504 1420.2656,222.0098 Z " fill="#000000"/><text fill="#000000" font-family="sans-serif" font-size="14" lengthAdjust="spacing" textLength="53" x="1431.5" y="231.9316">Teacher</text><line style="stroke:#181818;stroke-width:0.5;" x1="1403.5" x2="1486.5" y1="242.1348" y2="242.1348"/></g><!--class Question--><g id="elem_Question"><rect codeLine="41" fill="#F1F1F1" height="68.543" id="Question" rx="2.5" ry="2.5" style="stroke:#181818;stroke-width:0.5;" width="89" x="2318.5" y="195.6348"/><ellipse cx="2333.5" cy="225.9063" fill="#ADD1B2" rx="11" ry="11" style="stroke:#181818;stroke-width:1.0;"/><path d="M2332.3594,226.7031 L2332.3594,229.2031 L2336.6875,229.2031 L2336.6875,228.2813 Q2336.6875,227.6719 2336.9219,227.4063 Q2337.1719,227.1406 2337.5469,227.1406 Q2337.9219,227.1406 2338.1563,227.4063 Q2338.3906,227.6719 2338.3906,228.2813 L2338.3906,230.9063 L2330.3906,230.9063 Q2329.7656,230.9063 2329.5,230.6719 Q2329.25,230.4375 2329.25,230.0469 Q2329.25,229.6719 2329.5156,229.4375 Q2329.7813,229.2031 2330.3906,229.2031 L2330.6563,229.2031 L2330.6563,222.5469 L2330.3906,222.5469 Q2329.7656,222.5469 2329.5,222.3125 Q2329.25,222.0781 2329.25,221.6875 Q2329.25,221.3125 2329.5,221.0781 Q2329.7656,220.8438 2330.3906,220.8438 L2338.0156,220.8438 L2338.0156,223.4375 Q2338.0156,224.0469 2337.7813,224.3125 Q2337.5625,224.5625 2337.1719,224.5625 Q2336.7969,224.5625 2336.5625,224.3125 Q2336.3281,224.0469 2336.3281,223.4375 L2336.3281,222.5469 L2332.3594,222.5469 L2332.3594,225 L2333.8438,225 Q2333.8438,224.3438 2333.9688,224.1563 Q2334.2344,223.75 2334.7031,223.75 Q2335.0781,223.75 2335.3125,224.0156 Q2335.5469,224.2656 2335.5469,224.875 L2335.5469,226.8438 Q2335.5469,227.3906 2335.4219,227.5781 Q2335.1563,227.9688 2334.7031,227.9688 Q2334.2344,227.9688 2333.9688,227.5625 Q2333.8438,227.375 2333.8438,226.7031 L2332.3594,226.7031 Z " fill="#000000"/><text fill="#000000" font-family="sans-serif" font-size="12" font-style="italic" lengthAdjust="spacing" textLength="35" x="2358.5" y="213.584">&#171;root&#187;</text><text fill="#000000" font-family="sans-serif" font-size="12" font-style="italic" lengthAdjust="spacing" textLength="43" x="2354.5" y="229.5449">&#171;entity&#187;</text><text fill="#000000" font-family="sans-serif" font-size="14" lengthAdjust="spacing" textLength="57" x="2347.5" y="247.6641">Question</text><line style="stroke:#181818;stroke-width:0.5;" x1="2319.5" x2="2406.5" y1="256.1777" y2="256.1777"/></g><!--class QuestionDescription--><g id="elem_QuestionDescription"><rect codeLine="42" fill="#F1F1F1" height="52.582" id="QuestionDescription" rx="2.5" ry="2.5" style="stroke:#181818;stroke-width:0.5;" width="160" x="1969" y="332.6348"/><ellipse cx="1984" cy="354.9258" fill="#B8255F" rx="11" ry="11" style="stroke:#181818;stroke-width:1.0;"/><path d="M1984.5938,358.1914 L1987.0625,352.3164 L1986.6719,352.3164 Q1986.0625,352.3164 1985.7969,352.082 Q1985.5313,351.8477 1985.5313,351.457 Q1985.5313,351.082 1985.7969,350.8477 Q1986.0625,350.6133 1986.6719,350.6133 L1988.9531,350.6133 Q1989.5625,350.6133 1989.8281,350.8477 Q1990.0938,351.082 1990.0938,351.457 Q1990.0938,351.9258 1989.6875,352.1914 Q1989.5,352.3164 1988.9063,352.3164 L1985.4219,360.6758 L1983.7813,360.6758 L1980.2969,352.3164 Q1979.7031,352.3164 1979.5156,352.1914 Q1979.1094,351.9258 1979.1094,351.457 Q1979.1094,351.082 1979.375,350.8477 Q1979.6406,350.6133 1980.25,350.6133 L1982.5469,350.6133 Q1983.1563,350.6133 1983.4063,350.8477 Q1983.6719,351.082 1983.6719,351.457 Q1983.6719,351.8477 1983.4063,352.082 Q1983.1563,352.3164 1982.5469,352.3164 L1982.1406,352.3164 L1984.5938,358.1914 Z " fill="#000000"/><text fill="#000000" font-family="sans-serif" font-size="12" font-style="italic" lengthAdjust="spacing" textLength="81" x="2021.5" y="350.584">&#171;value object&#187;</text><text fill="#000000" font-family="sans-serif" font-size="14" lengthAdjust="spacing" textLength="128" x="1998" y="368.7031">QuestionDescription</text><line style="stroke:#181818;stroke-width:0.5;" x1="1970" x2="2128" y1="377.2168" y2="377.2168"/></g><!--class Feedback--><g id="elem_Feedback"><rect codeLine="43" fill="#F1F1F1" height="52.582" id="Feedback" rx="2.5" ry="2.5" style="stroke:#181818;stroke-width:0.5;" width="109" x="2164.5" y="332.6348"/><ellipse cx="2179.5" cy="354.9258" fill="#B8255F" rx="11" ry="11" style="stroke:#181818;stroke-width:1.0;"/><path d="M2180.0938,358.1914 L2182.5625,352.3164 L2182.1719,352.3164 Q2181.5625,352.3164 2181.2969,352.082 Q2181.0313,351.8477 2181.0313,351.457 Q2181.0313,351.082 2181.2969,350.8477 Q2181.5625,350.6133 2182.1719,350.6133 L2184.4531,350.6133 Q2185.0625,350.6133 2185.3281,350.8477 Q2185.5938,351.082 2185.5938,351.457 Q2185.5938,351.9258 2185.1875,352.1914 Q2185,352.3164 2184.4063,352.3164 L2180.9219,360.6758 L2179.2813,360.6758 L2175.7969,352.3164 Q2175.2031,352.3164 2175.0156,352.1914 Q2174.6094,351.9258 2174.6094,351.457 Q2174.6094,351.082 2174.875,350.8477 Q2175.1406,350.6133 2175.75,350.6133 L2178.0469,350.6133 Q2178.6563,350.6133 2178.9063,350.8477 Q2179.1719,351.082 2179.1719,351.457 Q2179.1719,351.8477 2178.9063,352.082 Q2178.6563,352.3164 2178.0469,352.3164 L2177.6406,352.3164 L2180.0938,358.1914 Z " fill="#000000"/><text fill="#000000" font-family="sans-serif" font-size="12" font-style="italic" lengthAdjust="spacing" textLength="81" x="2191.5" y="350.584">&#171;value object&#187;</text><text fill="#000000" font-family="sans-serif" font-size="14" lengthAdjust="spacing" textLength="63" x="2200.5" y="368.7031">Feedback</text><line style="stroke:#181818;stroke-width:0.5;" x1="2165.5" x2="2272.5" y1="377.2168" y2="377.2168"/></g><!--class Grade--><g id="elem_Grade"><rect codeLine="44" fill="#F1F1F1" height="52.582" id="Grade" rx="2.5" ry="2.5" style="stroke:#181818;stroke-width:0.5;" width="109" x="2308.5" y="332.6348"/><ellipse cx="2323.5" cy="354.9258" fill="#B8255F" rx="11" ry="11" style="stroke:#181818;stroke-width:1.0;"/><path d="M2324.0938,358.1914 L2326.5625,352.3164 L2326.1719,352.3164 Q2325.5625,352.3164 2325.2969,352.082 Q2325.0313,351.8477 2325.0313,351.457 Q2325.0313,351.082 2325.2969,350.8477 Q2325.5625,350.6133 2326.1719,350.6133 L2328.4531,350.6133 Q2329.0625,350.6133 2329.3281,350.8477 Q2329.5938,351.082 2329.5938,351.457 Q2329.5938,351.9258 2329.1875,352.1914 Q2329,352.3164 2328.4063,352.3164 L2324.9219,360.6758 L2323.2813,360.6758 L2319.7969,352.3164 Q2319.2031,352.3164 2319.0156,352.1914 Q2318.6094,351.9258 2318.6094,351.457 Q2318.6094,351.082 2318.875,350.8477 Q2319.1406,350.6133 2319.75,350.6133 L2322.0469,350.6133 Q2322.6563,350.6133 2322.9063,350.8477 Q2323.1719,351.082 2323.1719,351.457 Q2323.1719,351.8477 2322.9063,352.082 Q2322.6563,352.3164 2322.0469,352.3164 L2321.6406,352.3164 L2324.0938,358.1914 Z " fill="#000000"/><text fill="#000000" font-family="sans-serif" font-size="12" font-style="italic" lengthAdjust="spacing" textLength="81" x="2335.5" y="350.584">&#171;value object&#187;</text><text fill="#000000" font-family="sans-serif" font-size="14" lengthAdjust="spacing" textLength="40" x="2356" y="368.7031">Grade</text><line style="stroke:#181818;stroke-width:0.5;" x1="2309.5" x2="2416.5" y1="377.2168" y2="377.2168"/></g><!--class Answer--><g id="elem_Answer"><rect codeLine="45" fill="#F1F1F1" height="52.582" id="Answer" rx="2.5" ry="2.5" style="stroke:#181818;stroke-width:0.5;" width="109" x="2452.5" y="332.6348"/><ellipse cx="2467.5" cy="354.9258" fill="#B8255F" rx="11" ry="11" style="stroke:#181818;stroke-width:1.0;"/><path d="M2468.0938,358.1914 L2470.5625,352.3164 L2470.1719,352.3164 Q2469.5625,352.3164 2469.2969,352.082 Q2469.0313,351.8477 2469.0313,351.457 Q2469.0313,351.082 2469.2969,350.8477 Q2469.5625,350.6133 2470.1719,350.6133 L2472.4531,350.6133 Q2473.0625,350.6133 2473.3281,350.8477 Q2473.5938,351.082 2473.5938,351.457 Q2473.5938,351.9258 2473.1875,352.1914 Q2473,352.3164 2472.4063,352.3164 L2468.9219,360.6758 L2467.2813,360.6758 L2463.7969,352.3164 Q2463.2031,352.3164 2463.0156,352.1914 Q2462.6094,351.9258 2462.6094,351.457 Q2462.6094,351.082 2462.875,350.8477 Q2463.1406,350.6133 2463.75,350.6133 L2466.0469,350.6133 Q2466.6563,350.6133 2466.9063,350.8477 Q2467.1719,351.082 2467.1719,351.457 Q2467.1719,351.8477 2466.9063,352.082 Q2466.6563,352.3164 2466.0469,352.3164 L2465.6406,352.3164 L2468.0938,358.1914 Z " fill="#000000"/><text fill="#000000" font-family="sans-serif" font-size="12" font-style="italic" lengthAdjust="spacing" textLength="81" x="2479.5" y="350.584">&#171;value object&#187;</text><text fill="#000000" font-family="sans-serif" font-size="14" lengthAdjust="spacing" textLength="46" x="2497" y="368.7031">Answer</text><line style="stroke:#181818;stroke-width:0.5;" x1="2453.5" x2="2560.5" y1="377.2168" y2="377.2168"/></g><!--class Difficulty--><g id="elem_Difficulty"><rect codeLine="46" fill="#F1F1F1" height="52.582" id="Difficulty" rx="2.5" ry="2.5" style="stroke:#181818;stroke-width:0.5;" width="109" x="2596.5" y="332.6348"/><ellipse cx="2611.5" cy="354.9258" fill="#B8255F" rx="11" ry="11" style="stroke:#181818;stroke-width:1.0;"/><path d="M2612.0938,358.1914 L2614.5625,352.3164 L2614.1719,352.3164 Q2613.5625,352.3164 2613.2969,352.082 Q2613.0313,351.8477 2613.0313,351.457 Q2613.0313,351.082 2613.2969,350.8477 Q2613.5625,350.6133 2614.1719,350.6133 L2616.4531,350.6133 Q2617.0625,350.6133 2617.3281,350.8477 Q2617.5938,351.082 2617.5938,351.457 Q2617.5938,351.9258 2617.1875,352.1914 Q2617,352.3164 2616.4063,352.3164 L2612.9219,360.6758 L2611.2813,360.6758 L2607.7969,352.3164 Q2607.2031,352.3164 2607.0156,352.1914 Q2606.6094,351.9258 2606.6094,351.457 Q2606.6094,351.082 2606.875,350.8477 Q2607.1406,350.6133 2607.75,350.6133 L2610.0469,350.6133 Q2610.6563,350.6133 2610.9063,350.8477 Q2611.1719,351.082 2611.1719,351.457 Q2611.1719,351.8477 2610.9063,352.082 Q2610.6563,352.3164 2610.0469,352.3164 L2609.6406,352.3164 L2612.0938,358.1914 Z " fill="#000000"/><text fill="#000000" font-family="sans-serif" font-size="12" font-style="italic" lengthAdjust="spacing" textLength="81" x="2623.5" y="350.584">&#171;value object&#187;</text><text fill="#000000" font-family="sans-serif" font-size="14" lengthAdjust="spacing" textLength="53" x="2637.5" y="368.7031">Difficulty</text><line style="stroke:#181818;stroke-width:0.5;" x1="2597.5" x2="2704.5" y1="377.2168" y2="377.2168"/></g><!--class MatchingQuestion--><g id="elem_MatchingQuestion"><rect codeLine="47" fill="#F1F1F1" height="52.582" id="MatchingQuestion" rx="2.5" ry="2.5" style="stroke:#181818;stroke-width:0.5;" width="146" x="2894" y="82.6348"/><ellipse cx="2909" cy="104.9258" fill="#ADD1B2" rx="11" ry="11" style="stroke:#181818;stroke-width:1.0;"/><path d="M2911.7656,100.8008 Q2911.9219,100.582 2912.1094,100.4727 Q2912.2969,100.3633 2912.5156,100.3633 Q2912.8906,100.3633 2913.125,100.6289 Q2913.3594,100.8789 2913.3594,101.4883 L2913.3594,102.9414 Q2913.3594,103.5508 2913.125,103.8164 Q2912.8906,104.082 2912.5156,104.082 Q2912.1719,104.082 2911.9688,103.8789 Q2911.7656,103.6914 2911.6563,103.1758 Q2911.6094,102.8164 2911.4219,102.6289 Q2911.0938,102.2539 2910.4844,102.0352 Q2909.875,101.8164 2909.25,101.8164 Q2908.4844,101.8164 2907.8438,102.1445 Q2907.2188,102.4727 2906.7188,103.2227 Q2906.2344,103.9727 2906.2344,105.0039 L2906.2344,106.0977 Q2906.2344,107.332 2907.125,108.1602 Q2908.0156,108.9727 2909.6094,108.9727 Q2910.5469,108.9727 2911.2031,108.7227 Q2911.5938,108.5664 2912.0156,108.1289 Q2912.2813,107.8633 2912.4219,107.7852 Q2912.5781,107.707 2912.7813,107.707 Q2913.1094,107.707 2913.3594,107.9727 Q2913.625,108.2227 2913.625,108.5664 Q2913.625,108.9102 2913.2813,109.3164 Q2912.7813,109.8945 2911.9844,110.2227 Q2910.9063,110.6758 2909.6094,110.6758 Q2908.0938,110.6758 2906.8906,110.0508 Q2905.9063,109.5508 2905.2188,108.4883 Q2904.5313,107.4102 2904.5313,106.1289 L2904.5313,104.9727 Q2904.5313,103.6445 2905.1406,102.5039 Q2905.7656,101.3477 2906.8594,100.7383 Q2907.9531,100.1133 2909.1875,100.1133 Q2909.9219,100.1133 2910.5625,100.2852 Q2911.2188,100.4414 2911.7656,100.8008 Z " fill="#000000"/><text fill="#000000" font-family="sans-serif" font-size="12" font-style="italic" lengthAdjust="spacing" textLength="43" x="2958.5" y="100.584">&#171;entity&#187;</text><text fill="#000000" font-family="sans-serif" font-size="14" lengthAdjust="spacing" textLength="114" x="2923" y="118.7031">MatchingQuestion</text><line style="stroke:#181818;stroke-width:0.5;" x1="2895" x2="3039" y1="127.2168" y2="127.2168"/></g><!--class MultipleChoiceQuestion--><g id="elem_MultipleChoiceQuestion"><rect codeLine="48" fill="#F1F1F1" height="52.582" id="MultipleChoiceQuestion" rx="2.5" ry="2.5" style="stroke:#181818;stroke-width:0.5;" width="181" x="2677.5" y="82.6348"/><ellipse cx="2692.5" cy="104.9258" fill="#ADD1B2" rx="11" ry="11" style="stroke:#181818;stroke-width:1.0;"/><path d="M2695.2656,100.8008 Q2695.4219,100.582 2695.6094,100.4727 Q2695.7969,100.3633 2696.0156,100.3633 Q2696.3906,100.3633 2696.625,100.6289 Q2696.8594,100.8789 2696.8594,101.4883 L2696.8594,102.9414 Q2696.8594,103.5508 2696.625,103.8164 Q2696.3906,104.082 2696.0156,104.082 Q2695.6719,104.082 2695.4688,103.8789 Q2695.2656,103.6914 2695.1563,103.1758 Q2695.1094,102.8164 2694.9219,102.6289 Q2694.5938,102.2539 2693.9844,102.0352 Q2693.375,101.8164 2692.75,101.8164 Q2691.9844,101.8164 2691.3438,102.1445 Q2690.7188,102.4727 2690.2188,103.2227 Q2689.7344,103.9727 2689.7344,105.0039 L2689.7344,106.0977 Q2689.7344,107.332 2690.625,108.1602 Q2691.5156,108.9727 2693.1094,108.9727 Q2694.0469,108.9727 2694.7031,108.7227 Q2695.0938,108.5664 2695.5156,108.1289 Q2695.7813,107.8633 2695.9219,107.7852 Q2696.0781,107.707 2696.2813,107.707 Q2696.6094,107.707 2696.8594,107.9727 Q2697.125,108.2227 2697.125,108.5664 Q2697.125,108.9102 2696.7813,109.3164 Q2696.2813,109.8945 2695.4844,110.2227 Q2694.4063,110.6758 2693.1094,110.6758 Q2691.5938,110.6758 2690.3906,110.0508 Q2689.4063,109.5508 2688.7188,108.4883 Q2688.0313,107.4102 2688.0313,106.1289 L2688.0313,104.9727 Q2688.0313,103.6445 2688.6406,102.5039 Q2689.2656,101.3477 2690.3594,100.7383 Q2691.4531,100.1133 2692.6875,100.1133 Q2693.4219,100.1133 2694.0625,100.2852 Q2694.7188,100.4414 2695.2656,100.8008 Z " fill="#000000"/><text fill="#000000" font-family="sans-serif" font-size="12" font-style="italic" lengthAdjust="spacing" textLength="43" x="2759.5" y="100.584">&#171;entity&#187;</text><text fill="#000000" font-family="sans-serif" font-size="14" lengthAdjust="spacing" textLength="149" x="2706.5" y="118.7031">MultipleChoiceQuestion</text><line style="stroke:#181818;stroke-width:0.5;" x1="2678.5" x2="2857.5" y1="127.2168" y2="127.2168"/></g><!--class ShortAnswerQuestion--><g id="elem_ShortAnswerQuestion"><rect codeLine="49" fill="#F1F1F1" height="52.582" id="ShortAnswerQuestion" rx="2.5" ry="2.5" style="stroke:#181818;stroke-width:0.5;" width="169" x="2473.5" y="82.6348"/><ellipse cx="2488.5" cy="104.9258" fill="#ADD1B2" rx="11" ry="11" style="stroke:#181818;stroke-width:1.0;"/><path d="M2491.2656,100.8008 Q2491.4219,100.582 2491.6094,100.4727 Q2491.7969,100.3633 2492.0156,100.3633 Q2492.3906,100.3633 2492.625,100.6289 Q2492.8594,100.8789 2492.8594,101.4883 L2492.8594,102.9414 Q2492.8594,103.5508 2492.625,103.8164 Q2492.3906,104.082 2492.0156,104.082 Q2491.6719,104.082 2491.4688,103.8789 Q2491.2656,103.6914 2491.1563,103.1758 Q2491.1094,102.8164 2490.9219,102.6289 Q2490.5938,102.2539 2489.9844,102.0352 Q2489.375,101.8164 2488.75,101.8164 Q2487.9844,101.8164 2487.3438,102.1445 Q2486.7188,102.4727 2486.2188,103.2227 Q2485.7344,103.9727 2485.7344,105.0039 L2485.7344,106.0977 Q2485.7344,107.332 2486.625,108.1602 Q2487.5156,108.9727 2489.1094,108.9727 Q2490.0469,108.9727 2490.7031,108.7227 Q2491.0938,108.5664 2491.5156,108.1289 Q2491.7813,107.8633 2491.9219,107.7852 Q2492.0781,107.707 2492.2813,107.707 Q2492.6094,107.707 2492.8594,107.9727 Q2493.125,108.2227 2493.125,108.5664 Q2493.125,108.9102 2492.7813,109.3164 Q2492.2813,109.8945 2491.4844,110.2227 Q2490.4063,110.6758 2489.1094,110.6758 Q2487.5938,110.6758 2486.3906,110.0508 Q2485.4063,109.5508 2484.7188,108.4883 Q2484.0313,107.4102 2484.0313,106.1289 L2484.0313,104.9727 Q2484.0313,103.6445 2484.6406,102.5039 Q2485.2656,101.3477 2486.3594,100.7383 Q2487.4531,100.1133 2488.6875,100.1133 Q2489.4219,100.1133 2490.0625,100.2852 Q2490.7188,100.4414 2491.2656,100.8008 Z " fill="#000000"/><text fill="#000000" font-family="sans-serif" font-size="12" font-style="italic" lengthAdjust="spacing" textLength="43" x="2549.5" y="100.584">&#171;entity&#187;</text><text fill="#000000" font-family="sans-serif" font-size="14" lengthAdjust="spacing" textLength="137" x="2502.5" y="118.7031">ShortAnswerQuestion</text><line style="stroke:#181818;stroke-width:0.5;" x1="2474.5" x2="2641.5" y1="127.2168" y2="127.2168"/></g><!--class NumericalQuestion--><g id="elem_NumericalQuestion"><rect codeLine="50" fill="#F1F1F1" height="52.582" id="NumericalQuestion" rx="2.5" ry="2.5" style="stroke:#181818;stroke-width:0.5;" width="151" x="2287.5" y="82.6348"/><ellipse cx="2302.5" cy="104.9258" fill="#ADD1B2" rx="11" ry="11" style="stroke:#181818;stroke-width:1.0;"/><path d="M2305.2656,100.8008 Q2305.4219,100.582 2305.6094,100.4727 Q2305.7969,100.3633 2306.0156,100.3633 Q2306.3906,100.3633 2306.625,100.6289 Q2306.8594,100.8789 2306.8594,101.4883 L2306.8594,102.9414 Q2306.8594,103.5508 2306.625,103.8164 Q2306.3906,104.082 2306.0156,104.082 Q2305.6719,104.082 2305.4688,103.8789 Q2305.2656,103.6914 2305.1563,103.1758 Q2305.1094,102.8164 2304.9219,102.6289 Q2304.5938,102.2539 2303.9844,102.0352 Q2303.375,101.8164 2302.75,101.8164 Q2301.9844,101.8164 2301.3438,102.1445 Q2300.7188,102.4727 2300.2188,103.2227 Q2299.7344,103.9727 2299.7344,105.0039 L2299.7344,106.0977 Q2299.7344,107.332 2300.625,108.1602 Q2301.5156,108.9727 2303.1094,108.9727 Q2304.0469,108.9727 2304.7031,108.7227 Q2305.0938,108.5664 2305.5156,108.1289 Q2305.7813,107.8633 2305.9219,107.7852 Q2306.0781,107.707 2306.2813,107.707 Q2306.6094,107.707 2306.8594,107.9727 Q2307.125,108.2227 2307.125,108.5664 Q2307.125,108.9102 2306.7813,109.3164 Q2306.2813,109.8945 2305.4844,110.2227 Q2304.4063,110.6758 2303.1094,110.6758 Q2301.5938,110.6758 2300.3906,110.0508 Q2299.4063,109.5508 2298.7188,108.4883 Q2298.0313,107.4102 2298.0313,106.1289 L2298.0313,104.9727 Q2298.0313,103.6445 2298.6406,102.5039 Q2299.2656,101.3477 2300.3594,100.7383 Q2301.4531,100.1133 2302.6875,100.1133 Q2303.4219,100.1133 2304.0625,100.2852 Q2304.7188,100.4414 2305.2656,100.8008 Z " fill="#000000"/><text fill="#000000" font-family="sans-serif" font-size="12" font-style="italic" lengthAdjust="spacing" textLength="43" x="2354.5" y="100.584">&#171;entity&#187;</text><text fill="#000000" font-family="sans-serif" font-size="14" lengthAdjust="spacing" textLength="119" x="2316.5" y="118.7031">NumericalQuestion</text><line style="stroke:#181818;stroke-width:0.5;" x1="2288.5" x2="2437.5" y1="127.2168" y2="127.2168"/></g><!--class MissingWordsQuestion--><g id="elem_MissingWordsQuestion"><rect codeLine="51" fill="#F1F1F1" height="52.582" id="MissingWordsQuestion" rx="2.5" ry="2.5" style="stroke:#181818;stroke-width:0.5;" width="177" x="2075.5" y="82.6348"/><ellipse cx="2090.5" cy="104.9258" fill="#ADD1B2" rx="11" ry="11" style="stroke:#181818;stroke-width:1.0;"/><path d="M2093.2656,100.8008 Q2093.4219,100.582 2093.6094,100.4727 Q2093.7969,100.3633 2094.0156,100.3633 Q2094.3906,100.3633 2094.625,100.6289 Q2094.8594,100.8789 2094.8594,101.4883 L2094.8594,102.9414 Q2094.8594,103.5508 2094.625,103.8164 Q2094.3906,104.082 2094.0156,104.082 Q2093.6719,104.082 2093.4688,103.8789 Q2093.2656,103.6914 2093.1563,103.1758 Q2093.1094,102.8164 2092.9219,102.6289 Q2092.5938,102.2539 2091.9844,102.0352 Q2091.375,101.8164 2090.75,101.8164 Q2089.9844,101.8164 2089.3438,102.1445 Q2088.7188,102.4727 2088.2188,103.2227 Q2087.7344,103.9727 2087.7344,105.0039 L2087.7344,106.0977 Q2087.7344,107.332 2088.625,108.1602 Q2089.5156,108.9727 2091.1094,108.9727 Q2092.0469,108.9727 2092.7031,108.7227 Q2093.0938,108.5664 2093.5156,108.1289 Q2093.7813,107.8633 2093.9219,107.7852 Q2094.0781,107.707 2094.2813,107.707 Q2094.6094,107.707 2094.8594,107.9727 Q2095.125,108.2227 2095.125,108.5664 Q2095.125,108.9102 2094.7813,109.3164 Q2094.2813,109.8945 2093.4844,110.2227 Q2092.4063,110.6758 2091.1094,110.6758 Q2089.5938,110.6758 2088.3906,110.0508 Q2087.4063,109.5508 2086.7188,108.4883 Q2086.0313,107.4102 2086.0313,106.1289 L2086.0313,104.9727 Q2086.0313,103.6445 2086.6406,102.5039 Q2087.2656,101.3477 2088.3594,100.7383 Q2089.4531,100.1133 2090.6875,100.1133 Q2091.4219,100.1133 2092.0625,100.2852 Q2092.7188,100.4414 2093.2656,100.8008 Z " fill="#000000"/><text fill="#000000" font-family="sans-serif" font-size="12" font-style="italic" lengthAdjust="spacing" textLength="43" x="2155.5" y="100.584">&#171;entity&#187;</text><text fill="#000000" font-family="sans-serif" font-size="14" lengthAdjust="spacing" textLength="145" x="2104.5" y="118.7031">MissingWordsQuestion</text><line style="stroke:#181818;stroke-width:0.5;" x1="2076.5" x2="2251.5" y1="127.2168" y2="127.2168"/></g><!--class TrueFalseQuestion--><g id="elem_TrueFalseQuestion"><rect codeLine="52" fill="#F1F1F1" height="52.582" id="TrueFalseQuestion" rx="2.5" ry="2.5" style="stroke:#181818;stroke-width:0.5;" width="154" x="1886" y="82.6348"/><ellipse cx="1901" cy="104.9258" fill="#ADD1B2" rx="11" ry="11" style="stroke:#181818;stroke-width:1.0;"/><path d="M1903.7656,100.8008 Q1903.9219,100.582 1904.1094,100.4727 Q1904.2969,100.3633 1904.5156,100.3633 Q1904.8906,100.3633 1905.125,100.6289 Q1905.3594,100.8789 1905.3594,101.4883 L1905.3594,102.9414 Q1905.3594,103.5508 1905.125,103.8164 Q1904.8906,104.082 1904.5156,104.082 Q1904.1719,104.082 1903.9688,103.8789 Q1903.7656,103.6914 1903.6563,103.1758 Q1903.6094,102.8164 1903.4219,102.6289 Q1903.0938,102.2539 1902.4844,102.0352 Q1901.875,101.8164 1901.25,101.8164 Q1900.4844,101.8164 1899.8438,102.1445 Q1899.2188,102.4727 1898.7188,103.2227 Q1898.2344,103.9727 1898.2344,105.0039 L1898.2344,106.0977 Q1898.2344,107.332 1899.125,108.1602 Q1900.0156,108.9727 1901.6094,108.9727 Q1902.5469,108.9727 1903.2031,108.7227 Q1903.5938,108.5664 1904.0156,108.1289 Q1904.2813,107.8633 1904.4219,107.7852 Q1904.5781,107.707 1904.7813,107.707 Q1905.1094,107.707 1905.3594,107.9727 Q1905.625,108.2227 1905.625,108.5664 Q1905.625,108.9102 1905.2813,109.3164 Q1904.7813,109.8945 1903.9844,110.2227 Q1902.9063,110.6758 1901.6094,110.6758 Q1900.0938,110.6758 1898.8906,110.0508 Q1897.9063,109.5508 1897.2188,108.4883 Q1896.5313,107.4102 1896.5313,106.1289 L1896.5313,104.9727 Q1896.5313,103.6445 1897.1406,102.5039 Q1897.7656,101.3477 1898.8594,100.7383 Q1899.9531,100.1133 1901.1875,100.1133 Q1901.9219,100.1133 1902.5625,100.2852 Q1903.2188,100.4414 1903.7656,100.8008 Z " fill="#000000"/><text fill="#000000" font-family="sans-serif" font-size="12" font-style="italic" lengthAdjust="spacing" textLength="43" x="1954.5" y="100.584">&#171;entity&#187;</text><text fill="#000000" font-family="sans-serif" font-size="14" lengthAdjust="spacing" textLength="122" x="1915" y="118.7031">TrueFalseQuestion</text><line style="stroke:#181818;stroke-width:0.5;" x1="1887" x2="2039" y1="127.2168" y2="127.2168"/></g><!--class Course--><g id="elem_Course"><rect codeLine="72" fill="#F1F1F1" height="68.543" id="Course" rx="2.5" ry="2.5" style="stroke:#181818;stroke-width:0.5;" width="78" x="680" y="324.6348"/><ellipse cx="695" cy="354.9063" fill="#ADD1B2" rx="11" ry="11" style="stroke:#181818;stroke-width:1.0;"/><path d="M693.8594,355.7031 L693.8594,358.2031 L698.1875,358.2031 L698.1875,357.2813 Q698.1875,356.6719 698.4219,356.4063 Q698.6719,356.1406 699.0469,356.1406 Q699.4219,356.1406 699.6563,356.4063 Q699.8906,356.6719 699.8906,357.2813 L699.8906,359.9063 L691.8906,359.9063 Q691.2656,359.9063 691,359.6719 Q690.75,359.4375 690.75,359.0469 Q690.75,358.6719 691.0156,358.4375 Q691.2813,358.2031 691.8906,358.2031 L692.1563,358.2031 L692.1563,351.5469 L691.8906,351.5469 Q691.2656,351.5469 691,351.3125 Q690.75,351.0781 690.75,350.6875 Q690.75,350.3125 691,350.0781 Q691.2656,349.8438 691.8906,349.8438 L699.5156,349.8438 L699.5156,352.4375 Q699.5156,353.0469 699.2813,353.3125 Q699.0625,353.5625 698.6719,353.5625 Q698.2969,353.5625 698.0625,353.3125 Q697.8281,353.0469 697.8281,352.4375 L697.8281,351.5469 L693.8594,351.5469 L693.8594,354 L695.3438,354 Q695.3438,353.3438 695.4688,353.1563 Q695.7344,352.75 696.2031,352.75 Q696.5781,352.75 696.8125,353.0156 Q697.0469,353.2656 697.0469,353.875 L697.0469,355.8438 Q697.0469,356.3906 696.9219,356.5781 Q696.6563,356.9688 696.2031,356.9688 Q695.7344,356.9688 695.4688,356.5625 Q695.3438,356.375 695.3438,355.7031 L693.8594,355.7031 Z " fill="#000000"/><text fill="#000000" font-family="sans-serif" font-size="12" font-style="italic" lengthAdjust="spacing" textLength="35" x="714.5" y="342.584">&#171;root&#187;</text><text fill="#000000" font-family="sans-serif" font-size="12" font-style="italic" lengthAdjust="spacing" textLength="43" x="710.5" y="358.5449">&#171;entity&#187;</text><text fill="#000000" font-family="sans-serif" font-size="14" lengthAdjust="spacing" textLength="46" x="709" y="376.6641">Course</text><line style="stroke:#181818;stroke-width:0.5;" x1="681" x2="757" y1="385.1777" y2="385.1777"/></g><!--class CourseTitle--><g id="elem_CourseTitle"><rect codeLine="74" fill="#F1F1F1" height="68.543" id="CourseTitle" rx="2.5" ry="2.5" style="stroke:#181818;stroke-width:0.5;" width="109" x="1024.5" y="195.6348"/><ellipse cx="1039.5" cy="225.9063" fill="#B8255F" rx="11" ry="11" style="stroke:#181818;stroke-width:1.0;"/><path d="M1040.0938,229.1719 L1042.5625,223.2969 L1042.1719,223.2969 Q1041.5625,223.2969 1041.2969,223.0625 Q1041.0313,222.8281 1041.0313,222.4375 Q1041.0313,222.0625 1041.2969,221.8281 Q1041.5625,221.5938 1042.1719,221.5938 L1044.4531,221.5938 Q1045.0625,221.5938 1045.3281,221.8281 Q1045.5938,222.0625 1045.5938,222.4375 Q1045.5938,222.9063 1045.1875,223.1719 Q1045,223.2969 1044.4063,223.2969 L1040.9219,231.6563 L1039.2813,231.6563 L1035.7969,223.2969 Q1035.2031,223.2969 1035.0156,223.1719 Q1034.6094,222.9063 1034.6094,222.4375 Q1034.6094,222.0625 1034.875,221.8281 Q1035.1406,221.5938 1035.75,221.5938 L1038.0469,221.5938 Q1038.6563,221.5938 1038.9063,221.8281 Q1039.1719,222.0625 1039.1719,222.4375 Q1039.1719,222.8281 1038.9063,223.0625 Q1038.6563,223.2969 1038.0469,223.2969 L1037.6406,223.2969 L1040.0938,229.1719 Z " fill="#000000"/><text fill="#000000" font-family="sans-serif" font-size="12" font-style="italic" lengthAdjust="spacing" textLength="81" x="1051.5" y="213.584">&#171;value object&#187;</text><text fill="#000000" font-family="sans-serif" font-size="12" font-style="italic" lengthAdjust="spacing" textLength="52" x="1066" y="229.5449">&#171;unique&#187;</text><text fill="#000000" font-family="sans-serif" font-size="14" lengthAdjust="spacing" textLength="27" x="1078.5" y="247.6641">Title</text><line style="stroke:#181818;stroke-width:0.5;" x1="1025.5" x2="1132.5" y1="256.1777" y2="256.1777"/></g><!--class Id--><g id="elem_Id"><rect codeLine="75" fill="#F1F1F1" height="68.543" id="Id" rx="2.5" ry="2.5" style="stroke:#181818;stroke-width:0.5;" width="109" x="880.5" y="195.6348"/><ellipse cx="895.5" cy="225.9063" fill="#B8255F" rx="11" ry="11" style="stroke:#181818;stroke-width:1.0;"/><path d="M896.0938,229.1719 L898.5625,223.2969 L898.1719,223.2969 Q897.5625,223.2969 897.2969,223.0625 Q897.0313,222.8281 897.0313,222.4375 Q897.0313,222.0625 897.2969,221.8281 Q897.5625,221.5938 898.1719,221.5938 L900.4531,221.5938 Q901.0625,221.5938 901.3281,221.8281 Q901.5938,222.0625 901.5938,222.4375 Q901.5938,222.9063 901.1875,223.1719 Q901,223.2969 900.4063,223.2969 L896.9219,231.6563 L895.2813,231.6563 L891.7969,223.2969 Q891.2031,223.2969 891.0156,223.1719 Q890.6094,222.9063 890.6094,222.4375 Q890.6094,222.0625 890.875,221.8281 Q891.1406,221.5938 891.75,221.5938 L894.0469,221.5938 Q894.6563,221.5938 894.9063,221.8281 Q895.1719,222.0625 895.1719,222.4375 Q895.1719,222.8281 894.9063,223.0625 Q894.6563,223.2969 894.0469,223.2969 L893.6406,223.2969 L896.0938,229.1719 Z " fill="#000000"/><text fill="#000000" font-family="sans-serif" font-size="12" font-style="italic" lengthAdjust="spacing" textLength="81" x="907.5" y="213.584">&#171;value object&#187;</text><text fill="#000000" font-family="sans-serif" font-size="12" font-style="italic" lengthAdjust="spacing" textLength="25" x="935.5" y="229.5449">&#171;Id&#187;</text><text fill="#000000" font-family="sans-serif" font-size="14" lengthAdjust="spacing" textLength="11" x="942.5" y="247.6641">Id</text><line style="stroke:#181818;stroke-width:0.5;" x1="881.5" x2="988.5" y1="256.1777" y2="256.1777"/></g><!--class CourseState--><g id="elem_CourseState"><rect codeLine="76" fill="#F1F1F1" height="52.582" id="CourseState" rx="2.5" ry="2.5" style="stroke:#181818;stroke-width:0.5;" width="109" x="736.5" y="203.6348"/><ellipse cx="751.5" cy="225.9258" fill="#B8255F" rx="11" ry="11" style="stroke:#181818;stroke-width:1.0;"/><path d="M752.0938,229.1914 L754.5625,223.3164 L754.1719,223.3164 Q753.5625,223.3164 753.2969,223.082 Q753.0313,222.8477 753.0313,222.457 Q753.0313,222.082 753.2969,221.8477 Q753.5625,221.6133 754.1719,221.6133 L756.4531,221.6133 Q757.0625,221.6133 757.3281,221.8477 Q757.5938,222.082 757.5938,222.457 Q757.5938,222.9258 757.1875,223.1914 Q757,223.3164 756.4063,223.3164 L752.9219,231.6758 L751.2813,231.6758 L747.7969,223.3164 Q747.2031,223.3164 747.0156,223.1914 Q746.6094,222.9258 746.6094,222.457 Q746.6094,222.082 746.875,221.8477 Q747.1406,221.6133 747.75,221.6133 L750.0469,221.6133 Q750.6563,221.6133 750.9063,221.8477 Q751.1719,222.082 751.1719,222.457 Q751.1719,222.8477 750.9063,223.082 Q750.6563,223.3164 750.0469,223.3164 L749.6406,223.3164 L752.0938,229.1914 Z " fill="#000000"/><text fill="#000000" font-family="sans-serif" font-size="12" font-style="italic" lengthAdjust="spacing" textLength="81" x="763.5" y="221.584">&#171;value object&#187;</text><text fill="#000000" font-family="sans-serif" font-size="14" lengthAdjust="spacing" textLength="33" x="787.5" y="239.7031">State</text><line style="stroke:#181818;stroke-width:0.5;" x1="737.5" x2="844.5" y1="248.2168" y2="248.2168"/></g><!--class Capacity--><g id="elem_Capacity"><rect codeLine="77" fill="#F1F1F1" height="52.582" id="Capacity" rx="2.5" ry="2.5" style="stroke:#181818;stroke-width:0.5;" width="109" x="592.5" y="203.6348"/><ellipse cx="607.5" cy="225.9258" fill="#B8255F" rx="11" ry="11" style="stroke:#181818;stroke-width:1.0;"/><path d="M608.0938,229.1914 L610.5625,223.3164 L610.1719,223.3164 Q609.5625,223.3164 609.2969,223.082 Q609.0313,222.8477 609.0313,222.457 Q609.0313,222.082 609.2969,221.8477 Q609.5625,221.6133 610.1719,221.6133 L612.4531,221.6133 Q613.0625,221.6133 613.3281,221.8477 Q613.5938,222.082 613.5938,222.457 Q613.5938,222.9258 613.1875,223.1914 Q613,223.3164 612.4063,223.3164 L608.9219,231.6758 L607.2813,231.6758 L603.7969,223.3164 Q603.2031,223.3164 603.0156,223.1914 Q602.6094,222.9258 602.6094,222.457 Q602.6094,222.082 602.875,221.8477 Q603.1406,221.6133 603.75,221.6133 L606.0469,221.6133 Q606.6563,221.6133 606.9063,221.8477 Q607.1719,222.082 607.1719,222.457 Q607.1719,222.8477 606.9063,223.082 Q606.6563,223.3164 606.0469,223.3164 L605.6406,223.3164 L608.0938,229.1914 Z " fill="#000000"/><text fill="#000000" font-family="sans-serif" font-size="12" font-style="italic" lengthAdjust="spacing" textLength="81" x="619.5" y="221.584">&#171;value object&#187;</text><text fill="#000000" font-family="sans-serif" font-size="14" lengthAdjust="spacing" textLength="55" x="632.5" y="239.7031">Capacity</text><line style="stroke:#181818;stroke-width:0.5;" x1="593.5" x2="700.5" y1="248.2168" y2="248.2168"/></g><!--class EnrollementsState--><g id="elem_EnrollementsState"><rect codeLine="78" fill="#F1F1F1" height="52.582" id="EnrollementsState" rx="2.5" ry="2.5" style="stroke:#181818;stroke-width:0.5;" width="147" x="410.5" y="203.6348"/><ellipse cx="425.5" cy="225.9258" fill="#B8255F" rx="11" ry="11" style="stroke:#181818;stroke-width:1.0;"/><path d="M426.0938,229.1914 L428.5625,223.3164 L428.1719,223.3164 Q427.5625,223.3164 427.2969,223.082 Q427.0313,222.8477 427.0313,222.457 Q427.0313,222.082 427.2969,221.8477 Q427.5625,221.6133 428.1719,221.6133 L430.4531,221.6133 Q431.0625,221.6133 431.3281,221.8477 Q431.5938,222.082 431.5938,222.457 Q431.5938,222.9258 431.1875,223.1914 Q431,223.3164 430.4063,223.3164 L426.9219,231.6758 L425.2813,231.6758 L421.7969,223.3164 Q421.2031,223.3164 421.0156,223.1914 Q420.6094,222.9258 420.6094,222.457 Q420.6094,222.082 420.875,221.8477 Q421.1406,221.6133 421.75,221.6133 L424.0469,221.6133 Q424.6563,221.6133 424.9063,221.8477 Q425.1719,222.082 425.1719,222.457 Q425.1719,222.8477 424.9063,223.082 Q424.6563,223.3164 424.0469,223.3164 L423.6406,223.3164 L426.0938,229.1914 Z " fill="#000000"/><text fill="#000000" font-family="sans-serif" font-size="12" font-style="italic" lengthAdjust="spacing" textLength="81" x="456.5" y="221.584">&#171;value object&#187;</text><text fill="#000000" font-family="sans-serif" font-size="14" lengthAdjust="spacing" textLength="115" x="439.5" y="239.7031">EnrollementsState</text><line style="stroke:#181818;stroke-width:0.5;" x1="411.5" x2="556.5" y1="248.2168" y2="248.2168"/></g><!--class StudentRegistration--><g id="elem_StudentRegistration"><rect fill="#F1F1F1" height="40" id="StudentRegistration" rx="2.5" ry="2.5" style="stroke:#181818;stroke-width:0.5;" width="157" x="218.5" y="210.1348"/><ellipse cx="233.5" cy="226.1348" fill="#ADD1B2" rx="11" ry="11" style="stroke:#181818;stroke-width:1.0;"/><path d="M236.2656,222.0098 Q236.4219,221.791 236.6094,221.6816 Q236.7969,221.5723 237.0156,221.5723 Q237.3906,221.5723 237.625,221.8379 Q237.8594,222.0879 237.8594,222.6973 L237.8594,224.1504 Q237.8594,224.7598 237.625,225.0254 Q237.3906,225.291 237.0156,225.291 Q236.6719,225.291 236.4688,225.0879 Q236.2656,224.9004 236.1563,224.3848 Q236.1094,224.0254 235.9219,223.8379 Q235.5938,223.4629 234.9844,223.2441 Q234.375,223.0254 233.75,223.0254 Q232.9844,223.0254 232.3438,223.3535 Q231.7188,223.6816 231.2188,224.4316 Q230.7344,225.1816 230.7344,226.2129 L230.7344,227.3066 Q230.7344,228.541 231.625,229.3691 Q232.5156,230.1816 234.1094,230.1816 Q235.0469,230.1816 235.7031,229.9316 Q236.0938,229.7754 236.5156,229.3379 Q236.7813,229.0723 236.9219,228.9941 Q237.0781,228.916 237.2813,228.916 Q237.6094,228.916 237.8594,229.1816 Q238.125,229.4316 238.125,229.7754 Q238.125,230.1191 237.7813,230.5254 Q237.2813,231.1035 236.4844,231.4316 Q235.4063,231.8848 234.1094,231.8848 Q232.5938,231.8848 231.3906,231.2598 Q230.4063,230.7598 229.7188,229.6973 Q229.0313,228.6191 229.0313,227.3379 L229.0313,226.1816 Q229.0313,224.8535 229.6406,223.7129 Q230.2656,222.5566 231.3594,221.9473 Q232.4531,221.3223 233.6875,221.3223 Q234.4219,221.3223 235.0625,221.4941 Q235.7188,221.6504 236.2656,222.0098 Z " fill="#000000"/><text fill="#000000" font-family="sans-serif" font-size="14" lengthAdjust="spacing" textLength="125" x="247.5" y="231.9316">StudentRegistration</text><line style="stroke:#181818;stroke-width:0.5;" x1="219.5" x2="374.5" y1="242.1348" y2="242.1348"/></g><!--class TeacherRegistration--><g id="elem_TeacherRegistration"><rect fill="#F1F1F1" height="40" id="TeacherRegistration" rx="2.5" ry="2.5" style="stroke:#181818;stroke-width:0.5;" width="161" x="22.5" y="210.1348"/><ellipse cx="37.5" cy="226.1348" fill="#ADD1B2" rx="11" ry="11" style="stroke:#181818;stroke-width:1.0;"/><path d="M40.2656,222.0098 Q40.4219,221.791 40.6094,221.6816 Q40.7969,221.5723 41.0156,221.5723 Q41.3906,221.5723 41.625,221.8379 Q41.8594,222.0879 41.8594,222.6973 L41.8594,224.1504 Q41.8594,224.7598 41.625,225.0254 Q41.3906,225.291 41.0156,225.291 Q40.6719,225.291 40.4688,225.0879 Q40.2656,224.9004 40.1563,224.3848 Q40.1094,224.0254 39.9219,223.8379 Q39.5938,223.4629 38.9844,223.2441 Q38.375,223.0254 37.75,223.0254 Q36.9844,223.0254 36.3438,223.3535 Q35.7188,223.6816 35.2188,224.4316 Q34.7344,225.1816 34.7344,226.2129 L34.7344,227.3066 Q34.7344,228.541 35.625,229.3691 Q36.5156,230.1816 38.1094,230.1816 Q39.0469,230.1816 39.7031,229.9316 Q40.0938,229.7754 40.5156,229.3379 Q40.7813,229.0723 40.9219,228.9941 Q41.0781,228.916 41.2813,228.916 Q41.6094,228.916 41.8594,229.1816 Q42.125,229.4316 42.125,229.7754 Q42.125,230.1191 41.7813,230.5254 Q41.2813,231.1035 40.4844,231.4316 Q39.4063,231.8848 38.1094,231.8848 Q36.5938,231.8848 35.3906,231.2598 Q34.4063,230.7598 33.7188,229.6973 Q33.0313,228.6191 33.0313,227.3379 L33.0313,226.1816 Q33.0313,224.8535 33.6406,223.7129 Q34.2656,222.5566 35.3594,221.9473 Q36.4531,221.3223 37.6875,221.3223 Q38.4219,221.3223 39.0625,221.4941 Q39.7188,221.6504 40.2656,222.0098 Z " fill="#000000"/><text fill="#000000" font-family="sans-serif" font-size="14" lengthAdjust="spacing" textLength="129" x="51.5" y="231.9316">TeacherRegistration</text><line style="stroke:#181818;stroke-width:0.5;" x1="23.5" x2="182.5" y1="242.1348" y2="242.1348"/></g><!--link Header to ExamDescription--><g id="link_Header_ExamDescription"><path codeLine="24" d="M1321.66,488.6348 C1321.66,488.6348 1313.5,488.6348 1313.5,488.6348 C1313.5,488.6348 1313.5,569.3948 1313.5,569.3948 " fill="none" id="Header-ExamDescription" style="stroke:#181818;stroke-width:1.0;"/><polygon fill="#181818" points="1334.66,488.6348,1328.66,484.6348,1322.66,488.6348,1328.66,492.6348,1334.66,488.6348" style="stroke:#181818;stroke-width:1.0;"/><polygon fill="#181818" points="1313.5,582.3948,1317.5,573.3948,1313.5,577.3948,1309.5,573.3948,1313.5,582.3948" style="stroke:#181818;stroke-width:1.0;"/><line style="stroke:#181818;stroke-width:1.0;" x1="1313.5" x2="1313.5" y1="577.3948" y2="569.3948"/><text fill="#000000" font-family="sans-serif" font-size="13" lengthAdjust="spacing" textLength="21" x="1291.5" y="539.9631">has</text><text fill="#000000" font-family="sans-serif" font-size="13" lengthAdjust="spacing" textLength="7" x="1320.0291" y="484.3012">1</text><text fill="#000000" font-family="sans-serif" font-size="13" lengthAdjust="spacing" textLength="7" x="1318.2938" y="571.3558">1</text></g><!--link Header to TypeOfGrade--><g id="link_Header_TypeOfGrade"><path codeLine="25" d="M1379.33,518.2348 C1379.33,518.2348 1379.33,518.6348 1379.33,518.6348 C1379.33,518.6348 1542,518.6348 1542,518.6348 C1542,518.6348 1542,569.4748 1542,569.4748 " fill="none" id="Header-TypeOfGrade" style="stroke:#181818;stroke-width:1.0;"/><polygon fill="#181818" points="1379.33,514.6448,1375.33,520.6448,1379.33,526.6448,1383.33,520.6448,1379.33,514.6448" style="stroke:#181818;stroke-width:1.0;"/><polygon fill="#181818" points="1542,582.4748,1546,573.4748,1542,577.4748,1538,573.4748,1542,582.4748" style="stroke:#181818;stroke-width:1.0;"/><line style="stroke:#181818;stroke-width:1.0;" x1="1542" x2="1542" y1="577.4748" y2="569.4748"/><text fill="#000000" font-family="sans-serif" font-size="13" lengthAdjust="spacing" textLength="21" x="1463.89" y="533.6631">has</text><text fill="#000000" font-family="sans-serif" font-size="13" lengthAdjust="spacing" textLength="7" x="1372.7303" y="536.4091">1</text><text fill="#000000" font-family="sans-serif" font-size="13" lengthAdjust="spacing" textLength="7" x="1524.0156" y="571.4543">1</text></g><!--link Header to FeedbackExam--><g id="link_Header_FeedbackExam"><path codeLine="26" d="M1396.17,527.6848 C1396.17,527.6848 1396.17,569.2248 1396.17,569.2248 " fill="none" id="Header-FeedbackExam" style="stroke:#181818;stroke-width:1.0;"/><polygon fill="#181818" points="1396.17,514.6848,1392.17,520.6848,1396.17,526.6848,1400.17,520.6848,1396.17,514.6848" style="stroke:#181818;stroke-width:1.0;"/><polygon fill="#181818" points="1396.17,582.2248,1400.17,573.2248,1396.17,577.2248,1392.17,573.2248,1396.17,582.2248" style="stroke:#181818;stroke-width:1.0;"/><line style="stroke:#181818;stroke-width:1.0;" x1="1396.17" x2="1396.17" y1="577.2248" y2="569.2248"/><text fill="#000000" font-family="sans-serif" font-size="13" lengthAdjust="spacing" textLength="21" x="1397.17" y="544.4831">has</text><text fill="#000000" font-family="sans-serif" font-size="13" lengthAdjust="spacing" textLength="7" x="1381.6603" y="571.5847">1</text><text fill="#000000" font-family="sans-serif" font-size="13" lengthAdjust="spacing" textLength="7" x="1393.2541" y="536.4578">1</text></g><!--link Exam to OpenDate--><g id="link_Exam_OpenDate"><path codeLine="27" d="M1514.83,406.7048 C1514.83,406.7048 1514.83,448.2448 1514.83,448.2448 " fill="none" id="Exam-OpenDate" style="stroke:#181818;stroke-width:1.0;"/><polygon fill="#181818" points="1514.83,393.7048,1510.83,399.7048,1514.83,405.7048,1518.83,399.7048,1514.83,393.7048" style="stroke:#181818;stroke-width:1.0;"/><polygon fill="#181818" points="1514.83,461.2448,1518.83,452.2448,1514.83,456.2448,1510.83,452.2448,1514.83,461.2448" style="stroke:#181818;stroke-width:1.0;"/><line style="stroke:#181818;stroke-width:1.0;" x1="1514.83" x2="1514.83" y1="456.2448" y2="448.2448"/><text fill="#000000" font-family="sans-serif" font-size="13" lengthAdjust="spacing" textLength="21" x="1515.83" y="423.5031">has</text><text fill="#000000" font-family="sans-serif" font-size="13" lengthAdjust="spacing" textLength="7" x="1509.7563" y="450.1711">1</text><text fill="#000000" font-family="sans-serif" font-size="13" lengthAdjust="spacing" textLength="7" x="1509.2617" y="415.2">1</text></g><!--link Exam to CloseDate--><g id="link_Exam_CloseDate"><path codeLine="28" d="M1551.71,391.6348 C1551.71,391.6348 1596.75,391.6348 1596.75,391.6348 C1596.75,391.6348 1596.75,448.5148 1596.75,448.5148 " fill="none" id="Exam-CloseDate" style="stroke:#181818;stroke-width:1.0;"/><polygon fill="#181818" points="1538.71,391.6348,1544.71,395.6348,1550.71,391.6348,1544.71,387.6348,1538.71,391.6348" style="stroke:#181818;stroke-width:1.0;"/><polygon fill="#181818" points="1596.75,461.5148,1600.75,452.5148,1596.75,456.5148,1592.75,452.5148,1596.75,461.5148" style="stroke:#181818;stroke-width:1.0;"/><line style="stroke:#181818;stroke-width:1.0;" x1="1596.75" x2="1596.75" y1="456.5148" y2="448.5148"/><text fill="#000000" font-family="sans-serif" font-size="13" lengthAdjust="spacing" textLength="21" x="1574.75" y="393.5831">has</text><text fill="#000000" font-family="sans-serif" font-size="13" lengthAdjust="spacing" textLength="7" x="1546.4295" y="413.8086">1</text><text fill="#000000" font-family="sans-serif" font-size="13" lengthAdjust="spacing" textLength="7" x="1577.3203" y="450.5036">1</text></g><!--link Exam to ExamTitle--><g id="link_Exam_ExamTitle"><path codeLine="29" d="M1491.17,406.8648 C1491.17,406.8648 1491.17,457.6348 1491.17,457.6348 C1491.17,457.6348 1312.63,457.6348 1312.63,457.6348 " fill="none" id="Exam-ExamTitle" style="stroke:#181818;stroke-width:1.0;"/><polygon fill="#181818" points="1491.17,393.8648,1487.17,399.8648,1491.17,405.8648,1495.17,399.8648,1491.17,393.8648" style="stroke:#181818;stroke-width:1.0;"/><polygon fill="#181818" points="1299.63,457.6348,1308.63,461.6348,1304.63,457.6348,1308.63,453.6348,1299.63,457.6348" style="stroke:#181818;stroke-width:1.0;"/><line style="stroke:#181818;stroke-width:1.0;" x1="1304.63" x2="1312.63" y1="457.6348" y2="457.6348"/><text fill="#000000" font-family="sans-serif" font-size="13" lengthAdjust="spacing" textLength="21" x="1405.29" y="453.6631">has</text><text fill="#000000" font-family="sans-serif" font-size="13" lengthAdjust="spacing" textLength="7" x="1481.631" y="415.115">1</text><text fill="#000000" font-family="sans-serif" font-size="13" lengthAdjust="spacing" textLength="7" x="1307.4412" y="449.4727">1</text></g><!--link Section to TextualDescription--><g id="link_Section_TextualDescription"><path codeLine="31" d="M1776,527.6848 C1776,527.6848 1776,569.2248 1776,569.2248 " fill="none" id="Section-TextualDescription" style="stroke:#181818;stroke-width:1.0;"/><polygon fill="#181818" points="1776,514.6848,1772,520.6848,1776,526.6848,1780,520.6848,1776,514.6848" style="stroke:#181818;stroke-width:1.0;"/><polygon fill="#181818" points="1776,582.2248,1780,573.2248,1776,577.2248,1772,573.2248,1776,582.2248" style="stroke:#181818;stroke-width:1.0;"/><line style="stroke:#181818;stroke-width:1.0;" x1="1776" x2="1776" y1="577.2248" y2="569.2248"/><text fill="#000000" font-family="sans-serif" font-size="13" lengthAdjust="spacing" textLength="21" x="1777" y="544.4831">has</text><text fill="#000000" font-family="sans-serif" font-size="13" lengthAdjust="spacing" textLength="7" x="1772.8281" y="571.5847">1</text><text fill="#000000" font-family="sans-serif" font-size="13" lengthAdjust="spacing" textLength="7" x="1768.2344" y="536.4578">1</text></g><!--link Difficulty to Section--><g id="link_Difficulty_Section"><path codeLine="32" d="M1789.17,398.8648 C1789.17,398.8648 1789.17,448.4448 1789.17,448.4448 " fill="none" id="Difficulty-Section" style="stroke:#181818;stroke-width:1.0;"/><polygon fill="#181818" points="1789.17,385.8648,1785.17,394.8648,1789.17,390.8648,1793.17,394.8648,1789.17,385.8648" style="stroke:#181818;stroke-width:1.0;"/><line style="stroke:#181818;stroke-width:1.0;" x1="1789.17" x2="1789.17" y1="390.8648" y2="398.8648"/><polygon fill="#181818" points="1789.17,461.4448,1793.17,455.4448,1789.17,449.4448,1785.17,455.4448,1789.17,461.4448" style="stroke:#181818;stroke-width:1.0;"/><text fill="#000000" font-family="sans-serif" font-size="13" lengthAdjust="spacing" textLength="71" x="1717.17" y="419.6831">has grade of</text><text fill="#000000" font-family="sans-serif" font-size="13" lengthAdjust="spacing" textLength="7" x="1784.4062" y="450.4174">1</text><text fill="#000000" font-family="sans-serif" font-size="13" lengthAdjust="spacing" textLength="7" x="1784.3707" y="407.2324">1</text></g><!--link Exam to Section--><g id="link_Exam_Section"><path codeLine="34" d="M1551.58,388.6348 C1551.58,388.6348 1762.83,388.6348 1762.83,388.6348 C1762.83,388.6348 1762.83,448.4748 1762.83,448.4748 " fill="none" id="Exam-Section" style="stroke:#181818;stroke-width:1.0;"/><polygon fill="#181818" points="1538.58,388.6348,1544.58,392.6348,1550.58,388.6348,1544.58,384.6348,1538.58,388.6348" style="stroke:#181818;stroke-width:1.0;"/><polygon fill="#181818" points="1762.83,461.4748,1766.83,452.4748,1762.83,456.4748,1758.83,452.4748,1762.83,461.4748" style="stroke:#181818;stroke-width:1.0;"/><line style="stroke:#181818;stroke-width:1.0;" x1="1762.83" x2="1762.83" y1="456.4748" y2="448.4748"/><text fill="#000000" font-family="sans-serif" font-size="13" lengthAdjust="spacing" textLength="21" x="1665.13" y="384.6631">has</text><text fill="#000000" font-family="sans-serif" font-size="13" lengthAdjust="spacing" textLength="7" x="1546.6403" y="390.0715">1</text><text fill="#000000" font-family="sans-serif" font-size="13" lengthAdjust="spacing" textLength="20" x="1737.4719" y="450.4543">1..*</text></g><!--link Exam to Header--><g id="link_Exam_Header"><path codeLine="35" d="M1454.26,376.6348 C1454.26,376.6348 1407.75,376.6348 1407.75,376.6348 C1407.75,376.6348 1407.75,448.4248 1407.75,448.4248 " fill="none" id="Exam-Header" style="stroke:#181818;stroke-width:1.0;"/><polygon fill="#181818" points="1467.26,376.6348,1461.26,372.6348,1455.26,376.6348,1461.26,380.6348,1467.26,376.6348" style="stroke:#181818;stroke-width:1.0;"/><polygon fill="#181818" points="1407.75,461.4248,1411.75,452.4248,1407.75,456.4248,1403.75,452.4248,1407.75,461.4248" style="stroke:#181818;stroke-width:1.0;"/><line style="stroke:#181818;stroke-width:1.0;" x1="1407.75" x2="1407.75" y1="456.4248" y2="448.4248"/><text fill="#000000" font-family="sans-serif" font-size="13" lengthAdjust="spacing" textLength="21" x="1385.75" y="385.3031">has</text><text fill="#000000" font-family="sans-serif" font-size="13" lengthAdjust="spacing" textLength="7" x="1452.5346" y="375.5086">1</text><text fill="#000000" font-family="sans-serif" font-size="13" lengthAdjust="spacing" textLength="7" x="1407.7453" y="450.3927">1</text></g><!--link Course to Exam--><g id="link_Course_Exam"><path codeLine="36" d="M1528.17,263.2948 C1528.17,263.2948 1528.17,311.5648 1528.17,311.5648 " fill="none" id="Course-Exam" style="stroke:#181818;stroke-width:1.0;"/><polygon fill="#181818" points="1528.17,250.2948,1524.17,256.2948,1528.17,262.2948,1532.17,256.2948,1528.17,250.2948" style="stroke:#181818;stroke-width:1.0;"/><polygon fill="#181818" points="1528.17,324.5648,1532.17,315.5648,1528.17,319.5648,1524.17,315.5648,1528.17,324.5648" style="stroke:#181818;stroke-width:1.0;"/><line style="stroke:#181818;stroke-width:1.0;" x1="1528.17" x2="1528.17" y1="319.5648" y2="311.5648"/><text fill="#000000" font-family="sans-serif" font-size="13" lengthAdjust="spacing" textLength="21" x="1506.17" y="283.4531">has</text><text fill="#000000" font-family="sans-serif" font-size="13" lengthAdjust="spacing" textLength="7" x="1525.3008" y="313.4542">1</text><text fill="#000000" font-family="sans-serif" font-size="13" lengthAdjust="spacing" textLength="20" x="1496.3907" y="272.0646">1..*</text></g><!--link Teacher to Exam--><g id="link_Teacher_Exam"><path codeLine="37" d="M1477.5,250.2948 C1477.5,250.2948 1477.5,319.5648 1477.5,319.5648 " fill="none" id="Teacher-to-Exam" style="stroke:#181818;stroke-width:1.0;"/><polygon fill="#181818" points="1477.5,324.5648,1481.5,315.5648,1477.5,319.5648,1473.5,315.5648,1477.5,324.5648" style="stroke:#181818;stroke-width:1.0;"/><text fill="#000000" font-family="sans-serif" font-size="13" lengthAdjust="spacing" textLength="43" x="1433.5" y="299.9531">creates</text><text fill="#000000" font-family="sans-serif" font-size="13" lengthAdjust="spacing" textLength="7" x="1478.2938" y="272.0646">1</text><text fill="#000000" font-family="sans-serif" font-size="13" lengthAdjust="spacing" textLength="7" x="1464.9719" y="313.4542">1</text></g><!--link Question to Exam--><g id="link_Question_Exam"><path codeLine="55" d="M2305.39,254.6348 C2305.39,254.6348 1533.33,254.6348 1533.33,254.6348 C1533.33,254.6348 1533.33,311.6248 1533.33,311.6248 " fill="none" id="Question-Exam" style="stroke:#181818;stroke-width:1.0;"/><polygon fill="#181818" points="2318.39,254.6348,2309.39,250.6348,2313.39,254.6348,2309.39,258.6348,2318.39,254.6348" style="stroke:#181818;stroke-width:1.0;"/><line style="stroke:#181818;stroke-width:1.0;" x1="2313.39" x2="2305.39" y1="254.6348" y2="254.6348"/><polygon fill="#181818" points="1533.33,324.6248,1537.33,318.6248,1533.33,312.6248,1529.33,318.6248,1533.33,324.6248" style="stroke:#181818;stroke-width:1.0;"/><text fill="#000000" font-family="sans-serif" font-size="13" lengthAdjust="spacing" textLength="65" x="1824.87" y="250.6631">has various</text><text fill="#000000" font-family="sans-serif" font-size="13" lengthAdjust="spacing" textLength="20" x="2290.3692" y="254.068">1..*</text><text fill="#000000" font-family="sans-serif" font-size="13" lengthAdjust="spacing" textLength="7" x="1539.9903" y="313.2591">1</text></g><!--link Question to QuestionDescription--><g id="link_Question_QuestionDescription"><path codeLine="56" d="M2305.47,257.6348 C2305.47,257.6348 2102.25,257.6348 2102.25,257.6348 C2102.25,257.6348 2102.25,319.4648 2102.25,319.4648 " fill="none" id="Question-QuestionDescription" style="stroke:#181818;stroke-width:1.0;"/><polygon fill="#181818" points="2318.47,257.6348,2312.47,253.6348,2306.47,257.6348,2312.47,261.6348,2318.47,257.6348" style="stroke:#181818;stroke-width:1.0;"/><polygon fill="#181818" points="2102.25,332.4648,2106.25,323.4648,2102.25,327.4648,2098.25,323.4648,2102.25,332.4648" style="stroke:#181818;stroke-width:1.0;"/><line style="stroke:#181818;stroke-width:1.0;" x1="2102.25" x2="2102.25" y1="327.4648" y2="319.4648"/><text fill="#000000" font-family="sans-serif" font-size="13" lengthAdjust="spacing" textLength="21" x="2150.94" y="253.6631">has</text><text fill="#000000" font-family="sans-serif" font-size="13" lengthAdjust="spacing" textLength="7" x="2303.515" y="277.6875">1</text><text fill="#000000" font-family="sans-serif" font-size="13" lengthAdjust="spacing" textLength="7" x="2106.7547" y="321.442">1</text></g><!--link Question to Answer--><g id="link_Question_Answer"><path codeLine="57" d="M2420.74,253.6348 C2420.74,253.6348 2463,253.6348 2463,253.6348 C2463,253.6348 2463,319.5148 2463,319.5148 " fill="none" id="Question-Answer" style="stroke:#181818;stroke-width:1.0;"/><polygon fill="#181818" points="2407.74,253.6348,2413.74,257.6348,2419.74,253.6348,2413.74,249.6348,2407.74,253.6348" style="stroke:#181818;stroke-width:1.0;"/><polygon fill="#181818" points="2463,332.5148,2467,323.5148,2463,327.5148,2459,323.5148,2463,332.5148" style="stroke:#181818;stroke-width:1.0;"/><line style="stroke:#181818;stroke-width:1.0;" x1="2463" x2="2463" y1="327.5148" y2="319.5148"/><text fill="#000000" font-family="sans-serif" font-size="13" lengthAdjust="spacing" textLength="21" x="2441" y="261.4731">has</text><text fill="#000000" font-family="sans-serif" font-size="13" lengthAdjust="spacing" textLength="7" x="2415.4283" y="253.1133">1</text><text fill="#000000" font-family="sans-serif" font-size="13" lengthAdjust="spacing" textLength="7" x="2445.0156" y="321.5036">1</text></g><!--link Question to Grade--><g id="link_Question_Grade"><path codeLine="58" d="M2363,277.7048 C2363,277.7048 2363,319.2448 2363,319.2448 " fill="none" id="Question-Grade" style="stroke:#181818;stroke-width:1.0;"/><polygon fill="#181818" points="2363,264.7048,2359,270.7048,2363,276.7048,2367,270.7048,2363,264.7048" style="stroke:#181818;stroke-width:1.0;"/><polygon fill="#181818" points="2363,332.2448,2367,323.2448,2363,327.2448,2359,323.2448,2363,332.2448" style="stroke:#181818;stroke-width:1.0;"/><line style="stroke:#181818;stroke-width:1.0;" x1="2363" x2="2363" y1="327.2448" y2="319.2448"/><text fill="#000000" font-family="sans-serif" font-size="13" lengthAdjust="spacing" textLength="21" x="2364" y="294.5031">has</text><text fill="#000000" font-family="sans-serif" font-size="13" lengthAdjust="spacing" textLength="7" x="2355.1906" y="321.1711">1</text><text fill="#000000" font-family="sans-serif" font-size="13" lengthAdjust="spacing" textLength="7" x="2355.3984" y="286.2">1</text></g><!--link Question to Feedback--><g id="link_Question_Feedback"><path codeLine="59" d="M2305.26,261.6348 C2305.26,261.6348 2263,261.6348 2263,261.6348 C2263,261.6348 2263,319.4948 2263,319.4948 " fill="none" id="Question-Feedback" style="stroke:#181818;stroke-width:1.0;"/><polygon fill="#181818" points="2318.26,261.6348,2312.26,257.6348,2306.26,261.6348,2312.26,265.6348,2318.26,261.6348" style="stroke:#181818;stroke-width:1.0;"/><polygon fill="#181818" points="2263,332.4948,2267,323.4948,2263,327.4948,2259,323.4948,2263,332.4948" style="stroke:#181818;stroke-width:1.0;"/><line style="stroke:#181818;stroke-width:1.0;" x1="2263" x2="2263" y1="327.4948" y2="319.4948"/><text fill="#000000" font-family="sans-serif" font-size="13" lengthAdjust="spacing" textLength="21" x="2241" y="265.4631">has</text><text fill="#000000" font-family="sans-serif" font-size="13" lengthAdjust="spacing" textLength="7" x="2307.6923" y="286.0089">1</text><text fill="#000000" font-family="sans-serif" font-size="13" lengthAdjust="spacing" textLength="7" x="2265.3656" y="321.4789">1</text></g><!--link Question to Difficulty--><g id="link_Question_Difficulty"><path codeLine="60" d="M2420.68,241.6348 C2420.68,241.6348 2619.5,241.6348 2619.5,241.6348 C2619.5,241.6348 2619.5,319.4748 2619.5,319.4748 " fill="none" id="Question-Difficulty" style="stroke:#181818;stroke-width:1.0;"/><polygon fill="#181818" points="2407.68,241.6348,2413.68,245.6348,2419.68,241.6348,2413.68,237.6348,2407.68,241.6348" style="stroke:#181818;stroke-width:1.0;"/><polygon fill="#181818" points="2619.5,332.4748,2623.5,323.4748,2619.5,327.4748,2615.5,323.4748,2619.5,332.4748" style="stroke:#181818;stroke-width:1.0;"/><line style="stroke:#181818;stroke-width:1.0;" x1="2619.5" x2="2619.5" y1="327.4748" y2="319.4748"/><text fill="#000000" font-family="sans-serif" font-size="13" lengthAdjust="spacing" textLength="71" x="2487.01" y="237.6631">has grade of</text><text fill="#000000" font-family="sans-serif" font-size="13" lengthAdjust="spacing" textLength="7" x="2415.3587" y="239.2008">1</text><text fill="#000000" font-family="sans-serif" font-size="13" lengthAdjust="spacing" textLength="7" x="2604.4063" y="321.4543">1</text></g><!--link MatchingQuestion to Question--><g id="link_MatchingQuestion_Question"><path codeLine="61" d="M2967,135.7948 C2967,171.5648 2967,230.6348 2967,230.6348 C2967,230.6348 2427.9,230.6348 2427.9,230.6348 " fill="none" id="MatchingQuestion-to-Question" style="stroke:#181818;stroke-width:1.0;"/><polygon fill="none" points="2427.9,237.6348,2407.9,230.6348,2427.9,223.6348,2427.9,237.6348" style="stroke:#181818;stroke-width:1.0;"/></g><!--link MultipleChoiceQuestion to Question--><g id="link_MultipleChoiceQuestion_Question"><path codeLine="62" d="M2691.5,135.6448 C2691.5,168.0448 2691.5,218.6348 2691.5,218.6348 C2691.5,218.6348 2427.64,218.6348 2427.64,218.6348 " fill="none" id="MultipleChoiceQuestion-to-Question" style="stroke:#181818;stroke-width:1.0;"/><polygon fill="none" points="2427.64,225.6348,2407.64,218.6348,2427.64,211.6348,2427.64,225.6348" style="stroke:#181818;stroke-width:1.0;"/></g><!--link ShortAnswerQuestion to Question--><g id="link_ShortAnswerQuestion_Question"><path codeLine="63" d="M2517.5,135.7948 C2517.5,164.9648 2517.5,207.6348 2517.5,207.6348 C2517.5,207.6348 2427.69,207.6348 2427.69,207.6348 " fill="none" id="ShortAnswerQuestion-to-Question" style="stroke:#181818;stroke-width:1.0;"/><polygon fill="none" points="2427.69,214.6348,2407.69,207.6348,2427.69,200.6348,2427.69,214.6348" style="stroke:#181818;stroke-width:1.0;"/></g><!--link NumericalQuestion to Question--><g id="link_NumericalQuestion_Question"><path codeLine="64" d="M2363,135.6848 C2363,135.6848 2363,175.3648 2363,175.3648 " fill="none" id="NumericalQuestion-to-Question" style="stroke:#181818;stroke-width:1.0;"/><polygon fill="none" points="2370,175.3648,2363,195.3648,2356,175.3648,2370,175.3648" style="stroke:#181818;stroke-width:1.0;"/></g><!--link MissingWordsQuestion to Question--><g id="link_MissingWordsQuestion_Question"><path codeLine="65" d="M2208.5,136.0948 C2208.5,163.0848 2208.5,200.6348 2208.5,200.6348 C2208.5,200.6348 2298.31,200.6348 2298.31,200.6348 " fill="none" id="MissingWordsQuestion-to-Question" style="stroke:#181818;stroke-width:1.0;"/><polygon fill="none" points="2298.31,193.6348,2318.31,200.6348,2298.31,207.6348,2298.31,193.6348" style="stroke:#181818;stroke-width:1.0;"/></g><!--link TrueFalseQuestion to Question--><g id="link_TrueFalseQuestion_Question"><path codeLine="66" d="M2004.5,135.7548 C2004.5,164.3248 2004.5,205.6348 2004.5,205.6348 C2004.5,205.6348 2298.32,205.6348 2298.32,205.6348 " fill="none" id="TrueFalseQuestion-to-Question" style="stroke:#181818;stroke-width:1.0;"/><polygon fill="none" points="2298.32,198.6348,2318.32,205.6348,2298.32,212.6348,2298.32,198.6348" style="stroke:#181818;stroke-width:1.0;"/></g><!--link CourseTitle to Course--><g id="link_CourseTitle_Course"><path codeLine="80" d="M1079,277.8048 C1079,277.8048 1079,342.6348 1079,342.6348 C1079,342.6348 771.21,342.6348 771.21,342.6348 " fill="none" id="CourseTitle-Course" style="stroke:#181818;stroke-width:1.0;"/><polygon fill="#181818" points="1079,264.8048,1075,273.8048,1079,269.8048,1083,273.8048,1079,264.8048" style="stroke:#181818;stroke-width:1.0;"/><line style="stroke:#181818;stroke-width:1.0;" x1="1079" x2="1079" y1="269.8048" y2="277.8048"/><polygon fill="#181818" points="758.21,342.6348,764.21,346.6348,770.21,342.6348,764.21,338.6348,758.21,342.6348" style="stroke:#181818;stroke-width:1.0;"/><text fill="#000000" font-family="sans-serif" font-size="13" lengthAdjust="spacing" textLength="21" x="935.52" y="338.6631">has</text><text fill="#000000" font-family="sans-serif" font-size="13" lengthAdjust="spacing" textLength="7" x="1071.3984" y="286.3172">1</text><text fill="#000000" font-family="sans-serif" font-size="13" lengthAdjust="spacing" textLength="7" x="766.0847" y="335.1227">1</text></g><!--link Id to Course--><g id="link_Id_Course"><path codeLine="81" d="M867.24,260.6348 C867.24,260.6348 750.83,260.6348 750.83,260.6348 C750.83,260.6348 750.83,311.4048 750.83,311.4048 " fill="none" id="Id-Course" style="stroke:#181818;stroke-width:1.0;"/><polygon fill="#181818" points="880.24,260.6348,871.24,256.6348,875.24,260.6348,871.24,264.6348,880.24,260.6348" style="stroke:#181818;stroke-width:1.0;"/><line style="stroke:#181818;stroke-width:1.0;" x1="875.24" x2="867.24" y1="260.6348" y2="260.6348"/><polygon fill="#181818" points="750.83,324.4048,754.83,318.4048,750.83,312.4048,746.83,318.4048,750.83,324.4048" style="stroke:#181818;stroke-width:1.0;"/><text fill="#000000" font-family="sans-serif" font-size="13" lengthAdjust="spacing" textLength="21" x="761.65" y="275.6631">has</text><text fill="#000000" font-family="sans-serif" font-size="13" lengthAdjust="spacing" textLength="7" x="865.4113" y="260.6696">1</text><text fill="#000000" font-family="sans-serif" font-size="13" lengthAdjust="spacing" textLength="7" x="749.2304" y="313.2637">1</text></g><!--link CourseState to Course--><g id="link_CourseState_Course"><path codeLine="82" d="M743.67,269.8648 C743.67,269.8648 743.67,311.5848 743.67,311.5848 " fill="none" id="CourseState-Course" style="stroke:#181818;stroke-width:1.0;"/><polygon fill="#181818" points="743.67,256.8648,739.67,265.8648,743.67,261.8648,747.67,265.8648,743.67,256.8648" style="stroke:#181818;stroke-width:1.0;"/><line style="stroke:#181818;stroke-width:1.0;" x1="743.67" x2="743.67" y1="261.8648" y2="269.8648"/><polygon fill="#181818" points="743.67,324.5848,747.67,318.5848,743.67,312.5848,739.67,318.5848,743.67,324.5848" style="stroke:#181818;stroke-width:1.0;"/><text fill="#000000" font-family="sans-serif" font-size="13" lengthAdjust="spacing" textLength="21" x="721.67" y="286.7531">has</text><text fill="#000000" font-family="sans-serif" font-size="13" lengthAdjust="spacing" textLength="7" x="740.7055" y="313.478">1</text><text fill="#000000" font-family="sans-serif" font-size="13" lengthAdjust="spacing" textLength="7" x="726.1863" y="278.2324">1</text></g><!--link Capacity to Course--><g id="link_Capacity_Course"><path codeLine="83" d="M690.75,269.8648 C690.75,269.8648 690.75,311.5848 690.75,311.5848 " fill="none" id="Capacity-Course" style="stroke:#181818;stroke-width:1.0;"/><polygon fill="#181818" points="690.75,256.8648,686.75,265.8648,690.75,261.8648,694.75,265.8648,690.75,256.8648" style="stroke:#181818;stroke-width:1.0;"/><line style="stroke:#181818;stroke-width:1.0;" x1="690.75" x2="690.75" y1="261.8648" y2="269.8648"/><polygon fill="#181818" points="690.75,324.5848,694.75,318.5848,690.75,312.5848,686.75,318.5848,690.75,324.5848" style="stroke:#181818;stroke-width:1.0;"/><text fill="#000000" font-family="sans-serif" font-size="13" lengthAdjust="spacing" textLength="21" x="691.75" y="286.7531">has</text><text fill="#000000" font-family="sans-serif" font-size="13" lengthAdjust="spacing" textLength="7" x="677.6977" y="313.478">1</text><text fill="#000000" font-family="sans-serif" font-size="13" lengthAdjust="spacing" textLength="7" x="692.0516" y="278.2324">1</text></g><!--link EnrollementsState to Course--><g id="link_EnrollementsState_Course"><path codeLine="84" d="M484,269.7948 C484,269.7948 484,342.6348 484,342.6348 C484,342.6348 666.93,342.6348 666.93,342.6348 " fill="none" id="EnrollementsState-Course" style="stroke:#181818;stroke-width:1.0;"/><polygon fill="#181818" points="484,256.7948,480,265.7948,484,261.7948,488,265.7948,484,256.7948" style="stroke:#181818;stroke-width:1.0;"/><line style="stroke:#181818;stroke-width:1.0;" x1="484" x2="484" y1="261.7948" y2="269.7948"/><polygon fill="#181818" points="679.93,342.6348,673.93,338.6348,667.93,342.6348,673.93,346.6348,679.93,342.6348" style="stroke:#181818;stroke-width:1.0;"/><text fill="#000000" font-family="sans-serif" font-size="13" lengthAdjust="spacing" textLength="21" x="517.05" y="338.6631">has</text><text fill="#000000" font-family="sans-serif" font-size="13" lengthAdjust="spacing" textLength="7" x="476.2781" y="278.1479">1</text><text fill="#000000" font-family="sans-serif" font-size="13" lengthAdjust="spacing" textLength="7" x="665.0812" y="335.1227">1</text></g><!--link StudentRegistration to Course--><g id="link_StudentRegistration_Course"><path codeLine="85" d="M297,250.3648 C297,286.7948 297,359.6348 297,359.6348 C297,359.6348 674.68,359.6348 674.68,359.6348 " fill="none" id="StudentRegistration-to-Course" style="stroke:#181818;stroke-width:1.0;"/><polygon fill="#181818" points="679.68,359.6348,670.68,355.6348,674.68,359.6348,670.68,363.6348,679.68,359.6348" style="stroke:#181818;stroke-width:1.0;"/><text fill="#000000" font-family="sans-serif" font-size="13" lengthAdjust="spacing" textLength="21" x="409.21" y="355.6631">has</text><text fill="#000000" font-family="sans-serif" font-size="13" lengthAdjust="spacing" textLength="7" x="289.0594" y="272.1534">1</text><text fill="#000000" font-family="sans-serif" font-size="13" lengthAdjust="spacing" textLength="7" x="665.0527" y="355.3047">1</text></g><!--link TeacherRegistration to Course--><g id="link_TeacherRegistration_Course"><path codeLine="86" d="M103,250.1948 C103,290.3248 103,376.6348 103,376.6348 C103,376.6348 675,376.6348 675,376.6348 " fill="none" id="TeacherRegistration-to-Course" style="stroke:#181818;stroke-width:1.0;"/><polygon fill="#181818" points="680,376.6348,671,372.6348,675,376.6348,671,380.6348,680,376.6348" style="stroke:#181818;stroke-width:1.0;"/><text fill="#000000" font-family="sans-serif" font-size="13" lengthAdjust="spacing" textLength="21" x="303.78" y="372.6631">has</text><text fill="#000000" font-family="sans-serif" font-size="13" lengthAdjust="spacing" textLength="7" x="95.0156" y="272.2965">1</text><text fill="#000000" font-family="sans-serif" font-size="13" lengthAdjust="spacing" textLength="7" x="664.8984" y="375.45">1</text></g><!--link Course to Exam--><g id="link_Course_Exam"><path codeLine="87" d="M771.15,359.6348 C771.15,359.6348 1454.12,359.6348 1454.12,359.6348 " fill="none" id="Course-Exam-1" style="stroke:#181818;stroke-width:1.0;"/><polygon fill="#181818" points="758.15,359.6348,764.15,363.6348,770.15,359.6348,764.15,355.6348,758.15,359.6348" style="stroke:#181818;stroke-width:1.0;"/><polygon fill="#181818" points="1467.12,359.6348,1458.12,355.6348,1462.12,359.6348,1458.12,363.6348,1467.12,359.6348" style="stroke:#181818;stroke-width:1.0;"/><line style="stroke:#181818;stroke-width:1.0;" x1="1462.12" x2="1454.12" y1="359.6348" y2="359.6348"/><text fill="#000000" font-family="sans-serif" font-size="13" lengthAdjust="spacing" textLength="21" x="1090.63" y="355.6631">has</text><text fill="#000000" font-family="sans-serif" font-size="13" lengthAdjust="spacing" textLength="7" x="1452.6132" y="355.2094">1</text><text fill="#000000" font-family="sans-serif" font-size="13" lengthAdjust="spacing" textLength="5" x="766.0895" y="355.2094">*</text></g><!--SRC=[fLR9Rjim4BthAmZbqXfrW1O8K0I2WJQEsnpIeBNHdcbfBB6XH9LBcY3DlsT4obgYpMvyyARtXZDl7eTCM0Ga1Ps8I7cUkcLPJYLDIKx3Mnh3MZzm8192JREOGmF0MGRw8GSY998zJukSQ46sGckHaeWL72OoVC0qXbYAbBACB2Mx0_m0nUBCAnSXVX3GE9OGKmsB1RcyfwbFWc0bU0GI_pZPuejIykWHGY33Y0yMX1WfX4P44BY_5mkB8K_sFUHKAU9lYWnyGfKbsLz8UFFptSddZn_EpbPloHtb1YlP_iQaRJIJiJ-coEMn6MdjQcgirdx-5IWcFFXu0_VQK8x5XvBbPQIHD5hacnoo9Ufp1EM22mL7SWg5_Y_15K2qnOQMZJcKjcIx7GiDnvOUJjgWyMvsNoJAFScojB8p_dkVpERpXVtoijHpab0rY6ukEOvi2N6-HzfVBLpLqJfS5rJtS0nL-zgXB6plrdOPNG_MWTiCKr8Q7R9G4biHnCxhpURqTEPNaSQIBhMh5BeGHYheX78oLd4sGCEabBnPFa922IYKyh3d0vFbkm5LvDMUBg5zkUco7ozxPD-8QNjnZtpThZc2SfZjQ_odJFsrKscOyDhzU4rrcB0iRgZMBzOr1cOvXuj4i10cuUi4JnUN_oJscqb1if3owIIOKfZiBo4ZDGdUI0ChojLGifrDO6hhLXItR-wePC8u6rUFMbkYpqkrzVivPNkdO2ydLp-gikCKS7We59oE7-RpV_NkSv1-9tI1VHxeehhTxrcoh-zTMBVZROpdx34uPDmSQuyOIeihJEi2KuwxOwymZlQAIynLDCMxYZet2RleMXVd4ERWss_-CLSHYcAnesRAPIO5vv2YAigjVD19tzIdC6emdy_SIUhqhesDGem3cbLF8FVbZSEw9OtZrzf4YFq1CLDQqceNLfU3buJoS3oSuERMh4Y2zsNnv3q3]--></g></svg>