<?xml version="1.0" encoding="UTF-8" standalone="no"?><svg xmlns="http://www.w3.org/2000/svg" xmlns:xlink="http://www.w3.org/1999/xlink" contentStyleType="text/css" height="235.2px" preserveAspectRatio="none" style="width:360px;height:235px;background:#FFFFFF;" version="1.1" viewBox="0 0 360 235" width="360.8px" zoomAndPan="magnify"><defs/><g><rect fill="#FFFFFF" height="84.875" style="stroke:#181818;stroke-width:0.8000000000000002;" width="8" x="14" y="72.5125"/><rect fill="#FFFFFF" height="22.8188" style="stroke:#181818;stroke-width:0.8000000000000002;" width="8" x="334" y="88.9313"/><rect fill="#FFFFFF" height="22.8188" style="stroke:#181818;stroke-width:0.8000000000000002;" width="8" x="334" y="134.5688"/><line style="stroke:#181818;stroke-width:0.4000000000000001;stroke-dasharray:5.0,5.0;" x1="17.6" x2="17.6" y1="64.5125" y2="171.7875"/><line style="stroke:#181818;stroke-width:0.4000000000000001;stroke-dasharray:5.0,5.0;" x1="338" x2="338" y1="64.5125" y2="171.7875"/><text fill="#000000" font-family="sans-serif" font-size="11.2" lengthAdjust="spacing" textLength="23.2" x="4" y="62.1391">User</text><ellipse cx="18" cy="10.8" fill="#E2E2F0" rx="6.4" ry="6.4" style="stroke:#181818;stroke-width:0.4000000000000001;"/><path d="M18,17.2 L18,38.8 M7.6,23.6 L28.4,23.6 M18,38.8 L7.6,50.8 M18,38.8 L28.4,50.8 " fill="none" style="stroke:#181818;stroke-width:0.4000000000000001;"/><text fill="#000000" font-family="sans-serif" font-size="11.2" lengthAdjust="spacing" textLength="23.2" x="4" y="181.1266">User</text><ellipse cx="18" cy="190.3" fill="#E2E2F0" rx="6.4" ry="6.4" style="stroke:#181818;stroke-width:0.4000000000000001;"/><path d="M18,196.7 L18,218.3 M7.6,203.1 L28.4,203.1 M18,218.3 L7.6,230.3 M18,218.3 L28.4,230.3 " fill="none" style="stroke:#181818;stroke-width:0.4000000000000001;"/><text fill="#000000" font-family="sans-serif" font-size="11.2" lengthAdjust="spacing" textLength="40" x="315.6" y="62.1391">:System</text><ellipse cx="338" cy="10.8" fill="#E2E2F0" rx="6.4" ry="6.4" style="stroke:#181818;stroke-width:0.4000000000000001;"/><path d="M338,17.2 L338,38.8 M327.6,23.6 L348.4,23.6 M338,38.8 L327.6,50.8 M338,38.8 L348.4,50.8 " fill="none" style="stroke:#181818;stroke-width:0.4000000000000001;"/><text fill="#000000" font-family="sans-serif" font-size="11.2" lengthAdjust="spacing" textLength="40" x="315.6" y="181.1266">:System</text><ellipse cx="338" cy="190.3" fill="#E2E2F0" rx="6.4" ry="6.4" style="stroke:#181818;stroke-width:0.4000000000000001;"/><path d="M338,196.7 L338,218.3 M327.6,203.1 L348.4,203.1 M338,218.3 L327.6,230.3 M338,218.3 L348.4,230.3 " fill="none" style="stroke:#181818;stroke-width:0.4000000000000001;"/><rect fill="#FFFFFF" height="84.875" style="stroke:#181818;stroke-width:0.8000000000000002;" width="8" x="14" y="72.5125"/><rect fill="#FFFFFF" height="22.8188" style="stroke:#181818;stroke-width:0.8000000000000002;" width="8" x="334" y="88.9313"/><rect fill="#FFFFFF" height="22.8188" style="stroke:#181818;stroke-width:0.8000000000000002;" width="8" x="334" y="134.5688"/><polygon fill="#181818" points="324.4,85.7313,332.4,88.9313,324.4,92.1313,327.6,88.9313" style="stroke:#181818;stroke-width:0.8000000000000002;"/><line style="stroke:#181818;stroke-width:0.8000000000000002;" x1="22" x2="329.2" y1="88.9313" y2="88.9313"/><text fill="#000000" font-family="sans-serif" font-size="10.4" font-weight="bold" lengthAdjust="spacing" textLength="5.6" x="27.6" y="85.1273">1</text><text fill="#000000" font-family="sans-serif" font-size="10.4" lengthAdjust="spacing" textLength="160" x="36.4" y="85.1273">Asks to accept or reject a meeting</text><polygon fill="#181818" points="30.8,108.55,22.8,111.75,30.8,114.95,27.6,111.75" style="stroke:#181818;stroke-width:0.8000000000000002;"/><line style="stroke:#181818;stroke-width:0.8000000000000002;stroke-dasharray:2.0,2.0;" x1="26" x2="337.2" y1="111.75" y2="111.75"/><text fill="#000000" font-family="sans-serif" font-size="10.4" font-weight="bold" lengthAdjust="spacing" textLength="5.6" x="35.6" y="107.9461">2</text><text fill="#000000" font-family="sans-serif" font-size="10.4" lengthAdjust="spacing" textLength="284" x="44.4" y="107.9461">Shows the meeting and ask for data(meetingParticipantState)</text><polygon fill="#181818" points="324.4,131.3688,332.4,134.5688,324.4,137.7688,327.6,134.5688" style="stroke:#181818;stroke-width:0.8000000000000002;"/><line style="stroke:#181818;stroke-width:0.8000000000000002;" x1="22" x2="329.2" y1="134.5688" y2="134.5688"/><text fill="#000000" font-family="sans-serif" font-size="10.4" font-weight="bold" lengthAdjust="spacing" textLength="5.6" x="27.6" y="130.7648">3</text><text fill="#000000" font-family="sans-serif" font-size="10.4" lengthAdjust="spacing" textLength="45.6" x="36.4" y="130.7648">Input data</text><polygon fill="#181818" points="26.8,154.1875,18.8,157.3875,26.8,160.5875,23.6,157.3875" style="stroke:#181818;stroke-width:0.8000000000000002;"/><line style="stroke:#181818;stroke-width:0.8000000000000002;stroke-dasharray:2.0,2.0;" x1="22" x2="337.2" y1="157.3875" y2="157.3875"/><text fill="#000000" font-family="sans-serif" font-size="10.4" font-weight="bold" lengthAdjust="spacing" textLength="5.6" x="31.6" y="153.5836">4</text><text fill="#000000" font-family="sans-serif" font-size="10.4" lengthAdjust="spacing" textLength="127.2" x="40.4" y="153.5836">Inform success of operation</text><!--MD5=[2b28043590d926b8ca2678ebc7e159e9]
@startuml

autonumber
actor "User" as MNG
actor ":System" as SYS

activate MNG
MNG -> SYS : Asks to accept or reject a meeting
activate SYS
SYS - -> MNG : Shows the meeting and ask for data(meetingParticipantState)
deactivate SYS
MNG -> SYS : Input data
activate SYS
SYS - -> MNG : Inform success of operation
deactivate SYS
deactivate MNG

@enduml

PlantUML version 1.2022.12(Sun Oct 23 19:12:26 WEST 2022)
(GPL source distribution)
Java Runtime: OpenJDK Runtime Environment
JVM: OpenJDK 64-Bit Server VM
Default Encoding: Cp1252
Language: pt
Country: PT
--></g></svg>