<?xml version="1.0" encoding="us-ascii" standalone="no"?><svg xmlns="http://www.w3.org/2000/svg" xmlns:xlink="http://www.w3.org/1999/xlink" contentStyleType="text/css" height="727px" preserveAspectRatio="none" style="width:2447px;height:727px;background:#FFFFFF;" version="1.1" viewBox="0 0 2447 727" width="2447px" zoomAndPan="magnify"><defs/><g><text fill="#000000" font-family="sans-serif" font-size="14" font-weight="bold" lengthAdjust="spacing" textLength="156" x="1138.5" y="25.1074">Domain Driven Design</text><!--cluster <<aggregate>> User--><g id="cluster_&lt;&lt;aggregate&gt;&gt; User"><path d="M8.5,295.6348 L134.5,295.6348 A3.75,3.75 0 0 1 137,298.1348 L144,320.2559 L433.5,320.2559 A2.5,2.5 0 0 1 436,322.7559 L436,718.1348 A2.5,2.5 0 0 1 433.5,720.6348 L8.5,720.6348 A2.5,2.5 0 0 1 6,718.1348 L6,298.1348 A2.5,2.5 0 0 1 8.5,295.6348 " fill="#FFB380" style="stroke:#000000;stroke-width:1.5;"/><line style="stroke:#000000;stroke-width:1.5;" x1="6" x2="144" y1="320.2559" y2="320.2559"/><text fill="#000000" font-family="sans-serif" font-size="14" font-weight="bold" lengthAdjust="spacing" textLength="125" x="10" y="312.7422">&#171;aggregate&#187; User</text></g><!--cluster <<aggregate>> Profile--><g id="cluster_&lt;&lt;aggregate&gt;&gt; Profile"><path d="M462.5,45.6348 L601.5,45.6348 A3.75,3.75 0 0 1 604,48.1348 L611,70.2559 L1380.5,70.2559 A2.5,2.5 0 0 1 1383,72.7559 L1383,407.1348 A2.5,2.5 0 0 1 1380.5,409.6348 L462.5,409.6348 A2.5,2.5 0 0 1 460,407.1348 L460,48.1348 A2.5,2.5 0 0 1 462.5,45.6348 " fill="#99B3FF" style="stroke:#000000;stroke-width:1.5;"/><line style="stroke:#000000;stroke-width:1.5;" x1="460" x2="611" y1="70.2559" y2="70.2559"/><text fill="#000000" font-family="sans-serif" font-size="14" font-weight="bold" lengthAdjust="spacing" textLength="138" x="464" y="62.7422">&#171;aggregate&#187; Profile</text></g><!--cluster <<aggregate>> Student Registration--><g id="cluster_&lt;&lt;aggregate&gt;&gt; Student Registration"><path d="M1409.5,287.6348 L1647.5,287.6348 A3.75,3.75 0 0 1 1650,290.1348 L1657,312.2559 L1657.5,312.2559 A2.5,2.5 0 0 1 1660,314.7559 L1660,554.6348 A2.5,2.5 0 0 1 1657.5,557.1348 L1409.5,557.1348 A2.5,2.5 0 0 1 1407,554.6348 L1407,290.1348 A2.5,2.5 0 0 1 1409.5,287.6348 " fill="#DDAAAA" style="stroke:#000000;stroke-width:1.5;"/><line style="stroke:#000000;stroke-width:1.5;" x1="1407" x2="1657" y1="312.2559" y2="312.2559"/><text fill="#000000" font-family="sans-serif" font-size="14" font-weight="bold" lengthAdjust="spacing" textLength="237" x="1411" y="304.7422">&#171;aggregate&#187; Student Registration</text></g><!--cluster <<aggregate>> Course--><g id="cluster_&lt;&lt;aggregate&gt;&gt; Course"><path d="M1686.5,287.6348 L1830.5,287.6348 A3.75,3.75 0 0 1 1833,290.1348 L1840,312.2559 L2437.5,312.2559 A2.5,2.5 0 0 1 2440,314.7559 L2440,554.6348 A2.5,2.5 0 0 1 2437.5,557.1348 L1686.5,557.1348 A2.5,2.5 0 0 1 1684,554.6348 L1684,290.1348 A2.5,2.5 0 0 1 1686.5,287.6348 " fill="#AABBBB" style="stroke:#000000;stroke-width:1.5;"/><line style="stroke:#000000;stroke-width:1.5;" x1="1684" x2="1840" y1="312.2559" y2="312.2559"/><text fill="#000000" font-family="sans-serif" font-size="14" font-weight="bold" lengthAdjust="spacing" textLength="143" x="1688" y="304.7422">&#171;aggregate&#187; Course</text></g><!--class User--><g id="elem_User"><rect codeLine="13" fill="#F1F1F1" height="105.7852" id="User" rx="2.5" ry="2.5" style="stroke:#181818;stroke-width:0.5;" width="121" x="249.5" y="453.6348"/><ellipse cx="287" cy="483.9063" fill="#ADD1B2" rx="11" ry="11" style="stroke:#181818;stroke-width:1.0;"/><path d="M285.8594,484.7031 L285.8594,487.2031 L290.1875,487.2031 L290.1875,486.2813 Q290.1875,485.6719 290.4219,485.4063 Q290.6719,485.1406 291.0469,485.1406 Q291.4219,485.1406 291.6563,485.4063 Q291.8906,485.6719 291.8906,486.2813 L291.8906,488.9063 L283.8906,488.9063 Q283.2656,488.9063 283,488.6719 Q282.75,488.4375 282.75,488.0469 Q282.75,487.6719 283.0156,487.4375 Q283.2813,487.2031 283.8906,487.2031 L284.1563,487.2031 L284.1563,480.5469 L283.8906,480.5469 Q283.2656,480.5469 283,480.3125 Q282.75,480.0781 282.75,479.6875 Q282.75,479.3125 283,479.0781 Q283.2656,478.8438 283.8906,478.8438 L291.5156,478.8438 L291.5156,481.4375 Q291.5156,482.0469 291.2813,482.3125 Q291.0625,482.5625 290.6719,482.5625 Q290.2969,482.5625 290.0625,482.3125 Q289.8281,482.0469 289.8281,481.4375 L289.8281,480.5469 L285.8594,480.5469 L285.8594,483 L287.3438,483 Q287.3438,482.3438 287.4688,482.1563 Q287.7344,481.75 288.2031,481.75 Q288.5781,481.75 288.8125,482.0156 Q289.0469,482.2656 289.0469,482.875 L289.0469,484.8438 Q289.0469,485.3906 288.9219,485.5781 Q288.6563,485.9688 288.2031,485.9688 Q287.7344,485.9688 287.4688,485.5625 Q287.3438,485.375 287.3438,484.7031 L285.8594,484.7031 Z " fill="#000000"/><text fill="#000000" font-family="sans-serif" font-size="12" font-style="italic" lengthAdjust="spacing" textLength="35" x="308" y="471.584">&#171;root&#187;</text><text fill="#000000" font-family="sans-serif" font-size="12" font-style="italic" lengthAdjust="spacing" textLength="43" x="304" y="487.5449">&#171;entity&#187;</text><text fill="#000000" font-family="sans-serif" font-size="14" lengthAdjust="spacing" textLength="29" x="311" y="505.6641">User</text><line style="stroke:#181818;stroke-width:0.5;" x1="250.5" x2="369.5" y1="514.1777" y2="514.1777"/><text fill="#000000" font-family="sans-serif" font-size="14" lengthAdjust="spacing" textLength="95" x="255.5" y="533.2852">String fullName</text><text fill="#000000" font-family="sans-serif" font-size="14" lengthAdjust="spacing" textLength="109" x="255.5" y="551.9063">String shortName</text></g><!--class Role--><g id="elem_Role"><rect codeLine="18" fill="#F1F1F1" height="52.582" id="Role" rx="2.5" ry="2.5" style="stroke:#181818;stroke-width:0.5;" width="109" x="22.5" y="635.6348"/><ellipse cx="37.5" cy="657.9258" fill="#B8255F" rx="11" ry="11" style="stroke:#181818;stroke-width:1.0;"/><path d="M38.0938,661.1914 L40.5625,655.3164 L40.1719,655.3164 Q39.5625,655.3164 39.2969,655.082 Q39.0313,654.8477 39.0313,654.457 Q39.0313,654.082 39.2969,653.8477 Q39.5625,653.6133 40.1719,653.6133 L42.4531,653.6133 Q43.0625,653.6133 43.3281,653.8477 Q43.5938,654.082 43.5938,654.457 Q43.5938,654.9258 43.1875,655.1914 Q43,655.3164 42.4063,655.3164 L38.9219,663.6758 L37.2813,663.6758 L33.7969,655.3164 Q33.2031,655.3164 33.0156,655.1914 Q32.6094,654.9258 32.6094,654.457 Q32.6094,654.082 32.875,653.8477 Q33.1406,653.6133 33.75,653.6133 L36.0469,653.6133 Q36.6563,653.6133 36.9063,653.8477 Q37.1719,654.082 37.1719,654.457 Q37.1719,654.8477 36.9063,655.082 Q36.6563,655.3164 36.0469,655.3164 L35.6406,655.3164 L38.0938,661.1914 Z " fill="#000000"/><text fill="#000000" font-family="sans-serif" font-size="12" font-style="italic" lengthAdjust="spacing" textLength="81" x="49.5" y="653.584">&#171;value object&#187;</text><text fill="#000000" font-family="sans-serif" font-size="14" lengthAdjust="spacing" textLength="29" x="75.5" y="671.7031">Role</text><line style="stroke:#181818;stroke-width:0.5;" x1="23.5" x2="130.5" y1="680.2168" y2="680.2168"/></g><!--class Password--><g id="elem_Password"><rect codeLine="19" fill="#F1F1F1" height="52.582" id="Password" rx="2.5" ry="2.5" style="stroke:#181818;stroke-width:0.5;" width="109" x="166.5" y="635.6348"/><ellipse cx="181.5" cy="657.9258" fill="#B8255F" rx="11" ry="11" style="stroke:#181818;stroke-width:1.0;"/><path d="M182.0938,661.1914 L184.5625,655.3164 L184.1719,655.3164 Q183.5625,655.3164 183.2969,655.082 Q183.0313,654.8477 183.0313,654.457 Q183.0313,654.082 183.2969,653.8477 Q183.5625,653.6133 184.1719,653.6133 L186.4531,653.6133 Q187.0625,653.6133 187.3281,653.8477 Q187.5938,654.082 187.5938,654.457 Q187.5938,654.9258 187.1875,655.1914 Q187,655.3164 186.4063,655.3164 L182.9219,663.6758 L181.2813,663.6758 L177.7969,655.3164 Q177.2031,655.3164 177.0156,655.1914 Q176.6094,654.9258 176.6094,654.457 Q176.6094,654.082 176.875,653.8477 Q177.1406,653.6133 177.75,653.6133 L180.0469,653.6133 Q180.6563,653.6133 180.9063,653.8477 Q181.1719,654.082 181.1719,654.457 Q181.1719,654.8477 180.9063,655.082 Q180.6563,655.3164 180.0469,655.3164 L179.6406,655.3164 L182.0938,661.1914 Z " fill="#000000"/><text fill="#000000" font-family="sans-serif" font-size="12" font-style="italic" lengthAdjust="spacing" textLength="81" x="193.5" y="653.584">&#171;value object&#187;</text><text fill="#000000" font-family="sans-serif" font-size="14" lengthAdjust="spacing" textLength="61" x="203.5" y="671.7031">Password</text><line style="stroke:#181818;stroke-width:0.5;" x1="167.5" x2="274.5" y1="680.2168" y2="680.2168"/></g><!--class Email--><g id="elem_Email"><rect codeLine="20" fill="#F1F1F1" height="84.5039" id="Email" rx="2.5" ry="2.5" style="stroke:#181818;stroke-width:0.5;" width="109" x="310.5" y="619.6348"/><ellipse cx="325.5" cy="657.8867" fill="#B8255F" rx="11" ry="11" style="stroke:#181818;stroke-width:1.0;"/><path d="M326.0938,661.1523 L328.5625,655.2773 L328.1719,655.2773 Q327.5625,655.2773 327.2969,655.043 Q327.0313,654.8086 327.0313,654.418 Q327.0313,654.043 327.2969,653.8086 Q327.5625,653.5742 328.1719,653.5742 L330.4531,653.5742 Q331.0625,653.5742 331.3281,653.8086 Q331.5938,654.043 331.5938,654.418 Q331.5938,654.8867 331.1875,655.1523 Q331,655.2773 330.4063,655.2773 L326.9219,663.6367 L325.2813,663.6367 L321.7969,655.2773 Q321.2031,655.2773 321.0156,655.1523 Q320.6094,654.8867 320.6094,654.418 Q320.6094,654.043 320.875,653.8086 Q321.1406,653.5742 321.75,653.5742 L324.0469,653.5742 Q324.6563,653.5742 324.9063,653.8086 Q325.1719,654.043 325.1719,654.418 Q325.1719,654.8086 324.9063,655.043 Q324.6563,655.2773 324.0469,655.2773 L323.6406,655.2773 L326.0938,661.1523 Z " fill="#000000"/><text fill="#000000" font-family="sans-serif" font-size="12" font-style="italic" lengthAdjust="spacing" textLength="25" x="365.5" y="637.584">&#171;Id&#187;</text><text fill="#000000" font-family="sans-serif" font-size="12" font-style="italic" lengthAdjust="spacing" textLength="52" x="352" y="653.5449">&#171;unique&#187;</text><text fill="#000000" font-family="sans-serif" font-size="12" font-style="italic" lengthAdjust="spacing" textLength="81" x="337.5" y="669.5059">&#171;value object&#187;</text><text fill="#000000" font-family="sans-serif" font-size="14" lengthAdjust="spacing" textLength="34" x="361" y="687.625">Email</text><line style="stroke:#181818;stroke-width:0.5;" x1="311.5" x2="418.5" y1="696.1387" y2="696.1387"/></g><!--class Student--><g id="elem_Student"><rect codeLine="21" fill="#F1F1F1" height="52.582" id="Student" rx="2.5" ry="2.5" style="stroke:#181818;stroke-width:0.5;" width="81" x="338.5" y="332.6348"/><ellipse cx="353.5" cy="354.9258" fill="#ADD1B2" rx="11" ry="11" style="stroke:#181818;stroke-width:1.0;"/><path d="M352.3594,355.7227 L352.3594,358.2227 L356.6875,358.2227 L356.6875,357.3008 Q356.6875,356.6914 356.9219,356.4258 Q357.1719,356.1602 357.5469,356.1602 Q357.9219,356.1602 358.1563,356.4258 Q358.3906,356.6914 358.3906,357.3008 L358.3906,359.9258 L350.3906,359.9258 Q349.7656,359.9258 349.5,359.6914 Q349.25,359.457 349.25,359.0664 Q349.25,358.6914 349.5156,358.457 Q349.7813,358.2227 350.3906,358.2227 L350.6563,358.2227 L350.6563,351.5664 L350.3906,351.5664 Q349.7656,351.5664 349.5,351.332 Q349.25,351.0977 349.25,350.707 Q349.25,350.332 349.5,350.0977 Q349.7656,349.8633 350.3906,349.8633 L358.0156,349.8633 L358.0156,352.457 Q358.0156,353.0664 357.7813,353.332 Q357.5625,353.582 357.1719,353.582 Q356.7969,353.582 356.5625,353.332 Q356.3281,353.0664 356.3281,352.457 L356.3281,351.5664 L352.3594,351.5664 L352.3594,354.0195 L353.8438,354.0195 Q353.8438,353.3633 353.9688,353.1758 Q354.2344,352.7695 354.7031,352.7695 Q355.0781,352.7695 355.3125,353.0352 Q355.5469,353.2852 355.5469,353.8945 L355.5469,355.8633 Q355.5469,356.4102 355.4219,356.5977 Q355.1563,356.9883 354.7031,356.9883 Q354.2344,356.9883 353.9688,356.582 Q353.8438,356.3945 353.8438,355.7227 L352.3594,355.7227 Z " fill="#000000"/><text fill="#000000" font-family="sans-serif" font-size="12" font-style="italic" lengthAdjust="spacing" textLength="43" x="370.5" y="350.584">&#171;entity&#187;</text><text fill="#000000" font-family="sans-serif" font-size="14" lengthAdjust="spacing" textLength="49" x="367.5" y="368.7031">Student</text><line style="stroke:#181818;stroke-width:0.5;" x1="339.5" x2="418.5" y1="377.2168" y2="377.2168"/></g><!--class Teacher--><g id="elem_Teacher"><rect codeLine="22" fill="#F1F1F1" height="52.582" id="Teacher" rx="2.5" ry="2.5" style="stroke:#181818;stroke-width:0.5;" width="85" x="218.5" y="332.6348"/><ellipse cx="233.5" cy="354.9258" fill="#ADD1B2" rx="11" ry="11" style="stroke:#181818;stroke-width:1.0;"/><path d="M232.3594,355.7227 L232.3594,358.2227 L236.6875,358.2227 L236.6875,357.3008 Q236.6875,356.6914 236.9219,356.4258 Q237.1719,356.1602 237.5469,356.1602 Q237.9219,356.1602 238.1563,356.4258 Q238.3906,356.6914 238.3906,357.3008 L238.3906,359.9258 L230.3906,359.9258 Q229.7656,359.9258 229.5,359.6914 Q229.25,359.457 229.25,359.0664 Q229.25,358.6914 229.5156,358.457 Q229.7813,358.2227 230.3906,358.2227 L230.6563,358.2227 L230.6563,351.5664 L230.3906,351.5664 Q229.7656,351.5664 229.5,351.332 Q229.25,351.0977 229.25,350.707 Q229.25,350.332 229.5,350.0977 Q229.7656,349.8633 230.3906,349.8633 L238.0156,349.8633 L238.0156,352.457 Q238.0156,353.0664 237.7813,353.332 Q237.5625,353.582 237.1719,353.582 Q236.7969,353.582 236.5625,353.332 Q236.3281,353.0664 236.3281,352.457 L236.3281,351.5664 L232.3594,351.5664 L232.3594,354.0195 L233.8438,354.0195 Q233.8438,353.3633 233.9688,353.1758 Q234.2344,352.7695 234.7031,352.7695 Q235.0781,352.7695 235.3125,353.0352 Q235.5469,353.2852 235.5469,353.8945 L235.5469,355.8633 Q235.5469,356.4102 235.4219,356.5977 Q235.1563,356.9883 234.7031,356.9883 Q234.2344,356.9883 233.9688,356.582 Q233.8438,356.3945 233.8438,355.7227 L232.3594,355.7227 Z " fill="#000000"/><text fill="#000000" font-family="sans-serif" font-size="12" font-style="italic" lengthAdjust="spacing" textLength="43" x="252.5" y="350.584">&#171;entity&#187;</text><text fill="#000000" font-family="sans-serif" font-size="14" lengthAdjust="spacing" textLength="53" x="247.5" y="368.7031">Teacher</text><line style="stroke:#181818;stroke-width:0.5;" x1="219.5" x2="302.5" y1="377.2168" y2="377.2168"/></g><!--class Manager--><g id="elem_Manager"><rect codeLine="23" fill="#F1F1F1" height="52.582" id="Manager" rx="2.5" ry="2.5" style="stroke:#181818;stroke-width:0.5;" width="88" x="95" y="332.6348"/><ellipse cx="110" cy="354.9258" fill="#ADD1B2" rx="11" ry="11" style="stroke:#181818;stroke-width:1.0;"/><path d="M108.8594,355.7227 L108.8594,358.2227 L113.1875,358.2227 L113.1875,357.3008 Q113.1875,356.6914 113.4219,356.4258 Q113.6719,356.1602 114.0469,356.1602 Q114.4219,356.1602 114.6563,356.4258 Q114.8906,356.6914 114.8906,357.3008 L114.8906,359.9258 L106.8906,359.9258 Q106.2656,359.9258 106,359.6914 Q105.75,359.457 105.75,359.0664 Q105.75,358.6914 106.0156,358.457 Q106.2813,358.2227 106.8906,358.2227 L107.1563,358.2227 L107.1563,351.5664 L106.8906,351.5664 Q106.2656,351.5664 106,351.332 Q105.75,351.0977 105.75,350.707 Q105.75,350.332 106,350.0977 Q106.2656,349.8633 106.8906,349.8633 L114.5156,349.8633 L114.5156,352.457 Q114.5156,353.0664 114.2813,353.332 Q114.0625,353.582 113.6719,353.582 Q113.2969,353.582 113.0625,353.332 Q112.8281,353.0664 112.8281,352.457 L112.8281,351.5664 L108.8594,351.5664 L108.8594,354.0195 L110.3438,354.0195 Q110.3438,353.3633 110.4688,353.1758 Q110.7344,352.7695 111.2031,352.7695 Q111.5781,352.7695 111.8125,353.0352 Q112.0469,353.2852 112.0469,353.8945 L112.0469,355.8633 Q112.0469,356.4102 111.9219,356.5977 Q111.6563,356.9883 111.2031,356.9883 Q110.7344,356.9883 110.4688,356.582 Q110.3438,356.3945 110.3438,355.7227 L108.8594,355.7227 Z " fill="#000000"/><text fill="#000000" font-family="sans-serif" font-size="12" font-style="italic" lengthAdjust="spacing" textLength="43" x="130.5" y="350.584">&#171;entity&#187;</text><text fill="#000000" font-family="sans-serif" font-size="14" lengthAdjust="spacing" textLength="56" x="124" y="368.7031">Manager</text><line style="stroke:#181818;stroke-width:0.5;" x1="96" x2="182" y1="377.2168" y2="377.2168"/></g><!--class Profile--><g id="elem_Profile"><rect codeLine="35" fill="#F1F1F1" height="68.543" id="Profile" rx="2.5" ry="2.5" style="stroke:#181818;stroke-width:0.5;" width="72" x="787" y="324.6348"/><ellipse cx="802" cy="354.9063" fill="#ADD1B2" rx="11" ry="11" style="stroke:#181818;stroke-width:1.0;"/><path d="M800.8594,355.7031 L800.8594,358.2031 L805.1875,358.2031 L805.1875,357.2813 Q805.1875,356.6719 805.4219,356.4063 Q805.6719,356.1406 806.0469,356.1406 Q806.4219,356.1406 806.6563,356.4063 Q806.8906,356.6719 806.8906,357.2813 L806.8906,359.9063 L798.8906,359.9063 Q798.2656,359.9063 798,359.6719 Q797.75,359.4375 797.75,359.0469 Q797.75,358.6719 798.0156,358.4375 Q798.2813,358.2031 798.8906,358.2031 L799.1563,358.2031 L799.1563,351.5469 L798.8906,351.5469 Q798.2656,351.5469 798,351.3125 Q797.75,351.0781 797.75,350.6875 Q797.75,350.3125 798,350.0781 Q798.2656,349.8438 798.8906,349.8438 L806.5156,349.8438 L806.5156,352.4375 Q806.5156,353.0469 806.2813,353.3125 Q806.0625,353.5625 805.6719,353.5625 Q805.2969,353.5625 805.0625,353.3125 Q804.8281,353.0469 804.8281,352.4375 L804.8281,351.5469 L800.8594,351.5469 L800.8594,354 L802.3438,354 Q802.3438,353.3438 802.4688,353.1563 Q802.7344,352.75 803.2031,352.75 Q803.5781,352.75 803.8125,353.0156 Q804.0469,353.2656 804.0469,353.875 L804.0469,355.8438 Q804.0469,356.3906 803.9219,356.5781 Q803.6563,356.9688 803.2031,356.9688 Q802.7344,356.9688 802.4688,356.5625 Q802.3438,356.375 802.3438,355.7031 L800.8594,355.7031 Z " fill="#000000"/><text fill="#000000" font-family="sans-serif" font-size="12" font-style="italic" lengthAdjust="spacing" textLength="35" x="818.5" y="342.584">&#171;root&#187;</text><text fill="#000000" font-family="sans-serif" font-size="12" font-style="italic" lengthAdjust="spacing" textLength="43" x="814.5" y="358.5449">&#171;entity&#187;</text><text fill="#000000" font-family="sans-serif" font-size="14" lengthAdjust="spacing" textLength="40" x="816" y="376.6641">Profile</text><line style="stroke:#181818;stroke-width:0.5;" x1="788" x2="858" y1="385.1777" y2="385.1777"/></g><!--class TeacherProfile--><g id="elem_TeacherProfile"><rect codeLine="37" fill="#F1F1F1" height="52.582" id="TeacherProfile" rx="2.5" ry="2.5" style="stroke:#181818;stroke-width:0.5;" width="125" x="602.5" y="203.6348"/><ellipse cx="617.5" cy="225.9258" fill="#ADD1B2" rx="11" ry="11" style="stroke:#181818;stroke-width:1.0;"/><path d="M620.2656,221.8008 Q620.4219,221.582 620.6094,221.4727 Q620.7969,221.3633 621.0156,221.3633 Q621.3906,221.3633 621.625,221.6289 Q621.8594,221.8789 621.8594,222.4883 L621.8594,223.9414 Q621.8594,224.5508 621.625,224.8164 Q621.3906,225.082 621.0156,225.082 Q620.6719,225.082 620.4688,224.8789 Q620.2656,224.6914 620.1563,224.1758 Q620.1094,223.8164 619.9219,223.6289 Q619.5938,223.2539 618.9844,223.0352 Q618.375,222.8164 617.75,222.8164 Q616.9844,222.8164 616.3438,223.1445 Q615.7188,223.4727 615.2188,224.2227 Q614.7344,224.9727 614.7344,226.0039 L614.7344,227.0977 Q614.7344,228.332 615.625,229.1602 Q616.5156,229.9727 618.1094,229.9727 Q619.0469,229.9727 619.7031,229.7227 Q620.0938,229.5664 620.5156,229.1289 Q620.7813,228.8633 620.9219,228.7852 Q621.0781,228.707 621.2813,228.707 Q621.6094,228.707 621.8594,228.9727 Q622.125,229.2227 622.125,229.5664 Q622.125,229.9102 621.7813,230.3164 Q621.2813,230.8945 620.4844,231.2227 Q619.4063,231.6758 618.1094,231.6758 Q616.5938,231.6758 615.3906,231.0508 Q614.4063,230.5508 613.7188,229.4883 Q613.0313,228.4102 613.0313,227.1289 L613.0313,225.9727 Q613.0313,224.6445 613.6406,223.5039 Q614.2656,222.3477 615.3594,221.7383 Q616.4531,221.1133 617.6875,221.1133 Q618.4219,221.1133 619.0625,221.2852 Q619.7188,221.4414 620.2656,221.8008 Z " fill="#000000"/><text fill="#000000" font-family="sans-serif" font-size="12" font-style="italic" lengthAdjust="spacing" textLength="43" x="656.5" y="221.584">&#171;entity&#187;</text><text fill="#000000" font-family="sans-serif" font-size="14" lengthAdjust="spacing" textLength="93" x="631.5" y="239.7031">TeacherProfile</text><line style="stroke:#181818;stroke-width:0.5;" x1="603.5" x2="726.5" y1="248.2168" y2="248.2168"/></g><!--class StudentProfile--><g id="elem_StudentProfile"><rect codeLine="38" fill="#F1F1F1" height="52.582" id="StudentProfile" rx="2.5" ry="2.5" style="stroke:#181818;stroke-width:0.5;" width="121" x="762.5" y="203.6348"/><ellipse cx="777.5" cy="225.9258" fill="#ADD1B2" rx="11" ry="11" style="stroke:#181818;stroke-width:1.0;"/><path d="M780.2656,221.8008 Q780.4219,221.582 780.6094,221.4727 Q780.7969,221.3633 781.0156,221.3633 Q781.3906,221.3633 781.625,221.6289 Q781.8594,221.8789 781.8594,222.4883 L781.8594,223.9414 Q781.8594,224.5508 781.625,224.8164 Q781.3906,225.082 781.0156,225.082 Q780.6719,225.082 780.4688,224.8789 Q780.2656,224.6914 780.1563,224.1758 Q780.1094,223.8164 779.9219,223.6289 Q779.5938,223.2539 778.9844,223.0352 Q778.375,222.8164 777.75,222.8164 Q776.9844,222.8164 776.3438,223.1445 Q775.7188,223.4727 775.2188,224.2227 Q774.7344,224.9727 774.7344,226.0039 L774.7344,227.0977 Q774.7344,228.332 775.625,229.1602 Q776.5156,229.9727 778.1094,229.9727 Q779.0469,229.9727 779.7031,229.7227 Q780.0938,229.5664 780.5156,229.1289 Q780.7813,228.8633 780.9219,228.7852 Q781.0781,228.707 781.2813,228.707 Q781.6094,228.707 781.8594,228.9727 Q782.125,229.2227 782.125,229.5664 Q782.125,229.9102 781.7813,230.3164 Q781.2813,230.8945 780.4844,231.2227 Q779.4063,231.6758 778.1094,231.6758 Q776.5938,231.6758 775.3906,231.0508 Q774.4063,230.5508 773.7188,229.4883 Q773.0313,228.4102 773.0313,227.1289 L773.0313,225.9727 Q773.0313,224.6445 773.6406,223.5039 Q774.2656,222.3477 775.3594,221.7383 Q776.4531,221.1133 777.6875,221.1133 Q778.4219,221.1133 779.0625,221.2852 Q779.7188,221.4414 780.2656,221.8008 Z " fill="#000000"/><text fill="#000000" font-family="sans-serif" font-size="12" font-style="italic" lengthAdjust="spacing" textLength="43" x="814.5" y="221.584">&#171;entity&#187;</text><text fill="#000000" font-family="sans-serif" font-size="14" lengthAdjust="spacing" textLength="89" x="791.5" y="239.7031">StudentProfile</text><line style="stroke:#181818;stroke-width:0.5;" x1="763.5" x2="882.5" y1="248.2168" y2="248.2168"/></g><!--class ManagerProfile--><g id="elem_ManagerProfile"><rect codeLine="39" fill="#F1F1F1" height="68.543" id="ManagerProfile" rx="2.5" ry="2.5" style="stroke:#181818;stroke-width:0.5;" width="128" x="1239" y="195.6348"/><ellipse cx="1254" cy="225.9063" fill="#ADD1B2" rx="11" ry="11" style="stroke:#181818;stroke-width:1.0;"/><path d="M1256.7656,221.7813 Q1256.9219,221.5625 1257.1094,221.4531 Q1257.2969,221.3438 1257.5156,221.3438 Q1257.8906,221.3438 1258.125,221.6094 Q1258.3594,221.8594 1258.3594,222.4688 L1258.3594,223.9219 Q1258.3594,224.5313 1258.125,224.7969 Q1257.8906,225.0625 1257.5156,225.0625 Q1257.1719,225.0625 1256.9688,224.8594 Q1256.7656,224.6719 1256.6563,224.1563 Q1256.6094,223.7969 1256.4219,223.6094 Q1256.0938,223.2344 1255.4844,223.0156 Q1254.875,222.7969 1254.25,222.7969 Q1253.4844,222.7969 1252.8438,223.125 Q1252.2188,223.4531 1251.7188,224.2031 Q1251.2344,224.9531 1251.2344,225.9844 L1251.2344,227.0781 Q1251.2344,228.3125 1252.125,229.1406 Q1253.0156,229.9531 1254.6094,229.9531 Q1255.5469,229.9531 1256.2031,229.7031 Q1256.5938,229.5469 1257.0156,229.1094 Q1257.2813,228.8438 1257.4219,228.7656 Q1257.5781,228.6875 1257.7813,228.6875 Q1258.1094,228.6875 1258.3594,228.9531 Q1258.625,229.2031 1258.625,229.5469 Q1258.625,229.8906 1258.2813,230.2969 Q1257.7813,230.875 1256.9844,231.2031 Q1255.9063,231.6563 1254.6094,231.6563 Q1253.0938,231.6563 1251.8906,231.0313 Q1250.9063,230.5313 1250.2188,229.4688 Q1249.5313,228.3906 1249.5313,227.1094 L1249.5313,225.9531 Q1249.5313,224.625 1250.1406,223.4844 Q1250.7656,222.3281 1251.8594,221.7188 Q1252.9531,221.0938 1254.1875,221.0938 Q1254.9219,221.0938 1255.5625,221.2656 Q1256.2188,221.4219 1256.7656,221.7813 Z " fill="#000000"/><text fill="#000000" font-family="sans-serif" font-size="12" font-style="italic" lengthAdjust="spacing" textLength="43" x="1294.5" y="213.584">&#171;entity&#187;</text><text fill="#000000" font-family="sans-serif" font-size="12" font-style="italic" lengthAdjust="spacing" textLength="72" x="1280" y="229.5449">&#171;NullObject&#187;</text><text fill="#000000" font-family="sans-serif" font-size="14" lengthAdjust="spacing" textLength="96" x="1268" y="247.6641">ManagerProfile</text><line style="stroke:#181818;stroke-width:0.5;" x1="1240" x2="1366" y1="256.1777" y2="256.1777"/></g><!--class TaxPayerNumber--><g id="elem_TaxPayerNumber"><rect codeLine="40" fill="#F1F1F1" height="52.582" id="TaxPayerNumber" rx="2.5" ry="2.5" style="stroke:#181818;stroke-width:0.5;" width="141" x="1062.5" y="203.6348"/><ellipse cx="1077.5" cy="225.9258" fill="#B8255F" rx="11" ry="11" style="stroke:#181818;stroke-width:1.0;"/><path d="M1078.0938,229.1914 L1080.5625,223.3164 L1080.1719,223.3164 Q1079.5625,223.3164 1079.2969,223.082 Q1079.0313,222.8477 1079.0313,222.457 Q1079.0313,222.082 1079.2969,221.8477 Q1079.5625,221.6133 1080.1719,221.6133 L1082.4531,221.6133 Q1083.0625,221.6133 1083.3281,221.8477 Q1083.5938,222.082 1083.5938,222.457 Q1083.5938,222.9258 1083.1875,223.1914 Q1083,223.3164 1082.4063,223.3164 L1078.9219,231.6758 L1077.2813,231.6758 L1073.7969,223.3164 Q1073.2031,223.3164 1073.0156,223.1914 Q1072.6094,222.9258 1072.6094,222.457 Q1072.6094,222.082 1072.875,221.8477 Q1073.1406,221.6133 1073.75,221.6133 L1076.0469,221.6133 Q1076.6563,221.6133 1076.9063,221.8477 Q1077.1719,222.082 1077.1719,222.457 Q1077.1719,222.8477 1076.9063,223.082 Q1076.6563,223.3164 1076.0469,223.3164 L1075.6406,223.3164 L1078.0938,229.1914 Z " fill="#000000"/><text fill="#000000" font-family="sans-serif" font-size="12" font-style="italic" lengthAdjust="spacing" textLength="81" x="1105.5" y="221.584">&#171;value object&#187;</text><text fill="#000000" font-family="sans-serif" font-size="14" lengthAdjust="spacing" textLength="109" x="1091.5" y="239.7031">TaxPayerNumber</text><line style="stroke:#181818;stroke-width:0.5;" x1="1063.5" x2="1202.5" y1="248.2168" y2="248.2168"/></g><!--class DateOfBirth--><g id="elem_DateOfBirth"><rect codeLine="41" fill="#F1F1F1" height="52.582" id="DateOfBirth" rx="2.5" ry="2.5" style="stroke:#181818;stroke-width:0.5;" width="109" x="918.5" y="203.6348"/><ellipse cx="933.5" cy="225.9258" fill="#B8255F" rx="11" ry="11" style="stroke:#181818;stroke-width:1.0;"/><path d="M934.0938,229.1914 L936.5625,223.3164 L936.1719,223.3164 Q935.5625,223.3164 935.2969,223.082 Q935.0313,222.8477 935.0313,222.457 Q935.0313,222.082 935.2969,221.8477 Q935.5625,221.6133 936.1719,221.6133 L938.4531,221.6133 Q939.0625,221.6133 939.3281,221.8477 Q939.5938,222.082 939.5938,222.457 Q939.5938,222.9258 939.1875,223.1914 Q939,223.3164 938.4063,223.3164 L934.9219,231.6758 L933.2813,231.6758 L929.7969,223.3164 Q929.2031,223.3164 929.0156,223.1914 Q928.6094,222.9258 928.6094,222.457 Q928.6094,222.082 928.875,221.8477 Q929.1406,221.6133 929.75,221.6133 L932.0469,221.6133 Q932.6563,221.6133 932.9063,221.8477 Q933.1719,222.082 933.1719,222.457 Q933.1719,222.8477 932.9063,223.082 Q932.6563,223.3164 932.0469,223.3164 L931.6406,223.3164 L934.0938,229.1914 Z " fill="#000000"/><text fill="#000000" font-family="sans-serif" font-size="12" font-style="italic" lengthAdjust="spacing" textLength="81" x="945.5" y="221.584">&#171;value object&#187;</text><text fill="#000000" font-family="sans-serif" font-size="14" lengthAdjust="spacing" textLength="74" x="949" y="239.7031">DateOfBirth</text><line style="stroke:#181818;stroke-width:0.5;" x1="919.5" x2="1026.5" y1="248.2168" y2="248.2168"/></g><!--class MechanographicNumber--><g id="elem_MechanographicNumber"><rect codeLine="42" fill="#F1F1F1" height="52.582" id="MechanographicNumber" rx="2.5" ry="2.5" style="stroke:#181818;stroke-width:0.5;" width="186" x="765" y="82.6348"/><ellipse cx="780" cy="104.9258" fill="#B8255F" rx="11" ry="11" style="stroke:#181818;stroke-width:1.0;"/><path d="M780.5938,108.1914 L783.0625,102.3164 L782.6719,102.3164 Q782.0625,102.3164 781.7969,102.082 Q781.5313,101.8477 781.5313,101.457 Q781.5313,101.082 781.7969,100.8477 Q782.0625,100.6133 782.6719,100.6133 L784.9531,100.6133 Q785.5625,100.6133 785.8281,100.8477 Q786.0938,101.082 786.0938,101.457 Q786.0938,101.9258 785.6875,102.1914 Q785.5,102.3164 784.9063,102.3164 L781.4219,110.6758 L779.7813,110.6758 L776.2969,102.3164 Q775.7031,102.3164 775.5156,102.1914 Q775.1094,101.9258 775.1094,101.457 Q775.1094,101.082 775.375,100.8477 Q775.6406,100.6133 776.25,100.6133 L778.5469,100.6133 Q779.1563,100.6133 779.4063,100.8477 Q779.6719,101.082 779.6719,101.457 Q779.6719,101.8477 779.4063,102.082 Q779.1563,102.3164 778.5469,102.3164 L778.1406,102.3164 L780.5938,108.1914 Z " fill="#000000"/><text fill="#000000" font-family="sans-serif" font-size="12" font-style="italic" lengthAdjust="spacing" textLength="81" x="830.5" y="100.584">&#171;value object&#187;</text><text fill="#000000" font-family="sans-serif" font-size="14" lengthAdjust="spacing" textLength="154" x="794" y="118.7031">MechanographicNumber</text><line style="stroke:#181818;stroke-width:0.5;" x1="766" x2="950" y1="127.2168" y2="127.2168"/></g><!--class Acronym--><g id="elem_Acronym"><rect codeLine="43" fill="#F1F1F1" height="52.582" id="Acronym" rx="2.5" ry="2.5" style="stroke:#181818;stroke-width:0.5;" width="109" x="620.5" y="82.6348"/><ellipse cx="635.5" cy="104.9258" fill="#B8255F" rx="11" ry="11" style="stroke:#181818;stroke-width:1.0;"/><path d="M636.0938,108.1914 L638.5625,102.3164 L638.1719,102.3164 Q637.5625,102.3164 637.2969,102.082 Q637.0313,101.8477 637.0313,101.457 Q637.0313,101.082 637.2969,100.8477 Q637.5625,100.6133 638.1719,100.6133 L640.4531,100.6133 Q641.0625,100.6133 641.3281,100.8477 Q641.5938,101.082 641.5938,101.457 Q641.5938,101.9258 641.1875,102.1914 Q641,102.3164 640.4063,102.3164 L636.9219,110.6758 L635.2813,110.6758 L631.7969,102.3164 Q631.2031,102.3164 631.0156,102.1914 Q630.6094,101.9258 630.6094,101.457 Q630.6094,101.082 630.875,100.8477 Q631.1406,100.6133 631.75,100.6133 L634.0469,100.6133 Q634.6563,100.6133 634.9063,100.8477 Q635.1719,101.082 635.1719,101.457 Q635.1719,101.8477 634.9063,102.082 Q634.6563,102.3164 634.0469,102.3164 L633.6406,102.3164 L636.0938,108.1914 Z " fill="#000000"/><text fill="#000000" font-family="sans-serif" font-size="12" font-style="italic" lengthAdjust="spacing" textLength="81" x="647.5" y="100.584">&#171;value object&#187;</text><text fill="#000000" font-family="sans-serif" font-size="14" lengthAdjust="spacing" textLength="55" x="660.5" y="118.7031">Acronym</text><line style="stroke:#181818;stroke-width:0.5;" x1="621.5" x2="728.5" y1="127.2168" y2="127.2168"/></g><!--class Schedule--><g id="elem_Schedule"><rect codeLine="44" fill="#F1F1F1" height="52.582" id="Schedule" rx="2.5" ry="2.5" style="stroke:#181818;stroke-width:0.5;" width="91" x="476.5" y="203.6348"/><ellipse cx="491.5" cy="225.9258" fill="#ADD1B2" rx="11" ry="11" style="stroke:#181818;stroke-width:1.0;"/><path d="M494.2656,221.8008 Q494.4219,221.582 494.6094,221.4727 Q494.7969,221.3633 495.0156,221.3633 Q495.3906,221.3633 495.625,221.6289 Q495.8594,221.8789 495.8594,222.4883 L495.8594,223.9414 Q495.8594,224.5508 495.625,224.8164 Q495.3906,225.082 495.0156,225.082 Q494.6719,225.082 494.4688,224.8789 Q494.2656,224.6914 494.1563,224.1758 Q494.1094,223.8164 493.9219,223.6289 Q493.5938,223.2539 492.9844,223.0352 Q492.375,222.8164 491.75,222.8164 Q490.9844,222.8164 490.3438,223.1445 Q489.7188,223.4727 489.2188,224.2227 Q488.7344,224.9727 488.7344,226.0039 L488.7344,227.0977 Q488.7344,228.332 489.625,229.1602 Q490.5156,229.9727 492.1094,229.9727 Q493.0469,229.9727 493.7031,229.7227 Q494.0938,229.5664 494.5156,229.1289 Q494.7813,228.8633 494.9219,228.7852 Q495.0781,228.707 495.2813,228.707 Q495.6094,228.707 495.8594,228.9727 Q496.125,229.2227 496.125,229.5664 Q496.125,229.9102 495.7813,230.3164 Q495.2813,230.8945 494.4844,231.2227 Q493.4063,231.6758 492.1094,231.6758 Q490.5938,231.6758 489.3906,231.0508 Q488.4063,230.5508 487.7188,229.4883 Q487.0313,228.4102 487.0313,227.1289 L487.0313,225.9727 Q487.0313,224.6445 487.6406,223.5039 Q488.2656,222.3477 489.3594,221.7383 Q490.4531,221.1133 491.6875,221.1133 Q492.4219,221.1133 493.0625,221.2852 Q493.7188,221.4414 494.2656,221.8008 Z " fill="#000000"/><text fill="#000000" font-family="sans-serif" font-size="12" font-style="italic" lengthAdjust="spacing" textLength="43" x="513.5" y="221.584">&#171;entity&#187;</text><text fill="#000000" font-family="sans-serif" font-size="14" lengthAdjust="spacing" textLength="59" x="505.5" y="239.7031">Schedule</text><line style="stroke:#181818;stroke-width:0.5;" x1="477.5" x2="566.5" y1="248.2168" y2="248.2168"/></g><!--class ProfileDay--><g id="elem_ProfileDay"><rect codeLine="45" fill="#F1F1F1" height="52.582" id="ProfileDay" rx="2.5" ry="2.5" style="stroke:#181818;stroke-width:0.5;" width="109" x="476.5" y="82.6348"/><ellipse cx="491.5" cy="104.9258" fill="#B8255F" rx="11" ry="11" style="stroke:#181818;stroke-width:1.0;"/><path d="M492.0938,108.1914 L494.5625,102.3164 L494.1719,102.3164 Q493.5625,102.3164 493.2969,102.082 Q493.0313,101.8477 493.0313,101.457 Q493.0313,101.082 493.2969,100.8477 Q493.5625,100.6133 494.1719,100.6133 L496.4531,100.6133 Q497.0625,100.6133 497.3281,100.8477 Q497.5938,101.082 497.5938,101.457 Q497.5938,101.9258 497.1875,102.1914 Q497,102.3164 496.4063,102.3164 L492.9219,110.6758 L491.2813,110.6758 L487.7969,102.3164 Q487.2031,102.3164 487.0156,102.1914 Q486.6094,101.9258 486.6094,101.457 Q486.6094,101.082 486.875,100.8477 Q487.1406,100.6133 487.75,100.6133 L490.0469,100.6133 Q490.6563,100.6133 490.9063,100.8477 Q491.1719,101.082 491.1719,101.457 Q491.1719,101.8477 490.9063,102.082 Q490.6563,102.3164 490.0469,102.3164 L489.6406,102.3164 L492.0938,108.1914 Z " fill="#000000"/><text fill="#000000" font-family="sans-serif" font-size="12" font-style="italic" lengthAdjust="spacing" textLength="81" x="503.5" y="100.584">&#171;value object&#187;</text><text fill="#000000" font-family="sans-serif" font-size="14" lengthAdjust="spacing" textLength="25" x="531.5" y="118.7031">Day</text><line style="stroke:#181818;stroke-width:0.5;" x1="477.5" x2="584.5" y1="127.2168" y2="127.2168"/></g><!--class StudentRegistration--><g id="elem_StudentRegistration"><rect codeLine="60" fill="#F1F1F1" height="68.543" id="StudentRegistration" rx="2.5" ry="2.5" style="stroke:#181818;stroke-width:0.5;" width="157" x="1423.5" y="324.6348"/><ellipse cx="1438.5" cy="354.9063" fill="#ADD1B2" rx="11" ry="11" style="stroke:#181818;stroke-width:1.0;"/><path d="M1437.3594,355.7031 L1437.3594,358.2031 L1441.6875,358.2031 L1441.6875,357.2813 Q1441.6875,356.6719 1441.9219,356.4063 Q1442.1719,356.1406 1442.5469,356.1406 Q1442.9219,356.1406 1443.1563,356.4063 Q1443.3906,356.6719 1443.3906,357.2813 L1443.3906,359.9063 L1435.3906,359.9063 Q1434.7656,359.9063 1434.5,359.6719 Q1434.25,359.4375 1434.25,359.0469 Q1434.25,358.6719 1434.5156,358.4375 Q1434.7813,358.2031 1435.3906,358.2031 L1435.6563,358.2031 L1435.6563,351.5469 L1435.3906,351.5469 Q1434.7656,351.5469 1434.5,351.3125 Q1434.25,351.0781 1434.25,350.6875 Q1434.25,350.3125 1434.5,350.0781 Q1434.7656,349.8438 1435.3906,349.8438 L1443.0156,349.8438 L1443.0156,352.4375 Q1443.0156,353.0469 1442.7813,353.3125 Q1442.5625,353.5625 1442.1719,353.5625 Q1441.7969,353.5625 1441.5625,353.3125 Q1441.3281,353.0469 1441.3281,352.4375 L1441.3281,351.5469 L1437.3594,351.5469 L1437.3594,354 L1438.8438,354 Q1438.8438,353.3438 1438.9688,353.1563 Q1439.2344,352.75 1439.7031,352.75 Q1440.0781,352.75 1440.3125,353.0156 Q1440.5469,353.2656 1440.5469,353.875 L1440.5469,355.8438 Q1440.5469,356.3906 1440.4219,356.5781 Q1440.1563,356.9688 1439.7031,356.9688 Q1439.2344,356.9688 1438.9688,356.5625 Q1438.8438,356.375 1438.8438,355.7031 L1437.3594,355.7031 Z " fill="#000000"/><text fill="#000000" font-family="sans-serif" font-size="12" font-style="italic" lengthAdjust="spacing" textLength="35" x="1497.5" y="342.584">&#171;root&#187;</text><text fill="#000000" font-family="sans-serif" font-size="12" font-style="italic" lengthAdjust="spacing" textLength="43" x="1493.5" y="358.5449">&#171;entity&#187;</text><text fill="#000000" font-family="sans-serif" font-size="14" lengthAdjust="spacing" textLength="125" x="1452.5" y="376.6641">StudentRegistration</text><line style="stroke:#181818;stroke-width:0.5;" x1="1424.5" x2="1579.5" y1="385.1777" y2="385.1777"/></g><!--class RegiStatusStudent--><g id="elem_RegiStatusStudent"><rect codeLine="62" fill="#F1F1F1" height="68.543" id="RegiStatusStudent" rx="2.5" ry="2.5" style="stroke:#181818;stroke-width:0.5;" width="109" x="1447.5" y="472.1348"/><ellipse cx="1462.5" cy="502.4063" fill="#B8255F" rx="11" ry="11" style="stroke:#181818;stroke-width:1.0;"/><path d="M1463.0938,505.6719 L1465.5625,499.7969 L1465.1719,499.7969 Q1464.5625,499.7969 1464.2969,499.5625 Q1464.0313,499.3281 1464.0313,498.9375 Q1464.0313,498.5625 1464.2969,498.3281 Q1464.5625,498.0938 1465.1719,498.0938 L1467.4531,498.0938 Q1468.0625,498.0938 1468.3281,498.3281 Q1468.5938,498.5625 1468.5938,498.9375 Q1468.5938,499.4063 1468.1875,499.6719 Q1468,499.7969 1467.4063,499.7969 L1463.9219,508.1563 L1462.2813,508.1563 L1458.7969,499.7969 Q1458.2031,499.7969 1458.0156,499.6719 Q1457.6094,499.4063 1457.6094,498.9375 Q1457.6094,498.5625 1457.875,498.3281 Q1458.1406,498.0938 1458.75,498.0938 L1461.0469,498.0938 Q1461.6563,498.0938 1461.9063,498.3281 Q1462.1719,498.5625 1462.1719,498.9375 Q1462.1719,499.3281 1461.9063,499.5625 Q1461.6563,499.7969 1461.0469,499.7969 L1460.6406,499.7969 L1463.0938,505.6719 Z " fill="#000000"/><text fill="#000000" font-family="sans-serif" font-size="12" font-style="italic" lengthAdjust="spacing" textLength="81" x="1474.5" y="490.084">&#171;value object&#187;</text><text fill="#000000" font-family="sans-serif" font-size="12" font-style="italic" lengthAdjust="spacing" textLength="52" x="1489" y="506.0449">&#171;unique&#187;</text><text fill="#000000" font-family="sans-serif" font-size="14" lengthAdjust="spacing" textLength="40" x="1495" y="524.1641">Status</text><line style="stroke:#181818;stroke-width:0.5;" x1="1448.5" x2="1555.5" y1="532.6777" y2="532.6777"/></g><!--class Course--><g id="elem_Course"><rect codeLine="71" fill="#F1F1F1" height="68.543" id="Course" rx="2.5" ry="2.5" style="stroke:#181818;stroke-width:0.5;" width="78" x="1970" y="472.1348"/><ellipse cx="1985" cy="502.4063" fill="#ADD1B2" rx="11" ry="11" style="stroke:#181818;stroke-width:1.0;"/><path d="M1983.8594,503.2031 L1983.8594,505.7031 L1988.1875,505.7031 L1988.1875,504.7813 Q1988.1875,504.1719 1988.4219,503.9063 Q1988.6719,503.6406 1989.0469,503.6406 Q1989.4219,503.6406 1989.6563,503.9063 Q1989.8906,504.1719 1989.8906,504.7813 L1989.8906,507.4063 L1981.8906,507.4063 Q1981.2656,507.4063 1981,507.1719 Q1980.75,506.9375 1980.75,506.5469 Q1980.75,506.1719 1981.0156,505.9375 Q1981.2813,505.7031 1981.8906,505.7031 L1982.1563,505.7031 L1982.1563,499.0469 L1981.8906,499.0469 Q1981.2656,499.0469 1981,498.8125 Q1980.75,498.5781 1980.75,498.1875 Q1980.75,497.8125 1981,497.5781 Q1981.2656,497.3438 1981.8906,497.3438 L1989.5156,497.3438 L1989.5156,499.9375 Q1989.5156,500.5469 1989.2813,500.8125 Q1989.0625,501.0625 1988.6719,501.0625 Q1988.2969,501.0625 1988.0625,500.8125 Q1987.8281,500.5469 1987.8281,499.9375 L1987.8281,499.0469 L1983.8594,499.0469 L1983.8594,501.5 L1985.3438,501.5 Q1985.3438,500.8438 1985.4688,500.6563 Q1985.7344,500.25 1986.2031,500.25 Q1986.5781,500.25 1986.8125,500.5156 Q1987.0469,500.7656 1987.0469,501.375 L1987.0469,503.3438 Q1987.0469,503.8906 1986.9219,504.0781 Q1986.6563,504.4688 1986.2031,504.4688 Q1985.7344,504.4688 1985.4688,504.0625 Q1985.3438,503.875 1985.3438,503.2031 L1983.8594,503.2031 Z " fill="#000000"/><text fill="#000000" font-family="sans-serif" font-size="12" font-style="italic" lengthAdjust="spacing" textLength="35" x="2004.5" y="490.084">&#171;root&#187;</text><text fill="#000000" font-family="sans-serif" font-size="12" font-style="italic" lengthAdjust="spacing" textLength="43" x="2000.5" y="506.0449">&#171;entity&#187;</text><text fill="#000000" font-family="sans-serif" font-size="14" lengthAdjust="spacing" textLength="46" x="1999" y="524.1641">Course</text><line style="stroke:#181818;stroke-width:0.5;" x1="1971" x2="2047" y1="532.6777" y2="532.6777"/></g><!--class CourseTitle--><g id="elem_CourseTitle"><rect codeLine="73" fill="#F1F1F1" height="68.543" id="CourseTitle" rx="2.5" ry="2.5" style="stroke:#181818;stroke-width:0.5;" width="109" x="2314.5" y="324.6348"/><ellipse cx="2329.5" cy="354.9063" fill="#B8255F" rx="11" ry="11" style="stroke:#181818;stroke-width:1.0;"/><path d="M2330.0938,358.1719 L2332.5625,352.2969 L2332.1719,352.2969 Q2331.5625,352.2969 2331.2969,352.0625 Q2331.0313,351.8281 2331.0313,351.4375 Q2331.0313,351.0625 2331.2969,350.8281 Q2331.5625,350.5938 2332.1719,350.5938 L2334.4531,350.5938 Q2335.0625,350.5938 2335.3281,350.8281 Q2335.5938,351.0625 2335.5938,351.4375 Q2335.5938,351.9063 2335.1875,352.1719 Q2335,352.2969 2334.4063,352.2969 L2330.9219,360.6563 L2329.2813,360.6563 L2325.7969,352.2969 Q2325.2031,352.2969 2325.0156,352.1719 Q2324.6094,351.9063 2324.6094,351.4375 Q2324.6094,351.0625 2324.875,350.8281 Q2325.1406,350.5938 2325.75,350.5938 L2328.0469,350.5938 Q2328.6563,350.5938 2328.9063,350.8281 Q2329.1719,351.0625 2329.1719,351.4375 Q2329.1719,351.8281 2328.9063,352.0625 Q2328.6563,352.2969 2328.0469,352.2969 L2327.6406,352.2969 L2330.0938,358.1719 Z " fill="#000000"/><text fill="#000000" font-family="sans-serif" font-size="12" font-style="italic" lengthAdjust="spacing" textLength="81" x="2341.5" y="342.584">&#171;value object&#187;</text><text fill="#000000" font-family="sans-serif" font-size="12" font-style="italic" lengthAdjust="spacing" textLength="52" x="2356" y="358.5449">&#171;unique&#187;</text><text fill="#000000" font-family="sans-serif" font-size="14" lengthAdjust="spacing" textLength="27" x="2368.5" y="376.6641">Title</text><line style="stroke:#181818;stroke-width:0.5;" x1="2315.5" x2="2422.5" y1="385.1777" y2="385.1777"/></g><!--class Id--><g id="elem_Id"><rect codeLine="74" fill="#F1F1F1" height="68.543" id="Id" rx="2.5" ry="2.5" style="stroke:#181818;stroke-width:0.5;" width="109" x="2170.5" y="324.6348"/><ellipse cx="2185.5" cy="354.9063" fill="#B8255F" rx="11" ry="11" style="stroke:#181818;stroke-width:1.0;"/><path d="M2186.0938,358.1719 L2188.5625,352.2969 L2188.1719,352.2969 Q2187.5625,352.2969 2187.2969,352.0625 Q2187.0313,351.8281 2187.0313,351.4375 Q2187.0313,351.0625 2187.2969,350.8281 Q2187.5625,350.5938 2188.1719,350.5938 L2190.4531,350.5938 Q2191.0625,350.5938 2191.3281,350.8281 Q2191.5938,351.0625 2191.5938,351.4375 Q2191.5938,351.9063 2191.1875,352.1719 Q2191,352.2969 2190.4063,352.2969 L2186.9219,360.6563 L2185.2813,360.6563 L2181.7969,352.2969 Q2181.2031,352.2969 2181.0156,352.1719 Q2180.6094,351.9063 2180.6094,351.4375 Q2180.6094,351.0625 2180.875,350.8281 Q2181.1406,350.5938 2181.75,350.5938 L2184.0469,350.5938 Q2184.6563,350.5938 2184.9063,350.8281 Q2185.1719,351.0625 2185.1719,351.4375 Q2185.1719,351.8281 2184.9063,352.0625 Q2184.6563,352.2969 2184.0469,352.2969 L2183.6406,352.2969 L2186.0938,358.1719 Z " fill="#000000"/><text fill="#000000" font-family="sans-serif" font-size="12" font-style="italic" lengthAdjust="spacing" textLength="81" x="2197.5" y="342.584">&#171;value object&#187;</text><text fill="#000000" font-family="sans-serif" font-size="12" font-style="italic" lengthAdjust="spacing" textLength="25" x="2225.5" y="358.5449">&#171;Id&#187;</text><text fill="#000000" font-family="sans-serif" font-size="14" lengthAdjust="spacing" textLength="11" x="2232.5" y="376.6641">Id</text><line style="stroke:#181818;stroke-width:0.5;" x1="2171.5" x2="2278.5" y1="385.1777" y2="385.1777"/></g><!--class CourseState--><g id="elem_CourseState"><rect codeLine="75" fill="#F1F1F1" height="52.582" id="CourseState" rx="2.5" ry="2.5" style="stroke:#181818;stroke-width:0.5;" width="109" x="2026.5" y="332.6348"/><ellipse cx="2041.5" cy="354.9258" fill="#B8255F" rx="11" ry="11" style="stroke:#181818;stroke-width:1.0;"/><path d="M2042.0938,358.1914 L2044.5625,352.3164 L2044.1719,352.3164 Q2043.5625,352.3164 2043.2969,352.082 Q2043.0313,351.8477 2043.0313,351.457 Q2043.0313,351.082 2043.2969,350.8477 Q2043.5625,350.6133 2044.1719,350.6133 L2046.4531,350.6133 Q2047.0625,350.6133 2047.3281,350.8477 Q2047.5938,351.082 2047.5938,351.457 Q2047.5938,351.9258 2047.1875,352.1914 Q2047,352.3164 2046.4063,352.3164 L2042.9219,360.6758 L2041.2813,360.6758 L2037.7969,352.3164 Q2037.2031,352.3164 2037.0156,352.1914 Q2036.6094,351.9258 2036.6094,351.457 Q2036.6094,351.082 2036.875,350.8477 Q2037.1406,350.6133 2037.75,350.6133 L2040.0469,350.6133 Q2040.6563,350.6133 2040.9063,350.8477 Q2041.1719,351.082 2041.1719,351.457 Q2041.1719,351.8477 2040.9063,352.082 Q2040.6563,352.3164 2040.0469,352.3164 L2039.6406,352.3164 L2042.0938,358.1914 Z " fill="#000000"/><text fill="#000000" font-family="sans-serif" font-size="12" font-style="italic" lengthAdjust="spacing" textLength="81" x="2053.5" y="350.584">&#171;value object&#187;</text><text fill="#000000" font-family="sans-serif" font-size="14" lengthAdjust="spacing" textLength="33" x="2077.5" y="368.7031">State</text><line style="stroke:#181818;stroke-width:0.5;" x1="2027.5" x2="2134.5" y1="377.2168" y2="377.2168"/></g><!--class Capacity--><g id="elem_Capacity"><rect codeLine="76" fill="#F1F1F1" height="52.582" id="Capacity" rx="2.5" ry="2.5" style="stroke:#181818;stroke-width:0.5;" width="109" x="1882.5" y="332.6348"/><ellipse cx="1897.5" cy="354.9258" fill="#B8255F" rx="11" ry="11" style="stroke:#181818;stroke-width:1.0;"/><path d="M1898.0938,358.1914 L1900.5625,352.3164 L1900.1719,352.3164 Q1899.5625,352.3164 1899.2969,352.082 Q1899.0313,351.8477 1899.0313,351.457 Q1899.0313,351.082 1899.2969,350.8477 Q1899.5625,350.6133 1900.1719,350.6133 L1902.4531,350.6133 Q1903.0625,350.6133 1903.3281,350.8477 Q1903.5938,351.082 1903.5938,351.457 Q1903.5938,351.9258 1903.1875,352.1914 Q1903,352.3164 1902.4063,352.3164 L1898.9219,360.6758 L1897.2813,360.6758 L1893.7969,352.3164 Q1893.2031,352.3164 1893.0156,352.1914 Q1892.6094,351.9258 1892.6094,351.457 Q1892.6094,351.082 1892.875,350.8477 Q1893.1406,350.6133 1893.75,350.6133 L1896.0469,350.6133 Q1896.6563,350.6133 1896.9063,350.8477 Q1897.1719,351.082 1897.1719,351.457 Q1897.1719,351.8477 1896.9063,352.082 Q1896.6563,352.3164 1896.0469,352.3164 L1895.6406,352.3164 L1898.0938,358.1914 Z " fill="#000000"/><text fill="#000000" font-family="sans-serif" font-size="12" font-style="italic" lengthAdjust="spacing" textLength="81" x="1909.5" y="350.584">&#171;value object&#187;</text><text fill="#000000" font-family="sans-serif" font-size="14" lengthAdjust="spacing" textLength="55" x="1922.5" y="368.7031">Capacity</text><line style="stroke:#181818;stroke-width:0.5;" x1="1883.5" x2="1990.5" y1="377.2168" y2="377.2168"/></g><!--class EnrollementsState--><g id="elem_EnrollementsState"><rect codeLine="77" fill="#F1F1F1" height="52.582" id="EnrollementsState" rx="2.5" ry="2.5" style="stroke:#181818;stroke-width:0.5;" width="147" x="1700.5" y="332.6348"/><ellipse cx="1715.5" cy="354.9258" fill="#B8255F" rx="11" ry="11" style="stroke:#181818;stroke-width:1.0;"/><path d="M1716.0938,358.1914 L1718.5625,352.3164 L1718.1719,352.3164 Q1717.5625,352.3164 1717.2969,352.082 Q1717.0313,351.8477 1717.0313,351.457 Q1717.0313,351.082 1717.2969,350.8477 Q1717.5625,350.6133 1718.1719,350.6133 L1720.4531,350.6133 Q1721.0625,350.6133 1721.3281,350.8477 Q1721.5938,351.082 1721.5938,351.457 Q1721.5938,351.9258 1721.1875,352.1914 Q1721,352.3164 1720.4063,352.3164 L1716.9219,360.6758 L1715.2813,360.6758 L1711.7969,352.3164 Q1711.2031,352.3164 1711.0156,352.1914 Q1710.6094,351.9258 1710.6094,351.457 Q1710.6094,351.082 1710.875,350.8477 Q1711.1406,350.6133 1711.75,350.6133 L1714.0469,350.6133 Q1714.6563,350.6133 1714.9063,350.8477 Q1715.1719,351.082 1715.1719,351.457 Q1715.1719,351.8477 1714.9063,352.082 Q1714.6563,352.3164 1714.0469,352.3164 L1713.6406,352.3164 L1716.0938,358.1914 Z " fill="#000000"/><text fill="#000000" font-family="sans-serif" font-size="12" font-style="italic" lengthAdjust="spacing" textLength="81" x="1746.5" y="350.584">&#171;value object&#187;</text><text fill="#000000" font-family="sans-serif" font-size="14" lengthAdjust="spacing" textLength="115" x="1729.5" y="368.7031">EnrollementsState</text><line style="stroke:#181818;stroke-width:0.5;" x1="1701.5" x2="1846.5" y1="377.2168" y2="377.2168"/></g><!--link User to Email--><g id="link_User_Email"><path codeLine="25" d="M340.5,572.7148 C340.5,572.7148 340.5,606.5848 340.5,606.5848 " fill="none" id="User-Email" style="stroke:#181818;stroke-width:1.0;"/><polygon fill="#181818" points="340.5,559.7148,336.5,565.7148,340.5,571.7148,344.5,565.7148,340.5,559.7148" style="stroke:#181818;stroke-width:1.0;"/><polygon fill="#181818" points="340.5,619.5848,344.5,610.5848,340.5,614.5848,336.5,610.5848,340.5,619.5848" style="stroke:#181818;stroke-width:1.0;"/><line style="stroke:#181818;stroke-width:1.0;" x1="340.5" x2="340.5" y1="614.5848" y2="606.5848"/><text fill="#000000" font-family="sans-serif" font-size="13" lengthAdjust="spacing" textLength="21" x="341.5" y="585.6731">has</text><text fill="#000000" font-family="sans-serif" font-size="13" lengthAdjust="spacing" textLength="7" x="328.8625" y="608.2231">1</text><text fill="#000000" font-family="sans-serif" font-size="13" lengthAdjust="spacing" textLength="7" x="336.7906" y="581.279">1</text></g><!--link User to Password--><g id="link_User_Password"><path codeLine="26" d="M262.5,572.7148 C262.5,572.7148 262.5,622.4548 262.5,622.4548 " fill="none" id="User-Password" style="stroke:#181818;stroke-width:1.0;"/><polygon fill="#181818" points="262.5,559.7148,258.5,565.7148,262.5,571.7148,266.5,565.7148,262.5,559.7148" style="stroke:#181818;stroke-width:1.0;"/><polygon fill="#181818" points="262.5,635.4548,266.5,626.4548,262.5,630.4548,258.5,626.4548,262.5,635.4548" style="stroke:#181818;stroke-width:1.0;"/><line style="stroke:#181818;stroke-width:1.0;" x1="262.5" x2="262.5" y1="630.4548" y2="622.4548"/><text fill="#000000" font-family="sans-serif" font-size="13" lengthAdjust="spacing" textLength="21" x="240.5" y="593.6131">has</text><text fill="#000000" font-family="sans-serif" font-size="13" lengthAdjust="spacing" textLength="7" x="264.2875" y="624.4297">1</text><text fill="#000000" font-family="sans-serif" font-size="13" lengthAdjust="spacing" textLength="7" x="249.2844" y="581.279">1</text></g><!--link User to Role--><g id="link_User_Role"><path codeLine="27" d="M236.36,533.6348 C236.36,533.6348 113.25,533.6348 113.25,533.6348 C113.25,533.6348 113.25,622.5048 113.25,622.5048 " fill="none" id="User-Role" style="stroke:#181818;stroke-width:1.0;"/><polygon fill="#181818" points="249.36,533.6348,243.36,529.6348,237.36,533.6348,243.36,537.6348,249.36,533.6348" style="stroke:#181818;stroke-width:1.0;"/><polygon fill="#181818" points="113.25,635.5048,117.25,626.5048,113.25,630.5048,109.25,626.5048,113.25,635.5048" style="stroke:#181818;stroke-width:1.0;"/><line style="stroke:#181818;stroke-width:1.0;" x1="113.25" x2="113.25" y1="630.5048" y2="622.5048"/><text fill="#000000" font-family="sans-serif" font-size="13" lengthAdjust="spacing" textLength="21" x="108.37" y="529.6631">has</text><text fill="#000000" font-family="sans-serif" font-size="13" lengthAdjust="spacing" textLength="7" x="234.5429" y="532.9486">1</text><text fill="#000000" font-family="sans-serif" font-size="13" lengthAdjust="spacing" textLength="7" x="113.8234" y="624.4912">1</text></g><!--link Manager to User--><g id="link_Manager_User"><path codeLine="28" d="M177.5,385.7948 C177.5,421.5648 177.5,480.6348 177.5,480.6348 C177.5,480.6348 244.18,480.6348 244.18,480.6348 " fill="none" id="Manager-to-User" style="stroke:#181818;stroke-width:1.0;"/><polygon fill="#181818" points="249.18,480.6348,240.18,476.6348,244.18,480.6348,240.18,484.6348,249.18,480.6348" style="stroke:#181818;stroke-width:1.0;"/><text fill="#000000" font-family="sans-serif" font-size="13" lengthAdjust="spacing" textLength="43" x="133.5" y="462.5831">creates</text><text fill="#000000" font-family="sans-serif" font-size="13" lengthAdjust="spacing" textLength="7" x="177.7188" y="407.1479">1</text><text fill="#000000" font-family="sans-serif" font-size="13" lengthAdjust="spacing" textLength="5" x="236.4629" y="473.4892">*</text></g><!--link Manager to User--><g id="link_Manager_User"><path codeLine="29" d="M172,385.8448 C172,428.3548 172,506.6348 172,506.6348 C172,506.6348 229.47,506.6348 229.47,506.6348 " fill="none" id="Manager-to-User-1" style="stroke:#181818;stroke-width:1.0;"/><polygon fill="none" points="229.47,499.6348,249.47,506.6348,229.47,513.6348,229.47,499.6348" style="stroke:#181818;stroke-width:1.0;"/></g><!--link Student to User--><g id="link_Student_User"><path codeLine="30" d="M349.17,385.8448 C349.17,385.8448 349.17,433.5348 349.17,433.5348 " fill="none" id="Student-to-User" style="stroke:#181818;stroke-width:1.0;"/><polygon fill="none" points="356.17,433.5348,349.17,453.5348,342.17,433.5348,356.17,433.5348" style="stroke:#181818;stroke-width:1.0;"/></g><!--link Teacher to User--><g id="link_Teacher_User"><path codeLine="31" d="M276.5,385.8448 C276.5,385.8448 276.5,433.5348 276.5,433.5348 " fill="none" id="Teacher-to-User" style="stroke:#181818;stroke-width:1.0;"/><polygon fill="none" points="283.5,433.5348,276.5,453.5348,269.5,433.5348,283.5,433.5348" style="stroke:#181818;stroke-width:1.0;"/></g><!--link TeacherProfile to Profile--><g id="link_TeacherProfile_Profile"><path codeLine="47" d="M665,256.7748 C665,285.6448 665,327.6348 665,327.6348 C665,327.6348 766.75,327.6348 766.75,327.6348 " fill="none" id="TeacherProfile-to-Profile" style="stroke:#181818;stroke-width:1.0;"/><polygon fill="none" points="766.75,320.6348,786.75,327.6348,766.75,334.6348,766.75,320.6348" style="stroke:#181818;stroke-width:1.0;"/></g><!--link StudentProfile to Profile--><g id="link_StudentProfile_Profile"><path codeLine="48" d="M811,256.8648 C811,256.8648 811,304.5848 811,304.5848 " fill="none" id="StudentProfile-to-Profile" style="stroke:#181818;stroke-width:1.0;"/><polygon fill="none" points="818,304.5848,811,324.5848,804,304.5848,818,304.5848" style="stroke:#181818;stroke-width:1.0;"/></g><!--link ManagerProfile to Profile--><g id="link_ManagerProfile_Profile"><path codeLine="49" d="M1238.91,260.6348 C1110.73,260.6348 835,260.6348 835,260.6348 C835,260.6348 835,304.4048 835,304.4048 " fill="none" id="ManagerProfile-to-Profile" style="stroke:#181818;stroke-width:1.0;"/><polygon fill="none" points="842,304.4048,835,324.4048,828,304.4048,842,304.4048" style="stroke:#181818;stroke-width:1.0;"/></g><!--link TaxPayerNumber to Profile--><g id="link_TaxPayerNumber_Profile"><path codeLine="50" d="M1133,269.8948 C1133,269.8948 1133,370.6348 1133,370.6348 C1133,370.6348 872.17,370.6348 872.17,370.6348 " fill="none" id="TaxPayerNumber-Profile" style="stroke:#181818;stroke-width:1.0;"/><polygon fill="#181818" points="1133,256.8948,1129,265.8948,1133,261.8948,1137,265.8948,1133,256.8948" style="stroke:#181818;stroke-width:1.0;"/><line style="stroke:#181818;stroke-width:1.0;" x1="1133" x2="1133" y1="261.8948" y2="269.8948"/><polygon fill="#181818" points="859.17,370.6348,865.17,374.6348,871.17,370.6348,865.17,366.6348,859.17,370.6348" style="stroke:#181818;stroke-width:1.0;"/><text fill="#000000" font-family="sans-serif" font-size="13" lengthAdjust="spacing" textLength="21" x="1030.95" y="366.6631">has</text><text fill="#000000" font-family="sans-serif" font-size="13" lengthAdjust="spacing" textLength="7" x="1125.2781" y="278.2686">1</text><text fill="#000000" font-family="sans-serif" font-size="13" lengthAdjust="spacing" textLength="7" x="866.98" y="368.3273">1</text></g><!--link DateOfBirth to Profile--><g id="link_DateOfBirth_Profile"><path codeLine="51" d="M973,269.7948 C973,269.7948 973,347.6348 973,347.6348 C973,347.6348 872.31,347.6348 872.31,347.6348 " fill="none" id="DateOfBirth-Profile" style="stroke:#181818;stroke-width:1.0;"/><polygon fill="#181818" points="973,256.7948,969,265.7948,973,261.7948,977,265.7948,973,256.7948" style="stroke:#181818;stroke-width:1.0;"/><line style="stroke:#181818;stroke-width:1.0;" x1="973" x2="973" y1="261.7948" y2="269.7948"/><polygon fill="#181818" points="859.31,347.6348,865.31,351.6348,871.31,347.6348,865.31,343.6348,859.31,347.6348" style="stroke:#181818;stroke-width:1.0;"/><text fill="#000000" font-family="sans-serif" font-size="13" lengthAdjust="spacing" textLength="21" x="939.57" y="343.6631">has</text><text fill="#000000" font-family="sans-serif" font-size="13" lengthAdjust="spacing" textLength="7" x="965.2781" y="278.1479">1</text><text fill="#000000" font-family="sans-serif" font-size="13" lengthAdjust="spacing" textLength="7" x="866.8988" y="340.9219">1</text></g><!--link MechanographicNumber to StudentProfile--><g id="link_MechanographicNumber_StudentProfile"><path codeLine="52" d="M824.25,148.6848 C824.25,148.6848 824.25,190.2248 824.25,190.2248 " fill="none" id="MechanographicNumber-StudentProfile" style="stroke:#181818;stroke-width:1.0;"/><polygon fill="#181818" points="824.25,135.6848,820.25,144.6848,824.25,140.6848,828.25,144.6848,824.25,135.6848" style="stroke:#181818;stroke-width:1.0;"/><line style="stroke:#181818;stroke-width:1.0;" x1="824.25" x2="824.25" y1="140.6848" y2="148.6848"/><polygon fill="#181818" points="824.25,203.2248,828.25,197.2248,824.25,191.2248,820.25,197.2248,824.25,203.2248" style="stroke:#181818;stroke-width:1.0;"/><text fill="#000000" font-family="sans-serif" font-size="13" lengthAdjust="spacing" textLength="21" x="825.25" y="165.4831">has</text><text fill="#000000" font-family="sans-serif" font-size="13" lengthAdjust="spacing" textLength="7" x="816.7578" y="192.5847">1</text><text fill="#000000" font-family="sans-serif" font-size="13" lengthAdjust="spacing" textLength="7" x="809.1016" y="157.4578">1</text></g><!--link Acronym to TeacherProfile--><g id="link_Acronym_TeacherProfile"><path codeLine="53" d="M674,148.6848 C674,148.6848 674,190.2248 674,190.2248 " fill="none" id="Acronym-TeacherProfile" style="stroke:#181818;stroke-width:1.0;"/><polygon fill="#181818" points="674,135.6848,670,144.6848,674,140.6848,678,144.6848,674,135.6848" style="stroke:#181818;stroke-width:1.0;"/><line style="stroke:#181818;stroke-width:1.0;" x1="674" x2="674" y1="140.6848" y2="148.6848"/><polygon fill="#181818" points="674,203.2248,678,197.2248,674,191.2248,670,197.2248,674,203.2248" style="stroke:#181818;stroke-width:1.0;"/><text fill="#000000" font-family="sans-serif" font-size="13" lengthAdjust="spacing" textLength="21" x="675" y="165.4831">has</text><text fill="#000000" font-family="sans-serif" font-size="13" lengthAdjust="spacing" textLength="7" x="668.2031" y="192.5847">1</text><text fill="#000000" font-family="sans-serif" font-size="13" lengthAdjust="spacing" textLength="7" x="666.0156" y="157.4578">1</text></g><!--link Schedule to Profile--><g id="link_Schedule_Profile"><path codeLine="54" d="M522,269.8048 C522,269.8048 522,330.6348 522,330.6348 C522,330.6348 773.99,330.6348 773.99,330.6348 " fill="none" id="Schedule-Profile" style="stroke:#181818;stroke-width:1.0;"/><polygon fill="#181818" points="522,256.8048,518,265.8048,522,261.8048,526,265.8048,522,256.8048" style="stroke:#181818;stroke-width:1.0;"/><line style="stroke:#181818;stroke-width:1.0;" x1="522" x2="522" y1="261.8048" y2="269.8048"/><polygon fill="#181818" points="786.99,330.6348,780.99,326.6348,774.99,330.6348,780.99,334.6348,786.99,330.6348" style="stroke:#181818;stroke-width:1.0;"/><text fill="#000000" font-family="sans-serif" font-size="13" lengthAdjust="spacing" textLength="21" x="595.58" y="326.6631">has</text><text fill="#000000" font-family="sans-serif" font-size="13" lengthAdjust="spacing" textLength="7" x="514.2781" y="278.16">1</text><text fill="#000000" font-family="sans-serif" font-size="13" lengthAdjust="spacing" textLength="7" x="771.8411" y="320.109">1</text></g><!--link ProfileDay to Schedule--><g id="link_ProfileDay_Schedule"><path codeLine="55" d="M522,148.6848 C522,148.6848 522,190.2248 522,190.2248 " fill="none" id="ProfileDay-Schedule" style="stroke:#181818;stroke-width:1.0;"/><polygon fill="#181818" points="522,135.6848,518,144.6848,522,140.6848,526,144.6848,522,135.6848" style="stroke:#181818;stroke-width:1.0;"/><line style="stroke:#181818;stroke-width:1.0;" x1="522" x2="522" y1="140.6848" y2="148.6848"/><polygon fill="#181818" points="522,203.2248,526,197.2248,522,191.2248,518,197.2248,522,203.2248" style="stroke:#181818;stroke-width:1.0;"/><text fill="#000000" font-family="sans-serif" font-size="13" lengthAdjust="spacing" textLength="21" x="523" y="165.4831">has</text><text fill="#000000" font-family="sans-serif" font-size="13" lengthAdjust="spacing" textLength="20" x="499.8125" y="192.5847">1..*</text><text fill="#000000" font-family="sans-serif" font-size="13" lengthAdjust="spacing" textLength="7" x="512.2656" y="157.4578">1</text></g><!--link Profile to User--><g id="link_Profile_User"><path codeLine="57" d="M773.66,389.6348 C773.66,389.6348 359.83,389.6348 359.83,389.6348 C359.83,389.6348 359.83,440.6148 359.83,440.6148 " fill="none" id="Profile-User" style="stroke:#181818;stroke-width:1.0;"/><polygon fill="#181818" points="786.66,389.6348,780.66,385.6348,774.66,389.6348,780.66,393.6348,786.66,389.6348" style="stroke:#181818;stroke-width:1.0;"/><polygon fill="#181818" points="359.83,453.6148,363.83,444.6148,359.83,448.6148,355.83,444.6148,359.83,453.6148" style="stroke:#181818;stroke-width:1.0;"/><line style="stroke:#181818;stroke-width:1.0;" x1="359.83" x2="359.83" y1="448.6148" y2="440.6148"/><text fill="#000000" font-family="sans-serif" font-size="13" lengthAdjust="spacing" textLength="21" x="519.26" y="385.6631">has</text><text fill="#000000" font-family="sans-serif" font-size="13" lengthAdjust="spacing" textLength="7" x="772.0655" y="390.9281">1</text><text fill="#000000" font-family="sans-serif" font-size="13" lengthAdjust="spacing" textLength="7" x="359.0556" y="442.4103">1</text></g><!--reverse link StudentRegistration to User--><g id="link_StudentRegistration_User"><path codeLine="64" d="M1431.5,398.7848 C1431.5,398.7848 1431.5,460.6348 1431.5,460.6348 C1431.5,460.6348 604.18,460.6348 370.69,460.6348 " fill="none" id="StudentRegistration-backto-User" style="stroke:#181818;stroke-width:1.0;"/><polygon fill="#181818" points="1431.5,393.7848,1427.5,402.7848,1431.5,398.7848,1435.5,402.7848,1431.5,393.7848" style="stroke:#181818;stroke-width:1.0;"/><text fill="#000000" font-family="sans-serif" font-size="13" lengthAdjust="spacing" textLength="38" x="893.02" y="456.6631">enrolls</text><text fill="#000000" font-family="sans-serif" font-size="13" lengthAdjust="spacing" textLength="7" x="1411.7813" y="415.2938">1</text><text fill="#000000" font-family="sans-serif" font-size="13" lengthAdjust="spacing" textLength="7" x="378.5132" y="451.0517">1</text></g><!--link StudentRegistration to User--><g id="link_StudentRegistration_User"><path codeLine="65" d="M1439.5,393.7448 C1439.5,425.1648 1439.5,466.6348 1439.5,466.6348 C1439.5,466.6348 375.73,466.6348 375.73,466.6348 " fill="none" id="StudentRegistration-to-User" style="stroke:#181818;stroke-width:1.0;"/><polygon fill="#181818" points="370.73,466.6348,379.73,470.6348,375.73,466.6348,379.73,462.6348,370.73,466.6348" style="stroke:#181818;stroke-width:1.0;"/><text fill="#000000" font-family="sans-serif" font-size="13" lengthAdjust="spacing" textLength="102" x="841.06" y="481.6631">has information of</text><text fill="#000000" font-family="sans-serif" font-size="13" lengthAdjust="spacing" textLength="7" x="1421.1563" y="415.2469">1</text><text fill="#000000" font-family="sans-serif" font-size="13" lengthAdjust="spacing" textLength="7" x="378.558" y="476.8548">1</text></g><!--link StudentRegistration to RegiStatusStudent--><g id="link_StudentRegistration_RegiStatusStudent"><path codeLine="66" d="M1502,406.7148 C1502,406.7148 1502,459.0148 1502,459.0148 " fill="none" id="StudentRegistration-RegiStatusStudent" style="stroke:#181818;stroke-width:1.0;"/><polygon fill="#181818" points="1502,393.7148,1498,399.7148,1502,405.7148,1506,399.7148,1502,393.7148" style="stroke:#181818;stroke-width:1.0;"/><polygon fill="#181818" points="1502,472.0148,1506,463.0148,1502,467.0148,1498,463.0148,1502,472.0148" style="stroke:#181818;stroke-width:1.0;"/><line style="stroke:#181818;stroke-width:1.0;" x1="1502" x2="1502" y1="467.0148" y2="459.0148"/><text fill="#000000" font-family="sans-serif" font-size="13" lengthAdjust="spacing" textLength="21" x="1480" y="428.8931">has</text><text fill="#000000" font-family="sans-serif" font-size="13" lengthAdjust="spacing" textLength="7" x="1494.3328" y="460.8946">1</text><text fill="#000000" font-family="sans-serif" font-size="13" lengthAdjust="spacing" textLength="7" x="1494.3984" y="415.2117">1</text></g><!--link CourseTitle to Course--><g id="link_CourseTitle_Course"><path codeLine="79" d="M2369,406.7148 C2369,406.7148 2369,506.6348 2369,506.6348 C2369,506.6348 2061.21,506.6348 2061.21,506.6348 " fill="none" id="CourseTitle-Course" style="stroke:#181818;stroke-width:1.0;"/><polygon fill="#181818" points="2369,393.7148,2365,402.7148,2369,398.7148,2373,402.7148,2369,393.7148" style="stroke:#181818;stroke-width:1.0;"/><line style="stroke:#181818;stroke-width:1.0;" x1="2369" x2="2369" y1="398.7148" y2="406.7148"/><polygon fill="#181818" points="2048.21,506.6348,2054.21,510.6348,2060.21,506.6348,2054.21,502.6348,2048.21,506.6348" style="stroke:#181818;stroke-width:1.0;"/><text fill="#000000" font-family="sans-serif" font-size="13" lengthAdjust="spacing" textLength="21" x="2243.06" y="502.6631">has</text><text fill="#000000" font-family="sans-serif" font-size="13" lengthAdjust="spacing" textLength="7" x="2361.3984" y="415.2117">1</text><text fill="#000000" font-family="sans-serif" font-size="13" lengthAdjust="spacing" textLength="7" x="2056.0847" y="502.1649">1</text></g><!--link Id to Course--><g id="link_Id_Course"><path codeLine="80" d="M2157.24,391.6348 C2157.24,391.6348 2040.83,391.6348 2040.83,391.6348 C2040.83,391.6348 2040.83,459.1348 2040.83,459.1348 " fill="none" id="Id-Course" style="stroke:#181818;stroke-width:1.0;"/><polygon fill="#181818" points="2170.24,391.6348,2161.24,387.6348,2165.24,391.6348,2161.24,395.6348,2170.24,391.6348" style="stroke:#181818;stroke-width:1.0;"/><line style="stroke:#181818;stroke-width:1.0;" x1="2165.24" x2="2157.24" y1="391.6348" y2="391.6348"/><polygon fill="#181818" points="2040.83,472.1348,2044.83,466.1348,2040.83,460.1348,2036.83,466.1348,2040.83,472.1348" style="stroke:#181818;stroke-width:1.0;"/><text fill="#000000" font-family="sans-serif" font-size="13" lengthAdjust="spacing" textLength="21" x="2043.29" y="406.6631">has</text><text fill="#000000" font-family="sans-serif" font-size="13" lengthAdjust="spacing" textLength="7" x="2155.4113" y="391.9383">1</text><text fill="#000000" font-family="sans-serif" font-size="13" lengthAdjust="spacing" textLength="7" x="2039.4075" y="460.7711">1</text></g><!--link CourseState to Course--><g id="link_CourseState_Course"><path codeLine="81" d="M2033.67,398.8448 C2033.67,398.8448 2033.67,459.0548 2033.67,459.0548 " fill="none" id="CourseState-Course" style="stroke:#181818;stroke-width:1.0;"/><polygon fill="#181818" points="2033.67,385.8448,2029.67,394.8448,2033.67,390.8448,2037.67,394.8448,2033.67,385.8448" style="stroke:#181818;stroke-width:1.0;"/><line style="stroke:#181818;stroke-width:1.0;" x1="2033.67" x2="2033.67" y1="390.8448" y2="398.8448"/><polygon fill="#181818" points="2033.67,472.0548,2037.67,466.0548,2033.67,460.0548,2029.67,466.0548,2033.67,472.0548" style="stroke:#181818;stroke-width:1.0;"/><text fill="#000000" font-family="sans-serif" font-size="13" lengthAdjust="spacing" textLength="21" x="2011.67" y="424.9731">has</text><text fill="#000000" font-family="sans-serif" font-size="13" lengthAdjust="spacing" textLength="7" x="2030.7055" y="460.9423">1</text><text fill="#000000" font-family="sans-serif" font-size="13" lengthAdjust="spacing" textLength="7" x="2016.1863" y="407.2083">1</text></g><!--link Capacity to Course--><g id="link_Capacity_Course"><path codeLine="82" d="M1984.33,398.8448 C1984.33,398.8448 1984.33,459.0548 1984.33,459.0548 " fill="none" id="Capacity-Course" style="stroke:#181818;stroke-width:1.0;"/><polygon fill="#181818" points="1984.33,385.8448,1980.33,394.8448,1984.33,390.8448,1988.33,394.8448,1984.33,385.8448" style="stroke:#181818;stroke-width:1.0;"/><line style="stroke:#181818;stroke-width:1.0;" x1="1984.33" x2="1984.33" y1="390.8448" y2="398.8448"/><polygon fill="#181818" points="1984.33,472.0548,1988.33,466.0548,1984.33,460.0548,1980.33,466.0548,1984.33,472.0548" style="stroke:#181818;stroke-width:1.0;"/><text fill="#000000" font-family="sans-serif" font-size="13" lengthAdjust="spacing" textLength="21" x="1962.33" y="424.9731">has</text><text fill="#000000" font-family="sans-serif" font-size="13" lengthAdjust="spacing" textLength="7" x="1971.9601" y="460.9423">1</text><text fill="#000000" font-family="sans-serif" font-size="13" lengthAdjust="spacing" textLength="7" x="1986.3699" y="407.2083">1</text></g><!--link EnrollementsState to Course--><g id="link_EnrollementsState_Course"><path codeLine="83" d="M1774,398.8448 C1774,398.8448 1774,506.6348 1774,506.6348 C1774,506.6348 1956.93,506.6348 1956.93,506.6348 " fill="none" id="EnrollementsState-Course" style="stroke:#181818;stroke-width:1.0;"/><polygon fill="#181818" points="1774,385.8448,1770,394.8448,1774,390.8448,1778,394.8448,1774,385.8448" style="stroke:#181818;stroke-width:1.0;"/><line style="stroke:#181818;stroke-width:1.0;" x1="1774" x2="1774" y1="390.8448" y2="398.8448"/><polygon fill="#181818" points="1969.93,506.6348,1963.93,502.6348,1957.93,506.6348,1963.93,510.6348,1969.93,506.6348" style="stroke:#181818;stroke-width:1.0;"/><text fill="#000000" font-family="sans-serif" font-size="13" lengthAdjust="spacing" textLength="21" x="1789.57" y="502.6631">has</text><text fill="#000000" font-family="sans-serif" font-size="13" lengthAdjust="spacing" textLength="7" x="1766.2781" y="407.2083">1</text><text fill="#000000" font-family="sans-serif" font-size="13" lengthAdjust="spacing" textLength="7" x="1955.0812" y="502.1649">1</text></g><!--link StudentRegistration to Course--><g id="link_StudentRegistration_Course"><path codeLine="84" d="M1580.73,388.6348 C1715.77,388.6348 1977.17,388.6348 1977.17,388.6348 C1977.17,388.6348 1977.17,466.8648 1977.17,466.8648 " fill="none" id="StudentRegistration-to-Course" style="stroke:#181818;stroke-width:1.0;"/><polygon fill="#181818" points="1977.17,471.8648,1981.17,462.8648,1977.17,466.8648,1973.17,462.8648,1977.17,471.8648" style="stroke:#181818;stroke-width:1.0;"/><text fill="#000000" font-family="sans-serif" font-size="13" lengthAdjust="spacing" textLength="21" x="1796.07" y="403.6631">has</text><text fill="#000000" font-family="sans-serif" font-size="13" lengthAdjust="spacing" textLength="7" x="1588.5675" y="387.7003">1</text><text fill="#000000" font-family="sans-serif" font-size="13" lengthAdjust="spacing" textLength="7" x="1963.656" y="460.9841">1</text></g><!--SRC=[bLPHRvim47xdLrZqPOkMQbrLgQrGfBLPfJuqhPfkxmuOy0fsPfjkKPR_tiF6nIO993maO7ztlllkkuES9WILHEKyaK4WNobROe5BjCJnAyx8NAqAWWI95MPPGHn0GHbHgoL1N81n42Y-H8gZ1LUAboYXjGtb33Qe0XTJNcBAq5JGDm9_HD8CzffJK1X5ECi4oR0YamdwAOa8KHJTyI8X0XPEqdHnVlaLhOC08KGO-5nf5804vmeWKMIM9vDrZT7NN0dACfHMHJ739UckonnY_zZOQDyeBh2Kw9b3p57qwTUNavlBRnSNTv_H6ougo7Rn6nA3yzOR1_u4Ft-vI8um-G5y582_JtJm5QD_Ag9lUpnO5mq3SrKbSElcxks_41pdcgJT-m-O0VkTVGtGt8Pd8HgDnnDzO-AzHZcMUn0V9FI1DB4jm4PGRsd8A3H6roWM1DJWmyRZ_qOTWIcZITzVjKctgvkzGdiIFAK5yRLsTRKuJrEqTgJMu7QgpTDDStYBjp2_-4taGx0cxHsmA9g1g1ztAki5_tl2Ao9cLRdGnJrKabCWvJ6zeT3GHrWza3Z7Z6S2BtCQ7ttezrXmjYgFi9W3mqdLGriunQiGOMdB1e-3xbtfMBwrWfe7Lt1xzplrsjhlLAOMVJGUZqptD4PjRxZb683kh85dqmczDRNyU-WE4ItwW_k1W1pcmxFJqv4RYNLXq9l0MdjpeXa2DM9VyzhsVoOPbKhW-dNZTtAIOBXC9tTcfclK_n8nohBIcYkiAgdLLRimZ-qSxX6PC-EjtdR5qX3haa2Ou4KXUqssUKEKfLoK1iBJNkjsF6_brDHW_mozvPMGdH6AyG8kRuGQs7wglGP-gRyPDCd6J3yVGs_hwpuPijDlOC_675hpGEeOTD5rXeUEg5iCPDLP7_4ze8jCIc15cfCF6bakFrvFDdotBGb4z0FSh0UGDhr-s7PA_VWXRMyPR42Mxm00]--></g></svg>