<?xml version="1.0" encoding="us-ascii" standalone="no"?><svg xmlns="http://www.w3.org/2000/svg" xmlns:xlink="http://www.w3.org/1999/xlink" contentStyleType="text/css" height="648px" preserveAspectRatio="none" style="width:399px;height:648px;background:#FFFFFF;" version="1.1" viewBox="0 0 399 648" width="399px" zoomAndPan="magnify"><defs/><g><rect fill="#FFFFFF" height="463.0742" style="stroke:#181818;stroke-width:1.0;" width="10" x="17.5" y="93.6211"/><rect fill="#FFFFFF" height="31.291" style="stroke:#181818;stroke-width:1.0;" width="10" x="269.5" y="116.9121"/><rect fill="#FFFFFF" height="68.582" style="stroke:#181818;stroke-width:1.0;" width="10" x="269.5" y="179.4941"/><rect fill="#FFFFFF" height="68.582" style="stroke:#181818;stroke-width:1.0;" width="10" x="269.5" y="279.3672"/><rect fill="#FFFFFF" height="68.582" style="stroke:#181818;stroke-width:1.0;" width="10" x="269.5" y="379.2402"/><rect fill="#FFFFFF" height="68.582" style="stroke:#181818;stroke-width:1.0;" width="10" x="269.5" y="479.1133"/><line style="stroke:#181818;stroke-width:0.5;stroke-dasharray:5.0,5.0;" x1="22" x2="22" y1="83.6211" y2="565.6953"/><line style="stroke:#181818;stroke-width:0.5;stroke-dasharray:5.0,5.0;" x1="274.5" x2="274.5" y1="83.6211" y2="565.6953"/><text fill="#000000" font-family="sans-serif" font-size="14" lengthAdjust="spacing" textLength="29" x="5" y="80.1074">User</text><ellipse cx="22.5" cy="13.5" fill="#E2E2F0" rx="8" ry="8" style="stroke:#181818;stroke-width:0.5;"/><path d="M22.5,21.5 L22.5,48.5 M9.5,29.5 L35.5,29.5 M22.5,48.5 L9.5,63.5 M22.5,48.5 L35.5,63.5 " fill="none" style="stroke:#181818;stroke-width:0.5;"/><text fill="#000000" font-family="sans-serif" font-size="14" lengthAdjust="spacing" textLength="29" x="5" y="579.8027">User</text><ellipse cx="22.5" cy="591.8164" fill="#E2E2F0" rx="8" ry="8" style="stroke:#181818;stroke-width:0.5;"/><path d="M22.5,599.8164 L22.5,626.8164 M9.5,607.8164 L35.5,607.8164 M22.5,626.8164 L9.5,641.8164 M22.5,626.8164 L35.5,641.8164 " fill="none" style="stroke:#181818;stroke-width:0.5;"/><rect fill="#E2E2F0" height="32.6211" rx="2.5" ry="2.5" style="stroke:#181818;stroke-width:0.5;" width="60" x="244.5" y="50"/><text fill="#000000" font-family="sans-serif" font-size="14" lengthAdjust="spacing" textLength="46" x="251.5" y="72.1074">System</text><rect fill="#E2E2F0" height="32.6211" rx="2.5" ry="2.5" style="stroke:#181818;stroke-width:0.5;" width="60" x="244.5" y="564.6953"/><text fill="#000000" font-family="sans-serif" font-size="14" lengthAdjust="spacing" textLength="46" x="251.5" y="586.8027">System</text><rect fill="#FFFFFF" height="463.0742" style="stroke:#181818;stroke-width:1.0;" width="10" x="17.5" y="93.6211"/><rect fill="#FFFFFF" height="31.291" style="stroke:#181818;stroke-width:1.0;" width="10" x="269.5" y="116.9121"/><rect fill="#FFFFFF" height="68.582" style="stroke:#181818;stroke-width:1.0;" width="10" x="269.5" y="179.4941"/><rect fill="#FFFFFF" height="68.582" style="stroke:#181818;stroke-width:1.0;" width="10" x="269.5" y="279.3672"/><rect fill="#FFFFFF" height="68.582" style="stroke:#181818;stroke-width:1.0;" width="10" x="269.5" y="379.2402"/><rect fill="#FFFFFF" height="68.582" style="stroke:#181818;stroke-width:1.0;" width="10" x="269.5" y="479.1133"/><polygon fill="#181818" points="257.5,112.9121,267.5,116.9121,257.5,120.9121,261.5,116.9121" style="stroke:#181818;stroke-width:1.0;"/><line style="stroke:#181818;stroke-width:1.0;" x1="27.5" x2="263.5" y1="116.9121" y2="116.9121"/><text fill="#000000" font-family="sans-serif" font-size="13" font-weight="bold" lengthAdjust="spacing" textLength="7" x="34.5" y="111.6494">1</text><text fill="#000000" font-family="sans-serif" font-size="13" lengthAdjust="spacing" textLength="181" x="45.5" y="111.6494">User requests to undo a Post-It</text><polygon fill="#181818" points="38.5,144.2031,28.5,148.2031,38.5,152.2031,34.5,148.2031" style="stroke:#181818;stroke-width:1.0;"/><line style="stroke:#181818;stroke-width:1.0;stroke-dasharray:2.0,2.0;" x1="32.5" x2="273.5" y1="148.2031" y2="148.2031"/><text fill="#000000" font-family="sans-serif" font-size="13" font-weight="bold" lengthAdjust="spacing" textLength="7" x="44.5" y="142.9404">2</text><text fill="#000000" font-family="sans-serif" font-size="13" lengthAdjust="spacing" textLength="201" x="55.5" y="142.9404">Check if user has boards to modify</text><polygon fill="#181818" points="257.5,175.4941,267.5,179.4941,257.5,183.4941,261.5,179.4941" style="stroke:#181818;stroke-width:1.0;"/><line style="stroke:#181818;stroke-width:1.0;" x1="27.5" x2="263.5" y1="179.4941" y2="179.4941"/><text fill="#000000" font-family="sans-serif" font-size="13" font-weight="bold" lengthAdjust="spacing" textLength="7" x="34.5" y="174.2314">3</text><text fill="#000000" font-family="sans-serif" font-size="13" lengthAdjust="spacing" textLength="204" x="45.5" y="174.2314">User retrieves their available boards</text><path d="M167,192.4941 L167,219.4941 L382,219.4941 L382,202.4941 L372,192.4941 L167,192.4941 " fill="#FEFFDD" style="stroke:#181818;stroke-width:0.5;"/><path d="M372,192.4941 L372,202.4941 L382,202.4941 L372,192.4941 " fill="#FEFFDD" style="stroke:#181818;stroke-width:0.5;"/><text fill="#000000" font-family="sans-serif" font-size="13" lengthAdjust="spacing" textLength="194" x="173" y="211.5225">System fetches the user's boards</text><polygon fill="#181818" points="38.5,244.0762,28.5,248.0762,38.5,252.0762,34.5,248.0762" style="stroke:#181818;stroke-width:1.0;"/><line style="stroke:#181818;stroke-width:1.0;stroke-dasharray:2.0,2.0;" x1="32.5" x2="273.5" y1="248.0762" y2="248.0762"/><text fill="#000000" font-family="sans-serif" font-size="13" font-weight="bold" lengthAdjust="spacing" textLength="7" x="44.5" y="242.8135">4</text><text fill="#000000" font-family="sans-serif" font-size="13" lengthAdjust="spacing" textLength="107" x="55.5" y="242.8135">List of user boards</text><polygon fill="#181818" points="257.5,275.3672,267.5,279.3672,257.5,283.3672,261.5,279.3672" style="stroke:#181818;stroke-width:1.0;"/><line style="stroke:#181818;stroke-width:1.0;" x1="27.5" x2="263.5" y1="279.3672" y2="279.3672"/><text fill="#000000" font-family="sans-serif" font-size="13" font-weight="bold" lengthAdjust="spacing" textLength="7" x="34.5" y="274.1045">5</text><text fill="#000000" font-family="sans-serif" font-size="13" lengthAdjust="spacing" textLength="177" x="45.5" y="274.1045">User selects a board to modify</text><path d="M156,292.3672 L156,319.3672 L392,319.3672 L392,302.3672 L382,292.3672 L156,292.3672 " fill="#FEFFDD" style="stroke:#181818;stroke-width:0.5;"/><path d="M382,292.3672 L382,302.3672 L392,302.3672 L382,292.3672 " fill="#FEFFDD" style="stroke:#181818;stroke-width:0.5;"/><text fill="#000000" font-family="sans-serif" font-size="13" lengthAdjust="spacing" textLength="215" x="162" y="311.3955">System displays the available boards</text><polygon fill="#181818" points="38.5,343.9492,28.5,347.9492,38.5,351.9492,34.5,347.9492" style="stroke:#181818;stroke-width:1.0;"/><line style="stroke:#181818;stroke-width:1.0;stroke-dasharray:2.0,2.0;" x1="32.5" x2="273.5" y1="347.9492" y2="347.9492"/><text fill="#000000" font-family="sans-serif" font-size="13" font-weight="bold" lengthAdjust="spacing" textLength="7" x="44.5" y="342.6865">6</text><text fill="#000000" font-family="sans-serif" font-size="13" lengthAdjust="spacing" textLength="87" x="55.5" y="342.6865">Selected board</text><polygon fill="#181818" points="257.5,375.2402,267.5,379.2402,257.5,383.2402,261.5,379.2402" style="stroke:#181818;stroke-width:1.0;"/><line style="stroke:#181818;stroke-width:1.0;" x1="27.5" x2="263.5" y1="379.2402" y2="379.2402"/><text fill="#000000" font-family="sans-serif" font-size="13" font-weight="bold" lengthAdjust="spacing" textLength="7" x="34.5" y="373.9775">7</text><text fill="#000000" font-family="sans-serif" font-size="13" lengthAdjust="spacing" textLength="165" x="45.5" y="373.9775">User selects a cell to modify</text><path d="M162,392.2402 L162,419.2402 L386,419.2402 L386,402.2402 L376,392.2402 L162,392.2402 " fill="#FEFFDD" style="stroke:#181818;stroke-width:0.5;"/><path d="M376,392.2402 L376,402.2402 L386,402.2402 L376,392.2402 " fill="#FEFFDD" style="stroke:#181818;stroke-width:0.5;"/><text fill="#000000" font-family="sans-serif" font-size="13" lengthAdjust="spacing" textLength="203" x="168" y="411.2686">System displays the available cells</text><polygon fill="#181818" points="38.5,443.8223,28.5,447.8223,38.5,451.8223,34.5,447.8223" style="stroke:#181818;stroke-width:1.0;"/><line style="stroke:#181818;stroke-width:1.0;stroke-dasharray:2.0,2.0;" x1="32.5" x2="273.5" y1="447.8223" y2="447.8223"/><text fill="#000000" font-family="sans-serif" font-size="13" font-weight="bold" lengthAdjust="spacing" textLength="7" x="44.5" y="442.5596">8</text><text fill="#000000" font-family="sans-serif" font-size="13" lengthAdjust="spacing" textLength="75" x="55.5" y="442.5596">Selected cell</text><polygon fill="#181818" points="257.5,475.1133,267.5,479.1133,257.5,483.1133,261.5,479.1133" style="stroke:#181818;stroke-width:1.0;"/><line style="stroke:#181818;stroke-width:1.0;" x1="27.5" x2="263.5" y1="479.1133" y2="479.1133"/><text fill="#000000" font-family="sans-serif" font-size="13" font-weight="bold" lengthAdjust="spacing" textLength="7" x="34.5" y="473.8506">9</text><text fill="#000000" font-family="sans-serif" font-size="13" lengthAdjust="spacing" textLength="191" x="45.5" y="473.8506">User confirms the undo operation</text><path d="M159,492.1133 L159,519.1133 L390,519.1133 L390,502.1133 L380,492.1133 L159,492.1133 " fill="#FEFFDD" style="stroke:#181818;stroke-width:0.5;"/><path d="M380,492.1133 L380,502.1133 L390,502.1133 L380,492.1133 " fill="#FEFFDD" style="stroke:#181818;stroke-width:0.5;"/><text fill="#000000" font-family="sans-serif" font-size="13" lengthAdjust="spacing" textLength="210" x="165" y="511.1416">System performs the undo operation</text><polygon fill="#181818" points="38.5,543.6953,28.5,547.6953,38.5,551.6953,34.5,547.6953" style="stroke:#181818;stroke-width:1.0;"/><line style="stroke:#181818;stroke-width:1.0;stroke-dasharray:2.0,2.0;" x1="32.5" x2="273.5" y1="547.6953" y2="547.6953"/><text fill="#000000" font-family="sans-serif" font-size="13" font-weight="bold" lengthAdjust="spacing" textLength="14" x="44.5" y="542.4326">10</text><text fill="#000000" font-family="sans-serif" font-size="13" lengthAdjust="spacing" textLength="200" x="62.5" y="542.4326">"Post-It was successfully undone!"</text><!--SRC=[hPB1IiGm48Rl-nJZNZpr1KIyU194XCK7c2OJ6amxQsPIwTkRDbaLMgM8fwRj_5- -IGQDSeGNeNX0etv4fVgMb8VKjtbvc3z0SmUdIPJwcwK08hqb4XLGXZHO1eHd5cqUz8jK0XLmspIVXFkEp2ju1sd-qw50onZj0klPUZSTB6rZrXuQFOsKintv23YY3zW6giYLpHFdDOyvUk6K9pXIqnNEudLziTfeuD6B0bV_MhNNM2YGoGU79VYjvzsgriivu5HSLnslTK_BbcHBnHzC3ONmZw8pxbVFkM2tfk71-TZNcvjdaSyKKJqF-qrpml4FaBNeiSuwlEVPbMGCYRWKmhH41xewRjX_0000]--></g></svg>