<?xml version="1.0" encoding="us-ascii" standalone="no"?><svg xmlns="http://www.w3.org/2000/svg" xmlns:xlink="http://www.w3.org/1999/xlink" contentStyleType="text/css" height="1233px" preserveAspectRatio="none" style="width:2537px;height:1233px;background:#FFFFFF;" version="1.1" viewBox="0 0 2537 1233" width="2537px" zoomAndPan="magnify"><defs/><g><rect fill="#FFFFFF" height="1017.5664" style="stroke:#181818;stroke-width:1.0;" width="10" x="31" y="98.2422"/><rect fill="#FFFFFF" height="62.582" style="stroke:#181818;stroke-width:1.0;" width="10" x="260" y="121.5332"/><rect fill="#FFFFFF" height="31.291" style="stroke:#181818;stroke-width:1.0;" width="10" x="430" y="152.8242"/><rect fill="#FFFFFF" height="279.0371" style="stroke:#181818;stroke-width:1.0;" width="10" x="637.5" y="184.1152"/><rect fill="#FFFFFF" height="105.582" style="stroke:#181818;stroke-width:1.0;" width="10" x="637.5" y="494.4434"/><rect fill="#FFFFFF" height="28" style="stroke:#181818;stroke-width:1.0;" width="10" x="642.5" y="533.7344"/><rect fill="#FFFFFF" height="105.582" style="stroke:#181818;stroke-width:1.0;" width="10" x="637.5" y="631.3164"/><rect fill="#FFFFFF" height="28" style="stroke:#181818;stroke-width:1.0;" width="10" x="642.5" y="670.6074"/><rect fill="#FFFFFF" height="347.6191" style="stroke:#181818;stroke-width:1.0;" width="10" x="637.5" y="768.1895"/><rect fill="#FFFFFF" height="216.4551" style="stroke:#181818;stroke-width:1.0;" width="10" x="1194.5" y="215.4063"/><rect fill="#FFFFFF" height="61.291" style="stroke:#181818;stroke-width:1.0;" width="10" x="1194.5" y="878.3535"/><rect fill="#FFFFFF" height="92.582" style="stroke:#181818;stroke-width:1.0;" width="10" x="1194.5" y="970.9355"/><rect fill="#FFFFFF" height="61.291" style="stroke:#181818;stroke-width:1.0;" width="10" x="1566.5" y="1002.2266"/><rect fill="#FFFFFF" height="153.873" style="stroke:#181818;stroke-width:1.0;" width="10" x="1729" y="277.9883"/><rect fill="#FFFFFF" height="61.291" style="stroke:#181818;stroke-width:1.0;" width="10" x="1847" y="309.2793"/><rect fill="#FFFFFF" height="30" style="stroke:#181818;stroke-width:1.0;" width="10" x="1981" y="909.6445"/><rect fill="#FFFFFF" height="30" style="stroke:#181818;stroke-width:1.0;" width="10" x="2166" y="1033.5176"/><rect fill="#FFFFFF" height="30" style="stroke:#181818;stroke-width:1.0;" width="10" x="2341.5" y="401.8613"/><rect fill="#FFFFFF" height="30" style="stroke:#181818;stroke-width:1.0;" width="10" x="2472.5" y="340.5703"/><rect fill="none" height="302.3281" style="stroke:#000000;stroke-width:1.5;" width="1784" x="520.5" y="783.1895"/><rect fill="none" height="269.0371" style="stroke:#000000;stroke-width:1.5;" width="1764" x="530.5" y="809.4805"/><rect fill="none" height="235.7461" style="stroke:#000000;stroke-width:1.5;" width="1744" x="540.5" y="835.7715"/><line style="stroke:#181818;stroke-width:0.5;stroke-dasharray:5.0,5.0;" x1="36" x2="36" y1="88.2422" y2="1133.8086"/><line style="stroke:#181818;stroke-width:0.5;stroke-dasharray:5.0,5.0;" x1="264.5" x2="264.5" y1="88.2422" y2="1133.8086"/><line style="stroke:#181818;stroke-width:0.5;stroke-dasharray:5.0,5.0;" x1="434.5" x2="434.5" y1="88.2422" y2="1133.8086"/><line style="stroke:#181818;stroke-width:0.5;stroke-dasharray:5.0,5.0;" x1="642.5" x2="642.5" y1="88.2422" y2="1133.8086"/><line style="stroke:#181818;stroke-width:0.5;stroke-dasharray:5.0,5.0;" x1="1199" x2="1199" y1="88.2422" y2="1133.8086"/><line style="stroke:#181818;stroke-width:0.5;stroke-dasharray:5.0,5.0;" x1="1571.5" x2="1571.5" y1="88.2422" y2="1133.8086"/><line style="stroke:#181818;stroke-width:0.5;stroke-dasharray:5.0,5.0;" x1="1733.5" x2="1733.5" y1="88.2422" y2="1133.8086"/><line style="stroke:#181818;stroke-width:0.5;stroke-dasharray:5.0,5.0;" x1="1851.5" x2="1851.5" y1="88.2422" y2="1133.8086"/><line style="stroke:#181818;stroke-width:0.5;stroke-dasharray:5.0,5.0;" x1="1985.5" x2="1985.5" y1="88.2422" y2="1133.8086"/><line style="stroke:#181818;stroke-width:0.5;stroke-dasharray:5.0,5.0;" x1="2170.5" x2="2170.5" y1="88.2422" y2="1133.8086"/><line style="stroke:#181818;stroke-width:0.5;stroke-dasharray:5.0,5.0;" x1="2346.5" x2="2346.5" y1="88.2422" y2="1133.8086"/><line style="stroke:#181818;stroke-width:0.5;stroke-dasharray:5.0,5.0;" x1="2477.5" x2="2477.5" y1="88.2422" y2="1133.8086"/><text fill="#000000" font-family="sans-serif" font-size="14" lengthAdjust="spacing" textLength="56" x="5" y="84.7285">Manager</text><ellipse cx="36" cy="18.1211" fill="#E2E2F0" rx="8" ry="8" style="stroke:#181818;stroke-width:0.5;"/><path d="M36,26.1211 L36,53.1211 M23,34.1211 L49,34.1211 M36,53.1211 L23,68.1211 M36,53.1211 L49,68.1211 " fill="none" style="stroke:#181818;stroke-width:0.5;"/><text fill="#000000" font-family="sans-serif" font-size="14" lengthAdjust="spacing" textLength="56" x="5" y="1147.916">Manager</text><ellipse cx="36" cy="1159.9297" fill="#E2E2F0" rx="8" ry="8" style="stroke:#181818;stroke-width:0.5;"/><path d="M36,1167.9297 L36,1194.9297 M23,1175.9297 L49,1175.9297 M36,1194.9297 L23,1209.9297 M36,1194.9297 L49,1209.9297 " fill="none" style="stroke:#181818;stroke-width:0.5;"/><rect fill="#E2E2F0" height="51.2422" rx="2.5" ry="2.5" style="stroke:#181818;stroke-width:0.5;" width="109" x="210.5" y="36"/><text fill="#000000" font-family="sans-serif" font-size="14" font-style="italic" lengthAdjust="spacing" textLength="95" x="217.5" y="58.1074">&#171;presentation&#187;</text><text fill="#000000" font-family="sans-serif" font-size="14" lengthAdjust="spacing" textLength="52" x="239" y="76.7285">:UsersUI</text><rect fill="#E2E2F0" height="51.2422" rx="2.5" ry="2.5" style="stroke:#181818;stroke-width:0.5;" width="109" x="210.5" y="1132.8086"/><text fill="#000000" font-family="sans-serif" font-size="14" font-style="italic" lengthAdjust="spacing" textLength="95" x="217.5" y="1154.916">&#171;presentation&#187;</text><text fill="#000000" font-family="sans-serif" font-size="14" lengthAdjust="spacing" textLength="52" x="239" y="1173.5371">:UsersUI</text><rect fill="#E2E2F0" height="51.2422" rx="2.5" ry="2.5" style="stroke:#181818;stroke-width:0.5;" width="211" x="329.5" y="36"/><text fill="#000000" font-family="sans-serif" font-size="14" font-style="italic" lengthAdjust="spacing" textLength="84" x="393" y="58.1074">&#171;application&#187;</text><text fill="#000000" font-family="sans-serif" font-size="14" lengthAdjust="spacing" textLength="197" x="336.5" y="76.7285">:AddTeacherRegistrationAction</text><rect fill="#E2E2F0" height="51.2422" rx="2.5" ry="2.5" style="stroke:#181818;stroke-width:0.5;" width="211" x="329.5" y="1132.8086"/><text fill="#000000" font-family="sans-serif" font-size="14" font-style="italic" lengthAdjust="spacing" textLength="84" x="393" y="1154.916">&#171;application&#187;</text><text fill="#000000" font-family="sans-serif" font-size="14" lengthAdjust="spacing" textLength="197" x="336.5" y="1173.5371">:AddTeacherRegistrationAction</text><rect fill="#E2E2F0" height="51.2422" rx="2.5" ry="2.5" style="stroke:#181818;stroke-width:0.5;" width="184" x="550.5" y="36"/><text fill="#000000" font-family="sans-serif" font-size="14" font-style="italic" lengthAdjust="spacing" textLength="95" x="595" y="58.1074">&#171;presentation&#187;</text><text fill="#000000" font-family="sans-serif" font-size="14" lengthAdjust="spacing" textLength="170" x="557.5" y="76.7285">:AddTeacherRegistrationUI</text><rect fill="#E2E2F0" height="51.2422" rx="2.5" ry="2.5" style="stroke:#181818;stroke-width:0.5;" width="184" x="550.5" y="1132.8086"/><text fill="#000000" font-family="sans-serif" font-size="14" font-style="italic" lengthAdjust="spacing" textLength="95" x="595" y="1154.916">&#171;presentation&#187;</text><text fill="#000000" font-family="sans-serif" font-size="14" lengthAdjust="spacing" textLength="170" x="557.5" y="1173.5371">:AddTeacherRegistrationUI</text><rect fill="#E2E2F0" height="51.2422" rx="2.5" ry="2.5" style="stroke:#181818;stroke-width:0.5;" width="209" x="1095" y="36"/><text fill="#000000" font-family="sans-serif" font-size="14" font-style="italic" lengthAdjust="spacing" textLength="84" x="1157.5" y="58.1074">&#171;application&#187;</text><text fill="#000000" font-family="sans-serif" font-size="14" lengthAdjust="spacing" textLength="195" x="1102" y="76.7285">:TeacherRegistrationController</text><rect fill="#E2E2F0" height="51.2422" rx="2.5" ry="2.5" style="stroke:#181818;stroke-width:0.5;" width="209" x="1095" y="1132.8086"/><text fill="#000000" font-family="sans-serif" font-size="14" font-style="italic" lengthAdjust="spacing" textLength="84" x="1157.5" y="1154.916">&#171;application&#187;</text><text fill="#000000" font-family="sans-serif" font-size="14" lengthAdjust="spacing" textLength="195" x="1102" y="1173.5371">:TeacherRegistrationController</text><rect fill="#E2E2F0" height="51.2422" rx="2.5" ry="2.5" style="stroke:#181818;stroke-width:0.5;" width="194" x="1474.5" y="36"/><text fill="#000000" font-family="sans-serif" font-size="14" font-style="italic" lengthAdjust="spacing" textLength="84" x="1529.5" y="58.1074">&#171;application&#187;</text><text fill="#000000" font-family="sans-serif" font-size="14" lengthAdjust="spacing" textLength="180" x="1481.5" y="76.7285">:TeacherRegistrationService</text><rect fill="#E2E2F0" height="51.2422" rx="2.5" ry="2.5" style="stroke:#181818;stroke-width:0.5;" width="194" x="1474.5" y="1132.8086"/><text fill="#000000" font-family="sans-serif" font-size="14" font-style="italic" lengthAdjust="spacing" textLength="84" x="1529.5" y="1154.916">&#171;application&#187;</text><text fill="#000000" font-family="sans-serif" font-size="14" lengthAdjust="spacing" textLength="180" x="1481.5" y="1173.5371">:TeacherRegistrationService</text><rect fill="#E2E2F0" height="51.2422" rx="2.5" ry="2.5" style="stroke:#181818;stroke-width:0.5;" width="111" x="1678.5" y="36"/><text fill="#000000" font-family="sans-serif" font-size="14" font-style="italic" lengthAdjust="spacing" textLength="84" x="1692" y="58.1074">&#171;application&#187;</text><text fill="#000000" font-family="sans-serif" font-size="14" lengthAdjust="spacing" textLength="97" x="1685.5" y="76.7285">:CourseService</text><rect fill="#E2E2F0" height="51.2422" rx="2.5" ry="2.5" style="stroke:#181818;stroke-width:0.5;" width="111" x="1678.5" y="1132.8086"/><text fill="#000000" font-family="sans-serif" font-size="14" font-style="italic" lengthAdjust="spacing" textLength="84" x="1692" y="1154.916">&#171;application&#187;</text><text fill="#000000" font-family="sans-serif" font-size="14" lengthAdjust="spacing" textLength="97" x="1685.5" y="1173.5371">:CourseService</text><rect fill="#E2E2F0" height="51.2422" rx="2.5" ry="2.5" style="stroke:#181818;stroke-width:0.5;" width="105" x="1799.5" y="36"/><text fill="#000000" font-family="sans-serif" font-size="14" font-style="italic" lengthAdjust="spacing" textLength="84" x="1810" y="58.1074">&#171;application&#187;</text><text fill="#000000" font-family="sans-serif" font-size="14" lengthAdjust="spacing" textLength="91" x="1806.5" y="76.7285">:ProfileService</text><rect fill="#E2E2F0" height="51.2422" rx="2.5" ry="2.5" style="stroke:#181818;stroke-width:0.5;" width="105" x="1799.5" y="1132.8086"/><text fill="#000000" font-family="sans-serif" font-size="14" font-style="italic" lengthAdjust="spacing" textLength="84" x="1810" y="1154.916">&#171;application&#187;</text><text fill="#000000" font-family="sans-serif" font-size="14" lengthAdjust="spacing" textLength="91" x="1806.5" y="1173.5371">:ProfileService</text><rect fill="#E2E2F0" height="51.2422" rx="2.5" ry="2.5" style="stroke:#181818;stroke-width:0.5;" width="143" x="1914.5" y="36"/><text fill="#000000" font-family="sans-serif" font-size="14" font-style="italic" lengthAdjust="spacing" textLength="62" x="1955" y="58.1074">&#171;domain&#187;</text><text fill="#000000" font-family="sans-serif" font-size="14" lengthAdjust="spacing" textLength="129" x="1921.5" y="76.7285">TeacherRegistration</text><rect fill="#E2E2F0" height="51.2422" rx="2.5" ry="2.5" style="stroke:#181818;stroke-width:0.5;" width="143" x="1914.5" y="1132.8086"/><text fill="#000000" font-family="sans-serif" font-size="14" font-style="italic" lengthAdjust="spacing" textLength="62" x="1955" y="1154.916">&#171;domain&#187;</text><text fill="#000000" font-family="sans-serif" font-size="14" lengthAdjust="spacing" textLength="129" x="1921.5" y="1173.5371">TeacherRegistration</text><text fill="#000000" font-family="sans-serif" font-size="14" font-style="italic" lengthAdjust="spacing" textLength="79" x="2128.5" y="66.1074">&#171;repository&#187;</text><text fill="#000000" font-family="sans-serif" font-size="14" lengthAdjust="spacing" textLength="201" x="2067.5" y="84.7285">:TeacherRegistrationRepository</text><path d="M2153,15 C2153,5 2171,5 2171,5 C2171,5 2189,5 2189,15 L2189,41 C2189,51 2171,51 2171,51 C2171,51 2153,51 2153,41 L2153,15 " fill="#E2E2F0" style="stroke:#181818;stroke-width:1.5;"/><path d="M2153,15 C2153,25 2171,25 2171,25 C2171,25 2189,25 2189,15 " fill="none" style="stroke:#181818;stroke-width:1.5;"/><text fill="#000000" font-family="sans-serif" font-size="14" font-style="italic" lengthAdjust="spacing" textLength="79" x="2128.5" y="1147.916">&#171;repository&#187;</text><text fill="#000000" font-family="sans-serif" font-size="14" lengthAdjust="spacing" textLength="201" x="2067.5" y="1166.5371">:TeacherRegistrationRepository</text><path d="M2153,1180.0508 C2153,1170.0508 2171,1170.0508 2171,1170.0508 C2171,1170.0508 2189,1170.0508 2189,1180.0508 L2189,1206.0508 C2189,1216.0508 2171,1216.0508 2171,1216.0508 C2171,1216.0508 2153,1216.0508 2153,1206.0508 L2153,1180.0508 " fill="#E2E2F0" style="stroke:#181818;stroke-width:1.5;"/><path d="M2153,1180.0508 C2153,1190.0508 2171,1190.0508 2171,1190.0508 C2171,1190.0508 2189,1190.0508 2189,1180.0508 " fill="none" style="stroke:#181818;stroke-width:1.5;"/><text fill="#000000" font-family="sans-serif" font-size="14" font-style="italic" lengthAdjust="spacing" textLength="79" x="2304" y="66.1074">&#171;repository&#187;</text><text fill="#000000" font-family="sans-serif" font-size="14" lengthAdjust="spacing" textLength="118" x="2284.5" y="84.7285">:CourseRepository</text><path d="M2328.5,15 C2328.5,5 2346.5,5 2346.5,5 C2346.5,5 2364.5,5 2364.5,15 L2364.5,41 C2364.5,51 2346.5,51 2346.5,51 C2346.5,51 2328.5,51 2328.5,41 L2328.5,15 " fill="#E2E2F0" style="stroke:#181818;stroke-width:1.5;"/><path d="M2328.5,15 C2328.5,25 2346.5,25 2346.5,25 C2346.5,25 2364.5,25 2364.5,15 " fill="none" style="stroke:#181818;stroke-width:1.5;"/><text fill="#000000" font-family="sans-serif" font-size="14" font-style="italic" lengthAdjust="spacing" textLength="79" x="2304" y="1147.916">&#171;repository&#187;</text><text fill="#000000" font-family="sans-serif" font-size="14" lengthAdjust="spacing" textLength="118" x="2284.5" y="1166.5371">:CourseRepository</text><path d="M2328.5,1180.0508 C2328.5,1170.0508 2346.5,1170.0508 2346.5,1170.0508 C2346.5,1170.0508 2364.5,1170.0508 2364.5,1180.0508 L2364.5,1206.0508 C2364.5,1216.0508 2346.5,1216.0508 2346.5,1216.0508 C2346.5,1216.0508 2328.5,1216.0508 2328.5,1206.0508 L2328.5,1180.0508 " fill="#E2E2F0" style="stroke:#181818;stroke-width:1.5;"/><path d="M2328.5,1180.0508 C2328.5,1190.0508 2346.5,1190.0508 2346.5,1190.0508 C2346.5,1190.0508 2364.5,1190.0508 2364.5,1180.0508 " fill="none" style="stroke:#181818;stroke-width:1.5;"/><text fill="#000000" font-family="sans-serif" font-size="14" font-style="italic" lengthAdjust="spacing" textLength="79" x="2435" y="66.1074">&#171;repository&#187;</text><text fill="#000000" font-family="sans-serif" font-size="14" lengthAdjust="spacing" textLength="112" x="2418.5" y="84.7285">:ProfileRepository</text><path d="M2459.5,15 C2459.5,5 2477.5,5 2477.5,5 C2477.5,5 2495.5,5 2495.5,15 L2495.5,41 C2495.5,51 2477.5,51 2477.5,51 C2477.5,51 2459.5,51 2459.5,41 L2459.5,15 " fill="#E2E2F0" style="stroke:#181818;stroke-width:1.5;"/><path d="M2459.5,15 C2459.5,25 2477.5,25 2477.5,25 C2477.5,25 2495.5,25 2495.5,15 " fill="none" style="stroke:#181818;stroke-width:1.5;"/><text fill="#000000" font-family="sans-serif" font-size="14" font-style="italic" lengthAdjust="spacing" textLength="79" x="2435" y="1147.916">&#171;repository&#187;</text><text fill="#000000" font-family="sans-serif" font-size="14" lengthAdjust="spacing" textLength="112" x="2418.5" y="1166.5371">:ProfileRepository</text><path d="M2459.5,1180.0508 C2459.5,1170.0508 2477.5,1170.0508 2477.5,1170.0508 C2477.5,1170.0508 2495.5,1170.0508 2495.5,1180.0508 L2495.5,1206.0508 C2495.5,1216.0508 2477.5,1216.0508 2477.5,1216.0508 C2477.5,1216.0508 2459.5,1216.0508 2459.5,1206.0508 L2459.5,1180.0508 " fill="#E2E2F0" style="stroke:#181818;stroke-width:1.5;"/><path d="M2459.5,1180.0508 C2459.5,1190.0508 2477.5,1190.0508 2477.5,1190.0508 C2477.5,1190.0508 2495.5,1190.0508 2495.5,1180.0508 " fill="none" style="stroke:#181818;stroke-width:1.5;"/><rect fill="#FFFFFF" height="1017.5664" style="stroke:#181818;stroke-width:1.0;" width="10" x="31" y="98.2422"/><rect fill="#FFFFFF" height="62.582" style="stroke:#181818;stroke-width:1.0;" width="10" x="260" y="121.5332"/><rect fill="#FFFFFF" height="31.291" style="stroke:#181818;stroke-width:1.0;" width="10" x="430" y="152.8242"/><rect fill="#FFFFFF" height="279.0371" style="stroke:#181818;stroke-width:1.0;" width="10" x="637.5" y="184.1152"/><rect fill="#FFFFFF" height="105.582" style="stroke:#181818;stroke-width:1.0;" width="10" x="637.5" y="494.4434"/><rect fill="#FFFFFF" height="28" style="stroke:#181818;stroke-width:1.0;" width="10" x="642.5" y="533.7344"/><rect fill="#FFFFFF" height="105.582" style="stroke:#181818;stroke-width:1.0;" width="10" x="637.5" y="631.3164"/><rect fill="#FFFFFF" height="28" style="stroke:#181818;stroke-width:1.0;" width="10" x="642.5" y="670.6074"/><rect fill="#FFFFFF" height="347.6191" style="stroke:#181818;stroke-width:1.0;" width="10" x="637.5" y="768.1895"/><rect fill="#FFFFFF" height="216.4551" style="stroke:#181818;stroke-width:1.0;" width="10" x="1194.5" y="215.4063"/><rect fill="#FFFFFF" height="61.291" style="stroke:#181818;stroke-width:1.0;" width="10" x="1194.5" y="878.3535"/><rect fill="#FFFFFF" height="92.582" style="stroke:#181818;stroke-width:1.0;" width="10" x="1194.5" y="970.9355"/><rect fill="#FFFFFF" height="61.291" style="stroke:#181818;stroke-width:1.0;" width="10" x="1566.5" y="1002.2266"/><rect fill="#FFFFFF" height="153.873" style="stroke:#181818;stroke-width:1.0;" width="10" x="1729" y="277.9883"/><rect fill="#FFFFFF" height="61.291" style="stroke:#181818;stroke-width:1.0;" width="10" x="1847" y="309.2793"/><rect fill="#FFFFFF" height="30" style="stroke:#181818;stroke-width:1.0;" width="10" x="1981" y="909.6445"/><rect fill="#FFFFFF" height="30" style="stroke:#181818;stroke-width:1.0;" width="10" x="2166" y="1033.5176"/><rect fill="#FFFFFF" height="30" style="stroke:#181818;stroke-width:1.0;" width="10" x="2341.5" y="401.8613"/><rect fill="#FFFFFF" height="30" style="stroke:#181818;stroke-width:1.0;" width="10" x="2472.5" y="340.5703"/><polygon fill="#181818" points="248,117.5332,258,121.5332,248,125.5332,252,121.5332" style="stroke:#181818;stroke-width:1.0;"/><line style="stroke:#181818;stroke-width:1.0;" x1="41" x2="254" y1="121.5332" y2="121.5332"/><text fill="#000000" font-family="sans-serif" font-size="13" font-weight="bold" lengthAdjust="spacing" textLength="7" x="48" y="116.2705">1</text><text fill="#000000" font-family="sans-serif" font-size="13" lengthAdjust="spacing" textLength="189" x="59" y="116.2705">Asks to set teachers of a course</text><polygon fill="#181818" points="418,148.8242,428,152.8242,418,156.8242,422,152.8242" style="stroke:#181818;stroke-width:1.0;"/><line style="stroke:#181818;stroke-width:1.0;" x1="270" x2="424" y1="152.8242" y2="152.8242"/><text fill="#000000" font-family="sans-serif" font-size="13" font-weight="bold" lengthAdjust="spacing" textLength="7" x="277" y="147.5615">2</text><text fill="#000000" font-family="sans-serif" font-size="13" lengthAdjust="spacing" textLength="54" x="288" y="147.5615">execute()</text><polygon fill="#181818" points="625.5,180.1152,635.5,184.1152,625.5,188.1152,629.5,184.1152" style="stroke:#181818;stroke-width:1.0;"/><line style="stroke:#181818;stroke-width:1.0;" x1="435" x2="631.5" y1="184.1152" y2="184.1152"/><text fill="#000000" font-family="sans-serif" font-size="13" font-weight="bold" lengthAdjust="spacing" textLength="7" x="442" y="178.8525">3</text><text fill="#000000" font-family="sans-serif" font-size="13" lengthAdjust="spacing" textLength="54" x="453" y="178.8525">doShow()</text><polygon fill="#181818" points="1182.5,211.4063,1192.5,215.4063,1182.5,219.4063,1186.5,215.4063" style="stroke:#181818;stroke-width:1.0;"/><line style="stroke:#181818;stroke-width:1.0;" x1="647.5" x2="1188.5" y1="215.4063" y2="215.4063"/><text fill="#000000" font-family="sans-serif" font-size="13" font-weight="bold" lengthAdjust="spacing" textLength="7" x="654.5" y="210.1436">4</text><text fill="#000000" font-family="sans-serif" font-size="13" lengthAdjust="spacing" textLength="74" x="665.5" y="210.1436">getCourses()</text><polygon fill="#181818" points="1182.5,242.6973,1192.5,246.6973,1182.5,250.6973,1186.5,246.6973" style="stroke:#181818;stroke-width:1.0;"/><line style="stroke:#181818;stroke-width:1.0;" x1="647.5" x2="1188.5" y1="246.6973" y2="246.6973"/><text fill="#000000" font-family="sans-serif" font-size="13" font-weight="bold" lengthAdjust="spacing" textLength="7" x="654.5" y="241.4346">5</text><text fill="#000000" font-family="sans-serif" font-size="13" lengthAdjust="spacing" textLength="122" x="665.5" y="241.4346">getTeachersProfiles()</text><polygon fill="#181818" points="1717,273.9883,1727,277.9883,1717,281.9883,1721,277.9883" style="stroke:#181818;stroke-width:1.0;"/><line style="stroke:#181818;stroke-width:1.0;" x1="1204.5" x2="1723" y1="277.9883" y2="277.9883"/><text fill="#000000" font-family="sans-serif" font-size="13" font-weight="bold" lengthAdjust="spacing" textLength="7" x="1211.5" y="272.7256">6</text><text fill="#000000" font-family="sans-serif" font-size="13" lengthAdjust="spacing" textLength="74" x="1222.5" y="272.7256">getCourses()</text><polygon fill="#181818" points="1835,305.2793,1845,309.2793,1835,313.2793,1839,309.2793" style="stroke:#181818;stroke-width:1.0;"/><line style="stroke:#181818;stroke-width:1.0;" x1="1204.5" x2="1841" y1="309.2793" y2="309.2793"/><text fill="#000000" font-family="sans-serif" font-size="13" font-weight="bold" lengthAdjust="spacing" textLength="7" x="1211.5" y="304.0166">7</text><text fill="#000000" font-family="sans-serif" font-size="13" lengthAdjust="spacing" textLength="122" x="1222.5" y="304.0166">getTeachersProfiles()</text><polygon fill="#181818" points="2460.5,336.5703,2470.5,340.5703,2460.5,344.5703,2464.5,340.5703" style="stroke:#181818;stroke-width:1.0;"/><line style="stroke:#181818;stroke-width:1.0;" x1="1857" x2="2466.5" y1="340.5703" y2="340.5703"/><text fill="#000000" font-family="sans-serif" font-size="13" font-weight="bold" lengthAdjust="spacing" textLength="7" x="1864" y="335.3076">8</text><text fill="#000000" font-family="sans-serif" font-size="13" lengthAdjust="spacing" textLength="122" x="1875" y="335.3076">getTeachersProfiles()</text><polygon fill="#181818" points="2329.5,397.8613,2339.5,401.8613,2329.5,405.8613,2333.5,401.8613" style="stroke:#181818;stroke-width:1.0;"/><line style="stroke:#181818;stroke-width:1.0;" x1="1739" x2="2335.5" y1="401.8613" y2="401.8613"/><text fill="#000000" font-family="sans-serif" font-size="13" font-weight="bold" lengthAdjust="spacing" textLength="7" x="1746" y="396.5986">9</text><text fill="#000000" font-family="sans-serif" font-size="13" lengthAdjust="spacing" textLength="89" x="1757" y="396.5986">getAllCourses()</text><polygon fill="#181818" points="52,459.1523,42,463.1523,52,467.1523,48,463.1523" style="stroke:#181818;stroke-width:1.0;"/><line style="stroke:#181818;stroke-width:1.0;" x1="46" x2="641.5" y1="463.1523" y2="463.1523"/><text fill="#000000" font-family="sans-serif" font-size="13" font-weight="bold" lengthAdjust="spacing" textLength="14" x="58" y="457.8896">10</text><text fill="#000000" font-family="sans-serif" font-size="13" lengthAdjust="spacing" textLength="264" x="76" y="457.8896">Shows all courses and request to choose one</text><polygon fill="#181818" points="625.5,490.4434,635.5,494.4434,625.5,498.4434,629.5,494.4434" style="stroke:#181818;stroke-width:1.0;"/><line style="stroke:#181818;stroke-width:1.0;" x1="41" x2="631.5" y1="494.4434" y2="494.4434"/><text fill="#000000" font-family="sans-serif" font-size="13" font-weight="bold" lengthAdjust="spacing" textLength="14" x="48" y="489.1807">11</text><text fill="#000000" font-family="sans-serif" font-size="13" lengthAdjust="spacing" textLength="94" x="66" y="489.1807">Chooses course</text><line style="stroke:#181818;stroke-width:1.0;" x1="652.5" x2="694.5" y1="525.7344" y2="525.7344"/><line style="stroke:#181818;stroke-width:1.0;" x1="694.5" x2="694.5" y1="525.7344" y2="538.7344"/><line style="stroke:#181818;stroke-width:1.0;" x1="653.5" x2="694.5" y1="538.7344" y2="538.7344"/><polygon fill="#181818" points="663.5,534.7344,653.5,538.7344,663.5,542.7344,659.5,538.7344" style="stroke:#181818;stroke-width:1.0;"/><text fill="#000000" font-family="sans-serif" font-size="13" font-weight="bold" lengthAdjust="spacing" textLength="14" x="659.5" y="520.4717">12</text><text fill="#000000" font-family="sans-serif" font-size="13" lengthAdjust="spacing" textLength="120" x="677.5" y="520.4717">course = get(course)</text><polygon fill="#181818" points="52,596.0254,42,600.0254,52,604.0254,48,600.0254" style="stroke:#181818;stroke-width:1.0;"/><line style="stroke:#181818;stroke-width:1.0;" x1="46" x2="641.5" y1="600.0254" y2="600.0254"/><text fill="#000000" font-family="sans-serif" font-size="13" font-weight="bold" lengthAdjust="spacing" textLength="14" x="58" y="594.7627">13</text><text fill="#000000" font-family="sans-serif" font-size="13" lengthAdjust="spacing" textLength="268" x="76" y="594.7627">Shows all teachers and request to choose one</text><polygon fill="#181818" points="625.5,627.3164,635.5,631.3164,625.5,635.3164,629.5,631.3164" style="stroke:#181818;stroke-width:1.0;"/><line style="stroke:#181818;stroke-width:1.0;" x1="41" x2="631.5" y1="631.3164" y2="631.3164"/><text fill="#000000" font-family="sans-serif" font-size="13" font-weight="bold" lengthAdjust="spacing" textLength="14" x="48" y="626.0537">14</text><text fill="#000000" font-family="sans-serif" font-size="13" lengthAdjust="spacing" textLength="98" x="66" y="626.0537">Chooses teacher</text><line style="stroke:#181818;stroke-width:1.0;" x1="652.5" x2="694.5" y1="662.6074" y2="662.6074"/><line style="stroke:#181818;stroke-width:1.0;" x1="694.5" x2="694.5" y1="662.6074" y2="675.6074"/><line style="stroke:#181818;stroke-width:1.0;" x1="653.5" x2="694.5" y1="675.6074" y2="675.6074"/><polygon fill="#181818" points="663.5,671.6074,653.5,675.6074,663.5,679.6074,659.5,675.6074" style="stroke:#181818;stroke-width:1.0;"/><text fill="#000000" font-family="sans-serif" font-size="13" font-weight="bold" lengthAdjust="spacing" textLength="14" x="659.5" y="657.3447">15</text><text fill="#000000" font-family="sans-serif" font-size="13" lengthAdjust="spacing" textLength="164" x="677.5" y="657.3447">teacherProfile = get(teacher)</text><polygon fill="#181818" points="52,732.8984,42,736.8984,52,740.8984,48,736.8984" style="stroke:#181818;stroke-width:1.0;"/><line style="stroke:#181818;stroke-width:1.0;stroke-dasharray:2.0,2.0;" x1="46" x2="641.5" y1="736.8984" y2="736.8984"/><text fill="#000000" font-family="sans-serif" font-size="13" font-weight="bold" lengthAdjust="spacing" textLength="14" x="58" y="731.6357">16</text><text fill="#000000" font-family="sans-serif" font-size="13" lengthAdjust="spacing" textLength="217" x="76" y="731.6357">Asks to select role the role of teacher</text><polygon fill="#181818" points="625.5,764.1895,635.5,768.1895,625.5,772.1895,629.5,768.1895" style="stroke:#181818;stroke-width:1.0;"/><line style="stroke:#181818;stroke-width:1.0;" x1="41" x2="631.5" y1="768.1895" y2="768.1895"/><text fill="#000000" font-family="sans-serif" font-size="13" font-weight="bold" lengthAdjust="spacing" textLength="14" x="48" y="762.9268">17</text><text fill="#000000" font-family="sans-serif" font-size="13" lengthAdjust="spacing" textLength="76" x="66" y="762.9268">Chooses role</text><path d="M520.5,783.1895 L581.5,783.1895 L581.5,792.4805 L571.5,802.4805 L520.5,802.4805 L520.5,783.1895 " fill="#EEEEEE" style="stroke:#000000;stroke-width:1.5;"/><rect fill="none" height="302.3281" style="stroke:#000000;stroke-width:1.5;" width="1784" x="520.5" y="783.1895"/><text fill="#000000" font-family="sans-serif" font-size="13" font-weight="bold" lengthAdjust="spacing" textLength="16" x="535.5" y="798.2178">alt</text><text fill="#000000" font-family="sans-serif" font-size="11" font-weight="bold" lengthAdjust="spacing" textLength="211" x="596.5" y="797.0596">[course.getState().equals(State.OPEN)]</text><path d="M530.5,809.4805 L591.5,809.4805 L591.5,818.7715 L581.5,828.7715 L530.5,828.7715 L530.5,809.4805 " fill="#EEEEEE" style="stroke:#000000;stroke-width:1.5;"/><rect fill="none" height="269.0371" style="stroke:#000000;stroke-width:1.5;" width="1764" x="530.5" y="809.4805"/><text fill="#000000" font-family="sans-serif" font-size="13" font-weight="bold" lengthAdjust="spacing" textLength="16" x="545.5" y="824.5088">alt</text><text fill="#000000" font-family="sans-serif" font-size="11" font-weight="bold" lengthAdjust="spacing" textLength="353" x="606.5" y="823.3506">[(course.getEnrollmentsState().equals(EnrollmentsState.OPEN))]</text><path d="M540.5,835.7715 L601.5,835.7715 L601.5,845.0625 L591.5,855.0625 L540.5,855.0625 L540.5,835.7715 " fill="#EEEEEE" style="stroke:#000000;stroke-width:1.5;"/><rect fill="none" height="235.7461" style="stroke:#000000;stroke-width:1.5;" width="1744" x="540.5" y="835.7715"/><text fill="#000000" font-family="sans-serif" font-size="13" font-weight="bold" lengthAdjust="spacing" textLength="16" x="555.5" y="850.7998">alt</text><text fill="#000000" font-family="sans-serif" font-size="11" font-weight="bold" lengthAdjust="spacing" textLength="393" x="616.5" y="849.6416">[(!controller.hasRegentInCourse(course) &amp;&amp; role.equals(Role.REGENT))]</text><polygon fill="#181818" points="1182.5,874.3535,1192.5,878.3535,1182.5,882.3535,1186.5,878.3535" style="stroke:#181818;stroke-width:1.0;"/><line style="stroke:#181818;stroke-width:1.0;" x1="647.5" x2="1188.5" y1="878.3535" y2="878.3535"/><text fill="#000000" font-family="sans-serif" font-size="13" font-weight="bold" lengthAdjust="spacing" textLength="14" x="654.5" y="873.0908">18</text><text fill="#000000" font-family="sans-serif" font-size="13" lengthAdjust="spacing" textLength="510" x="672.5" y="873.0908">newTeacherRegistration = controller.addTeacherRegistration(teacherProfile, role, course)</text><polygon fill="#181818" points="1969,905.6445,1979,909.6445,1969,913.6445,1973,909.6445" style="stroke:#181818;stroke-width:1.0;"/><line style="stroke:#181818;stroke-width:1.0;" x1="1204.5" x2="1975" y1="909.6445" y2="909.6445"/><text fill="#000000" font-family="sans-serif" font-size="13" font-weight="bold" lengthAdjust="spacing" textLength="14" x="1211.5" y="904.3818">19</text><text fill="#000000" font-family="sans-serif" font-size="13" lengthAdjust="spacing" textLength="327" x="1229.5" y="904.3818">TeacherRegistration.from(null,teacherProfile,role, course)</text><polygon fill="#181818" points="1182.5,966.9355,1192.5,970.9355,1182.5,974.9355,1186.5,970.9355" style="stroke:#181818;stroke-width:1.0;"/><line style="stroke:#181818;stroke-width:1.0;" x1="647.5" x2="1188.5" y1="970.9355" y2="970.9355"/><text fill="#000000" font-family="sans-serif" font-size="13" font-weight="bold" lengthAdjust="spacing" textLength="14" x="654.5" y="965.6729">20</text><text fill="#000000" font-family="sans-serif" font-size="13" lengthAdjust="spacing" textLength="344" x="672.5" y="965.6729">controller.saveTeacherRegistration(newTeacherRegistration)</text><polygon fill="#181818" points="1554.5,998.2266,1564.5,1002.2266,1554.5,1006.2266,1558.5,1002.2266" style="stroke:#181818;stroke-width:1.0;"/><line style="stroke:#181818;stroke-width:1.0;" x1="1204.5" x2="1560.5" y1="1002.2266" y2="1002.2266"/><text fill="#000000" font-family="sans-serif" font-size="13" font-weight="bold" lengthAdjust="spacing" textLength="14" x="1211.5" y="996.9639">21</text><text fill="#000000" font-family="sans-serif" font-size="13" lengthAdjust="spacing" textLength="325" x="1229.5" y="996.9639">service.addNewTeacherRegistration(teacherRegistration)</text><polygon fill="#181818" points="2154,1029.5176,2164,1033.5176,2154,1037.5176,2158,1033.5176" style="stroke:#181818;stroke-width:1.0;"/><line style="stroke:#181818;stroke-width:1.0;" x1="1576.5" x2="2160" y1="1033.5176" y2="1033.5176"/><text fill="#000000" font-family="sans-serif" font-size="13" font-weight="bold" lengthAdjust="spacing" textLength="14" x="1583.5" y="1028.2549">22</text><text fill="#000000" font-family="sans-serif" font-size="13" lengthAdjust="spacing" textLength="207" x="1601.5" y="1028.2549">repository.save(teacherRegistration)</text><polygon fill="#181818" points="47,1111.8086,37,1115.8086,47,1119.8086,43,1115.8086" style="stroke:#181818;stroke-width:1.0;"/><line style="stroke:#181818;stroke-width:1.0;stroke-dasharray:2.0,2.0;" x1="41" x2="641.5" y1="1115.8086" y2="1115.8086"/><text fill="#000000" font-family="sans-serif" font-size="13" font-weight="bold" lengthAdjust="spacing" textLength="14" x="53" y="1110.5459">23</text><text fill="#000000" font-family="sans-serif" font-size="13" lengthAdjust="spacing" textLength="152" x="71" y="1110.5459">informs operation success</text><!--SRC=[jLPHJzim47xFh_3wm884vJrYI1Mg9Xx6K84VO99h6ysnCzk1xT_ldDY9dJfD4QnIMpjtzztvky-El-wrhbLsTLKpodLJiMKkgYi5lnlWELmM9Tr9MYK9RRJWJVK24iUv5f9KbDCTI48LMVpeneiagQdKPLxM24OMsRC2gPxl5iQfASdrTIr10TTKbuBVt8oyLqNn13JVWzp0hbHQjcwhtFos4BGT8WojQrRcxq6nHSZWqLn14PnRmRKKZE5Y3LxUJsUgYa0zWdmjSsXnL3UU0RaLZLGGYUiCCz4FKcnB5WktbkFnaHMq6FhmEG8LegAbmIYefYyKYujoi85Qg1BbzDUsnqqHOfY4CDrY9oDxBgRYxMed0GOs0WGZ-_ALQd3AJnAt1IvlZBepibA_a0-1j6f7Yo9YIoZgn1GrG3HbWX4OPoMT4VW3UQCXFH-SEbjYNT1vfDwC5E9nBzumfe1nbFS4a_NZ428P8M8EJz4PsO7kw5H-NOFB2V6swSgoQe0y5mm89JoLC_2A8xY-JQKTOrbJCWflUHvhOHRp8CHlm55Zl1fBHr2CJz6AiGXBOzzu4OUsa5tFSBJLJluPCIh4uvanAtGSym8pubj4QRCZyhqGMBhWev82CNhRwK3fjos0EjX8ite-GEeGo3V3OjfDpYVnfeizZOx-5FXVVDW47o74GZYfTyJOXv_1J43DS4Goo3L1RG7HU-W6U5IwzNoC5OCsMJbbsefWYIjzn7S_dhfBx0rbAcsdovyFw_lpXE37EAU3zvgRtL3XZK6D0iUM3gC3wO6-3FjfkQSAtuJeVyUxVUV4ICxEsWKuv8qPRzRVr_TF7fxvp9o-7DuYhrnii5S5ZTwMqb0J5sqz5yJj5h-6s57XsyEZEdPPo4YaWkLMYYhb3MCNerfEA2MI9N3qnFKErua5pZJ1urhHLuYH7U_JHsXsrydCZKoVxwDfKdroQeiL65scu4M5UOT9k-ntP1aYfnenxn6hDDx9tWLuaRX_ypr-Z9LyAsI5bxiQh8fLa-UWr963oxFqDyX_]--></g></svg>