<?xml version="1.0" encoding="us-ascii" standalone="no"?><svg xmlns="http://www.w3.org/2000/svg" xmlns:xlink="http://www.w3.org/1999/xlink" contentStyleType="text/css" height="580px" preserveAspectRatio="none" style="width:1638px;height:580px;background:#FFFFFF;" version="1.1" viewBox="0 0 1638 580" width="1638px" zoomAndPan="magnify"><defs/><g><rect fill="#FFFFFF" height="373.9102" style="stroke:#181818;stroke-width:1.0;" width="10" x="31" y="98.2422"/><rect fill="#FFFFFF" height="62.582" style="stroke:#181818;stroke-width:1.0;" width="10" x="231" y="121.5332"/><rect fill="#FFFFFF" height="31.291" style="stroke:#181818;stroke-width:1.0;" width="10" x="359.5" y="152.8242"/><rect fill="#FFFFFF" height="31.291" style="stroke:#181818;stroke-width:1.0;" width="10" x="523" y="184.1152"/><rect fill="#FFFFFF" height="225.4551" style="stroke:#181818;stroke-width:1.0;" width="10" x="523" y="246.6973"/><rect fill="#FFFFFF" height="153.873" style="stroke:#181818;stroke-width:1.0;" width="10" x="961" y="277.9883"/><rect fill="#FFFFFF" height="61.291" style="stroke:#181818;stroke-width:1.0;" width="10" x="1135" y="370.5703"/><rect fill="#FFFFFF" height="30" style="stroke:#181818;stroke-width:1.0;" width="10" x="1460" y="309.2793"/><rect fill="#FFFFFF" height="30" style="stroke:#181818;stroke-width:1.0;" width="10" x="1570" y="401.8613"/><line style="stroke:#181818;stroke-width:0.5;stroke-dasharray:5.0,5.0;" x1="36" x2="36" y1="88.2422" y2="481.1523"/><line style="stroke:#181818;stroke-width:0.5;stroke-dasharray:5.0,5.0;" x1="235.5" x2="235.5" y1="88.2422" y2="481.1523"/><line style="stroke:#181818;stroke-width:0.5;stroke-dasharray:5.0,5.0;" x1="364.5" x2="364.5" y1="88.2422" y2="481.1523"/><line style="stroke:#181818;stroke-width:0.5;stroke-dasharray:5.0,5.0;" x1="527.5" x2="527.5" y1="88.2422" y2="481.1523"/><line style="stroke:#181818;stroke-width:0.5;stroke-dasharray:5.0,5.0;" x1="965.5" x2="965.5" y1="88.2422" y2="481.1523"/><line style="stroke:#181818;stroke-width:0.5;stroke-dasharray:5.0,5.0;" x1="1139.5" x2="1139.5" y1="88.2422" y2="481.1523"/><line style="stroke:#181818;stroke-width:0.5;stroke-dasharray:5.0,5.0;" x1="1465" x2="1465" y1="88.2422" y2="481.1523"/><line style="stroke:#181818;stroke-width:0.5;stroke-dasharray:5.0,5.0;" x1="1575" x2="1575" y1="88.2422" y2="481.1523"/><text fill="#000000" font-family="sans-serif" font-size="14" lengthAdjust="spacing" textLength="56" x="5" y="84.7285">Manager</text><ellipse cx="36" cy="18.1211" fill="#E2E2F0" rx="8" ry="8" style="stroke:#181818;stroke-width:0.5;"/><path d="M36,26.1211 L36,53.1211 M23,34.1211 L49,34.1211 M36,53.1211 L23,68.1211 M36,53.1211 L49,68.1211 " fill="none" style="stroke:#181818;stroke-width:0.5;"/><text fill="#000000" font-family="sans-serif" font-size="14" lengthAdjust="spacing" textLength="56" x="5" y="495.2598">Manager</text><ellipse cx="36" cy="507.2734" fill="#E2E2F0" rx="8" ry="8" style="stroke:#181818;stroke-width:0.5;"/><path d="M36,515.2734 L36,542.2734 M23,523.2734 L49,523.2734 M36,542.2734 L23,557.2734 M36,542.2734 L49,557.2734 " fill="none" style="stroke:#181818;stroke-width:0.5;"/><rect fill="#E2E2F0" height="51.2422" rx="2.5" ry="2.5" style="stroke:#181818;stroke-width:0.5;" width="109" x="181.5" y="36"/><text fill="#000000" font-family="sans-serif" font-size="14" font-style="italic" lengthAdjust="spacing" textLength="95" x="188.5" y="58.1074">&#171;presentation&#187;</text><text fill="#000000" font-family="sans-serif" font-size="14" lengthAdjust="spacing" textLength="52" x="210" y="76.7285">:UsersUI</text><rect fill="#E2E2F0" height="51.2422" rx="2.5" ry="2.5" style="stroke:#181818;stroke-width:0.5;" width="109" x="181.5" y="480.1523"/><text fill="#000000" font-family="sans-serif" font-size="14" font-style="italic" lengthAdjust="spacing" textLength="95" x="188.5" y="502.2598">&#171;presentation&#187;</text><text fill="#000000" font-family="sans-serif" font-size="14" lengthAdjust="spacing" textLength="52" x="210" y="520.8809">:UsersUI</text><rect fill="#E2E2F0" height="51.2422" rx="2.5" ry="2.5" style="stroke:#181818;stroke-width:0.5;" width="128" x="300.5" y="36"/><text fill="#000000" font-family="sans-serif" font-size="14" font-style="italic" lengthAdjust="spacing" textLength="95" x="317" y="58.1074">&#171;presentation&#187;</text><text fill="#000000" font-family="sans-serif" font-size="14" lengthAdjust="spacing" textLength="114" x="307.5" y="76.7285">:AddCourseAction</text><rect fill="#E2E2F0" height="51.2422" rx="2.5" ry="2.5" style="stroke:#181818;stroke-width:0.5;" width="128" x="300.5" y="480.1523"/><text fill="#000000" font-family="sans-serif" font-size="14" font-style="italic" lengthAdjust="spacing" textLength="95" x="317" y="502.2598">&#171;presentation&#187;</text><text fill="#000000" font-family="sans-serif" font-size="14" lengthAdjust="spacing" textLength="114" x="307.5" y="520.8809">:AddCourseAction</text><rect fill="#E2E2F0" height="51.2422" rx="2.5" ry="2.5" style="stroke:#181818;stroke-width:0.5;" width="109" x="473.5" y="36"/><text fill="#000000" font-family="sans-serif" font-size="14" font-style="italic" lengthAdjust="spacing" textLength="95" x="480.5" y="58.1074">&#171;presentation&#187;</text><text fill="#000000" font-family="sans-serif" font-size="14" lengthAdjust="spacing" textLength="87" x="484.5" y="76.7285">:AddCourseUI</text><rect fill="#E2E2F0" height="51.2422" rx="2.5" ry="2.5" style="stroke:#181818;stroke-width:0.5;" width="109" x="473.5" y="480.1523"/><text fill="#000000" font-family="sans-serif" font-size="14" font-style="italic" lengthAdjust="spacing" textLength="95" x="480.5" y="502.2598">&#171;presentation&#187;</text><text fill="#000000" font-family="sans-serif" font-size="14" lengthAdjust="spacing" textLength="87" x="484.5" y="520.8809">:AddCourseUI</text><rect fill="#E2E2F0" height="51.2422" rx="2.5" ry="2.5" style="stroke:#181818;stroke-width:0.5;" width="151" x="890.5" y="36"/><text fill="#000000" font-family="sans-serif" font-size="14" font-style="italic" lengthAdjust="spacing" textLength="84" x="924" y="58.1074">&#171;application&#187;</text><text fill="#000000" font-family="sans-serif" font-size="14" lengthAdjust="spacing" textLength="137" x="897.5" y="76.7285">:AddCourseController</text><rect fill="#E2E2F0" height="51.2422" rx="2.5" ry="2.5" style="stroke:#181818;stroke-width:0.5;" width="151" x="890.5" y="480.1523"/><text fill="#000000" font-family="sans-serif" font-size="14" font-style="italic" lengthAdjust="spacing" textLength="84" x="924" y="502.2598">&#171;application&#187;</text><text fill="#000000" font-family="sans-serif" font-size="14" lengthAdjust="spacing" textLength="137" x="897.5" y="520.8809">:AddCourseController</text><rect fill="#E2E2F0" height="51.2422" rx="2.5" ry="2.5" style="stroke:#181818;stroke-width:0.5;" width="111" x="1084.5" y="36"/><text fill="#000000" font-family="sans-serif" font-size="14" font-style="italic" lengthAdjust="spacing" textLength="84" x="1098" y="58.1074">&#171;application&#187;</text><text fill="#000000" font-family="sans-serif" font-size="14" lengthAdjust="spacing" textLength="97" x="1091.5" y="76.7285">:CourseService</text><rect fill="#E2E2F0" height="51.2422" rx="2.5" ry="2.5" style="stroke:#181818;stroke-width:0.5;" width="111" x="1084.5" y="480.1523"/><text fill="#000000" font-family="sans-serif" font-size="14" font-style="italic" lengthAdjust="spacing" textLength="84" x="1098" y="502.2598">&#171;application&#187;</text><text fill="#000000" font-family="sans-serif" font-size="14" lengthAdjust="spacing" textLength="97" x="1091.5" y="520.8809">:CourseService</text><rect fill="#E2E2F0" height="51.2422" rx="2.5" ry="2.5" style="stroke:#181818;stroke-width:0.5;" width="76" x="1427" y="36"/><text fill="#000000" font-family="sans-serif" font-size="14" font-style="italic" lengthAdjust="spacing" textLength="62" x="1434" y="58.1074">&#171;domain&#187;</text><text fill="#000000" font-family="sans-serif" font-size="14" lengthAdjust="spacing" textLength="46" x="1442" y="76.7285">Course</text><rect fill="#E2E2F0" height="51.2422" rx="2.5" ry="2.5" style="stroke:#181818;stroke-width:0.5;" width="76" x="1427" y="480.1523"/><text fill="#000000" font-family="sans-serif" font-size="14" font-style="italic" lengthAdjust="spacing" textLength="62" x="1434" y="502.2598">&#171;domain&#187;</text><text fill="#000000" font-family="sans-serif" font-size="14" lengthAdjust="spacing" textLength="46" x="1442" y="520.8809">Course</text><text fill="#000000" font-family="sans-serif" font-size="14" font-style="italic" lengthAdjust="spacing" textLength="79" x="1532.5" y="66.1074">&#171;repository&#187;</text><text fill="#000000" font-family="sans-serif" font-size="14" lengthAdjust="spacing" textLength="118" x="1513" y="84.7285">:CourseRepository</text><path d="M1557,15 C1557,5 1575,5 1575,5 C1575,5 1593,5 1593,15 L1593,41 C1593,51 1575,51 1575,51 C1575,51 1557,51 1557,41 L1557,15 " fill="#E2E2F0" style="stroke:#181818;stroke-width:1.5;"/><path d="M1557,15 C1557,25 1575,25 1575,25 C1575,25 1593,25 1593,15 " fill="none" style="stroke:#181818;stroke-width:1.5;"/><text fill="#000000" font-family="sans-serif" font-size="14" font-style="italic" lengthAdjust="spacing" textLength="79" x="1532.5" y="495.2598">&#171;repository&#187;</text><text fill="#000000" font-family="sans-serif" font-size="14" lengthAdjust="spacing" textLength="118" x="1513" y="513.8809">:CourseRepository</text><path d="M1557,527.3945 C1557,517.3945 1575,517.3945 1575,517.3945 C1575,517.3945 1593,517.3945 1593,527.3945 L1593,553.3945 C1593,563.3945 1575,563.3945 1575,563.3945 C1575,563.3945 1557,563.3945 1557,553.3945 L1557,527.3945 " fill="#E2E2F0" style="stroke:#181818;stroke-width:1.5;"/><path d="M1557,527.3945 C1557,537.3945 1575,537.3945 1575,537.3945 C1575,537.3945 1593,537.3945 1593,527.3945 " fill="none" style="stroke:#181818;stroke-width:1.5;"/><rect fill="#FFFFFF" height="373.9102" style="stroke:#181818;stroke-width:1.0;" width="10" x="31" y="98.2422"/><rect fill="#FFFFFF" height="62.582" style="stroke:#181818;stroke-width:1.0;" width="10" x="231" y="121.5332"/><rect fill="#FFFFFF" height="31.291" style="stroke:#181818;stroke-width:1.0;" width="10" x="359.5" y="152.8242"/><rect fill="#FFFFFF" height="31.291" style="stroke:#181818;stroke-width:1.0;" width="10" x="523" y="184.1152"/><rect fill="#FFFFFF" height="225.4551" style="stroke:#181818;stroke-width:1.0;" width="10" x="523" y="246.6973"/><rect fill="#FFFFFF" height="153.873" style="stroke:#181818;stroke-width:1.0;" width="10" x="961" y="277.9883"/><rect fill="#FFFFFF" height="61.291" style="stroke:#181818;stroke-width:1.0;" width="10" x="1135" y="370.5703"/><rect fill="#FFFFFF" height="30" style="stroke:#181818;stroke-width:1.0;" width="10" x="1460" y="309.2793"/><rect fill="#FFFFFF" height="30" style="stroke:#181818;stroke-width:1.0;" width="10" x="1570" y="401.8613"/><polygon fill="#181818" points="219,117.5332,229,121.5332,219,125.5332,223,121.5332" style="stroke:#181818;stroke-width:1.0;"/><line style="stroke:#181818;stroke-width:1.0;" x1="41" x2="225" y1="121.5332" y2="121.5332"/><text fill="#000000" font-family="sans-serif" font-size="13" font-weight="bold" lengthAdjust="spacing" textLength="7" x="48" y="116.2705">1</text><text fill="#000000" font-family="sans-serif" font-size="13" lengthAdjust="spacing" textLength="160" x="59" y="116.2705">requests to add new course</text><polygon fill="#181818" points="347.5,148.8242,357.5,152.8242,347.5,156.8242,351.5,152.8242" style="stroke:#181818;stroke-width:1.0;"/><line style="stroke:#181818;stroke-width:1.0;" x1="241" x2="353.5" y1="152.8242" y2="152.8242"/><text fill="#000000" font-family="sans-serif" font-size="13" font-weight="bold" lengthAdjust="spacing" textLength="7" x="248" y="147.5615">2</text><text fill="#000000" font-family="sans-serif" font-size="13" lengthAdjust="spacing" textLength="54" x="259" y="147.5615">execute()</text><polygon fill="#181818" points="511,180.1152,521,184.1152,511,188.1152,515,184.1152" style="stroke:#181818;stroke-width:1.0;"/><line style="stroke:#181818;stroke-width:1.0;" x1="364.5" x2="517" y1="184.1152" y2="184.1152"/><text fill="#000000" font-family="sans-serif" font-size="13" font-weight="bold" lengthAdjust="spacing" textLength="7" x="371.5" y="178.8525">3</text><text fill="#000000" font-family="sans-serif" font-size="13" lengthAdjust="spacing" textLength="54" x="382.5" y="178.8525">doShow()</text><polygon fill="#181818" points="52,211.4063,42,215.4063,52,219.4063,48,215.4063" style="stroke:#181818;stroke-width:1.0;"/><line style="stroke:#181818;stroke-width:1.0;stroke-dasharray:2.0,2.0;" x1="46" x2="527" y1="215.4063" y2="215.4063"/><text fill="#000000" font-family="sans-serif" font-size="13" font-weight="bold" lengthAdjust="spacing" textLength="7" x="58" y="210.1436">4</text><text fill="#000000" font-family="sans-serif" font-size="13" lengthAdjust="spacing" textLength="447" x="69" y="210.1436">requests base data(title, state, minCapacity, maxCapacity, enrollmentsState)</text><polygon fill="#181818" points="511,242.6973,521,246.6973,511,250.6973,515,246.6973" style="stroke:#181818;stroke-width:1.0;"/><line style="stroke:#181818;stroke-width:1.0;" x1="41" x2="517" y1="246.6973" y2="246.6973"/><text fill="#000000" font-family="sans-serif" font-size="13" font-weight="bold" lengthAdjust="spacing" textLength="7" x="48" y="241.4346">5</text><text fill="#000000" font-family="sans-serif" font-size="13" lengthAdjust="spacing" textLength="125" x="59" y="241.4346">inputs requested data</text><polygon fill="#181818" points="949,273.9883,959,277.9883,949,281.9883,953,277.9883" style="stroke:#181818;stroke-width:1.0;"/><line style="stroke:#181818;stroke-width:1.0;" x1="533" x2="955" y1="277.9883" y2="277.9883"/><text fill="#000000" font-family="sans-serif" font-size="13" font-weight="bold" lengthAdjust="spacing" textLength="7" x="540" y="272.7256">6</text><text fill="#000000" font-family="sans-serif" font-size="13" lengthAdjust="spacing" textLength="398" x="551" y="272.7256">addCourse(title, state, minCapacity, maxCapacity, enrollmentsState)</text><polygon fill="#181818" points="1448,305.2793,1458,309.2793,1448,313.2793,1452,309.2793" style="stroke:#181818;stroke-width:1.0;"/><line style="stroke:#181818;stroke-width:1.0;" x1="971" x2="1454" y1="309.2793" y2="309.2793"/><text fill="#000000" font-family="sans-serif" font-size="13" font-weight="bold" lengthAdjust="spacing" textLength="7" x="978" y="304.0166">7</text><text fill="#000000" font-family="sans-serif" font-size="13" lengthAdjust="spacing" textLength="459" x="989" y="304.0166">course = new Course(title, state, minCapacity, maxCapacity, enrollmentsState)</text><polygon fill="#181818" points="1123,366.5703,1133,370.5703,1123,374.5703,1127,370.5703" style="stroke:#181818;stroke-width:1.0;"/><line style="stroke:#181818;stroke-width:1.0;" x1="971" x2="1129" y1="370.5703" y2="370.5703"/><text fill="#000000" font-family="sans-serif" font-size="13" font-weight="bold" lengthAdjust="spacing" textLength="7" x="978" y="365.3076">8</text><text fill="#000000" font-family="sans-serif" font-size="13" lengthAdjust="spacing" textLength="134" x="989" y="365.3076">addNewCourse(course)</text><polygon fill="#181818" points="1558,397.8613,1568,401.8613,1558,405.8613,1562,401.8613" style="stroke:#181818;stroke-width:1.0;"/><line style="stroke:#181818;stroke-width:1.0;" x1="1145" x2="1564" y1="401.8613" y2="401.8613"/><text fill="#000000" font-family="sans-serif" font-size="13" font-weight="bold" lengthAdjust="spacing" textLength="7" x="1152" y="396.5986">9</text><text fill="#000000" font-family="sans-serif" font-size="13" lengthAdjust="spacing" textLength="73" x="1163" y="396.5986">save(course)</text><polygon fill="#181818" points="52,459.1523,42,463.1523,52,467.1523,48,463.1523" style="stroke:#181818;stroke-width:1.0;"/><line style="stroke:#181818;stroke-width:1.0;stroke-dasharray:2.0,2.0;" x1="46" x2="522" y1="463.1523" y2="463.1523"/><text fill="#000000" font-family="sans-serif" font-size="13" font-weight="bold" lengthAdjust="spacing" textLength="14" x="58" y="457.8896">10</text><text fill="#000000" font-family="sans-serif" font-size="13" lengthAdjust="spacing" textLength="152" x="76" y="457.8896">informs operation success</text><!--SRC=[hLFBRXin3BphAmHVaW9rV5-a1WAVUaWEDVm1ZCGc0bQFYfAT_7qfxSeh1suHe3sPacOuiqFwvZMbGCDc4qPmATlnJdcx8VoLqIbSQmCl4QmGa9DtsJvZv5eb7wK51oyO9P1SFKxrIeW0CHbb0ZUJg-506EdmVLL0sSZx-n2Hq2L8nhljzWFwGUkTpv7mGPNtoe9QVfevQu7MXy_BxRnBqOyZVq0Xg_EHEq08er7N6qpiFSQZKLYfDDL_vqsqMQgK3DVUWYb83GcUWUzQ-nyOF1aE_Bqould8hEN0p38MSuI4RJ92j16jjoNzWSayLaeaaoyHIOUdsS92paOmbXbpyeF4DrGvuUsN1JIzYHbIm3NmGMg_V_KdXchy2EvkMAFhLQXYQh3cLirqPxS6KfAvJIQD-5KIZvH_h74x2A1CUkS3l2q7T6M2bcTF-uAzD5GLkt2QU-D2JjHqKLVDFpZTzdiobBTfNlzWyIoqT1QTI9Mi-pAqubiTuVyKhilGPJNVNDfeQru_-mbFiu49sxMRSQBXcThjxo09ZbTO2wGtSlssALmuFeTtRQcC- -cZ9Ua3nlhtb9ILGY8XVWC0]--></g></svg>