<?xml version="1.0" encoding="UTF-8" standalone="no"?><svg xmlns="http://www.w3.org/2000/svg" xmlns:xlink="http://www.w3.org/1999/xlink" contentStyleType="text/css" height="620px" preserveAspectRatio="none" style="width:1476px;height:620px;background:#FFFFFF;" version="1.1" viewBox="0 0 1476 620" width="1476px" zoomAndPan="magnify"><defs/><g><!--MD5=[345d2926e9f5d576001f82e13aea4ac3]
cluster <<aggregate>> Profile--><g id="cluster_&lt;&lt;aggregate&gt;&gt; Profile"><path d="M370,4.8 L494,4.8 A3,3 0 0 1 496,6.8 L501.6,22.1125 L1105.2,22.1125 A2,2 0 0 1 1107.2,24.1125 L1107.2,344 A2,2 0 0 1 1105.2,346 L370,346 A2,2 0 0 1 368,344 L368,6.8 A2,2 0 0 1 370,4.8 " fill="#99B3FF" style="stroke:#000000;stroke-width:1.2000000000000002;"/><line style="stroke:#000000;stroke-width:1.2000000000000002;" x1="368" x2="501.6" y1="22.1125" y2="22.1125"/><text fill="#000000" font-family="sans-serif" font-size="11.2" font-weight="bold" lengthAdjust="spacing" textLength="123.2" x="371.2" y="16.5391">&lt;&lt;aggregate&gt;&gt; Profile</text></g><!--MD5=[597c9b6a35d8038d4b40fd8870ba90aa]
cluster <<aggregate>> User--><g id="cluster_&lt;&lt;aggregate&gt;&gt; User"><path d="M6.8,256.8 L120.4,256.8 A3,3 0 0 1 122.4,258.8 L128,274.1125 L346.8,274.1125 A2,2 0 0 1 348.8,276.1125 L348.8,612.8 A2,2 0 0 1 346.8,614.8 L6.8,614.8 A2,2 0 0 1 4.8,612.8 L4.8,258.8 A2,2 0 0 1 6.8,256.8 " fill="#FFB380" style="stroke:#000000;stroke-width:1.2000000000000002;"/><line style="stroke:#000000;stroke-width:1.2000000000000002;" x1="4.8" x2="128" y1="274.1125" y2="274.1125"/><text fill="#000000" font-family="sans-serif" font-size="11.2" font-weight="bold" lengthAdjust="spacing" textLength="112.8" x="8" y="268.5391">&lt;&lt;aggregate&gt;&gt; User</text></g><!--MD5=[edde2cde88c7910514dcd6871a142e26]
cluster <<aggregate>> Meeting--><g id="cluster_&lt;&lt;aggregate&gt;&gt; Meeting"><path d="M1128.4,125.6 L1262,125.6 A3,3 0 0 1 1264,127.6 L1269.6,142.9125 L1468.4,142.9125 A2,2 0 0 1 1470.4,144.9125 L1470.4,602 A2,2 0 0 1 1468.4,604 L1128.4,604 A2,2 0 0 1 1126.4,602 L1126.4,127.6 A2,2 0 0 1 1128.4,125.6 " fill="#AABBAA" style="stroke:#000000;stroke-width:1.2000000000000002;"/><line style="stroke:#000000;stroke-width:1.2000000000000002;" x1="1126.4" x2="1269.6" y1="142.9125" y2="142.9125"/><text fill="#000000" font-family="sans-serif" font-size="11.2" font-weight="bold" lengthAdjust="spacing" textLength="132.8" x="1129.6" y="137.3391">&lt;&lt;aggregate&gt;&gt; Meeting</text></g><!--MD5=[7b57f7066b803747d2119f99dd1555d4]
class Profile--><g id="elem_Profile"><rect codeLine="2" fill="#F1F1F1" height="54.7625" id="Profile" rx="2" ry="2" style="stroke:#181818;stroke-width:0.4000000000000001;" width="57.6" x="648.8" y="278.8"/><ellipse cx="660.8" cy="299.7813" fill="#ADD1B2" rx="8.8" ry="8.8" style="stroke:#181818;stroke-width:0.8000000000000002;"/><path d="M659.8875,300.4188 L659.8875,302.4188 L663.35,302.4188 L663.35,301.6813 Q663.35,301.1938 663.5375,300.9813 Q663.7375,300.7688 664.0375,300.7688 Q664.3375,300.7688 664.525,300.9813 Q664.7125,301.1938 664.7125,301.6813 L664.7125,303.7813 L658.3125,303.7813 Q657.8125,303.7813 657.6,303.5938 Q657.4,303.4063 657.4,303.0938 Q657.4,302.7938 657.6125,302.6063 Q657.825,302.4188 658.3125,302.4188 L658.525,302.4188 L658.525,297.0938 L658.3125,297.0938 Q657.8125,297.0938 657.6,296.9063 Q657.4,296.7188 657.4,296.4063 Q657.4,296.1063 657.6,295.9188 Q657.8125,295.7313 658.3125,295.7313 L664.4125,295.7313 L664.4125,297.8063 Q664.4125,298.2938 664.225,298.5063 Q664.05,298.7063 663.7375,298.7063 Q663.4375,298.7063 663.25,298.5063 Q663.0625,298.2938 663.0625,297.8063 L663.0625,297.0938 L659.8875,297.0938 L659.8875,299.0563 L661.075,299.0563 Q661.075,298.5313 661.175,298.3813 Q661.3875,298.0563 661.7625,298.0563 Q662.0625,298.0563 662.25,298.2688 Q662.4375,298.4688 662.4375,298.9563 L662.4375,300.5313 Q662.4375,300.9688 662.3375,301.1188 Q662.125,301.4313 661.7625,301.4313 Q661.3875,301.4313 661.175,301.1063 Q661.075,300.9563 661.075,300.4188 L659.8875,300.4188 Z " fill="#000000"/><text fill="#000000" font-family="sans-serif" font-size="9.6" font-style="italic" lengthAdjust="spacing" textLength="28" x="674" y="291.4906">«root»</text><text fill="#000000" font-family="sans-serif" font-size="9.6" font-style="italic" lengthAdjust="spacing" textLength="34.4" x="670.8" y="302.2156">«entity»</text><text fill="#000000" font-family="sans-serif" font-size="11.2" lengthAdjust="spacing" textLength="32" x="672" y="314.3891">Profile</text><line style="stroke:#181818;stroke-width:0.4000000000000001;" x1="649.6" x2="705.6" y1="320.7625" y2="320.7625"/><line style="stroke:#181818;stroke-width:0.4000000000000001;" x1="649.6" x2="705.6" y1="327.1625" y2="327.1625"/></g><!--MD5=[e8e4e5930fae63cd70e278d3ab742cd3]
class TeacherProfile--><g id="elem_TeacherProfile"><rect codeLine="4" fill="#F1F1F1" height="44.0375" id="TeacherProfile" rx="2" ry="2" style="stroke:#181818;stroke-width:0.4000000000000001;" width="100" x="381.2" y="158"/><ellipse cx="393.2" cy="173.6188" fill="#ADD1B2" rx="8.8" ry="8.8" style="stroke:#181818;stroke-width:0.8000000000000002;"/><path d="M395.4125,170.3188 Q395.5375,170.1438 395.6875,170.0563 Q395.8375,169.9688 396.0125,169.9688 Q396.3125,169.9688 396.5,170.1813 Q396.6875,170.3813 396.6875,170.8688 L396.6875,172.0313 Q396.6875,172.5188 396.5,172.7313 Q396.3125,172.9438 396.0125,172.9438 Q395.7375,172.9438 395.575,172.7813 Q395.4125,172.6313 395.325,172.2188 Q395.2875,171.9313 395.1375,171.7813 Q394.875,171.4813 394.3875,171.3063 Q393.9,171.1313 393.4,171.1313 Q392.7875,171.1313 392.275,171.3938 Q391.775,171.6563 391.375,172.2563 Q390.9875,172.8563 390.9875,173.6813 L390.9875,174.5563 Q390.9875,175.5438 391.7,176.2063 Q392.4125,176.8563 393.6875,176.8563 Q394.4375,176.8563 394.9625,176.6563 Q395.275,176.5313 395.6125,176.1813 Q395.825,175.9688 395.9375,175.9063 Q396.0625,175.8438 396.225,175.8438 Q396.4875,175.8438 396.6875,176.0563 Q396.9,176.2563 396.9,176.5313 Q396.9,176.8063 396.625,177.1313 Q396.225,177.5938 395.5875,177.8563 Q394.725,178.2188 393.6875,178.2188 Q392.475,178.2188 391.5125,177.7188 Q390.725,177.3188 390.175,176.4688 Q389.625,175.6063 389.625,174.5813 L389.625,173.6563 Q389.625,172.5938 390.1125,171.6813 Q390.6125,170.7563 391.4875,170.2688 Q392.3625,169.7688 393.35,169.7688 Q393.9375,169.7688 394.45,169.9063 Q394.975,170.0313 395.4125,170.3188 Z " fill="#000000"/><text fill="#000000" font-family="sans-serif" font-size="9.6" font-style="italic" lengthAdjust="spacing" textLength="34.4" x="424.4" y="170.6906">«entity»</text><text fill="#000000" font-family="sans-serif" font-size="11.2" lengthAdjust="spacing" textLength="74.4" x="404.4" y="182.8641">TeacherProfile</text><line style="stroke:#181818;stroke-width:0.4000000000000001;" x1="382" x2="480.4" y1="189.2375" y2="189.2375"/><line style="stroke:#181818;stroke-width:0.4000000000000001;" x1="382" x2="480.4" y1="195.6375" y2="195.6375"/></g><!--MD5=[21a6163d0bed51676eae0f856b5f6ecb]
class StudentProfile--><g id="elem_StudentProfile"><rect codeLine="5" fill="#F1F1F1" height="44.0375" id="StudentProfile" rx="2" ry="2" style="stroke:#181818;stroke-width:0.4000000000000001;" width="96.8" x="509.2" y="158"/><ellipse cx="521.2" cy="173.6188" fill="#ADD1B2" rx="8.8" ry="8.8" style="stroke:#181818;stroke-width:0.8000000000000002;"/><path d="M523.4125,170.3188 Q523.5375,170.1438 523.6875,170.0563 Q523.8375,169.9688 524.0125,169.9688 Q524.3125,169.9688 524.5,170.1813 Q524.6875,170.3813 524.6875,170.8688 L524.6875,172.0313 Q524.6875,172.5188 524.5,172.7313 Q524.3125,172.9438 524.0125,172.9438 Q523.7375,172.9438 523.575,172.7813 Q523.4125,172.6313 523.325,172.2188 Q523.2875,171.9313 523.1375,171.7813 Q522.875,171.4813 522.3875,171.3063 Q521.9,171.1313 521.4,171.1313 Q520.7875,171.1313 520.275,171.3938 Q519.775,171.6563 519.375,172.2563 Q518.9875,172.8563 518.9875,173.6813 L518.9875,174.5563 Q518.9875,175.5438 519.7,176.2063 Q520.4125,176.8563 521.6875,176.8563 Q522.4375,176.8563 522.9625,176.6563 Q523.275,176.5313 523.6125,176.1813 Q523.825,175.9688 523.9375,175.9063 Q524.0625,175.8438 524.225,175.8438 Q524.4875,175.8438 524.6875,176.0563 Q524.9,176.2563 524.9,176.5313 Q524.9,176.8063 524.625,177.1313 Q524.225,177.5938 523.5875,177.8563 Q522.725,178.2188 521.6875,178.2188 Q520.475,178.2188 519.5125,177.7188 Q518.725,177.3188 518.175,176.4688 Q517.625,175.6063 517.625,174.5813 L517.625,173.6563 Q517.625,172.5938 518.1125,171.6813 Q518.6125,170.7563 519.4875,170.2688 Q520.3625,169.7688 521.35,169.7688 Q521.9375,169.7688 522.45,169.9063 Q522.975,170.0313 523.4125,170.3188 Z " fill="#000000"/><text fill="#000000" font-family="sans-serif" font-size="9.6" font-style="italic" lengthAdjust="spacing" textLength="34.4" x="550.8" y="170.6906">«entity»</text><text fill="#000000" font-family="sans-serif" font-size="11.2" lengthAdjust="spacing" textLength="71.2" x="532.4" y="182.8641">StudentProfile</text><line style="stroke:#181818;stroke-width:0.4000000000000001;" x1="510" x2="605.2" y1="189.2375" y2="189.2375"/><line style="stroke:#181818;stroke-width:0.4000000000000001;" x1="510" x2="605.2" y1="195.6375" y2="195.6375"/></g><!--MD5=[684494e934d4ef2a2d5a02e84740ac0e]
class ManagerProfile--><g id="elem_ManagerProfile"><rect codeLine="6" fill="#F1F1F1" height="54.7625" id="ManagerProfile" rx="2" ry="2" style="stroke:#181818;stroke-width:0.4000000000000001;" width="102.4" x="890.4" y="152.8"/><ellipse cx="902.4" cy="173.7813" fill="#ADD1B2" rx="8.8" ry="8.8" style="stroke:#181818;stroke-width:0.8000000000000002;"/><path d="M904.6125,170.4813 Q904.7375,170.3063 904.8875,170.2188 Q905.0375,170.1313 905.2125,170.1313 Q905.5125,170.1313 905.7,170.3438 Q905.8875,170.5438 905.8875,171.0313 L905.8875,172.1938 Q905.8875,172.6813 905.7,172.8938 Q905.5125,173.1063 905.2125,173.1063 Q904.9375,173.1063 904.775,172.9438 Q904.6125,172.7938 904.525,172.3813 Q904.4875,172.0938 904.3375,171.9438 Q904.075,171.6438 903.5875,171.4688 Q903.1,171.2938 902.6,171.2938 Q901.9875,171.2938 901.475,171.5563 Q900.975,171.8188 900.575,172.4188 Q900.1875,173.0188 900.1875,173.8438 L900.1875,174.7188 Q900.1875,175.7063 900.9,176.3688 Q901.6125,177.0188 902.8875,177.0188 Q903.6375,177.0188 904.1625,176.8188 Q904.475,176.6938 904.8125,176.3438 Q905.025,176.1313 905.1375,176.0688 Q905.2625,176.0063 905.425,176.0063 Q905.6875,176.0063 905.8875,176.2188 Q906.1,176.4188 906.1,176.6938 Q906.1,176.9688 905.825,177.2938 Q905.425,177.7563 904.7875,178.0188 Q903.925,178.3813 902.8875,178.3813 Q901.675,178.3813 900.7125,177.8813 Q899.925,177.4813 899.375,176.6313 Q898.825,175.7688 898.825,174.7438 L898.825,173.8188 Q898.825,172.7563 899.3125,171.8438 Q899.8125,170.9188 900.6875,170.4313 Q901.5625,169.9313 902.55,169.9313 Q903.1375,169.9313 903.65,170.0688 Q904.175,170.1938 904.6125,170.4813 Z " fill="#000000"/><text fill="#000000" font-family="sans-serif" font-size="9.6" font-style="italic" lengthAdjust="spacing" textLength="34.4" x="934.8" y="165.4906">«entity»</text><text fill="#000000" font-family="sans-serif" font-size="9.6" font-style="italic" lengthAdjust="spacing" textLength="57.6" x="923.2" y="176.2156">«NullObject»</text><text fill="#000000" font-family="sans-serif" font-size="11.2" lengthAdjust="spacing" textLength="76.8" x="913.6" y="188.3891">ManagerProfile</text><line style="stroke:#181818;stroke-width:0.4000000000000001;" x1="891.2" x2="992" y1="194.7625" y2="194.7625"/><line style="stroke:#181818;stroke-width:0.4000000000000001;" x1="891.2" x2="992" y1="201.1625" y2="201.1625"/></g><!--MD5=[d92d9e883939eee4186895798e1fdba2]
class TaxPayerNumber--><g id="elem_TaxPayerNumber"><rect codeLine="7" fill="#F1F1F1" height="44.0375" id="TaxPayerNumber" rx="2" ry="2" style="stroke:#181818;stroke-width:0.4000000000000001;" width="112.8" x="749.2" y="158"/><ellipse cx="761.2" cy="173.6188" fill="#B8255F" rx="8.8" ry="8.8" style="stroke:#181818;stroke-width:0.8000000000000002;"/><path d="M761.675,176.2313 L763.65,171.5313 L763.3375,171.5313 Q762.85,171.5313 762.6375,171.3438 Q762.425,171.1563 762.425,170.8438 Q762.425,170.5438 762.6375,170.3563 Q762.85,170.1688 763.3375,170.1688 L765.1625,170.1688 Q765.65,170.1688 765.8625,170.3563 Q766.075,170.5438 766.075,170.8438 Q766.075,171.2188 765.75,171.4313 Q765.6,171.5313 765.125,171.5313 L762.3375,178.2188 L761.025,178.2188 L758.2375,171.5313 Q757.7625,171.5313 757.6125,171.4313 Q757.2875,171.2188 757.2875,170.8438 Q757.2875,170.5438 757.5,170.3563 Q757.7125,170.1688 758.2,170.1688 L760.0375,170.1688 Q760.525,170.1688 760.725,170.3563 Q760.9375,170.5438 760.9375,170.8438 Q760.9375,171.1563 760.725,171.3438 Q760.525,171.5313 760.0375,171.5313 L759.7125,171.5313 L761.675,176.2313 Z " fill="#000000"/><text fill="#000000" font-family="sans-serif" font-size="9.6" font-style="italic" lengthAdjust="spacing" textLength="64.8" x="783.6" y="170.6906">«value object»</text><text fill="#000000" font-family="sans-serif" font-size="11.2" lengthAdjust="spacing" textLength="87.2" x="772.4" y="182.8641">TaxPayerNumber</text><line style="stroke:#181818;stroke-width:0.4000000000000001;" x1="750" x2="861.2" y1="189.2375" y2="189.2375"/><line style="stroke:#181818;stroke-width:0.4000000000000001;" x1="750" x2="861.2" y1="195.6375" y2="195.6375"/></g><!--MD5=[3adb951617f02218a93676affdecd4f3]
class DateOfBirth--><g id="elem_DateOfBirth"><rect codeLine="8" fill="#F1F1F1" height="44.0375" id="DateOfBirth" rx="2" ry="2" style="stroke:#181818;stroke-width:0.4000000000000001;" width="87.2" x="634" y="158"/><ellipse cx="646" cy="173.6188" fill="#B8255F" rx="8.8" ry="8.8" style="stroke:#181818;stroke-width:0.8000000000000002;"/><path d="M646.475,176.2313 L648.45,171.5313 L648.1375,171.5313 Q647.65,171.5313 647.4375,171.3438 Q647.225,171.1563 647.225,170.8438 Q647.225,170.5438 647.4375,170.3563 Q647.65,170.1688 648.1375,170.1688 L649.9625,170.1688 Q650.45,170.1688 650.6625,170.3563 Q650.875,170.5438 650.875,170.8438 Q650.875,171.2188 650.55,171.4313 Q650.4,171.5313 649.925,171.5313 L647.1375,178.2188 L645.825,178.2188 L643.0375,171.5313 Q642.5625,171.5313 642.4125,171.4313 Q642.0875,171.2188 642.0875,170.8438 Q642.0875,170.5438 642.3,170.3563 Q642.5125,170.1688 643,170.1688 L644.8375,170.1688 Q645.325,170.1688 645.525,170.3563 Q645.7375,170.5438 645.7375,170.8438 Q645.7375,171.1563 645.525,171.3438 Q645.325,171.5313 644.8375,171.5313 L644.5125,171.5313 L646.475,176.2313 Z " fill="#000000"/><text fill="#000000" font-family="sans-serif" font-size="9.6" font-style="italic" lengthAdjust="spacing" textLength="64.8" x="655.6" y="170.6906">«value object»</text><text fill="#000000" font-family="sans-serif" font-size="11.2" lengthAdjust="spacing" textLength="59.2" x="658.4" y="182.8641">DateOfBirth</text><line style="stroke:#181818;stroke-width:0.4000000000000001;" x1="634.8" x2="720.4" y1="189.2375" y2="189.2375"/><line style="stroke:#181818;stroke-width:0.4000000000000001;" x1="634.8" x2="720.4" y1="195.6375" y2="195.6375"/></g><!--MD5=[9de4f19eab90a199848c5893311179be]
class MechanographicNumber--><g id="elem_MechanographicNumber"><rect codeLine="9" fill="#F1F1F1" height="44.0375" id="MechanographicNumber" rx="2" ry="2" style="stroke:#181818;stroke-width:0.4000000000000001;" width="148.8" x="498.4" y="32"/><ellipse cx="510.4" cy="47.6188" fill="#B8255F" rx="8.8" ry="8.8" style="stroke:#181818;stroke-width:0.8000000000000002;"/><path d="M510.875,50.2313 L512.85,45.5313 L512.5375,45.5313 Q512.05,45.5313 511.8375,45.3438 Q511.625,45.1563 511.625,44.8438 Q511.625,44.5438 511.8375,44.3563 Q512.05,44.1688 512.5375,44.1688 L514.3625,44.1688 Q514.85,44.1688 515.0625,44.3563 Q515.275,44.5438 515.275,44.8438 Q515.275,45.2188 514.95,45.4313 Q514.8,45.5313 514.325,45.5313 L511.5375,52.2188 L510.225,52.2188 L507.4375,45.5313 Q506.9625,45.5313 506.8125,45.4313 Q506.4875,45.2188 506.4875,44.8438 Q506.4875,44.5438 506.7,44.3563 Q506.9125,44.1688 507.4,44.1688 L509.2375,44.1688 Q509.725,44.1688 509.925,44.3563 Q510.1375,44.5438 510.1375,44.8438 Q510.1375,45.1563 509.925,45.3438 Q509.725,45.5313 509.2375,45.5313 L508.9125,45.5313 L510.875,50.2313 Z " fill="#000000"/><text fill="#000000" font-family="sans-serif" font-size="9.6" font-style="italic" lengthAdjust="spacing" textLength="64.8" x="550.8" y="44.6906">«value object»</text><text fill="#000000" font-family="sans-serif" font-size="11.2" lengthAdjust="spacing" textLength="123.2" x="521.6" y="56.8641">MechanographicNumber</text><line style="stroke:#181818;stroke-width:0.4000000000000001;" x1="499.2" x2="646.4" y1="63.2375" y2="63.2375"/><line style="stroke:#181818;stroke-width:0.4000000000000001;" x1="499.2" x2="646.4" y1="69.6375" y2="69.6375"/></g><!--MD5=[739264bb8c13fd453fd6fc4eef2b32cc]
class Acronym--><g id="elem_Acronym"><rect codeLine="10" fill="#F1F1F1" height="44.0375" id="Acronym" rx="2" ry="2" style="stroke:#181818;stroke-width:0.4000000000000001;" width="87.2" x="382.8" y="32"/><ellipse cx="394.8" cy="47.6188" fill="#B8255F" rx="8.8" ry="8.8" style="stroke:#181818;stroke-width:0.8000000000000002;"/><path d="M395.275,50.2313 L397.25,45.5313 L396.9375,45.5313 Q396.45,45.5313 396.2375,45.3438 Q396.025,45.1563 396.025,44.8438 Q396.025,44.5438 396.2375,44.3563 Q396.45,44.1688 396.9375,44.1688 L398.7625,44.1688 Q399.25,44.1688 399.4625,44.3563 Q399.675,44.5438 399.675,44.8438 Q399.675,45.2188 399.35,45.4313 Q399.2,45.5313 398.725,45.5313 L395.9375,52.2188 L394.625,52.2188 L391.8375,45.5313 Q391.3625,45.5313 391.2125,45.4313 Q390.8875,45.2188 390.8875,44.8438 Q390.8875,44.5438 391.1,44.3563 Q391.3125,44.1688 391.8,44.1688 L393.6375,44.1688 Q394.125,44.1688 394.325,44.3563 Q394.5375,44.5438 394.5375,44.8438 Q394.5375,45.1563 394.325,45.3438 Q394.125,45.5313 393.6375,45.5313 L393.3125,45.5313 L395.275,50.2313 Z " fill="#000000"/><text fill="#000000" font-family="sans-serif" font-size="9.6" font-style="italic" lengthAdjust="spacing" textLength="64.8" x="404.4" y="44.6906">«value object»</text><text fill="#000000" font-family="sans-serif" font-size="11.2" lengthAdjust="spacing" textLength="44" x="414.8" y="56.8641">Acronym</text><line style="stroke:#181818;stroke-width:0.4000000000000001;" x1="383.6" x2="469.2" y1="63.2375" y2="63.2375"/><line style="stroke:#181818;stroke-width:0.4000000000000001;" x1="383.6" x2="469.2" y1="69.6375" y2="69.6375"/></g><!--MD5=[c680266cf9e454ca06c2d1bb8b683e6b]
class Schedule--><g id="elem_Schedule"><rect codeLine="11" fill="#F1F1F1" height="44.0375" id="Schedule" rx="2" ry="2" style="stroke:#181818;stroke-width:0.4000000000000001;" width="72.8" x="1021.2" y="158"/><ellipse cx="1033.2" cy="173.6188" fill="#ADD1B2" rx="8.8" ry="8.8" style="stroke:#181818;stroke-width:0.8000000000000002;"/><path d="M1035.4125,170.3188 Q1035.5375,170.1438 1035.6875,170.0563 Q1035.8375,169.9688 1036.0125,169.9688 Q1036.3125,169.9688 1036.5,170.1813 Q1036.6875,170.3813 1036.6875,170.8688 L1036.6875,172.0313 Q1036.6875,172.5188 1036.5,172.7313 Q1036.3125,172.9438 1036.0125,172.9438 Q1035.7375,172.9438 1035.575,172.7813 Q1035.4125,172.6313 1035.325,172.2188 Q1035.2875,171.9313 1035.1375,171.7813 Q1034.875,171.4813 1034.3875,171.3063 Q1033.9,171.1313 1033.4,171.1313 Q1032.7875,171.1313 1032.275,171.3938 Q1031.775,171.6563 1031.375,172.2563 Q1030.9875,172.8563 1030.9875,173.6813 L1030.9875,174.5563 Q1030.9875,175.5438 1031.7,176.2063 Q1032.4125,176.8563 1033.6875,176.8563 Q1034.4375,176.8563 1034.9625,176.6563 Q1035.275,176.5313 1035.6125,176.1813 Q1035.825,175.9688 1035.9375,175.9063 Q1036.0625,175.8438 1036.225,175.8438 Q1036.4875,175.8438 1036.6875,176.0563 Q1036.9,176.2563 1036.9,176.5313 Q1036.9,176.8063 1036.625,177.1313 Q1036.225,177.5938 1035.5875,177.8563 Q1034.725,178.2188 1033.6875,178.2188 Q1032.475,178.2188 1031.5125,177.7188 Q1030.725,177.3188 1030.175,176.4688 Q1029.625,175.6063 1029.625,174.5813 L1029.625,173.6563 Q1029.625,172.5938 1030.1125,171.6813 Q1030.6125,170.7563 1031.4875,170.2688 Q1032.3625,169.7688 1033.35,169.7688 Q1033.9375,169.7688 1034.45,169.9063 Q1034.975,170.0313 1035.4125,170.3188 Z " fill="#000000"/><text fill="#000000" font-family="sans-serif" font-size="9.6" font-style="italic" lengthAdjust="spacing" textLength="34.4" x="1050.8" y="170.6906">«entity»</text><text fill="#000000" font-family="sans-serif" font-size="11.2" lengthAdjust="spacing" textLength="47.2" x="1044.4" y="182.8641">Schedule</text><line style="stroke:#181818;stroke-width:0.4000000000000001;" x1="1022" x2="1093.2" y1="189.2375" y2="189.2375"/><line style="stroke:#181818;stroke-width:0.4000000000000001;" x1="1022" x2="1093.2" y1="195.6375" y2="195.6375"/></g><!--MD5=[abe91ce615374b501721fa99f1a2b204]
class ProfileDay--><g id="elem_ProfileDay"><rect codeLine="12" fill="#F1F1F1" height="44.0375" id="ProfileDay" rx="2" ry="2" style="stroke:#181818;stroke-width:0.4000000000000001;" width="87.2" x="1006.8" y="32"/><ellipse cx="1018.8" cy="47.6188" fill="#B8255F" rx="8.8" ry="8.8" style="stroke:#181818;stroke-width:0.8000000000000002;"/><path d="M1019.275,50.2313 L1021.25,45.5313 L1020.9375,45.5313 Q1020.45,45.5313 1020.2375,45.3438 Q1020.025,45.1563 1020.025,44.8438 Q1020.025,44.5438 1020.2375,44.3563 Q1020.45,44.1688 1020.9375,44.1688 L1022.7625,44.1688 Q1023.25,44.1688 1023.4625,44.3563 Q1023.675,44.5438 1023.675,44.8438 Q1023.675,45.2188 1023.35,45.4313 Q1023.2,45.5313 1022.725,45.5313 L1019.9375,52.2188 L1018.625,52.2188 L1015.8375,45.5313 Q1015.3625,45.5313 1015.2125,45.4313 Q1014.8875,45.2188 1014.8875,44.8438 Q1014.8875,44.5438 1015.1,44.3563 Q1015.3125,44.1688 1015.8,44.1688 L1017.6375,44.1688 Q1018.125,44.1688 1018.325,44.3563 Q1018.5375,44.5438 1018.5375,44.8438 Q1018.5375,45.1563 1018.325,45.3438 Q1018.125,45.5313 1017.6375,45.5313 L1017.3125,45.5313 L1019.275,50.2313 Z " fill="#000000"/><text fill="#000000" font-family="sans-serif" font-size="9.6" font-style="italic" lengthAdjust="spacing" textLength="64.8" x="1028.4" y="44.6906">«value object»</text><text fill="#000000" font-family="sans-serif" font-size="11.2" lengthAdjust="spacing" textLength="20" x="1050.8" y="56.8641">Day</text><line style="stroke:#181818;stroke-width:0.4000000000000001;" x1="1007.6" x2="1093.2" y1="63.2375" y2="63.2375"/><line style="stroke:#181818;stroke-width:0.4000000000000001;" x1="1007.6" x2="1093.2" y1="69.6375" y2="69.6375"/></g><!--MD5=[3fd616f346a44cd59a91eb10b19e157c]
class User--><g id="elem_User"><rect codeLine="29" fill="#F1F1F1" height="79.7875" id="User" rx="2" ry="2" style="stroke:#181818;stroke-width:0.4000000000000001;" width="96.8" x="184.4" y="395.6"/><ellipse cx="214.4" cy="416.5813" fill="#ADD1B2" rx="8.8" ry="8.8" style="stroke:#181818;stroke-width:0.8000000000000002;"/><path d="M213.4875,417.2188 L213.4875,419.2188 L216.95,419.2188 L216.95,418.4813 Q216.95,417.9938 217.1375,417.7813 Q217.3375,417.5688 217.6375,417.5688 Q217.9375,417.5688 218.125,417.7813 Q218.3125,417.9938 218.3125,418.4813 L218.3125,420.5813 L211.9125,420.5813 Q211.4125,420.5813 211.2,420.3938 Q211,420.2063 211,419.8938 Q211,419.5938 211.2125,419.4063 Q211.425,419.2188 211.9125,419.2188 L212.125,419.2188 L212.125,413.8938 L211.9125,413.8938 Q211.4125,413.8938 211.2,413.7063 Q211,413.5188 211,413.2063 Q211,412.9063 211.2,412.7188 Q211.4125,412.5313 211.9125,412.5313 L218.0125,412.5313 L218.0125,414.6063 Q218.0125,415.0938 217.825,415.3063 Q217.65,415.5063 217.3375,415.5063 Q217.0375,415.5063 216.85,415.3063 Q216.6625,415.0938 216.6625,414.6063 L216.6625,413.8938 L213.4875,413.8938 L213.4875,415.8563 L214.675,415.8563 Q214.675,415.3313 214.775,415.1813 Q214.9875,414.8563 215.3625,414.8563 Q215.6625,414.8563 215.85,415.0688 Q216.0375,415.2688 216.0375,415.7563 L216.0375,417.3313 Q216.0375,417.7688 215.9375,417.9188 Q215.725,418.2313 215.3625,418.2313 Q214.9875,418.2313 214.775,417.9063 Q214.675,417.7563 214.675,417.2188 L213.4875,417.2188 Z " fill="#000000"/><text fill="#000000" font-family="sans-serif" font-size="9.6" font-style="italic" lengthAdjust="spacing" textLength="28" x="231.2" y="408.2906">«root»</text><text fill="#000000" font-family="sans-serif" font-size="9.6" font-style="italic" lengthAdjust="spacing" textLength="34.4" x="228" y="419.0156">«entity»</text><text fill="#000000" font-family="sans-serif" font-size="11.2" lengthAdjust="spacing" textLength="23.2" x="233.6" y="431.1891">User</text><line style="stroke:#181818;stroke-width:0.4000000000000001;" x1="185.2" x2="280.4" y1="437.5625" y2="437.5625"/><text fill="#000000" font-family="sans-serif" font-size="11.2" lengthAdjust="spacing" textLength="76" x="189.2" y="450.9016">String fullName</text><text fill="#000000" font-family="sans-serif" font-size="11.2" lengthAdjust="spacing" textLength="87.2" x="189.2" y="463.4141">String shortName</text><line style="stroke:#181818;stroke-width:0.4000000000000001;" x1="185.2" x2="280.4" y1="468.9875" y2="468.9875"/></g><!--MD5=[a3638c1e5b65d287ecad7f06f5c0f212]
class Role--><g id="elem_Role"><rect codeLine="34" fill="#F1F1F1" height="44.0375" id="Role" rx="2" ry="2" style="stroke:#181818;stroke-width:0.4000000000000001;" width="87.2" x="18" y="547.2"/><ellipse cx="30" cy="562.8188" fill="#B8255F" rx="8.8" ry="8.8" style="stroke:#181818;stroke-width:0.8000000000000002;"/><path d="M30.475,565.4313 L32.45,560.7313 L32.1375,560.7313 Q31.65,560.7313 31.4375,560.5438 Q31.225,560.3563 31.225,560.0438 Q31.225,559.7438 31.4375,559.5563 Q31.65,559.3688 32.1375,559.3688 L33.9625,559.3688 Q34.45,559.3688 34.6625,559.5563 Q34.875,559.7438 34.875,560.0438 Q34.875,560.4188 34.55,560.6313 Q34.4,560.7313 33.925,560.7313 L31.1375,567.4188 L29.825,567.4188 L27.0375,560.7313 Q26.5625,560.7313 26.4125,560.6313 Q26.0875,560.4188 26.0875,560.0438 Q26.0875,559.7438 26.3,559.5563 Q26.5125,559.3688 27,559.3688 L28.8375,559.3688 Q29.325,559.3688 29.525,559.5563 Q29.7375,559.7438 29.7375,560.0438 Q29.7375,560.3563 29.525,560.5438 Q29.325,560.7313 28.8375,560.7313 L28.5125,560.7313 L30.475,565.4313 Z " fill="#000000"/><text fill="#000000" font-family="sans-serif" font-size="9.6" font-style="italic" lengthAdjust="spacing" textLength="64.8" x="39.6" y="559.8906">«value object»</text><text fill="#000000" font-family="sans-serif" font-size="11.2" lengthAdjust="spacing" textLength="23.2" x="60.4" y="572.0641">Role</text><line style="stroke:#181818;stroke-width:0.4000000000000001;" x1="18.8" x2="104.4" y1="578.4375" y2="578.4375"/><line style="stroke:#181818;stroke-width:0.4000000000000001;" x1="18.8" x2="104.4" y1="584.8375" y2="584.8375"/></g><!--MD5=[2f01b1126ff33a0669651ec2488a5ef9]
class Password--><g id="elem_Password"><rect codeLine="35" fill="#F1F1F1" height="44.0375" id="Password" rx="2" ry="2" style="stroke:#181818;stroke-width:0.4000000000000001;" width="87.2" x="133.2" y="547.2"/><ellipse cx="145.2" cy="562.8188" fill="#B8255F" rx="8.8" ry="8.8" style="stroke:#181818;stroke-width:0.8000000000000002;"/><path d="M145.675,565.4313 L147.65,560.7313 L147.3375,560.7313 Q146.85,560.7313 146.6375,560.5438 Q146.425,560.3563 146.425,560.0438 Q146.425,559.7438 146.6375,559.5563 Q146.85,559.3688 147.3375,559.3688 L149.1625,559.3688 Q149.65,559.3688 149.8625,559.5563 Q150.075,559.7438 150.075,560.0438 Q150.075,560.4188 149.75,560.6313 Q149.6,560.7313 149.125,560.7313 L146.3375,567.4188 L145.025,567.4188 L142.2375,560.7313 Q141.7625,560.7313 141.6125,560.6313 Q141.2875,560.4188 141.2875,560.0438 Q141.2875,559.7438 141.5,559.5563 Q141.7125,559.3688 142.2,559.3688 L144.0375,559.3688 Q144.525,559.3688 144.725,559.5563 Q144.9375,559.7438 144.9375,560.0438 Q144.9375,560.3563 144.725,560.5438 Q144.525,560.7313 144.0375,560.7313 L143.7125,560.7313 L145.675,565.4313 Z " fill="#000000"/><text fill="#000000" font-family="sans-serif" font-size="9.6" font-style="italic" lengthAdjust="spacing" textLength="64.8" x="154.8" y="559.8906">«value object»</text><text fill="#000000" font-family="sans-serif" font-size="11.2" lengthAdjust="spacing" textLength="48.8" x="162.8" y="572.0641">Password</text><line style="stroke:#181818;stroke-width:0.4000000000000001;" x1="134" x2="219.6" y1="578.4375" y2="578.4375"/><line style="stroke:#181818;stroke-width:0.4000000000000001;" x1="134" x2="219.6" y1="584.8375" y2="584.8375"/></g><!--MD5=[78bec0fde86ad92ec1dc3fb343b83709]
class Email--><g id="elem_Email"><rect codeLine="36" fill="#F1F1F1" height="65.4875" id="Email" rx="2" ry="2" style="stroke:#181818;stroke-width:0.4000000000000001;" width="87.2" x="248.4" y="536.4"/><ellipse cx="260.4" cy="562.7438" fill="#B8255F" rx="8.8" ry="8.8" style="stroke:#181818;stroke-width:0.8000000000000002;"/><path d="M260.875,565.3563 L262.85,560.6563 L262.5375,560.6563 Q262.05,560.6563 261.8375,560.4688 Q261.625,560.2813 261.625,559.9688 Q261.625,559.6688 261.8375,559.4813 Q262.05,559.2938 262.5375,559.2938 L264.3625,559.2938 Q264.85,559.2938 265.0625,559.4813 Q265.275,559.6688 265.275,559.9688 Q265.275,560.3438 264.95,560.5563 Q264.8,560.6563 264.325,560.6563 L261.5375,567.3438 L260.225,567.3438 L257.4375,560.6563 Q256.9625,560.6563 256.8125,560.5563 Q256.4875,560.3438 256.4875,559.9688 Q256.4875,559.6688 256.7,559.4813 Q256.9125,559.2938 257.4,559.2938 L259.2375,559.2938 Q259.725,559.2938 259.925,559.4813 Q260.1375,559.6688 260.1375,559.9688 Q260.1375,560.2813 259.925,560.4688 Q259.725,560.6563 259.2375,560.6563 L258.9125,560.6563 L260.875,565.3563 Z " fill="#000000"/><text fill="#000000" font-family="sans-serif" font-size="9.6" font-style="italic" lengthAdjust="spacing" textLength="20" x="292.4" y="549.0906">«Id»</text><text fill="#000000" font-family="sans-serif" font-size="9.6" font-style="italic" lengthAdjust="spacing" textLength="41.6" x="281.6" y="559.8156">«unique»</text><text fill="#000000" font-family="sans-serif" font-size="9.6" font-style="italic" lengthAdjust="spacing" textLength="64.8" x="270" y="570.5406">«value object»</text><text fill="#000000" font-family="sans-serif" font-size="11.2" lengthAdjust="spacing" textLength="27.2" x="288.8" y="582.7141">Email</text><line style="stroke:#181818;stroke-width:0.4000000000000001;" x1="249.2" x2="334.8" y1="589.0875" y2="589.0875"/><line style="stroke:#181818;stroke-width:0.4000000000000001;" x1="249.2" x2="334.8" y1="595.4875" y2="595.4875"/></g><!--MD5=[d6181cb537bdc20c0a3007a98a56832d]
class Student--><g id="elem_Student"><rect codeLine="37" fill="#F1F1F1" height="44.0375" id="Student" rx="2" ry="2" style="stroke:#181818;stroke-width:0.4000000000000001;" width="64.8" x="270.8" y="284"/><ellipse cx="282.8" cy="299.6188" fill="#ADD1B2" rx="8.8" ry="8.8" style="stroke:#181818;stroke-width:0.8000000000000002;"/><path d="M281.8875,300.2563 L281.8875,302.2563 L285.35,302.2563 L285.35,301.5188 Q285.35,301.0313 285.5375,300.8188 Q285.7375,300.6063 286.0375,300.6063 Q286.3375,300.6063 286.525,300.8188 Q286.7125,301.0313 286.7125,301.5188 L286.7125,303.6188 L280.3125,303.6188 Q279.8125,303.6188 279.6,303.4313 Q279.4,303.2438 279.4,302.9313 Q279.4,302.6313 279.6125,302.4438 Q279.825,302.2563 280.3125,302.2563 L280.525,302.2563 L280.525,296.9313 L280.3125,296.9313 Q279.8125,296.9313 279.6,296.7438 Q279.4,296.5563 279.4,296.2438 Q279.4,295.9438 279.6,295.7563 Q279.8125,295.5688 280.3125,295.5688 L286.4125,295.5688 L286.4125,297.6438 Q286.4125,298.1313 286.225,298.3438 Q286.05,298.5438 285.7375,298.5438 Q285.4375,298.5438 285.25,298.3438 Q285.0625,298.1313 285.0625,297.6438 L285.0625,296.9313 L281.8875,296.9313 L281.8875,298.8938 L283.075,298.8938 Q283.075,298.3688 283.175,298.2188 Q283.3875,297.8938 283.7625,297.8938 Q284.0625,297.8938 284.25,298.1063 Q284.4375,298.3063 284.4375,298.7938 L284.4375,300.3688 Q284.4375,300.8063 284.3375,300.9563 Q284.125,301.2688 283.7625,301.2688 Q283.3875,301.2688 283.175,300.9438 Q283.075,300.7938 283.075,300.2563 L281.8875,300.2563 Z " fill="#000000"/><text fill="#000000" font-family="sans-serif" font-size="9.6" font-style="italic" lengthAdjust="spacing" textLength="34.4" x="296.4" y="296.6906">«entity»</text><text fill="#000000" font-family="sans-serif" font-size="11.2" lengthAdjust="spacing" textLength="39.2" x="294" y="308.8641">Student</text><line style="stroke:#181818;stroke-width:0.4000000000000001;" x1="271.6" x2="334.8" y1="315.2375" y2="315.2375"/><line style="stroke:#181818;stroke-width:0.4000000000000001;" x1="271.6" x2="334.8" y1="321.6375" y2="321.6375"/></g><!--MD5=[61a83f88cb8b7d3a80bc8c481f3736bf]
class Teacher--><g id="elem_Teacher"><rect codeLine="38" fill="#F1F1F1" height="44.0375" id="Teacher" rx="2" ry="2" style="stroke:#181818;stroke-width:0.4000000000000001;" width="68" x="174.8" y="284"/><ellipse cx="186.8" cy="299.6188" fill="#ADD1B2" rx="8.8" ry="8.8" style="stroke:#181818;stroke-width:0.8000000000000002;"/><path d="M185.8875,300.2563 L185.8875,302.2563 L189.35,302.2563 L189.35,301.5188 Q189.35,301.0313 189.5375,300.8188 Q189.7375,300.6063 190.0375,300.6063 Q190.3375,300.6063 190.525,300.8188 Q190.7125,301.0313 190.7125,301.5188 L190.7125,303.6188 L184.3125,303.6188 Q183.8125,303.6188 183.6,303.4313 Q183.4,303.2438 183.4,302.9313 Q183.4,302.6313 183.6125,302.4438 Q183.825,302.2563 184.3125,302.2563 L184.525,302.2563 L184.525,296.9313 L184.3125,296.9313 Q183.8125,296.9313 183.6,296.7438 Q183.4,296.5563 183.4,296.2438 Q183.4,295.9438 183.6,295.7563 Q183.8125,295.5688 184.3125,295.5688 L190.4125,295.5688 L190.4125,297.6438 Q190.4125,298.1313 190.225,298.3438 Q190.05,298.5438 189.7375,298.5438 Q189.4375,298.5438 189.25,298.3438 Q189.0625,298.1313 189.0625,297.6438 L189.0625,296.9313 L185.8875,296.9313 L185.8875,298.8938 L187.075,298.8938 Q187.075,298.3688 187.175,298.2188 Q187.3875,297.8938 187.7625,297.8938 Q188.0625,297.8938 188.25,298.1063 Q188.4375,298.3063 188.4375,298.7938 L188.4375,300.3688 Q188.4375,300.8063 188.3375,300.9563 Q188.125,301.2688 187.7625,301.2688 Q187.3875,301.2688 187.175,300.9438 Q187.075,300.7938 187.075,300.2563 L185.8875,300.2563 Z " fill="#000000"/><text fill="#000000" font-family="sans-serif" font-size="9.6" font-style="italic" lengthAdjust="spacing" textLength="34.4" x="202" y="296.6906">«entity»</text><text fill="#000000" font-family="sans-serif" font-size="11.2" lengthAdjust="spacing" textLength="42.4" x="198" y="308.8641">Teacher</text><line style="stroke:#181818;stroke-width:0.4000000000000001;" x1="175.6" x2="242" y1="315.2375" y2="315.2375"/><line style="stroke:#181818;stroke-width:0.4000000000000001;" x1="175.6" x2="242" y1="321.6375" y2="321.6375"/></g><!--MD5=[b24ed8d4ae84bae9290d9aab401637c7]
class Manager--><g id="elem_Manager"><rect codeLine="39" fill="#F1F1F1" height="44.0375" id="Manager" rx="2" ry="2" style="stroke:#181818;stroke-width:0.4000000000000001;" width="70.4" x="76" y="284"/><ellipse cx="88" cy="299.6188" fill="#ADD1B2" rx="8.8" ry="8.8" style="stroke:#181818;stroke-width:0.8000000000000002;"/><path d="M87.0875,300.2563 L87.0875,302.2563 L90.55,302.2563 L90.55,301.5188 Q90.55,301.0313 90.7375,300.8188 Q90.9375,300.6063 91.2375,300.6063 Q91.5375,300.6063 91.725,300.8188 Q91.9125,301.0313 91.9125,301.5188 L91.9125,303.6188 L85.5125,303.6188 Q85.0125,303.6188 84.8,303.4313 Q84.6,303.2438 84.6,302.9313 Q84.6,302.6313 84.8125,302.4438 Q85.025,302.2563 85.5125,302.2563 L85.725,302.2563 L85.725,296.9313 L85.5125,296.9313 Q85.0125,296.9313 84.8,296.7438 Q84.6,296.5563 84.6,296.2438 Q84.6,295.9438 84.8,295.7563 Q85.0125,295.5688 85.5125,295.5688 L91.6125,295.5688 L91.6125,297.6438 Q91.6125,298.1313 91.425,298.3438 Q91.25,298.5438 90.9375,298.5438 Q90.6375,298.5438 90.45,298.3438 Q90.2625,298.1313 90.2625,297.6438 L90.2625,296.9313 L87.0875,296.9313 L87.0875,298.8938 L88.275,298.8938 Q88.275,298.3688 88.375,298.2188 Q88.5875,297.8938 88.9625,297.8938 Q89.2625,297.8938 89.45,298.1063 Q89.6375,298.3063 89.6375,298.7938 L89.6375,300.3688 Q89.6375,300.8063 89.5375,300.9563 Q89.325,301.2688 88.9625,301.2688 Q88.5875,301.2688 88.375,300.9438 Q88.275,300.7938 88.275,300.2563 L87.0875,300.2563 Z " fill="#000000"/><text fill="#000000" font-family="sans-serif" font-size="9.6" font-style="italic" lengthAdjust="spacing" textLength="34.4" x="104.4" y="296.6906">«entity»</text><text fill="#000000" font-family="sans-serif" font-size="11.2" lengthAdjust="spacing" textLength="44.8" x="99.2" y="308.8641">Manager</text><line style="stroke:#181818;stroke-width:0.4000000000000001;" x1="76.8" x2="145.6" y1="315.2375" y2="315.2375"/><line style="stroke:#181818;stroke-width:0.4000000000000001;" x1="76.8" x2="145.6" y1="321.6375" y2="321.6375"/></g><!--MD5=[a78031611904abe1e5cbb3fd0b6ea028]
class Meeting--><g id="elem_Meeting"><rect codeLine="52" fill="#F1F1F1" height="54.7625" id="Meeting" rx="2" ry="2" style="stroke:#181818;stroke-width:0.4000000000000001;" width="65.6" x="1151.2" y="278.8"/><ellipse cx="1163.2" cy="299.7813" fill="#ADD1B2" rx="8.8" ry="8.8" style="stroke:#181818;stroke-width:0.8000000000000002;"/><path d="M1162.2875,300.4188 L1162.2875,302.4188 L1165.75,302.4188 L1165.75,301.6813 Q1165.75,301.1938 1165.9375,300.9813 Q1166.1375,300.7688 1166.4375,300.7688 Q1166.7375,300.7688 1166.925,300.9813 Q1167.1125,301.1938 1167.1125,301.6813 L1167.1125,303.7813 L1160.7125,303.7813 Q1160.2125,303.7813 1160,303.5938 Q1159.8,303.4063 1159.8,303.0938 Q1159.8,302.7938 1160.0125,302.6063 Q1160.225,302.4188 1160.7125,302.4188 L1160.925,302.4188 L1160.925,297.0938 L1160.7125,297.0938 Q1160.2125,297.0938 1160,296.9063 Q1159.8,296.7188 1159.8,296.4063 Q1159.8,296.1063 1160,295.9188 Q1160.2125,295.7313 1160.7125,295.7313 L1166.8125,295.7313 L1166.8125,297.8063 Q1166.8125,298.2938 1166.625,298.5063 Q1166.45,298.7063 1166.1375,298.7063 Q1165.8375,298.7063 1165.65,298.5063 Q1165.4625,298.2938 1165.4625,297.8063 L1165.4625,297.0938 L1162.2875,297.0938 L1162.2875,299.0563 L1163.475,299.0563 Q1163.475,298.5313 1163.575,298.3813 Q1163.7875,298.0563 1164.1625,298.0563 Q1164.4625,298.0563 1164.65,298.2688 Q1164.8375,298.4688 1164.8375,298.9563 L1164.8375,300.5313 Q1164.8375,300.9688 1164.7375,301.1188 Q1164.525,301.4313 1164.1625,301.4313 Q1163.7875,301.4313 1163.575,301.1063 Q1163.475,300.9563 1163.475,300.4188 L1162.2875,300.4188 Z " fill="#000000"/><text fill="#000000" font-family="sans-serif" font-size="9.6" font-style="italic" lengthAdjust="spacing" textLength="28" x="1180.4" y="291.4906">«root»</text><text fill="#000000" font-family="sans-serif" font-size="9.6" font-style="italic" lengthAdjust="spacing" textLength="34.4" x="1177.2" y="302.2156">«entity»</text><text fill="#000000" font-family="sans-serif" font-size="11.2" lengthAdjust="spacing" textLength="40" x="1174.4" y="314.3891">Meeting</text><line style="stroke:#181818;stroke-width:0.4000000000000001;" x1="1152" x2="1216" y1="320.7625" y2="320.7625"/><line style="stroke:#181818;stroke-width:0.4000000000000001;" x1="1152" x2="1216" y1="327.1625" y2="327.1625"/></g><!--MD5=[a429c4b34dcad6bd30bdced8db0cad95]
class MeetingTitle--><g id="elem_MeetingTitle"><rect codeLine="55" fill="#F1F1F1" height="54.7625" id="MeetingTitle" rx="2" ry="2" style="stroke:#181818;stroke-width:0.4000000000000001;" width="87.2" x="1370" y="152.8"/><ellipse cx="1382" cy="173.7813" fill="#B8255F" rx="8.8" ry="8.8" style="stroke:#181818;stroke-width:0.8000000000000002;"/><path d="M1382.475,176.3938 L1384.45,171.6938 L1384.1375,171.6938 Q1383.65,171.6938 1383.4375,171.5063 Q1383.225,171.3188 1383.225,171.0063 Q1383.225,170.7063 1383.4375,170.5188 Q1383.65,170.3313 1384.1375,170.3313 L1385.9625,170.3313 Q1386.45,170.3313 1386.6625,170.5188 Q1386.875,170.7063 1386.875,171.0063 Q1386.875,171.3813 1386.55,171.5938 Q1386.4,171.6938 1385.925,171.6938 L1383.1375,178.3813 L1381.825,178.3813 L1379.0375,171.6938 Q1378.5625,171.6938 1378.4125,171.5938 Q1378.0875,171.3813 1378.0875,171.0063 Q1378.0875,170.7063 1378.3,170.5188 Q1378.5125,170.3313 1379,170.3313 L1380.8375,170.3313 Q1381.325,170.3313 1381.525,170.5188 Q1381.7375,170.7063 1381.7375,171.0063 Q1381.7375,171.3188 1381.525,171.5063 Q1381.325,171.6938 1380.8375,171.6938 L1380.5125,171.6938 L1382.475,176.3938 Z " fill="#000000"/><text fill="#000000" font-family="sans-serif" font-size="9.6" font-style="italic" lengthAdjust="spacing" textLength="64.8" x="1391.6" y="165.4906">«value object»</text><text fill="#000000" font-family="sans-serif" font-size="9.6" font-style="italic" lengthAdjust="spacing" textLength="41.6" x="1403.2" y="176.2156">«unique»</text><text fill="#000000" font-family="sans-serif" font-size="11.2" lengthAdjust="spacing" textLength="21.6" x="1413.2" y="188.3891">Title</text><line style="stroke:#181818;stroke-width:0.4000000000000001;" x1="1370.8" x2="1456.4" y1="194.7625" y2="194.7625"/><line style="stroke:#181818;stroke-width:0.4000000000000001;" x1="1370.8" x2="1456.4" y1="201.1625" y2="201.1625"/></g><!--MD5=[e7713a66b67445a0eb297b7e73c442e5]
class Duration--><g id="elem_Duration"><rect codeLine="56" fill="#F1F1F1" height="44.0375" id="Duration" rx="2" ry="2" style="stroke:#181818;stroke-width:0.4000000000000001;" width="87.2" x="1254.8" y="158"/><ellipse cx="1266.8" cy="173.6188" fill="#B8255F" rx="8.8" ry="8.8" style="stroke:#181818;stroke-width:0.8000000000000002;"/><path d="M1267.275,176.2313 L1269.25,171.5313 L1268.9375,171.5313 Q1268.45,171.5313 1268.2375,171.3438 Q1268.025,171.1563 1268.025,170.8438 Q1268.025,170.5438 1268.2375,170.3563 Q1268.45,170.1688 1268.9375,170.1688 L1270.7625,170.1688 Q1271.25,170.1688 1271.4625,170.3563 Q1271.675,170.5438 1271.675,170.8438 Q1271.675,171.2188 1271.35,171.4313 Q1271.2,171.5313 1270.725,171.5313 L1267.9375,178.2188 L1266.625,178.2188 L1263.8375,171.5313 Q1263.3625,171.5313 1263.2125,171.4313 Q1262.8875,171.2188 1262.8875,170.8438 Q1262.8875,170.5438 1263.1,170.3563 Q1263.3125,170.1688 1263.8,170.1688 L1265.6375,170.1688 Q1266.125,170.1688 1266.325,170.3563 Q1266.5375,170.5438 1266.5375,170.8438 Q1266.5375,171.1563 1266.325,171.3438 Q1266.125,171.5313 1265.6375,171.5313 L1265.3125,171.5313 L1267.275,176.2313 Z " fill="#000000"/><text fill="#000000" font-family="sans-serif" font-size="9.6" font-style="italic" lengthAdjust="spacing" textLength="64.8" x="1276.4" y="170.6906">«value object»</text><text fill="#000000" font-family="sans-serif" font-size="11.2" lengthAdjust="spacing" textLength="43.2" x="1287.2" y="182.8641">Duration</text><line style="stroke:#181818;stroke-width:0.4000000000000001;" x1="1255.6" x2="1341.2" y1="189.2375" y2="189.2375"/><line style="stroke:#181818;stroke-width:0.4000000000000001;" x1="1255.6" x2="1341.2" y1="195.6375" y2="195.6375"/></g><!--MD5=[2e42295458bb0bec21c9622a623eb29e]
class Time--><g id="elem_Time"><rect codeLine="57" fill="#F1F1F1" height="44.0375" id="Time" rx="2" ry="2" style="stroke:#181818;stroke-width:0.4000000000000001;" width="87.2" x="1139.6" y="158"/><ellipse cx="1151.6" cy="173.6188" fill="#B8255F" rx="8.8" ry="8.8" style="stroke:#181818;stroke-width:0.8000000000000002;"/><path d="M1152.075,176.2313 L1154.05,171.5313 L1153.7375,171.5313 Q1153.25,171.5313 1153.0375,171.3438 Q1152.825,171.1563 1152.825,170.8438 Q1152.825,170.5438 1153.0375,170.3563 Q1153.25,170.1688 1153.7375,170.1688 L1155.5625,170.1688 Q1156.05,170.1688 1156.2625,170.3563 Q1156.475,170.5438 1156.475,170.8438 Q1156.475,171.2188 1156.15,171.4313 Q1156,171.5313 1155.525,171.5313 L1152.7375,178.2188 L1151.425,178.2188 L1148.6375,171.5313 Q1148.1625,171.5313 1148.0125,171.4313 Q1147.6875,171.2188 1147.6875,170.8438 Q1147.6875,170.5438 1147.9,170.3563 Q1148.1125,170.1688 1148.6,170.1688 L1150.4375,170.1688 Q1150.925,170.1688 1151.125,170.3563 Q1151.3375,170.5438 1151.3375,170.8438 Q1151.3375,171.1563 1151.125,171.3438 Q1150.925,171.5313 1150.4375,171.5313 L1150.1125,171.5313 L1152.075,176.2313 Z " fill="#000000"/><text fill="#000000" font-family="sans-serif" font-size="9.6" font-style="italic" lengthAdjust="spacing" textLength="64.8" x="1161.2" y="170.6906">«value object»</text><text fill="#000000" font-family="sans-serif" font-size="11.2" lengthAdjust="spacing" textLength="24.8" x="1181.2" y="182.8641">Time</text><line style="stroke:#181818;stroke-width:0.4000000000000001;" x1="1140.4" x2="1226" y1="189.2375" y2="189.2375"/><line style="stroke:#181818;stroke-width:0.4000000000000001;" x1="1140.4" x2="1226" y1="195.6375" y2="195.6375"/></g><!--MD5=[aae544dffeea62c749969bce21def9b2]
class MeetingState--><g id="elem_MeetingState"><rect codeLine="58" fill="#F1F1F1" height="44.0375" id="MeetingState" rx="2" ry="2" style="stroke:#181818;stroke-width:0.4000000000000001;" width="92" x="1139.6" y="413.6"/><ellipse cx="1151.6" cy="429.2188" fill="#B8255F" rx="8.8" ry="8.8" style="stroke:#181818;stroke-width:0.8000000000000002;"/><path d="M1152.075,431.8313 L1154.05,427.1313 L1153.7375,427.1313 Q1153.25,427.1313 1153.0375,426.9438 Q1152.825,426.7563 1152.825,426.4438 Q1152.825,426.1438 1153.0375,425.9563 Q1153.25,425.7688 1153.7375,425.7688 L1155.5625,425.7688 Q1156.05,425.7688 1156.2625,425.9563 Q1156.475,426.1438 1156.475,426.4438 Q1156.475,426.8188 1156.15,427.0313 Q1156,427.1313 1155.525,427.1313 L1152.7375,433.8188 L1151.425,433.8188 L1148.6375,427.1313 Q1148.1625,427.1313 1148.0125,427.0313 Q1147.6875,426.8188 1147.6875,426.4438 Q1147.6875,426.1438 1147.9,425.9563 Q1148.1125,425.7688 1148.6,425.7688 L1150.4375,425.7688 Q1150.925,425.7688 1151.125,425.9563 Q1151.3375,426.1438 1151.3375,426.4438 Q1151.3375,426.7563 1151.125,426.9438 Q1150.925,427.1313 1150.4375,427.1313 L1150.1125,427.1313 L1152.075,431.8313 Z " fill="#000000"/><text fill="#000000" font-family="sans-serif" font-size="9.6" font-style="italic" lengthAdjust="spacing" textLength="64.8" x="1163.6" y="426.2906">«value object»</text><text fill="#000000" font-family="sans-serif" font-size="11.2" lengthAdjust="spacing" textLength="66.4" x="1162.8" y="438.4641">MeetingState</text><line style="stroke:#181818;stroke-width:0.4000000000000001;" x1="1140.4" x2="1230.8" y1="444.8375" y2="444.8375"/><line style="stroke:#181818;stroke-width:0.4000000000000001;" x1="1140.4" x2="1230.8" y1="451.2375" y2="451.2375"/></g><!--MD5=[398100988d09a6250c4881dc37a3d51a]
class MeetingParticipant--><g id="elem_MeetingParticipant"><rect codeLine="59" fill="#F1F1F1" height="44.0375" id="MeetingParticipant" rx="2" ry="2" style="stroke:#181818;stroke-width:0.4000000000000001;" width="119.2" x="1259.6" y="413.6"/><ellipse cx="1271.6" cy="429.2188" fill="#ADD1B2" rx="8.8" ry="8.8" style="stroke:#181818;stroke-width:0.8000000000000002;"/><path d="M1273.8125,425.9188 Q1273.9375,425.7438 1274.0875,425.6563 Q1274.2375,425.5688 1274.4125,425.5688 Q1274.7125,425.5688 1274.9,425.7813 Q1275.0875,425.9813 1275.0875,426.4688 L1275.0875,427.6313 Q1275.0875,428.1188 1274.9,428.3313 Q1274.7125,428.5438 1274.4125,428.5438 Q1274.1375,428.5438 1273.975,428.3813 Q1273.8125,428.2313 1273.725,427.8188 Q1273.6875,427.5313 1273.5375,427.3813 Q1273.275,427.0813 1272.7875,426.9063 Q1272.3,426.7313 1271.8,426.7313 Q1271.1875,426.7313 1270.675,426.9938 Q1270.175,427.2563 1269.775,427.8563 Q1269.3875,428.4563 1269.3875,429.2813 L1269.3875,430.1563 Q1269.3875,431.1438 1270.1,431.8063 Q1270.8125,432.4563 1272.0875,432.4563 Q1272.8375,432.4563 1273.3625,432.2563 Q1273.675,432.1313 1274.0125,431.7813 Q1274.225,431.5688 1274.3375,431.5063 Q1274.4625,431.4438 1274.625,431.4438 Q1274.8875,431.4438 1275.0875,431.6563 Q1275.3,431.8563 1275.3,432.1313 Q1275.3,432.4063 1275.025,432.7313 Q1274.625,433.1938 1273.9875,433.4563 Q1273.125,433.8188 1272.0875,433.8188 Q1270.875,433.8188 1269.9125,433.3188 Q1269.125,432.9188 1268.575,432.0688 Q1268.025,431.2063 1268.025,430.1813 L1268.025,429.2563 Q1268.025,428.1938 1268.5125,427.2813 Q1269.0125,426.3563 1269.8875,425.8688 Q1270.7625,425.3688 1271.75,425.3688 Q1272.3375,425.3688 1272.85,425.5063 Q1273.375,425.6313 1273.8125,425.9188 Z " fill="#000000"/><text fill="#000000" font-family="sans-serif" font-size="9.6" font-style="italic" lengthAdjust="spacing" textLength="34.4" x="1312.4" y="426.2906">«entity»</text><text fill="#000000" font-family="sans-serif" font-size="11.2" lengthAdjust="spacing" textLength="93.6" x="1282.8" y="438.4641">MeetingParticipant</text><line style="stroke:#181818;stroke-width:0.4000000000000001;" x1="1260.4" x2="1378" y1="444.8375" y2="444.8375"/><line style="stroke:#181818;stroke-width:0.4000000000000001;" x1="1260.4" x2="1378" y1="451.2375" y2="451.2375"/></g><!--MD5=[3f172188c91d40fcc9f3018ae8752241]
class MeetingParticipantState--><g id="elem_MeetingParticipantState"><rect codeLine="60" fill="#F1F1F1" height="44.0375" id="MeetingParticipantState" rx="2" ry="2" style="stroke:#181818;stroke-width:0.4000000000000001;" width="145.6" x="1246.4" y="547.2"/><ellipse cx="1258.4" cy="562.8188" fill="#B8255F" rx="8.8" ry="8.8" style="stroke:#181818;stroke-width:0.8000000000000002;"/><path d="M1258.875,565.4313 L1260.85,560.7313 L1260.5375,560.7313 Q1260.05,560.7313 1259.8375,560.5438 Q1259.625,560.3563 1259.625,560.0438 Q1259.625,559.7438 1259.8375,559.5563 Q1260.05,559.3688 1260.5375,559.3688 L1262.3625,559.3688 Q1262.85,559.3688 1263.0625,559.5563 Q1263.275,559.7438 1263.275,560.0438 Q1263.275,560.4188 1262.95,560.6313 Q1262.8,560.7313 1262.325,560.7313 L1259.5375,567.4188 L1258.225,567.4188 L1255.4375,560.7313 Q1254.9625,560.7313 1254.8125,560.6313 Q1254.4875,560.4188 1254.4875,560.0438 Q1254.4875,559.7438 1254.7,559.5563 Q1254.9125,559.3688 1255.4,559.3688 L1257.2375,559.3688 Q1257.725,559.3688 1257.925,559.5563 Q1258.1375,559.7438 1258.1375,560.0438 Q1258.1375,560.3563 1257.925,560.5438 Q1257.725,560.7313 1257.2375,560.7313 L1256.9125,560.7313 L1258.875,565.4313 Z " fill="#000000"/><text fill="#000000" font-family="sans-serif" font-size="9.6" font-style="italic" lengthAdjust="spacing" textLength="64.8" x="1297.2" y="559.8906">«value object»</text><text fill="#000000" font-family="sans-serif" font-size="11.2" lengthAdjust="spacing" textLength="120" x="1269.6" y="572.0641">MeetingParticipantState</text><line style="stroke:#181818;stroke-width:0.4000000000000001;" x1="1247.2" x2="1391.2" y1="578.4375" y2="578.4375"/><line style="stroke:#181818;stroke-width:0.4000000000000001;" x1="1247.2" x2="1391.2" y1="584.8375" y2="584.8375"/></g><!--MD5=[a4704c7d667610242c4910d8f03d8365]
link TeacherProfile to Profile--><g id="link_TeacherProfile_Profile"><path codeLine="14" d="M473.28,202.04 C518.232,224.736 589.112,260.528 634.464,283.424 " fill="none" id="TeacherProfile-to-Profile" style="stroke:#181818;stroke-width:0.8000000000000002;"/><polygon fill="none" points="637.032,278.448,648.792,290.656,631.984,288.448,637.032,278.448" style="stroke:#181818;stroke-width:0.8000000000000002;"/></g><!--MD5=[74f6c88ebae95880488e779c734e479a]
link StudentProfile to Profile--><g id="link_StudentProfile_Profile"><path codeLine="15" d="M578.232,202.184 C595.392,219.976 620.256,245.752 640.816,267.072 " fill="none" id="StudentProfile-to-Profile" style="stroke:#181818;stroke-width:0.8000000000000002;"/><polygon fill="none" points="644.952,263.288,652.024,278.688,636.888,271.064,644.952,263.288" style="stroke:#181818;stroke-width:0.8000000000000002;"/></g><!--MD5=[f7f29814defc5875b454afa8d8fb2888]
link ManagerProfile to Profile--><g id="link_ManagerProfile_Profile"><path codeLine="16" d="M890.384,204.936 C841.216,228.104 767.736,262.728 721.264,284.624 " fill="none" id="ManagerProfile-to-Profile" style="stroke:#181818;stroke-width:0.8000000000000002;"/><polygon fill="none" points="723.472,289.776,706.616,291.528,718.704,279.64,723.472,289.776" style="stroke:#181818;stroke-width:0.8000000000000002;"/></g><!--MD5=[2bc47b069c5ba380f277202e4d17c25b]
link TaxPayerNumber to Profile--><g id="link_TaxPayerNumber_Profile"><path codeLine="17" d="M776.056,209.512 C757.112,227.92 711.7677,272.0007 711.7677,272.0007 " fill="none" id="TaxPayerNumber-Profile" style="stroke:#181818;stroke-width:0.8000000000000002;"/><polygon fill="#181818" points="704.88,278.688,710.5529,277.6403,711.7677,272.0007,706.0948,273.0485,704.88,278.688" style="stroke:#181818;stroke-width:0.8000000000000002;"/><polygon fill="#181818" points="783.6,202.184,776.2072,204.9092,780.7323,204.9726,780.6689,209.4976,783.6,202.184" style="stroke:#181818;stroke-width:0.8000000000000002;"/><line style="stroke:#181818;stroke-width:0.8000000000000002;" x1="780.7323" x2="776.136" y1="204.9726" y2="209.432"/><text fill="#000000" font-family="sans-serif" font-size="10.4" lengthAdjust="spacing" textLength="16.8" x="753.6" y="241.4148">has</text><text fill="#000000" font-family="sans-serif" font-size="10.4" lengthAdjust="spacing" textLength="5.6" x="772.575" y="217.7183">1</text><text fill="#000000" font-family="sans-serif" font-size="10.4" lengthAdjust="spacing" textLength="5.6" x="704.329" y="270.1205">1</text></g><!--MD5=[02fab2b53211d87eb632ce55aa25c763]
link DateOfBirth to Profile--><g id="link_DateOfBirth_Profile"><path codeLine="18" d="M677.6,212.864 C677.6,229.784 677.6,269.088 677.6,269.088 " fill="none" id="DateOfBirth-Profile" style="stroke:#181818;stroke-width:0.8000000000000002;"/><polygon fill="#181818" points="677.6,278.688,680.8,273.888,677.6,269.088,674.4,273.888,677.6,278.688" style="stroke:#181818;stroke-width:0.8000000000000002;"/><polygon fill="#181818" points="677.6,202.184,674.4,209.384,677.6,206.184,680.8,209.384,677.6,202.184" style="stroke:#181818;stroke-width:0.8000000000000002;"/><line style="stroke:#181818;stroke-width:0.8000000000000002;" x1="677.6" x2="677.6" y1="206.184" y2="212.584"/><text fill="#000000" font-family="sans-serif" font-size="10.4" lengthAdjust="spacing" textLength="16.8" x="678.4" y="241.4148">has</text><text fill="#000000" font-family="sans-serif" font-size="10.4" lengthAdjust="spacing" textLength="5.6" x="671.3875" y="217.7183">1</text><text fill="#000000" font-family="sans-serif" font-size="10.4" lengthAdjust="spacing" textLength="5.6" x="671.4225" y="270.1205">1</text></g><!--MD5=[10a6c99310405b7a97b4cf47d76d8922]
link MechanographicNumber to StudentProfile--><g id="link_MechanographicNumber_StudentProfile"><path codeLine="19" d="M568.92,86.536 C566.64,105.24 561.3793,148.3597 561.3793,148.3597 " fill="none" id="MechanographicNumber-StudentProfile" style="stroke:#181818;stroke-width:0.8000000000000002;"/><polygon fill="#181818" points="560.208,157.888,563.9697,153.5143,561.3793,148.3597,557.6175,152.7334,560.208,157.888" style="stroke:#181818;stroke-width:0.8000000000000002;"/><polygon fill="#181818" points="570.184,76.184,566.1295,82.9398,569.696,80.1541,572.4817,83.7206,570.184,76.184" style="stroke:#181818;stroke-width:0.8000000000000002;"/><line style="stroke:#181818;stroke-width:0.8000000000000002;" x1="569.696" x2="568.924" y1="80.1541" y2="86.508"/><text fill="#000000" font-family="sans-serif" font-size="10.4" lengthAdjust="spacing" textLength="16.8" x="568" y="110.2148">has</text><text fill="#000000" font-family="sans-serif" font-size="10.4" lengthAdjust="spacing" textLength="5.6" x="563.3993" y="91.7183">1</text><text fill="#000000" font-family="sans-serif" font-size="10.4" lengthAdjust="spacing" textLength="5.6" x="554.5612" y="149.3945">1</text></g><!--MD5=[ae3e36caf4c7951d7f4f6fff495b345e]
link Acronym to TeacherProfile--><g id="link_Acronym_TeacherProfile"><path codeLine="20" d="M427.64,86.84 C428.352,105.424 430.007,148.2951 430.007,148.2951 " fill="none" id="Acronym-TeacherProfile" style="stroke:#181818;stroke-width:0.8000000000000002;"/><polygon fill="#181818" points="430.376,157.888,433.3892,152.9686,430.007,148.2951,426.9939,153.2145,430.376,157.888" style="stroke:#181818;stroke-width:0.8000000000000002;"/><polygon fill="#181818" points="427.224,76.184,424.3034,83.5018,427.3779,80.181,430.6987,83.2555,427.224,76.184" style="stroke:#181818;stroke-width:0.8000000000000002;"/><line style="stroke:#181818;stroke-width:0.8000000000000002;" x1="427.3779" x2="427.628" y1="80.181" y2="86.58"/><text fill="#000000" font-family="sans-serif" font-size="10.4" lengthAdjust="spacing" textLength="16.8" x="429.6" y="110.2148">has</text><text fill="#000000" font-family="sans-serif" font-size="10.4" lengthAdjust="spacing" textLength="5.6" x="421.1918" y="91.7183">1</text><text fill="#000000" font-family="sans-serif" font-size="10.4" lengthAdjust="spacing" textLength="5.6" x="423.8927" y="149.3945">1</text></g><!--MD5=[0dc7d8961856536cda53252c0ddcf162]
link Schedule to Profile--><g id="link_Schedule_Profile"><path codeLine="21" d="M1011.52,205.384 C1010.072,206.008 1008.632,206.616 1007.2,207.2 C905.24,248.608 715.7972,296.4019 715.7972,296.4019 " fill="none" id="Schedule-Profile" style="stroke:#181818;stroke-width:0.8000000000000002;"/><polygon fill="#181818" points="706.456,298.616,711.8646,300.6227,715.7972,296.4019,710.3886,294.3952,706.456,298.616" style="stroke:#181818;stroke-width:0.8000000000000002;"/><polygon fill="#181818" points="1021.104,200.96,1013.2256,201.0663,1017.471,202.6337,1015.9036,206.8791,1021.104,200.96" style="stroke:#181818;stroke-width:0.8000000000000002;"/><line style="stroke:#181818;stroke-width:0.8000000000000002;" x1="1017.471" x2="1011.66" y1="202.6337" y2="205.316"/><text fill="#000000" font-family="sans-serif" font-size="10.4" lengthAdjust="spacing" textLength="16.8" x="936.8" y="241.4148">has</text><text fill="#000000" font-family="sans-serif" font-size="10.4" lengthAdjust="spacing" textLength="5.6" x="1009.2412" y="201.6532">1</text><text fill="#000000" font-family="sans-serif" font-size="10.4" lengthAdjust="spacing" textLength="5.6" x="712.9851" y="294.1587">1</text></g><!--MD5=[45f59c8fa32af7dd4bd10287af5ddf83]
link ProfileDay to Schedule--><g id="link_ProfileDay_Schedule"><path codeLine="22" d="M1052.256,86.84 C1053.328,105.424 1055.8197,148.3037 1055.8197,148.3037 " fill="none" id="ProfileDay-Schedule" style="stroke:#181818;stroke-width:0.8000000000000002;"/><polygon fill="#181818" points="1056.368,157.888,1059.2886,152.9131,1055.8197,148.3037,1052.8991,153.2786,1056.368,157.888" style="stroke:#181818;stroke-width:0.8000000000000002;"/><polygon fill="#181818" points="1051.64,76.184,1048.8569,83.5552,1051.8687,80.1775,1055.2464,83.1893,1051.64,76.184" style="stroke:#181818;stroke-width:0.8000000000000002;"/><line style="stroke:#181818;stroke-width:0.8000000000000002;" x1="1051.8687" x2="1052.24" y1="80.1775" y2="86.568"/><text fill="#000000" font-family="sans-serif" font-size="10.4" lengthAdjust="spacing" textLength="16.8" x="1053.6" y="110.2148">has</text><text fill="#000000" font-family="sans-serif" font-size="10.4" lengthAdjust="spacing" textLength="16" x="1034.1613" y="91.7183">1..*</text><text fill="#000000" font-family="sans-serif" font-size="10.4" lengthAdjust="spacing" textLength="5.6" x="1049.7852" y="149.3945">1</text></g><!--MD5=[dbc364445409b51c9b407d19a07b4adf]
link User to Email--><g id="link_User_Email"><path codeLine="41" d="M254.3263,484.4084 C254.3263,484.4084 267.376,513.496 273.28,526.664 " fill="none" id="User-Email" style="stroke:#181818;stroke-width:0.8000000000000002;"/><polygon fill="#181818" points="277.648,536.4,277.6234,528.521,276.012,532.7498,271.7831,531.1385,277.648,536.4" style="stroke:#181818;stroke-width:0.8000000000000002;"/><line style="stroke:#181818;stroke-width:0.8000000000000002;" x1="276.012" x2="273.392" y1="532.7498" y2="526.912"/><polygon fill="#181818" points="250.4,475.648,249.443,481.337,254.3263,484.4084,255.2833,478.7194,250.4,475.648" style="stroke:#181818;stroke-width:0.8000000000000002;"/><text fill="#000000" font-family="sans-serif" font-size="10.4" lengthAdjust="spacing" textLength="16.8" x="267.2" y="509.8148">has</text><text fill="#000000" font-family="sans-serif" font-size="10.4" lengthAdjust="spacing" textLength="5.6" x="246.7888" y="491.2392">1</text><text fill="#000000" font-family="sans-serif" font-size="10.4" lengthAdjust="spacing" textLength="5.6" x="268.9928" y="527.8222">1</text></g><!--MD5=[5ab1f46e477a8163e64d30b24bef4255]
link User to Password--><g id="link_User_Password"><path codeLine="42" d="M212.4073,484.4875 C212.4073,484.4875 196.52,521.92 189.92,537.472 " fill="none" id="User-Password" style="stroke:#181818;stroke-width:0.8000000000000002;"/><polygon fill="#181818" points="185.832,547.104,191.587,541.7226,187.3923,543.4209,185.694,539.2261,185.832,547.104" style="stroke:#181818;stroke-width:0.8000000000000002;"/><line style="stroke:#181818;stroke-width:0.8000000000000002;" x1="187.3923" x2="189.896" y1="543.4209" y2="537.532"/><polygon fill="#181818" points="216.152,475.648,211.3332,478.8195,212.4073,484.4875,217.2262,481.316,216.152,475.648" style="stroke:#181818;stroke-width:0.8000000000000002;"/><text fill="#000000" font-family="sans-serif" font-size="10.4" lengthAdjust="spacing" textLength="16.8" x="205.6" y="509.8148">has</text><text fill="#000000" font-family="sans-serif" font-size="10.4" lengthAdjust="spacing" textLength="5.6" x="207.9387" y="491.2392">1</text><text fill="#000000" font-family="sans-serif" font-size="10.4" lengthAdjust="spacing" textLength="5.6" x="181.7511" y="538.6144">1</text></g><!--MD5=[70c37dc9bfbc8656942103c36f1181e4]
link User to Role--><g id="link_User_Role"><path codeLine="43" d="M176.5967,479.7329 C176.5967,479.7329 120.184,523.232 97.544,540.688 " fill="none" id="User-Role" style="stroke:#181818;stroke-width:0.8000000000000002;"/><polygon fill="#181818" points="89.232,547.096,96.8865,545.2281,92.3979,544.6512,92.9748,540.1626,89.232,547.096" style="stroke:#181818;stroke-width:0.8000000000000002;"/><line style="stroke:#181818;stroke-width:0.8000000000000002;" x1="92.3979" x2="97.472" y1="544.6512" y2="540.744"/><polygon fill="#181818" points="184.2,473.872,178.4447,474.268,176.5967,479.7329,182.352,479.3369,184.2,473.872" style="stroke:#181818;stroke-width:0.8000000000000002;"/><text fill="#000000" font-family="sans-serif" font-size="10.4" lengthAdjust="spacing" textLength="16.8" x="148" y="509.8148">has</text><text fill="#000000" font-family="sans-serif" font-size="10.4" lengthAdjust="spacing" textLength="5.6" x="172.3356" y="476.1072">1</text><text fill="#000000" font-family="sans-serif" font-size="10.4" lengthAdjust="spacing" textLength="5.6" x="89.6848" y="538.6045">1</text></g><!--MD5=[6eb6e197a729f6ec2412743e0bdbca1d]
link Manager to User--><g id="link_Manager_User"><path codeLine="44" d="M118.32,328.24 C123.52,341.696 131.56,358.856 142.4,371.6 C153.208,384.312 167.128,395.688 180.792,405.168 " fill="none" id="Manager-to-User" style="stroke:#181818;stroke-width:0.8000000000000002;"/><polygon fill="#181818" points="184.256,407.536,180.1091,400.8365,180.9508,405.283,176.5043,406.1247,184.256,407.536" style="stroke:#181818;stroke-width:0.8000000000000002;"/><text fill="#000000" font-family="sans-serif" font-size="10.4" lengthAdjust="spacing" textLength="34.4" x="143.2" y="369.0148">creates</text><text fill="#000000" font-family="sans-serif" font-size="10.4" lengthAdjust="spacing" textLength="5.6" x="113.665" y="343.7865">1</text><text fill="#000000" font-family="sans-serif" font-size="10.4" lengthAdjust="spacing" textLength="4" x="174.096" y="401.6865">*</text></g><!--MD5=[6eb6e197a729f6ec2412743e0bdbca1d]
link Manager to User--><g id="link_Manager_User"><path codeLine="45" d="M130.304,328.128 C138.912,336.68 149.64,346 160.8,352.4 C169.192,357.216 173.832,353.04 181.6,358.8 C190.168,365.16 197.76,373.4 204.304,382.104 " fill="none" id="Manager-to-User-1" style="stroke:#181818;stroke-width:0.8000000000000002;"/><polygon fill="none" points="209.04,379.104,213.416,395.48,199.776,385.408,209.04,379.104" style="stroke:#181818;stroke-width:0.8000000000000002;"/></g><!--MD5=[e7e4384c2e5b49218c5cd97f5ff6bc06]
link Student to User--><g id="link_Student_User"><path codeLine="46" d="M291.416,328.224 C283.44,342.728 272.528,362.568 262.28,381.208 " fill="none" id="Student-to-User" style="stroke:#181818;stroke-width:0.8000000000000002;"/><polygon fill="none" points="267.072,384.112,254.448,395.432,257.256,378.72,267.072,384.112" style="stroke:#181818;stroke-width:0.8000000000000002;"/></g><!--MD5=[0a356a4e09bd4fc4087bf5e4e9dbf72c]
link Teacher to User--><g id="link_Teacher_User"><path codeLine="47" d="M212.816,328.224 C215.456,342.296 219.04,361.4 222.44,379.552 " fill="none" id="Teacher-to-User" style="stroke:#181818;stroke-width:0.8000000000000002;"/><polygon fill="none" points="227.976,378.68,225.416,395.432,216.968,380.744,227.976,378.68" style="stroke:#181818;stroke-width:0.8000000000000002;"/></g><!--MD5=[26f2750967a9157267d57c5e6d98bc07]
link Profile to User--><g id="link_Profile_User"><path codeLine="49" d="M639.533,317.7459 C639.533,317.7459 383.712,391.368 291.408,417.936 " fill="none" id="Profile-User" style="stroke:#181818;stroke-width:0.8000000000000002;"/><polygon fill="#181818" points="281.392,420.816,289.1964,421.8984,285.2358,419.709,287.4252,415.7484,281.392,420.816" style="stroke:#181818;stroke-width:0.8000000000000002;"/><line style="stroke:#181818;stroke-width:0.8000000000000002;" x1="285.2358" x2="291.384" y1="419.709" y2="417.94"/><polygon fill="#181818" points="648.76,315.096,643.2632,313.3453,639.533,317.7459,645.0298,319.4966,648.76,315.096" style="stroke:#181818;stroke-width:0.8000000000000002;"/><text fill="#000000" font-family="sans-serif" font-size="10.4" lengthAdjust="spacing" textLength="16.8" x="496" y="369.0148">has</text><text fill="#000000" font-family="sans-serif" font-size="10.4" lengthAdjust="spacing" textLength="5.6" x="636.6343" y="314.0377">1</text><text fill="#000000" font-family="sans-serif" font-size="10.4" lengthAdjust="spacing" textLength="5.6" x="287.6554" y="416.585">1</text></g><!--MD5=[9f2e3ca1b788589af3678e3e8a26cb8c]
link Schedule to Meeting--><g id="link_Schedule_Meeting"><path codeLine="62" d="M1079.328,202.184 C1099.936,222.464 1131.064,253.104 1154.024,275.696 " fill="none" id="Schedule-to-Meeting" style="stroke:#181818;stroke-width:0.8000000000000002;"/><polygon fill="#181818" points="1157.064,278.688,1154.1761,271.3572,1154.2128,275.8826,1149.6874,275.9192,1157.064,278.688" style="stroke:#181818;stroke-width:0.8000000000000002;"/><text fill="#000000" font-family="sans-serif" font-size="10.4" lengthAdjust="spacing" textLength="31.2" x="1121.6" y="241.4148">map of</text><text fill="#000000" font-family="sans-serif" font-size="10.4" lengthAdjust="spacing" textLength="5.6" x="1077.8685" y="217.7183">1</text><text fill="#000000" font-family="sans-serif" font-size="10.4" lengthAdjust="spacing" textLength="5.6" x="1145.331" y="270.1205">1</text></g><!--MD5=[40e1eeab083f888632f8f60a43afe0e0]
link MeetingTitle to Meeting--><g id="link_MeetingTitle_Meeting"><path codeLine="63" d="M1360.712,209.456 C1319.928,231.552 1225.5903,282.6622 1225.5903,282.6622 " fill="none" id="MeetingTitle-Meeting" style="stroke:#181818;stroke-width:0.8000000000000002;"/><polygon fill="#181818" points="1217.152,287.24,1222.897,287.7639,1225.5903,282.6622,1219.8452,282.1384,1217.152,287.24" style="stroke:#181818;stroke-width:0.8000000000000002;"/><polygon fill="#181818" points="1369.872,204.488,1362.0174,205.1086,1366.3561,206.3954,1365.0692,210.7341,1369.872,204.488" style="stroke:#181818;stroke-width:0.8000000000000002;"/><line style="stroke:#181818;stroke-width:0.8000000000000002;" x1="1366.3561" x2="1360.728" y1="206.3954" y2="209.448"/><text fill="#000000" font-family="sans-serif" font-size="10.4" lengthAdjust="spacing" textLength="16.8" x="1320" y="241.4148">has</text><text fill="#000000" font-family="sans-serif" font-size="10.4" lengthAdjust="spacing" textLength="5.6" x="1358.0198" y="205.2447">1</text><text fill="#000000" font-family="sans-serif" font-size="10.4" lengthAdjust="spacing" textLength="5.6" x="1223.1066" y="281.4249">1</text></g><!--MD5=[79f19711fae686ac5d47074cf5941dcb]
link Duration to Meeting--><g id="link_Duration_Meeting"><path codeLine="64" d="M1271.488,210.064 C1254.76,228.256 1214.8735,271.621 1214.8735,271.621 " fill="none" id="Duration-Meeting" style="stroke:#181818;stroke-width:0.8000000000000002;"/><polygon fill="#181818" points="1208.376,278.688,1213.9804,277.3203,1214.8735,271.621,1209.269,272.9887,1208.376,278.688" style="stroke:#181818;stroke-width:0.8000000000000002;"/><polygon fill="#181818" points="1278.736,202.184,1271.5072,205.3185,1276.0287,205.1286,1276.2186,209.6501,1278.736,202.184" style="stroke:#181818;stroke-width:0.8000000000000002;"/><line style="stroke:#181818;stroke-width:0.8000000000000002;" x1="1276.0287" x2="1271.696" y1="205.1286" y2="209.84"/><text fill="#000000" font-family="sans-serif" font-size="10.4" lengthAdjust="spacing" textLength="16.8" x="1252" y="241.4148">has</text><text fill="#000000" font-family="sans-serif" font-size="10.4" lengthAdjust="spacing" textLength="5.6" x="1268.222" y="217.7183">1</text><text fill="#000000" font-family="sans-serif" font-size="10.4" lengthAdjust="spacing" textLength="5.6" x="1207.2261" y="270.1205">1</text></g><!--MD5=[2d78ec10f6fa335c8fd85bec6fbdb7be]
link Time to Meeting--><g id="link_Time_Meeting"><path codeLine="65" d="M1183.408,212.864 C1183.512,229.784 1183.7687,269.0882 1183.7687,269.0882 " fill="none" id="Time-Meeting" style="stroke:#181818;stroke-width:0.8000000000000002;"/><polygon fill="#181818" points="1183.832,278.688,1187.0003,273.867,1183.7687,269.0882,1180.6004,273.9092,1183.832,278.688" style="stroke:#181818;stroke-width:0.8000000000000002;"/><polygon fill="#181818" points="1183.336,202.184,1180.1835,209.4049,1183.3624,206.1839,1186.5834,209.3627,1183.336,202.184" style="stroke:#181818;stroke-width:0.8000000000000002;"/><line style="stroke:#181818;stroke-width:0.8000000000000002;" x1="1183.3624" x2="1183.408" y1="206.1839" y2="212.584"/><text fill="#000000" font-family="sans-serif" font-size="10.4" lengthAdjust="spacing" textLength="16.8" x="1184" y="241.4148">has</text><text fill="#000000" font-family="sans-serif" font-size="10.4" lengthAdjust="spacing" textLength="5.6" x="1177.1533" y="217.7183">1</text><text fill="#000000" font-family="sans-serif" font-size="10.4" lengthAdjust="spacing" textLength="5.6" x="1177.6199" y="270.1205">1</text></g><!--MD5=[b6ea6a7b2da8d8abbac4220c9318c063]
link Meeting to User--><g id="link_Meeting_User"><path codeLine="66" d="M1142.7279,336.4238 C1142.7279,336.4238 1119.064,348.96 1107.2,352.4 C1083.288,359.336 908.032,357 883.2,358.8 C664.336,374.68 405.76,409.824 291.784,426.152 " fill="none" id="Meeting-User" style="stroke:#181818;stroke-width:0.8000000000000002;"/><polygon fill="#181818" points="281.208,427.672,288.7912,429.811,285.167,427.1008,287.8772,423.4766,281.208,427.672" style="stroke:#181818;stroke-width:0.8000000000000002;"/><line style="stroke:#181818;stroke-width:0.8000000000000002;" x1="285.167" x2="291.504" y1="427.1008" y2="426.188"/><polygon fill="#181818" points="1150.928,331.432,1145.164,331.1945,1142.7279,336.4238,1148.4919,336.6613,1150.928,331.432" style="stroke:#181818;stroke-width:0.8000000000000002;"/><text fill="#000000" font-family="sans-serif" font-size="10.4" lengthAdjust="spacing" textLength="16.8" x="884" y="369.0148">has</text><text fill="#000000" font-family="sans-serif" font-size="10.4" lengthAdjust="spacing" textLength="5.6" x="1139.1625" y="333.0603">1</text><text fill="#000000" font-family="sans-serif" font-size="10.4" lengthAdjust="spacing" textLength="4" x="287.6665" y="436.829">*</text></g><!--MD5=[979b70f72af22f50cfa1713c549e4041]
reverse link Meeting to User--><g id="link_Meeting_User"><path codeLine="67" d="M1147.72,332.792 C1135.408,340.368 1121.216,347.832 1107.2,352.4 C1085.72,359.4 927.288,369.472 904.8,371.6 C671.184,393.664 391.864,419.88 281.288,430.256 " fill="none" id="Meeting-backto-User" style="stroke:#181818;stroke-width:0.8000000000000002;"/><polygon fill="#181818" points="1151.144,330.648,1143.3434,331.7575,1147.7539,332.7711,1146.7403,337.1816,1151.144,330.648" style="stroke:#181818;stroke-width:0.8000000000000002;"/><text fill="#000000" font-family="sans-serif" font-size="10.4" lengthAdjust="spacing" textLength="107.2" x="1058.4" y="369.0148">schedule and manages</text><text fill="#000000" font-family="sans-serif" font-size="10.4" lengthAdjust="spacing" textLength="5.6" x="1139.1928" y="345.4558">1</text><text fill="#000000" font-family="sans-serif" font-size="10.4" lengthAdjust="spacing" textLength="5.6" x="287.5387" y="427.1755">1</text></g><!--MD5=[800a09b7a3812a1313fd4c91ecef9373]
link Meeting to MeetingState--><g id="link_Meeting_MeetingState"><path codeLine="68" d="M1184.328,333.32 C1184.608,355.568 1185.008,387.128 1185.28,409.128 " fill="none" id="Meeting-to-MeetingState" style="stroke:#181818;stroke-width:0.8000000000000002;"/><polygon fill="#181818" points="1185.336,413.4,1188.4535,406.1639,1185.2903,409.4003,1182.0539,406.237,1185.336,413.4" style="stroke:#181818;stroke-width:0.8000000000000002;"/><text fill="#000000" font-family="sans-serif" font-size="10.4" lengthAdjust="spacing" textLength="16.8" x="1185.6" y="369.0148">has</text><text fill="#000000" font-family="sans-serif" font-size="10.4" lengthAdjust="spacing" textLength="5.6" x="1178.2182" y="349.5304">1</text><text fill="#000000" font-family="sans-serif" font-size="10.4" lengthAdjust="spacing" textLength="5.6" x="1178.9892" y="404.8851">1</text></g><!--MD5=[8385e2603b159b608b15c1ccf67aedd5]
link Meeting to MeetingParticipant--><g id="link_Meeting_MeetingParticipant"><path codeLine="69" d="M1212.016,333.32 C1236,356.024 1270.24,388.448 1293.528,410.496 " fill="none" id="Meeting-to-MeetingParticipant" style="stroke:#181818;stroke-width:0.8000000000000002;"/><polygon fill="#181818" points="1296.592,413.4,1293.5715,406.1229,1293.6903,410.6468,1289.1664,410.7656,1296.592,413.4" style="stroke:#181818;stroke-width:0.8000000000000002;"/><text fill="#000000" font-family="sans-serif" font-size="10.4" lengthAdjust="spacing" textLength="16.8" x="1252" y="369.0148">has</text><text fill="#000000" font-family="sans-serif" font-size="10.4" lengthAdjust="spacing" textLength="5.6" x="1211.6168" y="349.5304">1</text><text fill="#000000" font-family="sans-serif" font-size="10.4" lengthAdjust="spacing" textLength="16" x="1273.1313" y="404.8851">1..*</text></g><!--MD5=[bff233c5522f9618caf80c818931cc59]
link MeetingParticipant to MeetingParticipantState--><g id="link_MeetingParticipant_MeetingParticipantState"><path codeLine="70" d="M1319.2,457.608 C1319.2,480.824 1319.2,518.04 1319.2,542.848 " fill="none" id="MeetingParticipant-to-MeetingParticipantState" style="stroke:#181818;stroke-width:0.8000000000000002;"/><polygon fill="#181818" points="1319.2,547.024,1322.4,539.824,1319.2,543.024,1316,539.824,1319.2,547.024" style="stroke:#181818;stroke-width:0.8000000000000002;"/><text fill="#000000" font-family="sans-serif" font-size="10.4" lengthAdjust="spacing" textLength="16.8" x="1320" y="509.8148">has</text><text fill="#000000" font-family="sans-serif" font-size="10.4" lengthAdjust="spacing" textLength="5.6" x="1312.9525" y="473.4513">1</text><text fill="#000000" font-family="sans-serif" font-size="10.4" lengthAdjust="spacing" textLength="5.6" x="1312.9175" y="538.5149">1</text></g><!--MD5=[18b41ad271323ea731e9e368d0910f6e]
@startuml
package "<<aggregate>> Profile" <<Folder>> #99b3ff {
   entity Profile <<root>> <<entity>>{}

    class TeacherProfile <<entity>> {}
    class StudentProfile <<entity>> {}
    class ManagerProfile <<entity>> <<NullObject>> {}
    class TaxPayerNumber <<(V,#B8255F) value object>> {}
    class DateOfBirth <<(V,#B8255F) value object>> {}
    class MechanographicNumber <<(V,#B8255F) value object>> {}
    class Acronym <<(V,#B8255F) value object>> {}
    class Schedule <<entity>> {}
    class "Day" as ProfileDay <<(V,#B8255F) value object>> {}

    TeacherProfile - -|> Profile
    StudentProfile - -|> Profile
    ManagerProfile - -|> Profile
    TaxPayerNumber "1" <- -* "1" Profile : has
    DateOfBirth "1" <- -* "1" Profile : has
    MechanographicNumber "1" <- -* "1" StudentProfile : has
    Acronym "1" <- -* "1" TeacherProfile : has
    Schedule "1" <- -* "1" Profile : has
    ProfileDay "1..*" <- -* "1" Schedule : has

}


package "<<aggregate>> User" <<Folder>> #ffb380 {

   entity User <<root>> <<entity>>{
        String fullName
        String shortName
    }

    class Role <<(V,#B8255F) value object>> {}
    class Password <<(V,#B8255F) value object>> {}
    class Email <<Id>> <<unique>> <<(V,#B8255F) value object>>  {}
    entity Student <<entity>>{}
    entity Teacher <<entity>>{}
    entity Manager <<entity>>{}

    User "1" *- -> "1" Email : has
    User "1" *- -> "1" Password : has
    User "1" *- -> "1" Role : has
    Manager "1" - -> "*" User : creates
    Manager - -|> User
    Student - -|> User
    Teacher - -|> User
}
Profile "1" *- -> "1" User : has

package "<<aggregate>> Meeting" <<Folder>> #aabbaa {
   entity Meeting <<root>> <<entity>>{
    }

    class "Title" as MeetingTitle <<(V,#B8255F) value object>> <<unique>> {}
    class Duration <<(V,#B8255F) value object>> {}
    class Time <<(V,#B8255F) value object>> {}
    class MeetingState <<(V,#B8255F) value object>> {}
    class MeetingParticipant <<entity>> {}
    class MeetingParticipantState <<(V,#B8255F) value object>> {}

    Schedule "1" - -> "1" Meeting : map of
    MeetingTitle "1" <- -* "1" Meeting : has
    Duration "1" <- -* "1" Meeting : has
    Time "1" <- -* "1" Meeting : has
    Meeting "1" *- -> "*" User : has
    Meeting "1" <- - "1" User : schedule and manages
    Meeting "1" - -> "1" MeetingState : has
    Meeting "1" - -> "1..*" MeetingParticipant : has
    MeetingParticipant "1" - -> "1" MeetingParticipantState : has
}

@enduml

PlantUML version 1.2022.12(Sun Oct 23 19:12:26 WEST 2022)
(GPL source distribution)
Java Runtime: OpenJDK Runtime Environment
JVM: OpenJDK 64-Bit Server VM
Default Encoding: Cp1252
Language: pt
Country: PT
--></g></svg>