<?xml version="1.0" encoding="us-ascii" standalone="no"?><svg xmlns="http://www.w3.org/2000/svg" xmlns:xlink="http://www.w3.org/1999/xlink" contentStyleType="text/css" height="760px" preserveAspectRatio="none" style="width:476px;height:760px;background:#FFFFFF;" version="1.1" viewBox="0 0 476 760" width="476px" zoomAndPan="magnify"><defs/><g><!--entity CourseRepository--><g id="elem_CourseRepository"><path d="M74,706 C74,696 141,696 141,696 C141,696 208,696 208,706 L208,733.6211 C208,743.6211 141,743.6211 141,743.6211 C141,743.6211 74,743.6211 74,733.6211 L74,706 " fill="#F1F1F1" style="stroke:#181818;stroke-width:0.5;"/><path d="M74,706 C74,716 141,716 141,716 C141,716 208,716 208,706 " fill="none" style="stroke:#181818;stroke-width:0.5;"/><text fill="#000000" font-family="sans-serif" font-size="14" lengthAdjust="spacing" textLength="114" x="84" y="735.1074">CourseRepository</text></g><!--class AddCourseUI--><g id="elem_AddCourseUI"><rect codeLine="3" fill="#F1F1F1" height="48" id="AddCourseUI" rx="2.5" ry="2.5" style="stroke:#181818;stroke-width:0.5;" width="115" x="180.5" y="7"/><ellipse cx="195.5" cy="23" fill="#ADD1B2" rx="11" ry="11" style="stroke:#181818;stroke-width:1.0;"/><path d="M198.2656,18.875 Q198.4219,18.6563 198.6094,18.5469 Q198.7969,18.4375 199.0156,18.4375 Q199.3906,18.4375 199.625,18.7031 Q199.8594,18.9531 199.8594,19.5625 L199.8594,21.0156 Q199.8594,21.625 199.625,21.8906 Q199.3906,22.1563 199.0156,22.1563 Q198.6719,22.1563 198.4688,21.9531 Q198.2656,21.7656 198.1563,21.25 Q198.1094,20.8906 197.9219,20.7031 Q197.5938,20.3281 196.9844,20.1094 Q196.375,19.8906 195.75,19.8906 Q194.9844,19.8906 194.3438,20.2188 Q193.7188,20.5469 193.2188,21.2969 Q192.7344,22.0469 192.7344,23.0781 L192.7344,24.1719 Q192.7344,25.4063 193.625,26.2344 Q194.5156,27.0469 196.1094,27.0469 Q197.0469,27.0469 197.7031,26.7969 Q198.0938,26.6406 198.5156,26.2031 Q198.7813,25.9375 198.9219,25.8594 Q199.0781,25.7813 199.2813,25.7813 Q199.6094,25.7813 199.8594,26.0469 Q200.125,26.2969 200.125,26.6406 Q200.125,26.9844 199.7813,27.3906 Q199.2813,27.9688 198.4844,28.2969 Q197.4063,28.75 196.1094,28.75 Q194.5938,28.75 193.3906,28.125 Q192.4063,27.625 191.7188,26.5625 Q191.0313,25.4844 191.0313,24.2031 L191.0313,23.0469 Q191.0313,21.7188 191.6406,20.5781 Q192.2656,19.4219 193.3594,18.8125 Q194.4531,18.1875 195.6875,18.1875 Q196.4219,18.1875 197.0625,18.3594 Q197.7188,18.5156 198.2656,18.875 Z " fill="#000000"/><text fill="#000000" font-family="sans-serif" font-size="14" lengthAdjust="spacing" textLength="83" x="209.5" y="28.7969">AddCourseUI</text><line style="stroke:#181818;stroke-width:0.5;" x1="181.5" x2="294.5" y1="39" y2="39"/><line style="stroke:#181818;stroke-width:0.5;" x1="181.5" x2="294.5" y1="47" y2="47"/></g><!--class AddCourseController--><g id="elem_AddCourseController"><rect codeLine="6" fill="#F1F1F1" height="66.6211" id="AddCourseController" rx="2.5" ry="2.5" style="stroke:#181818;stroke-width:0.5;" width="462" x="7" y="115"/><ellipse cx="167.25" cy="131" fill="#ADD1B2" rx="11" ry="11" style="stroke:#181818;stroke-width:1.0;"/><path d="M170.0156,126.875 Q170.1719,126.6563 170.3594,126.5469 Q170.5469,126.4375 170.7656,126.4375 Q171.1406,126.4375 171.375,126.7031 Q171.6094,126.9531 171.6094,127.5625 L171.6094,129.0156 Q171.6094,129.625 171.375,129.8906 Q171.1406,130.1563 170.7656,130.1563 Q170.4219,130.1563 170.2188,129.9531 Q170.0156,129.7656 169.9063,129.25 Q169.8594,128.8906 169.6719,128.7031 Q169.3438,128.3281 168.7344,128.1094 Q168.125,127.8906 167.5,127.8906 Q166.7344,127.8906 166.0938,128.2188 Q165.4688,128.5469 164.9688,129.2969 Q164.4844,130.0469 164.4844,131.0781 L164.4844,132.1719 Q164.4844,133.4063 165.375,134.2344 Q166.2656,135.0469 167.8594,135.0469 Q168.7969,135.0469 169.4531,134.7969 Q169.8438,134.6406 170.2656,134.2031 Q170.5313,133.9375 170.6719,133.8594 Q170.8281,133.7813 171.0313,133.7813 Q171.3594,133.7813 171.6094,134.0469 Q171.875,134.2969 171.875,134.6406 Q171.875,134.9844 171.5313,135.3906 Q171.0313,135.9688 170.2344,136.2969 Q169.1563,136.75 167.8594,136.75 Q166.3438,136.75 165.1406,136.125 Q164.1563,135.625 163.4688,134.5625 Q162.7813,133.4844 162.7813,132.2031 L162.7813,131.0469 Q162.7813,129.7188 163.3906,128.5781 Q164.0156,127.4219 165.1094,126.8125 Q166.2031,126.1875 167.4375,126.1875 Q168.1719,126.1875 168.8125,126.3594 Q169.4688,126.5156 170.0156,126.875 Z " fill="#000000"/><text fill="#000000" font-family="sans-serif" font-size="14" lengthAdjust="spacing" textLength="133" x="187.75" y="136.7969">AddCourseController</text><line style="stroke:#181818;stroke-width:0.5;" x1="8" x2="468" y1="147" y2="147"/><line style="stroke:#181818;stroke-width:0.5;" x1="8" x2="468" y1="155" y2="155"/><ellipse cx="18" cy="169.8105" fill="#84BE84" rx="3" ry="3" style="stroke:#038048;stroke-width:1.0;"/><text fill="#000000" font-family="sans-serif" font-size="14" lengthAdjust="spacing" textLength="436" x="27" y="174.1074">addCourse(title, state, minCapacity, maxCapacity, enrollmentsState1)</text></g><!--class CourseService--><g id="elem_CourseService"><rect codeLine="10" fill="#F1F1F1" height="85.2422" id="CourseService" rx="2.5" ry="2.5" style="stroke:#181818;stroke-width:0.5;" width="175" x="53.5" y="551"/><ellipse cx="91" cy="567" fill="#ADD1B2" rx="11" ry="11" style="stroke:#181818;stroke-width:1.0;"/><path d="M93.7656,562.875 Q93.9219,562.6563 94.1094,562.5469 Q94.2969,562.4375 94.5156,562.4375 Q94.8906,562.4375 95.125,562.7031 Q95.3594,562.9531 95.3594,563.5625 L95.3594,565.0156 Q95.3594,565.625 95.125,565.8906 Q94.8906,566.1563 94.5156,566.1563 Q94.1719,566.1563 93.9688,565.9531 Q93.7656,565.7656 93.6563,565.25 Q93.6094,564.8906 93.4219,564.7031 Q93.0938,564.3281 92.4844,564.1094 Q91.875,563.8906 91.25,563.8906 Q90.4844,563.8906 89.8438,564.2188 Q89.2188,564.5469 88.7188,565.2969 Q88.2344,566.0469 88.2344,567.0781 L88.2344,568.1719 Q88.2344,569.4063 89.125,570.2344 Q90.0156,571.0469 91.6094,571.0469 Q92.5469,571.0469 93.2031,570.7969 Q93.5938,570.6406 94.0156,570.2031 Q94.2813,569.9375 94.4219,569.8594 Q94.5781,569.7813 94.7813,569.7813 Q95.1094,569.7813 95.3594,570.0469 Q95.625,570.2969 95.625,570.6406 Q95.625,570.9844 95.2813,571.3906 Q94.7813,571.9688 93.9844,572.2969 Q92.9063,572.75 91.6094,572.75 Q90.0938,572.75 88.8906,572.125 Q87.9063,571.625 87.2188,570.5625 Q86.5313,569.4844 86.5313,568.2031 L86.5313,567.0469 Q86.5313,565.7188 87.1406,564.5781 Q87.7656,563.4219 88.8594,562.8125 Q89.9531,562.1875 91.1875,562.1875 Q91.9219,562.1875 92.5625,562.3594 Q93.2188,562.5156 93.7656,562.875 Z " fill="#000000"/><text fill="#000000" font-family="sans-serif" font-size="14" lengthAdjust="spacing" textLength="93" x="110" y="572.7969">CourseService</text><line style="stroke:#181818;stroke-width:0.5;" x1="54.5" x2="227.5" y1="583" y2="583"/><line style="stroke:#181818;stroke-width:0.5;" x1="54.5" x2="227.5" y1="591" y2="591"/><ellipse cx="64.5" cy="605.8105" fill="#84BE84" rx="3" ry="3" style="stroke:#038048;stroke-width:1.0;"/><text fill="#000000" font-family="sans-serif" font-size="14" lengthAdjust="spacing" textLength="149" x="73.5" y="610.1074">addNewCourse(course)</text><ellipse cx="64.5" cy="624.4316" fill="#84BE84" rx="3" ry="3" style="stroke:#038048;stroke-width:1.0;"/><text fill="#000000" font-family="sans-serif" font-size="14" lengthAdjust="spacing" textLength="98" x="73.5" y="628.7285">getAllCourses()</text></g><!--class PersistenceContext--><g id="elem_PersistenceContext"><rect codeLine="16" fill="#F1F1F1" height="66.6211" id="PersistenceContext" rx="2.5" ry="2.5" style="stroke:#181818;stroke-width:0.5;" width="154" x="64" y="251"/><ellipse cx="79" cy="267" fill="#ADD1B2" rx="11" ry="11" style="stroke:#181818;stroke-width:1.0;"/><path d="M81.7656,262.875 Q81.9219,262.6563 82.1094,262.5469 Q82.2969,262.4375 82.5156,262.4375 Q82.8906,262.4375 83.125,262.7031 Q83.3594,262.9531 83.3594,263.5625 L83.3594,265.0156 Q83.3594,265.625 83.125,265.8906 Q82.8906,266.1563 82.5156,266.1563 Q82.1719,266.1563 81.9688,265.9531 Q81.7656,265.7656 81.6563,265.25 Q81.6094,264.8906 81.4219,264.7031 Q81.0938,264.3281 80.4844,264.1094 Q79.875,263.8906 79.25,263.8906 Q78.4844,263.8906 77.8438,264.2188 Q77.2188,264.5469 76.7188,265.2969 Q76.2344,266.0469 76.2344,267.0781 L76.2344,268.1719 Q76.2344,269.4063 77.125,270.2344 Q78.0156,271.0469 79.6094,271.0469 Q80.5469,271.0469 81.2031,270.7969 Q81.5938,270.6406 82.0156,270.2031 Q82.2813,269.9375 82.4219,269.8594 Q82.5781,269.7813 82.7813,269.7813 Q83.1094,269.7813 83.3594,270.0469 Q83.625,270.2969 83.625,270.6406 Q83.625,270.9844 83.2813,271.3906 Q82.7813,271.9688 81.9844,272.2969 Q80.9063,272.75 79.6094,272.75 Q78.0938,272.75 76.8906,272.125 Q75.9063,271.625 75.2188,270.5625 Q74.5313,269.4844 74.5313,268.2031 L74.5313,267.0469 Q74.5313,265.7188 75.1406,264.5781 Q75.7656,263.4219 76.8594,262.8125 Q77.9531,262.1875 79.1875,262.1875 Q79.9219,262.1875 80.5625,262.3594 Q81.2188,262.5156 81.7656,262.875 Z " fill="#000000"/><text fill="#000000" font-family="sans-serif" font-size="14" lengthAdjust="spacing" textLength="122" x="93" y="272.7969">PersistenceContext</text><line style="stroke:#181818;stroke-width:0.5;" x1="65" x2="217" y1="283" y2="283"/><line style="stroke:#181818;stroke-width:0.5;" x1="65" x2="217" y1="291" y2="291"/><ellipse cx="75" cy="305.8105" fill="#84BE84" rx="3" ry="3" style="stroke:#038048;stroke-width:1.0;"/><text fill="#000000" font-family="sans-serif" font-size="14" lengthAdjust="spacing" textLength="84" x="84" y="310.1074">repositories()</text></g><!--class RepositoryFactory--><g id="elem_RepositoryFactory"><rect codeLine="20" fill="#F1F1F1" height="103.8633" id="RepositoryFactory" rx="2.5" ry="2.5" style="stroke:#181818;stroke-width:0.5;" width="231" x="25.5" y="387"/><ellipse cx="78.75" cy="403" fill="#ADD1B2" rx="11" ry="11" style="stroke:#181818;stroke-width:1.0;"/><path d="M81.5156,398.875 Q81.6719,398.6563 81.8594,398.5469 Q82.0469,398.4375 82.2656,398.4375 Q82.6406,398.4375 82.875,398.7031 Q83.1094,398.9531 83.1094,399.5625 L83.1094,401.0156 Q83.1094,401.625 82.875,401.8906 Q82.6406,402.1563 82.2656,402.1563 Q81.9219,402.1563 81.7188,401.9531 Q81.5156,401.7656 81.4063,401.25 Q81.3594,400.8906 81.1719,400.7031 Q80.8438,400.3281 80.2344,400.1094 Q79.625,399.8906 79,399.8906 Q78.2344,399.8906 77.5938,400.2188 Q76.9688,400.5469 76.4688,401.2969 Q75.9844,402.0469 75.9844,403.0781 L75.9844,404.1719 Q75.9844,405.4063 76.875,406.2344 Q77.7656,407.0469 79.3594,407.0469 Q80.2969,407.0469 80.9531,406.7969 Q81.3438,406.6406 81.7656,406.2031 Q82.0313,405.9375 82.1719,405.8594 Q82.3281,405.7813 82.5313,405.7813 Q82.8594,405.7813 83.1094,406.0469 Q83.375,406.2969 83.375,406.6406 Q83.375,406.9844 83.0313,407.3906 Q82.5313,407.9688 81.7344,408.2969 Q80.6563,408.75 79.3594,408.75 Q77.8438,408.75 76.6406,408.125 Q75.6563,407.625 74.9688,406.5625 Q74.2813,405.4844 74.2813,404.2031 L74.2813,403.0469 Q74.2813,401.7188 74.8906,400.5781 Q75.5156,399.4219 76.6094,398.8125 Q77.7031,398.1875 78.9375,398.1875 Q79.6719,398.1875 80.3125,398.3594 Q80.9688,398.5156 81.5156,398.875 Z " fill="#000000"/><text fill="#000000" font-family="sans-serif" font-size="14" lengthAdjust="spacing" textLength="116" x="99.25" y="408.7969">RepositoryFactory</text><line style="stroke:#181818;stroke-width:0.5;" x1="26.5" x2="255.5" y1="419" y2="419"/><line style="stroke:#181818;stroke-width:0.5;" x1="26.5" x2="255.5" y1="427" y2="427"/><ellipse cx="36.5" cy="441.8105" fill="#84BE84" rx="3" ry="3" style="stroke:#038048;stroke-width:1.0;"/><text fill="#000000" font-family="sans-serif" font-size="14" lengthAdjust="spacing" textLength="50" x="45.5" y="446.1074">create()</text><ellipse cx="36.5" cy="460.4316" fill="#84BE84" rx="3" ry="3" style="stroke:#038048;stroke-width:1.0;"/><text fill="#000000" font-family="sans-serif" font-size="14" lengthAdjust="spacing" textLength="169" x="45.5" y="464.7285">newTransactionalContext()</text><ellipse cx="36.5" cy="479.0527" fill="#84BE84" rx="3" ry="3" style="stroke:#038048;stroke-width:1.0;"/><text fill="#000000" font-family="sans-serif" font-size="14" lengthAdjust="spacing" textLength="205" x="45.5" y="483.3496">create(TransactionalContext ctx)</text></g><!--class TransactionalContext--><g id="elem_TransactionalContext"><rect codeLine="30" fill="#F1F1F1" height="85.2422" id="TransactionalContext" rx="2.5" ry="2.5" style="stroke:#181818;stroke-width:0.5;" width="166" x="253" y="242"/><ellipse cx="268" cy="258" fill="#ADD1B2" rx="11" ry="11" style="stroke:#181818;stroke-width:1.0;"/><path d="M270.7656,253.875 Q270.9219,253.6563 271.1094,253.5469 Q271.2969,253.4375 271.5156,253.4375 Q271.8906,253.4375 272.125,253.7031 Q272.3594,253.9531 272.3594,254.5625 L272.3594,256.0156 Q272.3594,256.625 272.125,256.8906 Q271.8906,257.1563 271.5156,257.1563 Q271.1719,257.1563 270.9688,256.9531 Q270.7656,256.7656 270.6563,256.25 Q270.6094,255.8906 270.4219,255.7031 Q270.0938,255.3281 269.4844,255.1094 Q268.875,254.8906 268.25,254.8906 Q267.4844,254.8906 266.8438,255.2188 Q266.2188,255.5469 265.7188,256.2969 Q265.2344,257.0469 265.2344,258.0781 L265.2344,259.1719 Q265.2344,260.4063 266.125,261.2344 Q267.0156,262.0469 268.6094,262.0469 Q269.5469,262.0469 270.2031,261.7969 Q270.5938,261.6406 271.0156,261.2031 Q271.2813,260.9375 271.4219,260.8594 Q271.5781,260.7813 271.7813,260.7813 Q272.1094,260.7813 272.3594,261.0469 Q272.625,261.2969 272.625,261.6406 Q272.625,261.9844 272.2813,262.3906 Q271.7813,262.9688 270.9844,263.2969 Q269.9063,263.75 268.6094,263.75 Q267.0938,263.75 265.8906,263.125 Q264.9063,262.625 264.2188,261.5625 Q263.5313,260.4844 263.5313,259.2031 L263.5313,258.0469 Q263.5313,256.7188 264.1406,255.5781 Q264.7656,254.4219 265.8594,253.8125 Q266.9531,253.1875 268.1875,253.1875 Q268.9219,253.1875 269.5625,253.3594 Q270.2188,253.5156 270.7656,253.875 Z " fill="#000000"/><text fill="#000000" font-family="sans-serif" font-size="14" lengthAdjust="spacing" textLength="134" x="282" y="263.7969">TransactionalContext</text><line style="stroke:#181818;stroke-width:0.5;" x1="254" x2="418" y1="274" y2="274"/><line style="stroke:#181818;stroke-width:0.5;" x1="254" x2="418" y1="282" y2="282"/><ellipse cx="264" cy="296.8105" fill="#84BE84" rx="3" ry="3" style="stroke:#038048;stroke-width:1.0;"/><text fill="#000000" font-family="sans-serif" font-size="14" lengthAdjust="spacing" textLength="120" x="273" y="301.1074">beginTransaction()</text><ellipse cx="264" cy="315.4316" fill="#84BE84" rx="3" ry="3" style="stroke:#038048;stroke-width:1.0;"/><text fill="#000000" font-family="sans-serif" font-size="14" lengthAdjust="spacing" textLength="54" x="273" y="319.7285">commit()</text></g><!--link AddCourseUI to AddCourseController--><g id="link_AddCourseUI_AddCourseController"><path codeLine="36" d="M238,55.1 C238,70.74 238,91.77 238,109.82 " fill="none" id="AddCourseUI-to-AddCourseController" style="stroke:#181818;stroke-width:1.0;"/><polygon fill="#181818" points="238,114.82,242,105.82,238,109.82,234,105.82,238,114.82" style="stroke:#181818;stroke-width:1.0;"/></g><!--link AddCourseController to PersistenceContext--><g id="link_AddCourseController_PersistenceContext"><path codeLine="37" d="M214.27,182.28 C200.24,201.67 182.42,226.28 167.87,246.38 " fill="none" id="AddCourseController-to-PersistenceContext" style="stroke:#181818;stroke-width:1.0;"/><polygon fill="#181818" points="164.82,250.59,173.3309,245.6337,167.7464,246.5359,166.8442,240.9514,164.82,250.59" style="stroke:#181818;stroke-width:1.0;"/></g><!--link AddCourseController to TransactionalContext--><g id="link_AddCourseController_TransactionalContext"><path codeLine="38" d="M261.97,182.28 C274.2,198.99 289.26,219.59 302.6,237.83 " fill="none" id="AddCourseController-to-TransactionalContext" style="stroke:#181818;stroke-width:1.0;"/><polygon fill="#181818" points="305.59,241.92,303.4889,232.2979,302.6313,237.8893,297.0399,237.0318,305.59,241.92" style="stroke:#181818;stroke-width:1.0;"/></g><!--link CourseService to CourseRepository--><g id="link_CourseService_CourseRepository"><path codeLine="40" d="M141,636.3 C141,654.2 141,674.64 141,690.71 " fill="none" id="CourseService-to-CourseRepository" style="stroke:#181818;stroke-width:1.0;"/><polygon fill="#181818" points="141,695.99,145,686.99,141,690.99,137,686.99,141,695.99" style="stroke:#181818;stroke-width:1.0;"/></g><!--link PersistenceContext to RepositoryFactory--><g id="link_PersistenceContext_RepositoryFactory"><path codeLine="42" d="M141,318.22 C141,336.69 141,360.29 141,381.65 " fill="none" id="PersistenceContext-to-RepositoryFactory" style="stroke:#181818;stroke-width:1.0;"/><polygon fill="#181818" points="141,386.74,145,377.74,141,381.74,137,377.74,141,386.74" style="stroke:#181818;stroke-width:1.0;"/></g><!--link RepositoryFactory to CourseService--><g id="link_RepositoryFactory_CourseService"><path codeLine="44" d="M141,491.2 C141,508.77 141,528.33 141,545.54 " fill="none" id="RepositoryFactory-to-CourseService" style="stroke:#181818;stroke-width:1.0;"/><polygon fill="#181818" points="141,550.8,145,541.8,141,545.8,137,541.8,141,550.8" style="stroke:#181818;stroke-width:1.0;"/></g><!--SRC=[TL7BQiD03BphAtnhWkkQNdieX42WbrAQzWEKjN0Nzc5sbSR1zD-xNg-nKxideT5eHe-xB-R6FvLbez3mMQi7ONKf57fVL19hXneWfjckglRsx3nzldJmiq3trh2pIf7h8CSHtR1aHVUPP-GGj3HxR518leO4soaXqpThCkoFFVTnEtaCKaTotrBGeFvAbsGWOjX2NXFlb1fGludjgV-Dd9UUoOWu9RKSH1mrraksJexiWVm-ujS3YZu4hd0KHWgitD3bmw7neIIjGPNq-b8YhPKpmMsqg93nX9xIIfDNDnjtJI4CSQ9QcbajUbgj9QTbPm_AYk9vxJMmWWNgya3_4DT60xZvJxJ-knx0qYBm5hS6M421TgF_2m00]--></g></svg>