<?xml version="1.0" encoding="us-ascii" standalone="no"?><svg xmlns="http://www.w3.org/2000/svg" xmlns:xlink="http://www.w3.org/1999/xlink" contentStyleType="text/css" height="742px" preserveAspectRatio="none" style="width:514px;height:742px;background:#FFFFFF;" version="1.1" viewBox="0 0 514 742" width="514px" zoomAndPan="magnify"><defs/><g><!--entity GradeRepository--><g id="elem_GradeRepository"><path d="M58.5,688 C58.5,678 122.5,678 122.5,678 C122.5,678 186.5,678 186.5,688 L186.5,715.6211 C186.5,725.6211 122.5,725.6211 122.5,725.6211 C122.5,725.6211 58.5,725.6211 58.5,715.6211 L58.5,688 " fill="#F1F1F1" style="stroke:#181818;stroke-width:0.5;"/><path d="M58.5,688 C58.5,698 122.5,698 122.5,698 C122.5,698 186.5,698 186.5,688 " fill="none" style="stroke:#181818;stroke-width:0.5;"/><text fill="#000000" font-family="sans-serif" font-size="14" lengthAdjust="spacing" textLength="108" x="68.5" y="717.1074">GradeRepository</text></g><!--class ListGradesUI--><g id="elem_ListGradesUI"><rect codeLine="3" fill="#F1F1F1" height="48" id="ListGradesUI" rx="2.5" ry="2.5" style="stroke:#181818;stroke-width:0.5;" width="113" x="261" y="7"/><ellipse cx="276" cy="23" fill="#ADD1B2" rx="11" ry="11" style="stroke:#181818;stroke-width:1.0;"/><path d="M278.7656,18.875 Q278.9219,18.6563 279.1094,18.5469 Q279.2969,18.4375 279.5156,18.4375 Q279.8906,18.4375 280.125,18.7031 Q280.3594,18.9531 280.3594,19.5625 L280.3594,21.0156 Q280.3594,21.625 280.125,21.8906 Q279.8906,22.1563 279.5156,22.1563 Q279.1719,22.1563 278.9688,21.9531 Q278.7656,21.7656 278.6563,21.25 Q278.6094,20.8906 278.4219,20.7031 Q278.0938,20.3281 277.4844,20.1094 Q276.875,19.8906 276.25,19.8906 Q275.4844,19.8906 274.8438,20.2188 Q274.2188,20.5469 273.7188,21.2969 Q273.2344,22.0469 273.2344,23.0781 L273.2344,24.1719 Q273.2344,25.4063 274.125,26.2344 Q275.0156,27.0469 276.6094,27.0469 Q277.5469,27.0469 278.2031,26.7969 Q278.5938,26.6406 279.0156,26.2031 Q279.2813,25.9375 279.4219,25.8594 Q279.5781,25.7813 279.7813,25.7813 Q280.1094,25.7813 280.3594,26.0469 Q280.625,26.2969 280.625,26.6406 Q280.625,26.9844 280.2813,27.3906 Q279.7813,27.9688 278.9844,28.2969 Q277.9063,28.75 276.6094,28.75 Q275.0938,28.75 273.8906,28.125 Q272.9063,27.625 272.2188,26.5625 Q271.5313,25.4844 271.5313,24.2031 L271.5313,23.0469 Q271.5313,21.7188 272.1406,20.5781 Q272.7656,19.4219 273.8594,18.8125 Q274.9531,18.1875 276.1875,18.1875 Q276.9219,18.1875 277.5625,18.3594 Q278.2188,18.5156 278.7656,18.875 Z " fill="#000000"/><text fill="#000000" font-family="sans-serif" font-size="14" lengthAdjust="spacing" textLength="81" x="290" y="28.7969">ListGradesUI</text><line style="stroke:#181818;stroke-width:0.5;" x1="262" x2="373" y1="39" y2="39"/><line style="stroke:#181818;stroke-width:0.5;" x1="262" x2="373" y1="47" y2="47"/></g><!--class GradeController--><g id="elem_GradeController"><rect codeLine="6" fill="#F1F1F1" height="66.6211" id="GradeController" rx="2.5" ry="2.5" style="stroke:#181818;stroke-width:0.5;" width="134" x="250.5" y="115"/><ellipse cx="265.5" cy="131" fill="#ADD1B2" rx="11" ry="11" style="stroke:#181818;stroke-width:1.0;"/><path d="M268.2656,126.875 Q268.4219,126.6563 268.6094,126.5469 Q268.7969,126.4375 269.0156,126.4375 Q269.3906,126.4375 269.625,126.7031 Q269.8594,126.9531 269.8594,127.5625 L269.8594,129.0156 Q269.8594,129.625 269.625,129.8906 Q269.3906,130.1563 269.0156,130.1563 Q268.6719,130.1563 268.4688,129.9531 Q268.2656,129.7656 268.1563,129.25 Q268.1094,128.8906 267.9219,128.7031 Q267.5938,128.3281 266.9844,128.1094 Q266.375,127.8906 265.75,127.8906 Q264.9844,127.8906 264.3438,128.2188 Q263.7188,128.5469 263.2188,129.2969 Q262.7344,130.0469 262.7344,131.0781 L262.7344,132.1719 Q262.7344,133.4063 263.625,134.2344 Q264.5156,135.0469 266.1094,135.0469 Q267.0469,135.0469 267.7031,134.7969 Q268.0938,134.6406 268.5156,134.2031 Q268.7813,133.9375 268.9219,133.8594 Q269.0781,133.7813 269.2813,133.7813 Q269.6094,133.7813 269.8594,134.0469 Q270.125,134.2969 270.125,134.6406 Q270.125,134.9844 269.7813,135.3906 Q269.2813,135.9688 268.4844,136.2969 Q267.4063,136.75 266.1094,136.75 Q264.5938,136.75 263.3906,136.125 Q262.4063,135.625 261.7188,134.5625 Q261.0313,133.4844 261.0313,132.2031 L261.0313,131.0469 Q261.0313,129.7188 261.6406,128.5781 Q262.2656,127.4219 263.3594,126.8125 Q264.4531,126.1875 265.6875,126.1875 Q266.4219,126.1875 267.0625,126.3594 Q267.7188,126.5156 268.2656,126.875 Z " fill="#000000"/><text fill="#000000" font-family="sans-serif" font-size="14" lengthAdjust="spacing" textLength="102" x="279.5" y="136.7969">GradeController</text><line style="stroke:#181818;stroke-width:0.5;" x1="251.5" x2="383.5" y1="147" y2="147"/><line style="stroke:#181818;stroke-width:0.5;" x1="251.5" x2="383.5" y1="155" y2="155"/><ellipse cx="261.5" cy="169.8105" fill="#84BE84" rx="3" ry="3" style="stroke:#038048;stroke-width:1.0;"/><text fill="#000000" font-family="sans-serif" font-size="14" lengthAdjust="spacing" textLength="45" x="270.5" y="174.1074">getAll()</text></g><!--class GradeService--><g id="elem_GradeService"><rect codeLine="10" fill="#F1F1F1" height="66.6211" id="GradeService" rx="2.5" ry="2.5" style="stroke:#181818;stroke-width:0.5;" width="119" x="63" y="551"/><ellipse cx="78" cy="567" fill="#ADD1B2" rx="11" ry="11" style="stroke:#181818;stroke-width:1.0;"/><path d="M80.7656,562.875 Q80.9219,562.6563 81.1094,562.5469 Q81.2969,562.4375 81.5156,562.4375 Q81.8906,562.4375 82.125,562.7031 Q82.3594,562.9531 82.3594,563.5625 L82.3594,565.0156 Q82.3594,565.625 82.125,565.8906 Q81.8906,566.1563 81.5156,566.1563 Q81.1719,566.1563 80.9688,565.9531 Q80.7656,565.7656 80.6563,565.25 Q80.6094,564.8906 80.4219,564.7031 Q80.0938,564.3281 79.4844,564.1094 Q78.875,563.8906 78.25,563.8906 Q77.4844,563.8906 76.8438,564.2188 Q76.2188,564.5469 75.7188,565.2969 Q75.2344,566.0469 75.2344,567.0781 L75.2344,568.1719 Q75.2344,569.4063 76.125,570.2344 Q77.0156,571.0469 78.6094,571.0469 Q79.5469,571.0469 80.2031,570.7969 Q80.5938,570.6406 81.0156,570.2031 Q81.2813,569.9375 81.4219,569.8594 Q81.5781,569.7813 81.7813,569.7813 Q82.1094,569.7813 82.3594,570.0469 Q82.625,570.2969 82.625,570.6406 Q82.625,570.9844 82.2813,571.3906 Q81.7813,571.9688 80.9844,572.2969 Q79.9063,572.75 78.6094,572.75 Q77.0938,572.75 75.8906,572.125 Q74.9063,571.625 74.2188,570.5625 Q73.5313,569.4844 73.5313,568.2031 L73.5313,567.0469 Q73.5313,565.7188 74.1406,564.5781 Q74.7656,563.4219 75.8594,562.8125 Q76.9531,562.1875 78.1875,562.1875 Q78.9219,562.1875 79.5625,562.3594 Q80.2188,562.5156 80.7656,562.875 Z " fill="#000000"/><text fill="#000000" font-family="sans-serif" font-size="14" lengthAdjust="spacing" textLength="87" x="92" y="572.7969">GradeService</text><line style="stroke:#181818;stroke-width:0.5;" x1="64" x2="181" y1="583" y2="583"/><line style="stroke:#181818;stroke-width:0.5;" x1="64" x2="181" y1="591" y2="591"/><ellipse cx="74" cy="605.8105" fill="#84BE84" rx="3" ry="3" style="stroke:#038048;stroke-width:1.0;"/><text fill="#000000" font-family="sans-serif" font-size="14" lengthAdjust="spacing" textLength="45" x="83" y="610.1074">getAll()</text></g><!--class PersistenceContext--><g id="elem_PersistenceContext"><rect codeLine="15" fill="#F1F1F1" height="66.6211" id="PersistenceContext" rx="2.5" ry="2.5" style="stroke:#181818;stroke-width:0.5;" width="154" x="45.5" y="251"/><ellipse cx="60.5" cy="267" fill="#ADD1B2" rx="11" ry="11" style="stroke:#181818;stroke-width:1.0;"/><path d="M63.2656,262.875 Q63.4219,262.6563 63.6094,262.5469 Q63.7969,262.4375 64.0156,262.4375 Q64.3906,262.4375 64.625,262.7031 Q64.8594,262.9531 64.8594,263.5625 L64.8594,265.0156 Q64.8594,265.625 64.625,265.8906 Q64.3906,266.1563 64.0156,266.1563 Q63.6719,266.1563 63.4688,265.9531 Q63.2656,265.7656 63.1563,265.25 Q63.1094,264.8906 62.9219,264.7031 Q62.5938,264.3281 61.9844,264.1094 Q61.375,263.8906 60.75,263.8906 Q59.9844,263.8906 59.3438,264.2188 Q58.7188,264.5469 58.2188,265.2969 Q57.7344,266.0469 57.7344,267.0781 L57.7344,268.1719 Q57.7344,269.4063 58.625,270.2344 Q59.5156,271.0469 61.1094,271.0469 Q62.0469,271.0469 62.7031,270.7969 Q63.0938,270.6406 63.5156,270.2031 Q63.7813,269.9375 63.9219,269.8594 Q64.0781,269.7813 64.2813,269.7813 Q64.6094,269.7813 64.8594,270.0469 Q65.125,270.2969 65.125,270.6406 Q65.125,270.9844 64.7813,271.3906 Q64.2813,271.9688 63.4844,272.2969 Q62.4063,272.75 61.1094,272.75 Q59.5938,272.75 58.3906,272.125 Q57.4063,271.625 56.7188,270.5625 Q56.0313,269.4844 56.0313,268.2031 L56.0313,267.0469 Q56.0313,265.7188 56.6406,264.5781 Q57.2656,263.4219 58.3594,262.8125 Q59.4531,262.1875 60.6875,262.1875 Q61.4219,262.1875 62.0625,262.3594 Q62.7188,262.5156 63.2656,262.875 Z " fill="#000000"/><text fill="#000000" font-family="sans-serif" font-size="14" lengthAdjust="spacing" textLength="122" x="74.5" y="272.7969">PersistenceContext</text><line style="stroke:#181818;stroke-width:0.5;" x1="46.5" x2="198.5" y1="283" y2="283"/><line style="stroke:#181818;stroke-width:0.5;" x1="46.5" x2="198.5" y1="291" y2="291"/><ellipse cx="56.5" cy="305.8105" fill="#84BE84" rx="3" ry="3" style="stroke:#038048;stroke-width:1.0;"/><text fill="#000000" font-family="sans-serif" font-size="14" lengthAdjust="spacing" textLength="84" x="65.5" y="310.1074">repositories()</text></g><!--class RepositoryFactory--><g id="elem_RepositoryFactory"><rect codeLine="19" fill="#F1F1F1" height="103.8633" id="RepositoryFactory" rx="2.5" ry="2.5" style="stroke:#181818;stroke-width:0.5;" width="231" x="7" y="387"/><ellipse cx="60.25" cy="403" fill="#ADD1B2" rx="11" ry="11" style="stroke:#181818;stroke-width:1.0;"/><path d="M63.0156,398.875 Q63.1719,398.6563 63.3594,398.5469 Q63.5469,398.4375 63.7656,398.4375 Q64.1406,398.4375 64.375,398.7031 Q64.6094,398.9531 64.6094,399.5625 L64.6094,401.0156 Q64.6094,401.625 64.375,401.8906 Q64.1406,402.1563 63.7656,402.1563 Q63.4219,402.1563 63.2188,401.9531 Q63.0156,401.7656 62.9063,401.25 Q62.8594,400.8906 62.6719,400.7031 Q62.3438,400.3281 61.7344,400.1094 Q61.125,399.8906 60.5,399.8906 Q59.7344,399.8906 59.0938,400.2188 Q58.4688,400.5469 57.9688,401.2969 Q57.4844,402.0469 57.4844,403.0781 L57.4844,404.1719 Q57.4844,405.4063 58.375,406.2344 Q59.2656,407.0469 60.8594,407.0469 Q61.7969,407.0469 62.4531,406.7969 Q62.8438,406.6406 63.2656,406.2031 Q63.5313,405.9375 63.6719,405.8594 Q63.8281,405.7813 64.0313,405.7813 Q64.3594,405.7813 64.6094,406.0469 Q64.875,406.2969 64.875,406.6406 Q64.875,406.9844 64.5313,407.3906 Q64.0313,407.9688 63.2344,408.2969 Q62.1563,408.75 60.8594,408.75 Q59.3438,408.75 58.1406,408.125 Q57.1563,407.625 56.4688,406.5625 Q55.7813,405.4844 55.7813,404.2031 L55.7813,403.0469 Q55.7813,401.7188 56.3906,400.5781 Q57.0156,399.4219 58.1094,398.8125 Q59.2031,398.1875 60.4375,398.1875 Q61.1719,398.1875 61.8125,398.3594 Q62.4688,398.5156 63.0156,398.875 Z " fill="#000000"/><text fill="#000000" font-family="sans-serif" font-size="14" lengthAdjust="spacing" textLength="116" x="80.75" y="408.7969">RepositoryFactory</text><line style="stroke:#181818;stroke-width:0.5;" x1="8" x2="237" y1="419" y2="419"/><line style="stroke:#181818;stroke-width:0.5;" x1="8" x2="237" y1="427" y2="427"/><ellipse cx="18" cy="441.8105" fill="#84BE84" rx="3" ry="3" style="stroke:#038048;stroke-width:1.0;"/><text fill="#000000" font-family="sans-serif" font-size="14" lengthAdjust="spacing" textLength="50" x="27" y="446.1074">create()</text><ellipse cx="18" cy="460.4316" fill="#84BE84" rx="3" ry="3" style="stroke:#038048;stroke-width:1.0;"/><text fill="#000000" font-family="sans-serif" font-size="14" lengthAdjust="spacing" textLength="169" x="27" y="464.7285">newTransactionalContext()</text><ellipse cx="18" cy="479.0527" fill="#84BE84" rx="3" ry="3" style="stroke:#038048;stroke-width:1.0;"/><text fill="#000000" font-family="sans-serif" font-size="14" lengthAdjust="spacing" textLength="205" x="27" y="483.3496">create(TransactionalContext ctx)</text></g><!--class TransactionalContext--><g id="elem_TransactionalContext"><rect codeLine="28" fill="#F1F1F1" height="85.2422" id="TransactionalContext" rx="2.5" ry="2.5" style="stroke:#181818;stroke-width:0.5;" width="166" x="234.5" y="242"/><ellipse cx="249.5" cy="258" fill="#ADD1B2" rx="11" ry="11" style="stroke:#181818;stroke-width:1.0;"/><path d="M252.2656,253.875 Q252.4219,253.6563 252.6094,253.5469 Q252.7969,253.4375 253.0156,253.4375 Q253.3906,253.4375 253.625,253.7031 Q253.8594,253.9531 253.8594,254.5625 L253.8594,256.0156 Q253.8594,256.625 253.625,256.8906 Q253.3906,257.1563 253.0156,257.1563 Q252.6719,257.1563 252.4688,256.9531 Q252.2656,256.7656 252.1563,256.25 Q252.1094,255.8906 251.9219,255.7031 Q251.5938,255.3281 250.9844,255.1094 Q250.375,254.8906 249.75,254.8906 Q248.9844,254.8906 248.3438,255.2188 Q247.7188,255.5469 247.2188,256.2969 Q246.7344,257.0469 246.7344,258.0781 L246.7344,259.1719 Q246.7344,260.4063 247.625,261.2344 Q248.5156,262.0469 250.1094,262.0469 Q251.0469,262.0469 251.7031,261.7969 Q252.0938,261.6406 252.5156,261.2031 Q252.7813,260.9375 252.9219,260.8594 Q253.0781,260.7813 253.2813,260.7813 Q253.6094,260.7813 253.8594,261.0469 Q254.125,261.2969 254.125,261.6406 Q254.125,261.9844 253.7813,262.3906 Q253.2813,262.9688 252.4844,263.2969 Q251.4063,263.75 250.1094,263.75 Q248.5938,263.75 247.3906,263.125 Q246.4063,262.625 245.7188,261.5625 Q245.0313,260.4844 245.0313,259.2031 L245.0313,258.0469 Q245.0313,256.7188 245.6406,255.5781 Q246.2656,254.4219 247.3594,253.8125 Q248.4531,253.1875 249.6875,253.1875 Q250.4219,253.1875 251.0625,253.3594 Q251.7188,253.5156 252.2656,253.875 Z " fill="#000000"/><text fill="#000000" font-family="sans-serif" font-size="14" lengthAdjust="spacing" textLength="134" x="263.5" y="263.7969">TransactionalContext</text><line style="stroke:#181818;stroke-width:0.5;" x1="235.5" x2="399.5" y1="274" y2="274"/><line style="stroke:#181818;stroke-width:0.5;" x1="235.5" x2="399.5" y1="282" y2="282"/><ellipse cx="245.5" cy="296.8105" fill="#84BE84" rx="3" ry="3" style="stroke:#038048;stroke-width:1.0;"/><text fill="#000000" font-family="sans-serif" font-size="14" lengthAdjust="spacing" textLength="120" x="254.5" y="301.1074">beginTransaction()</text><ellipse cx="245.5" cy="315.4316" fill="#84BE84" rx="3" ry="3" style="stroke:#038048;stroke-width:1.0;"/><text fill="#000000" font-family="sans-serif" font-size="14" lengthAdjust="spacing" textLength="54" x="254.5" y="319.7285">commit()</text></g><!--class Grade--><g id="elem_Grade"><rect codeLine="33" fill="#F1F1F1" height="48" id="Grade" rx="2.5" ry="2.5" style="stroke:#181818;stroke-width:0.5;" width="72" x="435.5" y="260.5"/><ellipse cx="450.5" cy="276.5" fill="#ADD1B2" rx="11" ry="11" style="stroke:#181818;stroke-width:1.0;"/><path d="M453.2656,272.375 Q453.4219,272.1563 453.6094,272.0469 Q453.7969,271.9375 454.0156,271.9375 Q454.3906,271.9375 454.625,272.2031 Q454.8594,272.4531 454.8594,273.0625 L454.8594,274.5156 Q454.8594,275.125 454.625,275.3906 Q454.3906,275.6563 454.0156,275.6563 Q453.6719,275.6563 453.4688,275.4531 Q453.2656,275.2656 453.1563,274.75 Q453.1094,274.3906 452.9219,274.2031 Q452.5938,273.8281 451.9844,273.6094 Q451.375,273.3906 450.75,273.3906 Q449.9844,273.3906 449.3438,273.7188 Q448.7188,274.0469 448.2188,274.7969 Q447.7344,275.5469 447.7344,276.5781 L447.7344,277.6719 Q447.7344,278.9063 448.625,279.7344 Q449.5156,280.5469 451.1094,280.5469 Q452.0469,280.5469 452.7031,280.2969 Q453.0938,280.1406 453.5156,279.7031 Q453.7813,279.4375 453.9219,279.3594 Q454.0781,279.2813 454.2813,279.2813 Q454.6094,279.2813 454.8594,279.5469 Q455.125,279.7969 455.125,280.1406 Q455.125,280.4844 454.7813,280.8906 Q454.2813,281.4688 453.4844,281.7969 Q452.4063,282.25 451.1094,282.25 Q449.5938,282.25 448.3906,281.625 Q447.4063,281.125 446.7188,280.0625 Q446.0313,278.9844 446.0313,277.7031 L446.0313,276.5469 Q446.0313,275.2188 446.6406,274.0781 Q447.2656,272.9219 448.3594,272.3125 Q449.4531,271.6875 450.6875,271.6875 Q451.4219,271.6875 452.0625,271.8594 Q452.7188,272.0156 453.2656,272.375 Z " fill="#000000"/><text fill="#000000" font-family="sans-serif" font-size="14" lengthAdjust="spacing" textLength="40" x="464.5" y="282.2969">Grade</text><line style="stroke:#181818;stroke-width:0.5;" x1="436.5" x2="506.5" y1="292.5" y2="292.5"/><line style="stroke:#181818;stroke-width:0.5;" x1="436.5" x2="506.5" y1="300.5" y2="300.5"/></g><!--link ListGradesUI to GradeController--><g id="link_ListGradesUI_GradeController"><path codeLine="37" d="M317.5,55.1 C317.5,70.74 317.5,91.77 317.5,109.82 " fill="none" id="ListGradesUI-to-GradeController" style="stroke:#181818;stroke-width:1.0;"/><polygon fill="#181818" points="317.5,114.82,321.5,105.82,317.5,109.82,313.5,105.82,317.5,114.82" style="stroke:#181818;stroke-width:1.0;"/></g><!--link GradeController to PersistenceContext--><g id="link_GradeController_PersistenceContext"><path codeLine="38" d="M269.8,182.28 C240.89,202.15 204,227.5 174.36,247.86 " fill="none" id="GradeController-to-PersistenceContext" style="stroke:#181818;stroke-width:1.0;"/><polygon fill="#181818" points="170.05,250.83,179.7354,249.0431,174.1748,248.004,175.2138,242.4434,170.05,250.83" style="stroke:#181818;stroke-width:1.0;"/></g><!--link GradeController to TransactionalContext--><g id="link_GradeController_TransactionalContext"><path codeLine="39" d="M317.5,182.28 C317.5,198.71 317.5,218.9 317.5,236.9 " fill="none" id="GradeController-to-TransactionalContext" style="stroke:#181818;stroke-width:1.0;"/><polygon fill="#181818" points="317.5,241.92,321.5,232.92,317.5,236.92,313.5,232.92,317.5,241.92" style="stroke:#181818;stroke-width:1.0;"/></g><!--link GradeService to GradeRepository--><g id="link_GradeService_GradeRepository"><path codeLine="41" d="M122.5,618.29 C122.5,635.31 122.5,655.9 122.5,672.29 " fill="none" id="GradeService-to-GradeRepository" style="stroke:#181818;stroke-width:1.0;"/><polygon fill="#181818" points="122.5,677.67,126.5,668.67,122.5,672.67,118.5,668.67,122.5,677.67" style="stroke:#181818;stroke-width:1.0;"/></g><!--link GradeController to Grade--><g id="link_GradeController_Grade"><path codeLine="42" d="M355.17,182.28 C381.54,205.23 416.33,235.49 440.97,256.93 " fill="none" id="GradeController-to-Grade" style="stroke:#181818;stroke-width:1.0;"/><polygon fill="#181818" points="444.83,260.3,440.6716,251.3721,441.06,257.0156,435.4165,257.404,444.83,260.3" style="stroke:#181818;stroke-width:1.0;"/></g><!--link PersistenceContext to RepositoryFactory--><g id="link_PersistenceContext_RepositoryFactory"><path codeLine="44" d="M122.5,318.22 C122.5,336.69 122.5,360.29 122.5,381.65 " fill="none" id="PersistenceContext-to-RepositoryFactory" style="stroke:#181818;stroke-width:1.0;"/><polygon fill="#181818" points="122.5,386.74,126.5,377.74,122.5,381.74,118.5,377.74,122.5,386.74" style="stroke:#181818;stroke-width:1.0;"/></g><!--link RepositoryFactory to GradeService--><g id="link_RepositoryFactory_GradeService"><path codeLine="46" d="M122.5,491.4 C122.5,509.33 122.5,529.11 122.5,545.72 " fill="none" id="RepositoryFactory-to-GradeService" style="stroke:#181818;stroke-width:1.0;"/><polygon fill="#181818" points="122.5,550.77,126.5,541.77,122.5,545.77,118.5,541.77,122.5,550.77" style="stroke:#181818;stroke-width:1.0;"/></g><!--SRC=[RP7FIWGn3CRlUOgvkRACS_SWYA0iU91L7o3R2MEXVuOawihYkzkjiqoPpgaqtw_VbwHN7wgZt7RTw33eftSt9lhEE1HfUui3emV8r-RPYZunzYJlknFyNigvz123SdIE-0JRWVJUkStrWdab_hA65i14l11BygTWiXSTDN5COnIhaIr9QRU_r7yUqPoFn1ecL4hKDj3t6sEG9DaOq4r-Psc2rkJ6w357zAXuGA7_fkUeOkIrzwc50mqs55fEZDvRhNQHpQ3SQDEsTyjTmkAUa7fFAz1QVm3b9ynfyu1Beva1g6EJM7q3G5LAM9dx1m00]--></g></svg>