<?xml version="1.0" encoding="UTF-8" standalone="no"?><svg xmlns="http://www.w3.org/2000/svg" xmlns:xlink="http://www.w3.org/1999/xlink" contentStyleType="text/css" height="792px" preserveAspectRatio="none" style="width:2170px;height:792px;background:#FFFFFF;" version="1.1" viewBox="0 0 2170 792" width="2170px" zoomAndPan="magnify"><defs/><g><rect fill="none" height="25.6406" id="_title" style="stroke:none;stroke-width:1.0;" width="166" x="995" y="5"/><text fill="#000000" font-family="sans-serif" font-size="14" font-weight="bold" lengthAdjust="spacing" textLength="156" x="1000" y="22.6738">Domain Driven Design</text><!--MD5=[597c9b6a35d8038d4b40fd8870ba90aa]
cluster <<aggregate>> User--><g id="cluster_&lt;&lt;aggregate&gt;&gt; User"><path d="M788.5,276.1406 L930.5,276.1406 A3.75,3.75 0 0 1 933,278.6406 L940,297.7813 L1213.5,297.7813 A2.5,2.5 0 0 1 1216,300.2813 L1216,663.1406 A2.5,2.5 0 0 1 1213.5,665.6406 L788.5,665.6406 A2.5,2.5 0 0 1 786,663.1406 L786,278.6406 A2.5,2.5 0 0 1 788.5,276.1406 " fill="#FFB380" style="stroke:#000000;stroke-width:1.5;"/><line style="stroke:#000000;stroke-width:1.5;" x1="786" x2="940" y1="297.7813" y2="297.7813"/><text fill="#000000" font-family="sans-serif" font-size="14" font-weight="bold" lengthAdjust="spacing" textLength="141" x="790" y="290.8145">&lt;&lt;aggregate&gt;&gt; User</text></g><!--MD5=[345d2926e9f5d576001f82e13aea4ac3]
cluster <<aggregate>> Profile--><g id="cluster_&lt;&lt;aggregate&gt;&gt; Profile"><path d="M1242.5,42.6406 L1397.5,42.6406 A3.75,3.75 0 0 1 1400,45.1406 L1407,64.2813 L2160.5,64.2813 A2.5,2.5 0 0 1 2163,66.7813 L2163,377.1406 A2.5,2.5 0 0 1 2160.5,379.6406 L1242.5,379.6406 A2.5,2.5 0 0 1 1240,377.1406 L1240,45.1406 A2.5,2.5 0 0 1 1242.5,42.6406 " fill="#99B3FF" style="stroke:#000000;stroke-width:1.5;"/><line style="stroke:#000000;stroke-width:1.5;" x1="1240" x2="1407" y1="64.2813" y2="64.2813"/><text fill="#000000" font-family="sans-serif" font-size="14" font-weight="bold" lengthAdjust="spacing" textLength="154" x="1244" y="57.3145">&lt;&lt;aggregate&gt;&gt; Profile</text></g><!--MD5=[8d8f4990f25fae9bc47748f0bf424d50]
cluster <<aggregate>> Student Registration--><g id="cluster_&lt;&lt;aggregate&gt;&gt; Student Registration"><path d="M1242.5,548.6406 L1496.5,548.6406 A3.75,3.75 0 0 1 1499,551.1406 L1506,570.2813 L1506.5,570.2813 A2.5,2.5 0 0 1 1509,572.7813 L1509,783.1406 A2.5,2.5 0 0 1 1506.5,785.6406 L1242.5,785.6406 A2.5,2.5 0 0 1 1240,783.1406 L1240,551.1406 A2.5,2.5 0 0 1 1242.5,548.6406 " fill="#DDAAAA" style="stroke:#000000;stroke-width:1.5;"/><line style="stroke:#000000;stroke-width:1.5;" x1="1240" x2="1506" y1="570.2813" y2="570.2813"/><text fill="#000000" font-family="sans-serif" font-size="14" font-weight="bold" lengthAdjust="spacing" textLength="253" x="1244" y="563.3145">&lt;&lt;aggregate&gt;&gt; Student Registration</text></g><!--MD5=[58b45488df0a3248650bf631dc2ea132]
cluster <<aggregate>> Course--><g id="cluster_&lt;&lt;aggregate&gt;&gt; Course"><path d="M8.5,548.6406 L168.5,548.6406 A3.75,3.75 0 0 1 171,551.1406 L178,570.2813 L759.5,570.2813 A2.5,2.5 0 0 1 762,572.7813 L762,783.1406 A2.5,2.5 0 0 1 759.5,785.6406 L8.5,785.6406 A2.5,2.5 0 0 1 6,783.1406 L6,551.1406 A2.5,2.5 0 0 1 8.5,548.6406 " fill="#AABBBB" style="stroke:#000000;stroke-width:1.5;"/><line style="stroke:#000000;stroke-width:1.5;" x1="6" x2="178" y1="570.2813" y2="570.2813"/><text fill="#000000" font-family="sans-serif" font-size="14" font-weight="bold" lengthAdjust="spacing" textLength="159" x="10" y="563.3145">&lt;&lt;aggregate&gt;&gt; Course</text></g><!--MD5=[3fd616f346a44cd59a91eb10b19e157c]
class User--><g id="elem_User"><rect codeLine="13" fill="#F1F1F1" height="91.7344" id="User" rx="2.5" ry="2.5" style="stroke:#181818;stroke-width:0.5;" width="121" x="980.5" y="423.6406"/><ellipse cx="1018" cy="449.8672" fill="#ADD1B2" rx="11" ry="11" style="stroke:#181818;stroke-width:1.0;"/><path d="M1016.8594,450.6641 L1016.8594,453.1641 L1021.1875,453.1641 L1021.1875,452.2422 Q1021.1875,451.6328 1021.4219,451.3672 Q1021.6719,451.1016 1022.0469,451.1016 Q1022.4219,451.1016 1022.6563,451.3672 Q1022.8906,451.6328 1022.8906,452.2422 L1022.8906,454.8672 L1014.8906,454.8672 Q1014.2656,454.8672 1014,454.6328 Q1013.75,454.3984 1013.75,454.0078 Q1013.75,453.6328 1014.0156,453.3984 Q1014.2813,453.1641 1014.8906,453.1641 L1015.1563,453.1641 L1015.1563,446.5078 L1014.8906,446.5078 Q1014.2656,446.5078 1014,446.2734 Q1013.75,446.0391 1013.75,445.6484 Q1013.75,445.2734 1014,445.0391 Q1014.2656,444.8047 1014.8906,444.8047 L1022.5156,444.8047 L1022.5156,447.3984 Q1022.5156,448.0078 1022.2813,448.2734 Q1022.0625,448.5234 1021.6719,448.5234 Q1021.2969,448.5234 1021.0625,448.2734 Q1020.8281,448.0078 1020.8281,447.3984 L1020.8281,446.5078 L1016.8594,446.5078 L1016.8594,448.9609 L1018.3438,448.9609 Q1018.3438,448.3047 1018.4688,448.1172 Q1018.7344,447.7109 1019.2031,447.7109 Q1019.5781,447.7109 1019.8125,447.9766 Q1020.0469,448.2266 1020.0469,448.8359 L1020.0469,450.8047 Q1020.0469,451.3516 1019.9219,451.5391 Q1019.6563,451.9297 1019.2031,451.9297 Q1018.7344,451.9297 1018.4688,451.5234 Q1018.3438,451.3359 1018.3438,450.6641 L1016.8594,450.6641 Z " fill="#000000"/><text fill="#000000" font-family="sans-serif" font-size="12" font-style="italic" lengthAdjust="spacing" textLength="35" x="1039" y="439.5039">«root»</text><text fill="#000000" font-family="sans-serif" font-size="12" font-style="italic" lengthAdjust="spacing" textLength="43" x="1035" y="452.9102">«entity»</text><text fill="#000000" font-family="sans-serif" font-size="14" lengthAdjust="spacing" textLength="29" x="1042" y="468.127">User</text><line style="stroke:#181818;stroke-width:0.5;" x1="981.5" x2="1100.5" y1="476.0938" y2="476.0938"/><text fill="#000000" font-family="sans-serif" font-size="14" lengthAdjust="spacing" textLength="95" x="986.5" y="492.7676">String fullName</text><text fill="#000000" font-family="sans-serif" font-size="14" lengthAdjust="spacing" textLength="109" x="986.5" y="508.4082">String shortName</text></g><!--MD5=[a3638c1e5b65d287ecad7f06f5c0f212]
class Role--><g id="elem_Role"><rect codeLine="18" fill="#F1F1F1" height="47.0469" id="Role" rx="2.5" ry="2.5" style="stroke:#181818;stroke-width:0.5;" width="109" x="802.5" y="589.1406"/><ellipse cx="817.5" cy="608.6641" fill="#B8255F" rx="11" ry="11" style="stroke:#181818;stroke-width:1.0;"/><path d="M818.0938,611.9297 L820.5625,606.0547 L820.1719,606.0547 Q819.5625,606.0547 819.2969,605.8203 Q819.0313,605.5859 819.0313,605.1953 Q819.0313,604.8203 819.2969,604.5859 Q819.5625,604.3516 820.1719,604.3516 L822.4531,604.3516 Q823.0625,604.3516 823.3281,604.5859 Q823.5938,604.8203 823.5938,605.1953 Q823.5938,605.6641 823.1875,605.9297 Q823,606.0547 822.4063,606.0547 L818.9219,614.4141 L817.2813,614.4141 L813.7969,606.0547 Q813.2031,606.0547 813.0156,605.9297 Q812.6094,605.6641 812.6094,605.1953 Q812.6094,604.8203 812.875,604.5859 Q813.1406,604.3516 813.75,604.3516 L816.0469,604.3516 Q816.6563,604.3516 816.9063,604.5859 Q817.1719,604.8203 817.1719,605.1953 Q817.1719,605.5859 816.9063,605.8203 Q816.6563,606.0547 816.0469,606.0547 L815.6406,606.0547 L818.0938,611.9297 Z " fill="#000000"/><text fill="#000000" font-family="sans-serif" font-size="12" font-style="italic" lengthAdjust="spacing" textLength="81" x="829.5" y="605.0039">«value object»</text><text fill="#000000" font-family="sans-serif" font-size="14" lengthAdjust="spacing" textLength="29" x="855.5" y="620.2207">Role</text><line style="stroke:#181818;stroke-width:0.5;" x1="803.5" x2="910.5" y1="628.1875" y2="628.1875"/></g><!--MD5=[2f01b1126ff33a0669651ec2488a5ef9]
class Password--><g id="elem_Password"><rect codeLine="19" fill="#F1F1F1" height="47.0469" id="Password" rx="2.5" ry="2.5" style="stroke:#181818;stroke-width:0.5;" width="109" x="946.5" y="589.1406"/><ellipse cx="961.5" cy="608.6641" fill="#B8255F" rx="11" ry="11" style="stroke:#181818;stroke-width:1.0;"/><path d="M962.0938,611.9297 L964.5625,606.0547 L964.1719,606.0547 Q963.5625,606.0547 963.2969,605.8203 Q963.0313,605.5859 963.0313,605.1953 Q963.0313,604.8203 963.2969,604.5859 Q963.5625,604.3516 964.1719,604.3516 L966.4531,604.3516 Q967.0625,604.3516 967.3281,604.5859 Q967.5938,604.8203 967.5938,605.1953 Q967.5938,605.6641 967.1875,605.9297 Q967,606.0547 966.4063,606.0547 L962.9219,614.4141 L961.2813,614.4141 L957.7969,606.0547 Q957.2031,606.0547 957.0156,605.9297 Q956.6094,605.6641 956.6094,605.1953 Q956.6094,604.8203 956.875,604.5859 Q957.1406,604.3516 957.75,604.3516 L960.0469,604.3516 Q960.6563,604.3516 960.9063,604.5859 Q961.1719,604.8203 961.1719,605.1953 Q961.1719,605.5859 960.9063,605.8203 Q960.6563,606.0547 960.0469,606.0547 L959.6406,606.0547 L962.0938,611.9297 Z " fill="#000000"/><text fill="#000000" font-family="sans-serif" font-size="12" font-style="italic" lengthAdjust="spacing" textLength="81" x="973.5" y="605.0039">«value object»</text><text fill="#000000" font-family="sans-serif" font-size="14" lengthAdjust="spacing" textLength="61" x="983.5" y="620.2207">Password</text><line style="stroke:#181818;stroke-width:0.5;" x1="947.5" x2="1054.5" y1="628.1875" y2="628.1875"/></g><!--MD5=[78bec0fde86ad92ec1dc3fb343b83709]
class Email--><g id="elem_Email"><rect codeLine="20" fill="#F1F1F1" height="73.8594" id="Email" rx="2.5" ry="2.5" style="stroke:#181818;stroke-width:0.5;" width="109" x="1090.5" y="575.6406"/><ellipse cx="1105.5" cy="608.5703" fill="#B8255F" rx="11" ry="11" style="stroke:#181818;stroke-width:1.0;"/><path d="M1106.0938,611.8359 L1108.5625,605.9609 L1108.1719,605.9609 Q1107.5625,605.9609 1107.2969,605.7266 Q1107.0313,605.4922 1107.0313,605.1016 Q1107.0313,604.7266 1107.2969,604.4922 Q1107.5625,604.2578 1108.1719,604.2578 L1110.4531,604.2578 Q1111.0625,604.2578 1111.3281,604.4922 Q1111.5938,604.7266 1111.5938,605.1016 Q1111.5938,605.5703 1111.1875,605.8359 Q1111,605.9609 1110.4063,605.9609 L1106.9219,614.3203 L1105.2813,614.3203 L1101.7969,605.9609 Q1101.2031,605.9609 1101.0156,605.8359 Q1100.6094,605.5703 1100.6094,605.1016 Q1100.6094,604.7266 1100.875,604.4922 Q1101.1406,604.2578 1101.75,604.2578 L1104.0469,604.2578 Q1104.6563,604.2578 1104.9063,604.4922 Q1105.1719,604.7266 1105.1719,605.1016 Q1105.1719,605.4922 1104.9063,605.7266 Q1104.6563,605.9609 1104.0469,605.9609 L1103.6406,605.9609 L1106.0938,611.8359 Z " fill="#000000"/><text fill="#000000" font-family="sans-serif" font-size="12" font-style="italic" lengthAdjust="spacing" textLength="25" x="1145.5" y="591.5039">«Id»</text><text fill="#000000" font-family="sans-serif" font-size="12" font-style="italic" lengthAdjust="spacing" textLength="52" x="1132" y="604.9102">«unique»</text><text fill="#000000" font-family="sans-serif" font-size="12" font-style="italic" lengthAdjust="spacing" textLength="81" x="1117.5" y="618.3164">«value object»</text><text fill="#000000" font-family="sans-serif" font-size="14" lengthAdjust="spacing" textLength="34" x="1141" y="633.5332">Email</text><line style="stroke:#181818;stroke-width:0.5;" x1="1091.5" x2="1198.5" y1="641.5" y2="641.5"/></g><!--MD5=[d6181cb537bdc20c0a3007a98a56832d]
class Student--><g id="elem_Student"><rect codeLine="21" fill="#F1F1F1" height="47.0469" id="Student" rx="2.5" ry="2.5" style="stroke:#181818;stroke-width:0.5;" width="81" x="1118.5" y="310.1406"/><ellipse cx="1133.5" cy="329.6641" fill="#ADD1B2" rx="11" ry="11" style="stroke:#181818;stroke-width:1.0;"/><path d="M1132.3594,330.4609 L1132.3594,332.9609 L1136.6875,332.9609 L1136.6875,332.0391 Q1136.6875,331.4297 1136.9219,331.1641 Q1137.1719,330.8984 1137.5469,330.8984 Q1137.9219,330.8984 1138.1563,331.1641 Q1138.3906,331.4297 1138.3906,332.0391 L1138.3906,334.6641 L1130.3906,334.6641 Q1129.7656,334.6641 1129.5,334.4297 Q1129.25,334.1953 1129.25,333.8047 Q1129.25,333.4297 1129.5156,333.1953 Q1129.7813,332.9609 1130.3906,332.9609 L1130.6563,332.9609 L1130.6563,326.3047 L1130.3906,326.3047 Q1129.7656,326.3047 1129.5,326.0703 Q1129.25,325.8359 1129.25,325.4453 Q1129.25,325.0703 1129.5,324.8359 Q1129.7656,324.6016 1130.3906,324.6016 L1138.0156,324.6016 L1138.0156,327.1953 Q1138.0156,327.8047 1137.7813,328.0703 Q1137.5625,328.3203 1137.1719,328.3203 Q1136.7969,328.3203 1136.5625,328.0703 Q1136.3281,327.8047 1136.3281,327.1953 L1136.3281,326.3047 L1132.3594,326.3047 L1132.3594,328.7578 L1133.8438,328.7578 Q1133.8438,328.1016 1133.9688,327.9141 Q1134.2344,327.5078 1134.7031,327.5078 Q1135.0781,327.5078 1135.3125,327.7734 Q1135.5469,328.0234 1135.5469,328.6328 L1135.5469,330.6016 Q1135.5469,331.1484 1135.4219,331.3359 Q1135.1563,331.7266 1134.7031,331.7266 Q1134.2344,331.7266 1133.9688,331.3203 Q1133.8438,331.1328 1133.8438,330.4609 L1132.3594,330.4609 Z " fill="#000000"/><text fill="#000000" font-family="sans-serif" font-size="12" font-style="italic" lengthAdjust="spacing" textLength="43" x="1150.5" y="326.0039">«entity»</text><text fill="#000000" font-family="sans-serif" font-size="14" lengthAdjust="spacing" textLength="49" x="1147.5" y="341.2207">Student</text><line style="stroke:#181818;stroke-width:0.5;" x1="1119.5" x2="1198.5" y1="349.1875" y2="349.1875"/></g><!--MD5=[61a83f88cb8b7d3a80bc8c481f3736bf]
class Teacher--><g id="elem_Teacher"><rect codeLine="22" fill="#F1F1F1" height="47.0469" id="Teacher" rx="2.5" ry="2.5" style="stroke:#181818;stroke-width:0.5;" width="85" x="998.5" y="310.1406"/><ellipse cx="1013.5" cy="329.6641" fill="#ADD1B2" rx="11" ry="11" style="stroke:#181818;stroke-width:1.0;"/><path d="M1012.3594,330.4609 L1012.3594,332.9609 L1016.6875,332.9609 L1016.6875,332.0391 Q1016.6875,331.4297 1016.9219,331.1641 Q1017.1719,330.8984 1017.5469,330.8984 Q1017.9219,330.8984 1018.1563,331.1641 Q1018.3906,331.4297 1018.3906,332.0391 L1018.3906,334.6641 L1010.3906,334.6641 Q1009.7656,334.6641 1009.5,334.4297 Q1009.25,334.1953 1009.25,333.8047 Q1009.25,333.4297 1009.5156,333.1953 Q1009.7813,332.9609 1010.3906,332.9609 L1010.6563,332.9609 L1010.6563,326.3047 L1010.3906,326.3047 Q1009.7656,326.3047 1009.5,326.0703 Q1009.25,325.8359 1009.25,325.4453 Q1009.25,325.0703 1009.5,324.8359 Q1009.7656,324.6016 1010.3906,324.6016 L1018.0156,324.6016 L1018.0156,327.1953 Q1018.0156,327.8047 1017.7813,328.0703 Q1017.5625,328.3203 1017.1719,328.3203 Q1016.7969,328.3203 1016.5625,328.0703 Q1016.3281,327.8047 1016.3281,327.1953 L1016.3281,326.3047 L1012.3594,326.3047 L1012.3594,328.7578 L1013.8438,328.7578 Q1013.8438,328.1016 1013.9688,327.9141 Q1014.2344,327.5078 1014.7031,327.5078 Q1015.0781,327.5078 1015.3125,327.7734 Q1015.5469,328.0234 1015.5469,328.6328 L1015.5469,330.6016 Q1015.5469,331.1484 1015.4219,331.3359 Q1015.1563,331.7266 1014.7031,331.7266 Q1014.2344,331.7266 1013.9688,331.3203 Q1013.8438,331.1328 1013.8438,330.4609 L1012.3594,330.4609 Z " fill="#000000"/><text fill="#000000" font-family="sans-serif" font-size="12" font-style="italic" lengthAdjust="spacing" textLength="43" x="1032.5" y="326.0039">«entity»</text><text fill="#000000" font-family="sans-serif" font-size="14" lengthAdjust="spacing" textLength="53" x="1027.5" y="341.2207">Teacher</text><line style="stroke:#181818;stroke-width:0.5;" x1="999.5" x2="1082.5" y1="349.1875" y2="349.1875"/></g><!--MD5=[b24ed8d4ae84bae9290d9aab401637c7]
class Manager--><g id="elem_Manager"><rect codeLine="23" fill="#F1F1F1" height="47.0469" id="Manager" rx="2.5" ry="2.5" style="stroke:#181818;stroke-width:0.5;" width="88" x="875" y="310.1406"/><ellipse cx="890" cy="329.6641" fill="#ADD1B2" rx="11" ry="11" style="stroke:#181818;stroke-width:1.0;"/><path d="M888.8594,330.4609 L888.8594,332.9609 L893.1875,332.9609 L893.1875,332.0391 Q893.1875,331.4297 893.4219,331.1641 Q893.6719,330.8984 894.0469,330.8984 Q894.4219,330.8984 894.6563,331.1641 Q894.8906,331.4297 894.8906,332.0391 L894.8906,334.6641 L886.8906,334.6641 Q886.2656,334.6641 886,334.4297 Q885.75,334.1953 885.75,333.8047 Q885.75,333.4297 886.0156,333.1953 Q886.2813,332.9609 886.8906,332.9609 L887.1563,332.9609 L887.1563,326.3047 L886.8906,326.3047 Q886.2656,326.3047 886,326.0703 Q885.75,325.8359 885.75,325.4453 Q885.75,325.0703 886,324.8359 Q886.2656,324.6016 886.8906,324.6016 L894.5156,324.6016 L894.5156,327.1953 Q894.5156,327.8047 894.2813,328.0703 Q894.0625,328.3203 893.6719,328.3203 Q893.2969,328.3203 893.0625,328.0703 Q892.8281,327.8047 892.8281,327.1953 L892.8281,326.3047 L888.8594,326.3047 L888.8594,328.7578 L890.3438,328.7578 Q890.3438,328.1016 890.4688,327.9141 Q890.7344,327.5078 891.2031,327.5078 Q891.5781,327.5078 891.8125,327.7734 Q892.0469,328.0234 892.0469,328.6328 L892.0469,330.6016 Q892.0469,331.1484 891.9219,331.3359 Q891.6563,331.7266 891.2031,331.7266 Q890.7344,331.7266 890.4688,331.3203 Q890.3438,331.1328 890.3438,330.4609 L888.8594,330.4609 Z " fill="#000000"/><text fill="#000000" font-family="sans-serif" font-size="12" font-style="italic" lengthAdjust="spacing" textLength="43" x="910.5" y="326.0039">«entity»</text><text fill="#000000" font-family="sans-serif" font-size="14" lengthAdjust="spacing" textLength="56" x="904" y="341.2207">Manager</text><line style="stroke:#181818;stroke-width:0.5;" x1="876" x2="962" y1="349.1875" y2="349.1875"/></g><!--MD5=[7b57f7066b803747d2119f99dd1555d4]
class Profile--><g id="elem_Profile"><rect codeLine="35" fill="#F1F1F1" height="60.4531" id="Profile" rx="2.5" ry="2.5" style="stroke:#181818;stroke-width:0.5;" width="72" x="1567" y="303.6406"/><ellipse cx="1582" cy="329.8672" fill="#ADD1B2" rx="11" ry="11" style="stroke:#181818;stroke-width:1.0;"/><path d="M1580.8594,330.6641 L1580.8594,333.1641 L1585.1875,333.1641 L1585.1875,332.2422 Q1585.1875,331.6328 1585.4219,331.3672 Q1585.6719,331.1016 1586.0469,331.1016 Q1586.4219,331.1016 1586.6563,331.3672 Q1586.8906,331.6328 1586.8906,332.2422 L1586.8906,334.8672 L1578.8906,334.8672 Q1578.2656,334.8672 1578,334.6328 Q1577.75,334.3984 1577.75,334.0078 Q1577.75,333.6328 1578.0156,333.3984 Q1578.2813,333.1641 1578.8906,333.1641 L1579.1563,333.1641 L1579.1563,326.5078 L1578.8906,326.5078 Q1578.2656,326.5078 1578,326.2734 Q1577.75,326.0391 1577.75,325.6484 Q1577.75,325.2734 1578,325.0391 Q1578.2656,324.8047 1578.8906,324.8047 L1586.5156,324.8047 L1586.5156,327.3984 Q1586.5156,328.0078 1586.2813,328.2734 Q1586.0625,328.5234 1585.6719,328.5234 Q1585.2969,328.5234 1585.0625,328.2734 Q1584.8281,328.0078 1584.8281,327.3984 L1584.8281,326.5078 L1580.8594,326.5078 L1580.8594,328.9609 L1582.3438,328.9609 Q1582.3438,328.3047 1582.4688,328.1172 Q1582.7344,327.7109 1583.2031,327.7109 Q1583.5781,327.7109 1583.8125,327.9766 Q1584.0469,328.2266 1584.0469,328.8359 L1584.0469,330.8047 Q1584.0469,331.3516 1583.9219,331.5391 Q1583.6563,331.9297 1583.2031,331.9297 Q1582.7344,331.9297 1582.4688,331.5234 Q1582.3438,331.3359 1582.3438,330.6641 L1580.8594,330.6641 Z " fill="#000000"/><text fill="#000000" font-family="sans-serif" font-size="12" font-style="italic" lengthAdjust="spacing" textLength="35" x="1598.5" y="319.5039">«root»</text><text fill="#000000" font-family="sans-serif" font-size="12" font-style="italic" lengthAdjust="spacing" textLength="43" x="1594.5" y="332.9102">«entity»</text><text fill="#000000" font-family="sans-serif" font-size="14" lengthAdjust="spacing" textLength="40" x="1596" y="348.127">Profile</text><line style="stroke:#181818;stroke-width:0.5;" x1="1568" x2="1638" y1="356.0938" y2="356.0938"/></g><!--MD5=[e8e4e5930fae63cd70e278d3ab742cd3]
class TeacherProfile--><g id="elem_TeacherProfile"><rect codeLine="37" fill="#F1F1F1" height="47.0469" id="TeacherProfile" rx="2.5" ry="2.5" style="stroke:#181818;stroke-width:0.5;" width="125" x="1382.5" y="190.1406"/><ellipse cx="1397.5" cy="209.6641" fill="#ADD1B2" rx="11" ry="11" style="stroke:#181818;stroke-width:1.0;"/><path d="M1400.2656,205.5391 Q1400.4219,205.3203 1400.6094,205.2109 Q1400.7969,205.1016 1401.0156,205.1016 Q1401.3906,205.1016 1401.625,205.3672 Q1401.8594,205.6172 1401.8594,206.2266 L1401.8594,207.6797 Q1401.8594,208.2891 1401.625,208.5547 Q1401.3906,208.8203 1401.0156,208.8203 Q1400.6719,208.8203 1400.4688,208.6172 Q1400.2656,208.4297 1400.1563,207.9141 Q1400.1094,207.5547 1399.9219,207.3672 Q1399.5938,206.9922 1398.9844,206.7734 Q1398.375,206.5547 1397.75,206.5547 Q1396.9844,206.5547 1396.3438,206.8828 Q1395.7188,207.2109 1395.2188,207.9609 Q1394.7344,208.7109 1394.7344,209.7422 L1394.7344,210.8359 Q1394.7344,212.0703 1395.625,212.8984 Q1396.5156,213.7109 1398.1094,213.7109 Q1399.0469,213.7109 1399.7031,213.4609 Q1400.0938,213.3047 1400.5156,212.8672 Q1400.7813,212.6016 1400.9219,212.5234 Q1401.0781,212.4453 1401.2813,212.4453 Q1401.6094,212.4453 1401.8594,212.7109 Q1402.125,212.9609 1402.125,213.3047 Q1402.125,213.6484 1401.7813,214.0547 Q1401.2813,214.6328 1400.4844,214.9609 Q1399.4063,215.4141 1398.1094,215.4141 Q1396.5938,215.4141 1395.3906,214.7891 Q1394.4063,214.2891 1393.7188,213.2266 Q1393.0313,212.1484 1393.0313,210.8672 L1393.0313,209.7109 Q1393.0313,208.3828 1393.6406,207.2422 Q1394.2656,206.0859 1395.3594,205.4766 Q1396.4531,204.8516 1397.6875,204.8516 Q1398.4219,204.8516 1399.0625,205.0234 Q1399.7188,205.1797 1400.2656,205.5391 Z " fill="#000000"/><text fill="#000000" font-family="sans-serif" font-size="12" font-style="italic" lengthAdjust="spacing" textLength="43" x="1436.5" y="206.0039">«entity»</text><text fill="#000000" font-family="sans-serif" font-size="14" lengthAdjust="spacing" textLength="93" x="1411.5" y="221.2207">TeacherProfile</text><line style="stroke:#181818;stroke-width:0.5;" x1="1383.5" x2="1506.5" y1="229.1875" y2="229.1875"/></g><!--MD5=[21a6163d0bed51676eae0f856b5f6ecb]
class StudentProfile--><g id="elem_StudentProfile"><rect codeLine="38" fill="#F1F1F1" height="47.0469" id="StudentProfile" rx="2.5" ry="2.5" style="stroke:#181818;stroke-width:0.5;" width="121" x="1542.5" y="190.1406"/><ellipse cx="1557.5" cy="209.6641" fill="#ADD1B2" rx="11" ry="11" style="stroke:#181818;stroke-width:1.0;"/><path d="M1560.2656,205.5391 Q1560.4219,205.3203 1560.6094,205.2109 Q1560.7969,205.1016 1561.0156,205.1016 Q1561.3906,205.1016 1561.625,205.3672 Q1561.8594,205.6172 1561.8594,206.2266 L1561.8594,207.6797 Q1561.8594,208.2891 1561.625,208.5547 Q1561.3906,208.8203 1561.0156,208.8203 Q1560.6719,208.8203 1560.4688,208.6172 Q1560.2656,208.4297 1560.1563,207.9141 Q1560.1094,207.5547 1559.9219,207.3672 Q1559.5938,206.9922 1558.9844,206.7734 Q1558.375,206.5547 1557.75,206.5547 Q1556.9844,206.5547 1556.3438,206.8828 Q1555.7188,207.2109 1555.2188,207.9609 Q1554.7344,208.7109 1554.7344,209.7422 L1554.7344,210.8359 Q1554.7344,212.0703 1555.625,212.8984 Q1556.5156,213.7109 1558.1094,213.7109 Q1559.0469,213.7109 1559.7031,213.4609 Q1560.0938,213.3047 1560.5156,212.8672 Q1560.7813,212.6016 1560.9219,212.5234 Q1561.0781,212.4453 1561.2813,212.4453 Q1561.6094,212.4453 1561.8594,212.7109 Q1562.125,212.9609 1562.125,213.3047 Q1562.125,213.6484 1561.7813,214.0547 Q1561.2813,214.6328 1560.4844,214.9609 Q1559.4063,215.4141 1558.1094,215.4141 Q1556.5938,215.4141 1555.3906,214.7891 Q1554.4063,214.2891 1553.7188,213.2266 Q1553.0313,212.1484 1553.0313,210.8672 L1553.0313,209.7109 Q1553.0313,208.3828 1553.6406,207.2422 Q1554.2656,206.0859 1555.3594,205.4766 Q1556.4531,204.8516 1557.6875,204.8516 Q1558.4219,204.8516 1559.0625,205.0234 Q1559.7188,205.1797 1560.2656,205.5391 Z " fill="#000000"/><text fill="#000000" font-family="sans-serif" font-size="12" font-style="italic" lengthAdjust="spacing" textLength="43" x="1594.5" y="206.0039">«entity»</text><text fill="#000000" font-family="sans-serif" font-size="14" lengthAdjust="spacing" textLength="89" x="1571.5" y="221.2207">StudentProfile</text><line style="stroke:#181818;stroke-width:0.5;" x1="1543.5" x2="1662.5" y1="229.1875" y2="229.1875"/></g><!--MD5=[684494e934d4ef2a2d5a02e84740ac0e]
class ManagerProfile--><g id="elem_ManagerProfile"><rect codeLine="39" fill="#F1F1F1" height="60.4531" id="ManagerProfile" rx="2.5" ry="2.5" style="stroke:#181818;stroke-width:0.5;" width="128" x="2019" y="183.6406"/><ellipse cx="2034" cy="209.8672" fill="#ADD1B2" rx="11" ry="11" style="stroke:#181818;stroke-width:1.0;"/><path d="M2036.7656,205.7422 Q2036.9219,205.5234 2037.1094,205.4141 Q2037.2969,205.3047 2037.5156,205.3047 Q2037.8906,205.3047 2038.125,205.5703 Q2038.3594,205.8203 2038.3594,206.4297 L2038.3594,207.8828 Q2038.3594,208.4922 2038.125,208.7578 Q2037.8906,209.0234 2037.5156,209.0234 Q2037.1719,209.0234 2036.9688,208.8203 Q2036.7656,208.6328 2036.6563,208.1172 Q2036.6094,207.7578 2036.4219,207.5703 Q2036.0938,207.1953 2035.4844,206.9766 Q2034.875,206.7578 2034.25,206.7578 Q2033.4844,206.7578 2032.8438,207.0859 Q2032.2188,207.4141 2031.7188,208.1641 Q2031.2344,208.9141 2031.2344,209.9453 L2031.2344,211.0391 Q2031.2344,212.2734 2032.125,213.1016 Q2033.0156,213.9141 2034.6094,213.9141 Q2035.5469,213.9141 2036.2031,213.6641 Q2036.5938,213.5078 2037.0156,213.0703 Q2037.2813,212.8047 2037.4219,212.7266 Q2037.5781,212.6484 2037.7813,212.6484 Q2038.1094,212.6484 2038.3594,212.9141 Q2038.625,213.1641 2038.625,213.5078 Q2038.625,213.8516 2038.2813,214.2578 Q2037.7813,214.8359 2036.9844,215.1641 Q2035.9063,215.6172 2034.6094,215.6172 Q2033.0938,215.6172 2031.8906,214.9922 Q2030.9063,214.4922 2030.2188,213.4297 Q2029.5313,212.3516 2029.5313,211.0703 L2029.5313,209.9141 Q2029.5313,208.5859 2030.1406,207.4453 Q2030.7656,206.2891 2031.8594,205.6797 Q2032.9531,205.0547 2034.1875,205.0547 Q2034.9219,205.0547 2035.5625,205.2266 Q2036.2188,205.3828 2036.7656,205.7422 Z " fill="#000000"/><text fill="#000000" font-family="sans-serif" font-size="12" font-style="italic" lengthAdjust="spacing" textLength="43" x="2074.5" y="199.5039">«entity»</text><text fill="#000000" font-family="sans-serif" font-size="12" font-style="italic" lengthAdjust="spacing" textLength="72" x="2060" y="212.9102">«NullObject»</text><text fill="#000000" font-family="sans-serif" font-size="14" lengthAdjust="spacing" textLength="96" x="2048" y="228.127">ManagerProfile</text><line style="stroke:#181818;stroke-width:0.5;" x1="2020" x2="2146" y1="236.0938" y2="236.0938"/></g><!--MD5=[d92d9e883939eee4186895798e1fdba2]
class TaxPayerNumber--><g id="elem_TaxPayerNumber"><rect codeLine="40" fill="#F1F1F1" height="47.0469" id="TaxPayerNumber" rx="2.5" ry="2.5" style="stroke:#181818;stroke-width:0.5;" width="141" x="1842.5" y="190.1406"/><ellipse cx="1857.5" cy="209.6641" fill="#B8255F" rx="11" ry="11" style="stroke:#181818;stroke-width:1.0;"/><path d="M1858.0938,212.9297 L1860.5625,207.0547 L1860.1719,207.0547 Q1859.5625,207.0547 1859.2969,206.8203 Q1859.0313,206.5859 1859.0313,206.1953 Q1859.0313,205.8203 1859.2969,205.5859 Q1859.5625,205.3516 1860.1719,205.3516 L1862.4531,205.3516 Q1863.0625,205.3516 1863.3281,205.5859 Q1863.5938,205.8203 1863.5938,206.1953 Q1863.5938,206.6641 1863.1875,206.9297 Q1863,207.0547 1862.4063,207.0547 L1858.9219,215.4141 L1857.2813,215.4141 L1853.7969,207.0547 Q1853.2031,207.0547 1853.0156,206.9297 Q1852.6094,206.6641 1852.6094,206.1953 Q1852.6094,205.8203 1852.875,205.5859 Q1853.1406,205.3516 1853.75,205.3516 L1856.0469,205.3516 Q1856.6563,205.3516 1856.9063,205.5859 Q1857.1719,205.8203 1857.1719,206.1953 Q1857.1719,206.5859 1856.9063,206.8203 Q1856.6563,207.0547 1856.0469,207.0547 L1855.6406,207.0547 L1858.0938,212.9297 Z " fill="#000000"/><text fill="#000000" font-family="sans-serif" font-size="12" font-style="italic" lengthAdjust="spacing" textLength="81" x="1885.5" y="206.0039">«value object»</text><text fill="#000000" font-family="sans-serif" font-size="14" lengthAdjust="spacing" textLength="109" x="1871.5" y="221.2207">TaxPayerNumber</text><line style="stroke:#181818;stroke-width:0.5;" x1="1843.5" x2="1982.5" y1="229.1875" y2="229.1875"/></g><!--MD5=[3adb951617f02218a93676affdecd4f3]
class DateOfBirth--><g id="elem_DateOfBirth"><rect codeLine="41" fill="#F1F1F1" height="47.0469" id="DateOfBirth" rx="2.5" ry="2.5" style="stroke:#181818;stroke-width:0.5;" width="109" x="1698.5" y="190.1406"/><ellipse cx="1713.5" cy="209.6641" fill="#B8255F" rx="11" ry="11" style="stroke:#181818;stroke-width:1.0;"/><path d="M1714.0938,212.9297 L1716.5625,207.0547 L1716.1719,207.0547 Q1715.5625,207.0547 1715.2969,206.8203 Q1715.0313,206.5859 1715.0313,206.1953 Q1715.0313,205.8203 1715.2969,205.5859 Q1715.5625,205.3516 1716.1719,205.3516 L1718.4531,205.3516 Q1719.0625,205.3516 1719.3281,205.5859 Q1719.5938,205.8203 1719.5938,206.1953 Q1719.5938,206.6641 1719.1875,206.9297 Q1719,207.0547 1718.4063,207.0547 L1714.9219,215.4141 L1713.2813,215.4141 L1709.7969,207.0547 Q1709.2031,207.0547 1709.0156,206.9297 Q1708.6094,206.6641 1708.6094,206.1953 Q1708.6094,205.8203 1708.875,205.5859 Q1709.1406,205.3516 1709.75,205.3516 L1712.0469,205.3516 Q1712.6563,205.3516 1712.9063,205.5859 Q1713.1719,205.8203 1713.1719,206.1953 Q1713.1719,206.5859 1712.9063,206.8203 Q1712.6563,207.0547 1712.0469,207.0547 L1711.6406,207.0547 L1714.0938,212.9297 Z " fill="#000000"/><text fill="#000000" font-family="sans-serif" font-size="12" font-style="italic" lengthAdjust="spacing" textLength="81" x="1725.5" y="206.0039">«value object»</text><text fill="#000000" font-family="sans-serif" font-size="14" lengthAdjust="spacing" textLength="74" x="1729" y="221.2207">DateOfBirth</text><line style="stroke:#181818;stroke-width:0.5;" x1="1699.5" x2="1806.5" y1="229.1875" y2="229.1875"/></g><!--MD5=[9de4f19eab90a199848c5893311179be]
class MechanographicNumber--><g id="elem_MechanographicNumber"><rect codeLine="42" fill="#F1F1F1" height="47.0469" id="MechanographicNumber" rx="2.5" ry="2.5" style="stroke:#181818;stroke-width:0.5;" width="186" x="1545" y="76.6406"/><ellipse cx="1560" cy="96.1641" fill="#B8255F" rx="11" ry="11" style="stroke:#181818;stroke-width:1.0;"/><path d="M1560.5938,99.4297 L1563.0625,93.5547 L1562.6719,93.5547 Q1562.0625,93.5547 1561.7969,93.3203 Q1561.5313,93.0859 1561.5313,92.6953 Q1561.5313,92.3203 1561.7969,92.0859 Q1562.0625,91.8516 1562.6719,91.8516 L1564.9531,91.8516 Q1565.5625,91.8516 1565.8281,92.0859 Q1566.0938,92.3203 1566.0938,92.6953 Q1566.0938,93.1641 1565.6875,93.4297 Q1565.5,93.5547 1564.9063,93.5547 L1561.4219,101.9141 L1559.7813,101.9141 L1556.2969,93.5547 Q1555.7031,93.5547 1555.5156,93.4297 Q1555.1094,93.1641 1555.1094,92.6953 Q1555.1094,92.3203 1555.375,92.0859 Q1555.6406,91.8516 1556.25,91.8516 L1558.5469,91.8516 Q1559.1563,91.8516 1559.4063,92.0859 Q1559.6719,92.3203 1559.6719,92.6953 Q1559.6719,93.0859 1559.4063,93.3203 Q1559.1563,93.5547 1558.5469,93.5547 L1558.1406,93.5547 L1560.5938,99.4297 Z " fill="#000000"/><text fill="#000000" font-family="sans-serif" font-size="12" font-style="italic" lengthAdjust="spacing" textLength="81" x="1610.5" y="92.5039">«value object»</text><text fill="#000000" font-family="sans-serif" font-size="14" lengthAdjust="spacing" textLength="154" x="1574" y="107.7207">MechanographicNumber</text><line style="stroke:#181818;stroke-width:0.5;" x1="1546" x2="1730" y1="115.6875" y2="115.6875"/></g><!--MD5=[739264bb8c13fd453fd6fc4eef2b32cc]
class Acronym--><g id="elem_Acronym"><rect codeLine="43" fill="#F1F1F1" height="47.0469" id="Acronym" rx="2.5" ry="2.5" style="stroke:#181818;stroke-width:0.5;" width="109" x="1400.5" y="76.6406"/><ellipse cx="1415.5" cy="96.1641" fill="#B8255F" rx="11" ry="11" style="stroke:#181818;stroke-width:1.0;"/><path d="M1416.0938,99.4297 L1418.5625,93.5547 L1418.1719,93.5547 Q1417.5625,93.5547 1417.2969,93.3203 Q1417.0313,93.0859 1417.0313,92.6953 Q1417.0313,92.3203 1417.2969,92.0859 Q1417.5625,91.8516 1418.1719,91.8516 L1420.4531,91.8516 Q1421.0625,91.8516 1421.3281,92.0859 Q1421.5938,92.3203 1421.5938,92.6953 Q1421.5938,93.1641 1421.1875,93.4297 Q1421,93.5547 1420.4063,93.5547 L1416.9219,101.9141 L1415.2813,101.9141 L1411.7969,93.5547 Q1411.2031,93.5547 1411.0156,93.4297 Q1410.6094,93.1641 1410.6094,92.6953 Q1410.6094,92.3203 1410.875,92.0859 Q1411.1406,91.8516 1411.75,91.8516 L1414.0469,91.8516 Q1414.6563,91.8516 1414.9063,92.0859 Q1415.1719,92.3203 1415.1719,92.6953 Q1415.1719,93.0859 1414.9063,93.3203 Q1414.6563,93.5547 1414.0469,93.5547 L1413.6406,93.5547 L1416.0938,99.4297 Z " fill="#000000"/><text fill="#000000" font-family="sans-serif" font-size="12" font-style="italic" lengthAdjust="spacing" textLength="81" x="1427.5" y="92.5039">«value object»</text><text fill="#000000" font-family="sans-serif" font-size="14" lengthAdjust="spacing" textLength="55" x="1440.5" y="107.7207">Acronym</text><line style="stroke:#181818;stroke-width:0.5;" x1="1401.5" x2="1508.5" y1="115.6875" y2="115.6875"/></g><!--MD5=[c680266cf9e454ca06c2d1bb8b683e6b]
class Schedule--><g id="elem_Schedule"><rect codeLine="44" fill="#F1F1F1" height="47.0469" id="Schedule" rx="2.5" ry="2.5" style="stroke:#181818;stroke-width:0.5;" width="91" x="1256.5" y="190.1406"/><ellipse cx="1271.5" cy="209.6641" fill="#ADD1B2" rx="11" ry="11" style="stroke:#181818;stroke-width:1.0;"/><path d="M1274.2656,205.5391 Q1274.4219,205.3203 1274.6094,205.2109 Q1274.7969,205.1016 1275.0156,205.1016 Q1275.3906,205.1016 1275.625,205.3672 Q1275.8594,205.6172 1275.8594,206.2266 L1275.8594,207.6797 Q1275.8594,208.2891 1275.625,208.5547 Q1275.3906,208.8203 1275.0156,208.8203 Q1274.6719,208.8203 1274.4688,208.6172 Q1274.2656,208.4297 1274.1563,207.9141 Q1274.1094,207.5547 1273.9219,207.3672 Q1273.5938,206.9922 1272.9844,206.7734 Q1272.375,206.5547 1271.75,206.5547 Q1270.9844,206.5547 1270.3438,206.8828 Q1269.7188,207.2109 1269.2188,207.9609 Q1268.7344,208.7109 1268.7344,209.7422 L1268.7344,210.8359 Q1268.7344,212.0703 1269.625,212.8984 Q1270.5156,213.7109 1272.1094,213.7109 Q1273.0469,213.7109 1273.7031,213.4609 Q1274.0938,213.3047 1274.5156,212.8672 Q1274.7813,212.6016 1274.9219,212.5234 Q1275.0781,212.4453 1275.2813,212.4453 Q1275.6094,212.4453 1275.8594,212.7109 Q1276.125,212.9609 1276.125,213.3047 Q1276.125,213.6484 1275.7813,214.0547 Q1275.2813,214.6328 1274.4844,214.9609 Q1273.4063,215.4141 1272.1094,215.4141 Q1270.5938,215.4141 1269.3906,214.7891 Q1268.4063,214.2891 1267.7188,213.2266 Q1267.0313,212.1484 1267.0313,210.8672 L1267.0313,209.7109 Q1267.0313,208.3828 1267.6406,207.2422 Q1268.2656,206.0859 1269.3594,205.4766 Q1270.4531,204.8516 1271.6875,204.8516 Q1272.4219,204.8516 1273.0625,205.0234 Q1273.7188,205.1797 1274.2656,205.5391 Z " fill="#000000"/><text fill="#000000" font-family="sans-serif" font-size="12" font-style="italic" lengthAdjust="spacing" textLength="43" x="1293.5" y="206.0039">«entity»</text><text fill="#000000" font-family="sans-serif" font-size="14" lengthAdjust="spacing" textLength="59" x="1285.5" y="221.2207">Schedule</text><line style="stroke:#181818;stroke-width:0.5;" x1="1257.5" x2="1346.5" y1="229.1875" y2="229.1875"/></g><!--MD5=[abe91ce615374b501721fa99f1a2b204]
class ProfileDay--><g id="elem_ProfileDay"><rect codeLine="45" fill="#F1F1F1" height="47.0469" id="ProfileDay" rx="2.5" ry="2.5" style="stroke:#181818;stroke-width:0.5;" width="109" x="1256.5" y="76.6406"/><ellipse cx="1271.5" cy="96.1641" fill="#B8255F" rx="11" ry="11" style="stroke:#181818;stroke-width:1.0;"/><path d="M1272.0938,99.4297 L1274.5625,93.5547 L1274.1719,93.5547 Q1273.5625,93.5547 1273.2969,93.3203 Q1273.0313,93.0859 1273.0313,92.6953 Q1273.0313,92.3203 1273.2969,92.0859 Q1273.5625,91.8516 1274.1719,91.8516 L1276.4531,91.8516 Q1277.0625,91.8516 1277.3281,92.0859 Q1277.5938,92.3203 1277.5938,92.6953 Q1277.5938,93.1641 1277.1875,93.4297 Q1277,93.5547 1276.4063,93.5547 L1272.9219,101.9141 L1271.2813,101.9141 L1267.7969,93.5547 Q1267.2031,93.5547 1267.0156,93.4297 Q1266.6094,93.1641 1266.6094,92.6953 Q1266.6094,92.3203 1266.875,92.0859 Q1267.1406,91.8516 1267.75,91.8516 L1270.0469,91.8516 Q1270.6563,91.8516 1270.9063,92.0859 Q1271.1719,92.3203 1271.1719,92.6953 Q1271.1719,93.0859 1270.9063,93.3203 Q1270.6563,93.5547 1270.0469,93.5547 L1269.6406,93.5547 L1272.0938,99.4297 Z " fill="#000000"/><text fill="#000000" font-family="sans-serif" font-size="12" font-style="italic" lengthAdjust="spacing" textLength="81" x="1283.5" y="92.5039">«value object»</text><text fill="#000000" font-family="sans-serif" font-size="14" lengthAdjust="spacing" textLength="25" x="1311.5" y="107.7207">Day</text><line style="stroke:#181818;stroke-width:0.5;" x1="1257.5" x2="1364.5" y1="115.6875" y2="115.6875"/></g><!--MD5=[f0af975bcef78e7775ee4ad5904d052d]
class StudentRegistration--><g id="elem_StudentRegistration"><rect codeLine="61" fill="#F1F1F1" height="60.4531" id="StudentRegistration" rx="2.5" ry="2.5" style="stroke:#181818;stroke-width:0.5;" width="157" x="1256.5" y="582.6406"/><ellipse cx="1271.5" cy="608.8672" fill="#ADD1B2" rx="11" ry="11" style="stroke:#181818;stroke-width:1.0;"/><path d="M1270.3594,609.6641 L1270.3594,612.1641 L1274.6875,612.1641 L1274.6875,611.2422 Q1274.6875,610.6328 1274.9219,610.3672 Q1275.1719,610.1016 1275.5469,610.1016 Q1275.9219,610.1016 1276.1563,610.3672 Q1276.3906,610.6328 1276.3906,611.2422 L1276.3906,613.8672 L1268.3906,613.8672 Q1267.7656,613.8672 1267.5,613.6328 Q1267.25,613.3984 1267.25,613.0078 Q1267.25,612.6328 1267.5156,612.3984 Q1267.7813,612.1641 1268.3906,612.1641 L1268.6563,612.1641 L1268.6563,605.5078 L1268.3906,605.5078 Q1267.7656,605.5078 1267.5,605.2734 Q1267.25,605.0391 1267.25,604.6484 Q1267.25,604.2734 1267.5,604.0391 Q1267.7656,603.8047 1268.3906,603.8047 L1276.0156,603.8047 L1276.0156,606.3984 Q1276.0156,607.0078 1275.7813,607.2734 Q1275.5625,607.5234 1275.1719,607.5234 Q1274.7969,607.5234 1274.5625,607.2734 Q1274.3281,607.0078 1274.3281,606.3984 L1274.3281,605.5078 L1270.3594,605.5078 L1270.3594,607.9609 L1271.8438,607.9609 Q1271.8438,607.3047 1271.9688,607.1172 Q1272.2344,606.7109 1272.7031,606.7109 Q1273.0781,606.7109 1273.3125,606.9766 Q1273.5469,607.2266 1273.5469,607.8359 L1273.5469,609.8047 Q1273.5469,610.3516 1273.4219,610.5391 Q1273.1563,610.9297 1272.7031,610.9297 Q1272.2344,610.9297 1271.9688,610.5234 Q1271.8438,610.3359 1271.8438,609.6641 L1270.3594,609.6641 Z " fill="#000000"/><text fill="#000000" font-family="sans-serif" font-size="12" font-style="italic" lengthAdjust="spacing" textLength="35" x="1330.5" y="598.5039">«root»</text><text fill="#000000" font-family="sans-serif" font-size="12" font-style="italic" lengthAdjust="spacing" textLength="43" x="1326.5" y="611.9102">«entity»</text><text fill="#000000" font-family="sans-serif" font-size="14" lengthAdjust="spacing" textLength="125" x="1285.5" y="627.127">StudentRegistration</text><line style="stroke:#181818;stroke-width:0.5;" x1="1257.5" x2="1412.5" y1="635.0938" y2="635.0938"/></g><!--MD5=[d54f99121f47b38ee3d4150d54c642cd]
class RegiStatusStudent--><g id="elem_RegiStatusStudent"><rect codeLine="63" fill="#F1F1F1" height="60.4531" id="RegiStatusStudent" rx="2.5" ry="2.5" style="stroke:#181818;stroke-width:0.5;" width="109" x="1280.5" y="709.6406"/><ellipse cx="1295.5" cy="735.8672" fill="#B8255F" rx="11" ry="11" style="stroke:#181818;stroke-width:1.0;"/><path d="M1296.0938,739.1328 L1298.5625,733.2578 L1298.1719,733.2578 Q1297.5625,733.2578 1297.2969,733.0234 Q1297.0313,732.7891 1297.0313,732.3984 Q1297.0313,732.0234 1297.2969,731.7891 Q1297.5625,731.5547 1298.1719,731.5547 L1300.4531,731.5547 Q1301.0625,731.5547 1301.3281,731.7891 Q1301.5938,732.0234 1301.5938,732.3984 Q1301.5938,732.8672 1301.1875,733.1328 Q1301,733.2578 1300.4063,733.2578 L1296.9219,741.6172 L1295.2813,741.6172 L1291.7969,733.2578 Q1291.2031,733.2578 1291.0156,733.1328 Q1290.6094,732.8672 1290.6094,732.3984 Q1290.6094,732.0234 1290.875,731.7891 Q1291.1406,731.5547 1291.75,731.5547 L1294.0469,731.5547 Q1294.6563,731.5547 1294.9063,731.7891 Q1295.1719,732.0234 1295.1719,732.3984 Q1295.1719,732.7891 1294.9063,733.0234 Q1294.6563,733.2578 1294.0469,733.2578 L1293.6406,733.2578 L1296.0938,739.1328 Z " fill="#000000"/><text fill="#000000" font-family="sans-serif" font-size="12" font-style="italic" lengthAdjust="spacing" textLength="81" x="1307.5" y="725.5039">«value object»</text><text fill="#000000" font-family="sans-serif" font-size="12" font-style="italic" lengthAdjust="spacing" textLength="52" x="1322" y="738.9102">«unique»</text><text fill="#000000" font-family="sans-serif" font-size="14" lengthAdjust="spacing" textLength="40" x="1328" y="754.127">Status</text><line style="stroke:#181818;stroke-width:0.5;" x1="1281.5" x2="1388.5" y1="762.0938" y2="762.0938"/></g><!--MD5=[4066b0363c5a91ff3b6e03e0428953a9]
class Course--><g id="elem_Course"><rect codeLine="71" fill="#F1F1F1" height="60.4531" id="Course" rx="2.5" ry="2.5" style="stroke:#181818;stroke-width:0.5;" width="78" x="417" y="709.6406"/><ellipse cx="432" cy="735.8672" fill="#ADD1B2" rx="11" ry="11" style="stroke:#181818;stroke-width:1.0;"/><path d="M430.8594,736.6641 L430.8594,739.1641 L435.1875,739.1641 L435.1875,738.2422 Q435.1875,737.6328 435.4219,737.3672 Q435.6719,737.1016 436.0469,737.1016 Q436.4219,737.1016 436.6563,737.3672 Q436.8906,737.6328 436.8906,738.2422 L436.8906,740.8672 L428.8906,740.8672 Q428.2656,740.8672 428,740.6328 Q427.75,740.3984 427.75,740.0078 Q427.75,739.6328 428.0156,739.3984 Q428.2813,739.1641 428.8906,739.1641 L429.1563,739.1641 L429.1563,732.5078 L428.8906,732.5078 Q428.2656,732.5078 428,732.2734 Q427.75,732.0391 427.75,731.6484 Q427.75,731.2734 428,731.0391 Q428.2656,730.8047 428.8906,730.8047 L436.5156,730.8047 L436.5156,733.3984 Q436.5156,734.0078 436.2813,734.2734 Q436.0625,734.5234 435.6719,734.5234 Q435.2969,734.5234 435.0625,734.2734 Q434.8281,734.0078 434.8281,733.3984 L434.8281,732.5078 L430.8594,732.5078 L430.8594,734.9609 L432.3438,734.9609 Q432.3438,734.3047 432.4688,734.1172 Q432.7344,733.7109 433.2031,733.7109 Q433.5781,733.7109 433.8125,733.9766 Q434.0469,734.2266 434.0469,734.8359 L434.0469,736.8047 Q434.0469,737.3516 433.9219,737.5391 Q433.6563,737.9297 433.2031,737.9297 Q432.7344,737.9297 432.4688,737.5234 Q432.3438,737.3359 432.3438,736.6641 L430.8594,736.6641 Z " fill="#000000"/><text fill="#000000" font-family="sans-serif" font-size="12" font-style="italic" lengthAdjust="spacing" textLength="35" x="451.5" y="725.5039">«root»</text><text fill="#000000" font-family="sans-serif" font-size="12" font-style="italic" lengthAdjust="spacing" textLength="43" x="447.5" y="738.9102">«entity»</text><text fill="#000000" font-family="sans-serif" font-size="14" lengthAdjust="spacing" textLength="46" x="446" y="754.127">Course</text><line style="stroke:#181818;stroke-width:0.5;" x1="418" x2="494" y1="762.0938" y2="762.0938"/></g><!--MD5=[c3304bb95cb9ec2adad5e3f1dfc01105]
class CourseTitle--><g id="elem_CourseTitle"><rect codeLine="73" fill="#F1F1F1" height="60.4531" id="CourseTitle" rx="2.5" ry="2.5" style="stroke:#181818;stroke-width:0.5;" width="109" x="636.5" y="582.6406"/><ellipse cx="651.5" cy="608.8672" fill="#B8255F" rx="11" ry="11" style="stroke:#181818;stroke-width:1.0;"/><path d="M652.0938,612.1328 L654.5625,606.2578 L654.1719,606.2578 Q653.5625,606.2578 653.2969,606.0234 Q653.0313,605.7891 653.0313,605.3984 Q653.0313,605.0234 653.2969,604.7891 Q653.5625,604.5547 654.1719,604.5547 L656.4531,604.5547 Q657.0625,604.5547 657.3281,604.7891 Q657.5938,605.0234 657.5938,605.3984 Q657.5938,605.8672 657.1875,606.1328 Q657,606.2578 656.4063,606.2578 L652.9219,614.6172 L651.2813,614.6172 L647.7969,606.2578 Q647.2031,606.2578 647.0156,606.1328 Q646.6094,605.8672 646.6094,605.3984 Q646.6094,605.0234 646.875,604.7891 Q647.1406,604.5547 647.75,604.5547 L650.0469,604.5547 Q650.6563,604.5547 650.9063,604.7891 Q651.1719,605.0234 651.1719,605.3984 Q651.1719,605.7891 650.9063,606.0234 Q650.6563,606.2578 650.0469,606.2578 L649.6406,606.2578 L652.0938,612.1328 Z " fill="#000000"/><text fill="#000000" font-family="sans-serif" font-size="12" font-style="italic" lengthAdjust="spacing" textLength="81" x="663.5" y="598.5039">«value object»</text><text fill="#000000" font-family="sans-serif" font-size="12" font-style="italic" lengthAdjust="spacing" textLength="52" x="678" y="611.9102">«unique»</text><text fill="#000000" font-family="sans-serif" font-size="14" lengthAdjust="spacing" textLength="27" x="690.5" y="627.127">Title</text><line style="stroke:#181818;stroke-width:0.5;" x1="637.5" x2="744.5" y1="635.0938" y2="635.0938"/></g><!--MD5=[0276c55ef034c711ad16864ae0c1a09b]
class Id--><g id="elem_Id"><rect codeLine="74" fill="#F1F1F1" height="60.4531" id="Id" rx="2.5" ry="2.5" style="stroke:#181818;stroke-width:0.5;" width="109" x="492.5" y="582.6406"/><ellipse cx="507.5" cy="608.8672" fill="#B8255F" rx="11" ry="11" style="stroke:#181818;stroke-width:1.0;"/><path d="M508.0938,612.1328 L510.5625,606.2578 L510.1719,606.2578 Q509.5625,606.2578 509.2969,606.0234 Q509.0313,605.7891 509.0313,605.3984 Q509.0313,605.0234 509.2969,604.7891 Q509.5625,604.5547 510.1719,604.5547 L512.4531,604.5547 Q513.0625,604.5547 513.3281,604.7891 Q513.5938,605.0234 513.5938,605.3984 Q513.5938,605.8672 513.1875,606.1328 Q513,606.2578 512.4063,606.2578 L508.9219,614.6172 L507.2813,614.6172 L503.7969,606.2578 Q503.2031,606.2578 503.0156,606.1328 Q502.6094,605.8672 502.6094,605.3984 Q502.6094,605.0234 502.875,604.7891 Q503.1406,604.5547 503.75,604.5547 L506.0469,604.5547 Q506.6563,604.5547 506.9063,604.7891 Q507.1719,605.0234 507.1719,605.3984 Q507.1719,605.7891 506.9063,606.0234 Q506.6563,606.2578 506.0469,606.2578 L505.6406,606.2578 L508.0938,612.1328 Z " fill="#000000"/><text fill="#000000" font-family="sans-serif" font-size="12" font-style="italic" lengthAdjust="spacing" textLength="81" x="519.5" y="598.5039">«value object»</text><text fill="#000000" font-family="sans-serif" font-size="12" font-style="italic" lengthAdjust="spacing" textLength="25" x="547.5" y="611.9102">«Id»</text><text fill="#000000" font-family="sans-serif" font-size="14" lengthAdjust="spacing" textLength="11" x="554.5" y="627.127">Id</text><line style="stroke:#181818;stroke-width:0.5;" x1="493.5" x2="600.5" y1="635.0938" y2="635.0938"/></g><!--MD5=[799856c08d18301c64071de18adb2d39]
class CourseState--><g id="elem_CourseState"><rect codeLine="75" fill="#F1F1F1" height="47.0469" id="CourseState" rx="2.5" ry="2.5" style="stroke:#181818;stroke-width:0.5;" width="109" x="348.5" y="589.1406"/><ellipse cx="363.5" cy="608.6641" fill="#B8255F" rx="11" ry="11" style="stroke:#181818;stroke-width:1.0;"/><path d="M364.0938,611.9297 L366.5625,606.0547 L366.1719,606.0547 Q365.5625,606.0547 365.2969,605.8203 Q365.0313,605.5859 365.0313,605.1953 Q365.0313,604.8203 365.2969,604.5859 Q365.5625,604.3516 366.1719,604.3516 L368.4531,604.3516 Q369.0625,604.3516 369.3281,604.5859 Q369.5938,604.8203 369.5938,605.1953 Q369.5938,605.6641 369.1875,605.9297 Q369,606.0547 368.4063,606.0547 L364.9219,614.4141 L363.2813,614.4141 L359.7969,606.0547 Q359.2031,606.0547 359.0156,605.9297 Q358.6094,605.6641 358.6094,605.1953 Q358.6094,604.8203 358.875,604.5859 Q359.1406,604.3516 359.75,604.3516 L362.0469,604.3516 Q362.6563,604.3516 362.9063,604.5859 Q363.1719,604.8203 363.1719,605.1953 Q363.1719,605.5859 362.9063,605.8203 Q362.6563,606.0547 362.0469,606.0547 L361.6406,606.0547 L364.0938,611.9297 Z " fill="#000000"/><text fill="#000000" font-family="sans-serif" font-size="12" font-style="italic" lengthAdjust="spacing" textLength="81" x="375.5" y="605.0039">«value object»</text><text fill="#000000" font-family="sans-serif" font-size="14" lengthAdjust="spacing" textLength="33" x="399.5" y="620.2207">State</text><line style="stroke:#181818;stroke-width:0.5;" x1="349.5" x2="456.5" y1="628.1875" y2="628.1875"/></g><!--MD5=[f6a23ce3a300b49f1448f5d1d44095f1]
class Capacity--><g id="elem_Capacity"><rect codeLine="76" fill="#F1F1F1" height="47.0469" id="Capacity" rx="2.5" ry="2.5" style="stroke:#181818;stroke-width:0.5;" width="109" x="204.5" y="589.1406"/><ellipse cx="219.5" cy="608.6641" fill="#B8255F" rx="11" ry="11" style="stroke:#181818;stroke-width:1.0;"/><path d="M220.0938,611.9297 L222.5625,606.0547 L222.1719,606.0547 Q221.5625,606.0547 221.2969,605.8203 Q221.0313,605.5859 221.0313,605.1953 Q221.0313,604.8203 221.2969,604.5859 Q221.5625,604.3516 222.1719,604.3516 L224.4531,604.3516 Q225.0625,604.3516 225.3281,604.5859 Q225.5938,604.8203 225.5938,605.1953 Q225.5938,605.6641 225.1875,605.9297 Q225,606.0547 224.4063,606.0547 L220.9219,614.4141 L219.2813,614.4141 L215.7969,606.0547 Q215.2031,606.0547 215.0156,605.9297 Q214.6094,605.6641 214.6094,605.1953 Q214.6094,604.8203 214.875,604.5859 Q215.1406,604.3516 215.75,604.3516 L218.0469,604.3516 Q218.6563,604.3516 218.9063,604.5859 Q219.1719,604.8203 219.1719,605.1953 Q219.1719,605.5859 218.9063,605.8203 Q218.6563,606.0547 218.0469,606.0547 L217.6406,606.0547 L220.0938,611.9297 Z " fill="#000000"/><text fill="#000000" font-family="sans-serif" font-size="12" font-style="italic" lengthAdjust="spacing" textLength="81" x="231.5" y="605.0039">«value object»</text><text fill="#000000" font-family="sans-serif" font-size="14" lengthAdjust="spacing" textLength="55" x="244.5" y="620.2207">Capacity</text><line style="stroke:#181818;stroke-width:0.5;" x1="205.5" x2="312.5" y1="628.1875" y2="628.1875"/></g><!--MD5=[ac7bd2233807ab297c4b9d0ba4720eee]
class EnrollementsState--><g id="elem_EnrollementsState"><rect codeLine="77" fill="#F1F1F1" height="47.0469" id="EnrollementsState" rx="2.5" ry="2.5" style="stroke:#181818;stroke-width:0.5;" width="147" x="22.5" y="589.1406"/><ellipse cx="37.5" cy="608.6641" fill="#B8255F" rx="11" ry="11" style="stroke:#181818;stroke-width:1.0;"/><path d="M38.0938,611.9297 L40.5625,606.0547 L40.1719,606.0547 Q39.5625,606.0547 39.2969,605.8203 Q39.0313,605.5859 39.0313,605.1953 Q39.0313,604.8203 39.2969,604.5859 Q39.5625,604.3516 40.1719,604.3516 L42.4531,604.3516 Q43.0625,604.3516 43.3281,604.5859 Q43.5938,604.8203 43.5938,605.1953 Q43.5938,605.6641 43.1875,605.9297 Q43,606.0547 42.4063,606.0547 L38.9219,614.4141 L37.2813,614.4141 L33.7969,606.0547 Q33.2031,606.0547 33.0156,605.9297 Q32.6094,605.6641 32.6094,605.1953 Q32.6094,604.8203 32.875,604.5859 Q33.1406,604.3516 33.75,604.3516 L36.0469,604.3516 Q36.6563,604.3516 36.9063,604.5859 Q37.1719,604.8203 37.1719,605.1953 Q37.1719,605.5859 36.9063,605.8203 Q36.6563,606.0547 36.0469,606.0547 L35.6406,606.0547 L38.0938,611.9297 Z " fill="#000000"/><text fill="#000000" font-family="sans-serif" font-size="12" font-style="italic" lengthAdjust="spacing" textLength="81" x="68.5" y="605.0039">«value object»</text><text fill="#000000" font-family="sans-serif" font-size="14" lengthAdjust="spacing" textLength="115" x="51.5" y="620.2207">EnrollementsState</text><line style="stroke:#181818;stroke-width:0.5;" x1="23.5" x2="168.5" y1="628.1875" y2="628.1875"/></g><!--MD5=[2cde1893743db7326c8898df7574159d]
class TeacherRegistration--><g id="elem_TeacherRegistration"><rect fill="#F1F1F1" height="40" id="TeacherRegistration" rx="2.5" ry="2.5" style="stroke:#181818;stroke-width:0.5;" width="161" x="530.5" y="719.6406"/><ellipse cx="545.5" cy="735.6406" fill="#ADD1B2" rx="11" ry="11" style="stroke:#181818;stroke-width:1.0;"/><path d="M548.2656,731.5156 Q548.4219,731.2969 548.6094,731.1875 Q548.7969,731.0781 549.0156,731.0781 Q549.3906,731.0781 549.625,731.3438 Q549.8594,731.5938 549.8594,732.2031 L549.8594,733.6563 Q549.8594,734.2656 549.625,734.5313 Q549.3906,734.7969 549.0156,734.7969 Q548.6719,734.7969 548.4688,734.5938 Q548.2656,734.4063 548.1563,733.8906 Q548.1094,733.5313 547.9219,733.3438 Q547.5938,732.9688 546.9844,732.75 Q546.375,732.5313 545.75,732.5313 Q544.9844,732.5313 544.3438,732.8594 Q543.7188,733.1875 543.2188,733.9375 Q542.7344,734.6875 542.7344,735.7188 L542.7344,736.8125 Q542.7344,738.0469 543.625,738.875 Q544.5156,739.6875 546.1094,739.6875 Q547.0469,739.6875 547.7031,739.4375 Q548.0938,739.2813 548.5156,738.8438 Q548.7813,738.5781 548.9219,738.5 Q549.0781,738.4219 549.2813,738.4219 Q549.6094,738.4219 549.8594,738.6875 Q550.125,738.9375 550.125,739.2813 Q550.125,739.625 549.7813,740.0313 Q549.2813,740.6094 548.4844,740.9375 Q547.4063,741.3906 546.1094,741.3906 Q544.5938,741.3906 543.3906,740.7656 Q542.4063,740.2656 541.7188,739.2031 Q541.0313,738.125 541.0313,736.8438 L541.0313,735.6875 Q541.0313,734.3594 541.6406,733.2188 Q542.2656,732.0625 543.3594,731.4531 Q544.4531,730.8281 545.6875,730.8281 Q546.4219,730.8281 547.0625,731 Q547.7188,731.1563 548.2656,731.5156 Z " fill="#000000"/><text fill="#000000" font-family="sans-serif" font-size="14" lengthAdjust="spacing" textLength="129" x="559.5" y="740.4941">TeacherRegistration</text><line style="stroke:#181818;stroke-width:0.5;" x1="531.5" x2="690.5" y1="751.6406" y2="751.6406"/></g><!--MD5=[dbc364445409b51c9b407d19a07b4adf]
link User to Email--><g id="link_User_Email"><path codeLine="25" d="M1096,527.6706 C1096,527.6706 1096,562.2806 1096,562.2806 " fill="none" id="User-Email" style="stroke:#181818;stroke-width:1.0;"/><polygon fill="#181818" points="1096,575.2806,1100,566.2806,1096,570.2806,1092,566.2806,1096,575.2806" style="stroke:#181818;stroke-width:1.0;"/><line style="stroke:#181818;stroke-width:1.0;" x1="1096" x2="1096" y1="570.2806" y2="562.2806"/><polygon fill="#181818" points="1096,515.6706,1092,521.6706,1096,527.6706,1100,521.6706,1096,515.6706" style="stroke:#181818;stroke-width:1.0;"/><text fill="#000000" font-family="sans-serif" font-size="13" lengthAdjust="spacing" textLength="21" x="1074" y="558.2492">has</text><text fill="#000000" font-family="sans-serif" font-size="13" lengthAdjust="spacing" textLength="7" x="1079.3203" y="564.9315">1</text><text fill="#000000" font-family="sans-serif" font-size="13" lengthAdjust="spacing" textLength="7" x="1096.5641" y="535.2859">1</text></g><!--MD5=[5ab1f46e477a8163e64d30b24bef4255]
link User to Password--><g id="link_User_Password"><path codeLine="26" d="M1018,527.6706 C1018,527.6706 1018,576.1306 1018,576.1306 " fill="none" id="User-Password" style="stroke:#181818;stroke-width:1.0;"/><polygon fill="#181818" points="1018,589.1306,1022,580.1306,1018,584.1306,1014,580.1306,1018,589.1306" style="stroke:#181818;stroke-width:1.0;"/><line style="stroke:#181818;stroke-width:1.0;" x1="1018" x2="1018" y1="584.1306" y2="576.1306"/><polygon fill="#181818" points="1018,515.6706,1014,521.6706,1018,527.6706,1022,521.6706,1018,515.6706" style="stroke:#181818;stroke-width:1.0;"/><text fill="#000000" font-family="sans-serif" font-size="13" lengthAdjust="spacing" textLength="21" x="996" y="549.1692">has</text><text fill="#000000" font-family="sans-serif" font-size="13" lengthAdjust="spacing" textLength="7" x="1014.7969" y="578.3853">1</text><text fill="#000000" font-family="sans-serif" font-size="13" lengthAdjust="spacing" textLength="7" x="1007.1078" y="535.2859">1</text></g><!--MD5=[70c37dc9bfbc8656942103c36f1181e4]
link User to Role--><g id="link_User_Role"><path codeLine="27" d="M968.48,469.6406 C968.48,469.6406 893.25,469.6406 893.25,469.6406 C893.25,469.6406 893.25,576.0306 893.25,576.0306 " fill="none" id="User-Role" style="stroke:#181818;stroke-width:1.0;"/><polygon fill="#181818" points="893.25,589.0306,897.25,580.0306,893.25,584.0306,889.25,580.0306,893.25,589.0306" style="stroke:#181818;stroke-width:1.0;"/><line style="stroke:#181818;stroke-width:1.0;" x1="893.25" x2="893.25" y1="584.0306" y2="576.0306"/><polygon fill="#181818" points="980.48,469.6406,974.48,465.6406,968.48,469.6406,974.48,473.6406,980.48,469.6406" style="stroke:#181818;stroke-width:1.0;"/><text fill="#000000" font-family="sans-serif" font-size="13" lengthAdjust="spacing" textLength="21" x="871.25" y="482.4892">has</text><text fill="#000000" font-family="sans-serif" font-size="13" lengthAdjust="spacing" textLength="7" x="965.6776" y="466.6041">1</text><text fill="#000000" font-family="sans-serif" font-size="13" lengthAdjust="spacing" textLength="7" x="895.4609" y="578.2571">1</text></g><!--MD5=[6eb6e197a729f6ec2412743e0bdbca1d]
link Manager to User--><g id="link_Manager_User"><path codeLine="28" d="M963.03,326.6406 C978.68,326.6406 992.5,326.6406 992.5,326.6406 C992.5,326.6406 992.5,418.6106 992.5,418.6106 " fill="none" id="Manager-to-User" style="stroke:#181818;stroke-width:1.0;"/><polygon fill="#181818" points="992.5,423.6106,996.5,414.6106,992.5,418.6106,988.5,414.6106,992.5,423.6106" style="stroke:#181818;stroke-width:1.0;"/><text fill="#000000" font-family="sans-serif" font-size="13" lengthAdjust="spacing" textLength="43" x="948.5" y="370.6592">creates</text><text fill="#000000" font-family="sans-serif" font-size="13" lengthAdjust="spacing" textLength="7" x="970.9022" y="322.1299">1</text><text fill="#000000" font-family="sans-serif" font-size="13" lengthAdjust="spacing" textLength="5" x="979.3719" y="412.9904">*</text></g><!--MD5=[6eb6e197a729f6ec2412743e0bdbca1d]
link Manager to User--><g id="link_Manager_User"><path codeLine="29" d="M963.27,341.6406 C975.99,341.6406 986.5,341.6406 986.5,341.6406 C986.5,341.6406 986.5,403.4306 986.5,403.4306 " fill="none" id="Manager-to-User-1" style="stroke:#181818;stroke-width:1.0;"/><polygon fill="none" points="993.5,403.4306,986.5,423.4306,979.5,403.4306,993.5,403.4306" style="stroke:#181818;stroke-width:1.0;"/></g><!--MD5=[e7e4384c2e5b49218c5cd97f5ff6bc06]
link Student to User--><g id="link_Student_User"><path codeLine="30" d="M1118.4,333.6406 C1104.56,333.6406 1092.5,333.6406 1092.5,333.6406 C1092.5,333.6406 1092.5,403.6006 1092.5,403.6006 " fill="none" id="Student-to-User" style="stroke:#181818;stroke-width:1.0;"/><polygon fill="none" points="1099.5,403.6006,1092.5,423.6006,1085.5,403.6006,1099.5,403.6006" style="stroke:#181818;stroke-width:1.0;"/></g><!--MD5=[0a356a4e09bd4fc4087bf5e4e9dbf72c]
link Teacher to User--><g id="link_Teacher_User"><path codeLine="31" d="M1041,357.3306 C1041,357.3306 1041,403.4106 1041,403.4106 " fill="none" id="Teacher-to-User" style="stroke:#181818;stroke-width:1.0;"/><polygon fill="none" points="1048,403.4106,1041,423.4106,1034,403.4106,1048,403.4106" style="stroke:#181818;stroke-width:1.0;"/></g><!--MD5=[a4704c7d667610242c4910d8f03d8365]
link TeacherProfile to Profile--><g id="link_TeacherProfile_Profile"><path codeLine="47" d="M1460.5,237.3306 C1460.5,270.4606 1460.5,326.6406 1460.5,326.6406 C1460.5,326.6406 1546.67,326.6406 1546.67,326.6406 " fill="none" id="TeacherProfile-to-Profile" style="stroke:#181818;stroke-width:1.0;"/><polygon fill="none" points="1546.67,319.6406,1566.67,326.6406,1546.67,333.6406,1546.67,319.6406" style="stroke:#181818;stroke-width:1.0;"/></g><!--MD5=[74f6c88ebae95880488e779c734e479a]
link StudentProfile to Profile--><g id="link_StudentProfile_Profile"><path codeLine="48" d="M1603,237.3506 C1603,237.3506 1603,283.5806 1603,283.5806 " fill="none" id="StudentProfile-to-Profile" style="stroke:#181818;stroke-width:1.0;"/><polygon fill="none" points="1610,283.5806,1603,303.5806,1596,283.5806,1610,283.5806" style="stroke:#181818;stroke-width:1.0;"/></g><!--MD5=[f7f29814defc5875b454afa8d8fb2888]
link ManagerProfile to Profile--><g id="link_ManagerProfile_Profile"><path codeLine="49" d="M2083,243.9406 C2083,283.7406 2083,348.6406 2083,348.6406 C2083,348.6406 1659.08,348.6406 1659.08,348.6406 " fill="none" id="ManagerProfile-to-Profile" style="stroke:#181818;stroke-width:1.0;"/><polygon fill="none" points="1659.08,355.6406,1639.08,348.6406,1659.08,341.6406,1659.08,355.6406" style="stroke:#181818;stroke-width:1.0;"/></g><!--MD5=[2bc47b069c5ba380f277202e4d17c25b]
link TaxPayerNumber to Profile--><g id="link_TaxPayerNumber_Profile"><path codeLine="50" d="M1913,250.3506 C1913,250.3506 1913,333.6406 1913,333.6406 C1913,333.6406 1651.17,333.6406 1651.17,333.6406 " fill="none" id="TaxPayerNumber-Profile" style="stroke:#181818;stroke-width:1.0;"/><polygon fill="#181818" points="1639.17,333.6406,1645.17,337.6406,1651.17,333.6406,1645.17,329.6406,1639.17,333.6406" style="stroke:#181818;stroke-width:1.0;"/><polygon fill="#181818" points="1913,237.3506,1909,246.3506,1913,242.3506,1917,246.3506,1913,237.3506" style="stroke:#181818;stroke-width:1.0;"/><line style="stroke:#181818;stroke-width:1.0;" x1="1913" x2="1913" y1="242.3506" y2="250.3506"/><text fill="#000000" font-family="sans-serif" font-size="13" lengthAdjust="spacing" textLength="21" x="1802.23" y="330.4092">has</text><text fill="#000000" font-family="sans-serif" font-size="13" lengthAdjust="spacing" textLength="7" x="1905.1031" y="257.0497">1</text><text fill="#000000" font-family="sans-serif" font-size="13" lengthAdjust="spacing" textLength="7" x="1646.98" y="330.038">1</text></g><!--MD5=[02fab2b53211d87eb632ce55aa25c763]
link DateOfBirth to Profile--><g id="link_DateOfBirth_Profile"><path codeLine="51" d="M1753,250.2006 C1753,250.2006 1753,318.6406 1753,318.6406 C1753,318.6406 1651.31,318.6406 1651.31,318.6406 " fill="none" id="DateOfBirth-Profile" style="stroke:#181818;stroke-width:1.0;"/><polygon fill="#181818" points="1639.31,318.6406,1645.31,322.6406,1651.31,318.6406,1645.31,314.6406,1639.31,318.6406" style="stroke:#181818;stroke-width:1.0;"/><polygon fill="#181818" points="1753,237.2006,1749,246.2006,1753,242.2006,1757,246.2006,1753,237.2006" style="stroke:#181818;stroke-width:1.0;"/><line style="stroke:#181818;stroke-width:1.0;" x1="1753" x2="1753" y1="242.2006" y2="250.2006"/><text fill="#000000" font-family="sans-serif" font-size="13" lengthAdjust="spacing" textLength="21" x="1714.87" y="315.4092">has</text><text fill="#000000" font-family="sans-serif" font-size="13" lengthAdjust="spacing" textLength="7" x="1745.1031" y="256.8612">1</text><text fill="#000000" font-family="sans-serif" font-size="13" lengthAdjust="spacing" textLength="7" x="1646.8988" y="312.2221">1</text></g><!--MD5=[10a6c99310405b7a97b4cf47d76d8922]
link MechanographicNumber to StudentProfile--><g id="link_MechanographicNumber_StudentProfile"><path codeLine="52" d="M1604.25,136.6606 C1604.25,136.6606 1604.25,177.7606 1604.25,177.7606 " fill="none" id="MechanographicNumber-StudentProfile" style="stroke:#181818;stroke-width:1.0;"/><polygon fill="#181818" points="1604.25,189.7606,1608.25,183.7606,1604.25,177.7606,1600.25,183.7606,1604.25,189.7606" style="stroke:#181818;stroke-width:1.0;"/><polygon fill="#181818" points="1604.25,123.6606,1600.25,132.6606,1604.25,128.6606,1608.25,132.6606,1604.25,123.6606" style="stroke:#181818;stroke-width:1.0;"/><line style="stroke:#181818;stroke-width:1.0;" x1="1604.25" x2="1604.25" y1="128.6606" y2="136.6606"/><text fill="#000000" font-family="sans-serif" font-size="13" lengthAdjust="spacing" textLength="21" x="1582.25" y="153.4792">has</text><text fill="#000000" font-family="sans-serif" font-size="13" lengthAdjust="spacing" textLength="7" x="1596.6453" y="179.2942">1</text><text fill="#000000" font-family="sans-serif" font-size="13" lengthAdjust="spacing" textLength="7" x="1587.7047" y="143.311">1</text></g><!--MD5=[ae3e36caf4c7951d7f4f6fff495b345e]
link Acronym to TeacherProfile--><g id="link_Acronym_TeacherProfile"><path codeLine="53" d="M1454,136.6606 C1454,136.6606 1454,177.7606 1454,177.7606 " fill="none" id="Acronym-TeacherProfile" style="stroke:#181818;stroke-width:1.0;"/><polygon fill="#181818" points="1454,189.7606,1458,183.7606,1454,177.7606,1450,183.7606,1454,189.7606" style="stroke:#181818;stroke-width:1.0;"/><polygon fill="#181818" points="1454,123.6606,1450,132.6606,1454,128.6606,1458,132.6606,1454,123.6606" style="stroke:#181818;stroke-width:1.0;"/><line style="stroke:#181818;stroke-width:1.0;" x1="1454" x2="1454" y1="128.6606" y2="136.6606"/><text fill="#000000" font-family="sans-serif" font-size="13" lengthAdjust="spacing" textLength="21" x="1432" y="153.4792">has</text><text fill="#000000" font-family="sans-serif" font-size="13" lengthAdjust="spacing" textLength="7" x="1448.4781" y="179.2942">1</text><text fill="#000000" font-family="sans-serif" font-size="13" lengthAdjust="spacing" textLength="7" x="1445.8469" y="143.311">1</text></g><!--MD5=[0dc7d8961856536cda53252c0ddcf162]
link Schedule to Profile--><g id="link_Schedule_Profile"><path codeLine="54" d="M1324.75,250.4206 C1324.75,250.4206 1324.75,341.6406 1324.75,341.6406 C1324.75,341.6406 1554.91,341.6406 1554.91,341.6406 " fill="none" id="Schedule-Profile" style="stroke:#181818;stroke-width:1.0;"/><polygon fill="#181818" points="1566.91,341.6406,1560.91,337.6406,1554.91,341.6406,1560.91,345.6406,1566.91,341.6406" style="stroke:#181818;stroke-width:1.0;"/><polygon fill="#181818" points="1324.75,237.4206,1320.75,246.4206,1324.75,242.4206,1328.75,246.4206,1324.75,237.4206" style="stroke:#181818;stroke-width:1.0;"/><line style="stroke:#181818;stroke-width:1.0;" x1="1324.75" x2="1324.75" y1="242.4206" y2="250.4206"/><text fill="#000000" font-family="sans-serif" font-size="13" lengthAdjust="spacing" textLength="21" x="1371.72" y="338.4092">has</text><text fill="#000000" font-family="sans-serif" font-size="13" lengthAdjust="spacing" textLength="7" x="1322.6828" y="257.1376">1</text><text fill="#000000" font-family="sans-serif" font-size="13" lengthAdjust="spacing" textLength="7" x="1552.1157" y="339.613">1</text></g><!--MD5=[45f59c8fa32af7dd4bd10287af5ddf83]
link ProfileDay to Schedule--><g id="link_ProfileDay_Schedule"><path codeLine="55" d="M1302,136.6606 C1302,136.6606 1302,177.7606 1302,177.7606 " fill="none" id="ProfileDay-Schedule" style="stroke:#181818;stroke-width:1.0;"/><polygon fill="#181818" points="1302,189.7606,1306,183.7606,1302,177.7606,1298,183.7606,1302,189.7606" style="stroke:#181818;stroke-width:1.0;"/><polygon fill="#181818" points="1302,123.6606,1298,132.6606,1302,128.6606,1306,132.6606,1302,123.6606" style="stroke:#181818;stroke-width:1.0;"/><line style="stroke:#181818;stroke-width:1.0;" x1="1302" x2="1302" y1="128.6606" y2="136.6606"/><text fill="#000000" font-family="sans-serif" font-size="13" lengthAdjust="spacing" textLength="21" x="1280" y="153.4792">has</text><text fill="#000000" font-family="sans-serif" font-size="13" lengthAdjust="spacing" textLength="20" x="1279.3125" y="179.2942">1..*</text><text fill="#000000" font-family="sans-serif" font-size="13" lengthAdjust="spacing" textLength="7" x="1291.7969" y="143.311">1</text></g><!--MD5=[26f2750967a9157267d57c5e6d98bc07]
link Profile to User--><g id="link_Profile_User"><path codeLine="57" d="M1603,375.9206 C1603,375.9206 1603,446.6406 1603,446.6406 C1603,446.6406 1114.68,446.6406 1114.68,446.6406 " fill="none" id="Profile-User" style="stroke:#181818;stroke-width:1.0;"/><polygon fill="#181818" points="1101.68,446.6406,1110.68,450.6406,1106.68,446.6406,1110.68,442.6406,1101.68,446.6406" style="stroke:#181818;stroke-width:1.0;"/><line style="stroke:#181818;stroke-width:1.0;" x1="1106.68" x2="1114.68" y1="446.6406" y2="446.6406"/><polygon fill="#181818" points="1603,363.9206,1599,369.9206,1603,375.9206,1607,369.9206,1603,363.9206" style="stroke:#181818;stroke-width:1.0;"/><text fill="#000000" font-family="sans-serif" font-size="13" lengthAdjust="spacing" textLength="21" x="1371.7" y="443.4092">has</text><text fill="#000000" font-family="sans-serif" font-size="13" lengthAdjust="spacing" textLength="7" x="1595.2344" y="383.8519">1</text><text fill="#000000" font-family="sans-serif" font-size="13" lengthAdjust="spacing" textLength="7" x="1109.5019" y="440.801">1</text></g><!--MD5=[f5ffdf6c45929761980a7c2b41304f8e]
reverse link StudentRegistration to User--><g id="link_StudentRegistration_User"><path codeLine="65" d="M1279.25,577.3606 C1279.25,577.3606 1279.25,492.6406 1279.25,492.6406 C1279.25,492.6406 1172.32,492.6406 1101.74,492.6406 " fill="none" id="StudentRegistration-backto-User" style="stroke:#181818;stroke-width:1.0;"/><polygon fill="#181818" points="1279.25,582.3606,1283.25,573.3606,1279.25,577.3606,1275.25,573.3606,1279.25,582.3606" style="stroke:#181818;stroke-width:1.0;"/><text fill="#000000" font-family="sans-serif" font-size="13" lengthAdjust="spacing" textLength="38" x="1193.85" y="489.4092">enrolls</text><text fill="#000000" font-family="sans-serif" font-size="13" lengthAdjust="spacing" textLength="7" x="1259.2891" y="571.9819">1</text><text fill="#000000" font-family="sans-serif" font-size="13" lengthAdjust="spacing" textLength="7" x="1109.5693" y="492.4073">1</text></g><!--MD5=[89645d7b06ab68493d025cc7837295ad]
link User to StudentRegistration--><g id="link_User_StudentRegistration"><path codeLine="66" d="M1101.53,469.6406 C1178.64,469.6406 1302,469.6406 1302,469.6406 C1302,469.6406 1302,577.3106 1302,577.3106 " fill="none" id="User-to-StudentRegistration" style="stroke:#181818;stroke-width:1.0;"/><polygon fill="#181818" points="1302,582.3106,1306,573.3106,1302,577.3106,1298,573.3106,1302,582.3106" style="stroke:#181818;stroke-width:1.0;"/><text fill="#000000" font-family="sans-serif" font-size="13" lengthAdjust="spacing" textLength="53" x="1201.6" y="466.4092">manages</text><text fill="#000000" font-family="sans-serif" font-size="13" lengthAdjust="spacing" textLength="7" x="1109.3337" y="466.6041">1</text><text fill="#000000" font-family="sans-serif" font-size="13" lengthAdjust="spacing" textLength="7" x="1287.0156" y="571.9209">1</text></g><!--MD5=[36ac1ed9af1724fe1e4b6cfc9f6bc82f]
link StudentRegistration to RegiStatusStudent--><g id="link_StudentRegistration_RegiStatusStudent"><path codeLine="67" d="M1335,654.7406 C1335,654.7406 1335,696.3206 1335,696.3206 " fill="none" id="StudentRegistration-RegiStatusStudent" style="stroke:#181818;stroke-width:1.0;"/><polygon fill="#181818" points="1335,709.3206,1339,700.3206,1335,704.3206,1331,700.3206,1335,709.3206" style="stroke:#181818;stroke-width:1.0;"/><line style="stroke:#181818;stroke-width:1.0;" x1="1335" x2="1335" y1="704.3206" y2="696.3206"/><polygon fill="#181818" points="1335,642.7406,1331,648.7406,1335,654.7406,1339,648.7406,1335,642.7406" style="stroke:#181818;stroke-width:1.0;"/><text fill="#000000" font-family="sans-serif" font-size="13" lengthAdjust="spacing" textLength="21" x="1313" y="672.7992">has</text><text fill="#000000" font-family="sans-serif" font-size="13" lengthAdjust="spacing" textLength="7" x="1327.2344" y="698.9331">1</text><text fill="#000000" font-family="sans-serif" font-size="13" lengthAdjust="spacing" textLength="7" x="1327.2344" y="662.6325">1</text></g><!--MD5=[d2d45e8b3a4d9e4a07207541b7c62d68]
link CourseTitle to Course--><g id="link_CourseTitle_Course"><path codeLine="79" d="M664,655.6906 C664,655.6906 664,714.6406 664,714.6406 C664,714.6406 507.12,714.6406 507.12,714.6406 " fill="none" id="CourseTitle-Course" style="stroke:#181818;stroke-width:1.0;"/><polygon fill="#181818" points="495.12,714.6406,501.12,718.6406,507.12,714.6406,501.12,710.6406,495.12,714.6406" style="stroke:#181818;stroke-width:1.0;"/><polygon fill="#181818" points="664,642.6906,660,651.6906,664,647.6906,668,651.6906,664,642.6906" style="stroke:#181818;stroke-width:1.0;"/><line style="stroke:#181818;stroke-width:1.0;" x1="664" x2="664" y1="647.6906" y2="655.6906"/><text fill="#000000" font-family="sans-serif" font-size="13" lengthAdjust="spacing" textLength="21" x="593.54" y="711.4092">has</text><text fill="#000000" font-family="sans-serif" font-size="13" lengthAdjust="spacing" textLength="7" x="649.9469" y="663.0351">1</text><text fill="#000000" font-family="sans-serif" font-size="13" lengthAdjust="spacing" textLength="7" x="502.8133" y="699.2237">1</text></g><!--MD5=[1e0d200394426de6698d6f293ed79c4a]
link Id to Course--><g id="link_Id_Course"><path codeLine="80" d="M512.75,655.6406 C512.75,655.6406 512.75,712.6406 512.75,712.6406 C512.75,712.6406 507.11,712.6274 507.11,712.6274 " fill="none" id="Id-Course" style="stroke:#181818;stroke-width:1.0;"/><polygon fill="#181818" points="495.11,712.6406,501.1144,716.634,507.11,712.6274,501.1056,708.634,495.11,712.6406" style="stroke:#181818;stroke-width:1.0;"/><polygon fill="#181818" points="512.75,642.6406,508.75,651.6406,512.75,647.6406,516.75,651.6406,512.75,642.6406" style="stroke:#181818;stroke-width:1.0;"/><line style="stroke:#181818;stroke-width:1.0;" x1="512.75" x2="512.75" y1="647.6406" y2="655.6406"/><text fill="#000000" font-family="sans-serif" font-size="13" lengthAdjust="spacing" textLength="21" x="490.75" y="683.2292">has</text><text fill="#000000" font-family="sans-serif" font-size="13" lengthAdjust="spacing" textLength="7" x="497.0203" y="662.9736">1</text><text fill="#000000" font-family="sans-serif" font-size="13" lengthAdjust="spacing" textLength="7" x="502.9662" y="704.1469">1</text></g><!--MD5=[629d6269f0237dae7a30852633c03088]
link CourseState to Course--><g id="link_CourseState_Course"><path codeLine="81" d="M437.25,649.2306 C437.25,649.2306 437.25,697.4406 437.25,697.4406 " fill="none" id="CourseState-Course" style="stroke:#181818;stroke-width:1.0;"/><polygon fill="#181818" points="437.25,709.4406,441.25,703.4406,437.25,697.4406,433.25,703.4406,437.25,709.4406" style="stroke:#181818;stroke-width:1.0;"/><polygon fill="#181818" points="437.25,636.2306,433.25,645.2306,437.25,641.2306,441.25,645.2306,437.25,636.2306" style="stroke:#181818;stroke-width:1.0;"/><line style="stroke:#181818;stroke-width:1.0;" x1="437.25" x2="437.25" y1="641.2306" y2="649.2306"/><text fill="#000000" font-family="sans-serif" font-size="13" lengthAdjust="spacing" textLength="21" x="415.25" y="669.6092">has</text><text fill="#000000" font-family="sans-serif" font-size="13" lengthAdjust="spacing" textLength="7" x="425.3828" y="699.0794">1</text><text fill="#000000" font-family="sans-serif" font-size="13" lengthAdjust="spacing" textLength="7" x="438.1297" y="655.8989">1</text></g><!--MD5=[a7883546fd97c43adba3cbc269bc6729]
link Capacity to Course--><g id="link_Capacity_Course"><path codeLine="82" d="M259,649.3206 C259,649.3206 259,729.6406 259,729.6406 C259,729.6406 404.61,729.6406 404.61,729.6406 " fill="none" id="Capacity-Course" style="stroke:#181818;stroke-width:1.0;"/><polygon fill="#181818" points="416.61,729.6406,410.61,725.6406,404.61,729.6406,410.61,733.6406,416.61,729.6406" style="stroke:#181818;stroke-width:1.0;"/><polygon fill="#181818" points="259,636.3206,255,645.3206,259,641.3206,263,645.3206,259,636.3206" style="stroke:#181818;stroke-width:1.0;"/><line style="stroke:#181818;stroke-width:1.0;" x1="259" x2="259" y1="641.3206" y2="649.3206"/><text fill="#000000" font-family="sans-serif" font-size="13" lengthAdjust="spacing" textLength="21" x="269.14" y="726.4092">has</text><text fill="#000000" font-family="sans-serif" font-size="13" lengthAdjust="spacing" textLength="7" x="251.1031" y="656.012">1</text><text fill="#000000" font-family="sans-serif" font-size="13" lengthAdjust="spacing" textLength="7" x="401.9702" y="724.3873">1</text></g><!--MD5=[22f80963d37c896e0913ff7b6e29c1a1]
link EnrollementsState to Course--><g id="link_EnrollementsState_Course"><path codeLine="83" d="M96,649.1906 C96,649.1906 96,749.6406 96,749.6406 C96,749.6406 404.79,749.6406 404.79,749.6406 " fill="none" id="EnrollementsState-Course" style="stroke:#181818;stroke-width:1.0;"/><polygon fill="#181818" points="416.79,749.6406,410.79,745.6406,404.79,749.6406,410.79,753.6406,416.79,749.6406" style="stroke:#181818;stroke-width:1.0;"/><polygon fill="#181818" points="96,636.1906,92,645.1906,96,641.1906,100,645.1906,96,636.1906" style="stroke:#181818;stroke-width:1.0;"/><line style="stroke:#181818;stroke-width:1.0;" x1="96" x2="96" y1="641.1906" y2="649.1906"/><text fill="#000000" font-family="sans-serif" font-size="13" lengthAdjust="spacing" textLength="21" x="177.67" y="746.4092">has</text><text fill="#000000" font-family="sans-serif" font-size="13" lengthAdjust="spacing" textLength="7" x="88.1031" y="655.8487">1</text><text fill="#000000" font-family="sans-serif" font-size="13" lengthAdjust="spacing" textLength="7" x="401.9153" y="747.9688">1</text></g><!--MD5=[5b07f0580c574b70a160dd1554ed44f2]
link StudentRegistration to Course--><g id="link_StudentRegistration_Course"><path codeLine="84" d="M1268.5,642.7306 C1268.5,673.7606 1268.5,717.6406 1268.5,717.6406 C1268.5,717.6406 500.19,717.6406 500.19,717.6406 " fill="none" id="StudentRegistration-to-Course" style="stroke:#181818;stroke-width:1.0;"/><polygon fill="#181818" points="495.19,717.6406,504.19,721.6406,500.19,717.6406,504.19,713.6406,495.19,717.6406" style="stroke:#181818;stroke-width:1.0;"/><text fill="#000000" font-family="sans-serif" font-size="13" lengthAdjust="spacing" textLength="21" x="899.8" y="714.4092">has</text><text fill="#000000" font-family="sans-serif" font-size="13" lengthAdjust="spacing" textLength="7" x="1245.3125" y="663.0844">1</text><text fill="#000000" font-family="sans-serif" font-size="13" lengthAdjust="spacing" textLength="7" x="503.061" y="710.0688">1</text></g><!--MD5=[6276a510343990cfac63dd37918d3e2d]
reverse link Course to TeacherRegistration--><g id="link_Course_TeacherRegistration"><path codeLine="85" d="M500.11,739.6406 C500.11,739.6406 530.46,739.6406 530.46,739.6406 " fill="none" id="Course-backto-TeacherRegistration" style="stroke:#181818;stroke-width:1.0;"/><polygon fill="#181818" points="495.11,739.6406,504.11,743.6406,500.11,739.6406,504.11,735.6406,495.11,739.6406" style="stroke:#181818;stroke-width:1.0;"/><text fill="#000000" font-family="sans-serif" font-size="13" lengthAdjust="spacing" textLength="21" x="504.78" y="752.4092">has</text><text fill="#000000" font-family="sans-serif" font-size="13" lengthAdjust="spacing" textLength="7" x="502.9662" y="736.125">1</text><text fill="#000000" font-family="sans-serif" font-size="13" lengthAdjust="spacing" textLength="7" x="515.4499" y="736.7669">1</text></g><!--MD5=[a173076291a710585db10629077a0321]
@startuml

hide methods

skinparam packageStyle rectangle
skinparam linetype ortho

top to bottom direction

title Domain Driven Design

package "<<aggregate>> User" <<Folder>> #ffb380 {

   entity User <<root>> <<entity>>{
        String fullName
        String shortName
    }

    class Role <<(V,#B8255F) value object>> {}
    class Password <<(V,#B8255F) value object>> {}
    class Email <<Id>> <<unique>> <<(V,#B8255F) value object>>  {}
    entity Student <<entity>>{}
    entity Teacher <<entity>>{}
    entity Manager <<entity>>{}

    User "1" *- -> "1" Email : has
    User "1" *- -> "1" Password : has
    User "1" *- -> "1" Role : has
    Manager "1" - -> "*" User : creates
    Manager - -|> User
    Student - -|> User
    Teacher - -|> User
}

package "<<aggregate>> Profile" <<Folder>> #99b3ff {
   entity Profile <<root>> <<entity>>{}

    class TeacherProfile <<entity>> {}
    class StudentProfile <<entity>> {}
    class ManagerProfile <<entity>> <<NullObject>> {}
    class TaxPayerNumber <<(V,#B8255F) value object>> {}
    class DateOfBirth <<(V,#B8255F) value object>> {}
    class MechanographicNumber <<(V,#B8255F) value object>> {}
    class Acronym <<(V,#B8255F) value object>> {}
    class Schedule <<entity>> {}
    class "Day" as ProfileDay <<(V,#B8255F) value object>> {}

    TeacherProfile - -|> Profile
    StudentProfile - -|> Profile
    ManagerProfile - -|> Profile
    TaxPayerNumber "1" <- -* "1" Profile : has
    DateOfBirth "1" <- -* "1" Profile : has
    MechanographicNumber "1" <- -* "1" StudentProfile : has
    Acronym "1" <- -* "1" TeacherProfile : has
    Schedule "1" <- -* "1" Profile : has
    ProfileDay "1..*" <- -* "1" Schedule : has
}
Profile "1" *- -> "1" User : has


package "<<aggregate>> Student Registration" <<Folder>> #ddaaaa {
    entity StudentRegistration <<root>> <<entity>>{
        }
     class "Status" as RegiStatusStudent <<(V,#B8255F) value object>> <<unique>> {}

    StudentRegistration "1" <- - "1" User : enrolls
    User "1" - -> "1" StudentRegistration : manages
    StudentRegistration "1" *- -> "1" RegiStatusStudent : has

}
package "<<aggregate>> Course" <<Folder>> #aabbbb {
   entity Course <<root>> <<entity>>{
    }
    class "Title" as CourseTitle <<(V,#B8255F) value object>> <<unique>> {}
    class Id <<(V,#B8255F) value object>> <<Id>> {}
    class CourseState as "State" <<(V,#B8255F) value object>> {}
    class Capacity <<(V,#B8255F) value object>> {}
    class EnrollementsState <<(V,#B8255F) value object>> {}

    CourseTitle "1" <- -* "1" Course : has
    Id "1" <- -* "1" Course : has
    CourseState "1" <- -* "1" Course : has
    Capacity "1" <- -* "1" Course : has
    EnrollementsState "1" <- -* "1" Course : has
    StudentRegistration "1" - -> "1" Course : has
    TeacherRegistration "1" -l-> "1" Course : has
}
@enduml

PlantUML version 1.2022.12(Sun Oct 23 19:12:26 WEST 2022)
(GPL source distribution)
Java Runtime: OpenJDK Runtime Environment
JVM: OpenJDK 64-Bit Server VM
Default Encoding: Cp1252
Language: pt
Country: PT
--></g></svg>