<?xml version="1.0" encoding="UTF-8" standalone="no"?><svg xmlns="http://www.w3.org/2000/svg" xmlns:xlink="http://www.w3.org/1999/xlink" contentStyleType="text/css" height="176.4px" preserveAspectRatio="none" style="width:399px;height:176px;background:#FFFFFF;" version="1.1" viewBox="0 0 399 176" width="399.6px" zoomAndPan="magnify"><defs/><g><rect fill="#FFFFFF" height="63.6563" style="stroke:#181818;stroke-width:0.6;" width="6" x="10.5" y="54.3844"/><rect fill="#FFFFFF" height="17.1141" style="stroke:#181818;stroke-width:0.6;" width="6" x="374.1" y="66.6984"/><rect fill="#FFFFFF" height="22.5141" style="stroke:#181818;stroke-width:0.6;" width="6" x="374.1" y="100.9266"/><line style="stroke:#181818;stroke-width:0.3;stroke-dasharray:5.0,5.0;" x1="13.2" x2="13.2" y1="48.3844" y2="128.8406"/><line style="stroke:#181818;stroke-width:0.3;stroke-dasharray:5.0,5.0;" x1="377.1" x2="377.1" y1="48.3844" y2="128.8406"/><text fill="#000000" font-family="sans-serif" font-size="8.4" lengthAdjust="spacing" textLength="17.4" x="3" y="46.6043">User</text><ellipse cx="13.5" cy="8.1" fill="#E2E2F0" rx="4.8" ry="4.8" style="stroke:#181818;stroke-width:0.3;"/><path d="M13.5,12.9 L13.5,29.1 M5.7,17.7 L21.3,17.7 M13.5,29.1 L5.7,38.1 M13.5,29.1 L21.3,38.1 " fill="none" style="stroke:#181818;stroke-width:0.3;"/><text fill="#000000" font-family="sans-serif" font-size="8.4" lengthAdjust="spacing" textLength="17.4" x="3" y="135.8449">User</text><ellipse cx="13.5" cy="142.725" fill="#E2E2F0" rx="4.8" ry="4.8" style="stroke:#181818;stroke-width:0.3;"/><path d="M13.5,147.525 L13.5,163.725 M5.7,152.325 L21.3,152.325 M13.5,163.725 L5.7,172.725 M13.5,163.725 L21.3,172.725 " fill="none" style="stroke:#181818;stroke-width:0.3;"/><rect fill="#E2E2F0" height="17.7844" rx="1.5" ry="1.5" style="stroke:#181818;stroke-width:0.3;" width="38.4" x="357.9" y="30"/><text fill="#000000" font-family="sans-serif" font-size="8.4" lengthAdjust="spacing" textLength="30" x="362.1" y="41.8043">:System</text><rect fill="#E2E2F0" height="17.7844" rx="1.5" ry="1.5" style="stroke:#181818;stroke-width:0.3;" width="38.4" x="357.9" y="128.2406"/><text fill="#000000" font-family="sans-serif" font-size="8.4" lengthAdjust="spacing" textLength="30" x="362.1" y="140.0449">:System</text><rect fill="#FFFFFF" height="63.6563" style="stroke:#181818;stroke-width:0.6;" width="6" x="10.5" y="54.3844"/><rect fill="#FFFFFF" height="17.1141" style="stroke:#181818;stroke-width:0.6;" width="6" x="374.1" y="66.6984"/><rect fill="#FFFFFF" height="22.5141" style="stroke:#181818;stroke-width:0.6;" width="6" x="374.1" y="100.9266"/><polygon fill="#181818" points="366.9,64.2984,372.9,66.6984,366.9,69.0984,369.3,66.6984" style="stroke:#181818;stroke-width:0.6;"/><line style="stroke:#181818;stroke-width:0.6;" x1="16.5" x2="370.5" y1="66.6984" y2="66.6984"/><text fill="#000000" font-family="sans-serif" font-size="7.8" font-weight="bold" lengthAdjust="spacing" textLength="4.2" x="20.7" y="63.8455">1</text><text fill="#000000" font-family="sans-serif" font-size="7.8" lengthAdjust="spacing" textLength="76.8" x="27.3" y="63.8455">Create a SharedBoard</text><polygon fill="#181818" points="23.1,81.4125,17.1,83.8125,23.1,86.2125,20.7,83.8125" style="stroke:#181818;stroke-width:0.6;"/><line style="stroke:#181818;stroke-width:0.6;stroke-dasharray:2.0,2.0;" x1="19.5" x2="376.5" y1="83.8125" y2="83.8125"/><text fill="#000000" font-family="sans-serif" font-size="7.8" font-weight="bold" lengthAdjust="spacing" textLength="4.2" x="26.7" y="80.9596">2</text><text fill="#000000" font-family="sans-serif" font-size="7.8" lengthAdjust="spacing" textLength="336.6" x="33.3" y="80.9596">Requests data (title,numRows, numColumns,columnTitle, rowTitle, pathname, sharedBoardState)</text><polygon fill="#181818" points="366.9,98.5266,372.9,100.9266,366.9,103.3266,369.3,100.9266" style="stroke:#181818;stroke-width:0.6;"/><line style="stroke:#181818;stroke-width:0.6;" x1="16.5" x2="370.5" y1="100.9266" y2="100.9266"/><text fill="#000000" font-family="sans-serif" font-size="7.8" font-weight="bold" lengthAdjust="spacing" textLength="4.2" x="20.7" y="98.0736">3</text><text fill="#000000" font-family="sans-serif" font-size="7.8" lengthAdjust="spacing" textLength="38.4" x="27.3" y="98.0736">inputs data</text><polygon fill="#181818" points="20.1,115.6406,14.1,118.0406,20.1,120.4406,17.7,118.0406" style="stroke:#181818;stroke-width:0.6;"/><line style="stroke:#181818;stroke-width:0.6;stroke-dasharray:2.0,2.0;" x1="16.5" x2="373.5" y1="118.0406" y2="118.0406"/><text fill="#000000" font-family="sans-serif" font-size="7.8" font-weight="bold" lengthAdjust="spacing" textLength="4.2" x="23.7" y="115.1877">4</text><text fill="#000000" font-family="sans-serif" font-size="7.8" lengthAdjust="spacing" textLength="71.4" x="30.3" y="115.1877">Confirms registration</text><!--MD5=[a25dbd09c84df839b35dd0a3adae92df]
@startuml

autonumber
actor "User" as User

activate User

User -> ":System" : Create a SharedBoard
activate ":System"
":System" - -> User : Requests data (title,numRows, numColumns,columnTitle, rowTitle, pathname, sharedBoardState)
deactivate ":System"
User -> ":System" : inputs data
activate ":System"
":System" - -> User :Confirms registration
deactivate User

@enduml

PlantUML version 1.2022.12(Sun Oct 23 19:12:26 WEST 2022)
(GPL source distribution)
Java Runtime: OpenJDK Runtime Environment
JVM: OpenJDK 64-Bit Server VM
Default Encoding: Cp1252
Language: pt
Country: PT
--></g></svg>