<?xml version="1.0" encoding="UTF-8" standalone="no"?><svg xmlns="http://www.w3.org/2000/svg" xmlns:xlink="http://www.w3.org/1999/xlink" contentStyleType="text/css" height="470.4px" preserveAspectRatio="none" style="width:1290px;height:470px;background:#FFFFFF;" version="1.1" viewBox="0 0 1290 470" width="1290.8px" zoomAndPan="magnify"><defs/><g><rect fill="none" height="17.9484" id="_title" style="stroke:none;stroke-width:0.6999999999999998;" width="116.2" x="582.4" y="3.5"/><text fill="#000000" font-family="sans-serif" font-size="9.8" font-weight="bold" lengthAdjust="spacing" textLength="109.2" x="585.9" y="15.8717">Domain Driven Design</text><!--MD5=[597c9b6a35d8038d4b40fd8870ba90aa]
cluster <<aggregate>> User--><g id="cluster_&lt;&lt;aggregate&gt;&gt; User"><path d="M5.95,193.2984 L105.35,193.2984 A2.625,2.625 0 0 1 107.1,195.0484 L112,208.4469 L303.45,208.4469 A1.75,1.75 0 0 1 305.2,210.1969 L305.2,464.1984 A1.75,1.75 0 0 1 303.45,465.9484 L5.95,465.9484 A1.75,1.75 0 0 1 4.2,464.1984 L4.2,195.0484 A1.75,1.75 0 0 1 5.95,193.2984 " fill="#FFB380" style="stroke:#000000;stroke-width:1.0499999999999998;"/><line style="stroke:#000000;stroke-width:1.0499999999999998;" x1="4.2" x2="112" y1="208.4469" y2="208.4469"/><text fill="#000000" font-family="sans-serif" font-size="9.8" font-weight="bold" lengthAdjust="spacing" textLength="98.7" x="7" y="203.5701">&lt;&lt;aggregate&gt;&gt; User</text></g><!--MD5=[345d2926e9f5d576001f82e13aea4ac3]
cluster <<aggregate>> Profile--><g id="cluster_&lt;&lt;aggregate&gt;&gt; Profile"><path d="M641.55,29.8484 L750.05,29.8484 A2.625,2.625 0 0 1 751.8,31.5984 L756.7,44.9969 L1284.15,44.9969 A1.75,1.75 0 0 1 1285.9,46.7469 L1285.9,263.9984 A1.75,1.75 0 0 1 1284.15,265.7484 L641.55,265.7484 A1.75,1.75 0 0 1 639.8,263.9984 L639.8,31.5984 A1.75,1.75 0 0 1 641.55,29.8484 " fill="#99B3FF" style="stroke:#000000;stroke-width:1.0499999999999998;"/><line style="stroke:#000000;stroke-width:1.0499999999999998;" x1="639.8" x2="756.7" y1="44.9969" y2="44.9969"/><text fill="#000000" font-family="sans-serif" font-size="9.8" font-weight="bold" lengthAdjust="spacing" textLength="107.8" x="642.6" y="40.1201">&lt;&lt;aggregate&gt;&gt; Profile</text></g><!--MD5=[edde2cde88c7910514dcd6871a142e26]
cluster <<aggregate>> Meeting--><g id="cluster_&lt;&lt;aggregate&gt;&gt; Meeting"><path d="M323.75,104.7484 L440.65,104.7484 A2.625,2.625 0 0 1 442.4,106.4984 L447.3,119.8969 L621.25,119.8969 A1.75,1.75 0 0 1 623,121.6469 L623,263.9984 A1.75,1.75 0 0 1 621.25,265.7484 L323.75,265.7484 A1.75,1.75 0 0 1 322,263.9984 L322,106.4984 A1.75,1.75 0 0 1 323.75,104.7484 " fill="#AABBAA" style="stroke:#000000;stroke-width:1.0499999999999998;"/><line style="stroke:#000000;stroke-width:1.0499999999999998;" x1="322" x2="447.3" y1="119.8969" y2="119.8969"/><text fill="#000000" font-family="sans-serif" font-size="9.8" font-weight="bold" lengthAdjust="spacing" textLength="116.2" x="324.8" y="115.0201">&lt;&lt;aggregate&gt;&gt; Meeting</text></g><!--MD5=[3fd616f346a44cd59a91eb10b19e157c]
class User--><g id="elem_User"><rect codeLine="13" fill="#F1F1F1" height="64.2141" id="User" rx="1.75" ry="1.75" style="stroke:#181818;stroke-width:0.3499999999999999;" width="84.7" x="174.65" y="296.5484"/><ellipse cx="200.9" cy="314.907" fill="#ADD1B2" rx="7.7" ry="7.7" style="stroke:#181818;stroke-width:0.6999999999999998;"/><path d="M200.1016,315.4648 L200.1016,317.2148 L203.1312,317.2148 L203.1312,316.5695 Q203.1312,316.143 203.2953,315.957 Q203.4703,315.7711 203.7328,315.7711 Q203.9953,315.7711 204.1594,315.957 Q204.3234,316.143 204.3234,316.5695 L204.3234,318.407 L198.7234,318.407 Q198.2859,318.407 198.1,318.243 Q197.925,318.0789 197.925,317.8055 Q197.925,317.543 198.1109,317.3789 Q198.2969,317.2148 198.7234,317.2148 L198.9094,317.2148 L198.9094,312.5555 L198.7234,312.5555 Q198.2859,312.5555 198.1,312.3914 Q197.925,312.2273 197.925,311.9539 Q197.925,311.6914 198.1,311.5273 Q198.2859,311.3633 198.7234,311.3633 L204.0609,311.3633 L204.0609,313.1789 Q204.0609,313.6055 203.8969,313.7914 Q203.7437,313.9664 203.4703,313.9664 Q203.2078,313.9664 203.0437,313.7914 Q202.8797,313.6055 202.8797,313.1789 L202.8797,312.5555 L200.1016,312.5555 L200.1016,314.2727 L201.1406,314.2727 Q201.1406,313.8133 201.2281,313.682 Q201.4141,313.3977 201.7422,313.3977 Q202.0047,313.3977 202.1687,313.5836 Q202.3328,313.7586 202.3328,314.1852 L202.3328,315.5633 Q202.3328,315.9461 202.2453,316.0773 Q202.0594,316.3508 201.7422,316.3508 Q201.4141,316.3508 201.2281,316.0664 Q201.1406,315.9352 201.1406,315.4648 L200.1016,315.4648 Z " fill="#000000"/><text fill="#000000" font-family="sans-serif" font-size="8.4" font-style="italic" lengthAdjust="spacing" textLength="24.5" x="215.6" y="307.6527">«root»</text><text fill="#000000" font-family="sans-serif" font-size="8.4" font-style="italic" lengthAdjust="spacing" textLength="30.1" x="212.8" y="317.0371">«entity»</text><text fill="#000000" font-family="sans-serif" font-size="9.8" lengthAdjust="spacing" textLength="20.3" x="217.7" y="327.6889">User</text><line style="stroke:#181818;stroke-width:0.3499999999999999;" x1="175.35" x2="258.65" y1="333.2656" y2="333.2656"/><text fill="#000000" font-family="sans-serif" font-size="9.8" lengthAdjust="spacing" textLength="66.5" x="178.85" y="344.9373">String fullName</text><text fill="#000000" font-family="sans-serif" font-size="9.8" lengthAdjust="spacing" textLength="76.3" x="178.85" y="355.8857">String shortName</text></g><!--MD5=[a3638c1e5b65d287ecad7f06f5c0f212]
class Role--><g id="elem_Role"><rect codeLine="18" fill="#F1F1F1" height="32.9328" id="Role" rx="1.75" ry="1.75" style="stroke:#181818;stroke-width:0.3499999999999999;" width="76.3" x="15.75" y="412.3984"/><ellipse cx="26.25" cy="426.0648" fill="#B8255F" rx="7.7" ry="7.7" style="stroke:#181818;stroke-width:0.6999999999999998;"/><path d="M26.6656,428.3508 L28.3937,424.2383 L28.1203,424.2383 Q27.6937,424.2383 27.5078,424.0742 Q27.3219,423.9102 27.3219,423.6367 Q27.3219,423.3742 27.5078,423.2102 Q27.6937,423.0461 28.1203,423.0461 L29.7172,423.0461 Q30.1437,423.0461 30.3297,423.2102 Q30.5156,423.3742 30.5156,423.6367 Q30.5156,423.9648 30.2312,424.1508 Q30.1,424.2383 29.6844,424.2383 L27.2453,430.0898 L26.0969,430.0898 L23.6578,424.2383 Q23.2422,424.2383 23.1109,424.1508 Q22.8266,423.9648 22.8266,423.6367 Q22.8266,423.3742 23.0125,423.2102 Q23.1984,423.0461 23.625,423.0461 L25.2328,423.0461 Q25.6594,423.0461 25.8344,423.2102 Q26.0203,423.3742 26.0203,423.6367 Q26.0203,423.9102 25.8344,424.0742 Q25.6594,424.2383 25.2328,424.2383 L24.9484,424.2383 L26.6656,428.3508 Z " fill="#000000"/><text fill="#000000" font-family="sans-serif" font-size="8.4" font-style="italic" lengthAdjust="spacing" textLength="56.7" x="34.65" y="423.5027">«value object»</text><text fill="#000000" font-family="sans-serif" font-size="9.8" lengthAdjust="spacing" textLength="20.3" x="52.85" y="434.1545">Role</text><line style="stroke:#181818;stroke-width:0.3499999999999999;" x1="16.45" x2="91.35" y1="439.7312" y2="439.7312"/></g><!--MD5=[2f01b1126ff33a0669651ec2488a5ef9]
class Password--><g id="elem_Password"><rect codeLine="19" fill="#F1F1F1" height="32.9328" id="Password" rx="1.75" ry="1.75" style="stroke:#181818;stroke-width:0.3499999999999999;" width="76.3" x="116.55" y="412.3984"/><ellipse cx="127.05" cy="426.0648" fill="#B8255F" rx="7.7" ry="7.7" style="stroke:#181818;stroke-width:0.6999999999999998;"/><path d="M127.4656,428.3508 L129.1937,424.2383 L128.9203,424.2383 Q128.4937,424.2383 128.3078,424.0742 Q128.1219,423.9102 128.1219,423.6367 Q128.1219,423.3742 128.3078,423.2102 Q128.4937,423.0461 128.9203,423.0461 L130.5172,423.0461 Q130.9437,423.0461 131.1297,423.2102 Q131.3156,423.3742 131.3156,423.6367 Q131.3156,423.9648 131.0312,424.1508 Q130.9,424.2383 130.4844,424.2383 L128.0453,430.0898 L126.8969,430.0898 L124.4578,424.2383 Q124.0422,424.2383 123.9109,424.1508 Q123.6266,423.9648 123.6266,423.6367 Q123.6266,423.3742 123.8125,423.2102 Q123.9984,423.0461 124.425,423.0461 L126.0328,423.0461 Q126.4594,423.0461 126.6344,423.2102 Q126.8203,423.3742 126.8203,423.6367 Q126.8203,423.9102 126.6344,424.0742 Q126.4594,424.2383 126.0328,424.2383 L125.7484,424.2383 L127.4656,428.3508 Z " fill="#000000"/><text fill="#000000" font-family="sans-serif" font-size="8.4" font-style="italic" lengthAdjust="spacing" textLength="56.7" x="135.45" y="423.5027">«value object»</text><text fill="#000000" font-family="sans-serif" font-size="9.8" lengthAdjust="spacing" textLength="42.7" x="142.45" y="434.1545">Password</text><line style="stroke:#181818;stroke-width:0.3499999999999999;" x1="117.25" x2="192.15" y1="439.7312" y2="439.7312"/></g><!--MD5=[78bec0fde86ad92ec1dc3fb343b83709]
class Email--><g id="elem_Email"><rect codeLine="20" fill="#F1F1F1" height="51.7016" id="Email" rx="1.75" ry="1.75" style="stroke:#181818;stroke-width:0.3499999999999999;" width="76.3" x="217.35" y="402.9484"/><ellipse cx="227.85" cy="425.9992" fill="#B8255F" rx="7.7" ry="7.7" style="stroke:#181818;stroke-width:0.6999999999999998;"/><path d="M228.2656,428.2852 L229.9937,424.1727 L229.7203,424.1727 Q229.2937,424.1727 229.1078,424.0086 Q228.9219,423.8445 228.9219,423.5711 Q228.9219,423.3086 229.1078,423.1445 Q229.2937,422.9805 229.7203,422.9805 L231.3172,422.9805 Q231.7437,422.9805 231.9297,423.1445 Q232.1156,423.3086 232.1156,423.5711 Q232.1156,423.8992 231.8312,424.0852 Q231.7,424.1727 231.2844,424.1727 L228.8453,430.0242 L227.6969,430.0242 L225.2578,424.1727 Q224.8422,424.1727 224.7109,424.0852 Q224.4266,423.8992 224.4266,423.5711 Q224.4266,423.3086 224.6125,423.1445 Q224.7984,422.9805 225.225,422.9805 L226.8328,422.9805 Q227.2594,422.9805 227.4344,423.1445 Q227.6203,423.3086 227.6203,423.5711 Q227.6203,423.8445 227.4344,424.0086 Q227.2594,424.1727 226.8328,424.1727 L226.5484,424.1727 L228.2656,428.2852 Z " fill="#000000"/><text fill="#000000" font-family="sans-serif" font-size="8.4" font-style="italic" lengthAdjust="spacing" textLength="17.5" x="255.85" y="414.0527">«Id»</text><text fill="#000000" font-family="sans-serif" font-size="8.4" font-style="italic" lengthAdjust="spacing" textLength="36.4" x="246.4" y="423.4371">«unique»</text><text fill="#000000" font-family="sans-serif" font-size="8.4" font-style="italic" lengthAdjust="spacing" textLength="56.7" x="236.25" y="432.8215">«value object»</text><text fill="#000000" font-family="sans-serif" font-size="9.8" lengthAdjust="spacing" textLength="23.8" x="252.7" y="443.4732">Email</text><line style="stroke:#181818;stroke-width:0.3499999999999999;" x1="218.05" x2="292.95" y1="449.05" y2="449.05"/></g><!--MD5=[d6181cb537bdc20c0a3007a98a56832d]
class Student--><g id="elem_Student"><rect codeLine="21" fill="#F1F1F1" height="32.9328" id="Student" rx="1.75" ry="1.75" style="stroke:#181818;stroke-width:0.3499999999999999;" width="56.7" x="236.95" y="217.0984"/><ellipse cx="247.45" cy="230.7648" fill="#ADD1B2" rx="7.7" ry="7.7" style="stroke:#181818;stroke-width:0.6999999999999998;"/><path d="M246.6516,231.3227 L246.6516,233.0727 L249.6812,233.0727 L249.6812,232.4273 Q249.6812,232.0008 249.8453,231.8148 Q250.0203,231.6289 250.2828,231.6289 Q250.5453,231.6289 250.7094,231.8148 Q250.8734,232.0008 250.8734,232.4273 L250.8734,234.2648 L245.2734,234.2648 Q244.8359,234.2648 244.65,234.1008 Q244.475,233.9367 244.475,233.6633 Q244.475,233.4008 244.6609,233.2367 Q244.8469,233.0727 245.2734,233.0727 L245.4594,233.0727 L245.4594,228.4133 L245.2734,228.4133 Q244.8359,228.4133 244.65,228.2492 Q244.475,228.0852 244.475,227.8117 Q244.475,227.5492 244.65,227.3852 Q244.8359,227.2211 245.2734,227.2211 L250.6109,227.2211 L250.6109,229.0367 Q250.6109,229.4633 250.4469,229.6492 Q250.2937,229.8242 250.0203,229.8242 Q249.7578,229.8242 249.5937,229.6492 Q249.4297,229.4633 249.4297,229.0367 L249.4297,228.4133 L246.6516,228.4133 L246.6516,230.1305 L247.6906,230.1305 Q247.6906,229.6711 247.7781,229.5398 Q247.9641,229.2555 248.2922,229.2555 Q248.5547,229.2555 248.7187,229.4414 Q248.8828,229.6164 248.8828,230.043 L248.8828,231.4211 Q248.8828,231.8039 248.7953,231.9352 Q248.6094,232.2086 248.2922,232.2086 Q247.9641,232.2086 247.7781,231.9242 Q247.6906,231.793 247.6906,231.3227 L246.6516,231.3227 Z " fill="#000000"/><text fill="#000000" font-family="sans-serif" font-size="8.4" font-style="italic" lengthAdjust="spacing" textLength="30.1" x="259.35" y="228.2027">«entity»</text><text fill="#000000" font-family="sans-serif" font-size="9.8" lengthAdjust="spacing" textLength="34.3" x="257.25" y="238.8545">Student</text><line style="stroke:#181818;stroke-width:0.3499999999999999;" x1="237.65" x2="292.95" y1="244.4312" y2="244.4312"/></g><!--MD5=[61a83f88cb8b7d3a80bc8c481f3736bf]
class Teacher--><g id="elem_Teacher"><rect codeLine="22" fill="#F1F1F1" height="32.9328" id="Teacher" rx="1.75" ry="1.75" style="stroke:#181818;stroke-width:0.3499999999999999;" width="59.5" x="152.95" y="217.0984"/><ellipse cx="163.45" cy="230.7648" fill="#ADD1B2" rx="7.7" ry="7.7" style="stroke:#181818;stroke-width:0.6999999999999998;"/><path d="M162.6516,231.3227 L162.6516,233.0727 L165.6812,233.0727 L165.6812,232.4273 Q165.6812,232.0008 165.8453,231.8148 Q166.0203,231.6289 166.2828,231.6289 Q166.5453,231.6289 166.7094,231.8148 Q166.8734,232.0008 166.8734,232.4273 L166.8734,234.2648 L161.2734,234.2648 Q160.8359,234.2648 160.65,234.1008 Q160.475,233.9367 160.475,233.6633 Q160.475,233.4008 160.6609,233.2367 Q160.8469,233.0727 161.2734,233.0727 L161.4594,233.0727 L161.4594,228.4133 L161.2734,228.4133 Q160.8359,228.4133 160.65,228.2492 Q160.475,228.0852 160.475,227.8117 Q160.475,227.5492 160.65,227.3852 Q160.8359,227.2211 161.2734,227.2211 L166.6109,227.2211 L166.6109,229.0367 Q166.6109,229.4633 166.4469,229.6492 Q166.2937,229.8242 166.0203,229.8242 Q165.7578,229.8242 165.5937,229.6492 Q165.4297,229.4633 165.4297,229.0367 L165.4297,228.4133 L162.6516,228.4133 L162.6516,230.1305 L163.6906,230.1305 Q163.6906,229.6711 163.7781,229.5398 Q163.9641,229.2555 164.2922,229.2555 Q164.5547,229.2555 164.7187,229.4414 Q164.8828,229.6164 164.8828,230.043 L164.8828,231.4211 Q164.8828,231.8039 164.7953,231.9352 Q164.6094,232.2086 164.2922,232.2086 Q163.9641,232.2086 163.7781,231.9242 Q163.6906,231.793 163.6906,231.3227 L162.6516,231.3227 Z " fill="#000000"/><text fill="#000000" font-family="sans-serif" font-size="8.4" font-style="italic" lengthAdjust="spacing" textLength="30.1" x="176.75" y="228.2027">«entity»</text><text fill="#000000" font-family="sans-serif" font-size="9.8" lengthAdjust="spacing" textLength="37.1" x="173.25" y="238.8545">Teacher</text><line style="stroke:#181818;stroke-width:0.3499999999999999;" x1="153.65" x2="211.75" y1="244.4312" y2="244.4312"/></g><!--MD5=[b24ed8d4ae84bae9290d9aab401637c7]
class Manager--><g id="elem_Manager"><rect codeLine="23" fill="#F1F1F1" height="32.9328" id="Manager" rx="1.75" ry="1.75" style="stroke:#181818;stroke-width:0.3499999999999999;" width="61.6" x="66.5" y="217.0984"/><ellipse cx="77" cy="230.7648" fill="#ADD1B2" rx="7.7" ry="7.7" style="stroke:#181818;stroke-width:0.6999999999999998;"/><path d="M76.2016,231.3227 L76.2016,233.0727 L79.2312,233.0727 L79.2312,232.4273 Q79.2312,232.0008 79.3953,231.8148 Q79.5703,231.6289 79.8328,231.6289 Q80.0953,231.6289 80.2594,231.8148 Q80.4234,232.0008 80.4234,232.4273 L80.4234,234.2648 L74.8234,234.2648 Q74.3859,234.2648 74.2,234.1008 Q74.025,233.9367 74.025,233.6633 Q74.025,233.4008 74.2109,233.2367 Q74.3969,233.0727 74.8234,233.0727 L75.0094,233.0727 L75.0094,228.4133 L74.8234,228.4133 Q74.3859,228.4133 74.2,228.2492 Q74.025,228.0852 74.025,227.8117 Q74.025,227.5492 74.2,227.3852 Q74.3859,227.2211 74.8234,227.2211 L80.1609,227.2211 L80.1609,229.0367 Q80.1609,229.4633 79.9969,229.6492 Q79.8437,229.8242 79.5703,229.8242 Q79.3078,229.8242 79.1437,229.6492 Q78.9797,229.4633 78.9797,229.0367 L78.9797,228.4133 L76.2016,228.4133 L76.2016,230.1305 L77.2406,230.1305 Q77.2406,229.6711 77.3281,229.5398 Q77.5141,229.2555 77.8422,229.2555 Q78.1047,229.2555 78.2687,229.4414 Q78.4328,229.6164 78.4328,230.043 L78.4328,231.4211 Q78.4328,231.8039 78.3453,231.9352 Q78.1594,232.2086 77.8422,232.2086 Q77.5141,232.2086 77.3281,231.9242 Q77.2406,231.793 77.2406,231.3227 L76.2016,231.3227 Z " fill="#000000"/><text fill="#000000" font-family="sans-serif" font-size="8.4" font-style="italic" lengthAdjust="spacing" textLength="30.1" x="91.35" y="228.2027">«entity»</text><text fill="#000000" font-family="sans-serif" font-size="9.8" lengthAdjust="spacing" textLength="39.2" x="86.8" y="238.8545">Manager</text><line style="stroke:#181818;stroke-width:0.3499999999999999;" x1="67.2" x2="127.4" y1="244.4312" y2="244.4312"/></g><!--MD5=[7b57f7066b803747d2119f99dd1555d4]
class Profile--><g id="elem_Profile"><rect codeLine="37" fill="#F1F1F1" height="42.3172" id="Profile" rx="1.75" ry="1.75" style="stroke:#181818;stroke-width:0.3499999999999999;" width="50.4" x="868.7" y="212.5484"/><ellipse cx="879.2" cy="230.907" fill="#ADD1B2" rx="7.7" ry="7.7" style="stroke:#181818;stroke-width:0.6999999999999998;"/><path d="M878.4016,231.4648 L878.4016,233.2148 L881.4312,233.2148 L881.4312,232.5695 Q881.4312,232.143 881.5953,231.957 Q881.7703,231.7711 882.0328,231.7711 Q882.2953,231.7711 882.4594,231.957 Q882.6234,232.143 882.6234,232.5695 L882.6234,234.407 L877.0234,234.407 Q876.5859,234.407 876.4,234.243 Q876.225,234.0789 876.225,233.8055 Q876.225,233.543 876.4109,233.3789 Q876.5969,233.2148 877.0234,233.2148 L877.2094,233.2148 L877.2094,228.5555 L877.0234,228.5555 Q876.5859,228.5555 876.4,228.3914 Q876.225,228.2273 876.225,227.9539 Q876.225,227.6914 876.4,227.5273 Q876.5859,227.3633 877.0234,227.3633 L882.3609,227.3633 L882.3609,229.1789 Q882.3609,229.6055 882.1969,229.7914 Q882.0437,229.9664 881.7703,229.9664 Q881.5078,229.9664 881.3437,229.7914 Q881.1797,229.6055 881.1797,229.1789 L881.1797,228.5555 L878.4016,228.5555 L878.4016,230.2727 L879.4406,230.2727 Q879.4406,229.8133 879.5281,229.682 Q879.7141,229.3977 880.0422,229.3977 Q880.3047,229.3977 880.4687,229.5836 Q880.6328,229.7586 880.6328,230.1852 L880.6328,231.5633 Q880.6328,231.9461 880.5453,232.0773 Q880.3594,232.3508 880.0422,232.3508 Q879.7141,232.3508 879.5281,232.0664 Q879.4406,231.9352 879.4406,231.4648 L878.4016,231.4648 Z " fill="#000000"/><text fill="#000000" font-family="sans-serif" font-size="8.4" font-style="italic" lengthAdjust="spacing" textLength="24.5" x="890.75" y="223.6527">«root»</text><text fill="#000000" font-family="sans-serif" font-size="8.4" font-style="italic" lengthAdjust="spacing" textLength="30.1" x="887.95" y="233.0371">«entity»</text><text fill="#000000" font-family="sans-serif" font-size="9.8" lengthAdjust="spacing" textLength="28" x="889" y="243.6889">Profile</text><line style="stroke:#181818;stroke-width:0.3499999999999999;" x1="869.4" x2="918.4" y1="249.2656" y2="249.2656"/></g><!--MD5=[e8e4e5930fae63cd70e278d3ab742cd3]
class TeacherProfile--><g id="elem_TeacherProfile"><rect codeLine="39" fill="#F1F1F1" height="32.9328" id="TeacherProfile" rx="1.75" ry="1.75" style="stroke:#181818;stroke-width:0.3499999999999999;" width="87.5" x="739.55" y="133.0984"/><ellipse cx="750.05" cy="146.7648" fill="#ADD1B2" rx="7.7" ry="7.7" style="stroke:#181818;stroke-width:0.6999999999999998;"/><path d="M751.9859,143.8773 Q752.0953,143.7242 752.2266,143.6477 Q752.3578,143.5711 752.5109,143.5711 Q752.7734,143.5711 752.9375,143.757 Q753.1016,143.932 753.1016,144.3586 L753.1016,145.3758 Q753.1016,145.8023 752.9375,145.9883 Q752.7734,146.1742 752.5109,146.1742 Q752.2703,146.1742 752.1281,146.032 Q751.9859,145.9008 751.9094,145.5398 Q751.8766,145.2883 751.7453,145.157 Q751.5156,144.8945 751.0891,144.7414 Q750.6625,144.5883 750.225,144.5883 Q749.6891,144.5883 749.2406,144.818 Q748.8031,145.0477 748.4531,145.5727 Q748.1141,146.0977 748.1141,146.8195 L748.1141,147.5852 Q748.1141,148.4492 748.7375,149.0289 Q749.3609,149.5977 750.4766,149.5977 Q751.1328,149.5977 751.5922,149.4227 Q751.8656,149.3133 752.1609,149.007 Q752.3469,148.8211 752.4453,148.7664 Q752.5547,148.7117 752.6969,148.7117 Q752.9266,148.7117 753.1016,148.8977 Q753.2875,149.0727 753.2875,149.3133 Q753.2875,149.5539 753.0469,149.8383 Q752.6969,150.243 752.1391,150.4727 Q751.3844,150.7898 750.4766,150.7898 Q749.4156,150.7898 748.5734,150.3523 Q747.8844,150.0023 747.4031,149.2586 Q746.9219,148.5039 746.9219,147.607 L746.9219,146.7977 Q746.9219,145.868 747.3484,145.0695 Q747.7859,144.2602 748.5516,143.8336 Q749.3172,143.3961 750.1812,143.3961 Q750.6953,143.3961 751.1437,143.5164 Q751.6031,143.6258 751.9859,143.8773 Z " fill="#000000"/><text fill="#000000" font-family="sans-serif" font-size="8.4" font-style="italic" lengthAdjust="spacing" textLength="30.1" x="777.35" y="144.2027">«entity»</text><text fill="#000000" font-family="sans-serif" font-size="9.8" lengthAdjust="spacing" textLength="65.1" x="759.85" y="154.8545">TeacherProfile</text><line style="stroke:#181818;stroke-width:0.3499999999999999;" x1="740.25" x2="826.35" y1="160.4312" y2="160.4312"/></g><!--MD5=[21a6163d0bed51676eae0f856b5f6ecb]
class StudentProfile--><g id="elem_StudentProfile"><rect codeLine="40" fill="#F1F1F1" height="32.9328" id="StudentProfile" rx="1.75" ry="1.75" style="stroke:#181818;stroke-width:0.3499999999999999;" width="84.7" x="851.55" y="133.0984"/><ellipse cx="862.05" cy="146.7648" fill="#ADD1B2" rx="7.7" ry="7.7" style="stroke:#181818;stroke-width:0.6999999999999998;"/><path d="M863.9859,143.8773 Q864.0953,143.7242 864.2266,143.6477 Q864.3578,143.5711 864.5109,143.5711 Q864.7734,143.5711 864.9375,143.757 Q865.1016,143.932 865.1016,144.3586 L865.1016,145.3758 Q865.1016,145.8023 864.9375,145.9883 Q864.7734,146.1742 864.5109,146.1742 Q864.2703,146.1742 864.1281,146.032 Q863.9859,145.9008 863.9094,145.5398 Q863.8766,145.2883 863.7453,145.157 Q863.5156,144.8945 863.0891,144.7414 Q862.6625,144.5883 862.225,144.5883 Q861.6891,144.5883 861.2406,144.818 Q860.8031,145.0477 860.4531,145.5727 Q860.1141,146.0977 860.1141,146.8195 L860.1141,147.5852 Q860.1141,148.4492 860.7375,149.0289 Q861.3609,149.5977 862.4766,149.5977 Q863.1328,149.5977 863.5922,149.4227 Q863.8656,149.3133 864.1609,149.007 Q864.3469,148.8211 864.4453,148.7664 Q864.5547,148.7117 864.6969,148.7117 Q864.9266,148.7117 865.1016,148.8977 Q865.2875,149.0727 865.2875,149.3133 Q865.2875,149.5539 865.0469,149.8383 Q864.6969,150.243 864.1391,150.4727 Q863.3844,150.7898 862.4766,150.7898 Q861.4156,150.7898 860.5734,150.3523 Q859.8844,150.0023 859.4031,149.2586 Q858.9219,148.5039 858.9219,147.607 L858.9219,146.7977 Q858.9219,145.868 859.3484,145.0695 Q859.7859,144.2602 860.5516,143.8336 Q861.3172,143.3961 862.1812,143.3961 Q862.6953,143.3961 863.1437,143.5164 Q863.6031,143.6258 863.9859,143.8773 Z " fill="#000000"/><text fill="#000000" font-family="sans-serif" font-size="8.4" font-style="italic" lengthAdjust="spacing" textLength="30.1" x="887.95" y="144.2027">«entity»</text><text fill="#000000" font-family="sans-serif" font-size="9.8" lengthAdjust="spacing" textLength="62.3" x="871.85" y="154.8545">StudentProfile</text><line style="stroke:#181818;stroke-width:0.3499999999999999;" x1="852.25" x2="935.55" y1="160.4312" y2="160.4312"/></g><!--MD5=[684494e934d4ef2a2d5a02e84740ac0e]
class ManagerProfile--><g id="elem_ManagerProfile"><rect codeLine="41" fill="#F1F1F1" height="42.3172" id="ManagerProfile" rx="1.75" ry="1.75" style="stroke:#181818;stroke-width:0.3499999999999999;" width="89.6" x="1185.1" y="128.5484"/><ellipse cx="1195.6" cy="146.907" fill="#ADD1B2" rx="7.7" ry="7.7" style="stroke:#181818;stroke-width:0.6999999999999998;"/><path d="M1197.5359,144.0195 Q1197.6453,143.8664 1197.7766,143.7898 Q1197.9078,143.7133 1198.0609,143.7133 Q1198.3234,143.7133 1198.4875,143.8992 Q1198.6516,144.0742 1198.6516,144.5008 L1198.6516,145.518 Q1198.6516,145.9445 1198.4875,146.1305 Q1198.3234,146.3164 1198.0609,146.3164 Q1197.8203,146.3164 1197.6781,146.1742 Q1197.5359,146.043 1197.4594,145.682 Q1197.4266,145.4305 1197.2953,145.2992 Q1197.0656,145.0367 1196.6391,144.8836 Q1196.2125,144.7305 1195.775,144.7305 Q1195.2391,144.7305 1194.7906,144.9602 Q1194.3531,145.1898 1194.0031,145.7148 Q1193.6641,146.2398 1193.6641,146.9617 L1193.6641,147.7273 Q1193.6641,148.5914 1194.2875,149.1711 Q1194.9109,149.7398 1196.0266,149.7398 Q1196.6828,149.7398 1197.1422,149.5648 Q1197.4156,149.4555 1197.7109,149.1492 Q1197.8969,148.9633 1197.9953,148.9086 Q1198.1047,148.8539 1198.2469,148.8539 Q1198.4766,148.8539 1198.6516,149.0398 Q1198.8375,149.2148 1198.8375,149.4555 Q1198.8375,149.6961 1198.5969,149.9805 Q1198.2469,150.3852 1197.6891,150.6148 Q1196.9344,150.932 1196.0266,150.932 Q1194.9656,150.932 1194.1234,150.4945 Q1193.4344,150.1445 1192.9531,149.4008 Q1192.4719,148.6461 1192.4719,147.7492 L1192.4719,146.9398 Q1192.4719,146.0102 1192.8984,145.2117 Q1193.3359,144.4023 1194.1016,143.9758 Q1194.8672,143.5383 1195.7312,143.5383 Q1196.2453,143.5383 1196.6937,143.6586 Q1197.1531,143.768 1197.5359,144.0195 Z " fill="#000000"/><text fill="#000000" font-family="sans-serif" font-size="8.4" font-style="italic" lengthAdjust="spacing" textLength="30.1" x="1223.95" y="139.6527">«entity»</text><text fill="#000000" font-family="sans-serif" font-size="8.4" font-style="italic" lengthAdjust="spacing" textLength="50.4" x="1213.8" y="149.0371">«NullObject»</text><text fill="#000000" font-family="sans-serif" font-size="9.8" lengthAdjust="spacing" textLength="67.2" x="1205.4" y="159.6889">ManagerProfile</text><line style="stroke:#181818;stroke-width:0.3499999999999999;" x1="1185.8" x2="1274" y1="165.2656" y2="165.2656"/></g><!--MD5=[d92d9e883939eee4186895798e1fdba2]
class TaxPayerNumber--><g id="elem_TaxPayerNumber"><rect codeLine="42" fill="#F1F1F1" height="32.9328" id="TaxPayerNumber" rx="1.75" ry="1.75" style="stroke:#181818;stroke-width:0.3499999999999999;" width="98.7" x="1061.55" y="133.0984"/><ellipse cx="1072.05" cy="146.7648" fill="#B8255F" rx="7.7" ry="7.7" style="stroke:#181818;stroke-width:0.6999999999999998;"/><path d="M1072.4656,149.0508 L1074.1937,144.9383 L1073.9203,144.9383 Q1073.4937,144.9383 1073.3078,144.7742 Q1073.1219,144.6102 1073.1219,144.3367 Q1073.1219,144.0742 1073.3078,143.9102 Q1073.4937,143.7461 1073.9203,143.7461 L1075.5172,143.7461 Q1075.9437,143.7461 1076.1297,143.9102 Q1076.3156,144.0742 1076.3156,144.3367 Q1076.3156,144.6648 1076.0312,144.8508 Q1075.9,144.9383 1075.4844,144.9383 L1073.0453,150.7898 L1071.8969,150.7898 L1069.4578,144.9383 Q1069.0422,144.9383 1068.9109,144.8508 Q1068.6266,144.6648 1068.6266,144.3367 Q1068.6266,144.0742 1068.8125,143.9102 Q1068.9984,143.7461 1069.425,143.7461 L1071.0328,143.7461 Q1071.4594,143.7461 1071.6344,143.9102 Q1071.8203,144.0742 1071.8203,144.3367 Q1071.8203,144.6102 1071.6344,144.7742 Q1071.4594,144.9383 1071.0328,144.9383 L1070.7484,144.9383 L1072.4656,149.0508 Z " fill="#000000"/><text fill="#000000" font-family="sans-serif" font-size="8.4" font-style="italic" lengthAdjust="spacing" textLength="56.7" x="1091.65" y="144.2027">«value object»</text><text fill="#000000" font-family="sans-serif" font-size="9.8" lengthAdjust="spacing" textLength="76.3" x="1081.85" y="154.8545">TaxPayerNumber</text><line style="stroke:#181818;stroke-width:0.3499999999999999;" x1="1062.25" x2="1159.55" y1="160.4312" y2="160.4312"/></g><!--MD5=[3adb951617f02218a93676affdecd4f3]
class DateOfBirth--><g id="elem_DateOfBirth"><rect codeLine="43" fill="#F1F1F1" height="32.9328" id="DateOfBirth" rx="1.75" ry="1.75" style="stroke:#181818;stroke-width:0.3499999999999999;" width="76.3" x="960.75" y="133.0984"/><ellipse cx="971.25" cy="146.7648" fill="#B8255F" rx="7.7" ry="7.7" style="stroke:#181818;stroke-width:0.6999999999999998;"/><path d="M971.6656,149.0508 L973.3937,144.9383 L973.1203,144.9383 Q972.6937,144.9383 972.5078,144.7742 Q972.3219,144.6102 972.3219,144.3367 Q972.3219,144.0742 972.5078,143.9102 Q972.6937,143.7461 973.1203,143.7461 L974.7172,143.7461 Q975.1437,143.7461 975.3297,143.9102 Q975.5156,144.0742 975.5156,144.3367 Q975.5156,144.6648 975.2312,144.8508 Q975.1,144.9383 974.6844,144.9383 L972.2453,150.7898 L971.0969,150.7898 L968.6578,144.9383 Q968.2422,144.9383 968.1109,144.8508 Q967.8266,144.6648 967.8266,144.3367 Q967.8266,144.0742 968.0125,143.9102 Q968.1984,143.7461 968.625,143.7461 L970.2328,143.7461 Q970.6594,143.7461 970.8344,143.9102 Q971.0203,144.0742 971.0203,144.3367 Q971.0203,144.6102 970.8344,144.7742 Q970.6594,144.9383 970.2328,144.9383 L969.9484,144.9383 L971.6656,149.0508 Z " fill="#000000"/><text fill="#000000" font-family="sans-serif" font-size="8.4" font-style="italic" lengthAdjust="spacing" textLength="56.7" x="979.65" y="144.2027">«value object»</text><text fill="#000000" font-family="sans-serif" font-size="9.8" lengthAdjust="spacing" textLength="51.8" x="982.1" y="154.8545">DateOfBirth</text><line style="stroke:#181818;stroke-width:0.3499999999999999;" x1="961.45" x2="1036.35" y1="160.4312" y2="160.4312"/></g><!--MD5=[9de4f19eab90a199848c5893311179be]
class MechanographicNumber--><g id="elem_MechanographicNumber"><rect codeLine="44" fill="#F1F1F1" height="32.9328" id="MechanographicNumber" rx="1.75" ry="1.75" style="stroke:#181818;stroke-width:0.3499999999999999;" width="130.2" x="853.3" y="53.6484"/><ellipse cx="863.8" cy="67.3148" fill="#B8255F" rx="7.7" ry="7.7" style="stroke:#181818;stroke-width:0.6999999999999998;"/><path d="M864.2156,69.6008 L865.9437,65.4883 L865.6703,65.4883 Q865.2437,65.4883 865.0578,65.3242 Q864.8719,65.1602 864.8719,64.8867 Q864.8719,64.6242 865.0578,64.4602 Q865.2437,64.2961 865.6703,64.2961 L867.2672,64.2961 Q867.6937,64.2961 867.8797,64.4602 Q868.0656,64.6242 868.0656,64.8867 Q868.0656,65.2148 867.7812,65.4008 Q867.65,65.4883 867.2344,65.4883 L864.7953,71.3398 L863.6469,71.3398 L861.2078,65.4883 Q860.7922,65.4883 860.6609,65.4008 Q860.3766,65.2148 860.3766,64.8867 Q860.3766,64.6242 860.5625,64.4602 Q860.7484,64.2961 861.175,64.2961 L862.7828,64.2961 Q863.2094,64.2961 863.3844,64.4602 Q863.5703,64.6242 863.5703,64.8867 Q863.5703,65.1602 863.3844,65.3242 Q863.2094,65.4883 862.7828,65.4883 L862.4984,65.4883 L864.2156,69.6008 Z " fill="#000000"/><text fill="#000000" font-family="sans-serif" font-size="8.4" font-style="italic" lengthAdjust="spacing" textLength="56.7" x="899.15" y="64.7527">«value object»</text><text fill="#000000" font-family="sans-serif" font-size="9.8" lengthAdjust="spacing" textLength="107.8" x="873.6" y="75.4045">MechanographicNumber</text><line style="stroke:#181818;stroke-width:0.3499999999999999;" x1="854" x2="982.8" y1="80.9812" y2="80.9812"/></g><!--MD5=[739264bb8c13fd453fd6fc4eef2b32cc]
class Acronym--><g id="elem_Acronym"><rect codeLine="45" fill="#F1F1F1" height="32.9328" id="Acronym" rx="1.75" ry="1.75" style="stroke:#181818;stroke-width:0.3499999999999999;" width="76.3" x="752.15" y="53.6484"/><ellipse cx="762.65" cy="67.3148" fill="#B8255F" rx="7.7" ry="7.7" style="stroke:#181818;stroke-width:0.6999999999999998;"/><path d="M763.0656,69.6008 L764.7937,65.4883 L764.5203,65.4883 Q764.0937,65.4883 763.9078,65.3242 Q763.7219,65.1602 763.7219,64.8867 Q763.7219,64.6242 763.9078,64.4602 Q764.0937,64.2961 764.5203,64.2961 L766.1172,64.2961 Q766.5437,64.2961 766.7297,64.4602 Q766.9156,64.6242 766.9156,64.8867 Q766.9156,65.2148 766.6312,65.4008 Q766.5,65.4883 766.0844,65.4883 L763.6453,71.3398 L762.4969,71.3398 L760.0578,65.4883 Q759.6422,65.4883 759.5109,65.4008 Q759.2266,65.2148 759.2266,64.8867 Q759.2266,64.6242 759.4125,64.4602 Q759.5984,64.2961 760.025,64.2961 L761.6328,64.2961 Q762.0594,64.2961 762.2344,64.4602 Q762.4203,64.6242 762.4203,64.8867 Q762.4203,65.1602 762.2344,65.3242 Q762.0594,65.4883 761.6328,65.4883 L761.3484,65.4883 L763.0656,69.6008 Z " fill="#000000"/><text fill="#000000" font-family="sans-serif" font-size="8.4" font-style="italic" lengthAdjust="spacing" textLength="56.7" x="771.05" y="64.7527">«value object»</text><text fill="#000000" font-family="sans-serif" font-size="9.8" lengthAdjust="spacing" textLength="38.5" x="780.15" y="75.4045">Acronym</text><line style="stroke:#181818;stroke-width:0.3499999999999999;" x1="752.85" x2="827.75" y1="80.9812" y2="80.9812"/></g><!--MD5=[c680266cf9e454ca06c2d1bb8b683e6b]
class Schedule--><g id="elem_Schedule"><rect codeLine="46" fill="#F1F1F1" height="32.9328" id="Schedule" rx="1.75" ry="1.75" style="stroke:#181818;stroke-width:0.3499999999999999;" width="63.7" x="651.35" y="133.0984"/><ellipse cx="661.85" cy="146.7648" fill="#ADD1B2" rx="7.7" ry="7.7" style="stroke:#181818;stroke-width:0.6999999999999998;"/><path d="M663.7859,143.8773 Q663.8953,143.7242 664.0266,143.6477 Q664.1578,143.5711 664.3109,143.5711 Q664.5734,143.5711 664.7375,143.757 Q664.9016,143.932 664.9016,144.3586 L664.9016,145.3758 Q664.9016,145.8023 664.7375,145.9883 Q664.5734,146.1742 664.3109,146.1742 Q664.0703,146.1742 663.9281,146.032 Q663.7859,145.9008 663.7094,145.5398 Q663.6766,145.2883 663.5453,145.157 Q663.3156,144.8945 662.8891,144.7414 Q662.4625,144.5883 662.025,144.5883 Q661.4891,144.5883 661.0406,144.818 Q660.6031,145.0477 660.2531,145.5727 Q659.9141,146.0977 659.9141,146.8195 L659.9141,147.5852 Q659.9141,148.4492 660.5375,149.0289 Q661.1609,149.5977 662.2766,149.5977 Q662.9328,149.5977 663.3922,149.4227 Q663.6656,149.3133 663.9609,149.007 Q664.1469,148.8211 664.2453,148.7664 Q664.3547,148.7117 664.4969,148.7117 Q664.7266,148.7117 664.9016,148.8977 Q665.0875,149.0727 665.0875,149.3133 Q665.0875,149.5539 664.8469,149.8383 Q664.4969,150.243 663.9391,150.4727 Q663.1844,150.7898 662.2766,150.7898 Q661.2156,150.7898 660.3734,150.3523 Q659.6844,150.0023 659.2031,149.2586 Q658.7219,148.5039 658.7219,147.607 L658.7219,146.7977 Q658.7219,145.868 659.1484,145.0695 Q659.5859,144.2602 660.3516,143.8336 Q661.1172,143.3961 661.9812,143.3961 Q662.4953,143.3961 662.9437,143.5164 Q663.4031,143.6258 663.7859,143.8773 Z " fill="#000000"/><text fill="#000000" font-family="sans-serif" font-size="8.4" font-style="italic" lengthAdjust="spacing" textLength="30.1" x="677.25" y="144.2027">«entity»</text><text fill="#000000" font-family="sans-serif" font-size="9.8" lengthAdjust="spacing" textLength="41.3" x="671.65" y="154.8545">Schedule</text><line style="stroke:#181818;stroke-width:0.3499999999999999;" x1="652.05" x2="714.35" y1="160.4312" y2="160.4312"/></g><!--MD5=[abe91ce615374b501721fa99f1a2b204]
class ProfileDay--><g id="elem_ProfileDay"><rect codeLine="47" fill="#F1F1F1" height="32.9328" id="ProfileDay" rx="1.75" ry="1.75" style="stroke:#181818;stroke-width:0.3499999999999999;" width="76.3" x="651.35" y="53.6484"/><ellipse cx="661.85" cy="67.3148" fill="#B8255F" rx="7.7" ry="7.7" style="stroke:#181818;stroke-width:0.6999999999999998;"/><path d="M662.2656,69.6008 L663.9937,65.4883 L663.7203,65.4883 Q663.2937,65.4883 663.1078,65.3242 Q662.9219,65.1602 662.9219,64.8867 Q662.9219,64.6242 663.1078,64.4602 Q663.2937,64.2961 663.7203,64.2961 L665.3172,64.2961 Q665.7437,64.2961 665.9297,64.4602 Q666.1156,64.6242 666.1156,64.8867 Q666.1156,65.2148 665.8312,65.4008 Q665.7,65.4883 665.2844,65.4883 L662.8453,71.3398 L661.6969,71.3398 L659.2578,65.4883 Q658.8422,65.4883 658.7109,65.4008 Q658.4266,65.2148 658.4266,64.8867 Q658.4266,64.6242 658.6125,64.4602 Q658.7984,64.2961 659.225,64.2961 L660.8328,64.2961 Q661.2594,64.2961 661.4344,64.4602 Q661.6203,64.6242 661.6203,64.8867 Q661.6203,65.1602 661.4344,65.3242 Q661.2594,65.4883 660.8328,65.4883 L660.5484,65.4883 L662.2656,69.6008 Z " fill="#000000"/><text fill="#000000" font-family="sans-serif" font-size="8.4" font-style="italic" lengthAdjust="spacing" textLength="56.7" x="670.25" y="64.7527">«value object»</text><text fill="#000000" font-family="sans-serif" font-size="9.8" lengthAdjust="spacing" textLength="17.5" x="689.85" y="75.4045">Day</text><line style="stroke:#181818;stroke-width:0.3499999999999999;" x1="652.05" x2="726.95" y1="80.9812" y2="80.9812"/></g><!--MD5=[a78031611904abe1e5cbb3fd0b6ea028]
class Meeting--><g id="elem_Meeting"><rect codeLine="62" fill="#F1F1F1" height="42.3172" id="Meeting" rx="1.75" ry="1.75" style="stroke:#181818;stroke-width:0.3499999999999999;" width="57.4" x="393.4" y="212.5484"/><ellipse cx="403.9" cy="230.907" fill="#ADD1B2" rx="7.7" ry="7.7" style="stroke:#181818;stroke-width:0.6999999999999998;"/><path d="M403.1016,231.4648 L403.1016,233.2148 L406.1312,233.2148 L406.1312,232.5695 Q406.1312,232.143 406.2953,231.957 Q406.4703,231.7711 406.7328,231.7711 Q406.9953,231.7711 407.1594,231.957 Q407.3234,232.143 407.3234,232.5695 L407.3234,234.407 L401.7234,234.407 Q401.2859,234.407 401.1,234.243 Q400.925,234.0789 400.925,233.8055 Q400.925,233.543 401.1109,233.3789 Q401.2969,233.2148 401.7234,233.2148 L401.9094,233.2148 L401.9094,228.5555 L401.7234,228.5555 Q401.2859,228.5555 401.1,228.3914 Q400.925,228.2273 400.925,227.9539 Q400.925,227.6914 401.1,227.5273 Q401.2859,227.3633 401.7234,227.3633 L407.0609,227.3633 L407.0609,229.1789 Q407.0609,229.6055 406.8969,229.7914 Q406.7437,229.9664 406.4703,229.9664 Q406.2078,229.9664 406.0437,229.7914 Q405.8797,229.6055 405.8797,229.1789 L405.8797,228.5555 L403.1016,228.5555 L403.1016,230.2727 L404.1406,230.2727 Q404.1406,229.8133 404.2281,229.682 Q404.4141,229.3977 404.7422,229.3977 Q405.0047,229.3977 405.1687,229.5836 Q405.3328,229.7586 405.3328,230.1852 L405.3328,231.5633 Q405.3328,231.9461 405.2453,232.0773 Q405.0594,232.3508 404.7422,232.3508 Q404.4141,232.3508 404.2281,232.0664 Q404.1406,231.9352 404.1406,231.4648 L403.1016,231.4648 Z " fill="#000000"/><text fill="#000000" font-family="sans-serif" font-size="8.4" font-style="italic" lengthAdjust="spacing" textLength="24.5" x="418.95" y="223.6527">«root»</text><text fill="#000000" font-family="sans-serif" font-size="8.4" font-style="italic" lengthAdjust="spacing" textLength="30.1" x="416.15" y="233.0371">«entity»</text><text fill="#000000" font-family="sans-serif" font-size="9.8" lengthAdjust="spacing" textLength="35" x="413.7" y="243.6889">Meeting</text><line style="stroke:#181818;stroke-width:0.3499999999999999;" x1="394.1" x2="450.1" y1="249.2656" y2="249.2656"/></g><!--MD5=[a429c4b34dcad6bd30bdced8db0cad95]
class MeetingTitle--><g id="elem_MeetingTitle"><rect codeLine="65" fill="#F1F1F1" height="42.3172" id="MeetingTitle" rx="1.75" ry="1.75" style="stroke:#181818;stroke-width:0.3499999999999999;" width="76.3" x="535.15" y="128.5484"/><ellipse cx="545.65" cy="146.907" fill="#B8255F" rx="7.7" ry="7.7" style="stroke:#181818;stroke-width:0.6999999999999998;"/><path d="M546.0656,149.193 L547.7937,145.0805 L547.5203,145.0805 Q547.0937,145.0805 546.9078,144.9164 Q546.7219,144.7523 546.7219,144.4789 Q546.7219,144.2164 546.9078,144.0523 Q547.0937,143.8883 547.5203,143.8883 L549.1172,143.8883 Q549.5437,143.8883 549.7297,144.0523 Q549.9156,144.2164 549.9156,144.4789 Q549.9156,144.807 549.6312,144.993 Q549.5,145.0805 549.0844,145.0805 L546.6453,150.932 L545.4969,150.932 L543.0578,145.0805 Q542.6422,145.0805 542.5109,144.993 Q542.2266,144.807 542.2266,144.4789 Q542.2266,144.2164 542.4125,144.0523 Q542.5984,143.8883 543.025,143.8883 L544.6328,143.8883 Q545.0594,143.8883 545.2344,144.0523 Q545.4203,144.2164 545.4203,144.4789 Q545.4203,144.7523 545.2344,144.9164 Q545.0594,145.0805 544.6328,145.0805 L544.3484,145.0805 L546.0656,149.193 Z " fill="#000000"/><text fill="#000000" font-family="sans-serif" font-size="8.4" font-style="italic" lengthAdjust="spacing" textLength="56.7" x="554.05" y="139.6527">«value object»</text><text fill="#000000" font-family="sans-serif" font-size="8.4" font-style="italic" lengthAdjust="spacing" textLength="36.4" x="564.2" y="149.0371">«unique»</text><text fill="#000000" font-family="sans-serif" font-size="9.8" lengthAdjust="spacing" textLength="18.9" x="572.95" y="159.6889">Title</text><line style="stroke:#181818;stroke-width:0.3499999999999999;" x1="535.85" x2="610.75" y1="165.2656" y2="165.2656"/></g><!--MD5=[e7713a66b67445a0eb297b7e73c442e5]
class Duration--><g id="elem_Duration"><rect codeLine="66" fill="#F1F1F1" height="32.9328" id="Duration" rx="1.75" ry="1.75" style="stroke:#181818;stroke-width:0.3499999999999999;" width="76.3" x="434.35" y="133.0984"/><ellipse cx="444.85" cy="146.7648" fill="#B8255F" rx="7.7" ry="7.7" style="stroke:#181818;stroke-width:0.6999999999999998;"/><path d="M445.2656,149.0508 L446.9937,144.9383 L446.7203,144.9383 Q446.2937,144.9383 446.1078,144.7742 Q445.9219,144.6102 445.9219,144.3367 Q445.9219,144.0742 446.1078,143.9102 Q446.2937,143.7461 446.7203,143.7461 L448.3172,143.7461 Q448.7437,143.7461 448.9297,143.9102 Q449.1156,144.0742 449.1156,144.3367 Q449.1156,144.6648 448.8312,144.8508 Q448.7,144.9383 448.2844,144.9383 L445.8453,150.7898 L444.6969,150.7898 L442.2578,144.9383 Q441.8422,144.9383 441.7109,144.8508 Q441.4266,144.6648 441.4266,144.3367 Q441.4266,144.0742 441.6125,143.9102 Q441.7984,143.7461 442.225,143.7461 L443.8328,143.7461 Q444.2594,143.7461 444.4344,143.9102 Q444.6203,144.0742 444.6203,144.3367 Q444.6203,144.6102 444.4344,144.7742 Q444.2594,144.9383 443.8328,144.9383 L443.5484,144.9383 L445.2656,149.0508 Z " fill="#000000"/><text fill="#000000" font-family="sans-serif" font-size="8.4" font-style="italic" lengthAdjust="spacing" textLength="56.7" x="453.25" y="144.2027">«value object»</text><text fill="#000000" font-family="sans-serif" font-size="9.8" lengthAdjust="spacing" textLength="37.8" x="462.7" y="154.8545">Duration</text><line style="stroke:#181818;stroke-width:0.3499999999999999;" x1="435.05" x2="509.95" y1="160.4312" y2="160.4312"/></g><!--MD5=[2e42295458bb0bec21c9622a623eb29e]
class Time--><g id="elem_Time"><rect codeLine="67" fill="#F1F1F1" height="32.9328" id="Time" rx="1.75" ry="1.75" style="stroke:#181818;stroke-width:0.3499999999999999;" width="76.3" x="333.55" y="133.0984"/><ellipse cx="344.05" cy="146.7648" fill="#B8255F" rx="7.7" ry="7.7" style="stroke:#181818;stroke-width:0.6999999999999998;"/><path d="M344.4656,149.0508 L346.1937,144.9383 L345.9203,144.9383 Q345.4937,144.9383 345.3078,144.7742 Q345.1219,144.6102 345.1219,144.3367 Q345.1219,144.0742 345.3078,143.9102 Q345.4937,143.7461 345.9203,143.7461 L347.5172,143.7461 Q347.9437,143.7461 348.1297,143.9102 Q348.3156,144.0742 348.3156,144.3367 Q348.3156,144.6648 348.0312,144.8508 Q347.9,144.9383 347.4844,144.9383 L345.0453,150.7898 L343.8969,150.7898 L341.4578,144.9383 Q341.0422,144.9383 340.9109,144.8508 Q340.6266,144.6648 340.6266,144.3367 Q340.6266,144.0742 340.8125,143.9102 Q340.9984,143.7461 341.425,143.7461 L343.0328,143.7461 Q343.4594,143.7461 343.6344,143.9102 Q343.8203,144.0742 343.8203,144.3367 Q343.8203,144.6102 343.6344,144.7742 Q343.4594,144.9383 343.0328,144.9383 L342.7484,144.9383 L344.4656,149.0508 Z " fill="#000000"/><text fill="#000000" font-family="sans-serif" font-size="8.4" font-style="italic" lengthAdjust="spacing" textLength="56.7" x="352.45" y="144.2027">«value object»</text><text fill="#000000" font-family="sans-serif" font-size="9.8" lengthAdjust="spacing" textLength="21.7" x="369.95" y="154.8545">Time</text><line style="stroke:#181818;stroke-width:0.3499999999999999;" x1="334.25" x2="409.15" y1="160.4312" y2="160.4312"/></g><!--MD5=[dbc364445409b51c9b407d19a07b4adf]
link User to Email--><g id="link_User_Email"><path codeLine="25" d="M238.35,369.3694 C238.35,369.3694 238.35,393.5964 238.35,393.5964 " fill="none" id="User-Email" style="stroke:#181818;stroke-width:0.6999999999999998;"/><polygon fill="#181818" points="238.35,402.6964,241.15,396.3964,238.35,399.1964,235.55,396.3964,238.35,402.6964" style="stroke:#181818;stroke-width:0.6999999999999998;"/><line style="stroke:#181818;stroke-width:0.6999999999999998;" x1="238.35" x2="238.35" y1="399.1964" y2="393.5964"/><polygon fill="#181818" points="238.35,360.9694,235.55,365.1694,238.35,369.3694,241.15,365.1694,238.35,360.9694" style="stroke:#181818;stroke-width:0.6999999999999998;"/><text fill="#000000" font-family="sans-serif" font-size="9.1" lengthAdjust="spacing" textLength="14.7" x="222.95" y="390.7744">has</text><text fill="#000000" font-family="sans-serif" font-size="9.1" lengthAdjust="spacing" textLength="4.9" x="229.8362" y="395.4521">1</text><text fill="#000000" font-family="sans-serif" font-size="9.1" lengthAdjust="spacing" textLength="4.9" x="236.2259" y="374.7001">1</text></g><!--MD5=[5ab1f46e477a8163e64d30b24bef4255]
link User to Password--><g id="link_User_Password"><path codeLine="26" d="M183.75,369.3694 C183.75,369.3694 183.75,403.2914 183.75,403.2914 " fill="none" id="User-Password" style="stroke:#181818;stroke-width:0.6999999999999998;"/><polygon fill="#181818" points="183.75,412.3914,186.55,406.0914,183.75,408.8914,180.95,406.0914,183.75,412.3914" style="stroke:#181818;stroke-width:0.6999999999999998;"/><line style="stroke:#181818;stroke-width:0.6999999999999998;" x1="183.75" x2="183.75" y1="408.8914" y2="403.2914"/><polygon fill="#181818" points="183.75,360.9694,180.95,365.1694,183.75,369.3694,186.55,365.1694,183.75,360.9694" style="stroke:#181818;stroke-width:0.6999999999999998;"/><text fill="#000000" font-family="sans-serif" font-size="9.1" lengthAdjust="spacing" textLength="14.7" x="168.35" y="384.4184">has</text><text fill="#000000" font-family="sans-serif" font-size="9.1" lengthAdjust="spacing" textLength="4.9" x="186.3312" y="404.8697">1</text><text fill="#000000" font-family="sans-serif" font-size="9.1" lengthAdjust="spacing" textLength="4.9" x="173.6066" y="374.7001">1</text></g><!--MD5=[70c37dc9bfbc8656942103c36f1181e4]
link User to Role--><g id="link_User_Role"><path codeLine="27" d="M166.152,344.8484 C166.152,344.8484 79.275,344.8484 79.275,344.8484 C79.275,344.8484 79.275,403.1514 79.275,403.1514 " fill="none" id="User-Role" style="stroke:#181818;stroke-width:0.6999999999999998;"/><polygon fill="#181818" points="79.275,412.2514,82.075,405.9514,79.275,408.7514,76.475,405.9514,79.275,412.2514" style="stroke:#181818;stroke-width:0.6999999999999998;"/><line style="stroke:#181818;stroke-width:0.6999999999999998;" x1="79.275" x2="79.275" y1="408.7514" y2="403.1514"/><polygon fill="#181818" points="174.552,344.8484,170.352,342.0484,166.152,344.8484,170.352,347.6484,174.552,344.8484" style="stroke:#181818;stroke-width:0.6999999999999998;"/><text fill="#000000" font-family="sans-serif" font-size="9.1" lengthAdjust="spacing" textLength="14.7" x="77.812" y="342.5864">has</text><text fill="#000000" font-family="sans-serif" font-size="9.1" lengthAdjust="spacing" textLength="4.9" x="164.1801" y="344.6851">1</text><text fill="#000000" font-family="sans-serif" font-size="9.1" lengthAdjust="spacing" textLength="4.9" x="80.5361" y="404.9569">1</text></g><!--MD5=[6eb6e197a729f6ec2412743e0bdbca1d]
link Manager to User--><g id="link_Manager_User"><path codeLine="28" d="M120.4,250.1314 C120.4,277.4034 120.4,328.7484 120.4,328.7484 C120.4,328.7484 171.129,328.7484 171.129,328.7484 " fill="none" id="Manager-to-User" style="stroke:#181818;stroke-width:0.6999999999999998;"/><polygon fill="#181818" points="174.629,328.7484,168.329,325.9484,171.129,328.7484,168.329,331.5484,174.629,328.7484" style="stroke:#181818;stroke-width:0.6999999999999998;"/><text fill="#000000" font-family="sans-serif" font-size="9.1" lengthAdjust="spacing" textLength="30.1" x="89.6" y="312.5424">creates</text><text fill="#000000" font-family="sans-serif" font-size="9.1" lengthAdjust="spacing" textLength="4.9" x="120.7916" y="263.9172">1</text><text fill="#000000" font-family="sans-serif" font-size="9.1" lengthAdjust="spacing" textLength="3.5" x="165.476" y="326.594">*</text></g><!--MD5=[6eb6e197a729f6ec2412743e0bdbca1d]
link Manager to User--><g id="link_Manager_User"><path codeLine="29" d="M124.25,250.1314 C124.25,273.3224 124.25,312.6484 124.25,312.6484 C124.25,312.6484 160.426,312.6484 160.426,312.6484 " fill="none" id="Manager-to-User-1" style="stroke:#181818;stroke-width:0.6999999999999998;"/><polygon fill="none" points="160.426,307.7484,174.426,312.6484,160.426,317.5484,160.426,307.7484" style="stroke:#181818;stroke-width:0.6999999999999998;"/></g><!--MD5=[e7e4384c2e5b49218c5cd97f5ff6bc06]
link Student to User--><g id="link_Student_User"><path codeLine="30" d="M248.15,250.1314 C248.15,250.1314 248.15,282.3874 248.15,282.3874 " fill="none" id="Student-to-User" style="stroke:#181818;stroke-width:0.6999999999999998;"/><polygon fill="none" points="253.05,282.3874,248.15,296.3874,243.25,282.3874,253.05,282.3874" style="stroke:#181818;stroke-width:0.6999999999999998;"/></g><!--MD5=[0a356a4e09bd4fc4087bf5e4e9dbf72c]
link Teacher to User--><g id="link_Teacher_User"><path codeLine="31" d="M193.55,250.1314 C193.55,250.1314 193.55,282.3874 193.55,282.3874 " fill="none" id="Teacher-to-User" style="stroke:#181818;stroke-width:0.6999999999999998;"/><polygon fill="none" points="198.45,282.3874,193.55,296.3874,188.65,282.3874,198.45,282.3874" style="stroke:#181818;stroke-width:0.6999999999999998;"/></g><!--MD5=[a4704c7d667610242c4910d8f03d8365]
link TeacherProfile to Profile--><g id="link_TeacherProfile_Profile"><path codeLine="49" d="M783.3,166.1384 C783.3,191.6884 783.3,237.7484 783.3,237.7484 C783.3,237.7484 854.525,237.7484 854.525,237.7484 " fill="none" id="TeacherProfile-to-Profile" style="stroke:#181818;stroke-width:0.6999999999999998;"/><polygon fill="none" points="854.525,232.8484,868.525,237.7484,854.525,242.6484,854.525,232.8484" style="stroke:#181818;stroke-width:0.6999999999999998;"/></g><!--MD5=[74f6c88ebae95880488e779c734e479a]
link StudentProfile to Profile--><g id="link_StudentProfile_Profile"><path codeLine="50" d="M893.9,166.1454 C893.9,166.1454 893.9,198.5064 893.9,198.5064 " fill="none" id="StudentProfile-to-Profile" style="stroke:#181818;stroke-width:0.6999999999999998;"/><polygon fill="none" points="898.8,198.5064,893.9,212.5064,889,198.5064,898.8,198.5064" style="stroke:#181818;stroke-width:0.6999999999999998;"/></g><!--MD5=[f7f29814defc5875b454afa8d8fb2888]
link ManagerProfile to Profile--><g id="link_ManagerProfile_Profile"><path codeLine="51" d="M1229.9,170.7584 C1229.9,198.6184 1229.9,244.0484 1229.9,244.0484 C1229.9,244.0484 933.156,244.0484 933.156,244.0484 " fill="none" id="ManagerProfile-to-Profile" style="stroke:#181818;stroke-width:0.6999999999999998;"/><polygon fill="none" points="933.156,248.9484,919.156,244.0484,933.156,239.1484,933.156,248.9484" style="stroke:#181818;stroke-width:0.6999999999999998;"/></g><!--MD5=[2bc47b069c5ba380f277202e4d17c25b]
link TaxPayerNumber to Profile--><g id="link_TaxPayerNumber_Profile"><path codeLine="52" d="M1110.9,175.2454 C1110.9,175.2454 1110.9,233.5484 1110.9,233.5484 C1110.9,233.5484 927.619,233.5484 927.619,233.5484 " fill="none" id="TaxPayerNumber-Profile" style="stroke:#181818;stroke-width:0.6999999999999998;"/><polygon fill="#181818" points="919.219,233.5484,923.419,236.3484,927.619,233.5484,923.419,230.7484,919.219,233.5484" style="stroke:#181818;stroke-width:0.6999999999999998;"/><polygon fill="#181818" points="1110.9,166.1454,1108.1,172.4454,1110.9,169.6454,1113.7,172.4454,1110.9,166.1454" style="stroke:#181818;stroke-width:0.6999999999999998;"/><line style="stroke:#181818;stroke-width:0.6999999999999998;" x1="1110.9" x2="1110.9" y1="169.6454" y2="175.2454"/><text fill="#000000" font-family="sans-serif" font-size="9.1" lengthAdjust="spacing" textLength="14.7" x="1033.361" y="231.2864">has</text><text fill="#000000" font-family="sans-serif" font-size="9.1" lengthAdjust="spacing" textLength="4.9" x="1105.3722" y="179.9348">1</text><text fill="#000000" font-family="sans-serif" font-size="9.1" lengthAdjust="spacing" textLength="4.9" x="924.686" y="231.0266">1</text></g><!--MD5=[02fab2b53211d87eb632ce55aa25c763]
link DateOfBirth to Profile--><g id="link_DateOfBirth_Profile"><path codeLine="53" d="M998.9,175.1404 C998.9,175.1404 998.9,223.0484 998.9,223.0484 C998.9,223.0484 927.717,223.0484 927.717,223.0484 " fill="none" id="DateOfBirth-Profile" style="stroke:#181818;stroke-width:0.6999999999999998;"/><polygon fill="#181818" points="919.317,223.0484,923.517,225.8484,927.717,223.0484,923.517,220.2484,919.317,223.0484" style="stroke:#181818;stroke-width:0.6999999999999998;"/><polygon fill="#181818" points="998.9,166.0404,996.1,172.3404,998.9,169.5404,1001.7,172.3404,998.9,166.0404" style="stroke:#181818;stroke-width:0.6999999999999998;"/><line style="stroke:#181818;stroke-width:0.6999999999999998;" x1="998.9" x2="998.9" y1="169.5404" y2="175.1404"/><text fill="#000000" font-family="sans-serif" font-size="9.1" lengthAdjust="spacing" textLength="14.7" x="972.209" y="220.7864">has</text><text fill="#000000" font-family="sans-serif" font-size="9.1" lengthAdjust="spacing" textLength="4.9" x="993.3722" y="179.8029">1</text><text fill="#000000" font-family="sans-serif" font-size="9.1" lengthAdjust="spacing" textLength="4.9" x="924.6291" y="218.5555">1</text></g><!--MD5=[10a6c99310405b7a97b4cf47d76d8922]
link MechanographicNumber to StudentProfile--><g id="link_MechanographicNumber_StudentProfile"><path codeLine="54" d="M894.775,95.6624 C894.775,95.6624 894.775,124.4324 894.775,124.4324 " fill="none" id="MechanographicNumber-StudentProfile" style="stroke:#181818;stroke-width:0.6999999999999998;"/><polygon fill="#181818" points="894.775,132.8324,897.575,128.6324,894.775,124.4324,891.975,128.6324,894.775,132.8324" style="stroke:#181818;stroke-width:0.6999999999999998;"/><polygon fill="#181818" points="894.775,86.5624,891.975,92.8624,894.775,90.0624,897.575,92.8624,894.775,86.5624" style="stroke:#181818;stroke-width:0.6999999999999998;"/><line style="stroke:#181818;stroke-width:0.6999999999999998;" x1="894.775" x2="894.775" y1="90.0624" y2="95.6624"/><text fill="#000000" font-family="sans-serif" font-size="9.1" lengthAdjust="spacing" textLength="14.7" x="879.375" y="107.4354">has</text><text fill="#000000" font-family="sans-serif" font-size="9.1" lengthAdjust="spacing" textLength="4.9" x="889.4517" y="125.506">1</text><text fill="#000000" font-family="sans-serif" font-size="9.1" lengthAdjust="spacing" textLength="4.9" x="883.1933" y="100.3177">1</text></g><!--MD5=[ae3e36caf4c7951d7f4f6fff495b345e]
link Acronym to TeacherProfile--><g id="link_Acronym_TeacherProfile"><path codeLine="55" d="M789.6,95.6624 C789.6,95.6624 789.6,124.4324 789.6,124.4324 " fill="none" id="Acronym-TeacherProfile" style="stroke:#181818;stroke-width:0.6999999999999998;"/><polygon fill="#181818" points="789.6,132.8324,792.4,128.6324,789.6,124.4324,786.8,128.6324,789.6,132.8324" style="stroke:#181818;stroke-width:0.6999999999999998;"/><polygon fill="#181818" points="789.6,86.5624,786.8,92.8624,789.6,90.0624,792.4,92.8624,789.6,86.5624" style="stroke:#181818;stroke-width:0.6999999999999998;"/><line style="stroke:#181818;stroke-width:0.6999999999999998;" x1="789.6" x2="789.6" y1="90.0624" y2="95.6624"/><text fill="#000000" font-family="sans-serif" font-size="9.1" lengthAdjust="spacing" textLength="14.7" x="774.2" y="107.4354">has</text><text fill="#000000" font-family="sans-serif" font-size="9.1" lengthAdjust="spacing" textLength="4.9" x="785.7347" y="125.506">1</text><text fill="#000000" font-family="sans-serif" font-size="9.1" lengthAdjust="spacing" textLength="4.9" x="783.8928" y="100.3177">1</text></g><!--MD5=[0dc7d8961856536cda53252c0ddcf162]
link Schedule to Profile--><g id="link_Schedule_Profile"><path codeLine="56" d="M693.819,175.2524 C693.819,175.2524 693.819,246.1484 693.819,246.1484 C693.819,246.1484 860.16,246.1484 860.16,246.1484 " fill="none" id="Schedule-Profile" style="stroke:#181818;stroke-width:0.6999999999999998;"/><polygon fill="#181818" points="868.56,246.1484,864.36,243.3484,860.16,246.1484,864.36,248.9484,868.56,246.1484" style="stroke:#181818;stroke-width:0.6999999999999998;"/><polygon fill="#181818" points="693.819,166.1524,691.019,172.4524,693.819,169.6524,696.619,172.4524,693.819,166.1524" style="stroke:#181818;stroke-width:0.6999999999999998;"/><line style="stroke:#181818;stroke-width:0.6999999999999998;" x1="693.819" x2="693.819" y1="169.6524" y2="175.2524"/><text fill="#000000" font-family="sans-serif" font-size="9.1" lengthAdjust="spacing" textLength="14.7" x="725.788" y="243.8864">has</text><text fill="#000000" font-family="sans-serif" font-size="9.1" lengthAdjust="spacing" textLength="4.9" x="691.0123" y="179.9436">1</text><text fill="#000000" font-family="sans-serif" font-size="9.1" lengthAdjust="spacing" textLength="4.9" x="858.1888" y="246.1072">1</text></g><!--MD5=[45f59c8fa32af7dd4bd10287af5ddf83]
link ProfileDay to Schedule--><g id="link_ProfileDay_Schedule"><path codeLine="57" d="M683.2,95.6624 C683.2,95.6624 683.2,124.4324 683.2,124.4324 " fill="none" id="ProfileDay-Schedule" style="stroke:#181818;stroke-width:0.6999999999999998;"/><polygon fill="#181818" points="683.2,132.8324,686,128.6324,683.2,124.4324,680.4,128.6324,683.2,132.8324" style="stroke:#181818;stroke-width:0.6999999999999998;"/><polygon fill="#181818" points="683.2,86.5624,680.4,92.8624,683.2,90.0624,686,92.8624,683.2,86.5624" style="stroke:#181818;stroke-width:0.6999999999999998;"/><line style="stroke:#181818;stroke-width:0.6999999999999998;" x1="683.2" x2="683.2" y1="90.0624" y2="95.6624"/><text fill="#000000" font-family="sans-serif" font-size="9.1" lengthAdjust="spacing" textLength="14.7" x="667.8" y="107.4354">has</text><text fill="#000000" font-family="sans-serif" font-size="9.1" lengthAdjust="spacing" textLength="14" x="667.3187" y="125.506">1..*</text><text fill="#000000" font-family="sans-serif" font-size="9.1" lengthAdjust="spacing" textLength="4.9" x="676.0578" y="100.3177">1</text></g><!--MD5=[26f2750967a9157267d57c5e6d98bc07]
link Profile to User--><g id="link_Profile_User"><path codeLine="59" d="M893.9,263.1444 C893.9,263.1444 893.9,344.8484 893.9,344.8484 C893.9,344.8484 268.702,344.8484 268.702,344.8484 " fill="none" id="Profile-User" style="stroke:#181818;stroke-width:0.6999999999999998;"/><polygon fill="#181818" points="259.602,344.8484,265.902,347.6484,263.102,344.8484,265.902,342.0484,259.602,344.8484" style="stroke:#181818;stroke-width:0.6999999999999998;"/><line style="stroke:#181818;stroke-width:0.6999999999999998;" x1="263.102" x2="268.702" y1="344.8484" y2="344.8484"/><polygon fill="#181818" points="893.9,254.7444,891.1,258.9444,893.9,263.1444,896.7,258.9444,893.9,254.7444" style="stroke:#181818;stroke-width:0.6999999999999998;"/><text fill="#000000" font-family="sans-serif" font-size="9.1" lengthAdjust="spacing" textLength="14.7" x="606.403" y="342.5864">has</text><text fill="#000000" font-family="sans-serif" font-size="9.1" lengthAdjust="spacing" textLength="4.9" x="888.4641" y="268.6963">1</text><text fill="#000000" font-family="sans-serif" font-size="9.1" lengthAdjust="spacing" textLength="4.9" x="264.8111" y="344.6134">1</text></g><!--MD5=[9f2e3ca1b788589af3678e3e8a26cb8c]
link Schedule to Meeting--><g id="link_Schedule_Meeting"><path codeLine="69" d="M672.581,166.0824 C672.581,189.4554 672.581,229.3484 672.581,229.3484 C672.581,229.3484 454.335,229.3484 454.335,229.3484 " fill="none" id="Schedule-to-Meeting" style="stroke:#181818;stroke-width:0.6999999999999998;"/><polygon fill="#181818" points="450.835,229.3484,457.135,232.1484,454.335,229.3484,457.135,226.5484,450.835,229.3484" style="stroke:#181818;stroke-width:0.6999999999999998;"/><text fill="#000000" font-family="sans-serif" font-size="9.1" lengthAdjust="spacing" textLength="27.3" x="567.091" y="227.0864">map of</text><text fill="#000000" font-family="sans-serif" font-size="9.1" lengthAdjust="spacing" textLength="4.9" x="664.3321" y="179.8556">1</text><text fill="#000000" font-family="sans-serif" font-size="9.1" lengthAdjust="spacing" textLength="4.9" x="456.3898" y="237.7155">1</text></g><!--MD5=[40e1eeab083f888632f8f60a43afe0e0]
link MeetingTitle to Meeting--><g id="link_MeetingTitle_Meeting"><path codeLine="70" d="M573.3,179.6834 C573.3,179.6834 573.3,220.9484 573.3,220.9484 C573.3,220.9484 459.298,220.9484 459.298,220.9484 " fill="none" id="MeetingTitle-Meeting" style="stroke:#181818;stroke-width:0.6999999999999998;"/><polygon fill="#181818" points="450.898,220.9484,455.098,223.7484,459.298,220.9484,455.098,218.1484,450.898,220.9484" style="stroke:#181818;stroke-width:0.6999999999999998;"/><polygon fill="#181818" points="573.3,170.5834,570.5,176.8834,573.3,174.0834,576.1,176.8834,573.3,170.5834" style="stroke:#181818;stroke-width:0.6999999999999998;"/><line style="stroke:#181818;stroke-width:0.6999999999999998;" x1="573.3" x2="573.3" y1="174.0834" y2="179.6834"/><text fill="#000000" font-family="sans-serif" font-size="9.1" lengthAdjust="spacing" textLength="14.7" x="521.878" y="218.6864">has</text><text fill="#000000" font-family="sans-serif" font-size="9.1" lengthAdjust="spacing" textLength="4.9" x="567.8334" y="184.8246">1</text><text fill="#000000" font-family="sans-serif" font-size="9.1" lengthAdjust="spacing" textLength="4.9" x="456.464" y="216.2736">1</text></g><!--MD5=[79f19711fae686ac5d47074cf5941dcb]
link Duration to Meeting--><g id="link_Duration_Meeting"><path codeLine="71" d="M442.575,175.2454 C442.575,175.2454 442.575,204.1064 442.575,204.1064 " fill="none" id="Duration-Meeting" style="stroke:#181818;stroke-width:0.6999999999999998;"/><polygon fill="#181818" points="442.575,212.5064,445.375,208.3064,442.575,204.1064,439.775,208.3064,442.575,212.5064" style="stroke:#181818;stroke-width:0.6999999999999998;"/><polygon fill="#181818" points="442.575,166.1454,439.775,172.4454,442.575,169.6454,445.375,172.4454,442.575,166.1454" style="stroke:#181818;stroke-width:0.6999999999999998;"/><line style="stroke:#181818;stroke-width:0.6999999999999998;" x1="442.575" x2="442.575" y1="169.6454" y2="175.2454"/><text fill="#000000" font-family="sans-serif" font-size="9.1" lengthAdjust="spacing" textLength="14.7" x="427.175" y="187.0674">has</text><text fill="#000000" font-family="sans-serif" font-size="9.1" lengthAdjust="spacing" textLength="4.9" x="441.8433" y="204.951">1</text><text fill="#000000" font-family="sans-serif" font-size="9.1" lengthAdjust="spacing" textLength="4.9" x="429.3789" y="179.9348">1</text></g><!--MD5=[2d78ec10f6fa335c8fd85bec6fbdb7be]
link Time to Meeting--><g id="link_Time_Meeting"><path codeLine="72" d="M401.625,175.2454 C401.625,175.2454 401.625,204.1064 401.625,204.1064 " fill="none" id="Time-Meeting" style="stroke:#181818;stroke-width:0.6999999999999998;"/><polygon fill="#181818" points="401.625,212.5064,404.425,208.3064,401.625,204.1064,398.825,208.3064,401.625,212.5064" style="stroke:#181818;stroke-width:0.6999999999999998;"/><polygon fill="#181818" points="401.625,166.1454,398.825,172.4454,401.625,169.6454,404.425,172.4454,401.625,166.1454" style="stroke:#181818;stroke-width:0.6999999999999998;"/><line style="stroke:#181818;stroke-width:0.6999999999999998;" x1="401.625" x2="401.625" y1="169.6454" y2="175.2454"/><text fill="#000000" font-family="sans-serif" font-size="9.1" lengthAdjust="spacing" textLength="14.7" x="386.225" y="187.0674">has</text><text fill="#000000" font-family="sans-serif" font-size="9.1" lengthAdjust="spacing" textLength="4.9" x="391.4236" y="204.951">1</text><text fill="#000000" font-family="sans-serif" font-size="9.1" lengthAdjust="spacing" textLength="4.9" x="403.7655" y="179.9348">1</text></g><!--MD5=[b6ea6a7b2da8d8abbac4220c9318c063]
link Meeting to User--><g id="link_Meeting_User"><path codeLine="73" d="M412.531,263.1444 C412.531,263.1444 412.531,312.6484 412.531,312.6484 C412.531,312.6484 268.527,312.6484 268.527,312.6484 " fill="none" id="Meeting-User" style="stroke:#181818;stroke-width:0.6999999999999998;"/><polygon fill="#181818" points="259.427,312.6484,265.727,315.4484,262.927,312.6484,265.727,309.8484,259.427,312.6484" style="stroke:#181818;stroke-width:0.6999999999999998;"/><line style="stroke:#181818;stroke-width:0.6999999999999998;" x1="262.927" x2="268.527" y1="312.6484" y2="312.6484"/><polygon fill="#181818" points="412.531,254.7444,409.731,258.9444,412.531,263.1444,415.331,258.9444,412.531,254.7444" style="stroke:#181818;stroke-width:0.6999999999999998;"/><text fill="#000000" font-family="sans-serif" font-size="9.1" lengthAdjust="spacing" textLength="14.7" x="349.531" y="310.3864">has</text><text fill="#000000" font-family="sans-serif" font-size="9.1" lengthAdjust="spacing" textLength="4.9" x="405.0018" y="268.6963">1</text><text fill="#000000" font-family="sans-serif" font-size="9.1" lengthAdjust="spacing" textLength="3.5" x="265.0872" y="308.4312">*</text></g><!--MD5=[979b70f72af22f50cfa1713c549e4041]
reverse link Meeting to User--><g id="link_Meeting_User"><path codeLine="74" d="M431.669,258.1744 C431.669,258.1744 431.669,328.7484 431.669,328.7484 C431.669,328.7484 321.972,328.7484 259.413,328.7484 " fill="none" id="Meeting-backto-User" style="stroke:#181818;stroke-width:0.6999999999999998;"/><polygon fill="#181818" points="431.669,254.6744,428.869,260.9744,431.669,258.1744,434.469,260.9744,431.669,254.6744" style="stroke:#181818;stroke-width:0.6999999999999998;"/><text fill="#000000" font-family="sans-serif" font-size="9.1" lengthAdjust="spacing" textLength="36.4" x="343.728" y="326.4864">schedule</text><text fill="#000000" font-family="sans-serif" font-size="9.1" lengthAdjust="spacing" textLength="4.9" x="428.3263" y="268.611">1</text><text fill="#000000" font-family="sans-serif" font-size="9.1" lengthAdjust="spacing" textLength="4.9" x="264.8807" y="326.6229">1</text></g><!--MD5=[c3f4e32f0127239a34d874350418a2d3]
@startuml

hide methods

skinparam packageStyle rectangle
skinparam linetype ortho

top to bottom direction

title Domain Driven Design

package "<<aggregate>> User" <<Folder>> #ffb380 {

   entity User <<root>> <<entity>>{
        String fullName
        String shortName
    }

    class Role <<(V,#B8255F) value object>> {}
    class Password <<(V,#B8255F) value object>> {}
    class Email <<Id>> <<unique>> <<(V,#B8255F) value object>>  {}
    entity Student <<entity>>{}
    entity Teacher <<entity>>{}
    entity Manager <<entity>>{}

    User "1" *- -> "1" Email : has
    User "1" *- -> "1" Password : has
    User "1" *- -> "1" Role : has
    Manager "1" - -> "*" User : creates
    Manager - -|> User
    Student - -|> User
    Teacher - -|> User
}



package "<<aggregate>> Profile" <<Folder>> #99b3ff {
   entity Profile <<root>> <<entity>>{}

    class TeacherProfile <<entity>> {}
    class StudentProfile <<entity>> {}
    class ManagerProfile <<entity>> <<NullObject>> {}
    class TaxPayerNumber <<(V,#B8255F) value object>> {}
    class DateOfBirth <<(V,#B8255F) value object>> {}
    class MechanographicNumber <<(V,#B8255F) value object>> {}
    class Acronym <<(V,#B8255F) value object>> {}
    class Schedule <<entity>> {}
    class "Day" as ProfileDay <<(V,#B8255F) value object>> {}

    TeacherProfile - -|> Profile
    StudentProfile - -|> Profile
    ManagerProfile - -|> Profile
    TaxPayerNumber "1" <- -* "1" Profile : has
    DateOfBirth "1" <- -* "1" Profile : has
    MechanographicNumber "1" <- -* "1" StudentProfile : has
    Acronym "1" <- -* "1" TeacherProfile : has
    Schedule "1" <- -* "1" Profile : has
    ProfileDay "1..*" <- -* "1" Schedule : has
}
Profile "1" *- -> "1" User : has

package "<<aggregate>> Meeting" <<Folder>> #aabbaa {
   entity Meeting <<root>> <<entity>>{
    }

    class "Title" as MeetingTitle <<(V,#B8255F) value object>> <<unique>> {}
    class Duration <<(V,#B8255F) value object>> {}
    class Time <<(V,#B8255F) value object>> {}

    Schedule "1" - -> "1" Meeting : map of
    MeetingTitle "1" <- -* "1" Meeting : has
    Duration "1" <- -* "1" Meeting : has
    Time "1" <- -* "1" Meeting : has
    Meeting "1" *- -> "*" User : has
    Meeting "1" <- - "1" User : schedule
}


@enduml

PlantUML version 1.2022.12(Sun Oct 23 19:12:26 WEST 2022)
(GPL source distribution)
Java Runtime: OpenJDK Runtime Environment
JVM: OpenJDK 64-Bit Server VM
Default Encoding: Cp1252
Language: en
Country: GB
--></g></svg>