<?xml version="1.0" encoding="us-ascii" standalone="no"?><svg xmlns="http://www.w3.org/2000/svg" xmlns:xlink="http://www.w3.org/1999/xlink" contentStyleType="text/css" height="872px" preserveAspectRatio="none" style="width:763px;height:872px;background:#FFFFFF;" version="1.1" viewBox="0 0 763 872" width="763px" zoomAndPan="magnify"><defs/><g><!--entity StudentRegistrationRepository--><g id="elem_StudentRegistrationRepository"><path d="M132,818 C132,808 238.5,808 238.5,808 C238.5,808 345,808 345,818 L345,845.6211 C345,855.6211 238.5,855.6211 238.5,855.6211 C238.5,855.6211 132,855.6211 132,845.6211 L132,818 " fill="#F1F1F1" style="stroke:#181818;stroke-width:0.5;"/><path d="M132,818 C132,828 238.5,828 238.5,828 C238.5,828 345,828 345,818 " fill="none" style="stroke:#181818;stroke-width:0.5;"/><text fill="#000000" font-family="sans-serif" font-size="14" lengthAdjust="spacing" textLength="193" x="142" y="847.1074">StudentRegistrationRepository</text></g><!--class AddStudentRegistrationUI--><g id="elem_AddStudentRegistrationUI"><rect codeLine="3" fill="#F1F1F1" height="48" id="AddStudentRegistrationUI" rx="2.5" ry="2.5" style="stroke:#181818;stroke-width:0.5;" width="194" x="336.5" y="7"/><ellipse cx="351.5" cy="23" fill="#ADD1B2" rx="11" ry="11" style="stroke:#181818;stroke-width:1.0;"/><path d="M354.2656,18.875 Q354.4219,18.6563 354.6094,18.5469 Q354.7969,18.4375 355.0156,18.4375 Q355.3906,18.4375 355.625,18.7031 Q355.8594,18.9531 355.8594,19.5625 L355.8594,21.0156 Q355.8594,21.625 355.625,21.8906 Q355.3906,22.1563 355.0156,22.1563 Q354.6719,22.1563 354.4688,21.9531 Q354.2656,21.7656 354.1563,21.25 Q354.1094,20.8906 353.9219,20.7031 Q353.5938,20.3281 352.9844,20.1094 Q352.375,19.8906 351.75,19.8906 Q350.9844,19.8906 350.3438,20.2188 Q349.7188,20.5469 349.2188,21.2969 Q348.7344,22.0469 348.7344,23.0781 L348.7344,24.1719 Q348.7344,25.4063 349.625,26.2344 Q350.5156,27.0469 352.1094,27.0469 Q353.0469,27.0469 353.7031,26.7969 Q354.0938,26.6406 354.5156,26.2031 Q354.7813,25.9375 354.9219,25.8594 Q355.0781,25.7813 355.2813,25.7813 Q355.6094,25.7813 355.8594,26.0469 Q356.125,26.2969 356.125,26.6406 Q356.125,26.9844 355.7813,27.3906 Q355.2813,27.9688 354.4844,28.2969 Q353.4063,28.75 352.1094,28.75 Q350.5938,28.75 349.3906,28.125 Q348.4063,27.625 347.7188,26.5625 Q347.0313,25.4844 347.0313,24.2031 L347.0313,23.0469 Q347.0313,21.7188 347.6406,20.5781 Q348.2656,19.4219 349.3594,18.8125 Q350.4531,18.1875 351.6875,18.1875 Q352.4219,18.1875 353.0625,18.3594 Q353.7188,18.5156 354.2656,18.875 Z " fill="#000000"/><text fill="#000000" font-family="sans-serif" font-size="14" lengthAdjust="spacing" textLength="162" x="365.5" y="28.7969">AddStudentRegistrationUI</text><line style="stroke:#181818;stroke-width:0.5;" x1="337.5" x2="529.5" y1="39" y2="39"/><line style="stroke:#181818;stroke-width:0.5;" x1="337.5" x2="529.5" y1="47" y2="47"/></g><!--class StudentRegistrationController--><g id="elem_StudentRegistrationController"><rect codeLine="6" fill="#F1F1F1" height="159.7266" id="StudentRegistrationController" rx="2.5" ry="2.5" style="stroke:#181818;stroke-width:0.5;" width="646" x="110.5" y="115"/><ellipse cx="335.75" cy="131" fill="#ADD1B2" rx="11" ry="11" style="stroke:#181818;stroke-width:1.0;"/><path d="M338.5156,126.875 Q338.6719,126.6563 338.8594,126.5469 Q339.0469,126.4375 339.2656,126.4375 Q339.6406,126.4375 339.875,126.7031 Q340.1094,126.9531 340.1094,127.5625 L340.1094,129.0156 Q340.1094,129.625 339.875,129.8906 Q339.6406,130.1563 339.2656,130.1563 Q338.9219,130.1563 338.7188,129.9531 Q338.5156,129.7656 338.4063,129.25 Q338.3594,128.8906 338.1719,128.7031 Q337.8438,128.3281 337.2344,128.1094 Q336.625,127.8906 336,127.8906 Q335.2344,127.8906 334.5938,128.2188 Q333.9688,128.5469 333.4688,129.2969 Q332.9844,130.0469 332.9844,131.0781 L332.9844,132.1719 Q332.9844,133.4063 333.875,134.2344 Q334.7656,135.0469 336.3594,135.0469 Q337.2969,135.0469 337.9531,134.7969 Q338.3438,134.6406 338.7656,134.2031 Q339.0313,133.9375 339.1719,133.8594 Q339.3281,133.7813 339.5313,133.7813 Q339.8594,133.7813 340.1094,134.0469 Q340.375,134.2969 340.375,134.6406 Q340.375,134.9844 340.0313,135.3906 Q339.5313,135.9688 338.7344,136.2969 Q337.6563,136.75 336.3594,136.75 Q334.8438,136.75 333.6406,136.125 Q332.6563,135.625 331.9688,134.5625 Q331.2813,133.4844 331.2813,132.2031 L331.2813,131.0469 Q331.2813,129.7188 331.8906,128.5781 Q332.5156,127.4219 333.6094,126.8125 Q334.7031,126.1875 335.9375,126.1875 Q336.6719,126.1875 337.3125,126.3594 Q337.9688,126.5156 338.5156,126.875 Z " fill="#000000"/><text fill="#000000" font-family="sans-serif" font-size="14" lengthAdjust="spacing" textLength="187" x="356.25" y="136.7969">StudentRegistrationController</text><line style="stroke:#181818;stroke-width:0.5;" x1="111.5" x2="755.5" y1="147" y2="147"/><line style="stroke:#181818;stroke-width:0.5;" x1="111.5" x2="755.5" y1="155" y2="155"/><ellipse cx="121.5" cy="169.8105" fill="#84BE84" rx="3" ry="3" style="stroke:#038048;stroke-width:1.0;"/><text fill="#000000" font-family="sans-serif" font-size="14" lengthAdjust="spacing" textLength="83" x="130.5" y="174.1074">getCourses()</text><ellipse cx="121.5" cy="188.4316" fill="#84BE84" rx="3" ry="3" style="stroke:#038048;stroke-width:1.0;"/><text fill="#000000" font-family="sans-serif" font-size="14" lengthAdjust="spacing" textLength="620" x="130.5" y="192.7285">addStudentRegistration(final StudentProfile studentProfile, final Status status, final Course course)</text><ellipse cx="121.5" cy="207.0527" fill="#84BE84" rx="3" ry="3" style="stroke:#038048;stroke-width:1.0;"/><text fill="#000000" font-family="sans-serif" font-size="14" lengthAdjust="spacing" textLength="417" x="130.5" y="211.3496">saveStudentRegistration(StudentRegistration studentRegistration)</text><ellipse cx="121.5" cy="225.6738" fill="#84BE84" rx="3" ry="3" style="stroke:#038048;stroke-width:1.0;"/><text fill="#000000" font-family="sans-serif" font-size="14" lengthAdjust="spacing" textLength="317" x="130.5" y="229.9707">getStudentRegistrationsByCourse(Course course)</text><ellipse cx="121.5" cy="244.2949" fill="#84BE84" rx="3" ry="3" style="stroke:#038048;stroke-width:1.0;"/><text fill="#000000" font-family="sans-serif" font-size="14" lengthAdjust="spacing" textLength="162" x="130.5" y="248.5918">getStudentRegistrations()</text><ellipse cx="121.5" cy="262.916" fill="#84BE84" rx="3" ry="3" style="stroke:#038048;stroke-width:1.0;"/><text fill="#000000" font-family="sans-serif" font-size="14" lengthAdjust="spacing" textLength="77" x="130.5" y="267.2129">getService()</text></g><!--class StudentRegistrationService--><g id="elem_StudentRegistrationService"><rect codeLine="15" fill="#F1F1F1" height="103.8633" id="StudentRegistrationService" rx="2.5" ry="2.5" style="stroke:#181818;stroke-width:0.5;" width="463" x="7" y="644"/><ellipse cx="148.25" cy="660" fill="#ADD1B2" rx="11" ry="11" style="stroke:#181818;stroke-width:1.0;"/><path d="M151.0156,655.875 Q151.1719,655.6563 151.3594,655.5469 Q151.5469,655.4375 151.7656,655.4375 Q152.1406,655.4375 152.375,655.7031 Q152.6094,655.9531 152.6094,656.5625 L152.6094,658.0156 Q152.6094,658.625 152.375,658.8906 Q152.1406,659.1563 151.7656,659.1563 Q151.4219,659.1563 151.2188,658.9531 Q151.0156,658.7656 150.9063,658.25 Q150.8594,657.8906 150.6719,657.7031 Q150.3438,657.3281 149.7344,657.1094 Q149.125,656.8906 148.5,656.8906 Q147.7344,656.8906 147.0938,657.2188 Q146.4688,657.5469 145.9688,658.2969 Q145.4844,659.0469 145.4844,660.0781 L145.4844,661.1719 Q145.4844,662.4063 146.375,663.2344 Q147.2656,664.0469 148.8594,664.0469 Q149.7969,664.0469 150.4531,663.7969 Q150.8438,663.6406 151.2656,663.2031 Q151.5313,662.9375 151.6719,662.8594 Q151.8281,662.7813 152.0313,662.7813 Q152.3594,662.7813 152.6094,663.0469 Q152.875,663.2969 152.875,663.6406 Q152.875,663.9844 152.5313,664.3906 Q152.0313,664.9688 151.2344,665.2969 Q150.1563,665.75 148.8594,665.75 Q147.3438,665.75 146.1406,665.125 Q145.1563,664.625 144.4688,663.5625 Q143.7813,662.4844 143.7813,661.2031 L143.7813,660.0469 Q143.7813,658.7188 144.3906,657.5781 Q145.0156,656.4219 146.1094,655.8125 Q147.2031,655.1875 148.4375,655.1875 Q149.1719,655.1875 149.8125,655.3594 Q150.4688,655.5156 151.0156,655.875 Z " fill="#000000"/><text fill="#000000" font-family="sans-serif" font-size="14" lengthAdjust="spacing" textLength="172" x="168.75" y="665.7969">StudentRegistrationService</text><line style="stroke:#181818;stroke-width:0.5;" x1="8" x2="469" y1="676" y2="676"/><line style="stroke:#181818;stroke-width:0.5;" x1="8" x2="469" y1="684" y2="684"/><ellipse cx="18" cy="698.8105" fill="#84BE84" rx="3" ry="3" style="stroke:#038048;stroke-width:1.0;"/><text fill="#000000" font-family="sans-serif" font-size="14" lengthAdjust="spacing" textLength="437" x="27" y="703.1074">addNewStudentRegistration(StudentRegistration studentRegistration)</text><ellipse cx="18" cy="717.4316" fill="#84BE84" rx="3" ry="3" style="stroke:#038048;stroke-width:1.0;"/><text fill="#000000" font-family="sans-serif" font-size="14" lengthAdjust="spacing" textLength="45" x="27" y="721.7285">getAll()</text><ellipse cx="18" cy="736.0527" fill="#84BE84" rx="3" ry="3" style="stroke:#038048;stroke-width:1.0;"/><text fill="#000000" font-family="sans-serif" font-size="14" lengthAdjust="spacing" textLength="98" x="27" y="740.3496">getRepository()</text></g><!--class PersistenceContext--><g id="elem_PersistenceContext"><rect codeLine="22" fill="#F1F1F1" height="66.6211" id="PersistenceContext" rx="2.5" ry="2.5" style="stroke:#181818;stroke-width:0.5;" width="154" x="161.5" y="344"/><ellipse cx="176.5" cy="360" fill="#ADD1B2" rx="11" ry="11" style="stroke:#181818;stroke-width:1.0;"/><path d="M179.2656,355.875 Q179.4219,355.6563 179.6094,355.5469 Q179.7969,355.4375 180.0156,355.4375 Q180.3906,355.4375 180.625,355.7031 Q180.8594,355.9531 180.8594,356.5625 L180.8594,358.0156 Q180.8594,358.625 180.625,358.8906 Q180.3906,359.1563 180.0156,359.1563 Q179.6719,359.1563 179.4688,358.9531 Q179.2656,358.7656 179.1563,358.25 Q179.1094,357.8906 178.9219,357.7031 Q178.5938,357.3281 177.9844,357.1094 Q177.375,356.8906 176.75,356.8906 Q175.9844,356.8906 175.3438,357.2188 Q174.7188,357.5469 174.2188,358.2969 Q173.7344,359.0469 173.7344,360.0781 L173.7344,361.1719 Q173.7344,362.4063 174.625,363.2344 Q175.5156,364.0469 177.1094,364.0469 Q178.0469,364.0469 178.7031,363.7969 Q179.0938,363.6406 179.5156,363.2031 Q179.7813,362.9375 179.9219,362.8594 Q180.0781,362.7813 180.2813,362.7813 Q180.6094,362.7813 180.8594,363.0469 Q181.125,363.2969 181.125,363.6406 Q181.125,363.9844 180.7813,364.3906 Q180.2813,364.9688 179.4844,365.2969 Q178.4063,365.75 177.1094,365.75 Q175.5938,365.75 174.3906,365.125 Q173.4063,364.625 172.7188,363.5625 Q172.0313,362.4844 172.0313,361.2031 L172.0313,360.0469 Q172.0313,358.7188 172.6406,357.5781 Q173.2656,356.4219 174.3594,355.8125 Q175.4531,355.1875 176.6875,355.1875 Q177.4219,355.1875 178.0625,355.3594 Q178.7188,355.5156 179.2656,355.875 Z " fill="#000000"/><text fill="#000000" font-family="sans-serif" font-size="14" lengthAdjust="spacing" textLength="122" x="190.5" y="365.7969">PersistenceContext</text><line style="stroke:#181818;stroke-width:0.5;" x1="162.5" x2="314.5" y1="376" y2="376"/><line style="stroke:#181818;stroke-width:0.5;" x1="162.5" x2="314.5" y1="384" y2="384"/><ellipse cx="172.5" cy="398.8105" fill="#84BE84" rx="3" ry="3" style="stroke:#038048;stroke-width:1.0;"/><text fill="#000000" font-family="sans-serif" font-size="14" lengthAdjust="spacing" textLength="84" x="181.5" y="403.1074">repositories()</text></g><!--class RepositoryFactory--><g id="elem_RepositoryFactory"><rect codeLine="26" fill="#F1F1F1" height="103.8633" id="RepositoryFactory" rx="2.5" ry="2.5" style="stroke:#181818;stroke-width:0.5;" width="231" x="123" y="480"/><ellipse cx="176.25" cy="496" fill="#ADD1B2" rx="11" ry="11" style="stroke:#181818;stroke-width:1.0;"/><path d="M179.0156,491.875 Q179.1719,491.6563 179.3594,491.5469 Q179.5469,491.4375 179.7656,491.4375 Q180.1406,491.4375 180.375,491.7031 Q180.6094,491.9531 180.6094,492.5625 L180.6094,494.0156 Q180.6094,494.625 180.375,494.8906 Q180.1406,495.1563 179.7656,495.1563 Q179.4219,495.1563 179.2188,494.9531 Q179.0156,494.7656 178.9063,494.25 Q178.8594,493.8906 178.6719,493.7031 Q178.3438,493.3281 177.7344,493.1094 Q177.125,492.8906 176.5,492.8906 Q175.7344,492.8906 175.0938,493.2188 Q174.4688,493.5469 173.9688,494.2969 Q173.4844,495.0469 173.4844,496.0781 L173.4844,497.1719 Q173.4844,498.4063 174.375,499.2344 Q175.2656,500.0469 176.8594,500.0469 Q177.7969,500.0469 178.4531,499.7969 Q178.8438,499.6406 179.2656,499.2031 Q179.5313,498.9375 179.6719,498.8594 Q179.8281,498.7813 180.0313,498.7813 Q180.3594,498.7813 180.6094,499.0469 Q180.875,499.2969 180.875,499.6406 Q180.875,499.9844 180.5313,500.3906 Q180.0313,500.9688 179.2344,501.2969 Q178.1563,501.75 176.8594,501.75 Q175.3438,501.75 174.1406,501.125 Q173.1563,500.625 172.4688,499.5625 Q171.7813,498.4844 171.7813,497.2031 L171.7813,496.0469 Q171.7813,494.7188 172.3906,493.5781 Q173.0156,492.4219 174.1094,491.8125 Q175.2031,491.1875 176.4375,491.1875 Q177.1719,491.1875 177.8125,491.3594 Q178.4688,491.5156 179.0156,491.875 Z " fill="#000000"/><text fill="#000000" font-family="sans-serif" font-size="14" lengthAdjust="spacing" textLength="116" x="196.75" y="501.7969">RepositoryFactory</text><line style="stroke:#181818;stroke-width:0.5;" x1="124" x2="353" y1="512" y2="512"/><line style="stroke:#181818;stroke-width:0.5;" x1="124" x2="353" y1="520" y2="520"/><ellipse cx="134" cy="534.8105" fill="#84BE84" rx="3" ry="3" style="stroke:#038048;stroke-width:1.0;"/><text fill="#000000" font-family="sans-serif" font-size="14" lengthAdjust="spacing" textLength="50" x="143" y="539.1074">create()</text><ellipse cx="134" cy="553.4316" fill="#84BE84" rx="3" ry="3" style="stroke:#038048;stroke-width:1.0;"/><text fill="#000000" font-family="sans-serif" font-size="14" lengthAdjust="spacing" textLength="169" x="143" y="557.7285">newTransactionalContext()</text><ellipse cx="134" cy="572.0527" fill="#84BE84" rx="3" ry="3" style="stroke:#038048;stroke-width:1.0;"/><text fill="#000000" font-family="sans-serif" font-size="14" lengthAdjust="spacing" textLength="205" x="143" y="576.3496">create(TransactionalContext ctx)</text></g><!--class TransactionalContext--><g id="elem_TransactionalContext"><rect codeLine="35" fill="#F1F1F1" height="85.2422" id="TransactionalContext" rx="2.5" ry="2.5" style="stroke:#181818;stroke-width:0.5;" width="166" x="350.5" y="335"/><ellipse cx="365.5" cy="351" fill="#ADD1B2" rx="11" ry="11" style="stroke:#181818;stroke-width:1.0;"/><path d="M368.2656,346.875 Q368.4219,346.6563 368.6094,346.5469 Q368.7969,346.4375 369.0156,346.4375 Q369.3906,346.4375 369.625,346.7031 Q369.8594,346.9531 369.8594,347.5625 L369.8594,349.0156 Q369.8594,349.625 369.625,349.8906 Q369.3906,350.1563 369.0156,350.1563 Q368.6719,350.1563 368.4688,349.9531 Q368.2656,349.7656 368.1563,349.25 Q368.1094,348.8906 367.9219,348.7031 Q367.5938,348.3281 366.9844,348.1094 Q366.375,347.8906 365.75,347.8906 Q364.9844,347.8906 364.3438,348.2188 Q363.7188,348.5469 363.2188,349.2969 Q362.7344,350.0469 362.7344,351.0781 L362.7344,352.1719 Q362.7344,353.4063 363.625,354.2344 Q364.5156,355.0469 366.1094,355.0469 Q367.0469,355.0469 367.7031,354.7969 Q368.0938,354.6406 368.5156,354.2031 Q368.7813,353.9375 368.9219,353.8594 Q369.0781,353.7813 369.2813,353.7813 Q369.6094,353.7813 369.8594,354.0469 Q370.125,354.2969 370.125,354.6406 Q370.125,354.9844 369.7813,355.3906 Q369.2813,355.9688 368.4844,356.2969 Q367.4063,356.75 366.1094,356.75 Q364.5938,356.75 363.3906,356.125 Q362.4063,355.625 361.7188,354.5625 Q361.0313,353.4844 361.0313,352.2031 L361.0313,351.0469 Q361.0313,349.7188 361.6406,348.5781 Q362.2656,347.4219 363.3594,346.8125 Q364.4531,346.1875 365.6875,346.1875 Q366.4219,346.1875 367.0625,346.3594 Q367.7188,346.5156 368.2656,346.875 Z " fill="#000000"/><text fill="#000000" font-family="sans-serif" font-size="14" lengthAdjust="spacing" textLength="134" x="379.5" y="356.7969">TransactionalContext</text><line style="stroke:#181818;stroke-width:0.5;" x1="351.5" x2="515.5" y1="367" y2="367"/><line style="stroke:#181818;stroke-width:0.5;" x1="351.5" x2="515.5" y1="375" y2="375"/><ellipse cx="361.5" cy="389.8105" fill="#84BE84" rx="3" ry="3" style="stroke:#038048;stroke-width:1.0;"/><text fill="#000000" font-family="sans-serif" font-size="14" lengthAdjust="spacing" textLength="120" x="370.5" y="394.1074">beginTransaction()</text><ellipse cx="361.5" cy="408.4316" fill="#84BE84" rx="3" ry="3" style="stroke:#038048;stroke-width:1.0;"/><text fill="#000000" font-family="sans-serif" font-size="14" lengthAdjust="spacing" textLength="54" x="370.5" y="412.7285">commit()</text></g><!--class StudentRegistration--><g id="elem_StudentRegistration"><rect codeLine="40" fill="#F1F1F1" height="66.6211" id="StudentRegistration" rx="2.5" ry="2.5" style="stroke:#181818;stroke-width:0.5;" width="177" x="552" y="344"/><ellipse cx="576" cy="360" fill="#ADD1B2" rx="11" ry="11" style="stroke:#181818;stroke-width:1.0;"/><path d="M578.7656,355.875 Q578.9219,355.6563 579.1094,355.5469 Q579.2969,355.4375 579.5156,355.4375 Q579.8906,355.4375 580.125,355.7031 Q580.3594,355.9531 580.3594,356.5625 L580.3594,358.0156 Q580.3594,358.625 580.125,358.8906 Q579.8906,359.1563 579.5156,359.1563 Q579.1719,359.1563 578.9688,358.9531 Q578.7656,358.7656 578.6563,358.25 Q578.6094,357.8906 578.4219,357.7031 Q578.0938,357.3281 577.4844,357.1094 Q576.875,356.8906 576.25,356.8906 Q575.4844,356.8906 574.8438,357.2188 Q574.2188,357.5469 573.7188,358.2969 Q573.2344,359.0469 573.2344,360.0781 L573.2344,361.1719 Q573.2344,362.4063 574.125,363.2344 Q575.0156,364.0469 576.6094,364.0469 Q577.5469,364.0469 578.2031,363.7969 Q578.5938,363.6406 579.0156,363.2031 Q579.2813,362.9375 579.4219,362.8594 Q579.5781,362.7813 579.7813,362.7813 Q580.1094,362.7813 580.3594,363.0469 Q580.625,363.2969 580.625,363.6406 Q580.625,363.9844 580.2813,364.3906 Q579.7813,364.9688 578.9844,365.2969 Q577.9063,365.75 576.6094,365.75 Q575.0938,365.75 573.8906,365.125 Q572.9063,364.625 572.2188,363.5625 Q571.5313,362.4844 571.5313,361.2031 L571.5313,360.0469 Q571.5313,358.7188 572.1406,357.5781 Q572.7656,356.4219 573.8594,355.8125 Q574.9531,355.1875 576.1875,355.1875 Q576.9219,355.1875 577.5625,355.3594 Q578.2188,355.5156 578.7656,355.875 Z " fill="#000000"/><text fill="#000000" font-family="sans-serif" font-size="14" lengthAdjust="spacing" textLength="125" x="592" y="365.7969">StudentRegistration</text><line style="stroke:#181818;stroke-width:0.5;" x1="553" x2="728" y1="376" y2="376"/><line style="stroke:#181818;stroke-width:0.5;" x1="553" x2="728" y1="384" y2="384"/><ellipse cx="563" cy="398.8105" fill="#84BE84" rx="3" ry="3" style="stroke:#038048;stroke-width:1.0;"/><text fill="#000000" font-family="sans-serif" font-size="14" lengthAdjust="spacing" textLength="151" x="572" y="403.1074">setStatus(Status status)</text></g><!--link AddStudentRegistrationUI to StudentRegistrationController--><g id="link_AddStudentRegistrationUI_StudentRegistrationController"><path codeLine="44" d="M433.5,55.21 C433.5,69.81 433.5,89.63 433.5,109.73 " fill="none" id="AddStudentRegistrationUI-to-StudentRegistrationController" style="stroke:#181818;stroke-width:1.0;"/><polygon fill="#181818" points="433.5,114.84,437.5,105.84,433.5,109.84,429.5,105.84,433.5,114.84" style="stroke:#181818;stroke-width:1.0;"/></g><!--link StudentRegistrationController to PersistenceContext--><g id="link_StudentRegistrationController_PersistenceContext"><path codeLine="45" d="M347.97,275.17 C323.5,297.82 298.01,321.41 277.79,340.13 " fill="none" id="StudentRegistrationController-to-PersistenceContext" style="stroke:#181818;stroke-width:1.0;"/><polygon fill="#181818" points="274.08,343.57,283.4079,340.4092,277.7557,340.1804,277.9845,334.5282,274.08,343.57" style="stroke:#181818;stroke-width:1.0;"/></g><!--link StudentRegistrationController to TransactionalContext--><g id="link_StudentRegistrationController_TransactionalContext"><path codeLine="46" d="M433.5,275.17 C433.5,293.71 433.5,312.89 433.5,329.5 " fill="none" id="StudentRegistrationController-to-TransactionalContext" style="stroke:#181818;stroke-width:1.0;"/><polygon fill="#181818" points="433.5,334.57,437.5,325.57,433.5,329.57,429.5,325.57,433.5,334.57" style="stroke:#181818;stroke-width:1.0;"/></g><!--link StudentRegistrationService to StudentRegistrationRepository--><g id="link_StudentRegistrationService_StudentRegistrationRepository"><path codeLine="48" d="M238.5,748.04 C238.5,766.51 238.5,786.71 238.5,802.54 " fill="none" id="StudentRegistrationService-to-StudentRegistrationRepository" style="stroke:#181818;stroke-width:1.0;"/><polygon fill="#181818" points="238.5,807.74,242.5,798.74,238.5,802.74,234.5,798.74,238.5,807.74" style="stroke:#181818;stroke-width:1.0;"/></g><!--link StudentRegistrationController to StudentRegistration--><g id="link_StudentRegistrationController_StudentRegistration"><path codeLine="49" d="M524.29,275.17 C550.37,297.91 577.54,321.6 599.05,340.35 " fill="none" id="StudentRegistrationController-to-StudentRegistration" style="stroke:#181818;stroke-width:1.0;"/><polygon fill="#181818" points="602.99,343.8,598.8316,334.8721,599.22,340.5156,593.5765,340.904,602.99,343.8" style="stroke:#181818;stroke-width:1.0;"/></g><!--link PersistenceContext to RepositoryFactory--><g id="link_PersistenceContext_RepositoryFactory"><path codeLine="51" d="M238.5,411.22 C238.5,429.69 238.5,453.29 238.5,474.65 " fill="none" id="PersistenceContext-to-RepositoryFactory" style="stroke:#181818;stroke-width:1.0;"/><polygon fill="#181818" points="238.5,479.74,242.5,470.74,238.5,474.74,234.5,470.74,238.5,479.74" style="stroke:#181818;stroke-width:1.0;"/></g><!--link RepositoryFactory to StudentRegistrationService--><g id="link_RepositoryFactory_StudentRegistrationService"><path codeLine="53" d="M238.5,584.26 C238.5,601.48 238.5,620.78 238.5,638.39 " fill="none" id="RepositoryFactory-to-StudentRegistrationService" style="stroke:#181818;stroke-width:1.0;"/><polygon fill="#181818" points="238.5,643.8,242.5,634.8,238.5,638.8,234.5,634.8,238.5,643.8" style="stroke:#181818;stroke-width:1.0;"/></g><!--SRC=[fLFBJiCm4BpxAt8ZLGczSq0gbP2ueAh01soTRR7as9MzwKCL_yxQJMXBdFJ0oR9dTcVsuRileer_d4ms6WpLbNwGjff83TuNfOArWqg8UCscPVbETOc65hXMdXoGikRpzIY-Mqe2drb3pcgDxYZ6QwIPhPr7du_46989yvKoeDjKSsTNIcFchwxtMKi2gZs3uMWVJmgPZ0VBUDXYIYVnrifSlesYxGJPFnzEKlbVnHv-ta3ejaeYtuRwrh2EiKrlkFjt1LEj6mCBt5YloBh3oKDZOexESmmQYM5ek2SMTorNnPdzEZxdU04P3kPAXq2Xhh71tOS3unbYVT1DlW0rf1ISITf7YH88bi0TJHHu5hxOkrGsDhJaE7E1HNrRLOfkD9zZVPXXMAlyQibYNDzFo8hYQVWFY46Kmxj3k1cIAbw8_fNgStdkxB1aNxmGNVDCxMoA49qdflNx_G40]--></g></svg>