<?xml version="1.0" encoding="us-ascii" standalone="no"?><svg xmlns="http://www.w3.org/2000/svg" xmlns:xlink="http://www.w3.org/1999/xlink" contentStyleType="text/css" height="727px" preserveAspectRatio="none" style="width:1845px;height:727px;background:#FFFFFF;" version="1.1" viewBox="0 0 1845 727" width="1845px" zoomAndPan="magnify"><defs/><g><text fill="#000000" font-family="sans-serif" font-size="14" font-weight="bold" lengthAdjust="spacing" textLength="156" x="837.5" y="25.1074">Domain Driven Design</text><!--cluster <<aggregate>> User--><g id="cluster_&lt;&lt;aggregate&gt;&gt; User"><path d="M8.5,295.6348 L134.5,295.6348 A3.75,3.75 0 0 1 137,298.1348 L144,320.2559 L433.5,320.2559 A2.5,2.5 0 0 1 436,322.7559 L436,718.1348 A2.5,2.5 0 0 1 433.5,720.6348 L8.5,720.6348 A2.5,2.5 0 0 1 6,718.1348 L6,298.1348 A2.5,2.5 0 0 1 8.5,295.6348 " fill="#FFB380" style="stroke:#000000;stroke-width:1.5;"/><line style="stroke:#000000;stroke-width:1.5;" x1="6" x2="144" y1="320.2559" y2="320.2559"/><text fill="#000000" font-family="sans-serif" font-size="14" font-weight="bold" lengthAdjust="spacing" textLength="125" x="10" y="312.7422">&#171;aggregate&#187; User</text></g><!--cluster <<aggregate>> Profile--><g id="cluster_&lt;&lt;aggregate&gt;&gt; Profile"><path d="M462.5,45.6348 L601.5,45.6348 A3.75,3.75 0 0 1 604,48.1348 L611,70.2559 L1381.5,70.2559 A2.5,2.5 0 0 1 1384,72.7559 L1384,407.1348 A2.5,2.5 0 0 1 1381.5,409.6348 L462.5,409.6348 A2.5,2.5 0 0 1 460,407.1348 L460,48.1348 A2.5,2.5 0 0 1 462.5,45.6348 " fill="#99B3FF" style="stroke:#000000;stroke-width:1.5;"/><line style="stroke:#000000;stroke-width:1.5;" x1="460" x2="611" y1="70.2559" y2="70.2559"/><text fill="#000000" font-family="sans-serif" font-size="14" font-weight="bold" lengthAdjust="spacing" textLength="138" x="464" y="62.7422">&#171;aggregate&#187; Profile</text></g><!--cluster <<aggregate>> Meeting--><g id="cluster_&lt;&lt;aggregate&gt;&gt; Meeting"><path d="M1410.5,158.6348 L1561.5,158.6348 A3.75,3.75 0 0 1 1564,161.1348 L1571,183.2559 L1835.5,183.2559 A2.5,2.5 0 0 1 1838,185.7559 L1838,702.1348 A2.5,2.5 0 0 1 1835.5,704.6348 L1410.5,704.6348 A2.5,2.5 0 0 1 1408,702.1348 L1408,161.1348 A2.5,2.5 0 0 1 1410.5,158.6348 " fill="#AABBAA" style="stroke:#000000;stroke-width:1.5;"/><line style="stroke:#000000;stroke-width:1.5;" x1="1408" x2="1571" y1="183.2559" y2="183.2559"/><text fill="#000000" font-family="sans-serif" font-size="14" font-weight="bold" lengthAdjust="spacing" textLength="150" x="1412" y="175.7422">&#171;aggregate&#187; Meeting</text></g><!--class User--><g id="elem_User"><rect codeLine="13" fill="#F1F1F1" height="105.7852" id="User" rx="2.5" ry="2.5" style="stroke:#181818;stroke-width:0.5;" width="121" x="249.5" y="453.6348"/><ellipse cx="287" cy="483.9063" fill="#ADD1B2" rx="11" ry="11" style="stroke:#181818;stroke-width:1.0;"/><path d="M285.8594,484.7031 L285.8594,487.2031 L290.1875,487.2031 L290.1875,486.2813 Q290.1875,485.6719 290.4219,485.4063 Q290.6719,485.1406 291.0469,485.1406 Q291.4219,485.1406 291.6563,485.4063 Q291.8906,485.6719 291.8906,486.2813 L291.8906,488.9063 L283.8906,488.9063 Q283.2656,488.9063 283,488.6719 Q282.75,488.4375 282.75,488.0469 Q282.75,487.6719 283.0156,487.4375 Q283.2813,487.2031 283.8906,487.2031 L284.1563,487.2031 L284.1563,480.5469 L283.8906,480.5469 Q283.2656,480.5469 283,480.3125 Q282.75,480.0781 282.75,479.6875 Q282.75,479.3125 283,479.0781 Q283.2656,478.8438 283.8906,478.8438 L291.5156,478.8438 L291.5156,481.4375 Q291.5156,482.0469 291.2813,482.3125 Q291.0625,482.5625 290.6719,482.5625 Q290.2969,482.5625 290.0625,482.3125 Q289.8281,482.0469 289.8281,481.4375 L289.8281,480.5469 L285.8594,480.5469 L285.8594,483 L287.3438,483 Q287.3438,482.3438 287.4688,482.1563 Q287.7344,481.75 288.2031,481.75 Q288.5781,481.75 288.8125,482.0156 Q289.0469,482.2656 289.0469,482.875 L289.0469,484.8438 Q289.0469,485.3906 288.9219,485.5781 Q288.6563,485.9688 288.2031,485.9688 Q287.7344,485.9688 287.4688,485.5625 Q287.3438,485.375 287.3438,484.7031 L285.8594,484.7031 Z " fill="#000000"/><text fill="#000000" font-family="sans-serif" font-size="12" font-style="italic" lengthAdjust="spacing" textLength="35" x="308" y="471.584">&#171;root&#187;</text><text fill="#000000" font-family="sans-serif" font-size="12" font-style="italic" lengthAdjust="spacing" textLength="43" x="304" y="487.5449">&#171;entity&#187;</text><text fill="#000000" font-family="sans-serif" font-size="14" lengthAdjust="spacing" textLength="29" x="311" y="505.6641">User</text><line style="stroke:#181818;stroke-width:0.5;" x1="250.5" x2="369.5" y1="514.1777" y2="514.1777"/><text fill="#000000" font-family="sans-serif" font-size="14" lengthAdjust="spacing" textLength="95" x="255.5" y="533.2852">String fullName</text><text fill="#000000" font-family="sans-serif" font-size="14" lengthAdjust="spacing" textLength="109" x="255.5" y="551.9063">String shortName</text></g><!--class Role--><g id="elem_Role"><rect codeLine="18" fill="#F1F1F1" height="52.582" id="Role" rx="2.5" ry="2.5" style="stroke:#181818;stroke-width:0.5;" width="109" x="22.5" y="635.6348"/><ellipse cx="37.5" cy="657.9258" fill="#B8255F" rx="11" ry="11" style="stroke:#181818;stroke-width:1.0;"/><path d="M38.0938,661.1914 L40.5625,655.3164 L40.1719,655.3164 Q39.5625,655.3164 39.2969,655.082 Q39.0313,654.8477 39.0313,654.457 Q39.0313,654.082 39.2969,653.8477 Q39.5625,653.6133 40.1719,653.6133 L42.4531,653.6133 Q43.0625,653.6133 43.3281,653.8477 Q43.5938,654.082 43.5938,654.457 Q43.5938,654.9258 43.1875,655.1914 Q43,655.3164 42.4063,655.3164 L38.9219,663.6758 L37.2813,663.6758 L33.7969,655.3164 Q33.2031,655.3164 33.0156,655.1914 Q32.6094,654.9258 32.6094,654.457 Q32.6094,654.082 32.875,653.8477 Q33.1406,653.6133 33.75,653.6133 L36.0469,653.6133 Q36.6563,653.6133 36.9063,653.8477 Q37.1719,654.082 37.1719,654.457 Q37.1719,654.8477 36.9063,655.082 Q36.6563,655.3164 36.0469,655.3164 L35.6406,655.3164 L38.0938,661.1914 Z " fill="#000000"/><text fill="#000000" font-family="sans-serif" font-size="12" font-style="italic" lengthAdjust="spacing" textLength="81" x="49.5" y="653.584">&#171;value object&#187;</text><text fill="#000000" font-family="sans-serif" font-size="14" lengthAdjust="spacing" textLength="29" x="75.5" y="671.7031">Role</text><line style="stroke:#181818;stroke-width:0.5;" x1="23.5" x2="130.5" y1="680.2168" y2="680.2168"/></g><!--class Password--><g id="elem_Password"><rect codeLine="19" fill="#F1F1F1" height="52.582" id="Password" rx="2.5" ry="2.5" style="stroke:#181818;stroke-width:0.5;" width="109" x="166.5" y="635.6348"/><ellipse cx="181.5" cy="657.9258" fill="#B8255F" rx="11" ry="11" style="stroke:#181818;stroke-width:1.0;"/><path d="M182.0938,661.1914 L184.5625,655.3164 L184.1719,655.3164 Q183.5625,655.3164 183.2969,655.082 Q183.0313,654.8477 183.0313,654.457 Q183.0313,654.082 183.2969,653.8477 Q183.5625,653.6133 184.1719,653.6133 L186.4531,653.6133 Q187.0625,653.6133 187.3281,653.8477 Q187.5938,654.082 187.5938,654.457 Q187.5938,654.9258 187.1875,655.1914 Q187,655.3164 186.4063,655.3164 L182.9219,663.6758 L181.2813,663.6758 L177.7969,655.3164 Q177.2031,655.3164 177.0156,655.1914 Q176.6094,654.9258 176.6094,654.457 Q176.6094,654.082 176.875,653.8477 Q177.1406,653.6133 177.75,653.6133 L180.0469,653.6133 Q180.6563,653.6133 180.9063,653.8477 Q181.1719,654.082 181.1719,654.457 Q181.1719,654.8477 180.9063,655.082 Q180.6563,655.3164 180.0469,655.3164 L179.6406,655.3164 L182.0938,661.1914 Z " fill="#000000"/><text fill="#000000" font-family="sans-serif" font-size="12" font-style="italic" lengthAdjust="spacing" textLength="81" x="193.5" y="653.584">&#171;value object&#187;</text><text fill="#000000" font-family="sans-serif" font-size="14" lengthAdjust="spacing" textLength="61" x="203.5" y="671.7031">Password</text><line style="stroke:#181818;stroke-width:0.5;" x1="167.5" x2="274.5" y1="680.2168" y2="680.2168"/></g><!--class Email--><g id="elem_Email"><rect codeLine="20" fill="#F1F1F1" height="84.5039" id="Email" rx="2.5" ry="2.5" style="stroke:#181818;stroke-width:0.5;" width="109" x="310.5" y="619.6348"/><ellipse cx="325.5" cy="657.8867" fill="#B8255F" rx="11" ry="11" style="stroke:#181818;stroke-width:1.0;"/><path d="M326.0938,661.1523 L328.5625,655.2773 L328.1719,655.2773 Q327.5625,655.2773 327.2969,655.043 Q327.0313,654.8086 327.0313,654.418 Q327.0313,654.043 327.2969,653.8086 Q327.5625,653.5742 328.1719,653.5742 L330.4531,653.5742 Q331.0625,653.5742 331.3281,653.8086 Q331.5938,654.043 331.5938,654.418 Q331.5938,654.8867 331.1875,655.1523 Q331,655.2773 330.4063,655.2773 L326.9219,663.6367 L325.2813,663.6367 L321.7969,655.2773 Q321.2031,655.2773 321.0156,655.1523 Q320.6094,654.8867 320.6094,654.418 Q320.6094,654.043 320.875,653.8086 Q321.1406,653.5742 321.75,653.5742 L324.0469,653.5742 Q324.6563,653.5742 324.9063,653.8086 Q325.1719,654.043 325.1719,654.418 Q325.1719,654.8086 324.9063,655.043 Q324.6563,655.2773 324.0469,655.2773 L323.6406,655.2773 L326.0938,661.1523 Z " fill="#000000"/><text fill="#000000" font-family="sans-serif" font-size="12" font-style="italic" lengthAdjust="spacing" textLength="25" x="365.5" y="637.584">&#171;Id&#187;</text><text fill="#000000" font-family="sans-serif" font-size="12" font-style="italic" lengthAdjust="spacing" textLength="52" x="352" y="653.5449">&#171;unique&#187;</text><text fill="#000000" font-family="sans-serif" font-size="12" font-style="italic" lengthAdjust="spacing" textLength="81" x="337.5" y="669.5059">&#171;value object&#187;</text><text fill="#000000" font-family="sans-serif" font-size="14" lengthAdjust="spacing" textLength="34" x="361" y="687.625">Email</text><line style="stroke:#181818;stroke-width:0.5;" x1="311.5" x2="418.5" y1="696.1387" y2="696.1387"/></g><!--class Student--><g id="elem_Student"><rect codeLine="21" fill="#F1F1F1" height="52.582" id="Student" rx="2.5" ry="2.5" style="stroke:#181818;stroke-width:0.5;" width="81" x="338.5" y="332.6348"/><ellipse cx="353.5" cy="354.9258" fill="#ADD1B2" rx="11" ry="11" style="stroke:#181818;stroke-width:1.0;"/><path d="M352.3594,355.7227 L352.3594,358.2227 L356.6875,358.2227 L356.6875,357.3008 Q356.6875,356.6914 356.9219,356.4258 Q357.1719,356.1602 357.5469,356.1602 Q357.9219,356.1602 358.1563,356.4258 Q358.3906,356.6914 358.3906,357.3008 L358.3906,359.9258 L350.3906,359.9258 Q349.7656,359.9258 349.5,359.6914 Q349.25,359.457 349.25,359.0664 Q349.25,358.6914 349.5156,358.457 Q349.7813,358.2227 350.3906,358.2227 L350.6563,358.2227 L350.6563,351.5664 L350.3906,351.5664 Q349.7656,351.5664 349.5,351.332 Q349.25,351.0977 349.25,350.707 Q349.25,350.332 349.5,350.0977 Q349.7656,349.8633 350.3906,349.8633 L358.0156,349.8633 L358.0156,352.457 Q358.0156,353.0664 357.7813,353.332 Q357.5625,353.582 357.1719,353.582 Q356.7969,353.582 356.5625,353.332 Q356.3281,353.0664 356.3281,352.457 L356.3281,351.5664 L352.3594,351.5664 L352.3594,354.0195 L353.8438,354.0195 Q353.8438,353.3633 353.9688,353.1758 Q354.2344,352.7695 354.7031,352.7695 Q355.0781,352.7695 355.3125,353.0352 Q355.5469,353.2852 355.5469,353.8945 L355.5469,355.8633 Q355.5469,356.4102 355.4219,356.5977 Q355.1563,356.9883 354.7031,356.9883 Q354.2344,356.9883 353.9688,356.582 Q353.8438,356.3945 353.8438,355.7227 L352.3594,355.7227 Z " fill="#000000"/><text fill="#000000" font-family="sans-serif" font-size="12" font-style="italic" lengthAdjust="spacing" textLength="43" x="370.5" y="350.584">&#171;entity&#187;</text><text fill="#000000" font-family="sans-serif" font-size="14" lengthAdjust="spacing" textLength="49" x="367.5" y="368.7031">Student</text><line style="stroke:#181818;stroke-width:0.5;" x1="339.5" x2="418.5" y1="377.2168" y2="377.2168"/></g><!--class Teacher--><g id="elem_Teacher"><rect codeLine="22" fill="#F1F1F1" height="52.582" id="Teacher" rx="2.5" ry="2.5" style="stroke:#181818;stroke-width:0.5;" width="85" x="218.5" y="332.6348"/><ellipse cx="233.5" cy="354.9258" fill="#ADD1B2" rx="11" ry="11" style="stroke:#181818;stroke-width:1.0;"/><path d="M232.3594,355.7227 L232.3594,358.2227 L236.6875,358.2227 L236.6875,357.3008 Q236.6875,356.6914 236.9219,356.4258 Q237.1719,356.1602 237.5469,356.1602 Q237.9219,356.1602 238.1563,356.4258 Q238.3906,356.6914 238.3906,357.3008 L238.3906,359.9258 L230.3906,359.9258 Q229.7656,359.9258 229.5,359.6914 Q229.25,359.457 229.25,359.0664 Q229.25,358.6914 229.5156,358.457 Q229.7813,358.2227 230.3906,358.2227 L230.6563,358.2227 L230.6563,351.5664 L230.3906,351.5664 Q229.7656,351.5664 229.5,351.332 Q229.25,351.0977 229.25,350.707 Q229.25,350.332 229.5,350.0977 Q229.7656,349.8633 230.3906,349.8633 L238.0156,349.8633 L238.0156,352.457 Q238.0156,353.0664 237.7813,353.332 Q237.5625,353.582 237.1719,353.582 Q236.7969,353.582 236.5625,353.332 Q236.3281,353.0664 236.3281,352.457 L236.3281,351.5664 L232.3594,351.5664 L232.3594,354.0195 L233.8438,354.0195 Q233.8438,353.3633 233.9688,353.1758 Q234.2344,352.7695 234.7031,352.7695 Q235.0781,352.7695 235.3125,353.0352 Q235.5469,353.2852 235.5469,353.8945 L235.5469,355.8633 Q235.5469,356.4102 235.4219,356.5977 Q235.1563,356.9883 234.7031,356.9883 Q234.2344,356.9883 233.9688,356.582 Q233.8438,356.3945 233.8438,355.7227 L232.3594,355.7227 Z " fill="#000000"/><text fill="#000000" font-family="sans-serif" font-size="12" font-style="italic" lengthAdjust="spacing" textLength="43" x="252.5" y="350.584">&#171;entity&#187;</text><text fill="#000000" font-family="sans-serif" font-size="14" lengthAdjust="spacing" textLength="53" x="247.5" y="368.7031">Teacher</text><line style="stroke:#181818;stroke-width:0.5;" x1="219.5" x2="302.5" y1="377.2168" y2="377.2168"/></g><!--class Manager--><g id="elem_Manager"><rect codeLine="23" fill="#F1F1F1" height="52.582" id="Manager" rx="2.5" ry="2.5" style="stroke:#181818;stroke-width:0.5;" width="88" x="95" y="332.6348"/><ellipse cx="110" cy="354.9258" fill="#ADD1B2" rx="11" ry="11" style="stroke:#181818;stroke-width:1.0;"/><path d="M108.8594,355.7227 L108.8594,358.2227 L113.1875,358.2227 L113.1875,357.3008 Q113.1875,356.6914 113.4219,356.4258 Q113.6719,356.1602 114.0469,356.1602 Q114.4219,356.1602 114.6563,356.4258 Q114.8906,356.6914 114.8906,357.3008 L114.8906,359.9258 L106.8906,359.9258 Q106.2656,359.9258 106,359.6914 Q105.75,359.457 105.75,359.0664 Q105.75,358.6914 106.0156,358.457 Q106.2813,358.2227 106.8906,358.2227 L107.1563,358.2227 L107.1563,351.5664 L106.8906,351.5664 Q106.2656,351.5664 106,351.332 Q105.75,351.0977 105.75,350.707 Q105.75,350.332 106,350.0977 Q106.2656,349.8633 106.8906,349.8633 L114.5156,349.8633 L114.5156,352.457 Q114.5156,353.0664 114.2813,353.332 Q114.0625,353.582 113.6719,353.582 Q113.2969,353.582 113.0625,353.332 Q112.8281,353.0664 112.8281,352.457 L112.8281,351.5664 L108.8594,351.5664 L108.8594,354.0195 L110.3438,354.0195 Q110.3438,353.3633 110.4688,353.1758 Q110.7344,352.7695 111.2031,352.7695 Q111.5781,352.7695 111.8125,353.0352 Q112.0469,353.2852 112.0469,353.8945 L112.0469,355.8633 Q112.0469,356.4102 111.9219,356.5977 Q111.6563,356.9883 111.2031,356.9883 Q110.7344,356.9883 110.4688,356.582 Q110.3438,356.3945 110.3438,355.7227 L108.8594,355.7227 Z " fill="#000000"/><text fill="#000000" font-family="sans-serif" font-size="12" font-style="italic" lengthAdjust="spacing" textLength="43" x="130.5" y="350.584">&#171;entity&#187;</text><text fill="#000000" font-family="sans-serif" font-size="14" lengthAdjust="spacing" textLength="56" x="124" y="368.7031">Manager</text><line style="stroke:#181818;stroke-width:0.5;" x1="96" x2="182" y1="377.2168" y2="377.2168"/></g><!--class Profile--><g id="elem_Profile"><rect codeLine="35" fill="#F1F1F1" height="68.543" id="Profile" rx="2.5" ry="2.5" style="stroke:#181818;stroke-width:0.5;" width="72" x="811" y="324.6348"/><ellipse cx="826" cy="354.9063" fill="#ADD1B2" rx="11" ry="11" style="stroke:#181818;stroke-width:1.0;"/><path d="M824.8594,355.7031 L824.8594,358.2031 L829.1875,358.2031 L829.1875,357.2813 Q829.1875,356.6719 829.4219,356.4063 Q829.6719,356.1406 830.0469,356.1406 Q830.4219,356.1406 830.6563,356.4063 Q830.8906,356.6719 830.8906,357.2813 L830.8906,359.9063 L822.8906,359.9063 Q822.2656,359.9063 822,359.6719 Q821.75,359.4375 821.75,359.0469 Q821.75,358.6719 822.0156,358.4375 Q822.2813,358.2031 822.8906,358.2031 L823.1563,358.2031 L823.1563,351.5469 L822.8906,351.5469 Q822.2656,351.5469 822,351.3125 Q821.75,351.0781 821.75,350.6875 Q821.75,350.3125 822,350.0781 Q822.2656,349.8438 822.8906,349.8438 L830.5156,349.8438 L830.5156,352.4375 Q830.5156,353.0469 830.2813,353.3125 Q830.0625,353.5625 829.6719,353.5625 Q829.2969,353.5625 829.0625,353.3125 Q828.8281,353.0469 828.8281,352.4375 L828.8281,351.5469 L824.8594,351.5469 L824.8594,354 L826.3438,354 Q826.3438,353.3438 826.4688,353.1563 Q826.7344,352.75 827.2031,352.75 Q827.5781,352.75 827.8125,353.0156 Q828.0469,353.2656 828.0469,353.875 L828.0469,355.8438 Q828.0469,356.3906 827.9219,356.5781 Q827.6563,356.9688 827.2031,356.9688 Q826.7344,356.9688 826.4688,356.5625 Q826.3438,356.375 826.3438,355.7031 L824.8594,355.7031 Z " fill="#000000"/><text fill="#000000" font-family="sans-serif" font-size="12" font-style="italic" lengthAdjust="spacing" textLength="35" x="842.5" y="342.584">&#171;root&#187;</text><text fill="#000000" font-family="sans-serif" font-size="12" font-style="italic" lengthAdjust="spacing" textLength="43" x="838.5" y="358.5449">&#171;entity&#187;</text><text fill="#000000" font-family="sans-serif" font-size="14" lengthAdjust="spacing" textLength="40" x="840" y="376.6641">Profile</text><line style="stroke:#181818;stroke-width:0.5;" x1="812" x2="882" y1="385.1777" y2="385.1777"/></g><!--class TeacherProfile--><g id="elem_TeacherProfile"><rect codeLine="37" fill="#F1F1F1" height="52.582" id="TeacherProfile" rx="2.5" ry="2.5" style="stroke:#181818;stroke-width:0.5;" width="125" x="476.5" y="203.6348"/><ellipse cx="491.5" cy="225.9258" fill="#ADD1B2" rx="11" ry="11" style="stroke:#181818;stroke-width:1.0;"/><path d="M494.2656,221.8008 Q494.4219,221.582 494.6094,221.4727 Q494.7969,221.3633 495.0156,221.3633 Q495.3906,221.3633 495.625,221.6289 Q495.8594,221.8789 495.8594,222.4883 L495.8594,223.9414 Q495.8594,224.5508 495.625,224.8164 Q495.3906,225.082 495.0156,225.082 Q494.6719,225.082 494.4688,224.8789 Q494.2656,224.6914 494.1563,224.1758 Q494.1094,223.8164 493.9219,223.6289 Q493.5938,223.2539 492.9844,223.0352 Q492.375,222.8164 491.75,222.8164 Q490.9844,222.8164 490.3438,223.1445 Q489.7188,223.4727 489.2188,224.2227 Q488.7344,224.9727 488.7344,226.0039 L488.7344,227.0977 Q488.7344,228.332 489.625,229.1602 Q490.5156,229.9727 492.1094,229.9727 Q493.0469,229.9727 493.7031,229.7227 Q494.0938,229.5664 494.5156,229.1289 Q494.7813,228.8633 494.9219,228.7852 Q495.0781,228.707 495.2813,228.707 Q495.6094,228.707 495.8594,228.9727 Q496.125,229.2227 496.125,229.5664 Q496.125,229.9102 495.7813,230.3164 Q495.2813,230.8945 494.4844,231.2227 Q493.4063,231.6758 492.1094,231.6758 Q490.5938,231.6758 489.3906,231.0508 Q488.4063,230.5508 487.7188,229.4883 Q487.0313,228.4102 487.0313,227.1289 L487.0313,225.9727 Q487.0313,224.6445 487.6406,223.5039 Q488.2656,222.3477 489.3594,221.7383 Q490.4531,221.1133 491.6875,221.1133 Q492.4219,221.1133 493.0625,221.2852 Q493.7188,221.4414 494.2656,221.8008 Z " fill="#000000"/><text fill="#000000" font-family="sans-serif" font-size="12" font-style="italic" lengthAdjust="spacing" textLength="43" x="530.5" y="221.584">&#171;entity&#187;</text><text fill="#000000" font-family="sans-serif" font-size="14" lengthAdjust="spacing" textLength="93" x="505.5" y="239.7031">TeacherProfile</text><line style="stroke:#181818;stroke-width:0.5;" x1="477.5" x2="600.5" y1="248.2168" y2="248.2168"/></g><!--class StudentProfile--><g id="elem_StudentProfile"><rect codeLine="38" fill="#F1F1F1" height="52.582" id="StudentProfile" rx="2.5" ry="2.5" style="stroke:#181818;stroke-width:0.5;" width="121" x="636.5" y="203.6348"/><ellipse cx="651.5" cy="225.9258" fill="#ADD1B2" rx="11" ry="11" style="stroke:#181818;stroke-width:1.0;"/><path d="M654.2656,221.8008 Q654.4219,221.582 654.6094,221.4727 Q654.7969,221.3633 655.0156,221.3633 Q655.3906,221.3633 655.625,221.6289 Q655.8594,221.8789 655.8594,222.4883 L655.8594,223.9414 Q655.8594,224.5508 655.625,224.8164 Q655.3906,225.082 655.0156,225.082 Q654.6719,225.082 654.4688,224.8789 Q654.2656,224.6914 654.1563,224.1758 Q654.1094,223.8164 653.9219,223.6289 Q653.5938,223.2539 652.9844,223.0352 Q652.375,222.8164 651.75,222.8164 Q650.9844,222.8164 650.3438,223.1445 Q649.7188,223.4727 649.2188,224.2227 Q648.7344,224.9727 648.7344,226.0039 L648.7344,227.0977 Q648.7344,228.332 649.625,229.1602 Q650.5156,229.9727 652.1094,229.9727 Q653.0469,229.9727 653.7031,229.7227 Q654.0938,229.5664 654.5156,229.1289 Q654.7813,228.8633 654.9219,228.7852 Q655.0781,228.707 655.2813,228.707 Q655.6094,228.707 655.8594,228.9727 Q656.125,229.2227 656.125,229.5664 Q656.125,229.9102 655.7813,230.3164 Q655.2813,230.8945 654.4844,231.2227 Q653.4063,231.6758 652.1094,231.6758 Q650.5938,231.6758 649.3906,231.0508 Q648.4063,230.5508 647.7188,229.4883 Q647.0313,228.4102 647.0313,227.1289 L647.0313,225.9727 Q647.0313,224.6445 647.6406,223.5039 Q648.2656,222.3477 649.3594,221.7383 Q650.4531,221.1133 651.6875,221.1133 Q652.4219,221.1133 653.0625,221.2852 Q653.7188,221.4414 654.2656,221.8008 Z " fill="#000000"/><text fill="#000000" font-family="sans-serif" font-size="12" font-style="italic" lengthAdjust="spacing" textLength="43" x="688.5" y="221.584">&#171;entity&#187;</text><text fill="#000000" font-family="sans-serif" font-size="14" lengthAdjust="spacing" textLength="89" x="665.5" y="239.7031">StudentProfile</text><line style="stroke:#181818;stroke-width:0.5;" x1="637.5" x2="756.5" y1="248.2168" y2="248.2168"/></g><!--class ManagerProfile--><g id="elem_ManagerProfile"><rect codeLine="39" fill="#F1F1F1" height="68.543" id="ManagerProfile" rx="2.5" ry="2.5" style="stroke:#181818;stroke-width:0.5;" width="128" x="1113" y="195.6348"/><ellipse cx="1128" cy="225.9063" fill="#ADD1B2" rx="11" ry="11" style="stroke:#181818;stroke-width:1.0;"/><path d="M1130.7656,221.7813 Q1130.9219,221.5625 1131.1094,221.4531 Q1131.2969,221.3438 1131.5156,221.3438 Q1131.8906,221.3438 1132.125,221.6094 Q1132.3594,221.8594 1132.3594,222.4688 L1132.3594,223.9219 Q1132.3594,224.5313 1132.125,224.7969 Q1131.8906,225.0625 1131.5156,225.0625 Q1131.1719,225.0625 1130.9688,224.8594 Q1130.7656,224.6719 1130.6563,224.1563 Q1130.6094,223.7969 1130.4219,223.6094 Q1130.0938,223.2344 1129.4844,223.0156 Q1128.875,222.7969 1128.25,222.7969 Q1127.4844,222.7969 1126.8438,223.125 Q1126.2188,223.4531 1125.7188,224.2031 Q1125.2344,224.9531 1125.2344,225.9844 L1125.2344,227.0781 Q1125.2344,228.3125 1126.125,229.1406 Q1127.0156,229.9531 1128.6094,229.9531 Q1129.5469,229.9531 1130.2031,229.7031 Q1130.5938,229.5469 1131.0156,229.1094 Q1131.2813,228.8438 1131.4219,228.7656 Q1131.5781,228.6875 1131.7813,228.6875 Q1132.1094,228.6875 1132.3594,228.9531 Q1132.625,229.2031 1132.625,229.5469 Q1132.625,229.8906 1132.2813,230.2969 Q1131.7813,230.875 1130.9844,231.2031 Q1129.9063,231.6563 1128.6094,231.6563 Q1127.0938,231.6563 1125.8906,231.0313 Q1124.9063,230.5313 1124.2188,229.4688 Q1123.5313,228.3906 1123.5313,227.1094 L1123.5313,225.9531 Q1123.5313,224.625 1124.1406,223.4844 Q1124.7656,222.3281 1125.8594,221.7188 Q1126.9531,221.0938 1128.1875,221.0938 Q1128.9219,221.0938 1129.5625,221.2656 Q1130.2188,221.4219 1130.7656,221.7813 Z " fill="#000000"/><text fill="#000000" font-family="sans-serif" font-size="12" font-style="italic" lengthAdjust="spacing" textLength="43" x="1168.5" y="213.584">&#171;entity&#187;</text><text fill="#000000" font-family="sans-serif" font-size="12" font-style="italic" lengthAdjust="spacing" textLength="72" x="1154" y="229.5449">&#171;NullObject&#187;</text><text fill="#000000" font-family="sans-serif" font-size="14" lengthAdjust="spacing" textLength="96" x="1142" y="247.6641">ManagerProfile</text><line style="stroke:#181818;stroke-width:0.5;" x1="1114" x2="1240" y1="256.1777" y2="256.1777"/></g><!--class TaxPayerNumber--><g id="elem_TaxPayerNumber"><rect codeLine="40" fill="#F1F1F1" height="52.582" id="TaxPayerNumber" rx="2.5" ry="2.5" style="stroke:#181818;stroke-width:0.5;" width="141" x="936.5" y="203.6348"/><ellipse cx="951.5" cy="225.9258" fill="#B8255F" rx="11" ry="11" style="stroke:#181818;stroke-width:1.0;"/><path d="M952.0938,229.1914 L954.5625,223.3164 L954.1719,223.3164 Q953.5625,223.3164 953.2969,223.082 Q953.0313,222.8477 953.0313,222.457 Q953.0313,222.082 953.2969,221.8477 Q953.5625,221.6133 954.1719,221.6133 L956.4531,221.6133 Q957.0625,221.6133 957.3281,221.8477 Q957.5938,222.082 957.5938,222.457 Q957.5938,222.9258 957.1875,223.1914 Q957,223.3164 956.4063,223.3164 L952.9219,231.6758 L951.2813,231.6758 L947.7969,223.3164 Q947.2031,223.3164 947.0156,223.1914 Q946.6094,222.9258 946.6094,222.457 Q946.6094,222.082 946.875,221.8477 Q947.1406,221.6133 947.75,221.6133 L950.0469,221.6133 Q950.6563,221.6133 950.9063,221.8477 Q951.1719,222.082 951.1719,222.457 Q951.1719,222.8477 950.9063,223.082 Q950.6563,223.3164 950.0469,223.3164 L949.6406,223.3164 L952.0938,229.1914 Z " fill="#000000"/><text fill="#000000" font-family="sans-serif" font-size="12" font-style="italic" lengthAdjust="spacing" textLength="81" x="979.5" y="221.584">&#171;value object&#187;</text><text fill="#000000" font-family="sans-serif" font-size="14" lengthAdjust="spacing" textLength="109" x="965.5" y="239.7031">TaxPayerNumber</text><line style="stroke:#181818;stroke-width:0.5;" x1="937.5" x2="1076.5" y1="248.2168" y2="248.2168"/></g><!--class DateOfBirth--><g id="elem_DateOfBirth"><rect codeLine="41" fill="#F1F1F1" height="52.582" id="DateOfBirth" rx="2.5" ry="2.5" style="stroke:#181818;stroke-width:0.5;" width="109" x="792.5" y="203.6348"/><ellipse cx="807.5" cy="225.9258" fill="#B8255F" rx="11" ry="11" style="stroke:#181818;stroke-width:1.0;"/><path d="M808.0938,229.1914 L810.5625,223.3164 L810.1719,223.3164 Q809.5625,223.3164 809.2969,223.082 Q809.0313,222.8477 809.0313,222.457 Q809.0313,222.082 809.2969,221.8477 Q809.5625,221.6133 810.1719,221.6133 L812.4531,221.6133 Q813.0625,221.6133 813.3281,221.8477 Q813.5938,222.082 813.5938,222.457 Q813.5938,222.9258 813.1875,223.1914 Q813,223.3164 812.4063,223.3164 L808.9219,231.6758 L807.2813,231.6758 L803.7969,223.3164 Q803.2031,223.3164 803.0156,223.1914 Q802.6094,222.9258 802.6094,222.457 Q802.6094,222.082 802.875,221.8477 Q803.1406,221.6133 803.75,221.6133 L806.0469,221.6133 Q806.6563,221.6133 806.9063,221.8477 Q807.1719,222.082 807.1719,222.457 Q807.1719,222.8477 806.9063,223.082 Q806.6563,223.3164 806.0469,223.3164 L805.6406,223.3164 L808.0938,229.1914 Z " fill="#000000"/><text fill="#000000" font-family="sans-serif" font-size="12" font-style="italic" lengthAdjust="spacing" textLength="81" x="819.5" y="221.584">&#171;value object&#187;</text><text fill="#000000" font-family="sans-serif" font-size="14" lengthAdjust="spacing" textLength="74" x="823" y="239.7031">DateOfBirth</text><line style="stroke:#181818;stroke-width:0.5;" x1="793.5" x2="900.5" y1="248.2168" y2="248.2168"/></g><!--class MechanographicNumber--><g id="elem_MechanographicNumber"><rect codeLine="42" fill="#F1F1F1" height="52.582" id="MechanographicNumber" rx="2.5" ry="2.5" style="stroke:#181818;stroke-width:0.5;" width="186" x="625" y="82.6348"/><ellipse cx="640" cy="104.9258" fill="#B8255F" rx="11" ry="11" style="stroke:#181818;stroke-width:1.0;"/><path d="M640.5938,108.1914 L643.0625,102.3164 L642.6719,102.3164 Q642.0625,102.3164 641.7969,102.082 Q641.5313,101.8477 641.5313,101.457 Q641.5313,101.082 641.7969,100.8477 Q642.0625,100.6133 642.6719,100.6133 L644.9531,100.6133 Q645.5625,100.6133 645.8281,100.8477 Q646.0938,101.082 646.0938,101.457 Q646.0938,101.9258 645.6875,102.1914 Q645.5,102.3164 644.9063,102.3164 L641.4219,110.6758 L639.7813,110.6758 L636.2969,102.3164 Q635.7031,102.3164 635.5156,102.1914 Q635.1094,101.9258 635.1094,101.457 Q635.1094,101.082 635.375,100.8477 Q635.6406,100.6133 636.25,100.6133 L638.5469,100.6133 Q639.1563,100.6133 639.4063,100.8477 Q639.6719,101.082 639.6719,101.457 Q639.6719,101.8477 639.4063,102.082 Q639.1563,102.3164 638.5469,102.3164 L638.1406,102.3164 L640.5938,108.1914 Z " fill="#000000"/><text fill="#000000" font-family="sans-serif" font-size="12" font-style="italic" lengthAdjust="spacing" textLength="81" x="690.5" y="100.584">&#171;value object&#187;</text><text fill="#000000" font-family="sans-serif" font-size="14" lengthAdjust="spacing" textLength="154" x="654" y="118.7031">MechanographicNumber</text><line style="stroke:#181818;stroke-width:0.5;" x1="626" x2="810" y1="127.2168" y2="127.2168"/></g><!--class Acronym--><g id="elem_Acronym"><rect codeLine="43" fill="#F1F1F1" height="52.582" id="Acronym" rx="2.5" ry="2.5" style="stroke:#181818;stroke-width:0.5;" width="109" x="480.5" y="82.6348"/><ellipse cx="495.5" cy="104.9258" fill="#B8255F" rx="11" ry="11" style="stroke:#181818;stroke-width:1.0;"/><path d="M496.0938,108.1914 L498.5625,102.3164 L498.1719,102.3164 Q497.5625,102.3164 497.2969,102.082 Q497.0313,101.8477 497.0313,101.457 Q497.0313,101.082 497.2969,100.8477 Q497.5625,100.6133 498.1719,100.6133 L500.4531,100.6133 Q501.0625,100.6133 501.3281,100.8477 Q501.5938,101.082 501.5938,101.457 Q501.5938,101.9258 501.1875,102.1914 Q501,102.3164 500.4063,102.3164 L496.9219,110.6758 L495.2813,110.6758 L491.7969,102.3164 Q491.2031,102.3164 491.0156,102.1914 Q490.6094,101.9258 490.6094,101.457 Q490.6094,101.082 490.875,100.8477 Q491.1406,100.6133 491.75,100.6133 L494.0469,100.6133 Q494.6563,100.6133 494.9063,100.8477 Q495.1719,101.082 495.1719,101.457 Q495.1719,101.8477 494.9063,102.082 Q494.6563,102.3164 494.0469,102.3164 L493.6406,102.3164 L496.0938,108.1914 Z " fill="#000000"/><text fill="#000000" font-family="sans-serif" font-size="12" font-style="italic" lengthAdjust="spacing" textLength="81" x="507.5" y="100.584">&#171;value object&#187;</text><text fill="#000000" font-family="sans-serif" font-size="14" lengthAdjust="spacing" textLength="55" x="520.5" y="118.7031">Acronym</text><line style="stroke:#181818;stroke-width:0.5;" x1="481.5" x2="588.5" y1="127.2168" y2="127.2168"/></g><!--class Schedule--><g id="elem_Schedule"><rect codeLine="44" fill="#F1F1F1" height="52.582" id="Schedule" rx="2.5" ry="2.5" style="stroke:#181818;stroke-width:0.5;" width="91" x="1276.5" y="203.6348"/><ellipse cx="1291.5" cy="225.9258" fill="#ADD1B2" rx="11" ry="11" style="stroke:#181818;stroke-width:1.0;"/><path d="M1294.2656,221.8008 Q1294.4219,221.582 1294.6094,221.4727 Q1294.7969,221.3633 1295.0156,221.3633 Q1295.3906,221.3633 1295.625,221.6289 Q1295.8594,221.8789 1295.8594,222.4883 L1295.8594,223.9414 Q1295.8594,224.5508 1295.625,224.8164 Q1295.3906,225.082 1295.0156,225.082 Q1294.6719,225.082 1294.4688,224.8789 Q1294.2656,224.6914 1294.1563,224.1758 Q1294.1094,223.8164 1293.9219,223.6289 Q1293.5938,223.2539 1292.9844,223.0352 Q1292.375,222.8164 1291.75,222.8164 Q1290.9844,222.8164 1290.3438,223.1445 Q1289.7188,223.4727 1289.2188,224.2227 Q1288.7344,224.9727 1288.7344,226.0039 L1288.7344,227.0977 Q1288.7344,228.332 1289.625,229.1602 Q1290.5156,229.9727 1292.1094,229.9727 Q1293.0469,229.9727 1293.7031,229.7227 Q1294.0938,229.5664 1294.5156,229.1289 Q1294.7813,228.8633 1294.9219,228.7852 Q1295.0781,228.707 1295.2813,228.707 Q1295.6094,228.707 1295.8594,228.9727 Q1296.125,229.2227 1296.125,229.5664 Q1296.125,229.9102 1295.7813,230.3164 Q1295.2813,230.8945 1294.4844,231.2227 Q1293.4063,231.6758 1292.1094,231.6758 Q1290.5938,231.6758 1289.3906,231.0508 Q1288.4063,230.5508 1287.7188,229.4883 Q1287.0313,228.4102 1287.0313,227.1289 L1287.0313,225.9727 Q1287.0313,224.6445 1287.6406,223.5039 Q1288.2656,222.3477 1289.3594,221.7383 Q1290.4531,221.1133 1291.6875,221.1133 Q1292.4219,221.1133 1293.0625,221.2852 Q1293.7188,221.4414 1294.2656,221.8008 Z " fill="#000000"/><text fill="#000000" font-family="sans-serif" font-size="12" font-style="italic" lengthAdjust="spacing" textLength="43" x="1313.5" y="221.584">&#171;entity&#187;</text><text fill="#000000" font-family="sans-serif" font-size="14" lengthAdjust="spacing" textLength="59" x="1305.5" y="239.7031">Schedule</text><line style="stroke:#181818;stroke-width:0.5;" x1="1277.5" x2="1366.5" y1="248.2168" y2="248.2168"/></g><!--class ProfileDay--><g id="elem_ProfileDay"><rect codeLine="45" fill="#F1F1F1" height="52.582" id="ProfileDay" rx="2.5" ry="2.5" style="stroke:#181818;stroke-width:0.5;" width="109" x="1258.5" y="82.6348"/><ellipse cx="1273.5" cy="104.9258" fill="#B8255F" rx="11" ry="11" style="stroke:#181818;stroke-width:1.0;"/><path d="M1274.0938,108.1914 L1276.5625,102.3164 L1276.1719,102.3164 Q1275.5625,102.3164 1275.2969,102.082 Q1275.0313,101.8477 1275.0313,101.457 Q1275.0313,101.082 1275.2969,100.8477 Q1275.5625,100.6133 1276.1719,100.6133 L1278.4531,100.6133 Q1279.0625,100.6133 1279.3281,100.8477 Q1279.5938,101.082 1279.5938,101.457 Q1279.5938,101.9258 1279.1875,102.1914 Q1279,102.3164 1278.4063,102.3164 L1274.9219,110.6758 L1273.2813,110.6758 L1269.7969,102.3164 Q1269.2031,102.3164 1269.0156,102.1914 Q1268.6094,101.9258 1268.6094,101.457 Q1268.6094,101.082 1268.875,100.8477 Q1269.1406,100.6133 1269.75,100.6133 L1272.0469,100.6133 Q1272.6563,100.6133 1272.9063,100.8477 Q1273.1719,101.082 1273.1719,101.457 Q1273.1719,101.8477 1272.9063,102.082 Q1272.6563,102.3164 1272.0469,102.3164 L1271.6406,102.3164 L1274.0938,108.1914 Z " fill="#000000"/><text fill="#000000" font-family="sans-serif" font-size="12" font-style="italic" lengthAdjust="spacing" textLength="81" x="1285.5" y="100.584">&#171;value object&#187;</text><text fill="#000000" font-family="sans-serif" font-size="14" lengthAdjust="spacing" textLength="25" x="1313.5" y="118.7031">Day</text><line style="stroke:#181818;stroke-width:0.5;" x1="1259.5" x2="1366.5" y1="127.2168" y2="127.2168"/></g><!--class Meeting--><g id="elem_Meeting"><rect codeLine="60" fill="#F1F1F1" height="68.543" id="Meeting" rx="2.5" ry="2.5" style="stroke:#181818;stroke-width:0.5;" width="82" x="1439" y="324.6348"/><ellipse cx="1454" cy="354.9063" fill="#ADD1B2" rx="11" ry="11" style="stroke:#181818;stroke-width:1.0;"/><path d="M1452.8594,355.7031 L1452.8594,358.2031 L1457.1875,358.2031 L1457.1875,357.2813 Q1457.1875,356.6719 1457.4219,356.4063 Q1457.6719,356.1406 1458.0469,356.1406 Q1458.4219,356.1406 1458.6563,356.4063 Q1458.8906,356.6719 1458.8906,357.2813 L1458.8906,359.9063 L1450.8906,359.9063 Q1450.2656,359.9063 1450,359.6719 Q1449.75,359.4375 1449.75,359.0469 Q1449.75,358.6719 1450.0156,358.4375 Q1450.2813,358.2031 1450.8906,358.2031 L1451.1563,358.2031 L1451.1563,351.5469 L1450.8906,351.5469 Q1450.2656,351.5469 1450,351.3125 Q1449.75,351.0781 1449.75,350.6875 Q1449.75,350.3125 1450,350.0781 Q1450.2656,349.8438 1450.8906,349.8438 L1458.5156,349.8438 L1458.5156,352.4375 Q1458.5156,353.0469 1458.2813,353.3125 Q1458.0625,353.5625 1457.6719,353.5625 Q1457.2969,353.5625 1457.0625,353.3125 Q1456.8281,353.0469 1456.8281,352.4375 L1456.8281,351.5469 L1452.8594,351.5469 L1452.8594,354 L1454.3438,354 Q1454.3438,353.3438 1454.4688,353.1563 Q1454.7344,352.75 1455.2031,352.75 Q1455.5781,352.75 1455.8125,353.0156 Q1456.0469,353.2656 1456.0469,353.875 L1456.0469,355.8438 Q1456.0469,356.3906 1455.9219,356.5781 Q1455.6563,356.9688 1455.2031,356.9688 Q1454.7344,356.9688 1454.4688,356.5625 Q1454.3438,356.375 1454.3438,355.7031 L1452.8594,355.7031 Z " fill="#000000"/><text fill="#000000" font-family="sans-serif" font-size="12" font-style="italic" lengthAdjust="spacing" textLength="35" x="1475.5" y="342.584">&#171;root&#187;</text><text fill="#000000" font-family="sans-serif" font-size="12" font-style="italic" lengthAdjust="spacing" textLength="43" x="1471.5" y="358.5449">&#171;entity&#187;</text><text fill="#000000" font-family="sans-serif" font-size="14" lengthAdjust="spacing" textLength="50" x="1468" y="376.6641">Meeting</text><line style="stroke:#181818;stroke-width:0.5;" x1="1440" x2="1520" y1="385.1777" y2="385.1777"/></g><!--class MeetingTitle--><g id="elem_MeetingTitle"><rect codeLine="63" fill="#F1F1F1" height="68.543" id="MeetingTitle" rx="2.5" ry="2.5" style="stroke:#181818;stroke-width:0.5;" width="109" x="1712.5" y="195.6348"/><ellipse cx="1727.5" cy="225.9063" fill="#B8255F" rx="11" ry="11" style="stroke:#181818;stroke-width:1.0;"/><path d="M1728.0938,229.1719 L1730.5625,223.2969 L1730.1719,223.2969 Q1729.5625,223.2969 1729.2969,223.0625 Q1729.0313,222.8281 1729.0313,222.4375 Q1729.0313,222.0625 1729.2969,221.8281 Q1729.5625,221.5938 1730.1719,221.5938 L1732.4531,221.5938 Q1733.0625,221.5938 1733.3281,221.8281 Q1733.5938,222.0625 1733.5938,222.4375 Q1733.5938,222.9063 1733.1875,223.1719 Q1733,223.2969 1732.4063,223.2969 L1728.9219,231.6563 L1727.2813,231.6563 L1723.7969,223.2969 Q1723.2031,223.2969 1723.0156,223.1719 Q1722.6094,222.9063 1722.6094,222.4375 Q1722.6094,222.0625 1722.875,221.8281 Q1723.1406,221.5938 1723.75,221.5938 L1726.0469,221.5938 Q1726.6563,221.5938 1726.9063,221.8281 Q1727.1719,222.0625 1727.1719,222.4375 Q1727.1719,222.8281 1726.9063,223.0625 Q1726.6563,223.2969 1726.0469,223.2969 L1725.6406,223.2969 L1728.0938,229.1719 Z " fill="#000000"/><text fill="#000000" font-family="sans-serif" font-size="12" font-style="italic" lengthAdjust="spacing" textLength="81" x="1739.5" y="213.584">&#171;value object&#187;</text><text fill="#000000" font-family="sans-serif" font-size="12" font-style="italic" lengthAdjust="spacing" textLength="52" x="1754" y="229.5449">&#171;unique&#187;</text><text fill="#000000" font-family="sans-serif" font-size="14" lengthAdjust="spacing" textLength="27" x="1766.5" y="247.6641">Title</text><line style="stroke:#181818;stroke-width:0.5;" x1="1713.5" x2="1820.5" y1="256.1777" y2="256.1777"/></g><!--class Duration--><g id="elem_Duration"><rect codeLine="64" fill="#F1F1F1" height="52.582" id="Duration" rx="2.5" ry="2.5" style="stroke:#181818;stroke-width:0.5;" width="109" x="1568.5" y="203.6348"/><ellipse cx="1583.5" cy="225.9258" fill="#B8255F" rx="11" ry="11" style="stroke:#181818;stroke-width:1.0;"/><path d="M1584.0938,229.1914 L1586.5625,223.3164 L1586.1719,223.3164 Q1585.5625,223.3164 1585.2969,223.082 Q1585.0313,222.8477 1585.0313,222.457 Q1585.0313,222.082 1585.2969,221.8477 Q1585.5625,221.6133 1586.1719,221.6133 L1588.4531,221.6133 Q1589.0625,221.6133 1589.3281,221.8477 Q1589.5938,222.082 1589.5938,222.457 Q1589.5938,222.9258 1589.1875,223.1914 Q1589,223.3164 1588.4063,223.3164 L1584.9219,231.6758 L1583.2813,231.6758 L1579.7969,223.3164 Q1579.2031,223.3164 1579.0156,223.1914 Q1578.6094,222.9258 1578.6094,222.457 Q1578.6094,222.082 1578.875,221.8477 Q1579.1406,221.6133 1579.75,221.6133 L1582.0469,221.6133 Q1582.6563,221.6133 1582.9063,221.8477 Q1583.1719,222.082 1583.1719,222.457 Q1583.1719,222.8477 1582.9063,223.082 Q1582.6563,223.3164 1582.0469,223.3164 L1581.6406,223.3164 L1584.0938,229.1914 Z " fill="#000000"/><text fill="#000000" font-family="sans-serif" font-size="12" font-style="italic" lengthAdjust="spacing" textLength="81" x="1595.5" y="221.584">&#171;value object&#187;</text><text fill="#000000" font-family="sans-serif" font-size="14" lengthAdjust="spacing" textLength="54" x="1609" y="239.7031">Duration</text><line style="stroke:#181818;stroke-width:0.5;" x1="1569.5" x2="1676.5" y1="248.2168" y2="248.2168"/></g><!--class Time--><g id="elem_Time"><rect codeLine="65" fill="#F1F1F1" height="52.582" id="Time" rx="2.5" ry="2.5" style="stroke:#181818;stroke-width:0.5;" width="109" x="1424.5" y="203.6348"/><ellipse cx="1439.5" cy="225.9258" fill="#B8255F" rx="11" ry="11" style="stroke:#181818;stroke-width:1.0;"/><path d="M1440.0938,229.1914 L1442.5625,223.3164 L1442.1719,223.3164 Q1441.5625,223.3164 1441.2969,223.082 Q1441.0313,222.8477 1441.0313,222.457 Q1441.0313,222.082 1441.2969,221.8477 Q1441.5625,221.6133 1442.1719,221.6133 L1444.4531,221.6133 Q1445.0625,221.6133 1445.3281,221.8477 Q1445.5938,222.082 1445.5938,222.457 Q1445.5938,222.9258 1445.1875,223.1914 Q1445,223.3164 1444.4063,223.3164 L1440.9219,231.6758 L1439.2813,231.6758 L1435.7969,223.3164 Q1435.2031,223.3164 1435.0156,223.1914 Q1434.6094,222.9258 1434.6094,222.457 Q1434.6094,222.082 1434.875,221.8477 Q1435.1406,221.6133 1435.75,221.6133 L1438.0469,221.6133 Q1438.6563,221.6133 1438.9063,221.8477 Q1439.1719,222.082 1439.1719,222.457 Q1439.1719,222.8477 1438.9063,223.082 Q1438.6563,223.3164 1438.0469,223.3164 L1437.6406,223.3164 L1440.0938,229.1914 Z " fill="#000000"/><text fill="#000000" font-family="sans-serif" font-size="12" font-style="italic" lengthAdjust="spacing" textLength="81" x="1451.5" y="221.584">&#171;value object&#187;</text><text fill="#000000" font-family="sans-serif" font-size="14" lengthAdjust="spacing" textLength="31" x="1476.5" y="239.7031">Time</text><line style="stroke:#181818;stroke-width:0.5;" x1="1425.5" x2="1532.5" y1="248.2168" y2="248.2168"/></g><!--class MeetingState--><g id="elem_MeetingState"><rect codeLine="66" fill="#F1F1F1" height="52.582" id="MeetingState" rx="2.5" ry="2.5" style="stroke:#181818;stroke-width:0.5;" width="115" x="1424.5" y="480.1348"/><ellipse cx="1439.5" cy="502.4258" fill="#B8255F" rx="11" ry="11" style="stroke:#181818;stroke-width:1.0;"/><path d="M1440.0938,505.6914 L1442.5625,499.8164 L1442.1719,499.8164 Q1441.5625,499.8164 1441.2969,499.582 Q1441.0313,499.3477 1441.0313,498.957 Q1441.0313,498.582 1441.2969,498.3477 Q1441.5625,498.1133 1442.1719,498.1133 L1444.4531,498.1133 Q1445.0625,498.1133 1445.3281,498.3477 Q1445.5938,498.582 1445.5938,498.957 Q1445.5938,499.4258 1445.1875,499.6914 Q1445,499.8164 1444.4063,499.8164 L1440.9219,508.1758 L1439.2813,508.1758 L1435.7969,499.8164 Q1435.2031,499.8164 1435.0156,499.6914 Q1434.6094,499.4258 1434.6094,498.957 Q1434.6094,498.582 1434.875,498.3477 Q1435.1406,498.1133 1435.75,498.1133 L1438.0469,498.1133 Q1438.6563,498.1133 1438.9063,498.3477 Q1439.1719,498.582 1439.1719,498.957 Q1439.1719,499.3477 1438.9063,499.582 Q1438.6563,499.8164 1438.0469,499.8164 L1437.6406,499.8164 L1440.0938,505.6914 Z " fill="#000000"/><text fill="#000000" font-family="sans-serif" font-size="12" font-style="italic" lengthAdjust="spacing" textLength="81" x="1454.5" y="498.084">&#171;value object&#187;</text><text fill="#000000" font-family="sans-serif" font-size="14" lengthAdjust="spacing" textLength="83" x="1453.5" y="516.2031">MeetingState</text><line style="stroke:#181818;stroke-width:0.5;" x1="1425.5" x2="1538.5" y1="524.7168" y2="524.7168"/></g><!--class MeetingParticipant--><g id="elem_MeetingParticipant"><rect codeLine="67" fill="#F1F1F1" height="52.582" id="MeetingParticipant" rx="2.5" ry="2.5" style="stroke:#181818;stroke-width:0.5;" width="149" x="1574.5" y="480.1348"/><ellipse cx="1589.5" cy="502.4258" fill="#ADD1B2" rx="11" ry="11" style="stroke:#181818;stroke-width:1.0;"/><path d="M1592.2656,498.3008 Q1592.4219,498.082 1592.6094,497.9727 Q1592.7969,497.8633 1593.0156,497.8633 Q1593.3906,497.8633 1593.625,498.1289 Q1593.8594,498.3789 1593.8594,498.9883 L1593.8594,500.4414 Q1593.8594,501.0508 1593.625,501.3164 Q1593.3906,501.582 1593.0156,501.582 Q1592.6719,501.582 1592.4688,501.3789 Q1592.2656,501.1914 1592.1563,500.6758 Q1592.1094,500.3164 1591.9219,500.1289 Q1591.5938,499.7539 1590.9844,499.5352 Q1590.375,499.3164 1589.75,499.3164 Q1588.9844,499.3164 1588.3438,499.6445 Q1587.7188,499.9727 1587.2188,500.7227 Q1586.7344,501.4727 1586.7344,502.5039 L1586.7344,503.5977 Q1586.7344,504.832 1587.625,505.6602 Q1588.5156,506.4727 1590.1094,506.4727 Q1591.0469,506.4727 1591.7031,506.2227 Q1592.0938,506.0664 1592.5156,505.6289 Q1592.7813,505.3633 1592.9219,505.2852 Q1593.0781,505.207 1593.2813,505.207 Q1593.6094,505.207 1593.8594,505.4727 Q1594.125,505.7227 1594.125,506.0664 Q1594.125,506.4102 1593.7813,506.8164 Q1593.2813,507.3945 1592.4844,507.7227 Q1591.4063,508.1758 1590.1094,508.1758 Q1588.5938,508.1758 1587.3906,507.5508 Q1586.4063,507.0508 1585.7188,505.9883 Q1585.0313,504.9102 1585.0313,503.6289 L1585.0313,502.4727 Q1585.0313,501.1445 1585.6406,500.0039 Q1586.2656,498.8477 1587.3594,498.2383 Q1588.4531,497.6133 1589.6875,497.6133 Q1590.4219,497.6133 1591.0625,497.7852 Q1591.7188,497.9414 1592.2656,498.3008 Z " fill="#000000"/><text fill="#000000" font-family="sans-serif" font-size="12" font-style="italic" lengthAdjust="spacing" textLength="43" x="1640.5" y="498.084">&#171;entity&#187;</text><text fill="#000000" font-family="sans-serif" font-size="14" lengthAdjust="spacing" textLength="117" x="1603.5" y="516.2031">MeetingParticipant</text><line style="stroke:#181818;stroke-width:0.5;" x1="1575.5" x2="1722.5" y1="524.7168" y2="524.7168"/></g><!--class MeetingParticipantState--><g id="elem_MeetingParticipantState"><rect codeLine="68" fill="#F1F1F1" height="52.582" id="MeetingParticipantState" rx="2.5" ry="2.5" style="stroke:#181818;stroke-width:0.5;" width="182" x="1558" y="635.6348"/><ellipse cx="1573" cy="657.9258" fill="#B8255F" rx="11" ry="11" style="stroke:#181818;stroke-width:1.0;"/><path d="M1573.5938,661.1914 L1576.0625,655.3164 L1575.6719,655.3164 Q1575.0625,655.3164 1574.7969,655.082 Q1574.5313,654.8477 1574.5313,654.457 Q1574.5313,654.082 1574.7969,653.8477 Q1575.0625,653.6133 1575.6719,653.6133 L1577.9531,653.6133 Q1578.5625,653.6133 1578.8281,653.8477 Q1579.0938,654.082 1579.0938,654.457 Q1579.0938,654.9258 1578.6875,655.1914 Q1578.5,655.3164 1577.9063,655.3164 L1574.4219,663.6758 L1572.7813,663.6758 L1569.2969,655.3164 Q1568.7031,655.3164 1568.5156,655.1914 Q1568.1094,654.9258 1568.1094,654.457 Q1568.1094,654.082 1568.375,653.8477 Q1568.6406,653.6133 1569.25,653.6133 L1571.5469,653.6133 Q1572.1563,653.6133 1572.4063,653.8477 Q1572.6719,654.082 1572.6719,654.457 Q1572.6719,654.8477 1572.4063,655.082 Q1572.1563,655.3164 1571.5469,655.3164 L1571.1406,655.3164 L1573.5938,661.1914 Z " fill="#000000"/><text fill="#000000" font-family="sans-serif" font-size="12" font-style="italic" lengthAdjust="spacing" textLength="81" x="1621.5" y="653.584">&#171;value object&#187;</text><text fill="#000000" font-family="sans-serif" font-size="14" lengthAdjust="spacing" textLength="150" x="1587" y="671.7031">MeetingParticipantState</text><line style="stroke:#181818;stroke-width:0.5;" x1="1559" x2="1739" y1="680.2168" y2="680.2168"/></g><!--link User to Email--><g id="link_User_Email"><path codeLine="25" d="M340.5,572.7148 C340.5,572.7148 340.5,606.5848 340.5,606.5848 " fill="none" id="User-Email" style="stroke:#181818;stroke-width:1.0;"/><polygon fill="#181818" points="340.5,559.7148,336.5,565.7148,340.5,571.7148,344.5,565.7148,340.5,559.7148" style="stroke:#181818;stroke-width:1.0;"/><polygon fill="#181818" points="340.5,619.5848,344.5,610.5848,340.5,614.5848,336.5,610.5848,340.5,619.5848" style="stroke:#181818;stroke-width:1.0;"/><line style="stroke:#181818;stroke-width:1.0;" x1="340.5" x2="340.5" y1="614.5848" y2="606.5848"/><text fill="#000000" font-family="sans-serif" font-size="13" lengthAdjust="spacing" textLength="21" x="341.5" y="585.6731">has</text><text fill="#000000" font-family="sans-serif" font-size="13" lengthAdjust="spacing" textLength="7" x="328.8625" y="608.2231">1</text><text fill="#000000" font-family="sans-serif" font-size="13" lengthAdjust="spacing" textLength="7" x="336.7906" y="581.279">1</text></g><!--link User to Password--><g id="link_User_Password"><path codeLine="26" d="M262.5,572.7148 C262.5,572.7148 262.5,622.4548 262.5,622.4548 " fill="none" id="User-Password" style="stroke:#181818;stroke-width:1.0;"/><polygon fill="#181818" points="262.5,559.7148,258.5,565.7148,262.5,571.7148,266.5,565.7148,262.5,559.7148" style="stroke:#181818;stroke-width:1.0;"/><polygon fill="#181818" points="262.5,635.4548,266.5,626.4548,262.5,630.4548,258.5,626.4548,262.5,635.4548" style="stroke:#181818;stroke-width:1.0;"/><line style="stroke:#181818;stroke-width:1.0;" x1="262.5" x2="262.5" y1="630.4548" y2="622.4548"/><text fill="#000000" font-family="sans-serif" font-size="13" lengthAdjust="spacing" textLength="21" x="240.5" y="593.6131">has</text><text fill="#000000" font-family="sans-serif" font-size="13" lengthAdjust="spacing" textLength="7" x="264.2875" y="624.4297">1</text><text fill="#000000" font-family="sans-serif" font-size="13" lengthAdjust="spacing" textLength="7" x="249.2844" y="581.279">1</text></g><!--link User to Role--><g id="link_User_Role"><path codeLine="27" d="M236.36,533.6348 C236.36,533.6348 113.25,533.6348 113.25,533.6348 C113.25,533.6348 113.25,622.5048 113.25,622.5048 " fill="none" id="User-Role" style="stroke:#181818;stroke-width:1.0;"/><polygon fill="#181818" points="249.36,533.6348,243.36,529.6348,237.36,533.6348,243.36,537.6348,249.36,533.6348" style="stroke:#181818;stroke-width:1.0;"/><polygon fill="#181818" points="113.25,635.5048,117.25,626.5048,113.25,630.5048,109.25,626.5048,113.25,635.5048" style="stroke:#181818;stroke-width:1.0;"/><line style="stroke:#181818;stroke-width:1.0;" x1="113.25" x2="113.25" y1="630.5048" y2="622.5048"/><text fill="#000000" font-family="sans-serif" font-size="13" lengthAdjust="spacing" textLength="21" x="108.37" y="529.6631">has</text><text fill="#000000" font-family="sans-serif" font-size="13" lengthAdjust="spacing" textLength="7" x="234.5429" y="532.9486">1</text><text fill="#000000" font-family="sans-serif" font-size="13" lengthAdjust="spacing" textLength="7" x="113.8234" y="624.4912">1</text></g><!--link Manager to User--><g id="link_Manager_User"><path codeLine="28" d="M177.5,385.7948 C177.5,421.5648 177.5,480.6348 177.5,480.6348 C177.5,480.6348 244.18,480.6348 244.18,480.6348 " fill="none" id="Manager-to-User" style="stroke:#181818;stroke-width:1.0;"/><polygon fill="#181818" points="249.18,480.6348,240.18,476.6348,244.18,480.6348,240.18,484.6348,249.18,480.6348" style="stroke:#181818;stroke-width:1.0;"/><text fill="#000000" font-family="sans-serif" font-size="13" lengthAdjust="spacing" textLength="43" x="133.5" y="462.5831">creates</text><text fill="#000000" font-family="sans-serif" font-size="13" lengthAdjust="spacing" textLength="7" x="177.7188" y="407.1479">1</text><text fill="#000000" font-family="sans-serif" font-size="13" lengthAdjust="spacing" textLength="5" x="236.4629" y="473.4892">*</text></g><!--link Manager to User--><g id="link_Manager_User"><path codeLine="29" d="M172,385.8448 C172,428.3548 172,506.6348 172,506.6348 C172,506.6348 229.47,506.6348 229.47,506.6348 " fill="none" id="Manager-to-User-1" style="stroke:#181818;stroke-width:1.0;"/><polygon fill="none" points="229.47,499.6348,249.47,506.6348,229.47,513.6348,229.47,499.6348" style="stroke:#181818;stroke-width:1.0;"/></g><!--link Student to User--><g id="link_Student_User"><path codeLine="30" d="M349.17,385.8448 C349.17,385.8448 349.17,433.5348 349.17,433.5348 " fill="none" id="Student-to-User" style="stroke:#181818;stroke-width:1.0;"/><polygon fill="none" points="356.17,433.5348,349.17,453.5348,342.17,433.5348,356.17,433.5348" style="stroke:#181818;stroke-width:1.0;"/></g><!--link Teacher to User--><g id="link_Teacher_User"><path codeLine="31" d="M276.5,385.8448 C276.5,385.8448 276.5,433.5348 276.5,433.5348 " fill="none" id="Teacher-to-User" style="stroke:#181818;stroke-width:1.0;"/><polygon fill="none" points="283.5,433.5348,276.5,453.5348,269.5,433.5348,283.5,433.5348" style="stroke:#181818;stroke-width:1.0;"/></g><!--link TeacherProfile to Profile--><g id="link_TeacherProfile_Profile"><path codeLine="47" d="M539,256.8048 C539,286.5748 539,330.6348 539,330.6348 C539,330.6348 790.76,330.6348 790.76,330.6348 " fill="none" id="TeacherProfile-to-Profile" style="stroke:#181818;stroke-width:1.0;"/><polygon fill="none" points="790.76,323.6348,810.76,330.6348,790.76,337.6348,790.76,323.6348" style="stroke:#181818;stroke-width:1.0;"/></g><!--link StudentProfile to Profile--><g id="link_StudentProfile_Profile"><path codeLine="48" d="M697,256.7748 C697,285.6448 697,327.6348 697,327.6348 C697,327.6348 790.69,327.6348 790.69,327.6348 " fill="none" id="StudentProfile-to-Profile" style="stroke:#181818;stroke-width:1.0;"/><polygon fill="none" points="790.69,320.6348,810.69,327.6348,790.69,334.6348,790.69,320.6348" style="stroke:#181818;stroke-width:1.0;"/></g><!--link ManagerProfile to Profile--><g id="link_ManagerProfile_Profile"><path codeLine="49" d="M1112.65,260.6348 C1019.73,260.6348 859,260.6348 859,260.6348 C859,260.6348 859,304.4048 859,304.4048 " fill="none" id="ManagerProfile-to-Profile" style="stroke:#181818;stroke-width:1.0;"/><polygon fill="none" points="866,304.4048,859,324.4048,852,304.4048,866,304.4048" style="stroke:#181818;stroke-width:1.0;"/></g><!--link TaxPayerNumber to Profile--><g id="link_TaxPayerNumber_Profile"><path codeLine="50" d="M1007,269.7948 C1007,269.7948 1007,342.6348 1007,342.6348 C1007,342.6348 896.31,342.6348 896.31,342.6348 " fill="none" id="TaxPayerNumber-Profile" style="stroke:#181818;stroke-width:1.0;"/><polygon fill="#181818" points="1007,256.7948,1003,265.7948,1007,261.7948,1011,265.7948,1007,256.7948" style="stroke:#181818;stroke-width:1.0;"/><line style="stroke:#181818;stroke-width:1.0;" x1="1007" x2="1007" y1="261.7948" y2="269.7948"/><polygon fill="#181818" points="883.31,342.6348,889.31,346.6348,895.31,342.6348,889.31,338.6348,883.31,342.6348" style="stroke:#181818;stroke-width:1.0;"/><text fill="#000000" font-family="sans-serif" font-size="13" lengthAdjust="spacing" textLength="21" x="966.07" y="338.6631">has</text><text fill="#000000" font-family="sans-serif" font-size="13" lengthAdjust="spacing" textLength="7" x="999.2781" y="278.1479">1</text><text fill="#000000" font-family="sans-serif" font-size="13" lengthAdjust="spacing" textLength="7" x="890.8988" y="334.9688">1</text></g><!--link DateOfBirth to Profile--><g id="link_DateOfBirth_Profile"><path codeLine="51" d="M835,269.8648 C835,269.8648 835,311.5848 835,311.5848 " fill="none" id="DateOfBirth-Profile" style="stroke:#181818;stroke-width:1.0;"/><polygon fill="#181818" points="835,256.8648,831,265.8648,835,261.8648,839,265.8648,835,256.8648" style="stroke:#181818;stroke-width:1.0;"/><line style="stroke:#181818;stroke-width:1.0;" x1="835" x2="835" y1="261.8648" y2="269.8648"/><polygon fill="#181818" points="835,324.5848,839,318.5848,835,312.5848,831,318.5848,835,324.5848" style="stroke:#181818;stroke-width:1.0;"/><text fill="#000000" font-family="sans-serif" font-size="13" lengthAdjust="spacing" textLength="21" x="836" y="286.7531">has</text><text fill="#000000" font-family="sans-serif" font-size="13" lengthAdjust="spacing" textLength="7" x="825.0453" y="313.478">1</text><text fill="#000000" font-family="sans-serif" font-size="13" lengthAdjust="spacing" textLength="7" x="824.8031" y="278.2324">1</text></g><!--link MechanographicNumber to StudentProfile--><g id="link_MechanographicNumber_StudentProfile"><path codeLine="52" d="M697,148.6848 C697,148.6848 697,190.2248 697,190.2248 " fill="none" id="MechanographicNumber-StudentProfile" style="stroke:#181818;stroke-width:1.0;"/><polygon fill="#181818" points="697,135.6848,693,144.6848,697,140.6848,701,144.6848,697,135.6848" style="stroke:#181818;stroke-width:1.0;"/><line style="stroke:#181818;stroke-width:1.0;" x1="697" x2="697" y1="140.6848" y2="148.6848"/><polygon fill="#181818" points="697,203.2248,701,197.2248,697,191.2248,693,197.2248,697,203.2248" style="stroke:#181818;stroke-width:1.0;"/><text fill="#000000" font-family="sans-serif" font-size="13" lengthAdjust="spacing" textLength="21" x="698" y="165.4831">has</text><text fill="#000000" font-family="sans-serif" font-size="13" lengthAdjust="spacing" textLength="7" x="689.2344" y="192.5847">1</text><text fill="#000000" font-family="sans-serif" font-size="13" lengthAdjust="spacing" textLength="7" x="684.6406" y="157.4578">1</text></g><!--link Acronym to TeacherProfile--><g id="link_Acronym_TeacherProfile"><path codeLine="53" d="M535,148.6848 C535,148.6848 535,190.2248 535,190.2248 " fill="none" id="Acronym-TeacherProfile" style="stroke:#181818;stroke-width:1.0;"/><polygon fill="#181818" points="535,135.6848,531,144.6848,535,140.6848,539,144.6848,535,135.6848" style="stroke:#181818;stroke-width:1.0;"/><line style="stroke:#181818;stroke-width:1.0;" x1="535" x2="535" y1="140.6848" y2="148.6848"/><polygon fill="#181818" points="535,203.2248,539,197.2248,535,191.2248,531,197.2248,535,203.2248" style="stroke:#181818;stroke-width:1.0;"/><text fill="#000000" font-family="sans-serif" font-size="13" lengthAdjust="spacing" textLength="21" x="536" y="165.4831">has</text><text fill="#000000" font-family="sans-serif" font-size="13" lengthAdjust="spacing" textLength="7" x="526.3594" y="192.5847">1</text><text fill="#000000" font-family="sans-serif" font-size="13" lengthAdjust="spacing" textLength="7" x="527.2344" y="157.4578">1</text></g><!--link Schedule to Profile--><g id="link_Schedule_Profile"><path codeLine="54" d="M1306.83,269.6548 C1306.83,269.6548 1306.83,359.6348 1306.83,359.6348 C1306.83,359.6348 896.08,359.6348 896.08,359.6348 " fill="none" id="Schedule-Profile" style="stroke:#181818;stroke-width:1.0;"/><polygon fill="#181818" points="1306.83,256.6548,1302.83,265.6548,1306.83,261.6548,1310.83,265.6548,1306.83,256.6548" style="stroke:#181818;stroke-width:1.0;"/><line style="stroke:#181818;stroke-width:1.0;" x1="1306.83" x2="1306.83" y1="261.6548" y2="269.6548"/><polygon fill="#181818" points="883.08,359.6348,889.08,363.6348,895.08,359.6348,889.08,355.6348,883.08,359.6348" style="stroke:#181818;stroke-width:1.0;"/><text fill="#000000" font-family="sans-serif" font-size="13" lengthAdjust="spacing" textLength="21" x="1124.45" y="355.6631">has</text><text fill="#000000" font-family="sans-serif" font-size="13" lengthAdjust="spacing" textLength="7" x="1295.7459" y="278.4213">1</text><text fill="#000000" font-family="sans-serif" font-size="13" lengthAdjust="spacing" textLength="7" x="891.2434" y="355.0902">1</text></g><!--link ProfileDay to Schedule--><g id="link_ProfileDay_Schedule"><path codeLine="55" d="M1322,148.6848 C1322,148.6848 1322,190.2248 1322,190.2248 " fill="none" id="ProfileDay-Schedule" style="stroke:#181818;stroke-width:1.0;"/><polygon fill="#181818" points="1322,135.6848,1318,144.6848,1322,140.6848,1326,144.6848,1322,135.6848" style="stroke:#181818;stroke-width:1.0;"/><line style="stroke:#181818;stroke-width:1.0;" x1="1322" x2="1322" y1="140.6848" y2="148.6848"/><polygon fill="#181818" points="1322,203.2248,1326,197.2248,1322,191.2248,1318,197.2248,1322,203.2248" style="stroke:#181818;stroke-width:1.0;"/><text fill="#000000" font-family="sans-serif" font-size="13" lengthAdjust="spacing" textLength="21" x="1323" y="165.4831">has</text><text fill="#000000" font-family="sans-serif" font-size="13" lengthAdjust="spacing" textLength="20" x="1299.8125" y="192.5847">1..*</text><text fill="#000000" font-family="sans-serif" font-size="13" lengthAdjust="spacing" textLength="7" x="1316.2031" y="157.4578">1</text></g><!--link Profile to User--><g id="link_Profile_User"><path codeLine="57" d="M797.78,389.6348 C797.78,389.6348 359.83,389.6348 359.83,389.6348 C359.83,389.6348 359.83,440.6148 359.83,440.6148 " fill="none" id="Profile-User" style="stroke:#181818;stroke-width:1.0;"/><polygon fill="#181818" points="810.78,389.6348,804.78,385.6348,798.78,389.6348,804.78,393.6348,810.78,389.6348" style="stroke:#181818;stroke-width:1.0;"/><polygon fill="#181818" points="359.83,453.6148,363.83,444.6148,359.83,448.6148,355.83,444.6148,359.83,453.6148" style="stroke:#181818;stroke-width:1.0;"/><line style="stroke:#181818;stroke-width:1.0;" x1="359.83" x2="359.83" y1="448.6148" y2="440.6148"/><text fill="#000000" font-family="sans-serif" font-size="13" lengthAdjust="spacing" textLength="21" x="531.32" y="385.6631">has</text><text fill="#000000" font-family="sans-serif" font-size="13" lengthAdjust="spacing" textLength="7" x="795.9601" y="391.068">1</text><text fill="#000000" font-family="sans-serif" font-size="13" lengthAdjust="spacing" textLength="7" x="359.0556" y="442.4103">1</text></g><!--link Schedule to Meeting--><g id="link_Schedule_Meeting"><path codeLine="70" d="M1337.17,256.6648 C1337.17,298.8848 1337.17,376.6348 1337.17,376.6348 C1337.17,376.6348 1433.69,376.6348 1433.69,376.6348 " fill="none" id="Schedule-to-Meeting" style="stroke:#181818;stroke-width:1.0;"/><polygon fill="#181818" points="1438.69,376.6348,1429.69,372.6348,1433.69,376.6348,1429.69,380.6348,1438.69,376.6348" style="stroke:#181818;stroke-width:1.0;"/><text fill="#000000" font-family="sans-serif" font-size="13" lengthAdjust="spacing" textLength="39" x="1297.17" y="360.9431">map of</text><text fill="#000000" font-family="sans-serif" font-size="13" lengthAdjust="spacing" textLength="7" x="1332.7228" y="278.4334">1</text><text fill="#000000" font-family="sans-serif" font-size="13" lengthAdjust="spacing" textLength="7" x="1423.9883" y="375.2742">1</text></g><!--link MeetingTitle to Meeting--><g id="link_MeetingTitle_Meeting"><path codeLine="71" d="M1718,277.8348 C1718,277.8348 1718,359.6348 1718,359.6348 C1718,359.6348 1534.18,359.6348 1534.18,359.6348 " fill="none" id="MeetingTitle-Meeting" style="stroke:#181818;stroke-width:1.0;"/><polygon fill="#181818" points="1718,264.8348,1714,273.8348,1718,269.8348,1722,273.8348,1718,264.8348" style="stroke:#181818;stroke-width:1.0;"/><line style="stroke:#181818;stroke-width:1.0;" x1="1718" x2="1718" y1="269.8348" y2="277.8348"/><polygon fill="#181818" points="1521.18,359.6348,1527.18,363.6348,1533.18,359.6348,1527.18,355.6348,1521.18,359.6348" style="stroke:#181818;stroke-width:1.0;"/><text fill="#000000" font-family="sans-serif" font-size="13" lengthAdjust="spacing" textLength="21" x="1644.99" y="355.6631">has</text><text fill="#000000" font-family="sans-serif" font-size="13" lengthAdjust="spacing" textLength="7" x="1702.3047" y="286.08">1</text><text fill="#000000" font-family="sans-serif" font-size="13" lengthAdjust="spacing" textLength="7" x="1529.1386" y="355.3047">1</text></g><!--link Duration to Meeting--><g id="link_Duration_Meeting"><path codeLine="72" d="M1643.17,269.7948 C1643.17,269.7948 1643.17,342.6348 1643.17,342.6348 C1643.17,342.6348 1534.17,342.6348 1534.17,342.6348 " fill="none" id="Duration-Meeting" style="stroke:#181818;stroke-width:1.0;"/><polygon fill="#181818" points="1643.17,256.7948,1639.17,265.7948,1643.17,261.7948,1647.17,265.7948,1643.17,256.7948" style="stroke:#181818;stroke-width:1.0;"/><line style="stroke:#181818;stroke-width:1.0;" x1="1643.17" x2="1643.17" y1="261.7948" y2="269.7948"/><polygon fill="#181818" points="1521.17,342.6348,1527.17,346.6348,1533.17,342.6348,1527.17,338.6348,1521.17,342.6348" style="stroke:#181818;stroke-width:1.0;"/><text fill="#000000" font-family="sans-serif" font-size="13" lengthAdjust="spacing" textLength="21" x="1603.09" y="338.6631">has</text><text fill="#000000" font-family="sans-serif" font-size="13" lengthAdjust="spacing" textLength="7" x="1639.6082" y="278.1479">1</text><text fill="#000000" font-family="sans-serif" font-size="13" lengthAdjust="spacing" textLength="7" x="1529.1268" y="335.2766">1</text></g><!--link Time to Meeting--><g id="link_Time_Meeting"><path codeLine="73" d="M1480,269.8648 C1480,269.8648 1480,311.5848 1480,311.5848 " fill="none" id="Time-Meeting" style="stroke:#181818;stroke-width:1.0;"/><polygon fill="#181818" points="1480,256.8648,1476,265.8648,1480,261.8648,1484,265.8648,1480,256.8648" style="stroke:#181818;stroke-width:1.0;"/><line style="stroke:#181818;stroke-width:1.0;" x1="1480" x2="1480" y1="261.8648" y2="269.8648"/><polygon fill="#181818" points="1480,324.5848,1484,318.5848,1480,312.5848,1476,318.5848,1480,324.5848" style="stroke:#181818;stroke-width:1.0;"/><text fill="#000000" font-family="sans-serif" font-size="13" lengthAdjust="spacing" textLength="21" x="1481" y="286.7531">has</text><text fill="#000000" font-family="sans-serif" font-size="13" lengthAdjust="spacing" textLength="7" x="1472.3328" y="313.478">1</text><text fill="#000000" font-family="sans-serif" font-size="13" lengthAdjust="spacing" textLength="7" x="1472.4844" y="278.2324">1</text></g><!--link Meeting to User--><g id="link_Meeting_User"><path codeLine="74" d="M1459.5,406.8848 C1459.5,406.8848 1459.5,462.6348 1459.5,462.6348 C1459.5,462.6348 383.59,462.6348 383.59,462.6348 " fill="none" id="Meeting-User" style="stroke:#181818;stroke-width:1.0;"/><polygon fill="#181818" points="1459.5,393.8848,1455.5,399.8848,1459.5,405.8848,1463.5,399.8848,1459.5,393.8848" style="stroke:#181818;stroke-width:1.0;"/><polygon fill="#181818" points="370.59,462.6348,379.59,466.6348,375.59,462.6348,379.59,458.6348,370.59,462.6348" style="stroke:#181818;stroke-width:1.0;"/><line style="stroke:#181818;stroke-width:1.0;" x1="375.59" x2="383.59" y1="462.6348" y2="462.6348"/><text fill="#000000" font-family="sans-serif" font-size="13" lengthAdjust="spacing" textLength="21" x="927.42" y="458.6631">has</text><text fill="#000000" font-family="sans-serif" font-size="13" lengthAdjust="spacing" textLength="7" x="1448.525" y="415.1383">1</text><text fill="#000000" font-family="sans-serif" font-size="13" lengthAdjust="spacing" textLength="5" x="378.6734" y="452.9689">*</text></g><!--reverse link Meeting to User--><g id="link_Meeting_User"><path codeLine="75" d="M1480,398.8048 C1480,398.8048 1480,471.6348 1480,471.6348 C1480,471.6348 611.01,471.6348 370.85,471.6348 " fill="none" id="Meeting-backto-User" style="stroke:#181818;stroke-width:1.0;"/><polygon fill="#181818" points="1480,393.8048,1476,402.8048,1480,398.8048,1484,402.8048,1480,393.8048" style="stroke:#181818;stroke-width:1.0;"/><text fill="#000000" font-family="sans-serif" font-size="13" lengthAdjust="spacing" textLength="134" x="826.84" y="486.6631">schedule and manages</text><text fill="#000000" font-family="sans-serif" font-size="13" lengthAdjust="spacing" textLength="7" x="1472.3984" y="415.3172">1</text><text fill="#000000" font-family="sans-serif" font-size="13" lengthAdjust="spacing" textLength="7" x="378.6927" y="482.4642">1</text></g><!--link Meeting to MeetingState--><g id="link_Meeting_MeetingState"><path codeLine="76" d="M1500.5,393.7148 C1500.5,393.7148 1500.5,475.1048 1500.5,475.1048 " fill="none" id="Meeting-to-MeetingState" style="stroke:#181818;stroke-width:1.0;"/><polygon fill="#181818" points="1500.5,480.1048,1504.5,471.1048,1500.5,475.1048,1496.5,471.1048,1500.5,480.1048" style="stroke:#181818;stroke-width:1.0;"/><text fill="#000000" font-family="sans-serif" font-size="13" lengthAdjust="spacing" textLength="21" x="1478.5" y="430.4331">has</text><text fill="#000000" font-family="sans-serif" font-size="13" lengthAdjust="spacing" textLength="7" x="1496.4219" y="415.2117">1</text><text fill="#000000" font-family="sans-serif" font-size="13" lengthAdjust="spacing" textLength="7" x="1497.1563" y="468.6809">1</text></g><!--link Meeting to MeetingParticipant--><g id="link_Meeting_MeetingParticipant"><path codeLine="77" d="M1521.12,376.6348 C1558.82,376.6348 1608.83,376.6348 1608.83,376.6348 C1608.83,376.6348 1608.83,475.0148 1608.83,475.0148 " fill="none" id="Meeting-to-MeetingParticipant" style="stroke:#181818;stroke-width:1.0;"/><polygon fill="#181818" points="1608.83,480.0148,1612.83,471.0148,1608.83,475.0148,1604.83,471.0148,1608.83,480.0148" style="stroke:#181818;stroke-width:1.0;"/><text fill="#000000" font-family="sans-serif" font-size="13" lengthAdjust="spacing" textLength="21" x="1586.83" y="377.9931">has</text><text fill="#000000" font-family="sans-serif" font-size="13" lengthAdjust="spacing" textLength="7" x="1529.0679" y="375.3328">1</text><text fill="#000000" font-family="sans-serif" font-size="13" lengthAdjust="spacing" textLength="20" x="1577.2282" y="469.0036">1..*</text></g><!--link MeetingParticipant to MeetingParticipantState--><g id="link_MeetingParticipant_MeetingParticipantState"><path codeLine="78" d="M1649,533.3648 C1649,533.3648 1649,630.4948 1649,630.4948 " fill="none" id="MeetingParticipant-to-MeetingParticipantState" style="stroke:#181818;stroke-width:1.0;"/><polygon fill="#181818" points="1649,635.4948,1653,626.4948,1649,630.4948,1645,626.4948,1649,635.4948" style="stroke:#181818;stroke-width:1.0;"/><text fill="#000000" font-family="sans-serif" font-size="13" lengthAdjust="spacing" textLength="21" x="1627" y="577.9531">has</text><text fill="#000000" font-family="sans-serif" font-size="13" lengthAdjust="spacing" textLength="7" x="1641.2781" y="554.7324">1</text><text fill="#000000" font-family="sans-serif" font-size="13" lengthAdjust="spacing" textLength="7" x="1641.1906" y="624.4789">1</text></g><!--SRC=[bLLHRvim47xdLrZqPOkMQbqrgQrGf5LPfJsqZPPixmSOy0gO6TCjolBVTnWSR492oGC1ttVdk- - -inCMKf9HcV2mT9poXUK52CX80S4Bn7GjjoabWWOIyZYb1Y1bEPNRWX8kqDbn92-8vCJdKlACXApsOJn70vCOOiapO3bP2lPAyO-MB4PRkmjnFG_YMD0O95qio8-I2fTutWDFGofmuIAA_EkRZsJdE8GGccFChK8XI70k4U9vpV9YiQinwhUMWkKnYQeqVOACzjVB17C_6FOgDWbIA4lodMFEdlVkvuUB-vjFdpy_l2Ula5POhVyB2yFzTdi3liB77ox22IvVaOyKyTz2bNoLizyLLQzd8kWGBGDhMONuQjPksJSKWaIHD6n_X1pPxzaLG77hNhbaDfylr4kJxnr9e3o1E91m3gI8xG0wWzga83EtSReZWQ2e1Xisd_zhrE4qRMpAjrTrqTtg_gJGLe97BAMsrcvl_Uie8Zj3QYrkK6sMRjhDExo6sSrlCn-3jMKFm3pl2KNzFAYi3VnTmPQAfohpLNFVAiabal8StJCSw0bUZpH88EUnW29XmUHDlmI2vzjiWiSQ6GwhCxIvIzYw14hTDlmS3MzAH_Ej5DH-c88xQU_rwyZUwqmjUcy-dpNJqpfris6sOmGws0FBfvTwvwhvjz0z8ZhqWVkHX0pctQlBovcPYGxHeFUEzhREYVOGg16dXlUHKed7k3sy0BuFO0rlYpjzLLWJx6xg-qh9ftLK2-S5P9pVzaHL0kfRS8AwDooZawPFvRYMoCbqjnK8oG9MW7M9Z47VjjcnNdHlTKFkI0O5uL4hOODiIrqT_30PcjOHdE9o1ADNElNDBFNrCHZA56Yf2uGyn7Bg-J_swHNUy3SSle6gYHdeqP6FQHpOwQXfUkR-0m00]--></g></svg>