<?xml version="1.0" encoding="UTF-8" standalone="no"?><svg xmlns="http://www.w3.org/2000/svg" xmlns:xlink="http://www.w3.org/1999/xlink" contentStyleType="text/css" height="482px" preserveAspectRatio="none" style="width:1421px;height:482px;background:#FFFFFF;" version="1.1" viewBox="0 0 1421 482" width="1421px" zoomAndPan="magnify"><defs/><g><rect fill="#FFFFFF" height="287.7109" style="stroke:#181818;stroke-width:1.0;" width="10" x="31" y="92.2813"/><rect fill="#FFFFFF" height="57.0469" style="stroke:#181818;stroke-width:1.0;" width="10" x="297" y="112.8047"/><rect fill="#FFFFFF" height="28.5234" style="stroke:#181818;stroke-width:1.0;" width="10" x="416" y="141.3281"/><rect fill="#FFFFFF" height="28.5234" style="stroke:#181818;stroke-width:1.0;" width="10" x="535" y="169.8516"/><rect fill="#FFFFFF" height="144.0938" style="stroke:#181818;stroke-width:1.0;" width="10" x="535" y="226.8984"/><rect fill="#FFFFFF" height="87.0469" style="stroke:#181818;stroke-width:1.0;" width="10" x="787" y="255.4219"/><rect fill="#FFFFFF" height="58.5234" style="stroke:#181818;stroke-width:1.0;" width="10" x="1107" y="283.9453"/><rect fill="#FFFFFF" height="30" style="stroke:#181818;stroke-width:1.0;" width="10" x="1313.5" y="312.4688"/><line style="stroke:#181818;stroke-width:0.5;stroke-dasharray:5.0,5.0;" x1="36" x2="36" y1="82.2813" y2="388.9922"/><line style="stroke:#181818;stroke-width:0.5;stroke-dasharray:5.0,5.0;" x1="301.5" x2="301.5" y1="82.2813" y2="388.9922"/><line style="stroke:#181818;stroke-width:0.5;stroke-dasharray:5.0,5.0;" x1="420.5" x2="420.5" y1="82.2813" y2="388.9922"/><line style="stroke:#181818;stroke-width:0.5;stroke-dasharray:5.0,5.0;" x1="539.5" x2="539.5" y1="82.2813" y2="388.9922"/><line style="stroke:#181818;stroke-width:0.5;stroke-dasharray:5.0,5.0;" x1="791.5" x2="791.5" y1="82.2813" y2="388.9922"/><line style="stroke:#181818;stroke-width:0.5;stroke-dasharray:5.0,5.0;" x1="1112" x2="1112" y1="82.2813" y2="388.9922"/><line style="stroke:#181818;stroke-width:0.5;stroke-dasharray:5.0,5.0;" x1="1318" x2="1318" y1="82.2813" y2="388.9922"/><text fill="#000000" font-family="sans-serif" font-size="14" lengthAdjust="spacing" textLength="56" x="5" y="79.3145">Manager</text><ellipse cx="36" cy="15.1406" fill="#E2E2F0" rx="8" ry="8" style="stroke:#181818;stroke-width:0.5;"/><path d="M36,23.1406 L36,50.1406 M23,31.1406 L49,31.1406 M36,50.1406 L23,65.1406 M36,50.1406 L49,65.1406 " fill="none" style="stroke:#181818;stroke-width:0.5;"/><text fill="#000000" font-family="sans-serif" font-size="14" lengthAdjust="spacing" textLength="56" x="5" y="400.666">Manager</text><ellipse cx="36" cy="412.1328" fill="#E2E2F0" rx="8" ry="8" style="stroke:#181818;stroke-width:0.5;"/><path d="M36,420.1328 L36,447.1328 M23,428.1328 L49,428.1328 M36,447.1328 L23,462.1328 M36,447.1328 L49,462.1328 " fill="none" style="stroke:#181818;stroke-width:0.5;"/><rect fill="#E2E2F0" height="45.2813" rx="2.5" ry="2.5" style="stroke:#181818;stroke-width:0.5;" width="109" x="247.5" y="36"/><text fill="#000000" font-family="sans-serif" font-size="14" font-style="italic" lengthAdjust="spacing" textLength="95" x="254.5" y="55.6738">«presentation»</text><text fill="#000000" font-family="sans-serif" font-size="14" lengthAdjust="spacing" textLength="52" x="276" y="71.3145">:UsersUI</text><rect fill="#E2E2F0" height="45.2813" rx="2.5" ry="2.5" style="stroke:#181818;stroke-width:0.5;" width="109" x="247.5" y="387.9922"/><text fill="#000000" font-family="sans-serif" font-size="14" font-style="italic" lengthAdjust="spacing" textLength="95" x="254.5" y="407.666">«presentation»</text><text fill="#000000" font-family="sans-serif" font-size="14" lengthAdjust="spacing" textLength="52" x="276" y="423.3066">:UsersUI</text><rect fill="#E2E2F0" height="45.2813" rx="2.5" ry="2.5" style="stroke:#181818;stroke-width:0.5;" width="109" x="366.5" y="36"/><text fill="#000000" font-family="sans-serif" font-size="14" font-style="italic" lengthAdjust="spacing" textLength="95" x="373.5" y="55.6738">«presentation»</text><text fill="#000000" font-family="sans-serif" font-size="14" lengthAdjust="spacing" textLength="86" x="378" y="71.3145">:AcceptAction</text><rect fill="#E2E2F0" height="45.2813" rx="2.5" ry="2.5" style="stroke:#181818;stroke-width:0.5;" width="109" x="366.5" y="387.9922"/><text fill="#000000" font-family="sans-serif" font-size="14" font-style="italic" lengthAdjust="spacing" textLength="95" x="373.5" y="407.666">«presentation»</text><text fill="#000000" font-family="sans-serif" font-size="14" lengthAdjust="spacing" textLength="86" x="378" y="423.3066">:AcceptAction</text><rect fill="#E2E2F0" height="45.2813" rx="2.5" ry="2.5" style="stroke:#181818;stroke-width:0.5;" width="109" x="485.5" y="36"/><text fill="#000000" font-family="sans-serif" font-size="14" font-style="italic" lengthAdjust="spacing" textLength="95" x="492.5" y="55.6738">«presentation»</text><text fill="#000000" font-family="sans-serif" font-size="14" lengthAdjust="spacing" textLength="67" x="506.5" y="71.3145">:AcceeptUI</text><rect fill="#E2E2F0" height="45.2813" rx="2.5" ry="2.5" style="stroke:#181818;stroke-width:0.5;" width="109" x="485.5" y="387.9922"/><text fill="#000000" font-family="sans-serif" font-size="14" font-style="italic" lengthAdjust="spacing" textLength="95" x="492.5" y="407.666">«presentation»</text><text fill="#000000" font-family="sans-serif" font-size="14" lengthAdjust="spacing" textLength="67" x="506.5" y="423.3066">:AcceeptUI</text><rect fill="#E2E2F0" height="45.2813" rx="2.5" ry="2.5" style="stroke:#181818;stroke-width:0.5;" width="205" x="689.5" y="36"/><text fill="#000000" font-family="sans-serif" font-size="14" font-style="italic" lengthAdjust="spacing" textLength="84" x="750" y="55.6738">«application»</text><text fill="#000000" font-family="sans-serif" font-size="14" lengthAdjust="spacing" textLength="191" x="696.5" y="71.3145">:StudentRegistrationController</text><rect fill="#E2E2F0" height="45.2813" rx="2.5" ry="2.5" style="stroke:#181818;stroke-width:0.5;" width="205" x="689.5" y="387.9922"/><text fill="#000000" font-family="sans-serif" font-size="14" font-style="italic" lengthAdjust="spacing" textLength="84" x="750" y="407.666">«application»</text><text fill="#000000" font-family="sans-serif" font-size="14" lengthAdjust="spacing" textLength="191" x="696.5" y="423.3066">:StudentRegistrationController</text><rect fill="#E2E2F0" height="45.2813" rx="2.5" ry="2.5" style="stroke:#181818;stroke-width:0.5;" width="190" x="1017" y="36"/><text fill="#000000" font-family="sans-serif" font-size="14" font-style="italic" lengthAdjust="spacing" textLength="84" x="1070" y="55.6738">«application»</text><text fill="#000000" font-family="sans-serif" font-size="14" lengthAdjust="spacing" textLength="176" x="1024" y="71.3145">:StudentRegistrationService</text><rect fill="#E2E2F0" height="45.2813" rx="2.5" ry="2.5" style="stroke:#181818;stroke-width:0.5;" width="190" x="1017" y="387.9922"/><text fill="#000000" font-family="sans-serif" font-size="14" font-style="italic" lengthAdjust="spacing" textLength="84" x="1070" y="407.666">«application»</text><text fill="#000000" font-family="sans-serif" font-size="14" lengthAdjust="spacing" textLength="176" x="1024" y="423.3066">:StudentRegistrationService</text><text fill="#000000" font-family="sans-serif" font-size="14" font-style="italic" lengthAdjust="spacing" textLength="79" x="1276" y="63.6738">«repository»</text><text fill="#000000" font-family="sans-serif" font-size="14" lengthAdjust="spacing" textLength="197" x="1217" y="79.3145">:StudentRegistrationRepository</text><path d="M1300.5,15 C1300.5,5 1318.5,5 1318.5,5 C1318.5,5 1336.5,5 1336.5,15 L1336.5,41 C1336.5,51 1318.5,51 1318.5,51 C1318.5,51 1300.5,51 1300.5,41 L1300.5,15 " fill="#E2E2F0" style="stroke:#181818;stroke-width:1.5;"/><path d="M1300.5,15 C1300.5,25 1318.5,25 1318.5,25 C1318.5,25 1336.5,25 1336.5,15 " fill="none" style="stroke:#181818;stroke-width:1.5;"/><text fill="#000000" font-family="sans-serif" font-size="14" font-style="italic" lengthAdjust="spacing" textLength="79" x="1276" y="400.666">«repository»</text><text fill="#000000" font-family="sans-serif" font-size="14" lengthAdjust="spacing" textLength="197" x="1217" y="416.3066">:StudentRegistrationRepository</text><path d="M1300.5,429.2734 C1300.5,419.2734 1318.5,419.2734 1318.5,419.2734 C1318.5,419.2734 1336.5,419.2734 1336.5,429.2734 L1336.5,455.2734 C1336.5,465.2734 1318.5,465.2734 1318.5,465.2734 C1318.5,465.2734 1300.5,465.2734 1300.5,455.2734 L1300.5,429.2734 " fill="#E2E2F0" style="stroke:#181818;stroke-width:1.5;"/><path d="M1300.5,429.2734 C1300.5,439.2734 1318.5,439.2734 1318.5,439.2734 C1318.5,439.2734 1336.5,439.2734 1336.5,429.2734 " fill="none" style="stroke:#181818;stroke-width:1.5;"/><rect fill="#FFFFFF" height="287.7109" style="stroke:#181818;stroke-width:1.0;" width="10" x="31" y="92.2813"/><rect fill="#FFFFFF" height="57.0469" style="stroke:#181818;stroke-width:1.0;" width="10" x="297" y="112.8047"/><rect fill="#FFFFFF" height="28.5234" style="stroke:#181818;stroke-width:1.0;" width="10" x="416" y="141.3281"/><rect fill="#FFFFFF" height="28.5234" style="stroke:#181818;stroke-width:1.0;" width="10" x="535" y="169.8516"/><rect fill="#FFFFFF" height="144.0938" style="stroke:#181818;stroke-width:1.0;" width="10" x="535" y="226.8984"/><rect fill="#FFFFFF" height="87.0469" style="stroke:#181818;stroke-width:1.0;" width="10" x="787" y="255.4219"/><rect fill="#FFFFFF" height="58.5234" style="stroke:#181818;stroke-width:1.0;" width="10" x="1107" y="283.9453"/><rect fill="#FFFFFF" height="30" style="stroke:#181818;stroke-width:1.0;" width="10" x="1313.5" y="312.4688"/><polygon fill="#181818" points="285,108.8047,295,112.8047,285,116.8047,289,112.8047" style="stroke:#181818;stroke-width:1.0;"/><line style="stroke:#181818;stroke-width:1.0;" x1="41" x2="291" y1="112.8047" y2="112.8047"/><text fill="#000000" font-family="sans-serif" font-size="13" font-weight="bold" lengthAdjust="spacing" textLength="7" x="48" y="108.0498">1</text><text fill="#000000" font-family="sans-serif" font-size="13" lengthAdjust="spacing" textLength="226" x="59" y="108.0498">request to accept students enrollments</text><polygon fill="#181818" points="404,137.3281,414,141.3281,404,145.3281,408,141.3281" style="stroke:#181818;stroke-width:1.0;"/><line style="stroke:#181818;stroke-width:1.0;" x1="307" x2="410" y1="141.3281" y2="141.3281"/><text fill="#000000" font-family="sans-serif" font-size="13" font-weight="bold" lengthAdjust="spacing" textLength="7" x="314" y="136.5732">2</text><text fill="#000000" font-family="sans-serif" font-size="13" lengthAdjust="spacing" textLength="54" x="325" y="136.5732">execute()</text><polygon fill="#181818" points="523,165.8516,533,169.8516,523,173.8516,527,169.8516" style="stroke:#181818;stroke-width:1.0;"/><line style="stroke:#181818;stroke-width:1.0;" x1="421" x2="529" y1="169.8516" y2="169.8516"/><text fill="#000000" font-family="sans-serif" font-size="13" font-weight="bold" lengthAdjust="spacing" textLength="7" x="428" y="165.0967">3</text><text fill="#000000" font-family="sans-serif" font-size="13" lengthAdjust="spacing" textLength="54" x="439" y="165.0967">doShow()</text><polygon fill="#181818" points="52,194.375,42,198.375,52,202.375,48,198.375" style="stroke:#181818;stroke-width:1.0;"/><line style="stroke:#181818;stroke-width:1.0;stroke-dasharray:2.0,2.0;" x1="46" x2="539" y1="198.375" y2="198.375"/><text fill="#000000" font-family="sans-serif" font-size="13" font-weight="bold" lengthAdjust="spacing" textLength="7" x="58" y="193.6201">4</text><text fill="#000000" font-family="sans-serif" font-size="13" lengthAdjust="spacing" textLength="120" x="69" y="193.6201">request data (status)</text><polygon fill="#181818" points="523,222.8984,533,226.8984,523,230.8984,527,226.8984" style="stroke:#181818;stroke-width:1.0;"/><line style="stroke:#181818;stroke-width:1.0;" x1="41" x2="529" y1="226.8984" y2="226.8984"/><text fill="#000000" font-family="sans-serif" font-size="13" font-weight="bold" lengthAdjust="spacing" textLength="7" x="48" y="222.1436">5</text><text fill="#000000" font-family="sans-serif" font-size="13" lengthAdjust="spacing" textLength="125" x="59" y="222.1436">inputs requested data</text><polygon fill="#181818" points="775,251.4219,785,255.4219,775,259.4219,779,255.4219" style="stroke:#181818;stroke-width:1.0;"/><line style="stroke:#181818;stroke-width:1.0;" x1="545" x2="781" y1="255.4219" y2="255.4219"/><text fill="#000000" font-family="sans-serif" font-size="13" font-weight="bold" lengthAdjust="spacing" textLength="7" x="552" y="250.667">6</text><text fill="#000000" font-family="sans-serif" font-size="13" lengthAdjust="spacing" textLength="212" x="563" y="250.667">saveStudentRegistration(registration)</text><polygon fill="#181818" points="1095,279.9453,1105,283.9453,1095,287.9453,1099,283.9453" style="stroke:#181818;stroke-width:1.0;"/><line style="stroke:#181818;stroke-width:1.0;" x1="797" x2="1101" y1="283.9453" y2="283.9453"/><text fill="#000000" font-family="sans-serif" font-size="13" font-weight="bold" lengthAdjust="spacing" textLength="7" x="804" y="279.1904">7</text><text fill="#000000" font-family="sans-serif" font-size="13" lengthAdjust="spacing" textLength="280" x="815" y="279.1904">addNewStudentRegistration(studentRegistration)</text><polygon fill="#181818" points="1301.5,308.4688,1311.5,312.4688,1301.5,316.4688,1305.5,312.4688" style="stroke:#181818;stroke-width:1.0;"/><line style="stroke:#181818;stroke-width:1.0;" x1="1117" x2="1307.5" y1="312.4688" y2="312.4688"/><text fill="#000000" font-family="sans-serif" font-size="13" font-weight="bold" lengthAdjust="spacing" textLength="7" x="1124" y="307.7139">8</text><text fill="#000000" font-family="sans-serif" font-size="13" lengthAdjust="spacing" textLength="146" x="1135" y="307.7139">save(studentRegistration)</text><polygon fill="#181818" points="52,366.9922,42,370.9922,52,374.9922,48,370.9922" style="stroke:#181818;stroke-width:1.0;"/><line style="stroke:#181818;stroke-width:1.0;stroke-dasharray:2.0,2.0;" x1="46" x2="539" y1="370.9922" y2="370.9922"/><text fill="#000000" font-family="sans-serif" font-size="13" font-weight="bold" lengthAdjust="spacing" textLength="7" x="58" y="366.2373">9</text><text fill="#000000" font-family="sans-serif" font-size="13" lengthAdjust="spacing" textLength="152" x="69" y="366.2373">informs operation success</text><!--MD5=[64afe980e84fd49f2d9c0ed3ff8540bb]
@startuml
'https://plantuml.com/sequence-diagram

autonumber

actor manager as "Manager"

participant ":UsersUI" as ui <<presentation>>
participant ":AcceptAction" as action <<presentation>>
participant ":AcceeptUI" as addUi <<presentation>>
participant ":StudentRegistrationController" as controller <<application>>
participant ":StudentRegistrationService" as service <<application>>
database ":StudentRegistrationRepository" as repository <<repository>>

activate manager

manager -> ui : request to accept students enrollments
activate ui
ui -> action : execute()
activate action
action -> addUi : doShow()
deactivate action
deactivate ui

activate addUi
addUi - -> manager : request data (status)
deactivate addUi
manager -> addUi : inputs requested data
activate addUi
addUi -> controller :saveStudentRegistration(registration)
activate controller
controller -> service : addNewStudentRegistration(studentRegistration)
activate service
service -> repository : save(studentRegistration)
activate repository
deactivate repository
deactivate service
deactivate controller
addUi - -> manager : informs operation success
deactivate addUi


@enduml

@startuml

autonumber

actor manager as "Manager"

participant ":UsersUI" as ui <<presentation>>
participant ":AcceptAction" as action <<presentation>>
participant ":AcceeptUI" as addUi <<presentation>>
participant ":StudentRegistrationController" as controller <<application>>
participant ":StudentRegistrationService" as service <<application>>
database ":StudentRegistrationRepository" as repository <<repository>>

activate manager

manager -> ui : request to accept students enrollments
activate ui
ui -> action : execute()
activate action
action -> addUi : doShow()
deactivate action
deactivate ui

activate addUi
addUi - -> manager : request data (status)
deactivate addUi
manager -> addUi : inputs requested data
activate addUi
addUi -> controller :saveStudentRegistration(registration)
activate controller
controller -> service : addNewStudentRegistration(studentRegistration)
activate service
service -> repository : save(studentRegistration)
activate repository
deactivate repository
deactivate service
deactivate controller
addUi - -> manager : informs operation success
deactivate addUi


@enduml

PlantUML version 1.2022.12(Sun Oct 23 19:12:26 WEST 2022)
(GPL source distribution)
Java Runtime: OpenJDK Runtime Environment
JVM: OpenJDK 64-Bit Server VM
Default Encoding: Cp1252
Language: pt
Country: PT
--></g></svg>