<?xml version="1.0" encoding="us-ascii" standalone="no"?><svg xmlns="http://www.w3.org/2000/svg" xmlns:xlink="http://www.w3.org/1999/xlink" contentStyleType="text/css" height="1243.9px" preserveAspectRatio="none" style="width:985px;height:1243px;background:#FFFFFF;" version="1.1" viewBox="0 0 985 1243" width="985.6px" zoomAndPan="magnify"><defs/><g><rect fill="#FFFFFF" height="1114.467" style="stroke:#181818;stroke-width:0.6999999999999998;" width="7" x="47.25" y="65.5348"/><rect fill="#FFFFFF" height="1114.467" style="stroke:#181818;stroke-width:0.6999999999999998;" width="7" x="47.25" y="65.5348"/><rect fill="#FFFFFF" height="1098.1633" style="stroke:#181818;stroke-width:0.6999999999999998;" width="7" x="163.45" y="81.8385"/><rect fill="#FFFFFF" height="1076.2596" style="stroke:#181818;stroke-width:0.6999999999999998;" width="7" x="221.55" y="103.7422"/><rect fill="#FFFFFF" height="277.5445" style="stroke:#181818;stroke-width:0.6999999999999998;" width="7" x="280" y="125.6459"/><rect fill="#FFFFFF" height="161.026" style="stroke:#181818;stroke-width:0.6999999999999998;" width="7" x="283.5" y="196.957"/><rect fill="#FFFFFF" height="73.4111" style="stroke:#181818;stroke-width:0.6999999999999998;" width="7" x="280" y="432.0941"/><rect fill="#FFFFFF" height="161.026" style="stroke:#181818;stroke-width:0.6999999999999998;" width="7" x="280" y="537.909"/><rect fill="#FFFFFF" height="73.4111" style="stroke:#181818;stroke-width:0.6999999999999998;" width="7" x="280" y="749.7424"/><rect fill="#FFFFFF" height="117.2186" style="stroke:#181818;stroke-width:0.6999999999999998;" width="7" x="280" y="855.5572"/><rect fill="#FFFFFF" height="88.8111" style="stroke:#181818;stroke-width:0.6999999999999998;" width="7" x="280" y="1023.5832"/><rect fill="#FFFFFF" height="21.9037" style="stroke:#181818;stroke-width:0.6999999999999998;" width="7" x="436.1" y="147.5496"/><rect fill="#FFFFFF" height="109.5186" style="stroke:#181818;stroke-width:0.6999999999999998;" width="7" x="539.7" y="222.3607"/><rect fill="#FFFFFF" height="109.5186" style="stroke:#181818;stroke-width:0.6999999999999998;" width="7" x="539.7" y="563.3127"/><rect fill="#FFFFFF" height="65.7111" style="stroke:#181818;stroke-width:0.6999999999999998;" width="7" x="539.7" y="880.9609"/><rect fill="#FFFFFF" height="41.5037" style="stroke:#181818;stroke-width:0.6999999999999998;" width="7" x="539.7" y="1048.9869"/><rect fill="#FFFFFF" height="65.7111" style="stroke:#181818;stroke-width:0.6999999999999998;" width="7" x="653.45" y="244.2645"/><rect fill="#FFFFFF" height="65.7111" style="stroke:#181818;stroke-width:0.6999999999999998;" width="7" x="653.45" y="585.2164"/><rect fill="#FFFFFF" height="21.9037" style="stroke:#181818;stroke-width:0.6999999999999998;" width="7" x="769.3" y="266.1682"/><rect fill="#FFFFFF" height="21.9037" style="stroke:#181818;stroke-width:0.6999999999999998;" width="7" x="769.3" y="607.1201"/><rect fill="#FFFFFF" height="21.9037" style="stroke:#181818;stroke-width:0.6999999999999998;" width="7" x="857.5" y="457.4979"/><rect fill="#FFFFFF" height="21.9037" style="stroke:#181818;stroke-width:0.6999999999999998;" width="7" x="857.5" y="775.1461"/><rect fill="#FFFFFF" height="21.9037" style="stroke:#181818;stroke-width:0.6999999999999998;" width="7" x="921.9" y="902.8646"/><rect fill="#FFFFFF" height="9.8" style="stroke:#181818;stroke-width:0.6999999999999998;" width="7" x="921.9" y="1070.8906"/><rect fill="none" height="801.0187" style="stroke:#000000;stroke-width:1.0499999999999998;" width="973.7" x="7" y="373.383"/><rect fill="none" height="455.1668" style="stroke:#000000;stroke-width:1.0499999999999998;" width="959.7" x="14" y="714.335"/><rect fill="none" height="153.1223" style="stroke:#000000;stroke-width:1.0499999999999998;" width="945.7" x="21" y="988.1758"/><line style="stroke:#181818;stroke-width:0.3499999999999999;stroke-dasharray:5.0,5.0;" x1="46.9" x2="46.9" y1="58.5348" y2="1186.3018"/><line style="stroke:#181818;stroke-width:0.3499999999999999;stroke-dasharray:5.0,5.0;" x1="166.6" x2="166.6" y1="58.5348" y2="1186.3018"/><line style="stroke:#181818;stroke-width:0.3499999999999999;stroke-dasharray:5.0,5.0;" x1="224.7" x2="224.7" y1="58.5348" y2="1186.3018"/><line style="stroke:#181818;stroke-width:0.3499999999999999;stroke-dasharray:5.0,5.0;" x1="283.5" x2="283.5" y1="58.5348" y2="1186.3018"/><line style="stroke:#181818;stroke-width:0.3499999999999999;stroke-dasharray:5.0,5.0;" x1="439.6" x2="439.6" y1="58.5348" y2="1186.3018"/><line style="stroke:#181818;stroke-width:0.3499999999999999;stroke-dasharray:5.0,5.0;" x1="543.2" x2="543.2" y1="58.5348" y2="1186.3018"/><line style="stroke:#181818;stroke-width:0.3499999999999999;stroke-dasharray:5.0,5.0;" x1="656.6" x2="656.6" y1="58.5348" y2="1186.3018"/><line style="stroke:#181818;stroke-width:0.3499999999999999;stroke-dasharray:5.0,5.0;" x1="772.8" x2="772.8" y1="58.5348" y2="1186.3018"/><line style="stroke:#181818;stroke-width:0.3499999999999999;stroke-dasharray:5.0,5.0;" x1="861" x2="861" y1="58.5348" y2="1186.3018"/><line style="stroke:#181818;stroke-width:0.3499999999999999;stroke-dasharray:5.0,5.0;" x1="925.4" x2="925.4" y1="58.5348" y2="1186.3018"/><text fill="#000000" font-family="sans-serif" font-size="9.8" lengthAdjust="spacing" textLength="34.3" x="28" y="56.0752">Student</text><ellipse cx="47.25" cy="9.45" fill="#E2E2F0" rx="5.6" ry="5.6" style="stroke:#181818;stroke-width:0.3499999999999999;"/><path d="M47.25,15.05 L47.25,33.95 M38.15,20.65 L56.35,20.65 M47.25,33.95 L38.15,44.45 M47.25,33.95 L56.35,44.45 " fill="none" style="stroke:#181818;stroke-width:0.3499999999999999;"/><text fill="#000000" font-family="sans-serif" font-size="9.8" lengthAdjust="spacing" textLength="34.3" x="28" y="1196.177">Student</text><ellipse cx="47.25" cy="1204.5865" fill="#E2E2F0" rx="5.6" ry="5.6" style="stroke:#181818;stroke-width:0.3499999999999999;"/><path d="M47.25,1210.1865 L47.25,1229.0865 M38.15,1215.7865 L56.35,1215.7865 M47.25,1229.0865 L38.15,1239.5865 M47.25,1229.0865 L56.35,1239.5865 " fill="none" style="stroke:#181818;stroke-width:0.3499999999999999;"/><rect fill="#E2E2F0" height="22.8348" rx="1.75" ry="1.75" style="stroke:#181818;stroke-width:0.3499999999999999;" width="23.1" x="155.4" y="35"/><text fill="#000000" font-family="sans-serif" font-size="9.8" lengthAdjust="spacing" textLength="13.3" x="160.3" y="50.4752">uui</text><rect fill="#E2E2F0" height="22.8348" rx="1.75" ry="1.75" style="stroke:#181818;stroke-width:0.3499999999999999;" width="23.1" x="155.4" y="1185.6018"/><text fill="#000000" font-family="sans-serif" font-size="9.8" lengthAdjust="spacing" textLength="13.3" x="160.3" y="1201.077">uui</text><rect fill="#E2E2F0" height="22.8348" rx="1.75" ry="1.75" style="stroke:#181818;stroke-width:0.3499999999999999;" width="37.1" x="206.5" y="35"/><text fill="#000000" font-family="sans-serif" font-size="9.8" lengthAdjust="spacing" textLength="27.3" x="211.4" y="50.4752">Action</text><rect fill="#E2E2F0" height="22.8348" rx="1.75" ry="1.75" style="stroke:#181818;stroke-width:0.3499999999999999;" width="37.1" x="206.5" y="1185.6018"/><text fill="#000000" font-family="sans-serif" font-size="9.8" lengthAdjust="spacing" textLength="27.3" x="211.4" y="1201.077">Action</text><rect fill="#E2E2F0" height="22.8348" rx="1.75" ry="1.75" style="stroke:#181818;stroke-width:0.3499999999999999;" width="65.8" x="250.6" y="35"/><text fill="#000000" font-family="sans-serif" font-size="9.8" lengthAdjust="spacing" textLength="56" x="255.5" y="50.4752">UndoPostItUI</text><rect fill="#E2E2F0" height="22.8348" rx="1.75" ry="1.75" style="stroke:#181818;stroke-width:0.3499999999999999;" width="65.8" x="250.6" y="1185.6018"/><text fill="#000000" font-family="sans-serif" font-size="9.8" lengthAdjust="spacing" textLength="56" x="255.5" y="1201.077">UndoPostItUI</text><rect fill="#E2E2F0" height="22.8348" rx="1.75" ry="1.75" style="stroke:#181818;stroke-width:0.3499999999999999;" width="81.2" x="399" y="35"/><text fill="#000000" font-family="sans-serif" font-size="9.8" lengthAdjust="spacing" textLength="71.4" x="403.9" y="50.4752">ProfileController</text><rect fill="#E2E2F0" height="22.8348" rx="1.75" ry="1.75" style="stroke:#181818;stroke-width:0.3499999999999999;" width="81.2" x="399" y="1185.6018"/><text fill="#000000" font-family="sans-serif" font-size="9.8" lengthAdjust="spacing" textLength="71.4" x="403.9" y="1201.077">ProfileController</text><rect fill="#E2E2F0" height="22.8348" rx="1.75" ry="1.75" style="stroke:#181818;stroke-width:0.3499999999999999;" width="112" x="487.2" y="35"/><text fill="#000000" font-family="sans-serif" font-size="9.8" lengthAdjust="spacing" textLength="102.2" x="492.1" y="50.4752">SharedBoardController</text><rect fill="#E2E2F0" height="22.8348" rx="1.75" ry="1.75" style="stroke:#181818;stroke-width:0.3499999999999999;" width="112" x="487.2" y="1185.6018"/><text fill="#000000" font-family="sans-serif" font-size="9.8" lengthAdjust="spacing" textLength="102.2" x="492.1" y="1201.077">SharedBoardController</text><rect fill="#E2E2F0" height="22.8348" rx="1.75" ry="1.75" style="stroke:#181818;stroke-width:0.3499999999999999;" width="101.5" x="606.2" y="35"/><text fill="#000000" font-family="sans-serif" font-size="9.8" lengthAdjust="spacing" textLength="91.7" x="611.1" y="50.4752">SharedBoardService</text><rect fill="#E2E2F0" height="22.8348" rx="1.75" ry="1.75" style="stroke:#181818;stroke-width:0.3499999999999999;" width="101.5" x="606.2" y="1185.6018"/><text fill="#000000" font-family="sans-serif" font-size="9.8" lengthAdjust="spacing" textLength="91.7" x="611.1" y="1201.077">SharedBoardService</text><rect fill="#E2E2F0" height="22.8348" rx="1.75" ry="1.75" style="stroke:#181818;stroke-width:0.3499999999999999;" width="116.2" x="714.7" y="35"/><text fill="#000000" font-family="sans-serif" font-size="9.8" lengthAdjust="spacing" textLength="106.4" x="719.6" y="50.4752">SharedBoardRepository</text><rect fill="#E2E2F0" height="22.8348" rx="1.75" ry="1.75" style="stroke:#181818;stroke-width:0.3499999999999999;" width="116.2" x="714.7" y="1185.6018"/><text fill="#000000" font-family="sans-serif" font-size="9.8" lengthAdjust="spacing" textLength="106.4" x="719.6" y="1201.077">SharedBoardRepository</text><rect fill="#E2E2F0" height="22.8348" rx="1.75" ry="1.75" style="stroke:#181818;stroke-width:0.3499999999999999;" width="46.2" x="837.9" y="35"/><text fill="#000000" font-family="sans-serif" font-size="9.8" lengthAdjust="spacing" textLength="36.4" x="842.8" y="50.4752">Console</text><rect fill="#E2E2F0" height="22.8348" rx="1.75" ry="1.75" style="stroke:#181818;stroke-width:0.3499999999999999;" width="46.2" x="837.9" y="1185.6018"/><text fill="#000000" font-family="sans-serif" font-size="9.8" lengthAdjust="spacing" textLength="36.4" x="842.8" y="1201.077">Console</text><rect fill="#E2E2F0" height="22.8348" rx="1.75" ry="1.75" style="stroke:#181818;stroke-width:0.3499999999999999;" width="68.6" x="891.1" y="35"/><text fill="#000000" font-family="sans-serif" font-size="9.8" lengthAdjust="spacing" textLength="58.8" x="896" y="50.4752">SharedBoard</text><rect fill="#E2E2F0" height="22.8348" rx="1.75" ry="1.75" style="stroke:#181818;stroke-width:0.3499999999999999;" width="68.6" x="891.1" y="1185.6018"/><text fill="#000000" font-family="sans-serif" font-size="9.8" lengthAdjust="spacing" textLength="58.8" x="896" y="1201.077">SharedBoard</text><rect fill="#FFFFFF" height="1114.467" style="stroke:#181818;stroke-width:0.6999999999999998;" width="7" x="47.25" y="65.5348"/><rect fill="#FFFFFF" height="1114.467" style="stroke:#181818;stroke-width:0.6999999999999998;" width="7" x="47.25" y="65.5348"/><rect fill="#FFFFFF" height="1098.1633" style="stroke:#181818;stroke-width:0.6999999999999998;" width="7" x="163.45" y="81.8385"/><rect fill="#FFFFFF" height="1076.2596" style="stroke:#181818;stroke-width:0.6999999999999998;" width="7" x="221.55" y="103.7422"/><rect fill="#FFFFFF" height="277.5445" style="stroke:#181818;stroke-width:0.6999999999999998;" width="7" x="280" y="125.6459"/><rect fill="#FFFFFF" height="161.026" style="stroke:#181818;stroke-width:0.6999999999999998;" width="7" x="283.5" y="196.957"/><rect fill="#FFFFFF" height="73.4111" style="stroke:#181818;stroke-width:0.6999999999999998;" width="7" x="280" y="432.0941"/><rect fill="#FFFFFF" height="161.026" style="stroke:#181818;stroke-width:0.6999999999999998;" width="7" x="280" y="537.909"/><rect fill="#FFFFFF" height="73.4111" style="stroke:#181818;stroke-width:0.6999999999999998;" width="7" x="280" y="749.7424"/><rect fill="#FFFFFF" height="117.2186" style="stroke:#181818;stroke-width:0.6999999999999998;" width="7" x="280" y="855.5572"/><rect fill="#FFFFFF" height="88.8111" style="stroke:#181818;stroke-width:0.6999999999999998;" width="7" x="280" y="1023.5832"/><rect fill="#FFFFFF" height="21.9037" style="stroke:#181818;stroke-width:0.6999999999999998;" width="7" x="436.1" y="147.5496"/><rect fill="#FFFFFF" height="109.5186" style="stroke:#181818;stroke-width:0.6999999999999998;" width="7" x="539.7" y="222.3607"/><rect fill="#FFFFFF" height="109.5186" style="stroke:#181818;stroke-width:0.6999999999999998;" width="7" x="539.7" y="563.3127"/><rect fill="#FFFFFF" height="65.7111" style="stroke:#181818;stroke-width:0.6999999999999998;" width="7" x="539.7" y="880.9609"/><rect fill="#FFFFFF" height="41.5037" style="stroke:#181818;stroke-width:0.6999999999999998;" width="7" x="539.7" y="1048.9869"/><rect fill="#FFFFFF" height="65.7111" style="stroke:#181818;stroke-width:0.6999999999999998;" width="7" x="653.45" y="244.2645"/><rect fill="#FFFFFF" height="65.7111" style="stroke:#181818;stroke-width:0.6999999999999998;" width="7" x="653.45" y="585.2164"/><rect fill="#FFFFFF" height="21.9037" style="stroke:#181818;stroke-width:0.6999999999999998;" width="7" x="769.3" y="266.1682"/><rect fill="#FFFFFF" height="21.9037" style="stroke:#181818;stroke-width:0.6999999999999998;" width="7" x="769.3" y="607.1201"/><rect fill="#FFFFFF" height="21.9037" style="stroke:#181818;stroke-width:0.6999999999999998;" width="7" x="857.5" y="457.4979"/><rect fill="#FFFFFF" height="21.9037" style="stroke:#181818;stroke-width:0.6999999999999998;" width="7" x="857.5" y="775.1461"/><rect fill="#FFFFFF" height="21.9037" style="stroke:#181818;stroke-width:0.6999999999999998;" width="7" x="921.9" y="902.8646"/><rect fill="#FFFFFF" height="9.8" style="stroke:#181818;stroke-width:0.6999999999999998;" width="7" x="921.9" y="1070.8906"/><polygon fill="#181818" points="155.05,79.0385,162.05,81.8385,155.05,84.6385,157.85,81.8385" style="stroke:#181818;stroke-width:0.6999999999999998;"/><line style="stroke:#181818;stroke-width:0.6999999999999998;" x1="54.25" x2="159.25" y1="81.8385" y2="81.8385"/><text fill="#000000" font-family="sans-serif" font-size="9.1" lengthAdjust="spacing" textLength="95.9" x="59.15" y="78.1546">Asks to cancel meeting</text><polygon fill="#181818" points="213.15,100.9422,220.15,103.7422,213.15,106.5422,215.95,103.7422" style="stroke:#181818;stroke-width:0.6999999999999998;"/><line style="stroke:#181818;stroke-width:0.6999999999999998;" x1="170.45" x2="217.35" y1="103.7422" y2="103.7422"/><text fill="#000000" font-family="sans-serif" font-size="9.1" lengthAdjust="spacing" textLength="37.8" x="175.35" y="100.0583">execute()</text><polygon fill="#181818" points="271.6,122.8459,278.6,125.6459,271.6,128.4459,274.4,125.6459" style="stroke:#181818;stroke-width:0.6999999999999998;"/><line style="stroke:#181818;stroke-width:0.6999999999999998;" x1="228.55" x2="275.8" y1="125.6459" y2="125.6459"/><text fill="#000000" font-family="sans-serif" font-size="9.1" lengthAdjust="spacing" textLength="37.8" x="233.45" y="121.962">doShow()</text><polygon fill="#181818" points="427.7,144.7496,434.7,147.5496,427.7,150.3496,430.5,147.5496" style="stroke:#181818;stroke-width:0.6999999999999998;"/><line style="stroke:#181818;stroke-width:0.6999999999999998;" x1="287" x2="431.9" y1="147.5496" y2="147.5496"/><text fill="#000000" font-family="sans-serif" font-size="9.1" lengthAdjust="spacing" textLength="135.8" x="291.9" y="143.8657">getUserProfile(authenticatedUser)</text><polygon fill="#181818" points="294.7,166.6533,287.7,169.4533,294.7,172.2533,291.9,169.4533" style="stroke:#181818;stroke-width:0.6999999999999998;"/><line style="stroke:#181818;stroke-width:0.6999999999999998;stroke-dasharray:2.0,2.0;" x1="290.5" x2="438.9" y1="169.4533" y2="169.4533"/><text fill="#000000" font-family="sans-serif" font-size="9.1" lengthAdjust="spacing" textLength="72.1" x="298.9" y="165.7694">currentUserProfile</text><line style="stroke:#181818;stroke-width:0.6999999999999998;" x1="287" x2="319.9" y1="187.857" y2="187.857"/><line style="stroke:#181818;stroke-width:0.6999999999999998;" x1="319.9" x2="319.9" y1="187.857" y2="196.957"/><line style="stroke:#181818;stroke-width:0.6999999999999998;" x1="291.2" x2="319.9" y1="196.957" y2="196.957"/><polygon fill="#181818" points="298.2,194.157,291.2,196.957,298.2,199.757,295.4,196.957" style="stroke:#181818;stroke-width:0.6999999999999998;"/><text fill="#000000" font-family="sans-serif" font-size="9.1" lengthAdjust="spacing" textLength="65.8" x="295.4" y="184.1731">getUserBoards()</text><polygon fill="#181818" points="531.3,219.5607,538.3,222.3607,531.3,225.1607,534.1,222.3607" style="stroke:#181818;stroke-width:0.6999999999999998;"/><line style="stroke:#181818;stroke-width:0.6999999999999998;" x1="290.5" x2="535.5" y1="222.3607" y2="222.3607"/><text fill="#000000" font-family="sans-serif" font-size="9.1" lengthAdjust="spacing" textLength="28.7" x="295.4" y="218.6769">getAll()</text><polygon fill="#181818" points="645.05,241.4645,652.05,244.2645,645.05,247.0645,647.85,244.2645" style="stroke:#181818;stroke-width:0.6999999999999998;"/><line style="stroke:#181818;stroke-width:0.6999999999999998;" x1="546.7" x2="649.25" y1="244.2645" y2="244.2645"/><text fill="#000000" font-family="sans-serif" font-size="9.1" lengthAdjust="spacing" textLength="81.2" x="551.6" y="240.5806">getAllSharedBoard()</text><polygon fill="#181818" points="760.9,263.3682,767.9,266.1682,760.9,268.9682,763.7,266.1682" style="stroke:#181818;stroke-width:0.6999999999999998;"/><line style="stroke:#181818;stroke-width:0.6999999999999998;" x1="660.45" x2="765.1" y1="266.1682" y2="266.1682"/><text fill="#000000" font-family="sans-serif" font-size="9.1" lengthAdjust="spacing" textLength="81.2" x="665.35" y="262.4843">getAllSharedBoard()</text><polygon fill="#181818" points="668.15,285.2719,661.15,288.0719,668.15,290.8719,665.35,288.0719" style="stroke:#181818;stroke-width:0.6999999999999998;"/><line style="stroke:#181818;stroke-width:0.6999999999999998;stroke-dasharray:2.0,2.0;" x1="663.95" x2="772.1" y1="288.0719" y2="288.0719"/><text fill="#000000" font-family="sans-serif" font-size="9.1" lengthAdjust="spacing" textLength="56" x="672.35" y="284.388">sharedBoards</text><polygon fill="#181818" points="554.4,307.1756,547.4,309.9756,554.4,312.7756,551.6,309.9756" style="stroke:#181818;stroke-width:0.6999999999999998;"/><line style="stroke:#181818;stroke-width:0.6999999999999998;stroke-dasharray:2.0,2.0;" x1="550.2" x2="656.25" y1="309.9756" y2="309.9756"/><text fill="#000000" font-family="sans-serif" font-size="9.1" lengthAdjust="spacing" textLength="56" x="558.6" y="306.2917">sharedBoards</text><polygon fill="#181818" points="298.2,329.0793,291.2,331.8793,298.2,334.6793,295.4,331.8793" style="stroke:#181818;stroke-width:0.6999999999999998;"/><line style="stroke:#181818;stroke-width:0.6999999999999998;stroke-dasharray:2.0,2.0;" x1="294" x2="542.5" y1="331.8793" y2="331.8793"/><text fill="#000000" font-family="sans-serif" font-size="9.1" lengthAdjust="spacing" textLength="46.2" x="302.4" y="328.1954">userBoards</text><line style="stroke:#181818;stroke-width:0.6999999999999998;stroke-dasharray:2.0,2.0;" x1="290.5" x2="319.9" y1="357.283" y2="357.283"/><line style="stroke:#181818;stroke-width:0.6999999999999998;stroke-dasharray:2.0,2.0;" x1="319.9" x2="319.9" y1="357.283" y2="366.383"/><line style="stroke:#181818;stroke-width:0.6999999999999998;stroke-dasharray:2.0,2.0;" x1="287" x2="319.9" y1="366.383" y2="366.383"/><polygon fill="#181818" points="294,363.583,287,366.383,294,369.183,291.2,366.383" style="stroke:#181818;stroke-width:0.6999999999999998;"/><text fill="#000000" font-family="sans-serif" font-size="9.1" lengthAdjust="spacing" textLength="46.2" x="295.4" y="353.5991">userBoards</text><path d="M7,373.383 L49.7,373.383 L49.7,379.8867 L42.7,386.8867 L7,386.8867 L7,373.383 " fill="#EEEEEE" style="stroke:#000000;stroke-width:1.0499999999999998;"/><rect fill="none" height="801.0187" style="stroke:#000000;stroke-width:1.0499999999999998;" width="973.7" x="7" y="373.383"/><text fill="#000000" font-family="sans-serif" font-size="9.1" font-weight="bold" lengthAdjust="spacing" textLength="11.2" x="17.5" y="383.9028">alt</text><text fill="#000000" font-family="sans-serif" font-size="7.7" font-weight="bold" lengthAdjust="spacing" textLength="89.6" x="60.2" y="383.0921">[userBoards.isEmpty()]</text><polygon fill="#181818" points="61.95,400.3904,54.95,403.1904,61.95,405.9904,59.15,403.1904" style="stroke:#181818;stroke-width:0.6999999999999998;"/><line style="stroke:#181818;stroke-width:0.6999999999999998;stroke-dasharray:2.0,2.0;" x1="57.75" x2="282.8" y1="403.1904" y2="403.1904"/><text fill="#000000" font-family="sans-serif" font-size="9.1" lengthAdjust="spacing" textLength="168.7" x="66.15" y="399.5065">"This user does not have Shared Boards."</text><line style="stroke:#000000;stroke-width:0.6999999999999998;stroke-dasharray:2.0,2.0;" x1="7" x2="980.7" y1="409.4904" y2="409.4904"/><line style="stroke:#181818;stroke-width:0.6999999999999998;" x1="283.5" x2="316.4" y1="422.9941" y2="422.9941"/><line style="stroke:#181818;stroke-width:0.6999999999999998;" x1="316.4" x2="316.4" y1="422.9941" y2="432.0941"/><line style="stroke:#181818;stroke-width:0.6999999999999998;" x1="287.7" x2="316.4" y1="432.0941" y2="432.0941"/><polygon fill="#181818" points="294.7,429.2941,287.7,432.0941,294.7,434.8941,291.9,432.0941" style="stroke:#181818;stroke-width:0.6999999999999998;"/><text fill="#000000" font-family="sans-serif" font-size="9.1" lengthAdjust="spacing" textLength="116.9" x="291.9" y="419.3103">getSharedBoard(userBoards)</text><polygon fill="#181818" points="849.1,454.6979,856.1,457.4979,849.1,460.2979,851.9,457.4979" style="stroke:#181818;stroke-width:0.6999999999999998;"/><line style="stroke:#181818;stroke-width:0.6999999999999998;" x1="287" x2="853.3" y1="457.4979" y2="457.4979"/><text fill="#000000" font-family="sans-serif" font-size="9.1" lengthAdjust="spacing" textLength="95.9" x="291.9" y="453.814">readLong("Option(ID): ")</text><polygon fill="#181818" points="294.7,476.6016,287.7,479.4016,294.7,482.2016,291.9,479.4016" style="stroke:#181818;stroke-width:0.6999999999999998;"/><line style="stroke:#181818;stroke-width:0.6999999999999998;stroke-dasharray:2.0,2.0;" x1="290.5" x2="860.3" y1="479.4016" y2="479.4016"/><text fill="#000000" font-family="sans-serif" font-size="9.1" lengthAdjust="spacing" textLength="24.5" x="298.9" y="475.7177">option</text><line style="stroke:#181818;stroke-width:0.6999999999999998;stroke-dasharray:2.0,2.0;" x1="287" x2="316.4" y1="504.8053" y2="504.8053"/><line style="stroke:#181818;stroke-width:0.6999999999999998;stroke-dasharray:2.0,2.0;" x1="316.4" x2="316.4" y1="504.8053" y2="513.9053"/><line style="stroke:#181818;stroke-width:0.6999999999999998;stroke-dasharray:2.0,2.0;" x1="283.5" x2="316.4" y1="513.9053" y2="513.9053"/><polygon fill="#181818" points="290.5,511.1053,283.5,513.9053,290.5,516.7053,287.7,513.9053" style="stroke:#181818;stroke-width:0.6999999999999998;"/><text fill="#000000" font-family="sans-serif" font-size="9.1" lengthAdjust="spacing" textLength="53.9" x="291.9" y="501.1214">isValidOption</text><line style="stroke:#181818;stroke-width:0.6999999999999998;" x1="283.5" x2="316.4" y1="528.809" y2="528.809"/><line style="stroke:#181818;stroke-width:0.6999999999999998;" x1="316.4" x2="316.4" y1="528.809" y2="537.909"/><line style="stroke:#181818;stroke-width:0.6999999999999998;" x1="287.7" x2="316.4" y1="537.909" y2="537.909"/><polygon fill="#181818" points="294.7,535.109,287.7,537.909,294.7,540.709,291.9,537.909" style="stroke:#181818;stroke-width:0.6999999999999998;"/><text fill="#000000" font-family="sans-serif" font-size="9.1" lengthAdjust="spacing" textLength="113.4" x="291.9" y="525.1251">getSharedBoardById(option)</text><polygon fill="#181818" points="531.3,560.5127,538.3,563.3127,531.3,566.1127,534.1,563.3127" style="stroke:#181818;stroke-width:0.6999999999999998;"/><line style="stroke:#181818;stroke-width:0.6999999999999998;" x1="287" x2="535.5" y1="563.3127" y2="563.3127"/><text fill="#000000" font-family="sans-serif" font-size="9.1" lengthAdjust="spacing" textLength="84.7" x="291.9" y="559.6288">getBoardById(option)</text><polygon fill="#181818" points="645.05,582.4164,652.05,585.2164,645.05,588.0164,647.85,585.2164" style="stroke:#181818;stroke-width:0.6999999999999998;"/><line style="stroke:#181818;stroke-width:0.6999999999999998;" x1="546.7" x2="649.25" y1="585.2164" y2="585.2164"/><text fill="#000000" font-family="sans-serif" font-size="9.1" lengthAdjust="spacing" textLength="84.7" x="551.6" y="581.5325">getBoardById(option)</text><polygon fill="#181818" points="760.9,604.3201,767.9,607.1201,760.9,609.9201,763.7,607.1201" style="stroke:#181818;stroke-width:0.6999999999999998;"/><line style="stroke:#181818;stroke-width:0.6999999999999998;" x1="660.45" x2="765.1" y1="607.1201" y2="607.1201"/><text fill="#000000" font-family="sans-serif" font-size="9.1" lengthAdjust="spacing" textLength="86.1" x="665.35" y="603.4362">findBoardById(option)</text><polygon fill="#181818" points="668.15,626.2238,661.15,629.0238,668.15,631.8238,665.35,629.0238" style="stroke:#181818;stroke-width:0.6999999999999998;"/><line style="stroke:#181818;stroke-width:0.6999999999999998;stroke-dasharray:2.0,2.0;" x1="663.95" x2="772.1" y1="629.0238" y2="629.0238"/><text fill="#000000" font-family="sans-serif" font-size="9.1" lengthAdjust="spacing" textLength="51.1" x="672.35" y="625.3399">sharedBoard</text><polygon fill="#181818" points="554.4,648.1275,547.4,650.9275,554.4,653.7275,551.6,650.9275" style="stroke:#181818;stroke-width:0.6999999999999998;"/><line style="stroke:#181818;stroke-width:0.6999999999999998;stroke-dasharray:2.0,2.0;" x1="550.2" x2="656.25" y1="650.9275" y2="650.9275"/><text fill="#000000" font-family="sans-serif" font-size="9.1" lengthAdjust="spacing" textLength="51.1" x="558.6" y="647.2437">sharedBoard</text><polygon fill="#181818" points="294.7,670.0312,287.7,672.8312,294.7,675.6312,291.9,672.8312" style="stroke:#181818;stroke-width:0.6999999999999998;"/><line style="stroke:#181818;stroke-width:0.6999999999999998;stroke-dasharray:2.0,2.0;" x1="290.5" x2="542.5" y1="672.8312" y2="672.8312"/><text fill="#000000" font-family="sans-serif" font-size="9.1" lengthAdjust="spacing" textLength="51.1" x="298.9" y="669.1474">sharedBoard</text><line style="stroke:#181818;stroke-width:0.6999999999999998;stroke-dasharray:2.0,2.0;" x1="287" x2="316.4" y1="698.235" y2="698.235"/><line style="stroke:#181818;stroke-width:0.6999999999999998;stroke-dasharray:2.0,2.0;" x1="316.4" x2="316.4" y1="698.235" y2="707.335"/><line style="stroke:#181818;stroke-width:0.6999999999999998;stroke-dasharray:2.0,2.0;" x1="283.5" x2="316.4" y1="707.335" y2="707.335"/><polygon fill="#181818" points="290.5,704.535,283.5,707.335,290.5,710.135,287.7,707.335" style="stroke:#181818;stroke-width:0.6999999999999998;"/><text fill="#000000" font-family="sans-serif" font-size="9.1" lengthAdjust="spacing" textLength="51.1" x="291.9" y="694.5511">sharedBoard</text><path d="M14,714.335 L56.7,714.335 L56.7,720.8387 L49.7,727.8387 L14,727.8387 L14,714.335 " fill="#EEEEEE" style="stroke:#000000;stroke-width:1.0499999999999998;"/><rect fill="none" height="455.1668" style="stroke:#000000;stroke-width:1.0499999999999998;" width="959.7" x="14" y="714.335"/><text fill="#000000" font-family="sans-serif" font-size="9.1" font-weight="bold" lengthAdjust="spacing" textLength="11.2" x="24.5" y="724.8548">alt</text><text fill="#000000" font-family="sans-serif" font-size="7.7" font-weight="bold" lengthAdjust="spacing" textLength="79.8" x="67.2" y="724.044">[sharedBoard != null]</text><line style="stroke:#181818;stroke-width:0.6999999999999998;" x1="283.5" x2="316.4" y1="740.6424" y2="740.6424"/><line style="stroke:#181818;stroke-width:0.6999999999999998;" x1="316.4" x2="316.4" y1="740.6424" y2="749.7424"/><line style="stroke:#181818;stroke-width:0.6999999999999998;" x1="287.7" x2="316.4" y1="749.7424" y2="749.7424"/><polygon fill="#181818" points="294.7,746.9424,287.7,749.7424,294.7,752.5424,291.9,749.7424" style="stroke:#181818;stroke-width:0.6999999999999998;"/><text fill="#000000" font-family="sans-serif" font-size="9.1" lengthAdjust="spacing" textLength="84.7" x="291.9" y="736.9585">getCell(sharedBoard)</text><polygon fill="#181818" points="849.1,772.3461,856.1,775.1461,849.1,777.9461,851.9,775.1461" style="stroke:#181818;stroke-width:0.6999999999999998;"/><line style="stroke:#181818;stroke-width:0.6999999999999998;" x1="287" x2="853.3" y1="775.1461" y2="775.1461"/><text fill="#000000" font-family="sans-serif" font-size="9.1" lengthAdjust="spacing" textLength="95.9" x="291.9" y="771.4622">readLong("Option(ID): ")</text><polygon fill="#181818" points="294.7,794.2498,287.7,797.0498,294.7,799.8498,291.9,797.0498" style="stroke:#181818;stroke-width:0.6999999999999998;"/><line style="stroke:#181818;stroke-width:0.6999999999999998;stroke-dasharray:2.0,2.0;" x1="290.5" x2="860.3" y1="797.0498" y2="797.0498"/><text fill="#000000" font-family="sans-serif" font-size="9.1" lengthAdjust="spacing" textLength="24.5" x="298.9" y="793.3659">option</text><line style="stroke:#181818;stroke-width:0.6999999999999998;stroke-dasharray:2.0,2.0;" x1="287" x2="316.4" y1="822.4535" y2="822.4535"/><line style="stroke:#181818;stroke-width:0.6999999999999998;stroke-dasharray:2.0,2.0;" x1="316.4" x2="316.4" y1="822.4535" y2="831.5535"/><line style="stroke:#181818;stroke-width:0.6999999999999998;stroke-dasharray:2.0,2.0;" x1="283.5" x2="316.4" y1="831.5535" y2="831.5535"/><polygon fill="#181818" points="290.5,828.7535,283.5,831.5535,290.5,834.3535,287.7,831.5535" style="stroke:#181818;stroke-width:0.6999999999999998;"/><text fill="#000000" font-family="sans-serif" font-size="9.1" lengthAdjust="spacing" textLength="53.9" x="291.9" y="818.7696">isValidOption</text><line style="stroke:#181818;stroke-width:0.6999999999999998;" x1="283.5" x2="316.4" y1="846.4572" y2="846.4572"/><line style="stroke:#181818;stroke-width:0.6999999999999998;" x1="316.4" x2="316.4" y1="846.4572" y2="855.5572"/><line style="stroke:#181818;stroke-width:0.6999999999999998;" x1="287.7" x2="316.4" y1="855.5572" y2="855.5572"/><polygon fill="#181818" points="294.7,852.7572,287.7,855.5572,294.7,858.3572,291.9,855.5572" style="stroke:#181818;stroke-width:0.6999999999999998;"/><text fill="#000000" font-family="sans-serif" font-size="9.1" lengthAdjust="spacing" textLength="76.3" x="291.9" y="842.7733">getCellById(option)</text><polygon fill="#181818" points="531.3,878.1609,538.3,880.9609,531.3,883.7609,534.1,880.9609" style="stroke:#181818;stroke-width:0.6999999999999998;"/><line style="stroke:#181818;stroke-width:0.6999999999999998;" x1="287" x2="535.5" y1="880.9609" y2="880.9609"/><text fill="#000000" font-family="sans-serif" font-size="9.1" lengthAdjust="spacing" textLength="76.3" x="291.9" y="877.2771">getCellById(option)</text><polygon fill="#181818" points="913.5,900.0646,920.5,902.8646,913.5,905.6646,916.3,902.8646" style="stroke:#181818;stroke-width:0.6999999999999998;"/><line style="stroke:#181818;stroke-width:0.6999999999999998;" x1="546.7" x2="917.7" y1="902.8646" y2="902.8646"/><text fill="#000000" font-family="sans-serif" font-size="9.1" lengthAdjust="spacing" textLength="76.3" x="551.6" y="899.1808">getCellById(option)</text><polygon fill="#181818" points="554.4,921.9684,547.4,924.7684,554.4,927.5684,551.6,924.7684" style="stroke:#181818;stroke-width:0.6999999999999998;"/><line style="stroke:#181818;stroke-width:0.6999999999999998;stroke-dasharray:2.0,2.0;" x1="550.2" x2="924.7" y1="924.7684" y2="924.7684"/><text fill="#000000" font-family="sans-serif" font-size="9.1" lengthAdjust="spacing" textLength="14" x="558.6" y="921.0845">cell</text><polygon fill="#181818" points="294.7,943.8721,287.7,946.6721,294.7,949.4721,291.9,946.6721" style="stroke:#181818;stroke-width:0.6999999999999998;"/><line style="stroke:#181818;stroke-width:0.6999999999999998;stroke-dasharray:2.0,2.0;" x1="290.5" x2="542.5" y1="946.6721" y2="946.6721"/><text fill="#000000" font-family="sans-serif" font-size="9.1" lengthAdjust="spacing" textLength="14" x="298.9" y="942.9882">cell</text><line style="stroke:#181818;stroke-width:0.6999999999999998;stroke-dasharray:2.0,2.0;" x1="287" x2="316.4" y1="972.0758" y2="972.0758"/><line style="stroke:#181818;stroke-width:0.6999999999999998;stroke-dasharray:2.0,2.0;" x1="316.4" x2="316.4" y1="972.0758" y2="981.1758"/><line style="stroke:#181818;stroke-width:0.6999999999999998;stroke-dasharray:2.0,2.0;" x1="283.5" x2="316.4" y1="981.1758" y2="981.1758"/><polygon fill="#181818" points="290.5,978.3758,283.5,981.1758,290.5,983.9758,287.7,981.1758" style="stroke:#181818;stroke-width:0.6999999999999998;"/><text fill="#000000" font-family="sans-serif" font-size="9.1" lengthAdjust="spacing" textLength="14" x="291.9" y="968.3919">cell</text><path d="M21,988.1758 L63.7,988.1758 L63.7,994.6795 L56.7,1001.6795 L21,1001.6795 L21,988.1758 " fill="#EEEEEE" style="stroke:#000000;stroke-width:1.0499999999999998;"/><rect fill="none" height="153.1223" style="stroke:#000000;stroke-width:1.0499999999999998;" width="945.7" x="21" y="988.1758"/><text fill="#000000" font-family="sans-serif" font-size="9.1" font-weight="bold" lengthAdjust="spacing" textLength="11.2" x="31.5" y="998.6956">alt</text><text fill="#000000" font-family="sans-serif" font-size="7.7" font-weight="bold" lengthAdjust="spacing" textLength="43.4" x="74.2" y="997.8849">[cell != null]</text><line style="stroke:#181818;stroke-width:0.6999999999999998;" x1="283.5" x2="316.4" y1="1014.4832" y2="1014.4832"/><line style="stroke:#181818;stroke-width:0.6999999999999998;" x1="316.4" x2="316.4" y1="1014.4832" y2="1023.5832"/><line style="stroke:#181818;stroke-width:0.6999999999999998;" x1="287.7" x2="316.4" y1="1023.5832" y2="1023.5832"/><polygon fill="#181818" points="294.7,1020.7832,287.7,1023.5832,294.7,1026.3832,291.9,1023.5832" style="stroke:#181818;stroke-width:0.6999999999999998;"/><text fill="#000000" font-family="sans-serif" font-size="9.1" lengthAdjust="spacing" textLength="95.2" x="291.9" y="1010.7993">Post(sharedBoard, cell)</text><polygon fill="#181818" points="531.3,1046.1869,538.3,1048.9869,531.3,1051.7869,534.1,1048.9869" style="stroke:#181818;stroke-width:0.6999999999999998;"/><line style="stroke:#181818;stroke-width:0.6999999999999998;" x1="287" x2="535.5" y1="1048.9869" y2="1048.9869"/><text fill="#000000" font-family="sans-serif" font-size="9.1" lengthAdjust="spacing" textLength="226.1" x="291.9" y="1045.303">addUpdateToHistory(date, profile, change, sharedBoard)</text><polygon fill="#181818" points="913.5,1068.0906,920.5,1070.8906,913.5,1073.6906,916.3,1070.8906" style="stroke:#181818;stroke-width:0.6999999999999998;"/><line style="stroke:#181818;stroke-width:0.6999999999999998;" x1="546.7" x2="917.7" y1="1070.8906" y2="1070.8906"/><text fill="#000000" font-family="sans-serif" font-size="9.1" lengthAdjust="spacing" textLength="226.1" x="551.6" y="1067.2067">addUpdateToHistory(date, profile, change, sharedBoard)</text><polygon fill="#181818" points="554.4,1077.8906,547.4,1080.6906,554.4,1083.4906,551.6,1080.6906" style="stroke:#181818;stroke-width:0.6999999999999998;"/><line style="stroke:#181818;stroke-width:0.6999999999999998;stroke-dasharray:2.0,2.0;" x1="550.2" x2="924.7" y1="1080.6906" y2="1080.6906"/><polygon fill="#181818" points="294.7,1087.6906,287.7,1090.4906,294.7,1093.2906,291.9,1090.4906" style="stroke:#181818;stroke-width:0.6999999999999998;"/><line style="stroke:#181818;stroke-width:0.6999999999999998;stroke-dasharray:2.0,2.0;" x1="290.5" x2="542.5" y1="1090.4906" y2="1090.4906"/><polygon fill="#181818" points="61.95,1109.5943,54.95,1112.3943,61.95,1115.1943,59.15,1112.3943" style="stroke:#181818;stroke-width:0.6999999999999998;"/><line style="stroke:#181818;stroke-width:0.6999999999999998;stroke-dasharray:2.0,2.0;" x1="57.75" x2="282.8" y1="1112.3943" y2="1112.3943"/><text fill="#000000" font-family="sans-serif" font-size="9.1" lengthAdjust="spacing" textLength="140" x="66.15" y="1108.7104">"Post was changed with success!"</text><line style="stroke:#000000;stroke-width:0.6999999999999998;stroke-dasharray:2.0,2.0;" x1="21" x2="966.7" y1="1118.6943" y2="1118.6943"/><polygon fill="#181818" points="61.95,1132.898,54.95,1135.698,61.95,1138.498,59.15,1135.698" style="stroke:#181818;stroke-width:0.6999999999999998;"/><line style="stroke:#181818;stroke-width:0.6999999999999998;stroke-dasharray:2.0,2.0;" x1="57.75" x2="282.8" y1="1135.698" y2="1135.698"/><text fill="#000000" font-family="sans-serif" font-size="9.1" lengthAdjust="spacing" textLength="44.8" x="66.15" y="1132.0142">return false</text><line style="stroke:#000000;stroke-width:0.6999999999999998;stroke-dasharray:2.0,2.0;" x1="14" x2="973.7" y1="1146.898" y2="1146.898"/><polygon fill="#181818" points="61.95,1161.1018,54.95,1163.9018,61.95,1166.7018,59.15,1163.9018" style="stroke:#181818;stroke-width:0.6999999999999998;"/><line style="stroke:#181818;stroke-width:0.6999999999999998;stroke-dasharray:2.0,2.0;" x1="57.75" x2="282.8" y1="1163.9018" y2="1163.9018"/><text fill="#000000" font-family="sans-serif" font-size="9.1" lengthAdjust="spacing" textLength="133" x="66.15" y="1160.2179">"Invalid option. Please try again."</text><!--SRC=[jLPjY-8m4FxUNp7h9uNL7o3SmhuSd72mSgxtFJIZ3PTD94dr_FUNrgffcpJfmWd5EfbvPZ9vvZ4aDrB1nfGKXSb8RjYH60mRck_vKrco9JphFngCX9o873by8XeczlSewvJP1-PFy6njKi0Iy2_cfS7fxEvsMSiQ5-ky5LIkfJOhirtP42etXJov4Qv3bhNSRVXQoHtZ-2g5KP9pL4lOezbgLCtAb9IciDjWkGMZrOA3tOlEUXQOTufSGbugPH6T91d50SnUqMsufjuNIHJLmPrtCJO5KKZheCxcdpbtKRoEcTVQmTsWEh8Shw3EIW2_2SZwfWxoBpn8pImTp-dWzvZCQwqFobUzljkqUr1Hx5ljuNOdO7kQCiYkyiQ50A1pYcrI94Ar1ufmu_WjcFx-UJ1dUmPWFptyHXEMCFaecAu3xSYY1Y4D5EHuBHGQk4aD4qgENACdZsT0N7hSgxqKwSVsmThEQSaj9HGI-bEA_NJoVgY4QBfwczazTV0QzzhOl7kQB6k4xZxTsCWfCVsRS4RVlJZHFGsrwkMyejDBVMDR5PQN2BAVg9NBMCb9JtGTiKwMkFRicA3fQHoLw6GQfqBTCqvACKwC1b84cZMeIMd8dVEEq7u0iwrGzN5ObN82uE4RY9BpUYrfAbxH_Yiw2BDRQ7WclYuXGHb9bf81EVcIfCHa9Rc9lKaPtyEmjiGJXEcMAZ7Z4_dWX-RGte-vh-aHoE4xPnpJquy8JKAW_Vcxpc0LqHk-E7UgDtVw7ckWMGjXc4CZU4GetHweHVgGFvYkj7HQ_Ng4m-LcRfCNHEpjjrSFHj0jdNB_gQPG9M5sjY8Yt4pdPm9ge8I16sPbXXFHJMied9WfG9TvZbe_J48vlNNTRfhnl0fDgGJiI3SacaDSMjVADR2_bJXM8jse_WBM78b6CFOIGVQ4YSKaIRchjDNp3m00]--></g></svg>