<?xml version="1.0" encoding="UTF-8" standalone="no"?><svg xmlns="http://www.w3.org/2000/svg" xmlns:xlink="http://www.w3.org/1999/xlink" contentStyleType="text/css" height="339.5px" preserveAspectRatio="none" style="width:856px;height:339px;background:#FFFFFF;" version="1.1" viewBox="0 0 856 339" width="856px" zoomAndPan="magnify"><defs/><g><rect fill="#FFFFFF" height="242.6641" style="stroke:#181818;stroke-width:0.5;" width="5" x="16.25" y="46.1406"/><rect fill="#FFFFFF" height="28.5234" style="stroke:#181818;stroke-width:0.5;" width="5" x="122.25" y="56.4023"/><rect fill="#FFFFFF" height="14.2617" style="stroke:#181818;stroke-width:0.5;" width="5" x="189.25" y="70.6641"/><rect fill="#FFFFFF" height="203.8789" style="stroke:#181818;stroke-width:0.5;" width="5" x="259.5" y="84.9258"/><rect fill="#FFFFFF" height="203.3789" style="stroke:#181818;stroke-width:0.5;" width="5" x="259.5" y="84.9258"/><rect fill="#FFFFFF" height="104.3086" style="stroke:#181818;stroke-width:0.5;" width="5" x="440.5" y="99.1875"/><rect fill="#FFFFFF" height="90.0469" style="stroke:#181818;stroke-width:0.5;" width="5" x="544.25" y="113.4492"/><rect fill="#FFFFFF" height="46.5234" style="stroke:#181818;stroke-width:0.5;" width="5" x="630.75" y="127.7109"/><rect fill="#FFFFFF" height="15" style="stroke:#181818;stroke-width:0.5;" width="5" x="714.25" y="159.2344"/><rect fill="#FFFFFF" height="15" style="stroke:#181818;stroke-width:0.5;" width="5" x="802.5" y="188.4961"/><rect fill="none" height="44.2852" style="stroke:#000000;stroke-width:0.75;" width="387" x="221.5" y="210.9961"/><rect fill="none" height="29.0234" style="stroke:#000000;stroke-width:0.75;" width="377" x="226.5" y="222.7578"/><rect fill="none" height="22.5234" style="stroke:#000000;stroke-width:0.75;" width="287.5" x="5" y="262.2813"/><line style="stroke:#181818;stroke-width:0.25;stroke-dasharray:5.0,5.0;" x1="18.5" x2="18.5" y1="41.1406" y2="293.3047"/><line style="stroke:#181818;stroke-width:0.25;stroke-dasharray:5.0,5.0;" x1="124.5" x2="124.5" y1="41.1406" y2="293.3047"/><line style="stroke:#181818;stroke-width:0.25;stroke-dasharray:5.0,5.0;" x1="191.5" x2="191.5" y1="41.1406" y2="293.3047"/><line style="stroke:#181818;stroke-width:0.25;stroke-dasharray:5.0,5.0;" x1="259.5" x2="259.5" y1="41.1406" y2="293.3047"/><line style="stroke:#181818;stroke-width:0.25;stroke-dasharray:5.0,5.0;" x1="442.75" x2="442.75" y1="41.1406" y2="293.3047"/><line style="stroke:#181818;stroke-width:0.25;stroke-dasharray:5.0,5.0;" x1="546.75" x2="546.75" y1="41.1406" y2="293.3047"/><line style="stroke:#181818;stroke-width:0.25;stroke-dasharray:5.0,5.0;" x1="633.25" x2="633.25" y1="41.1406" y2="293.3047"/><line style="stroke:#181818;stroke-width:0.25;stroke-dasharray:5.0,5.0;" x1="716.75" x2="716.75" y1="41.1406" y2="293.3047"/><line style="stroke:#181818;stroke-width:0.25;stroke-dasharray:5.0,5.0;" x1="804.75" x2="804.75" y1="41.1406" y2="293.3047"/><text fill="#000000" font-family="sans-serif" font-size="7" lengthAdjust="spacing" textLength="14.5" x="10" y="39.6572">User</text><ellipse cx="18.75" cy="7.5703" fill="#E2E2F0" rx="4" ry="4" style="stroke:#181818;stroke-width:0.25;"/><path d="M18.75,11.5703 L18.75,25.0703 M12.25,15.5703 L25.25,15.5703 M18.75,25.0703 L12.25,32.5703 M18.75,25.0703 L25.25,32.5703 " fill="none" style="stroke:#181818;stroke-width:0.25;"/><text fill="#000000" font-family="sans-serif" font-size="7" lengthAdjust="spacing" textLength="14.5" x="10" y="299.1416">User</text><ellipse cx="18.75" cy="304.875" fill="#E2E2F0" rx="4" ry="4" style="stroke:#181818;stroke-width:0.25;"/><path d="M18.75,308.875 L18.75,322.375 M12.25,312.875 L25.25,312.875 M18.75,322.375 L12.25,329.875 M18.75,322.375 L25.25,329.875 " fill="none" style="stroke:#181818;stroke-width:0.25;"/><rect fill="#E2E2F0" height="22.6406" rx="1.25" ry="1.25" style="stroke:#181818;stroke-width:0.25;" width="54.5" x="97.5" y="18"/><text fill="#000000" font-family="sans-serif" font-size="7" font-style="italic" lengthAdjust="spacing" textLength="47.5" x="101" y="27.8369">«presentation»</text><text fill="#000000" font-family="sans-serif" font-size="7" lengthAdjust="spacing" textLength="34.5" x="107.5" y="35.6572">:CoursesUi</text><rect fill="#E2E2F0" height="22.6406" rx="1.25" ry="1.25" style="stroke:#181818;stroke-width:0.25;" width="54.5" x="97.5" y="292.8047"/><text fill="#000000" font-family="sans-serif" font-size="7" font-style="italic" lengthAdjust="spacing" textLength="47.5" x="101" y="302.6416">«presentation»</text><text fill="#000000" font-family="sans-serif" font-size="7" lengthAdjust="spacing" textLength="34.5" x="107.5" y="310.4619">:CoursesUi</text><rect fill="#E2E2F0" height="22.6406" rx="1.25" ry="1.25" style="stroke:#181818;stroke-width:0.25;" width="69.5" x="157" y="18"/><text fill="#000000" font-family="sans-serif" font-size="7" font-style="italic" lengthAdjust="spacing" textLength="42" x="170.75" y="27.8369">«application»</text><text fill="#000000" font-family="sans-serif" font-size="7" lengthAdjust="spacing" textLength="62.5" x="160.5" y="35.6572">:ViewCoursesAction</text><rect fill="#E2E2F0" height="22.6406" rx="1.25" ry="1.25" style="stroke:#181818;stroke-width:0.25;" width="69.5" x="157" y="292.8047"/><text fill="#000000" font-family="sans-serif" font-size="7" font-style="italic" lengthAdjust="spacing" textLength="42" x="170.75" y="302.6416">«application»</text><text fill="#000000" font-family="sans-serif" font-size="7" lengthAdjust="spacing" textLength="62.5" x="160.5" y="310.4619">:ViewCoursesAction</text><rect fill="#E2E2F0" height="22.6406" rx="1.25" ry="1.25" style="stroke:#181818;stroke-width:0.25;" width="56" x="231.5" y="18"/><text fill="#000000" font-family="sans-serif" font-size="7" font-style="italic" lengthAdjust="spacing" textLength="47.5" x="235.75" y="27.8369">«presentation»</text><text fill="#000000" font-family="sans-serif" font-size="7" lengthAdjust="spacing" textLength="49" x="235" y="35.6572">:ViewCoursesUi</text><rect fill="#E2E2F0" height="22.6406" rx="1.25" ry="1.25" style="stroke:#181818;stroke-width:0.25;" width="56" x="231.5" y="292.8047"/><text fill="#000000" font-family="sans-serif" font-size="7" font-style="italic" lengthAdjust="spacing" textLength="47.5" x="235.75" y="302.6416">«presentation»</text><text fill="#000000" font-family="sans-serif" font-size="7" lengthAdjust="spacing" textLength="49" x="235" y="310.4619">:ViewCoursesUi</text><rect fill="#E2E2F0" height="22.6406" rx="1.25" ry="1.25" style="stroke:#181818;stroke-width:0.25;" width="102.5" x="391.75" y="18"/><text fill="#000000" font-family="sans-serif" font-size="7" font-style="italic" lengthAdjust="spacing" textLength="42" x="422" y="27.8369">«application»</text><text fill="#000000" font-family="sans-serif" font-size="7" lengthAdjust="spacing" textLength="95.5" x="395.25" y="35.6572">:StudentRegistrationController</text><rect fill="#E2E2F0" height="22.6406" rx="1.25" ry="1.25" style="stroke:#181818;stroke-width:0.25;" width="102.5" x="391.75" y="292.8047"/><text fill="#000000" font-family="sans-serif" font-size="7" font-style="italic" lengthAdjust="spacing" textLength="42" x="422" y="302.6416">«application»</text><text fill="#000000" font-family="sans-serif" font-size="7" lengthAdjust="spacing" textLength="95.5" x="395.25" y="310.4619">:StudentRegistrationController</text><rect fill="#E2E2F0" height="22.6406" rx="1.25" ry="1.25" style="stroke:#181818;stroke-width:0.25;" width="95" x="499.25" y="18"/><text fill="#000000" font-family="sans-serif" font-size="7" font-style="italic" lengthAdjust="spacing" textLength="42" x="525.75" y="27.8369">«application»</text><text fill="#000000" font-family="sans-serif" font-size="7" lengthAdjust="spacing" textLength="88" x="502.75" y="35.6572">:StudentRegistrationService</text><rect fill="#E2E2F0" height="22.6406" rx="1.25" ry="1.25" style="stroke:#181818;stroke-width:0.25;" width="95" x="499.25" y="292.8047"/><text fill="#000000" font-family="sans-serif" font-size="7" font-style="italic" lengthAdjust="spacing" textLength="42" x="525.75" y="302.6416">«application»</text><text fill="#000000" font-family="sans-serif" font-size="7" lengthAdjust="spacing" textLength="88" x="502.75" y="310.4619">:StudentRegistrationService</text><rect fill="#E2E2F0" height="14.8203" rx="1.25" ry="1.25" style="stroke:#181818;stroke-width:0.25;" width="68" x="599.25" y="25.8203"/><text fill="#000000" font-family="sans-serif" font-size="7" lengthAdjust="spacing" textLength="61" x="602.75" y="35.6572">PersistenceContext</text><rect fill="#E2E2F0" height="14.8203" rx="1.25" ry="1.25" style="stroke:#181818;stroke-width:0.25;" width="68" x="599.25" y="292.8047"/><text fill="#000000" font-family="sans-serif" font-size="7" lengthAdjust="spacing" textLength="61" x="602.75" y="302.6416">PersistenceContext</text><rect fill="#E2E2F0" height="14.8203" rx="1.25" ry="1.25" style="stroke:#181818;stroke-width:0.25;" width="65" x="684.25" y="25.8203"/><text fill="#000000" font-family="sans-serif" font-size="7" lengthAdjust="spacing" textLength="58" x="687.75" y="35.6572">RepositoryFactory</text><rect fill="#E2E2F0" height="14.8203" rx="1.25" ry="1.25" style="stroke:#181818;stroke-width:0.25;" width="65" x="684.25" y="292.8047"/><text fill="#000000" font-family="sans-serif" font-size="7" lengthAdjust="spacing" textLength="58" x="687.75" y="302.6416">RepositoryFactory</text><text fill="#000000" font-family="sans-serif" font-size="7" font-style="italic" lengthAdjust="spacing" textLength="39.5" x="783.75" y="31.8369">«repository»</text><text fill="#000000" font-family="sans-serif" font-size="7" lengthAdjust="spacing" textLength="98.5" x="754.25" y="39.6572">:StudentRegistrationRepository</text><path d="M796,7.5 C796,2.5 805,2.5 805,2.5 C805,2.5 814,2.5 814,7.5 L814,20.5 C814,25.5 805,25.5 805,25.5 C805,25.5 796,25.5 796,20.5 L796,7.5 " fill="#E2E2F0" style="stroke:#181818;stroke-width:0.75;"/><path d="M796,7.5 C796,12.5 805,12.5 805,12.5 C805,12.5 814,12.5 814,7.5 " fill="none" style="stroke:#181818;stroke-width:0.75;"/><text fill="#000000" font-family="sans-serif" font-size="7" font-style="italic" lengthAdjust="spacing" textLength="39.5" x="783.75" y="299.1416">«repository»</text><text fill="#000000" font-family="sans-serif" font-size="7" lengthAdjust="spacing" textLength="98.5" x="754.25" y="306.9619">:StudentRegistrationRepository</text><path d="M796,313.4453 C796,308.4453 805,308.4453 805,308.4453 C805,308.4453 814,308.4453 814,313.4453 L814,326.4453 C814,331.4453 805,331.4453 805,331.4453 C805,331.4453 796,331.4453 796,326.4453 L796,313.4453 " fill="#E2E2F0" style="stroke:#181818;stroke-width:0.75;"/><path d="M796,313.4453 C796,318.4453 805,318.4453 805,318.4453 C805,318.4453 814,318.4453 814,313.4453 " fill="none" style="stroke:#181818;stroke-width:0.75;"/><rect fill="#FFFFFF" height="242.6641" style="stroke:#181818;stroke-width:0.5;" width="5" x="16.25" y="46.1406"/><rect fill="#FFFFFF" height="28.5234" style="stroke:#181818;stroke-width:0.5;" width="5" x="122.25" y="56.4023"/><rect fill="#FFFFFF" height="14.2617" style="stroke:#181818;stroke-width:0.5;" width="5" x="189.25" y="70.6641"/><rect fill="#FFFFFF" height="203.8789" style="stroke:#181818;stroke-width:0.5;" width="5" x="259.5" y="84.9258"/><rect fill="#FFFFFF" height="203.3789" style="stroke:#181818;stroke-width:0.5;" width="5" x="259.5" y="84.9258"/><rect fill="#FFFFFF" height="104.3086" style="stroke:#181818;stroke-width:0.5;" width="5" x="440.5" y="99.1875"/><rect fill="#FFFFFF" height="90.0469" style="stroke:#181818;stroke-width:0.5;" width="5" x="544.25" y="113.4492"/><rect fill="#FFFFFF" height="46.5234" style="stroke:#181818;stroke-width:0.5;" width="5" x="630.75" y="127.7109"/><rect fill="#FFFFFF" height="15" style="stroke:#181818;stroke-width:0.5;" width="5" x="714.25" y="159.2344"/><rect fill="#FFFFFF" height="15" style="stroke:#181818;stroke-width:0.5;" width="5" x="802.5" y="188.4961"/><polygon fill="#181818" points="116.25,54.4023,121.25,56.4023,116.25,58.4023,118.25,56.4023" style="stroke:#181818;stroke-width:0.5;"/><line style="stroke:#181818;stroke-width:0.5;" x1="21.25" x2="119.25" y1="56.4023" y2="56.4023"/><text fill="#000000" font-family="sans-serif" font-size="6.5" font-weight="bold" lengthAdjust="spacing" textLength="3.5" x="24.75" y="54.0249">1</text><text fill="#000000" font-family="sans-serif" font-size="6.5" lengthAdjust="spacing" textLength="86" x="30.25" y="54.0249">requests to view user courses</text><polygon fill="#181818" points="183.25,68.6641,188.25,70.6641,183.25,72.6641,185.25,70.6641" style="stroke:#181818;stroke-width:0.5;"/><line style="stroke:#181818;stroke-width:0.5;" x1="127.25" x2="186.25" y1="70.6641" y2="70.6641"/><text fill="#000000" font-family="sans-serif" font-size="6.5" font-weight="bold" lengthAdjust="spacing" textLength="3.5" x="130.75" y="68.2866">2</text><text fill="#000000" font-family="sans-serif" font-size="6.5" lengthAdjust="spacing" textLength="27" x="136.25" y="68.2866">execute()</text><polygon fill="#181818" points="253.5,82.9258,258.5,84.9258,253.5,86.9258,255.5,84.9258" style="stroke:#181818;stroke-width:0.5;"/><line style="stroke:#181818;stroke-width:0.5;" x1="191.75" x2="256.5" y1="84.9258" y2="84.9258"/><text fill="#000000" font-family="sans-serif" font-size="6.5" font-weight="bold" lengthAdjust="spacing" textLength="3.5" x="195.25" y="82.5483">3</text><text fill="#000000" font-family="sans-serif" font-size="6.5" lengthAdjust="spacing" textLength="27" x="200.75" y="82.5483">doShow()</text><polygon fill="#181818" points="434.5,97.1875,439.5,99.1875,434.5,101.1875,436.5,99.1875" style="stroke:#181818;stroke-width:0.5;"/><line style="stroke:#181818;stroke-width:0.5;" x1="264.5" x2="437.5" y1="99.1875" y2="99.1875"/><text fill="#000000" font-family="sans-serif" font-size="6.5" font-weight="bold" lengthAdjust="spacing" textLength="3.5" x="268" y="96.8101">4</text><text fill="#000000" font-family="sans-serif" font-size="6.5" lengthAdjust="spacing" textLength="148" x="273.5" y="96.8101">studentRegistrationList = getStudentRegistrations()</text><polygon fill="#181818" points="538.25,111.4492,543.25,113.4492,538.25,115.4492,540.25,113.4492" style="stroke:#181818;stroke-width:0.5;"/><line style="stroke:#181818;stroke-width:0.5;" x1="445.5" x2="541.25" y1="113.4492" y2="113.4492"/><text fill="#000000" font-family="sans-serif" font-size="6.5" font-weight="bold" lengthAdjust="spacing" textLength="3.5" x="449" y="111.0718">5</text><text fill="#000000" font-family="sans-serif" font-size="6.5" lengthAdjust="spacing" textLength="20.5" x="454.5" y="111.0718">getAll()</text><polygon fill="#181818" points="624.75,125.7109,629.75,127.7109,624.75,129.7109,626.75,127.7109" style="stroke:#181818;stroke-width:0.5;"/><line style="stroke:#181818;stroke-width:0.5;" x1="549.25" x2="627.75" y1="127.7109" y2="127.7109"/><text fill="#000000" font-family="sans-serif" font-size="6.5" font-weight="bold" lengthAdjust="spacing" textLength="3.5" x="552.75" y="125.3335">6</text><text fill="#000000" font-family="sans-serif" font-size="6.5" lengthAdjust="spacing" textLength="37.5" x="558.25" y="125.3335">repositories()</text><path d="M638,134.2109 L638,146.2109 L770.5,146.2109 L770.5,139.2109 L765.5,134.2109 L638,134.2109 " fill="#FEFFDD" style="stroke:#181818;stroke-width:0.25;"/><path d="M765.5,134.2109 L765.5,139.2109 L770.5,139.2109 L765.5,134.2109 " fill="#FEFFDD" style="stroke:#181818;stroke-width:0.25;"/><text fill="#000000" font-family="sans-serif" font-size="6.5" lengthAdjust="spacing" textLength="122" x="641" y="142.5952">repository can be either in memory or JPA</text><polygon fill="#181818" points="708.25,157.2344,713.25,159.2344,708.25,161.2344,710.25,159.2344" style="stroke:#181818;stroke-width:0.5;"/><line style="stroke:#181818;stroke-width:0.5;" x1="635.75" x2="711.25" y1="159.2344" y2="159.2344"/><text fill="#000000" font-family="sans-serif" font-size="6.5" font-weight="bold" lengthAdjust="spacing" textLength="3.5" x="639.25" y="156.8569">7</text><text fill="#000000" font-family="sans-serif" font-size="6.5" lengthAdjust="spacing" textLength="63.5" x="644.75" y="156.8569">studentRegistrations()</text><polygon fill="#181818" points="796.5,186.4961,801.5,188.4961,796.5,190.4961,798.5,188.4961" style="stroke:#181818;stroke-width:0.5;"/><line style="stroke:#181818;stroke-width:0.5;" x1="549.25" x2="799.5" y1="188.4961" y2="188.4961"/><text fill="#000000" font-family="sans-serif" font-size="6.5" font-weight="bold" lengthAdjust="spacing" textLength="3.5" x="552.75" y="186.1187">8</text><text fill="#000000" font-family="sans-serif" font-size="6.5" lengthAdjust="spacing" textLength="20.5" x="558.25" y="186.1187">getAll()</text><path d="M221.5,210.9961 L258,210.9961 L258,214.2578 L253,219.2578 L221.5,219.2578 L221.5,210.9961 " fill="#EEEEEE" style="stroke:#000000;stroke-width:0.75;"/><rect fill="none" height="44.2852" style="stroke:#000000;stroke-width:0.75;" width="387" x="221.5" y="210.9961"/><text fill="#000000" font-family="sans-serif" font-size="6.5" font-weight="bold" lengthAdjust="spacing" textLength="14" x="229" y="217.3804">loop</text><text fill="#000000" font-family="sans-serif" font-size="5.5" font-weight="bold" lengthAdjust="spacing" textLength="156.5" x="265.5" y="216.9751">[for each studentRegistration in studentRegistrationList]</text><path d="M226.5,222.7578 L257,222.7578 L257,226.0195 L252,231.0195 L226.5,231.0195 L226.5,222.7578 " fill="#EEEEEE" style="stroke:#000000;stroke-width:0.75;"/><rect fill="none" height="29.0234" style="stroke:#000000;stroke-width:0.75;" width="377" x="226.5" y="222.7578"/><text fill="#000000" font-family="sans-serif" font-size="6.5" font-weight="bold" lengthAdjust="spacing" textLength="8" x="234" y="229.1421">alt</text><text fill="#000000" font-family="sans-serif" font-size="5.5" font-weight="bold" lengthAdjust="spacing" textLength="336.5" x="264.5" y="228.7368">[studentRegistration.getStudentProfile().equals(currentUserProfile) &amp;&amp; studentRegistration.getStatus() == Status.ACCEPT]</text><line style="stroke:#181818;stroke-width:0.5;" x1="264.5" x2="285.5" y1="241.2813" y2="241.2813"/><line style="stroke:#181818;stroke-width:0.5;" x1="285.5" x2="285.5" y1="241.2813" y2="247.7813"/><line style="stroke:#181818;stroke-width:0.5;" x1="265" x2="285.5" y1="247.7813" y2="247.7813"/><polygon fill="#181818" points="270,245.7813,265,247.7813,270,249.7813,268,247.7813" style="stroke:#181818;stroke-width:0.5;"/><text fill="#000000" font-family="sans-serif" font-size="6.5" font-weight="bold" lengthAdjust="spacing" textLength="3.5" x="268" y="238.9038">9</text><text fill="#000000" font-family="sans-serif" font-size="6.5" lengthAdjust="spacing" textLength="163.5" x="273.5" y="238.9038">availableCourseList.add(studentRegistration.getCourse())</text><path d="M5,262.2813 L41.5,262.2813 L41.5,265.543 L36.5,270.543 L5,270.543 L5,262.2813 " fill="#EEEEEE" style="stroke:#000000;stroke-width:0.75;"/><rect fill="none" height="22.5234" style="stroke:#000000;stroke-width:0.75;" width="287.5" x="5" y="262.2813"/><text fill="#000000" font-family="sans-serif" font-size="6.5" font-weight="bold" lengthAdjust="spacing" textLength="14" x="12.5" y="268.6655">loop</text><text fill="#000000" font-family="sans-serif" font-size="5.5" font-weight="bold" lengthAdjust="spacing" textLength="111" x="49" y="268.2603">[for each Course in availableCourseList]</text><polygon fill="#181818" points="26.75,278.8047,21.75,280.8047,26.75,282.8047,24.75,280.8047" style="stroke:#181818;stroke-width:0.5;"/><line style="stroke:#181818;stroke-width:0.5;stroke-dasharray:2.0,2.0;" x1="23.75" x2="259" y1="280.8047" y2="280.8047"/><text fill="#000000" font-family="sans-serif" font-size="6.5" font-weight="bold" lengthAdjust="spacing" textLength="7" x="29.75" y="278.4272">10</text><text fill="#000000" font-family="sans-serif" font-size="6.5" lengthAdjust="spacing" textLength="67.5" x="38.75" y="278.4272">print course information</text><!--MD5=[b83078c06d7b06b6da0b91b0cdb5b506]
@startuml
'https://plantuml.com/sequence-diagram

autonumber

actor manager as "User"

participant ":CoursesUi" as ui <<presentation>>
participant ":ViewCoursesAction" as action <<application>>
participant ":ViewCoursesUi" as viewUi <<presentation>>
participant ":StudentRegistrationController" as controller <<application>>
participant ":StudentRegistrationService" as service <<application>>
participant PersistenceContext as persistence
participant RepositoryFactory as factory
database ":StudentRegistrationRepository" as userRepository <<repository>>


activate manager

manager -> ui : requests to view user courses
activate ui
ui -> action : execute()
activate action
action -> viewUi : doShow()
deactivate action
activate viewUi
deactivate ui
activate viewUi
viewUi -> controller : studentRegistrationList = getStudentRegistrations()
activate controller
controller -> service : getAll()
activate service
service -> persistence : repositories()
activate persistence
note right of persistence: repository can be either in memory or JPA
persistence -> factory : studentRegistrations()
activate factory
deactivate factory
deactivate persistence
service -> userRepository : getAll()
activate userRepository
deactivate userRepository
deactivate service
deactivate controller
loop for each studentRegistration in studentRegistrationList
alt studentRegistration.getStudentProfile().equals(currentUserProfile) && studentRegistration.getStatus() == Status.ACCEPT
viewUi -> viewUi : availableCourseList.add(studentRegistration.getCourse())
end
end
loop for each Course in availableCourseList
viewUi - -> manager : print course information
end
deactivate viewUi



@enduml

@startuml

autonumber

actor manager as "User"

participant ":CoursesUi" as ui <<presentation>>
participant ":ViewCoursesAction" as action <<application>>
participant ":ViewCoursesUi" as viewUi <<presentation>>
participant ":StudentRegistrationController" as controller <<application>>
participant ":StudentRegistrationService" as service <<application>>
participant PersistenceContext as persistence
participant RepositoryFactory as factory
database ":StudentRegistrationRepository" as userRepository <<repository>>


activate manager

manager -> ui : requests to view user courses
activate ui
ui -> action : execute()
activate action
action -> viewUi : doShow()
deactivate action
activate viewUi
deactivate ui
activate viewUi
viewUi -> controller : studentRegistrationList = getStudentRegistrations()
activate controller
controller -> service : getAll()
activate service
service -> persistence : repositories()
activate persistence
note right of persistence: repository can be either in memory or JPA
persistence -> factory : studentRegistrations()
activate factory
deactivate factory
deactivate persistence
service -> userRepository : getAll()
activate userRepository
deactivate userRepository
deactivate service
deactivate controller
loop for each studentRegistration in studentRegistrationList
alt studentRegistration.getStudentProfile().equals(currentUserProfile) && studentRegistration.getStatus() == Status.ACCEPT
viewUi -> viewUi : availableCourseList.add(studentRegistration.getCourse())
end
end
loop for each Course in availableCourseList
viewUi - -> manager : print course information
end
deactivate viewUi



@enduml

PlantUML version 1.2022.12(Sun Oct 23 19:12:26 WEST 2022)
(GPL source distribution)
Java Runtime: OpenJDK Runtime Environment
JVM: OpenJDK 64-Bit Server VM
Default Encoding: Cp1252
Language: en
Country: GB
--></g></svg>